<?xml version="1.0" encoding="utf-8"?>
<!-- Generator: Adobe Illustrator 22.1.0, SVG Export Plug-In . SVG Version: 6.00 Build 0)  -->
<svg version="1.1" id="レイヤー_1" xmlns="http://www.w3.org/2000/svg" xmlns:xlink="http://www.w3.org/1999/xlink" x="0px"
	 y="0px" viewBox="0 0 301 86" style="enable-background:new 0 0 301 86;" xml:space="preserve">
<style type="text/css">
	.st0{fill:none;}
	.st1{fill:#EDE349;}
	.st2{fill:#ECBD27;}
	.st3{fill:#FFFFFF;}
	.st4{enable-background:new    ;}
	.st5{fill:#333333;}
	.st6{fill:#589D69;}
	.st7{fill:#00813A;}
	.st8{fill:#006A20;}
	.st9{fill:#848F95;}
	.st10{fill:#526663;}
	.st11{fill:#738082;}
	.st12{opacity:0.12;enable-background:new    ;}
	.st13{fill:#61C3FF;}
	.st14{fill:#1CA4DE;}
	.st15{fill:#FFEC00;}
	.st16{fill:#666666;}
	.st17{fill:#C2C2C2;}
	.st18{fill:#FFF100;}
	.st19{fill:#F0F0F3;}
	.st20{fill:#D7D1CE;}
	.st21{opacity:6.000000e-02;enable-background:new    ;}
	.st22{fill:#B6FFFF;}
</style>
<rect class="st0" width="301" height="86"/>
<g>
	<g>
		<g>
			<path class="st1" d="M232,75V59.8l6.3-7.9c1.6-1.9,1.6-5.1,0-7.1l-6.3-7.9V25.7c0-2.5-2.1-4.6-4.6-4.6H20.8
				c-2.5,0-4.6,2.1-4.6,4.6V37l6.5,8.1c1.4,1.8,1.4,4.6,0,6.4l-6.4,8l-0.1,0.2V75H4.3c-2.2,0-4-1.8-4-4V59.8l6.3-7.9
				c1.6-1.9,1.6-5.1,0-7.1l-6.3-7.9V18.4c0-2.2,1.8-4,4-4h284.9c2.2,0,4,1.8,4,4V37l6.5,8.1c1.4,1.8,1.4,4.6,0,6.4l-6.4,8l-0.1,0.2
				V71c0,2.2-1.8,4-4,4H232z"/>
			<g>
				<path class="st2" d="M289.2,14.6c2.1,0,3.8,1.7,3.8,3.8V37v0.2l0.1,0.1v0.1l0,0l6.3,7.9c1.3,1.6,1.3,4.4,0,6l-6.3,7.9l-0.1,0.1
					l0,0l-0.1,0.1v0.2v11.3c0,2.1-1.7,3.8-3.8,3.8h-56.9V59.9l6.3-7.9c1.6-2,1.6-5.4,0-7.4l-6.3-7.9v-11c0-2.7-2.2-4.9-4.9-4.9H20.8
					c-2.7,0-4.9,2.2-4.9,4.9V37v0.2l0.1,0.1v0.1l0,0l6.3,7.9c1.3,1.6,1.3,4.4,0,6L16,59.2v0.1l0,0l-0.1,0.1v0.2v15H4.3
					c-2.1,0-3.8-1.7-3.8-3.8V59.9L6.8,52c1.6-2,1.6-5.4,0-7.4l-6.3-7.9V18.4c0-2.1,1.7-3.8,3.8-3.8L289.2,14.6 M289.2,14H4.3
					C1.9,14,0,16,0,18.4V37c0,0,0,0,0.1,0.1L6.4,45c1.5,1.8,1.5,4.9,0,6.7l-6.3,7.9c0,0,0,0-0.1,0.1V71c0,2.4,1.9,4.3,4.3,4.3h12.1
					V59.7c0,0,0,0,0.1-0.1l6.3-7.9c1.5-1.8,1.5-4.9,0-6.7l-6.3-8c0,0,0,0-0.1-0.1V25.7c0-2.4,1.9-4.3,4.3-4.3h206.7
					c2.4,0,4.3,1.9,4.3,4.3V37c0,0,0,0,0.1,0.1l6.3,7.9c1.5,1.8,1.5,4.9,0,6.7l-6.3,7.9c0,0,0,0-0.1,0.1v15.6h57.4
					c2.4,0,4.3-1.9,4.3-4.3V59.7c0,0,0,0,0.1-0.1l6.3-7.9c1.5-1.8,1.5-4.9,0-6.7l-6.3-7.9c0,0,0,0-0.1-0.1V18.4
					C293.5,16,291.5,14,289.2,14L289.2,14z"/>
			</g>
		</g>
		<g>
			<path class="st3" d="M259.3,19.7c-5,0-9-4-9-9v-1c0-5,4-9,9-9h17.3c5,0,9,4,9,9v1c0,5-4,9-9,9H259.3z"/>
			<g>
				<path class="st2" d="M276.5,1.1c4.7,0,8.6,3.8,8.6,8.6v1c0,4.7-3.8,8.6-8.6,8.6h-17.3c-4.7,0-8.6-3.8-8.6-8.6v-1
					c0-4.7,3.8-8.6,8.6-8.6L276.5,1.1 M276.5,0.3h-17.3c-5.2,0-9.4,4.2-9.4,9.4v1c0,5.2,4.2,9.4,9.4,9.4h17.3c5.2,0,9.4-4.2,9.4-9.4
					v-1C285.9,4.5,281.7,0.3,276.5,0.3L276.5,0.3z"/>
			</g>
		</g>
		<g class="st4">
			<path class="st5" d="M264.9,12.7v-1.8l4.2-5.5h1.7v5.7h1.3v1.6h-1.3v2.2h-1.8v-2.2H264.9z M268.9,7.8l-2.5,3.3h2.5L268.9,7.8
				L268.9,7.8z"/>
		</g>
		<path class="st6" d="M284.2,40.2c-1.1-2.7-3-4.9-5.4-6.5s-5.2-2.5-8.3-2.5h-7.6v-4.7L248.5,34l14.3,7.6v-4.7h7.6
			c1.3,0,2.4,0.3,3.5,0.7c1.6,0.7,3,1.8,4,3.3s1.5,3.2,1.5,5.1c0,1.3-0.3,2.4-0.7,3.5c-0.7,1.6-1.8,3-3.3,4s-3.2,1.5-5.1,1.5v5.8
			c2,0,4-0.4,5.8-1.2c2.7-1.1,4.9-3,6.5-5.4s2.5-5.2,2.5-8.3C285.3,43.9,284.9,42,284.2,40.2z"/>
	</g>
	<g>
		<g>
			<g>
				<path class="st7" d="M74.5,74.9c-2.2,0-3.9-1.8-3.9-4V59.7l6.3-7.9c1.6-2,1.6-5.2,0-7.2l-6.3-7.9V25.5c0-2.2,1.8-4,3.9-4h45.2
					c2.2,0,3.9,1.8,3.9,4v11.4l0.1,0.1l6.4,8c1.4,1.7,1.4,4.6,0,6.3l-6.4,8.1l-0.1,0.2v11.3c0,2.2-1.8,4-3.9,4H74.5z"/>
				<g>
					<path class="st8" d="M119.7,21.9c2,0,3.6,1.6,3.6,3.6v11.3V37l0.2,0.2l0,0l0,0l6.3,8c1.3,1.6,1.3,4.3,0,5.9l-6.3,7.9l-0.1,0.1
						l0,0l-0.2,0.2v0.3v11.3c0,2-1.6,3.6-3.6,3.6H74.5c-2,0-3.6-1.6-3.6-3.6v-11l6.2-7.8c1.7-2.1,1.7-5.5,0-7.6l-6.2-7.8V25.5
						c0-2,1.6-3.6,3.6-3.6H119.7 M119.7,21.1H74.5c-2.4,0-4.3,1.9-4.3,4.3v11.3c0,0,0,0,0.1,0.1l6.3,8c1.5,1.9,1.5,4.9,0,6.8l-6.3,8
						c0,0,0,0-0.1,0.1V71c0,2.4,1.9,4.3,4.3,4.3h45.2c2.4,0,4.3-1.9,4.3-4.3V59.6c0,0,0,0,0.1-0.1l6.3-8c1.5-1.9,1.5-4.9,0-6.8
						l-6.3-8c0,0,0,0-0.1-0.1V25.5C124,23.1,122.1,21.1,119.7,21.1L119.7,21.1z"/>
				</g>
			</g>
			<g>
				<g>
					<g>
						<ellipse class="st3" cx="100.9" cy="48.8" rx="16" ry="15.8"/>
						<path class="st9" d="M112.4,37.1l-0.4,0.4L112.4,37.1c-1-1-2.2-1.9-3.5-2.6c-2.4-1.4-5.2-2.1-8.1-2.1c-9,0-16.4,7.3-16.4,16.3
							c0,2.8,0.7,5.4,1.9,7.6c0.8,1.4,1.7,2.7,2.9,3.9l0,0c3,2.9,7.1,4.8,11.6,4.8c9,0,16.4-7.3,16.4-16.3
							C117.2,44.1,115.4,40.1,112.4,37.1z M100.9,64c-4.3,0-8.2-1.7-11-4.5l0,0c-2.8-2.8-4.5-6.6-4.5-10.9c0-8.5,6.9-15.4,15.5-15.4
							c4.3,0,8.2,1.7,11,4.5l0,0c2.8,2.8,4.5,6.6,4.5,10.9C116.4,57.1,109.4,64,100.9,64z"/>
					</g>
					<path class="st10" d="M97.4,36.1c-0.2,0-0.4-0.1-0.5-0.3c0-0.1,0-0.2,0-0.4c0.1-0.1,0.2-0.2,0.3-0.2h0.1c0.2,0,0.4,0.1,0.5,0.3
						c0,0.1,0,0.2,0,0.4C97.7,36,97.6,36.1,97.4,36.1C97.5,36,97.4,36.1,97.4,36.1z"/>
					<path class="st10" d="M104.4,62.1c-0.2,0-0.4-0.1-0.5-0.3c0-0.1,0-0.2,0-0.4c0.1-0.1,0.2-0.2,0.3-0.2h0.1
						c0.2,0,0.4,0.1,0.5,0.3S104.7,62,104.4,62.1C104.5,62.1,104.4,62.1,104.4,62.1z"/>
					<path class="st10" d="M87.8,45.6L87.8,45.6c-0.2,0-0.3-0.1-0.4-0.2c-0.1-0.1-0.1-0.2,0-0.4s0.2-0.3,0.5-0.3H88
						c0.1,0,0.2,0.1,0.3,0.2c0.1,0.1,0.1,0.2,0,0.4C88.2,45.4,88,45.6,87.8,45.6z"/>
					<path class="st10" d="M114,52.6L114,52.6c-0.3-0.1-0.5-0.3-0.4-0.6c0.1-0.2,0.2-0.3,0.5-0.3h0.1c0.1,0,0.2,0.1,0.3,0.2
						c0.1,0.1,0.1,0.2,0,0.4C114.4,52.4,114.2,52.6,114,52.6z"/>
					<path class="st10" d="M87.8,52.6c-0.2,0-0.4-0.1-0.5-0.3c0-0.1,0-0.2,0-0.4c0.1-0.1,0.2-0.2,0.3-0.2h0.1c0.2,0,0.4,0.1,0.5,0.3
						S88.1,52.5,87.8,52.6C87.9,52.6,87.8,52.6,87.8,52.6z"/>
					<path class="st10" d="M114,45.6c-0.2,0-0.4-0.1-0.5-0.3c0-0.1,0-0.2,0-0.4c0.1-0.1,0.2-0.2,0.3-0.2h0.1c0.2,0,0.4,0.1,0.5,0.3
						c0,0.1,0,0.2,0,0.4C114.3,45.5,114.2,45.6,114,45.6L114,45.6z"/>
					<path class="st10" d="M97.4,62.1L97.4,62.1c-0.3-0.1-0.5-0.3-0.4-0.6c0.1-0.2,0.2-0.3,0.5-0.3h0.1c0.1,0,0.2,0.1,0.3,0.2
						c0.1,0.1,0.1,0.2,0,0.4C97.8,61.9,97.6,62.1,97.4,62.1z"/>
					<path class="st10" d="M104.4,36.1L104.4,36.1c-0.2,0-0.3-0.1-0.4-0.2c-0.1-0.1-0.1-0.2,0-0.4s0.2-0.3,0.5-0.3h0.1
						c0.1,0,0.2,0.1,0.3,0.2c0.1,0.1,0.1,0.2,0,0.4C104.8,35.9,104.6,36.1,104.4,36.1z"/>
					<path class="st10" d="M94.1,37.4c-0.2,0-0.3-0.1-0.4-0.2c-0.1-0.1-0.1-0.2,0-0.4c0-0.1,0.1-0.2,0.2-0.3c0.1,0,0.2-0.1,0.2-0.1
						c0.2,0,0.3,0.1,0.4,0.2c0.1,0.1,0.1,0.2,0,0.4c0,0.1-0.1,0.2-0.2,0.3C94.3,37.4,94.2,37.4,94.1,37.4z"/>
					<path class="st10" d="M107.7,60.7c-0.2,0-0.3-0.1-0.4-0.2c-0.1-0.2-0.1-0.5,0.2-0.6c0.1,0,0.2-0.1,0.2-0.1
						c0.2,0,0.3,0.1,0.4,0.2c0.1,0.1,0.1,0.2,0,0.4c0,0.1-0.1,0.2-0.2,0.3C107.8,60.7,107.8,60.7,107.7,60.7z"/>
					<path class="st10" d="M89.1,42.3c-0.1,0-0.2,0-0.2-0.1c-0.1-0.1-0.2-0.2-0.2-0.3s0-0.2,0-0.4c0.1-0.1,0.2-0.2,0.4-0.2
						c0.1,0,0.2,0,0.2,0.1c0.1,0.1,0.2,0.2,0.2,0.3s0,0.2,0,0.4C89.5,42.2,89.3,42.3,89.1,42.3z"/>
					<path class="st10" d="M112.6,55.8c-0.1,0-0.2,0-0.2-0.1c-0.2-0.1-0.3-0.4-0.2-0.6c0.1-0.1,0.2-0.2,0.4-0.2c0.1,0,0.2,0,0.2,0.1
						c0.1,0.1,0.2,0.2,0.2,0.3s0,0.2,0,0.4C113,55.7,112.8,55.8,112.6,55.8z"/>
					<path class="st10" d="M89.1,55.8c-0.2,0-0.3-0.1-0.4-0.2c-0.1-0.2-0.1-0.5,0.2-0.6c0.1,0,0.2-0.1,0.2-0.1
						c0.2,0,0.3,0.1,0.4,0.2c0.1,0.1,0.1,0.2,0,0.4c0,0.1-0.1,0.2-0.2,0.3C89.3,55.8,89.2,55.8,89.1,55.8z"/>
					<path class="st10" d="M112.6,42.3c-0.2,0-0.3-0.1-0.4-0.2c-0.1-0.2-0.1-0.5,0.2-0.6c0.1,0,0.2-0.1,0.2-0.1
						c0.2,0,0.3,0.1,0.4,0.2c0.1,0.1,0.1,0.2,0,0.4c0,0.1-0.1,0.2-0.2,0.3C112.8,42.3,112.7,42.3,112.6,42.3z"/>
					<path class="st10" d="M94.1,60.7c-0.1,0-0.2,0-0.2-0.1c-0.1-0.1-0.2-0.2-0.2-0.3s0-0.2,0-0.4c0.1-0.1,0.2-0.2,0.4-0.2
						c0.1,0,0.2,0,0.2,0.1c0.1,0.1,0.2,0.2,0.2,0.3s0,0.2,0,0.4C94.4,60.6,94.3,60.7,94.1,60.7z"/>
					<path class="st10" d="M107.7,37.4c-0.1,0-0.2,0-0.2-0.1c-0.1-0.1-0.2-0.2-0.2-0.3s0-0.2,0-0.4c0.1-0.1,0.2-0.2,0.4-0.2
						c0.1,0,0.2,0,0.2,0.1c0.1,0.1,0.2,0.2,0.2,0.3s0,0.2,0,0.4C108,37.3,107.8,37.4,107.7,37.4z"/>
					<rect x="100.5" y="34.6" class="st10" width="0.9" height="3.3"/>
					<rect x="100.5" y="59.2" class="st10" width="0.9" height="3.3"/>
					<polygon class="st10" points="90.6,39.1 91.3,38.4 93.7,40.8 93,41.4 					"/>
					<polygon class="st10" points="108.1,56.4 108.8,55.8 111.2,58.1 110.5,58.8 					"/>
					<polygon class="st10" points="90.6,58.1 93,55.8 93.7,56.4 91.3,58.8 					"/>
					<polygon class="st10" points="108.1,40.8 110.5,38.4 111.2,39.1 108.8,41.4 					"/>
					<rect x="86.9" y="48.2" class="st10" width="3.3" height="0.9"/>
					<rect x="111.7" y="48.1" class="st10" width="3.3" height="0.9"/>
					<g>
						<ellipse class="st9" cx="110.3" cy="32.9" rx="2.4" ry="2.4"/>
						<path class="st9" d="M103.9,32.6h-6.2c-0.7,0-1.3-0.6-1.3-1.3v-0.9c0-0.7,0.6-1.3,1.3-1.3h6.2c0.7,0,1.3,0.6,1.3,1.3v0.9
							C105.2,32,104.6,32.6,103.9,32.6z"/>
					</g>
					<rect x="99.2" y="30.6" class="st11" width="3.3" height="1.8"/>
					<path class="st12" d="M112.4,37.1l-0.4,0.4L112.4,37.1c-0.7-0.7-1.4-1.3-2.2-1.8h0.1c1.3,0,2.4-1.1,2.4-2.4
						c0-1.3-1.1-2.4-2.4-2.4s-2.4,1.1-2.4,2.4c0,0.4,0.1,0.9,0.3,1.2c-1.5-0.7-3-1.3-4.7-1.6h0.3c0.7,0,1.3-0.6,1.3-1.3v-0.9
						c0-0.7-0.6-1.3-1.3-1.3h-3v35.8c9,0,16.3-7.3,16.3-16.3C117.2,44.1,115.4,40.1,112.4,37.1z"/>
				</g>
				<g>
					<ellipse class="st10" cx="100.9" cy="48.5" rx="1" ry="1"/>
					<polygon class="st10" points="100.9,35.4 100.2,48.8 101.6,48.7 					"/>
					<polygon class="st10" points="101.4,51.5 100.3,51.5 100.3,48.4 101.4,48.4 					"/>
				</g>
			</g>
		</g>
		<g>
			<path class="st3" d="M92.4,26.9c-5.1,0-9.3-4.2-9.3-9.3V17c0-5.1,4.2-9.3,9.3-9.3h16.8c5.1,0,9.3,4.2,9.3,9.3v0.6
				c0,5.1-4.2,9.3-9.3,9.3C109.2,26.9,92.4,26.9,92.4,26.9z"/>
			<g>
				<path class="st8" d="M109.2,8.1c4.9,0,9,4,9,9v0.6c0,4.9-4,9-9,9H92.4c-4.9,0-9-4-9-9V17c0-4.9,4-9,9-9h16.8 M109.2,7.4H92.4
					c-5.3,0-9.6,4.3-9.6,9.6v0.6c0,5.3,4.3,9.6,9.6,9.6h16.8c5.3,0,9.6-4.3,9.6-9.6V17C118.9,11.7,114.5,7.4,109.2,7.4L109.2,7.4z"
					/>
			</g>
		</g>
		<g class="st4">
			<path class="st5" d="M98.1,14.4c0.1-0.5,0.4-0.9,0.6-1.2c0.3-0.3,0.6-0.6,1.1-0.8s0.9-0.3,1.5-0.3c0.4,0,0.8,0.1,1.2,0.2
				s0.7,0.3,1,0.6c0.3,0.3,0.5,0.6,0.7,0.9s0.3,0.8,0.3,1.2c0,0.5-0.1,0.9-0.2,1.2c-0.2,0.3-0.4,0.6-0.6,0.9
				c-0.2,0.3-0.5,0.5-0.9,0.7c-0.3,0.2-0.6,0.4-1,0.6c-0.3,0.2-0.6,0.4-0.9,0.7c-0.3,0.2-0.6,0.5-0.8,0.9h4.4v1.6h-6.9
				c0-0.5,0.1-1,0.2-1.4s0.4-0.8,0.6-1.1c0.3-0.3,0.6-0.6,0.9-0.9c0.4-0.3,0.7-0.5,1.1-0.8c0.2-0.1,0.4-0.3,0.7-0.4
				c0.2-0.1,0.4-0.3,0.6-0.5s0.4-0.4,0.5-0.6c0.1-0.2,0.2-0.5,0.2-0.8c0-0.5-0.1-0.8-0.4-1.1s-0.6-0.4-1-0.4c-0.3,0-0.5,0.1-0.7,0.2
				c-0.2,0.1-0.3,0.3-0.5,0.5c-0.1,0.2-0.2,0.4-0.2,0.7c0,0.3-0.1,0.5-0.1,0.8h-1.8C97.8,15.4,97.9,14.9,98.1,14.4z"/>
		</g>
	</g>
	<g>
		<g>
			<g>
				<path class="st7" d="M182.2,74.9c-2.2,0-3.9-1.8-3.9-4V59.7l6.3-7.9c1.6-2,1.6-5.2,0-7.2l-6.3-7.9V25.5c0-2.2,1.8-4,3.9-4h45.2
					c2.2,0,3.9,1.8,3.9,4v11.4l0.2,0.2l6.3,8c1.4,1.7,1.4,4.6,0,6.3l-6.4,8.1l-0.1,0.2V71c0,2.2-1.8,4-3.9,4L182.2,74.9L182.2,74.9z
					"/>
				<g>
					<path class="st8" d="M227.4,21.9c2,0,3.6,1.6,3.6,3.6v11.3V37l0.2,0.2l0,0l0,0l6.3,8c1.3,1.6,1.3,4.3,0,5.9l-6.3,7.9l-0.1,0.1
						l0,0l-0.2,0.2v0.3v11.3c0,2-1.6,3.6-3.6,3.6h-45.2c-2,0-3.6-1.6-3.6-3.6v-11l6.2-7.8c1.7-2.1,1.7-5.5,0-7.6l-6.2-7.8V25.5
						c0-2,1.6-3.6,3.6-3.6H227.4 M227.4,21.1h-45.2c-2.4,0-4.3,1.9-4.3,4.3v11.3c0,0,0,0,0.1,0.1l6.3,8c1.5,1.9,1.5,4.9,0,6.8
						l-6.3,8c0,0,0,0-0.1,0.1V71c0,2.4,1.9,4.3,4.3,4.3h45.2c2.4,0,4.3-1.9,4.3-4.3V59.6c0,0,0,0,0.1-0.1l6.3-8
						c1.5-1.9,1.5-4.9,0-6.8l-6.3-8c0,0,0,0-0.1-0.1V25.5C231.7,23.1,229.7,21.1,227.4,21.1L227.4,21.1z"/>
				</g>
			</g>
			<g>
				<g>
					<g>
						<ellipse class="st3" cx="208.5" cy="48.8" rx="16" ry="15.8"/>
						<path class="st9" d="M220.1,37.1l-0.4,0.4L220.1,37.1c-1-1-2.2-1.9-3.5-2.6c-2.4-1.4-5.2-2.1-8.1-2.1c-9,0-16.4,7.3-16.4,16.3
							c0,2.8,0.7,5.4,1.9,7.6c0.8,1.4,1.7,2.7,2.9,3.9l0,0c3,2.9,7.1,4.8,11.6,4.8c9,0,16.4-7.3,16.4-16.3
							C224.9,44.1,223.1,40.1,220.1,37.1z M208.5,64c-4.3,0-8.2-1.7-11-4.5l0,0c-2.8-2.8-4.5-6.6-4.5-10.9c0-8.5,6.9-15.4,15.5-15.4
							c4.3,0,8.2,1.7,11,4.5l0,0c2.8,2.8,4.5,6.6,4.5,10.9C224,57.1,217.1,64,208.5,64z"/>
					</g>
					<path class="st10" d="M205,36.1c-0.2,0-0.4-0.1-0.5-0.3c0-0.1,0-0.2,0-0.4c0.1-0.1,0.2-0.2,0.3-0.2h0.1c0.2,0,0.4,0.1,0.5,0.3
						c0,0.1,0,0.2,0,0.4c-0.1,0.1-0.2,0.2-0.3,0.2C205.1,36,205.1,36.1,205,36.1z"/>
					<path class="st10" d="M212.1,62.1c-0.2,0-0.4-0.1-0.5-0.3c0-0.1,0-0.2,0-0.4c0.1-0.1,0.2-0.2,0.3-0.2h0.1
						c0.2,0,0.4,0.1,0.5,0.3s-0.1,0.5-0.3,0.6C212.1,62.1,212.1,62.1,212.1,62.1z"/>
					<path class="st10" d="M195.4,45.6h-0.1c-0.1,0-0.2-0.1-0.3-0.2c-0.1-0.1-0.1-0.2,0-0.4s0.2-0.3,0.5-0.3h0.1
						c0.1,0,0.2,0.1,0.3,0.2c0.1,0.1,0.1,0.2,0,0.4C195.8,45.4,195.6,45.6,195.4,45.6z"/>
					<path class="st10" d="M221.7,52.6h-0.1c-0.2-0.1-0.4-0.3-0.3-0.6c0.1-0.2,0.2-0.3,0.5-0.3h0.1c0.1,0,0.2,0.1,0.3,0.2
						c0.1,0.1,0.1,0.2,0,0.4C222.1,52.4,221.9,52.6,221.7,52.6z"/>
					<path class="st10" d="M195.4,52.6c-0.2,0-0.4-0.1-0.5-0.3c0-0.1,0-0.2,0-0.4c0.1-0.1,0.2-0.2,0.3-0.2h0.1
						c0.2,0,0.4,0.1,0.5,0.3s-0.1,0.5-0.3,0.6C195.5,52.6,195.5,52.6,195.4,52.6z"/>
					<path class="st10" d="M221.7,45.6c-0.2,0-0.4-0.1-0.5-0.3c0-0.1,0-0.2,0-0.4c0.1-0.1,0.2-0.2,0.3-0.2h0.1
						c0.2,0,0.4,0.1,0.5,0.3c0,0.1,0,0.2,0,0.4c-0.1,0.1-0.2,0.2-0.3,0.2S221.7,45.6,221.7,45.6z"/>
					<path class="st10" d="M205,62.1h-0.1c-0.2-0.1-0.4-0.3-0.3-0.6c0.1-0.2,0.2-0.3,0.5-0.3h0.1c0.1,0,0.2,0.1,0.3,0.2
						c0.1,0.1,0.1,0.2,0,0.4C205.4,61.9,205.2,62.1,205,62.1z"/>
					<path class="st10" d="M212.1,36.1H212c-0.1,0-0.2-0.1-0.3-0.2c-0.1-0.1-0.1-0.2,0-0.4s0.2-0.3,0.5-0.3h0.1
						c0.1,0,0.2,0.1,0.3,0.2c0.1,0.1,0.1,0.2,0,0.4C212.5,35.9,212.3,36.1,212.1,36.1z"/>
					<path class="st10" d="M201.8,37.4c-0.2,0-0.3-0.1-0.4-0.2c-0.1-0.1-0.1-0.2,0-0.4c0-0.1,0.1-0.2,0.2-0.3c0.1,0,0.2-0.1,0.2-0.1
						c0.2,0,0.3,0.1,0.4,0.2c0.1,0.1,0.1,0.2,0,0.4c0,0.1-0.1,0.2-0.2,0.3C201.9,37.4,201.8,37.4,201.8,37.4z"/>
					<path class="st10" d="M215.3,60.7c-0.2,0-0.3-0.1-0.4-0.2c-0.1-0.2-0.1-0.5,0.2-0.6c0.1,0,0.2-0.1,0.2-0.1
						c0.2,0,0.3,0.1,0.4,0.2c0.1,0.1,0.1,0.2,0,0.4c0,0.1-0.1,0.2-0.2,0.3C215.5,60.7,215.4,60.7,215.3,60.7z"/>
					<path class="st10" d="M196.8,42.3c-0.1,0-0.2,0-0.2-0.1c-0.1-0.1-0.2-0.2-0.2-0.3s0-0.2,0-0.4c0.1-0.1,0.2-0.2,0.4-0.2
						c0.1,0,0.2,0,0.2,0.1c0.1,0.1,0.2,0.2,0.2,0.3s0,0.2,0,0.4C197.1,42.2,197,42.3,196.8,42.3z"/>
					<path class="st10" d="M220.3,55.8c-0.1,0-0.2,0-0.2-0.1c-0.2-0.1-0.3-0.4-0.2-0.6c0.1-0.1,0.2-0.2,0.4-0.2c0.1,0,0.2,0,0.2,0.1
						c0.1,0.1,0.2,0.2,0.2,0.3s0,0.2,0,0.4C220.6,55.7,220.5,55.8,220.3,55.8z"/>
					<path class="st10" d="M196.8,55.8c-0.2,0-0.3-0.1-0.4-0.2c-0.1-0.2-0.1-0.5,0.2-0.6c0.1,0,0.2-0.1,0.2-0.1
						c0.2,0,0.3,0.1,0.4,0.2c0.1,0.1,0.1,0.2,0,0.4c0,0.1-0.1,0.2-0.2,0.3C196.9,55.8,196.9,55.8,196.8,55.8z"/>
					<path class="st10" d="M220.3,42.3c-0.2,0-0.3-0.1-0.4-0.2c-0.1-0.2-0.1-0.5,0.2-0.6c0.1,0,0.2-0.1,0.2-0.1
						c0.2,0,0.3,0.1,0.4,0.2c0.1,0.1,0.1,0.2,0,0.4c0,0.1-0.1,0.2-0.2,0.3C220.5,42.3,220.4,42.3,220.3,42.3z"/>
					<path class="st10" d="M201.8,60.7c-0.1,0-0.2,0-0.2-0.1c-0.1-0.1-0.2-0.2-0.2-0.3s0-0.2,0-0.4c0.1-0.1,0.2-0.2,0.4-0.2
						c0.1,0,0.2,0,0.2,0.1c0.1,0.1,0.2,0.2,0.2,0.3s0,0.2,0,0.4C202.1,60.6,201.9,60.7,201.8,60.7z"/>
					<path class="st10" d="M215.3,37.4c-0.1,0-0.2,0-0.2-0.1c-0.1-0.1-0.2-0.2-0.2-0.3s0-0.2,0-0.4c0.1-0.1,0.2-0.2,0.4-0.2
						c0.1,0,0.2,0,0.2,0.1c0.1,0.1,0.2,0.2,0.2,0.3s0,0.2,0,0.4C215.7,37.3,215.5,37.4,215.3,37.4z"/>
					<rect x="208.2" y="34.7" class="st10" width="0.9" height="3.3"/>
					<rect x="208.1" y="59.2" class="st10" width="0.9" height="3.3"/>
					<polygon class="st10" points="198.3,39.1 198.9,38.4 201.3,40.8 200.6,41.4 					"/>
					<polygon class="st10" points="215.8,56.4 216.4,55.8 218.8,58.1 218.1,58.8 					"/>
					<polygon class="st10" points="198.3,58.1 200.6,55.8 201.3,56.4 198.9,58.8 					"/>
					<polygon class="st10" points="215.8,40.8 218.1,38.4 218.8,39.1 216.4,41.4 					"/>
					<rect x="194.6" y="48.1" class="st10" width="3.3" height="0.9"/>
					<rect x="219.3" y="48.2" class="st10" width="3.3" height="0.9"/>
					<g>
						<ellipse class="st9" cx="218" cy="32.9" rx="2.4" ry="2.4"/>
						<path class="st9" d="M211.6,32.6h-6.2c-0.7,0-1.3-0.6-1.3-1.3v-0.9c0-0.7,0.6-1.3,1.3-1.3h6.2c0.7,0,1.3,0.6,1.3,1.3v0.9
							C212.9,32,212.3,32.6,211.6,32.6z"/>
					</g>
					<rect x="206.8" y="30.6" class="st11" width="3.3" height="1.8"/>
					<path class="st12" d="M220.1,37.1l-0.4,0.4L220.1,37.1c-0.7-0.7-1.4-1.3-2.2-1.8h0.1c1.3,0,2.4-1.1,2.4-2.4
						c0-1.3-1.1-2.4-2.4-2.4c-1.3,0-2.4,1.1-2.4,2.4c0,0.4,0.1,0.9,0.3,1.2c-1.5-0.7-3-1.3-4.7-1.6h0.3c0.7,0,1.3-0.6,1.3-1.3v-0.9
						c0-0.7-0.6-1.3-1.3-1.3h-3v35.8c9,0,16.3-7.3,16.3-16.3C224.9,44.1,223.1,40.1,220.1,37.1z"/>
				</g>
				<g>
					<ellipse class="st10" cx="208.5" cy="48.5" rx="1" ry="1"/>
					<polygon class="st10" points="208.6,35.4 207.8,48.8 209.2,48.7 					"/>
					<polygon class="st10" points="209.1,51.5 208,51.5 208,48.4 209.1,48.4 					"/>
				</g>
			</g>
		</g>
		<g>
			<path class="st3" d="M200.1,26.9c-5.1,0-9.3-4.2-9.3-9.3V17c0-5.1,4.2-9.3,9.3-9.3h16.8c5.1,0,9.3,4.2,9.3,9.3v0.6
				c0,5.1-4.2,9.3-9.3,9.3C216.9,26.9,200.1,26.9,200.1,26.9z"/>
			<g>
				<path class="st8" d="M216.9,8.1c4.9,0,9,4,9,9v0.6c0,4.9-4,9-9,9h-16.8c-4.9,0-9-4-9-9V17c0-4.9,4-9,9-9h16.8 M216.9,7.4h-16.8
					c-5.3,0-9.6,4.3-9.6,9.6v0.6c0,5.3,4.3,9.6,9.6,9.6h16.8c5.3,0,9.6-4.3,9.6-9.6V17C226.5,11.7,222.2,7.4,216.9,7.4L216.9,7.4z"
					/>
			</g>
		</g>
		<g class="st4">
			<path class="st5" d="M205.7,14.4c0.1-0.5,0.4-0.9,0.6-1.2c0.3-0.3,0.6-0.6,1.1-0.8s0.9-0.3,1.5-0.3c0.4,0,0.8,0.1,1.2,0.2
				s0.7,0.3,1,0.6c0.3,0.3,0.5,0.6,0.7,0.9s0.3,0.8,0.3,1.2c0,0.5-0.1,0.9-0.2,1.2c-0.2,0.3-0.4,0.6-0.6,0.9
				c-0.2,0.3-0.5,0.5-0.9,0.7c-0.3,0.2-0.6,0.4-1,0.6c-0.3,0.2-0.6,0.4-0.9,0.7c-0.3,0.2-0.6,0.5-0.8,0.9h4.4v1.6h-6.9
				c0-0.5,0.1-1,0.2-1.4s0.4-0.8,0.6-1.1c0.3-0.3,0.6-0.6,0.9-0.9c0.4-0.3,0.7-0.5,1.1-0.8c0.2-0.1,0.4-0.3,0.7-0.4
				c0.2-0.1,0.4-0.3,0.6-0.5s0.4-0.4,0.5-0.6c0.1-0.2,0.2-0.5,0.2-0.8c0-0.5-0.1-0.8-0.4-1.1s-0.6-0.4-1-0.4c-0.3,0-0.5,0.1-0.7,0.2
				c-0.2,0.1-0.3,0.3-0.5,0.5c-0.1,0.2-0.2,0.4-0.2,0.7c0,0.3-0.1,0.5-0.1,0.8h-1.8C205.5,15.4,205.6,14.9,205.7,14.4z"/>
		</g>
	</g>
	<g>
		<g>
			<path class="st13" d="M20.7,74.9c-2.2,0-3.9-1.8-3.9-4V59.7l6.3-7.9c1.6-2,1.6-5.2,0-7.2l-6.3-7.9V25.5c0-2.2,1.8-4,3.9-4h45.2
				c2.2,0,3.9,1.8,3.9,4v11.3c0,0.1,0,0.2,0.1,0.2l0.1,0.1l6.3,8c1.4,1.7,1.4,4.6,0,6.3l-6.3,8c-0.1,0.1-0.1,0.2-0.1,0.3V71
				c0,2.2-1.8,4-3.9,4L20.7,74.9L20.7,74.9z"/>
			<path class="st14" d="M65.9,21.9c2,0,3.6,1.6,3.6,3.6v11.3c0,0.2,0.1,0.3,0.2,0.5c0,0,0,0.1,0.1,0.1l6.3,8c1.3,1.6,1.3,4.3,0,5.9
				l-6.3,7.9l-0.1,0.1c-0.1,0.1-0.2,0.3-0.2,0.5v11.3c0,2-1.6,3.6-3.6,3.6H20.7c-2,0-3.6-1.6-3.6-3.6V59.9l6.2-7.8
				c1.7-2.1,1.7-5.5,0-7.6l-6.2-7.8V25.5c0-2,1.6-3.6,3.6-3.6H65.9 M65.9,21.1H20.7c-2.4,0-4.3,1.9-4.3,4.3v11.3c0,0,0,0,0.1,0.1
				l6.3,8c1.5,1.9,1.5,4.9,0,6.8l-6.3,8c0,0,0,0-0.1,0.1V71c0,2.4,1.9,4.3,4.3,4.3h45.2c2.4,0,4.3-1.9,4.3-4.3V59.6c0,0,0,0,0.1-0.1
				l6.3-8c1.5-1.9,1.5-4.9,0-6.8l-6.3-8c0,0,0,0-0.1-0.1V25.5C70.2,23.1,68.2,21.1,65.9,21.1L65.9,21.1z"/>
		</g>
		<g>
			<g>
				<g>
					<path class="st15" d="M31.4,41.6h-1.6c-0.4,0-0.7-0.3-0.7-0.7s0.3-0.7,0.7-0.7h1.6c0.4,0,0.7,0.3,0.7,0.7
						C32,41.3,31.7,41.6,31.4,41.6z"/>
					<path class="st15" d="M64.3,41.6h-1.6c-0.4,0-0.7-0.3-0.7-0.7s0.3-0.7,0.7-0.7h1.6c0.4,0,0.7,0.3,0.7,0.7S64.7,41.6,64.3,41.6z
						"/>
				</g>
				<g>
					<path class="st15" d="M58.3,30.4c-0.2,0-0.4-0.1-0.5-0.2c-0.3-0.3-0.3-0.7,0-1l0.9-0.9c0.3-0.3,0.7-0.3,1,0s0.3,0.7,0,1
						l-0.9,0.9C58.6,30.3,58.5,30.4,58.3,30.4z"/>
					<path class="st15" d="M34.8,53.7c-0.2,0-0.4-0.1-0.5-0.2c-0.3-0.3-0.3-0.7,0-1l0.9-0.9c0.3-0.3,0.7-0.3,1,0s0.3,0.7,0,1
						l-0.9,0.9C35.2,53.6,35,53.7,34.8,53.7z"/>
				</g>
				<g>
					<path class="st15" d="M35.7,30.4c-0.2,0-0.4-0.1-0.5-0.2l-0.9-0.9c-0.3-0.3-0.3-0.7,0-1s0.7-0.3,1,0l0.9,0.9
						c0.3,0.3,0.3,0.7,0,1C36.1,30.3,35.9,30.4,35.7,30.4z"/>
					<path class="st15" d="M59.2,53.7c-0.2,0-0.4-0.1-0.5-0.2l-0.9-0.9c-0.3-0.3-0.3-0.7,0-1s0.7-0.3,1,0l0.9,0.9
						c0.3,0.3,0.3,0.7,0,1C59.6,53.6,59.4,53.7,59.2,53.7z"/>
				</g>
			</g>
			<g>
				<g>
					<g>
						<polygon class="st16" points="52.1,65.2 50.9,65.8 49.4,67.1 44.6,67.1 43.1,65.8 42,65.2 						"/>
						<path class="st17" d="M45,67.1c0,0,0.1,1.2,2,1.2s2-1.2,2-1.2H45z"/>
					</g>
					<path class="st18" d="M59.5,41.5c0,3.4-1.4,6.5-3.6,8.7c-2.2,2.2-3.6,3-3.8,6.6h-1c-1,0-2.3,0-2.3,0h-3.3c0,0-1.2,0-2.2,0H42
						c-0.2-3.1-1.2-4.1-3-5.7c-0.3-0.3-0.6-0.5-0.9-0.8c-2.3-2.2-3.6-5.3-3.6-8.7s1.4-6.5,3.6-8.7c2.2-2.2,5.4-3.6,8.8-3.6
						c2.8,0,5.3,0.9,7.4,2.4c0.5,0.4,1,0.8,1.4,1.2c0.2,0.1,0.3,0.3,0.4,0.5c0.3,0.3,0.5,0.6,0.8,1C58.6,36.2,59.5,38.8,59.5,41.5z"
						/>
					<g>
						<path class="st19" d="M40.6,63.6c0-1.1,0.9-1.9,2-1.9h8.9c1.1,0,2,0.9,2,1.9l0,0c0,1.1-0.9,1.9-2,1.9h-8.9
							C41.5,65.5,40.6,64.6,40.6,63.6L40.6,63.6z"/>
						<path class="st20" d="M40.6,63.7c0.1,1,0.9,1.8,2,1.8h8.9c1,0,1.9-0.8,2-1.8H40.6z"/>
					</g>
					<g>
						<path class="st19" d="M40.6,59.8c0-1.1,0.9-1.9,2-1.9h8.9c1.1,0,2,0.9,2,1.9l0,0c0,1.1-0.9,1.9-2,1.9h-8.9
							C41.5,61.7,40.6,60.8,40.6,59.8L40.6,59.8z"/>
						<path class="st20" d="M40.6,59.9c0.1,1,0.9,1.8,2,1.8h8.9c1,0,1.9-0.8,2-1.8H40.6z"/>
					</g>
					<g>
						<path class="st19" d="M40.6,56c0-1.1,0.9-1.9,2-1.9h8.9c1.1,0,2,0.9,2,1.9l0,0c0,1.1-0.9,1.9-2,1.9h-8.9
							C41.5,57.9,40.6,57,40.6,56L40.6,56z"/>
						<path class="st20" d="M40.6,56.1c0.1,1,0.9,1.8,2,1.8h8.9c1,0,1.9-0.8,2-1.8H40.6z"/>
					</g>
				</g>
				<path class="st21" d="M57,34.2c-0.2-0.3-0.5-0.7-0.8-1c-0.1-0.2-0.3-0.3-0.4-0.5c-0.4-0.4-0.9-0.8-1.4-1.2
					c-2.1-1.5-4.6-2.4-7.4-2.4v39.1c1.9,0,2-1.2,2-1.2h0.4l1.5-1.4l0.5-0.2h0.1c0.1,0,0.3,0,0.4,0c0.1,0,0.1,0,0.2,0
					c0.1,0,0.1,0,0.2-0.1c0.1,0,0.1-0.1,0.2-0.1c0,0,0.1,0,0.1-0.1c0.1-0.1,0.2-0.1,0.2-0.2l0,0c0.1-0.1,0.2-0.2,0.2-0.3l0,0
					c0.2-0.3,0.3-0.6,0.4-1l0,0v-0.1c0-1-0.8-1.8-1.7-1.9c0.1,0,0.1,0,0.2,0c0.1,0,0.1,0,0.2,0c0.1,0,0.1,0,0.2-0.1
					c0.1,0,0.1-0.1,0.2-0.1c0,0,0.1,0,0.1-0.1c0.1-0.1,0.2-0.1,0.2-0.2l0,0c0.1-0.1,0.2-0.2,0.2-0.3l0,0c0.2-0.3,0.3-0.6,0.4-1l0,0
					v-0.1c0-1-0.8-1.8-1.7-1.9c0.1,0,0.1,0,0.2,0c0.1,0,0.1,0,0.2,0c0.1,0,0.1,0,0.2-0.1c0.1,0,0.1-0.1,0.2-0.1c0,0,0.1,0,0.1-0.1
					c0.1-0.1,0.2-0.1,0.2-0.2l0,0c0.1-0.1,0.2-0.2,0.2-0.3l0,0c0.2-0.3,0.3-0.6,0.4-1l0,0v-0.1c0-0.7-0.4-1.3-1-1.7
					c0.6-1.7,1.7-2.5,3.4-4.1c2.3-2.2,3.6-5.3,3.6-8.7C59.5,38.8,58.6,36.2,57,34.2z"/>
			</g>
		</g>
	</g>
	<g>
		<g>
			<path class="st13" d="M128.3,74.9c-2.2,0-3.9-1.8-3.9-4V59.7l6.3-7.9c1.6-2,1.6-5.2,0-7.2l-6.3-7.9V25.5c0-2.2,1.8-4,3.9-4h45.2
				c2.2,0,3.9,1.8,3.9,4v11.3c0,0.1,0,0.2,0.1,0.2l0.1,0.1l6.3,8c1.4,1.7,1.4,4.6,0,6.3l-6.3,8c-0.1,0.1-0.1,0.2-0.1,0.3V71
				c0,2.2-1.8,4-3.9,4L128.3,74.9L128.3,74.9z"/>
			<path class="st14" d="M173.5,21.9c2,0,3.6,1.6,3.6,3.6v11.3c0,0.2,0.1,0.3,0.2,0.5c0,0,0,0.1,0.1,0.1l6.3,8
				c1.3,1.6,1.3,4.3,0,5.9l-6.3,7.9l-0.1,0.1c-0.1,0.1-0.2,0.3-0.2,0.5v11.3c0,2-1.6,3.6-3.6,3.6h-45.2c-2,0-3.6-1.6-3.6-3.6V59.9
				L131,52c1.7-2.1,1.7-5.5,0-7.6l-6.2-7.8V25.5c0-2,1.6-3.6,3.6-3.6H173.5 M173.5,21.1h-45.2c-2.4,0-4.3,1.9-4.3,4.3v11.3
				c0,0,0,0,0.1,0.1l6.3,8c1.5,1.9,1.5,4.9,0,6.8l-6.3,8c0,0,0,0-0.1,0.1V71c0,2.4,1.9,4.3,4.3,4.3h45.2c2.4,0,4.3-1.9,4.3-4.3V59.6
				c0,0,0,0,0.1-0.1l6.3-8c1.5-1.9,1.5-4.9,0-6.8l-6.3-8c0,0,0,0-0.1-0.1V25.5C177.8,23.1,175.9,21.1,173.5,21.1L173.5,21.1z"/>
		</g>
		<g>
			<g>
				<g>
					<polygon class="st16" points="159.7,65.2 158.6,65.8 157.1,67.1 152.3,67.1 150.8,65.8 149.6,65.2 					"/>
					<path class="st17" d="M152.7,67.1c0,0,0.1,1.2,2,1.2s2-1.2,2-1.2H152.7z"/>
				</g>
				<path class="st22" d="M167.1,41.5c0,3.4-1.4,6.5-3.6,8.7c-2.2,2.2-3.6,3-3.8,6.6h-1c-1,0-2.3,0-2.3,0H153c0,0-1.2,0-2.2,0h-1.2
					c-0.2-3.1-1.2-4.1-3-5.7c-0.3-0.3-0.6-0.5-0.9-0.8c-2.3-2.2-3.6-5.3-3.6-8.7s1.4-6.5,3.6-8.7c2.2-2.2,5.4-3.6,8.8-3.6
					c2.8,0,5.3,0.9,7.4,2.4c0.5,0.4,1,0.8,1.4,1.2c0.2,0.1,0.3,0.3,0.4,0.5c0.3,0.3,0.5,0.6,0.8,1C166.2,36.2,167.1,38.8,167.1,41.5
					z"/>
				<g>
					<path class="st19" d="M148.2,63.6c0-1.1,0.9-1.9,2-1.9h8.9c1.1,0,2,0.9,2,1.9l0,0c0,1.1-0.9,1.9-2,1.9h-8.9
						C149.1,65.5,148.2,64.6,148.2,63.6L148.2,63.6z"/>
					<path class="st20" d="M148.2,63.7c0.1,1,0.9,1.8,2,1.8h8.9c1,0,1.9-0.8,2-1.8H148.2z"/>
				</g>
				<g>
					<path class="st19" d="M148.2,59.8c0-1.1,0.9-1.9,2-1.9h8.9c1.1,0,2,0.9,2,1.9l0,0c0,1.1-0.9,1.9-2,1.9h-8.9
						C149.1,61.7,148.2,60.8,148.2,59.8L148.2,59.8z"/>
					<path class="st20" d="M148.2,59.9c0.1,1,0.9,1.8,2,1.8h8.9c1,0,1.9-0.8,2-1.8H148.2z"/>
				</g>
				<g>
					<path class="st19" d="M148.2,56c0-1.1,0.9-1.9,2-1.9h8.9c1.1,0,2,0.9,2,1.9l0,0c0,1.1-0.9,1.9-2,1.9h-8.9
						C149.1,57.9,148.2,57,148.2,56L148.2,56z"/>
					<path class="st20" d="M148.2,56.1c0.1,1,0.9,1.8,2,1.8h8.9c1,0,1.9-0.8,2-1.8H148.2z"/>
				</g>
			</g>
			<path class="st21" d="M164.7,34.2c-0.2-0.3-0.5-0.7-0.8-1c-0.1-0.2-0.3-0.3-0.4-0.5c-0.4-0.4-0.9-0.8-1.4-1.2
				c-2.1-1.5-4.6-2.4-7.4-2.4v39.1c1.9,0,2-1.2,2-1.2h0.4l1.5-1.4l0.5-0.2h0.1c0.1,0,0.3,0,0.4,0c0.1,0,0.1,0,0.2,0
				c0.1,0,0.1,0,0.2-0.1c0.1,0,0.1-0.1,0.2-0.1c0,0,0.1,0,0.1-0.1c0.1-0.1,0.2-0.1,0.2-0.2l0,0c0.1-0.1,0.2-0.2,0.2-0.3l0,0
				c0.2-0.3,0.3-0.6,0.4-1l0,0v-0.1c0-1-0.8-1.8-1.7-1.9c0.1,0,0.1,0,0.2,0c0.1,0,0.1,0,0.2,0c0.1,0,0.1,0,0.2-0.1
				c0.1,0,0.1-0.1,0.2-0.1c0,0,0.1,0,0.1-0.1c0.1-0.1,0.2-0.1,0.2-0.2l0,0c0.1-0.1,0.2-0.2,0.2-0.3l0,0c0.2-0.3,0.3-0.6,0.4-1l0,0
				v-0.1c0-1-0.8-1.8-1.7-1.9c0.1,0,0.1,0,0.2,0c0.1,0,0.1,0,0.2,0c0.1,0,0.1,0,0.2-0.1c0.1,0,0.1-0.1,0.2-0.1c0,0,0.1,0,0.1-0.1
				c0.1-0.1,0.2-0.1,0.2-0.2l0,0c0.1-0.1,0.2-0.2,0.2-0.3l0,0c0.2-0.3,0.3-0.6,0.4-1l0,0v-0.1c0-0.7-0.4-1.3-1-1.7
				c0.6-1.7,1.7-2.5,3.4-4.1c2.3-2.2,3.6-5.3,3.6-8.7C167.1,38.8,166.2,36.2,164.7,34.2z"/>
		</g>
	</g>
</g>
</svg>
