<?xml version="1.0" encoding="utf-8"?>
<!-- Generator: Adobe Illustrator 23.0.1, SVG Export Plug-In . SVG Version: 6.00 Build 0)  -->
<svg version="1.1" id="レイヤー_1" xmlns="http://www.w3.org/2000/svg" xmlns:xlink="http://www.w3.org/1999/xlink" x="0px"
	 y="0px" viewBox="0 0 44 44" style="enable-background:new 0 0 44 44;" xml:space="preserve">
<style type="text/css">
	.st0{fill:#585858;}
	.st1{fill:#333333;}
	.st2{fill:#C9C9C9;}
	.st3{fill:#ABABAB;}
	.st4{fill:#666666;}
	.st5{fill:#F6F6F6;}
	.st6{fill:#C8C8C8;}
	.st7{fill:#1A1A1A;}
	.st8{fill:#23DCC8;}
</style>
<g>
	<g>
		<path class="st0" d="M3.8,37.6c-1.4,0-2.6-1.1-2.6-2.6v-7.4l4.1-5.2c1-1.3,1-3.5,0-4.8l-4.1-5.2V4.9c0-1.4,1.1-2.6,2.6-2.6
			l29.4,0.1c1.4,0,2.6,1.1,2.6,2.6v7.5c0,0.1,0,0.2,0.1,0.2l4.2,5.3c0.9,1.1,0.9,3,0,4.1L36,27.3c-0.1,0.1-0.1,0.2-0.1,0.2v7.5
			c0,1.4-1.1,2.6-2.6,2.6L3.8,37.6z"/>
		<path class="st1" d="M3.9,2v0.6l29.4,0.1c0.6,0,1.1,0.2,1.6,0.7c0.4,0.4,0.6,1,0.6,1.6v7.5c0,0.2,0.1,0.2,0.2,0.3
			c0,0,0,0.1,0.1,0.1l4.1,5.3c0.8,1.1,0.8,2.8,0,3.8l-4.1,5.2l-0.1,0.1c-0.1,0.1-0.2,0.2-0.2,0.3v7.5c0,1.2-1,2.3-2.2,2.3L3.8,37.3
			c-0.6,0-1.1-0.2-1.6-0.7c-0.4-0.4-0.6-1-0.6-1.6v-7.3l4.1-5.1c1.1-1.5,1.1-3.8,0-5.2l-4-5.1V4.9c0-1.3,1-2.4,2.2-2.4V2 M3.9,2
			C2.4,2,1.1,3.3,1.1,4.9v7.5c0,0,0,0,0.1,0.1l4.1,5.3c1,1.2,1,3.3,0,4.5l-4.2,5.3c0,0,0,0-0.1,0.1v7.5C1,36.7,2.3,38,3.8,38
			l29.4-0.1l0,0c1.5,0,2.8-1.3,2.8-2.9v-7.5c0,0,0,0,0.1-0.1l4.2-5.3c1-1.2,1-3.3,0-4.5l-4.1-5.2c0,0,0,0-0.1-0.1V4.9
			c0-1.6-1.3-2.9-2.8-2.9H3.9L3.9,2L3.9,2z"/>
	</g>
	<g>
		<g>
			<path class="st2" d="M12.7,32.3c-1.9,0-3.5-1.6-3.5-3.6V11.2c0-2,1.6-3.6,3.5-3.6h16.6c1.9,0,3.5,1.6,3.5,3.6v17.5
				c0,2-1.6,3.6-3.5,3.6C29.3,32.3,12.7,32.3,12.7,32.3z"/>
			<path class="st3" d="M29.3,7.7c1.9,0,3.4,1.6,3.4,3.5v17.5c0,2-1.5,3.5-3.4,3.5H12.7c-1.9,0-3.4-1.6-3.4-3.5V11.2
				c0-1.9,1.6-3.5,3.4-3.5H29.3 M29.3,7.6H12.7c-2,0-3.6,1.6-3.6,3.7v17.5c0,2,1.6,3.7,3.6,3.7h16.6c2,0,3.6-1.6,3.6-3.7V11.2
				C32.9,9.2,31.3,7.6,29.3,7.6L29.3,7.6z"/>
		</g>
		<g>
			<g>
				<path class="st4" d="M12.3,25.4c-1.3,0-2.2-1.1-2.2-2.3V11.3c0-1.3,1-2.3,2.2-2.3h17.5c1.3,0,2.2,1.1,2.2,2.3v11.8
					c0,1.3-1,2.3-2.2,2.3C29.8,25.4,12.3,25.4,12.3,25.4z"/>
				<path class="st5" d="M29.7,9.3c1.1,0,2,0.9,2,2v11.8c0,1.1-0.9,2-2,2H12.3c-1.1,0-2-0.9-2-2V11.3c0-1.1,0.9-2,2-2H29.7
					 M29.7,8.8H12.3c-1.4,0-2.5,1.1-2.5,2.5v11.8c0,1.4,1.1,2.5,2.5,2.5h17.5c1.4,0,2.5-1.1,2.5-2.5V11.3
					C32.3,9.9,31.2,8.8,29.7,8.8L29.7,8.8z"/>
			</g>
			<g>
				<path class="st6" d="M29.5,25.6H12.6c-1.3,0-2.3-1.1-2.3-2.4V12.5c0-1.3,1-2.4,2.3-2.4h16.9c1.3,0,2.3,1.1,2.3,2.4v10.7
					C31.8,24.4,30.8,25.6,29.5,25.6z"/>
			</g>
			<g>
				<path class="st1" d="M13.6,30.7c-1.4,0-2.5-1.1-2.5-2.5v-15c0-1.4,1.1-2.5,2.5-2.5h14.8c1.4,0,2.5,1.1,2.5,2.5v15
					c0,1.4-1.1,2.5-2.5,2.5H13.6z"/>
				<g>
					<path class="st7" d="M28.4,10.6c1.4,0,2.5,1.1,2.5,2.5v15c0,1.4-1.1,2.5-2.5,2.5H13.6c-1.4,0-2.5-1.1-2.5-2.5v-15
						c0-1.4,1.1-2.5,2.5-2.5H28.4 M28.4,10.4H13.6c-1.4,0-2.6,1.2-2.6,2.6v15.1c0,1.5,1.2,2.6,2.6,2.6h14.8c1.4,0,2.6-1.2,2.6-2.6
						v-15C31,11.6,29.8,10.4,28.4,10.4L28.4,10.4z"/>
				</g>
			</g>
		</g>
	</g>
	<path class="st8" d="M23.2,22c0,0,0.6-0.2,0.6-0.7c-0.1-0.4-0.6-3.3-0.6-3.3l0.8,0.2c0,0,0.6,1.7,0.6,1.9c0,0.2,0.1,1.2,0.1,1.2
		s0.1,0.2,0.3,0.2c0.2-0.1,0.9-0.8,0.6-2.2s-0.7-2.1-0.7-2.1s-0.2-0.2-0.6-0.6c-0.6-0.3-2.2-1.2-2.3-1.3c-0.2,0-0.6,0-0.6,0
		l-0.1-0.6c0,0,0.3-0.3,0.3-0.7c0-0.2-0.1-0.9-0.1-0.9s0,0,0-0.1l0,0c0.2,0,0.2-0.2,0.2-0.3s-0.2-0.2-0.3-0.2h-0.2L21,12.3
		c0-0.2-0.2-0.2-0.3-0.2l-1.4,0.3c-0.2,0-0.2,0.2-0.2,0.3l0.1,0.2c-0.2,0-0.2,0.2-0.2,0.3s0.2,0.2,0.3,0.2l0,0c0,0.2,0,0.2,0.1,0.4
		c0.2,0.4,0.6,0.9,0.6,0.9H20v0.7c0,0-0.7,0.5-0.9,0.9c-0.2,0.3-0.6,1.1-0.8,1.4c-0.2,0.2-2.3,1.8-2.3,1.8s-0.4,0.1-0.6,0.2
		C15.2,19.8,15,20,15,20s-0.3,0.3,0.6,0.3s1.4,0,1.4,0s0.2-0.2,0.7-0.5c0.5-0.3,0.9-0.7,1-0.7c0.2-0.1,0.5-0.4,0.5-0.4
		s-0.1,0.8,0,1.2s0.2,1,0.2,1.2c-0.1,0.2-0.9,3.2-1,3.5c-0.1,0.4-0.4,1.3-0.5,1.8s0,0.7,0,0.7l0.2,0.2c0,0-0.2,0-0.3,0.1
		s-0.3,0.1-0.3,0.3c-0.1,0.2-0.2,0.5,0.2,0.6c0.5,0.1,1.8,0.2,1.8,0.2l1.7-5.8l0.2-0.5c0,0,0.8,2.4,1,3c0.2,0.7,0.9,1.9,1,2
		c0.2,0.2,0.5,0.6,0.5,0.6L24,28c0,0-0.2,0.2-0.2,0.4c0,0.2-0.1,0.3,0.1,0.3c0.1,0.1,0.6-0.2,1-0.3c0.4-0.2,0.7-0.3,0.6-0.6
		c-0.1-0.2-1.5-3.2-1.6-3.6C23.7,24.1,23.2,22,23.2,22z"/>
</g>
</svg>
