<?xml version="1.0" encoding="utf-8"?>
<!-- Generator: Adobe Illustrator 23.0.1, SVG Export Plug-In . SVG Version: 6.00 Build 0)  -->
<svg version="1.1" id="レイヤー_1" xmlns="http://www.w3.org/2000/svg" xmlns:xlink="http://www.w3.org/1999/xlink" x="0px"
	 y="0px" viewBox="0 0 108 86" style="enable-background:new 0 0 108 86;" xml:space="preserve">
<style type="text/css">
	.st0{fill:none;}
	.st1{fill:#EDE349;}
	.st2{fill:#ECBD27;}
	.st3{fill:#FFFFFF;}
	.st4{fill:#333333;}
	.st5{fill:#5A9E6B;}
</style>
<rect y="1" class="st0" width="107.8" height="84"/>
<g>
	<path class="st1" d="M34.1,80.9V64.6l6.8-8.5c1.7-2.1,1.7-5.5,0-7.5l-6.8-8.5v0.1v-12c0-2.7-2.2-4.9-4.9-4.9h-7
		c-2.7,0-4.9,2.1-4.9,4.9v12.1l0.1,0.2l6.8,8.5c1.5,1.9,1.5,5,0,6.8l-6.9,8.6v0.1v16.4H4.6c-2.3,0-4.3-2-4.3-4.3v-12L7,56.1
		c1.7-2.1,1.7-5.5,0-7.5l-6.8-8.5v0.1V20.3c0-2.3,2-4.3,4.3-4.3h90.7c2.3,0,4.3,2,4.3,4.3v20l0.1,0.2l6.8,8.5c1.5,1.9,1.5,5,0,6.8
		l-6.9,8.6l-0.1,0.2v12c0,2.3-2,4.3-4.3,4.3H34.1L34.1,80.9z"/>
	<g>
		<path class="st2" d="M95.4,16.3c2.3,0,4,1.9,4,4v19.9v0.2l0.1,0.2c0,0,0,0.1,0.1,0.1l6.8,8.5c1.4,1.8,1.4,4.7,0,6.4l-6.8,8.5
			c0,0,0,0.1-0.1,0.1l-0.1,0.2l0,0v12c0,2.2-1.9,4-4,4h-61V64.7l6.8-8.4c1.8-2.1,1.8-5.8,0-7.9L34.4,40V28.2c0-2.8-2.3-5.2-5.2-5.2
			h-7c-2.8,0-5.2,2.3-5.2,5.2v12v0.2l0.1,0.2c0,0,0,0.1,0.1,0.1l6.8,8.5c1.4,1.8,1.4,4.7,0,6.4l-6.8,8.5c0,0,0,0-0.1,0.1L17,64.4
			v0.1v16.1H4.6c-2.3,0-4-1.9-4-4V64.7l6.8-8.4c1.8-2.1,1.8-5.8,0-7.9L0.6,40V20.3c0-2.2,1.9-4,4-4H95.4 M95.4,15.7H4.6
			c-2.5,0-4.6,2.1-4.6,4.6v19.9c0,0,0,0,0.1,0.1l6.8,8.4c1.6,2,1.6,5.2,0,7.2l-6.8,8.5c-0.1-0.1-0.1,0-0.1,0v12
			C0,78.9,2.1,81,4.6,81h13V64.5c0,0,0,0,0.1-0.1l6.8-8.5c1.6-2,1.6-5.2,0-7.2l-6.8-8.5c0,0,0-0.1-0.1-0.1V28.2
			c0-2.5,2.1-4.6,4.6-4.6h7c2.5,0,4.6,2.1,4.6,4.6v12c0,0,0,0,0.1,0.1l6.8,8.5c1.6,2,1.6,5.2,0,7.2l-6.8,8.5c0,0,0,0.1-0.1,0.1v16.7
			h61.6c2.5,0,4.6-2.1,4.6-4.6V64.5c0,0,0,0,0.1-0.1l6.8-8.5c1.6-2,1.6-5.2,0-7.2l-6.8-8.5c0,0,0-0.1-0.1-0.1V20.3
			C100,17.8,97.8,15.7,95.4,15.7L95.4,15.7z"/>
	</g>
</g>
<g>
	<path class="st3" d="M63.3,21.7c-5.3,0-9.6-4.3-9.6-9.6V11c0-5.3,4.3-9.6,9.6-9.6h18.5c5.3,0,9.6,4.3,9.6,9.6v1.1
		c0,5.3-4.3,9.6-9.6,9.6H63.3z"/>
	<g>
		<path class="st2" d="M81.8,1.9c5.1,0,9.2,4.1,9.2,9.2v1.1c0,5.1-4.1,9.2-9.2,9.2H63.3c-5.1,0-9.2-4.1-9.2-9.2v-1.1
			c0-5.1,4.1-9.2,9.2-9.2L81.8,1.9 M81.8,1H63.3c-5.5,0-10,4.5-10,10.1v1.1c0,5.6,4.5,10.1,10.1,10.1h18.5c5.6,0,10.1-4.5,10.1-10.1
			v-1.1C91.8,5.5,87.3,1,81.8,1L81.8,1z"/>
	</g>
</g>
<g>
	<path class="st4" d="M69.3,14.2v-1.9l4.5-5.9h1.9v6.1h1.4v1.7h-1.4v2.3h-2v-2.3H69.3z M73.6,9L71,12.5h2.7L73.6,9L73.6,9z"/>
</g>
<g>
	<path class="st5" d="M87.8,50.8v2.7c0,2.5-2.1,4.6-4.6,4.6H69v-2.9c0-0.3-0.2-0.6-0.4-0.8c-0.1-0.1-0.3-0.1-0.5-0.1
		c-0.1,0-0.3,0-0.4,0.1l-12.2,6.2c-0.3,0.2-0.5,0.5-0.5,0.8s0.2,0.6,0.5,0.8l12.2,6.2c0.1,0.1,0.3,0.1,0.4,0.1c0.2,0,0.3,0,0.5-0.1
		c0.3-0.2,0.4-0.5,0.4-0.8v-2.9h14.2c6.2,0,11.2-5,11.2-11.2v-6.1L87.8,50.8z"/>
	<path class="st5" d="M87.3,37.3l-12.2-6.2c-0.1-0.1-0.3-0.1-0.4-0.1c-0.2,0-0.3,0-0.5,0.1c-0.3,0.2-0.4,0.5-0.4,0.8v2.9H61.5
		c-6.2,0-11.2,5-11.2,11.2v8.8l6.6-3.4v-5.4c0-2.5,2.1-4.6,4.6-4.6h12.3v2.9c0,0.3,0.2,0.6,0.4,0.8c0.1,0.1,0.3,0.1,0.5,0.1
		c0.1,0,0.3,0,0.4-0.1l12.2-6.2c0.3-0.2,0.5-0.5,0.5-0.8C87.7,37.8,87.6,37.5,87.3,37.3z"/>
</g>
</svg>
