<?xml version="1.0" encoding="utf-8"?>
<!-- Generator: Adobe Illustrator 23.0.1, SVG Export Plug-In . SVG Version: 6.00 Build 0)  -->
<svg version="1.1" id="レイヤー_1" xmlns="http://www.w3.org/2000/svg" xmlns:xlink="http://www.w3.org/1999/xlink" x="0px"
	 y="0px" viewBox="0 0 187.6 86" style="enable-background:new 0 0 187.6 86;" xml:space="preserve">
<style type="text/css">
	.st0{fill:none;}
	.st1{fill:#00813A;}
	.st2{fill:#006A20;}
	.st3{fill:#FFFFFF;}
	.st4{fill:#848F95;}
	.st5{fill:#526663;}
	.st6{fill:#738082;}
	.st7{opacity:0.12;enable-background:new    ;}
	.st8{enable-background:new    ;}
	.st9{fill:#61C3FF;}
	.st10{fill:#1CA4DE;}
	.st11{fill:#FFEC00;}
	.st12{fill:#666666;}
	.st13{fill:#C2C2C2;}
	.st14{fill:#FFF100;}
	.st15{fill:#F0F0F3;}
	.st16{fill:#D7D1CE;}
	.st17{opacity:6.000000e-02;enable-background:new    ;}
	.st18{fill:#B6FFFF;}
</style>
<rect class="st0" width="187.8" height="86"/>
<g>
	<g>
		<g>
			<path class="st1" d="M64.5,74.8c-2.4,0-4.4-2-4.4-4.4V58l7-8.8c1.7-2.2,1.7-5.8,0-8l-7-8.8V20c0-2.4,2-4.4,4.4-4.4h50.1
				c2.4,0,4.4,2,4.4,4.4v12.7l0.2,0.2l7,8.8c1.5,1.9,1.5,5.1,0,7l-7.1,8.9l-0.1,0.2v12.5c0,2.4-2,4.4-4.4,4.4L64.5,74.8L64.5,74.8z"
				/>
			<g>
				<path class="st2" d="M114.6,16c2.2,0,4,1.8,4,4v12.5v0.3l0.2,0.2l0.1,0.1l7,8.8c1.4,1.8,1.4,4.7,0,6.5l-7,8.8l-0.1,0.1l-0.2,0.2
					v0.3v12.6c0,2.2-1.8,4-4,4H64.5c-2.2,0-4-1.8-4-4V58.2l6.9-8.7c1.9-2.3,1.9-6.1,0-8.5l-6.9-8.7V20c0-2.2,1.8-4,4-4H114.6
					 M114.6,15.2H64.5c-2.6,0-4.8,2.2-4.8,4.8v12.5c0,0,0,0.1,0.1,0.1l7,8.8c1.6,2.1,1.6,5.4,0,7.5l-7,8.8c0,0,0,0.1-0.1,0.1v12.6
					c0,2.6,2.1,4.8,4.8,4.8h50.1c2.6,0,4.8-2.2,4.8-4.8V57.9c0,0,0,0,0.1-0.1l7-8.8c1.6-2.1,1.6-5.4,0-7.5l-7-8.8c0,0,0-0.1-0.1-0.1
					V20C119.4,17.4,117.3,15.2,114.6,15.2L114.6,15.2z"/>
			</g>
		</g>
		<g>
			<g>
				<g>
					<ellipse class="st3" cx="93.7" cy="45.9" rx="17.7" ry="17.6"/>
					<path class="st4" d="M106.6,33l-0.4,0.4L106.6,33c-1.1-1.1-2.4-2.1-3.8-2.9c-2.7-1.5-5.7-2.4-9-2.4c-10,0-18.2,8.1-18.2,18
						c0,3.1,0.8,5.9,2.1,8.5c0.8,1.6,1.9,3,3.2,4.3l0,0c3.3,3.3,7.8,5.3,12.8,5.3c10,0,18.2-8.1,18.2-18
						C111.9,40.7,109.9,36.2,106.6,33z M93.7,62.8c-4.7,0-9-1.9-12.2-5l0,0c-3.1-3.1-5-7.4-5-12.1c0-9.4,7.7-17.1,17.2-17.1
						c4.7,0,9,1.9,12.2,5l0,0c3.1,3.1,5,7.4,5,12.1C110.9,55.1,103.2,62.8,93.7,62.8z"/>
				</g>
				<path class="st5" d="M89.9,31.8c-0.2,0-0.4-0.2-0.5-0.4c0-0.1,0-0.3,0.1-0.4s0.2-0.2,0.3-0.2h0.1c0.2,0,0.4,0.2,0.5,0.4
					c0,0.1,0,0.3-0.1,0.4S90.1,31.8,89.9,31.8L89.9,31.8z"/>
				<path class="st5" d="M97.7,60.6c-0.2,0-0.4-0.2-0.5-0.4c0-0.1,0-0.3,0.1-0.4c0.1-0.1,0.2-0.2,0.3-0.2h0.1c0.2,0,0.4,0.2,0.5,0.4
					C98.3,60.3,98.1,60.6,97.7,60.6L97.7,60.6z"/>
				<path class="st5" d="M79.2,42.3L79.2,42.3c-0.2,0-0.3-0.1-0.4-0.2c-0.1-0.1-0.1-0.3-0.1-0.4c0.1-0.2,0.3-0.4,0.5-0.4h0.1
					c0.1,0,0.2,0.1,0.3,0.2c0.1,0.1,0.1,0.3,0.1,0.4C79.7,42.2,79.5,42.3,79.2,42.3z"/>
				<path class="st5" d="M108.3,50.1L108.3,50.1c-0.4-0.1-0.5-0.4-0.5-0.6c0.1-0.2,0.3-0.4,0.5-0.4h0.1c0.1,0,0.2,0.1,0.3,0.2
					c0.1,0.1,0.1,0.3,0.1,0.4C108.7,49.9,108.5,50.1,108.3,50.1z"/>
				<path class="st5" d="M79.2,50.1c-0.2,0-0.4-0.2-0.5-0.4c0-0.1,0-0.3,0.1-0.4c0.1-0.1,0.2-0.2,0.3-0.2h0.1c0.2,0,0.4,0.2,0.5,0.4
					C79.8,49.8,79.6,50.1,79.2,50.1C79.3,50.1,79.3,50.1,79.2,50.1z"/>
				<path class="st5" d="M108.3,42.3c-0.2,0-0.4-0.2-0.5-0.4c0-0.1,0-0.3,0.1-0.4c0.1-0.1,0.2-0.2,0.3-0.2h0.1
					c0.2,0,0.4,0.2,0.5,0.4c0,0.1,0,0.3-0.1,0.4C108.6,42.2,108.5,42.3,108.3,42.3C108.4,42.3,108.4,42.3,108.3,42.3z"/>
				<path class="st5" d="M89.9,60.6L89.9,60.6c-0.4-0.1-0.5-0.4-0.5-0.6c0.1-0.2,0.3-0.4,0.5-0.4H90c0.1,0,0.2,0.1,0.3,0.2
					c0.1,0.1,0.1,0.3,0.1,0.4C90.3,60.5,90.1,60.6,89.9,60.6z"/>
				<path class="st5" d="M97.7,31.8L97.7,31.8c-0.2,0-0.3-0.1-0.4-0.2s-0.1-0.3-0.1-0.4c0.1-0.2,0.3-0.4,0.5-0.4h0.1
					c0.1,0,0.2,0.1,0.3,0.2c0.1,0.1,0.1,0.3,0.1,0.4C98.1,31.6,97.9,31.8,97.7,31.8z"/>
				<path class="st5" d="M86.2,33.3c-0.2,0-0.4-0.1-0.5-0.3c-0.1-0.1-0.1-0.3-0.1-0.4c0-0.1,0.1-0.2,0.2-0.3c0.1,0,0.2-0.1,0.3-0.1
					c0.2,0,0.4,0.1,0.5,0.3c0.1,0.1,0.1,0.3,0.1,0.4c0,0.1-0.1,0.2-0.2,0.3C86.4,33.2,86.3,33.3,86.2,33.3z"/>
				<path class="st5" d="M101.3,59.2c-0.2,0-0.4-0.1-0.5-0.3s-0.1-0.6,0.2-0.7c0.1,0,0.2-0.1,0.3-0.1c0.2,0,0.4,0.1,0.5,0.3
					c0.1,0.1,0.1,0.3,0.1,0.4c0,0.1-0.1,0.2-0.2,0.3C101.5,59.1,101.4,59.2,101.3,59.2z"/>
				<path class="st5" d="M80.7,38.7c-0.1,0-0.2,0-0.3-0.1c-0.1-0.1-0.2-0.2-0.2-0.3s0-0.3,0.1-0.4c0.1-0.2,0.3-0.3,0.5-0.3
					c0.1,0,0.2,0,0.3,0.1c0.1,0.1,0.2,0.2,0.2,0.3s0,0.3-0.1,0.4C81.1,38.6,80.9,38.7,80.7,38.7z"/>
				<path class="st5" d="M106.8,53.7c-0.1,0-0.2,0-0.3-0.1c-0.2-0.1-0.3-0.5-0.2-0.7c0.1-0.2,0.3-0.3,0.5-0.3c0.1,0,0.2,0,0.3,0.1
					c0.1,0.1,0.2,0.2,0.2,0.3s0,0.3-0.1,0.4C107.2,53.6,107,53.7,106.8,53.7z"/>
				<path class="st5" d="M80.7,53.7c-0.2,0-0.4-0.1-0.5-0.3s-0.1-0.6,0.2-0.7c0.1,0,0.2-0.1,0.3-0.1c0.2,0,0.4,0.1,0.5,0.3
					c0.1,0.1,0.1,0.3,0.1,0.4c0,0.1-0.1,0.2-0.2,0.3C80.9,53.7,80.8,53.7,80.7,53.7z"/>
				<path class="st5" d="M106.8,38.7c-0.2,0-0.4-0.1-0.5-0.3s-0.1-0.6,0.2-0.7c0.1,0,0.2-0.1,0.3-0.1c0.2,0,0.4,0.1,0.5,0.3
					c0.1,0.1,0.1,0.3,0.1,0.4c0,0.1-0.1,0.2-0.2,0.3C107,38.7,106.9,38.7,106.8,38.7z"/>
				<path class="st5" d="M86.2,59.2c-0.1,0-0.2,0-0.3-0.1c-0.1-0.1-0.2-0.2-0.2-0.3s0-0.3,0.1-0.4c0.1-0.2,0.3-0.3,0.5-0.3
					c0.1,0,0.2,0,0.3,0.1c0.1,0.1,0.2,0.2,0.2,0.3s0,0.3-0.1,0.4C86.6,59.1,86.4,59.2,86.2,59.2z"/>
				<path class="st5" d="M101.3,33.3c-0.1,0-0.2,0-0.3-0.1c-0.1-0.1-0.2-0.2-0.2-0.3s0-0.3,0.1-0.4c0.1-0.2,0.3-0.3,0.5-0.3
					c0.1,0,0.2,0,0.3,0.1c0.1,0.1,0.2,0.2,0.2,0.3s0,0.3-0.1,0.4C101.6,33.2,101.5,33.3,101.3,33.3z"/>
				<rect x="93.2" y="30.2" class="st5" width="1" height="3.7"/>
				<rect x="93.3" y="57.5" class="st5" width="1" height="3.7"/>
				<polygon class="st5" points="82.4,35.1 83.1,34.4 85.7,37 85,37.7 				"/>
				<polygon class="st5" points="101.8,54.4 102.5,53.7 105.1,56.3 104.4,57 				"/>
				<polygon class="st5" points="82.4,56.3 85,53.7 85.7,54.4 83.1,57 				"/>
				<polygon class="st5" points="101.8,37 104.4,34.4 105.1,35.1 102.5,37.7 				"/>
				<rect x="78.2" y="45.2" class="st5" width="3.7" height="1"/>
				<rect x="105.7" y="45.2" class="st5" width="3.7" height="1"/>
				<g>
					<ellipse class="st4" cx="104.2" cy="28.3" rx="2.7" ry="2.6"/>
					<path class="st4" d="M97.1,28h-6.9c-0.8,0-1.5-0.7-1.5-1.5v-1c0-0.8,0.7-1.5,1.5-1.5h6.9c0.8,0,1.5,0.7,1.5,1.5v1
						C98.6,27.3,97.9,28,97.1,28z"/>
				</g>
				<rect x="91.8" y="25.7" class="st6" width="3.7" height="2"/>
				<path class="st7" d="M106.6,33l-0.4,0.4L106.6,33c-0.8-0.7-1.6-1.4-2.5-2h0.1c1.5,0,2.7-1.2,2.7-2.6c0-1.5-1.2-2.6-2.7-2.6
					s-2.7,1.2-2.7,2.6c0,0.5,0.1,0.9,0.4,1.3c-1.6-0.8-3.4-1.4-5.2-1.7h0.4c0.8,0,1.5-0.7,1.5-1.5v-1c0-0.8-0.7-1.5-1.5-1.5h-3.3
					v39.7c10,0,18.1-8.1,18.1-18C111.9,40.7,109.9,36.2,106.6,33z"/>
			</g>
			<g>
				<ellipse class="st5" cx="93.7" cy="45.6" rx="1.1" ry="1.1"/>
				<polygon class="st5" points="93.8,31 93,45.9 94.5,45.9 				"/>
				<polygon class="st5" points="94.3,48.9 93.1,48.9 93.2,45.5 94.3,45.5 				"/>
			</g>
		</g>
	</g>
	<g>
		<path class="st1" d="M84.4,21.6c-5.7,0-10.3-4.6-10.3-10.3v-0.6c0-5.7,4.6-10.3,10.3-10.3H103c5.7,0,10.3,4.6,10.3,10.3v0.6
			c0,5.7-4.6,10.3-10.3,10.3H84.4z"/>
		<g>
			<path class="st2" d="M103,0.8c5.5,0,9.9,4.5,9.9,9.9v0.6c0,5.5-4.5,9.9-9.9,9.9H84.4c-5.5,0-9.9-4.5-9.9-9.9v-0.6
				c0-5.5,4.5-9.9,9.9-9.9L103,0.8 M103,0H84.4c-5.9,0-10.7,4.8-10.7,10.7v0.6c0,5.9,4.8,10.7,10.7,10.7H103
				c5.9,0,10.7-4.8,10.7-10.7v-0.6C113.7,4.8,108.9,0,103,0L103,0z"/>
		</g>
	</g>
	<g class="st8">
		<path class="st3" d="M90.6,7.8c0.2-0.5,0.4-1,0.7-1.3c0.3-0.5,0.7-0.8,1.2-1s1-0.3,1.7-0.3c0.5,0,0.9,0.1,1.4,0.2
			C96,5.5,96.4,5.8,96.7,6s0.6,0.6,0.8,1c0.2,0.4,0.3,0.9,0.3,1.4s-0.1,1-0.3,1.4c-0.2,0.4-0.4,0.7-0.7,1s-0.6,0.6-0.9,0.8
			c-0.4,0.2-0.7,0.5-1.1,0.7s-0.7,0.5-1,0.8s-0.6,0.6-0.9,0.9h4.9v1.8h-7.6c0-0.6,0.1-1.1,0.3-1.6c0.2-0.5,0.4-0.9,0.7-1.2
			s0.6-0.7,1-1s0.8-0.6,1.3-0.9c0.2-0.2,0.5-0.3,0.7-0.5s0.5-0.3,0.7-0.5s0.4-0.4,0.5-0.7s0.2-0.5,0.2-0.9c0-0.5-0.1-0.9-0.4-1.2
			C94.9,7.2,94.5,7,94.1,7c-0.3,0-0.6,0.1-0.8,0.2c-0.2,0.1-0.4,0.3-0.5,0.6s-0.2,0.5-0.3,0.8c-0.1,0.3-0.1,0.6-0.1,0.8h-2
			C90.4,8.8,90.5,8.3,90.6,7.8z"/>
	</g>
</g>
<g>
	<g>
		<path class="st9" d="M124.2,74.8c-2.4,0-4.4-2-4.4-4.4V58l7-8.8c1.7-2.2,1.7-5.8,0-8l-7-8.8V20c0-2.4,2-4.4,4.4-4.4h50.1
			c2.4,0,4.4,2,4.4,4.4v12.5c0,0.1,0,0.2,0.1,0.3l0.1,0.1l7,8.8c1.5,1.9,1.5,5.1,0,7l-7,8.8c-0.1,0.1-0.2,0.2-0.2,0.3v12.5
			c0,2.4-2,4.4-4.4,4.4h-50.1C124.2,74.7,124.2,74.8,124.2,74.8z"/>
		<path class="st10" d="M174.4,16c2.2,0,4,1.8,4,4v12.5c0,0.2,0.1,0.4,0.2,0.5l0.1,0.1l7,8.8c1.4,1.8,1.4,4.7,0,6.5l-7,8.8l-0.1,0.1
			c-0.1,0.1-0.2,0.3-0.2,0.5v12.6c0,2.2-1.8,4-4,4h-50.1c-2.2,0-4-1.8-4-4V58.2l6.9-8.7c1.9-2.3,1.9-6.1,0-8.5l-6.9-8.7V20
			c0-2.2,1.8-4,4-4H174.4 M174.4,15.2h-50.1c-2.6,0-4.8,2.2-4.8,4.8v12.5c0,0,0,0.1,0.1,0.1l7,8.8c1.6,2.1,1.6,5.4,0,7.5l-7,8.8
			c0,0,0,0.1-0.1,0.1v12.6c0,2.6,2.1,4.8,4.8,4.8h50.1c2.6,0,4.8-2.2,4.8-4.8V57.9c0,0,0,0,0.1-0.1l7-8.8c1.6-2.1,1.6-5.4,0-7.5
			l-7-8.8c0,0,0-0.1-0.1-0.1V20C179.1,17.4,177,15.2,174.4,15.2L174.4,15.2z"/>
	</g>
	<g>
		<g>
			<g>
				<path class="st11" d="M136.1,37.9h-1.8c-0.4,0-0.8-0.3-0.8-0.8c0-0.4,0.3-0.8,0.8-0.8h1.8c0.4,0,0.8,0.3,0.8,0.8
					C136.8,37.5,136.5,37.9,136.1,37.9z"/>
				<path class="st11" d="M172.6,37.9h-1.8c-0.4,0-0.8-0.3-0.8-0.8s0.3-0.8,0.8-0.8h1.8c0.4,0,0.8,0.3,0.8,0.8S173,37.9,172.6,37.9z
					"/>
			</g>
			<g>
				<path class="st11" d="M166,25.5c-0.2,0-0.4-0.1-0.5-0.2c-0.3-0.3-0.3-0.8,0-1.1l1-1c0.3-0.3,0.8-0.3,1.1,0s0.3,0.8,0,1.1l-1,1
					C166.3,25.4,166.2,25.5,166,25.5z"/>
				<path class="st11" d="M139.9,51.3c-0.2,0-0.4-0.1-0.5-0.2c-0.3-0.3-0.3-0.8,0-1.1l1-1c0.3-0.3,0.8-0.3,1.1,0s0.3,0.8,0,1.1l-1,1
					C140.3,51.2,140.1,51.3,139.9,51.3z"/>
			</g>
			<g>
				<path class="st11" d="M140.9,25.5c-0.2,0-0.4-0.1-0.5-0.2l-1-1c-0.3-0.3-0.3-0.8,0-1.1c0.3-0.3,0.8-0.3,1.1,0l1,1
					c0.3,0.3,0.3,0.8,0,1.1C141.3,25.4,141.1,25.5,140.9,25.5z"/>
				<path class="st11" d="M167,51.3c-0.2,0-0.4-0.1-0.5-0.2l-1-1c-0.3-0.3-0.3-0.8,0-1.1s0.8-0.3,1.1,0l1,1c0.3,0.3,0.3,0.8,0,1.1
					C167.4,51.2,167.2,51.3,167,51.3z"/>
			</g>
		</g>
		<g>
			<g>
				<g>
					<polygon class="st12" points="159,64.1 157.8,64.7 156.1,66.2 150.8,66.2 149.1,64.7 147.9,64.1 					"/>
					<path class="st13" d="M151.2,66.2c0,0,0.1,1.3,2.2,1.3c2.1,0,2.2-1.3,2.2-1.3H151.2z"/>
				</g>
				<path class="st14" d="M167.2,37.8c0,3.8-1.5,7.2-4,9.7s-4,3.3-4.2,7.3h-1.2c-1.1,0-2.5,0-2.5,0h-3.6c0,0-1.3,0-2.4,0H148
					c-0.2-3.4-1.4-4.5-3.3-6.3c-0.3-0.3-0.6-0.6-1-0.9c-2.5-2.5-4-5.9-4-9.7s1.5-7.2,4-9.7s5.9-4,9.8-4c3.1,0,5.9,1,8.2,2.7
					c0.6,0.4,1.1,0.9,1.6,1.3c0.2,0.2,0.3,0.3,0.5,0.5c0.3,0.3,0.6,0.7,0.9,1.1C166.3,32,167.2,34.8,167.2,37.8z"/>
				<g>
					<path class="st15" d="M146.3,62.3c0-1.2,1-2.1,2.2-2.1h9.9c1.2,0,2.2,1,2.2,2.1l0,0c0,1.2-1,2.1-2.2,2.1h-9.9
						C147.3,64.4,146.3,63.5,146.3,62.3L146.3,62.3z"/>
					<path class="st16" d="M146.3,62.5c0.1,1.1,1,2,2.2,2h9.9c1.2,0,2.1-0.9,2.2-2H146.3z"/>
				</g>
				<g>
					<path class="st15" d="M146.3,58.1c0-1.2,1-2.1,2.2-2.1h9.9c1.2,0,2.2,1,2.2,2.1l0,0c0,1.2-1,2.1-2.2,2.1h-9.9
						C147.3,60.2,146.3,59.3,146.3,58.1L146.3,58.1z"/>
					<path class="st16" d="M146.3,58.2c0.1,1.1,1,2,2.2,2h9.9c1.2,0,2.1-0.9,2.2-2H146.3z"/>
				</g>
				<g>
					<path class="st15" d="M146.3,53.9c0-1.2,1-2.1,2.2-2.1h9.9c1.2,0,2.2,1,2.2,2.1l0,0c0,1.2-1,2.1-2.2,2.1h-9.9
						C147.3,56,146.3,55,146.3,53.9L146.3,53.9z"/>
					<path class="st16" d="M146.3,54c0.1,1.1,1,2,2.2,2h9.9c1.2,0,2.1-0.9,2.2-2H146.3z"/>
				</g>
			</g>
			<path class="st17" d="M164.6,29.7c-0.3-0.4-0.6-0.7-0.9-1.1c-0.2-0.2-0.3-0.3-0.5-0.5c-0.5-0.5-1-0.9-1.6-1.3
				c-2.3-1.7-5.1-2.7-8.2-2.7v43.4c2.1,0,2.2-1.3,2.2-1.3h0.4l1.7-1.5l0.6-0.3h0.1c0.1,0,0.3,0,0.4,0c0.1,0,0.1,0,0.2-0.1
				c0.1,0,0.1,0,0.2-0.1c0.1,0,0.2-0.1,0.2-0.1s0.1,0,0.1-0.1c0.1-0.1,0.2-0.1,0.3-0.2c0,0,0,0,0.1,0c0.1-0.1,0.2-0.2,0.3-0.3l0,0
				c0.2-0.3,0.4-0.7,0.4-1.1l0,0c0-0.1,0-0.1,0-0.1c0-1.1-0.8-2-1.9-2.1c0.1,0,0.1,0,0.2,0c0.1,0,0.1,0,0.2-0.1c0.1,0,0.1,0,0.2-0.1
				c0.1,0,0.2-0.1,0.2-0.1s0.1,0,0.1-0.1c0.1-0.1,0.2-0.1,0.3-0.2c0,0,0,0,0.1,0c0.1-0.1,0.2-0.2,0.3-0.3l0,0
				c0.2-0.3,0.4-0.7,0.4-1.1l0,0c0-0.1,0-0.1,0-0.1c0-1.1-0.8-2-1.9-2.1c0.1,0,0.1,0,0.2,0c0.1,0,0.1,0,0.2,0c0.1,0,0.2,0,0.2-0.1
				c0.1,0,0.2-0.1,0.2-0.1s0.1,0,0.1-0.1c0.1-0.1,0.2-0.1,0.3-0.2c0,0,0,0,0.1,0c0.1-0.1,0.2-0.2,0.3-0.3l0,0
				c0.2-0.3,0.4-0.7,0.4-1.1l0,0c0-0.1,0-0.1,0-0.1c0-0.8-0.4-1.5-1.1-1.8c0.7-1.8,1.9-2.8,3.7-4.5c2.5-2.5,4-5.9,4-9.7
				C167.2,34.8,166.3,32,164.6,29.7z"/>
		</g>
	</g>
</g>
<g>
	<g>
		<path class="st9" d="M4.8,74.8c-2.4,0-4.4-2-4.4-4.4V58l7-8.8c1.7-2.2,1.7-5.8,0-8l-7-8.8V20c0-2.4,2-4.4,4.4-4.4h50.1
			c2.4,0,4.4,2,4.4,4.4v12.5c0,0.1,0,0.2,0.1,0.3l0.1,0.1l7,8.8c1.5,1.9,1.5,5.1,0,7l-7,8.8c-0.1,0.1-0.2,0.2-0.2,0.3v12.5
			c0,2.4-2,4.4-4.4,4.4H4.8V74.8z"/>
		<path class="st10" d="M54.9,16c2.2,0,4,1.8,4,4v12.5c0,0.2,0.1,0.4,0.2,0.5l0.1,0.1l7,8.8c1.4,1.8,1.4,4.7,0,6.5l-7,8.8l-0.1,0.1
			c-0.1,0.1-0.2,0.3-0.2,0.5v12.6c0,2.2-1.8,4-4,4H4.8c-2.2,0-4-1.8-4-4V58.2l6.9-8.7c1.9-2.3,1.9-6.1,0-8.5l-6.9-8.7V20
			c0-2.2,1.8-4,4-4H54.9 M54.9,15.2H4.8C2.1,15.2,0,17.4,0,20v12.5c0,0,0,0.1,0.1,0.1l7,8.8c1.6,2.1,1.6,5.4,0,7.5l-7,8.8
			c0,0,0,0.1-0.1,0.1v12.6c0,2.6,2.1,4.8,4.8,4.8h50.1c2.6,0,4.8-2.2,4.8-4.8V57.9c0,0,0,0,0.1-0.1l7-8.8c1.6-2.1,1.6-5.4,0-7.5
			l-7-8.8c0,0,0-0.1-0.1-0.1V20C59.7,17.4,57.5,15.2,54.9,15.2L54.9,15.2z"/>
	</g>
	<g>
		<g>
			<g>
				<polygon class="st12" points="39.6,64.1 38.3,64.7 36.7,66.2 31.3,66.2 29.7,64.7 28.4,64.1 				"/>
				<path class="st13" d="M31.8,66.2c0,0,0.1,1.3,2.2,1.3s2.2-1.3,2.2-1.3H31.8z"/>
			</g>
			<path class="st18" d="M47.8,37.8c0,3.8-1.5,7.2-4,9.7s-4,3.3-4.2,7.3h-1.2c-1.1,0-2.5,0-2.5,0h-3.6c0,0-1.3,0-2.4,0h-1.3
				c-0.2-3.4-1.4-4.5-3.3-6.3c-0.3-0.3-0.6-0.6-1-0.9c-2.5-2.5-4-5.9-4-9.7s1.5-7.2,4-9.7s5.9-4,9.8-4c3.1,0,5.9,1,8.2,2.7
				c0.6,0.4,1.1,0.9,1.6,1.3c0.2,0.2,0.3,0.3,0.5,0.5c0.3,0.3,0.6,0.7,0.9,1.1C46.8,32,47.8,34.8,47.8,37.8z"/>
			<g>
				<path class="st15" d="M26.9,62.3c0-1.2,1-2.1,2.2-2.1H39c1.2,0,2.2,1,2.2,2.1l0,0c0,1.2-1,2.1-2.2,2.1h-9.9
					C27.8,64.4,26.9,63.5,26.9,62.3L26.9,62.3z"/>
				<path class="st16" d="M26.9,62.5c0.1,1.1,1,2,2.2,2H39c1.2,0,2.1-0.9,2.2-2H26.9z"/>
			</g>
			<g>
				<path class="st15" d="M26.9,58.1c0-1.2,1-2.1,2.2-2.1H39c1.2,0,2.2,1,2.2,2.1l0,0c0,1.2-1,2.1-2.2,2.1h-9.9
					C27.8,60.2,26.9,59.3,26.9,58.1L26.9,58.1z"/>
				<path class="st16" d="M26.9,58.2c0.1,1.1,1,2,2.2,2H39c1.2,0,2.1-0.9,2.2-2H26.9z"/>
			</g>
			<g>
				<path class="st15" d="M26.9,53.9c0-1.2,1-2.1,2.2-2.1H39c1.2,0,2.2,1,2.2,2.1l0,0c0,1.2-1,2.1-2.2,2.1h-9.9
					C27.8,56,26.9,55,26.9,53.9L26.9,53.9z"/>
				<path class="st16" d="M26.9,54c0.1,1.1,1,2,2.2,2H39c1.2,0,2.1-0.9,2.2-2H26.9z"/>
			</g>
		</g>
		<path class="st17" d="M45.1,29.7c-0.3-0.4-0.6-0.7-0.9-1.1c-0.2-0.2-0.3-0.3-0.5-0.5c-0.5-0.5-1-0.9-1.6-1.3
			c-2.3-1.7-5.1-2.7-8.2-2.7v43.4c2.1,0,2.2-1.3,2.2-1.3h0.4l1.7-1.5l0.6-0.3h0.1c0.1,0,0.3,0,0.4,0c0.1,0,0.1,0,0.2-0.1
			c0.1,0,0.1,0,0.2-0.1c0.1,0,0.2-0.1,0.2-0.1s0.1,0,0.1-0.1c0.1-0.1,0.2-0.1,0.3-0.2c0,0,0,0,0.1,0c0.1-0.1,0.2-0.2,0.3-0.3l0,0
			c0.2-0.3,0.4-0.7,0.4-1.1l0,0c0-0.1,0-0.1,0-0.1c0-1.1-0.8-2-1.9-2.1c0.1,0,0.1,0,0.2,0c0.1,0,0.1,0,0.2-0.1c0.1,0,0.1,0,0.2-0.1
			c0.1,0,0.2-0.1,0.2-0.1s0.1,0,0.1-0.1c0.1-0.1,0.2-0.1,0.3-0.2c0,0,0,0,0.1,0c0.1-0.1,0.2-0.2,0.3-0.3l0,0
			c0.2-0.3,0.4-0.7,0.4-1.1l0,0c0-0.1,0-0.1,0-0.1c0-1.1-0.8-2-1.9-2.1c0.1,0,0.1,0,0.2,0c0.1,0,0.1,0,0.2,0c0.1,0,0.2,0,0.2-0.1
			c0.1,0,0.2-0.1,0.2-0.1s0.1,0,0.1-0.1c0.1-0.1,0.2-0.1,0.3-0.2c0,0,0,0,0.1,0c0.1-0.1,0.2-0.2,0.3-0.3l0,0
			c0.2-0.3,0.4-0.7,0.4-1.1l0,0c0-0.1,0-0.1,0-0.1c0-0.8-0.4-1.5-1.1-1.8c0.7-1.8,1.9-2.8,3.7-4.5c2.5-2.5,4-5.9,4-9.7
			C47.8,34.8,46.8,32,45.1,29.7z"/>
	</g>
</g>
</svg>
