<?xml version="1.0" encoding="utf-8"?>
<!-- Generator: Adobe Illustrator 23.0.1, SVG Export Plug-In . SVG Version: 6.00 Build 0)  -->
<svg version="1.1" xmlns="http://www.w3.org/2000/svg" xmlns:xlink="http://www.w3.org/1999/xlink" x="0px" y="0px"
	 viewBox="0 0 68 75.2" style="enable-background:new 0 0 68 75.2;" xml:space="preserve">
<style type="text/css">
	.st0{fill:#00813A;}
	.st1{fill:#006A20;}
	.st2{fill:#FFFFFF;}
	.st3{fill:#848F95;}
	.st4{fill:#526663;}
	.st5{fill:#738082;}
	.st6{opacity:0.12;}
	.st7{fill:#333333;}
	.st8{fill:#006F3B;}
	.st9{fill:#585858;}
	.st10{fill:#ECECEC;}
	.st11{fill:#939393;}
	.st12{fill:#1BB6A2;}
	.st13{fill:#F1DB57;}
	.st14{fill:#F04850;}
	.st15{fill:#1A1A1A;}
	.st16{fill:#01803D;}
	.st17{fill:#006924;}
	.st18{fill:#808B91;}
	.st19{fill:#536663;}
	.st20{fill:#738080;}
	.st21{fill:#006E3D;}
</style>
<g id="レイヤー_1">
</g>
<g id="menu">
	<g>
		<g>
			<path class="st9" d="M4.8,74.7c-2.4,0-4.3-1.9-4.3-4.3l0-12.4l7-8.8c1.8-2.2,1.8-5.9,0-8.1l-7-8.8l0-12.4c0-2.4,1.9-4.3,4.3-4.3
				L55,15.7c2.4,0,4.3,1.9,4.3,4.3l0,12.5c0,0.1,0,0.2,0.1,0.3c0,0,0.1,0.1,0.1,0.1l7,8.8c1.5,1.9,1.5,5,0,6.9l-7,8.8
				c-0.1,0.1-0.2,0.3-0.2,0.4l0,12.6c0,2.4-1.9,4.3-4.3,4.3C54.9,74.8,4.8,74.7,4.8,74.7z"/>
			<path class="st7" d="M4.9,15.1l0,1L55,16.2c2.1,0,3.8,1.7,3.8,3.8l0,12.5c0,0.2,0.1,0.4,0.2,0.6c0,0,0.1,0.1,0.1,0.1l7,8.8
				c1.4,1.7,1.3,4.6,0,6.3l-7,8.8c0,0-0.1,0.1-0.1,0.1c-0.1,0.2-0.2,0.4-0.2,0.6l0,12.6c0,2.1-1.7,3.8-3.8,3.8L4.8,74.2
				c-1,0-2-0.4-2.7-1.1C1.4,72.3,1,71.4,1,70.3l0-12.2l6.9-8.6c1.9-2.4,1.9-6.3,0-8.7L1,32.1l0-12.2c0-2.1,1.7-3.8,3.8-3.8V15.1
				 M4.9,15.1c-2.6,0-4.8,2.2-4.8,4.8l0,12.5c0,0,0,0.1,0.1,0.1l7,8.8c1.6,2.1,1.6,5.4,0,7.5l-7,8.8c0,0,0,0.1-0.1,0.1l0,12.6
				c0,2.6,2.1,4.8,4.8,4.8l50.1,0.1c0,0,0,0,0,0c2.6,0,4.8-2.2,4.8-4.8l0-12.6c0,0,0,0,0.1-0.1l7-8.8c1.6-2.1,1.6-5.4,0-7.5l-7-8.8
				c0,0,0-0.1-0.1-0.1l0-12.5c0-2.6-2.1-4.8-4.8-4.8L4.9,15.1C4.9,15.1,4.9,15.1,4.9,15.1L4.9,15.1z"/>
		</g>
		<g>
			<g>
				<path class="st10" d="M34.5,63.4c-10,0-18.2-8.1-18.2-18.2c0-10,8.1-18.2,18.2-18.2s18.2,8.1,18.2,18.2
					C52.7,55.2,44.5,63.4,34.5,63.4z"/>
				<path class="st11" d="M34.5,27.3c9.8,0,17.9,8,17.9,17.9s-8,17.9-17.9,17.9s-17.9-8-17.9-17.9S24.7,27.3,34.5,27.3 M34.5,26.7
					C24.3,26.7,16,35,16,45.2s8.3,18.5,18.5,18.5S53,55.4,53,45.2S44.7,26.7,34.5,26.7L34.5,26.7z"/>
			</g>
			<g>
				<path class="st7" d="M34.5,61c-8.7,0-15.8-7.1-15.8-15.8c0-8.7,7.1-15.8,15.8-15.8c8.7,0,15.8,7.1,15.8,15.8
					C50.3,53.9,43.2,61,34.5,61z"/>
				<path class="st15" d="M34.5,29.5c8.6,0,15.6,7,15.6,15.6s-7,15.6-15.6,15.6s-15.6-7-15.6-15.6S25.9,29.5,34.5,29.5 M34.5,29.3
					c-8.8,0-15.9,7.1-15.9,15.9s7.1,15.9,15.9,15.9S50.4,54,50.4,45.2S43.3,29.3,34.5,29.3L34.5,29.3z"/>
			</g>
		</g>
	</g>
</g>
</svg>
