<?xml version="1.0" encoding="utf-8"?>
<!-- Generator: Adobe Illustrator 23.0.1, SVG Export Plug-In . SVG Version: 6.00 Build 0)  -->
<svg version="1.1" id="レイヤー_1" xmlns="http://www.w3.org/2000/svg" xmlns:xlink="http://www.w3.org/1999/xlink" x="0px"
	 y="0px" viewBox="0 0 44 44" style="enable-background:new 0 0 44 44;" xml:space="preserve">
<style type="text/css">
	.st0{fill:#585858;}
	.st1{fill:#333333;}
	.st2{fill:#CCCCCC;}
	.st3{fill:#AEAEAE;}
	.st4{fill:#666666;}
	.st5{fill:#F9F9F9;}
	.st6{fill:#CBCBCB;}
	.st7{fill:#1A1A1A;}
	.st8{fill:#FC585F;}
</style>
<g>
	<g>
		<path class="st0" d="M3.8,37.6c-1.4,0-2.6-1.1-2.6-2.6v-7.4l4.1-5.2c1-1.3,1-3.5,0-4.8l-4.1-5.2V4.9c0-1.4,1.1-2.6,2.6-2.6
			l29.4,0.1c1.4,0,2.6,1.1,2.6,2.6v7.5c0,0.1,0,0.2,0.1,0.2l4.2,5.3c0.9,1.1,0.9,3,0,4.1L36,27.3c-0.1,0.1-0.1,0.2-0.1,0.2v7.5
			c0,1.4-1.1,2.6-2.6,2.6L3.8,37.6z"/>
		<path class="st1" d="M3.9,2v0.6l29.4,0.1c0.6,0,1.1,0.2,1.6,0.7c0.4,0.4,0.6,1,0.6,1.6v7.5c0,0.2,0.1,0.2,0.2,0.3
			c0,0,0,0.1,0.1,0.1l4.1,5.3c0.8,1.1,0.8,2.8,0,3.8l-4.1,5.2l-0.1,0.1c-0.1,0.1-0.2,0.2-0.2,0.3v7.5c0,1.2-1,2.3-2.2,2.3L3.8,37.3
			c-0.6,0-1.1-0.2-1.6-0.7c-0.4-0.4-0.6-1-0.6-1.6v-7.3l4.1-5.1c1.1-1.5,1.1-3.8,0-5.2l-4-5.1V4.9c0-1.3,1-2.4,2.2-2.4V2 M3.9,2
			C2.4,2,1.1,3.3,1.1,4.9v7.5c0,0,0,0,0.1,0.1l4.1,5.3c1,1.2,1,3.3,0,4.5l-4.2,5.3c0,0,0,0-0.1,0.1v7.5C1,36.7,2.3,38,3.8,38
			l29.4-0.1l0,0c1.5,0,2.8-1.3,2.8-2.9v-7.5c0,0,0,0,0.1-0.1l4.2-5.3c1-1.2,1-3.3,0-4.5l-4.1-5.2c0,0,0,0-0.1-0.1V4.9
			c0-1.6-1.3-2.9-2.8-2.9H3.9L3.9,2L3.9,2z"/>
	</g>
	<g>
		<g>
			<g>
				<path class="st2" d="M12.7,32.1c-1.9,0-3.5-1.6-3.5-3.6V11.4c0-2,1.6-3.6,3.5-3.6h16.8c1.9,0,3.5,1.6,3.5,3.6v17.1
					c0,2-1.6,3.6-3.5,3.6H12.7z"/>
				<path class="st3" d="M29.5,7.9c1.9,0,3.4,1.6,3.4,3.5v17.1c0,1.9-1.5,3.5-3.4,3.5H12.7c-1.9,0-3.4-1.6-3.4-3.5V11.4
					c0-1.9,1.5-3.5,3.4-3.5H29.5 M29.5,7.7H12.7c-2,0-3.6,1.7-3.6,3.7v17.1c0,2,1.6,3.7,3.6,3.7h16.8c2,0,3.6-1.7,3.6-3.7V11.4
					C33.1,9.4,31.4,7.7,29.5,7.7L29.5,7.7z"/>
			</g>
			<g>
				<g>
					<path class="st4" d="M12.2,25.4c-1.2,0-2.3-1-2.3-2.3V11.5c0-1.3,1-2.3,2.3-2.3h17.6c1.2,0,2.3,1,2.3,2.3v11.6
						c0,1.3-1,2.3-2.3,2.3H12.2z"/>
					<path class="st5" d="M29.9,9.4c1.1,0,2,0.9,2,2.1v11.6c0,1.1-0.9,2.1-2,2.1H12.2c-1.1,0-2-0.9-2-2.1V11.5c0-1.1,0.9-2.1,2-2.1
						L29.9,9.4 M29.9,8.9H12.2c-1.4,0-2.5,1.1-2.5,2.5v11.6c0,1.4,1.1,2.6,2.5,2.6h17.6c1.4,0,2.5-1.1,2.5-2.6V11.5
						C32.4,10.1,31.3,8.9,29.9,8.9L29.9,8.9z"/>
				</g>
				<g>
					<path class="st6" d="M29.6,25.5H12.6c-1.3,0-2.4-1.1-2.4-2.4V12.6c0-1.3,1-2.4,2.4-2.4h17c1.3,0,2.4,1.1,2.4,2.4v10.5
						C32,24.4,30.9,25.5,29.6,25.5z"/>
				</g>
				<g>
					<path class="st1" d="M13.6,30.5c-1.4,0-2.5-1.1-2.5-2.6V13.2c0-1.4,1.1-2.6,2.5-2.6h14.9c1.4,0,2.5,1.1,2.5,2.6v14.7
						c0,1.4-1.1,2.6-2.5,2.6H13.6z"/>
					<g>
						<path class="st7" d="M28.5,10.7c1.4,0,2.4,1.1,2.4,2.5v14.7c0,1.4-1.1,2.5-2.4,2.5H13.6c-1.4,0-2.4-1.1-2.4-2.5V13.2
							c0-1.4,1.1-2.5,2.4-2.5H28.5 M28.5,10.6H13.6c-1.4,0-2.6,1.2-2.6,2.6v14.7c0,1.4,1.2,2.6,2.6,2.6h14.9c1.4,0,2.6-1.2,2.6-2.6
							V13.2C31.1,11.8,30,10.6,28.5,10.6L28.5,10.6z"/>
					</g>
				</g>
			</g>
		</g>
		<path class="st8" d="M25.7,20.8C25.7,20.8,25.7,20.8,25.7,20.8l-1.5-5.5c0,0,0,0,0,0v-0.1c0,0,0-0.1-0.1-0.1l-2-0.1v-0.3h0.1
			c0.2,0,0.3-0.1,0.3-0.2l0.2-1.2h0.2c0.1,0,0.2-0.1,0.2-0.2s-0.1-0.2-0.2-0.2h-0.3l0-0.1c0-0.1-0.1-0.2-0.3-0.2H21
			c-0.2,0-0.3,0.1-0.3,0.2l0,0.1h-0.3c-0.1,0-0.2,0.1-0.2,0.2s0.1,0.2,0.2,0.2h0.2l0.2,1.2c0,0.1,0.1,0.2,0.3,0.2h0.1V15l-2,0.1
			c-0.1,0-0.1,0-0.1,0.1v0.1l0,0l-1.5,5.4c0,0,0,0.1,0,0.1c0,0.2-0.1,0.5,0,0.7c0.1,0.2,0.2,0.3,0.4,0.3c0,0,0,0,0,0c0,0,0,0,0,0
			c0.1-0.1,0.1-0.3,0.2-0.4l0,0c0,0,0,0,0,0c0,0,0,0,0.1,0c0-0.1,0.1-0.2,0.1-0.2c0,0,0.1,0,0.1-0.1l0.7-2.5l0.1,2.7
			c0,0.1,0,0.1,0.1,0.2l0.1,6.7c-0.1,0.1-0.2,0.2-0.3,0.2c-0.1,0.2-0.1,0.3-0.1,0.5c0,0,0,0.1,0.1,0.1l1.6,0l0,0c0,0,0.1,0,0.1-0.1
			v-0.6c0,0,0,0,0,0l0.6-6.4h0.4l0.5,6.2l0,0.8c0,0,0,0.1,0.1,0.1l0,0l1.6,0c0,0,0.1,0,0.1-0.1c0-0.2,0-0.3-0.1-0.4
			c-0.1-0.1-0.2-0.2-0.2-0.2l0-6.8c0.1,0,0.1-0.1,0.1-0.2l0.1-2.7l0.7,2.5c0,0,0,0.1,0.1,0.1c0,0.1,0,0.2,0.1,0.2c0,0,0.1,0,0.1,0
			c0,0,0,0,0,0l0,0c0,0.2,0.1,0.3,0.2,0.4c0,0,0,0,0,0c0,0,0,0,0,0c0.2,0,0.4-0.1,0.4-0.3C25.8,21.3,25.8,21,25.7,20.8z"/>
	</g>
</g>
</svg>
