<?xml version="1.0" encoding="utf-8"?>
<!-- Generator: Adobe Illustrator 22.1.0, SVG Export Plug-In . SVG Version: 6.00 Build 0)  -->
<svg version="1.1" id="レイヤー_1" xmlns="http://www.w3.org/2000/svg" xmlns:xlink="http://www.w3.org/1999/xlink" x="0px"
	 y="0px" viewBox="0 0 128 86" style="enable-background:new 0 0 128 86;" xml:space="preserve">
<style type="text/css">
	.st0{fill:none;}
	.st1{fill:#61C3FF;}
	.st2{fill:#1CA4DE;}
	.st3{fill:#FFFFFF;}
	.st4{fill:#666666;}
	.st5{fill:#C2C2C2;}
	.st6{fill:#FFF100;}
	.st7{fill:#F0F0F3;}
	.st8{fill:#D7D1CE;}
	.st9{opacity:6.000000e-02;}
	.st10{fill:#27B0FF;}
	.st11{fill:#FFEC00;}
	.st12{fill:#00813A;}
	.st13{fill:#006A20;}
	.st14{fill:#848F95;}
	.st15{fill:#526663;}
	.st16{fill:#738082;}
	.st17{opacity:0.12;}
	.st18{fill:#EDE349;}
	.st19{fill:#ECBD27;}
	.st20{fill:#589D69;}
	.st21{fill:#FFEC2E;}
	.st22{fill:#006F3B;}
	.st23{fill:#B6FFFF;}
</style>
<rect class="st0" width="128" height="86"/>
<g>
	<g>
		<path class="st1" d="M64.5,74.8c-2.4,0-4.4-2-4.4-4.4V58l7-8.8c1.7-2.2,1.7-5.8,0-8l-7-8.8V20c0-2.4,2-4.4,4.4-4.4h50.1
			c2.4,0,4.4,2,4.4,4.4v12.5c0,0.1,0,0.2,0.1,0.3c0,0,0.1,0.1,0.1,0.1l7,8.8c1.5,1.9,1.5,5.1,0,7l-7,8.8c-0.1,0.1-0.2,0.2-0.2,0.3
			v12.5c0,2.4-2,4.4-4.4,4.4H64.5z"/>
		<path class="st2" d="M114.6,16c2.2,0,4,1.8,4,4v12.5c0,0.2,0.1,0.4,0.2,0.5c0,0,0.1,0.1,0.1,0.1l7,8.8c1.4,1.8,1.4,4.7,0,6.5
			l-7,8.8c0,0-0.1,0.1-0.1,0.1c-0.1,0.1-0.2,0.3-0.2,0.5v12.6c0,2.2-1.8,4-4,4H64.5c-2.2,0-4-1.8-4-4V58.2l6.9-8.7
			c1.9-2.3,1.9-6.1,0-8.5l-6.9-8.7V20c0-2.2,1.8-4,4-4H114.6 M114.6,15.2H64.5c-2.6,0-4.8,2.2-4.8,4.8v12.5c0,0,0,0.1,0.1,0.1l7,8.8
			c1.6,2.1,1.6,5.4,0,7.5l-7,8.8c0,0,0,0.1-0.1,0.1v12.6c0,2.6,2.1,4.8,4.8,4.8h50.1c2.6,0,4.8-2.2,4.8-4.8V57.9c0,0,0,0,0.1-0.1
			l7-8.8c1.6-2.1,1.6-5.4,0-7.5l-7-8.8c0,0,0-0.1-0.1-0.1V20C119.4,17.4,117.2,15.2,114.6,15.2L114.6,15.2z"/>
	</g>
	<g>
		<g>
			<g>
				<path class="st11" d="M76.3,37.9h-1.8c-0.4,0-0.8-0.3-0.8-0.8c0-0.4,0.3-0.8,0.8-0.8h1.8c0.4,0,0.8,0.3,0.8,0.8
					C77.1,37.5,76.8,37.9,76.3,37.9z"/>
				<path class="st11" d="M112.8,37.9h-1.8c-0.4,0-0.8-0.3-0.8-0.8s0.3-0.8,0.8-0.8h1.8c0.4,0,0.8,0.3,0.8,0.8
					S113.3,37.9,112.8,37.9z"/>
			</g>
			<g>
				<path class="st11" d="M106.2,25.5c-0.2,0-0.4-0.1-0.5-0.2c-0.3-0.3-0.3-0.8,0-1.1l1-1c0.3-0.3,0.8-0.3,1.1,0
					c0.3,0.3,0.3,0.8,0,1.1l-1,1C106.6,25.4,106.4,25.5,106.2,25.5z"/>
				<path class="st11" d="M80.2,51.3c-0.2,0-0.4-0.1-0.5-0.2c-0.3-0.3-0.3-0.8,0-1.1l1-1c0.3-0.3,0.8-0.3,1.1,0
					c0.3,0.3,0.3,0.8,0,1.1l-1,1C80.6,51.2,80.4,51.3,80.2,51.3z"/>
			</g>
			<g>
				<path class="st11" d="M81.2,25.5c-0.2,0-0.4-0.1-0.5-0.2l-1-1c-0.3-0.3-0.3-0.8,0-1.1c0.3-0.3,0.8-0.3,1.1,0l1,1
					c0.3,0.3,0.3,0.8,0,1.1C81.6,25.4,81.4,25.5,81.2,25.5z"/>
				<path class="st11" d="M107.2,51.3c-0.2,0-0.4-0.1-0.5-0.2l-1-1c-0.3-0.3-0.3-0.8,0-1.1c0.3-0.3,0.8-0.3,1.1,0l1,1
					c0.3,0.3,0.3,0.8,0,1.1C107.6,51.2,107.4,51.3,107.2,51.3z"/>
			</g>
		</g>
		<g>
			<g>
				<g>
					<polygon class="st4" points="99.3,64.1 98,64.7 96.4,66.2 91.1,66.2 89.4,64.7 88.1,64.1 					"/>
					<path class="st5" d="M91.5,66.2c0,0,0.1,1.3,2.2,1.3c2.1,0,2.2-1.3,2.2-1.3H91.5z"/>
				</g>
				<path class="st6" d="M107.5,37.8c0,3.8-1.5,7.2-4,9.7c-2.5,2.5-4,3.3-4.2,7.3h-1.2c-1.1,0-2.5,0-2.5,0h-3.6c0,0-1.3,0-2.4,0
					h-1.3c-0.2-3.4-1.4-4.5-3.3-6.3c-0.3-0.3-0.6-0.6-1-0.9c-2.5-2.5-4-5.9-4-9.7s1.5-7.2,4-9.7c2.5-2.5,5.9-4,9.8-4
					c3.1,0,5.9,1,8.2,2.7c0.6,0.4,1.1,0.9,1.6,1.3c0.2,0.2,0.3,0.3,0.5,0.5c0.3,0.3,0.6,0.7,0.9,1.1C106.5,32,107.5,34.8,107.5,37.8
					z"/>
				<g>
					<path class="st7" d="M86.6,62.3c0-1.2,1-2.1,2.2-2.1h9.9c1.2,0,2.2,1,2.2,2.1l0,0c0,1.2-1,2.1-2.2,2.1h-9.9
						C87.6,64.4,86.6,63.5,86.6,62.3L86.6,62.3z"/>
					<path class="st8" d="M86.6,62.5c0.1,1.1,1,2,2.2,2h9.9c1.2,0,2.1-0.9,2.2-2H86.6z"/>
				</g>
				<g>
					<path class="st7" d="M86.6,58.1c0-1.2,1-2.1,2.2-2.1h9.9c1.2,0,2.2,1,2.2,2.1l0,0c0,1.2-1,2.1-2.2,2.1h-9.9
						C87.6,60.2,86.6,59.3,86.6,58.1L86.6,58.1z"/>
					<path class="st8" d="M86.6,58.2c0.1,1.1,1,2,2.2,2h9.9c1.2,0,2.1-0.9,2.2-2H86.6z"/>
				</g>
				<g>
					<path class="st7" d="M86.6,53.9c0-1.2,1-2.1,2.2-2.1h9.9c1.2,0,2.2,1,2.2,2.1l0,0c0,1.2-1,2.1-2.2,2.1h-9.9
						C87.6,56,86.6,55,86.6,53.9L86.6,53.9z"/>
					<path class="st8" d="M86.6,54c0.1,1.1,1,2,2.2,2h9.9c1.2,0,2.1-0.9,2.2-2H86.6z"/>
				</g>
			</g>
			<path class="st9" d="M104.8,29.7c-0.3-0.4-0.6-0.7-0.9-1.1c-0.2-0.2-0.3-0.3-0.5-0.5c-0.5-0.5-1-0.9-1.6-1.3
				c-2.3-1.7-5.1-2.7-8.2-2.7v43.4c2.1,0,2.2-1.3,2.2-1.3h0.4l1.7-1.5l0.6-0.3h0.1c0.1,0,0.3,0,0.4,0c0.1,0,0.1,0,0.2-0.1
				c0.1,0,0.1,0,0.2-0.1c0.1,0,0.2-0.1,0.2-0.1c0,0,0.1,0,0.1-0.1c0.1-0.1,0.2-0.1,0.3-0.2c0,0,0,0,0.1,0c0.1-0.1,0.2-0.2,0.3-0.3
				c0,0,0,0,0,0c0.2-0.3,0.4-0.7,0.4-1.1v0c0-0.1,0-0.1,0-0.1c0-1.1-0.8-2-1.9-2.1c0.1,0,0.1,0,0.2,0c0.1,0,0.1,0,0.2-0.1
				c0.1,0,0.1,0,0.2-0.1c0.1,0,0.2-0.1,0.2-0.1c0,0,0.1,0,0.1-0.1c0.1-0.1,0.2-0.1,0.3-0.2c0,0,0,0,0.1,0c0.1-0.1,0.2-0.2,0.3-0.3
				c0,0,0,0,0,0c0.2-0.3,0.4-0.7,0.4-1.1v0c0-0.1,0-0.1,0-0.1c0-1.1-0.8-2-1.9-2.1c0.1,0,0.1,0,0.2,0c0.1,0,0.1,0,0.2,0
				c0.1,0,0.2,0,0.2-0.1c0.1,0,0.2-0.1,0.2-0.1c0,0,0.1,0,0.1-0.1c0.1-0.1,0.2-0.1,0.3-0.2c0,0,0,0,0.1,0c0.1-0.1,0.2-0.2,0.3-0.3
				c0,0,0,0,0,0c0.2-0.3,0.4-0.7,0.4-1.1v0c0-0.1,0-0.1,0-0.1c0-0.8-0.4-1.5-1.1-1.8c0.7-1.8,1.9-2.8,3.7-4.5c2.5-2.5,4-5.9,4-9.7
				C107.5,34.8,106.5,32,104.8,29.7z"/>
		</g>
	</g>
</g>
<g>
	<g>
		<path class="st1" d="M4.8,74.8c-2.4,0-4.4-2-4.4-4.4V58l7-8.8c1.7-2.2,1.7-5.8,0-8l-7-8.8V20c0-2.4,2-4.4,4.4-4.4h50.1
			c2.4,0,4.4,2,4.4,4.4v12.5c0,0.1,0,0.2,0.1,0.3l0.1,0.1l7,8.8c1.5,1.9,1.5,5.1,0,7l-7,8.8c-0.1,0.1-0.2,0.2-0.2,0.3v12.5
			c0,2.4-2,4.4-4.4,4.4H4.8z"/>
		<path class="st2" d="M54.9,16c2.2,0,4,1.8,4,4v12.5c0,0.2,0.1,0.4,0.2,0.5c0,0,0.1,0.1,0.1,0.1l7,8.8c1.4,1.8,1.4,4.7,0,6.5
			l-7,8.8c0,0-0.1,0.1-0.1,0.1c-0.1,0.1-0.2,0.3-0.2,0.5v12.6c0,2.2-1.8,4-4,4H4.8c-2.2,0-4-1.8-4-4V58.2l6.9-8.7
			c1.9-2.3,1.9-6.1,0-8.5l-6.9-8.7V20c0-2.2,1.8-4,4-4H54.9 M54.9,15.2H4.8C2.1,15.2,0,17.4,0,20v12.5c0,0,0,0.1,0.1,0.1l7,8.8
			c1.6,2.1,1.6,5.4,0,7.5l-7,8.8c0,0,0,0.1-0.1,0.1v12.6c0,2.6,2.1,4.8,4.8,4.8h50.1c2.6,0,4.8-2.2,4.8-4.8V57.9c0,0,0,0,0.1-0.1
			l7-8.8c1.6-2.1,1.6-5.4,0-7.5l-7-8.8c0,0,0-0.1-0.1-0.1V20C59.7,17.4,57.5,15.2,54.9,15.2L54.9,15.2z"/>
	</g>
	<g>
		<g>
			<g>
				<polygon class="st4" points="39.6,64.1 38.3,64.7 36.7,66.2 31.3,66.2 29.7,64.7 28.4,64.1 				"/>
				<path class="st5" d="M31.8,66.2c0,0,0.1,1.3,2.2,1.3c2.1,0,2.2-1.3,2.2-1.3H31.8z"/>
			</g>
			<path class="st23" d="M47.8,37.8c0,3.8-1.5,7.2-4,9.7c-2.5,2.5-4,3.3-4.2,7.3h-1.2c-1.1,0-2.5,0-2.5,0h-3.6c0,0-1.3,0-2.4,0h-1.3
				c-0.2-3.4-1.4-4.5-3.3-6.3c-0.3-0.3-0.6-0.6-1-0.9c-2.5-2.5-4-5.9-4-9.7s1.5-7.2,4-9.7c2.5-2.5,5.9-4,9.8-4c3.1,0,5.9,1,8.2,2.7
				c0.6,0.4,1.1,0.9,1.6,1.3c0.2,0.2,0.3,0.3,0.5,0.5c0.3,0.3,0.6,0.7,0.9,1.1C46.8,32,47.8,34.8,47.8,37.8z"/>
			<g>
				<path class="st7" d="M26.9,62.3c0-1.2,1-2.1,2.2-2.1h9.9c1.2,0,2.2,1,2.2,2.1l0,0c0,1.2-1,2.1-2.2,2.1h-9.9
					C27.8,64.4,26.9,63.5,26.9,62.3L26.9,62.3z"/>
				<path class="st8" d="M26.9,62.5c0.1,1.1,1,2,2.2,2h9.9c1.2,0,2.1-0.9,2.2-2H26.9z"/>
			</g>
			<g>
				<path class="st7" d="M26.9,58.1c0-1.2,1-2.1,2.2-2.1h9.9c1.2,0,2.2,1,2.2,2.1l0,0c0,1.2-1,2.1-2.2,2.1h-9.9
					C27.8,60.2,26.9,59.3,26.9,58.1L26.9,58.1z"/>
				<path class="st8" d="M26.9,58.2c0.1,1.1,1,2,2.2,2h9.9c1.2,0,2.1-0.9,2.2-2H26.9z"/>
			</g>
			<g>
				<path class="st7" d="M26.9,53.9c0-1.2,1-2.1,2.2-2.1h9.9c1.2,0,2.2,1,2.2,2.1l0,0c0,1.2-1,2.1-2.2,2.1h-9.9
					C27.8,56,26.9,55,26.9,53.9L26.9,53.9z"/>
				<path class="st8" d="M26.9,54c0.1,1.1,1,2,2.2,2h9.9c1.2,0,2.1-0.9,2.2-2H26.9z"/>
			</g>
		</g>
		<path class="st9" d="M45.1,29.7c-0.3-0.4-0.6-0.7-0.9-1.1c-0.2-0.2-0.3-0.3-0.5-0.5c-0.5-0.5-1-0.9-1.6-1.3
			c-2.3-1.7-5.1-2.7-8.2-2.7v43.4c2.1,0,2.2-1.3,2.2-1.3h0.4l1.7-1.5l0.6-0.3h0.1c0.1,0,0.3,0,0.4,0c0.1,0,0.1,0,0.2-0.1
			c0.1,0,0.1,0,0.2-0.1c0.1,0,0.2-0.1,0.2-0.1c0,0,0.1,0,0.1-0.1c0.1-0.1,0.2-0.1,0.3-0.2c0,0,0,0,0.1,0c0.1-0.1,0.2-0.2,0.3-0.3
			c0,0,0,0,0,0c0.2-0.3,0.4-0.7,0.4-1.1v0c0-0.1,0-0.1,0-0.1c0-1.1-0.8-2-1.9-2.1c0.1,0,0.1,0,0.2,0c0.1,0,0.1,0,0.2-0.1
			c0.1,0,0.1,0,0.2-0.1c0.1,0,0.2-0.1,0.2-0.1c0,0,0.1,0,0.1-0.1c0.1-0.1,0.2-0.1,0.3-0.2c0,0,0,0,0.1,0c0.1-0.1,0.2-0.2,0.3-0.3
			c0,0,0,0,0,0c0.2-0.3,0.4-0.7,0.4-1.1v0c0-0.1,0-0.1,0-0.1c0-1.1-0.8-2-1.9-2.1c0.1,0,0.1,0,0.2,0c0.1,0,0.1,0,0.2,0
			c0.1,0,0.2,0,0.2-0.1c0.1,0,0.2-0.1,0.2-0.1c0,0,0.1,0,0.1-0.1c0.1-0.1,0.2-0.1,0.3-0.2c0,0,0,0,0.1,0c0.1-0.1,0.2-0.2,0.3-0.3
			c0,0,0,0,0,0c0.2-0.3,0.4-0.7,0.4-1.1v0c0-0.1,0-0.1,0-0.1c0-0.8-0.4-1.5-1.1-1.8c0.7-1.8,1.9-2.8,3.7-4.5c2.5-2.5,4-5.9,4-9.7
			C47.8,34.8,46.8,32,45.1,29.7z"/>
	</g>
</g>
</svg>
