<?xml version="1.0" encoding="utf-8"?>
<!-- Generator: Adobe Illustrator 23.0.1, SVG Export Plug-In . SVG Version: 6.00 Build 0)  -->
<svg version="1.1" id="レイヤー_1" xmlns="http://www.w3.org/2000/svg" xmlns:xlink="http://www.w3.org/1999/xlink" x="0px"
	 y="0px" viewBox="0 0 247.1 75.2" style="enable-background:new 0 0 247.1 75.2;" xml:space="preserve">
<style type="text/css">
	.st0{fill:#00813A;}
	.st1{fill:#006A20;}
	.st2{fill:#FFFFFF;}
	.st3{fill:#848F95;}
	.st4{fill:#526663;}
	.st5{fill:#738082;}
	.st6{opacity:0.12;enable-background:new    ;}
	.st7{fill:#585858;}
	.st8{fill:#333333;}
	.st9{fill:#ECECEC;}
	.st10{fill:#939393;}
	.st11{fill:#1A1A1A;}
	.st12{fill:#1BB6A2;}
	.st13{fill:#F1DB57;}
</style>
<g>
	<g>
		<g>
			<g>
				<path class="st0" d="M64.5,74.7c-2.4,0-4.3-1.9-4.3-4.3V58.1l7-8.8c1.8-2.2,1.8-5.9,0-8.1l-7-8.8V20c0-2.4,1.9-4.3,4.3-4.3h50.1
					c2.4,0,4.3,1.9,4.3,4.3v12.5c0,0.1,0,0.2,0.1,0.3l0.1,0.1l7,8.8c1.5,1.9,1.5,5,0,6.9l-7,8.8c-0.1,0.1-0.2,0.3-0.2,0.4v12.6
					c0,2.4-1.9,4.3-4.3,4.3C114.6,74.7,64.5,74.7,64.5,74.7z"/>
				<g>
					<path class="st1" d="M114.7,16.2c2.1,0,3.8,1.7,3.8,3.8v12.5c0,0.2,0.1,0.5,0.2,0.6l0.1,0.1l7,8.8c1.3,1.7,1.3,4.6,0,6.2
						l-7,8.8l-0.1,0.1c-0.1,0.2-0.2,0.4-0.2,0.6v12.6c0,2.1-1.7,3.8-3.8,3.8H64.5c-2.1,0-3.8-1.7-3.8-3.8v-12l6.9-8.6
						c1.9-2.4,1.9-6.3,0-8.7l-6.9-8.6V20c0-2.1,1.7-3.8,3.8-3.8H114.7 M114.7,15.2H64.5c-2.6,0-4.8,2.2-4.8,4.8v12.5
						c0,0,0,0.1,0.1,0.1l7,8.8c1.6,2.1,1.6,5.4,0,7.5l-7,8.8c0,0,0,0.1-0.1,0.1v12.6c0,2.6,2.1,4.8,4.8,4.8h50.1
						c2.6,0,4.8-2.2,4.8-4.8V57.9c0,0,0,0,0.1-0.1l7-8.8c1.6-2.1,1.6-5.4,0-7.5l-7-8.8c0,0,0-0.1-0.1-0.1V20
						C119.4,17.4,117.3,15.2,114.7,15.2L114.7,15.2z"/>
				</g>
			</g>
			<g>
				<g>
					<g>
						<ellipse class="st2" cx="93.7" cy="45.9" rx="17.7" ry="17.6"/>
						<path class="st3" d="M106.6,33l-0.4,0.4L106.6,33c-1.1-1.1-2.4-2.1-3.8-2.9c-2.7-1.5-5.7-2.4-9-2.4c-10,0-18.2,8.1-18.2,18
							c0,3.1,0.8,5.9,2.1,8.5c0.8,1.6,1.9,3,3.2,4.3l0,0c3.3,3.3,7.8,5.3,12.8,5.3c10,0,18.2-8.1,18.2-18
							C111.9,40.7,109.9,36.2,106.6,33z M93.7,62.8c-4.7,0-9-1.9-12.2-5l0,0c-3.1-3.1-5-7.4-5-12.1c0-9.4,7.7-17.1,17.2-17.1
							c4.7,0,9,1.9,12.2,5l0,0c3.1,3.1,5,7.4,5,12.1C110.9,55.1,103.2,62.8,93.7,62.8z"/>
					</g>
					<path class="st4" d="M89.9,31.8c-0.2,0-0.4-0.2-0.5-0.4c0-0.1,0-0.3,0.1-0.4s0.2-0.2,0.3-0.2h0.1c0.2,0,0.4,0.2,0.5,0.4
						c0,0.1,0,0.3-0.1,0.4S90.1,31.8,89.9,31.8L89.9,31.8z"/>
					<path class="st4" d="M97.7,60.6c-0.2,0-0.4-0.2-0.5-0.4c0-0.1,0-0.3,0.1-0.4c0.1-0.1,0.2-0.2,0.3-0.2h0.1
						c0.2,0,0.4,0.2,0.5,0.4C98.3,60.3,98.1,60.6,97.7,60.6C97.8,60.6,97.7,60.6,97.7,60.6z"/>
					<path class="st4" d="M79.2,42.3L79.2,42.3c-0.2,0-0.3-0.1-0.4-0.2c-0.1-0.1-0.1-0.3-0.1-0.4c0.1-0.2,0.3-0.4,0.5-0.4h0.1
						c0.1,0,0.2,0.1,0.3,0.2c0.1,0.1,0.1,0.3,0.1,0.4C79.7,42.2,79.5,42.3,79.2,42.3z"/>
					<path class="st4" d="M108.3,50.1L108.3,50.1c-0.4-0.1-0.5-0.4-0.5-0.6c0.1-0.2,0.3-0.4,0.5-0.4h0.1c0.1,0,0.2,0.1,0.3,0.2
						c0.1,0.1,0.1,0.3,0.1,0.4C108.8,49.9,108.6,50.1,108.3,50.1z"/>
					<path class="st4" d="M79.2,50.1c-0.2,0-0.4-0.2-0.5-0.4c0-0.1,0-0.3,0.1-0.4c0.1-0.1,0.2-0.2,0.3-0.2h0.1
						c0.2,0,0.4,0.2,0.5,0.4C79.8,49.8,79.6,50.1,79.2,50.1C79.3,50.1,79.3,50.1,79.2,50.1z"/>
					<path class="st4" d="M108.3,42.3c-0.2,0-0.4-0.2-0.5-0.4c0-0.1,0-0.3,0.1-0.4c0.1-0.1,0.2-0.2,0.3-0.2h0.1
						c0.2,0,0.4,0.2,0.5,0.4c0,0.1,0,0.3-0.1,0.4C108.6,42.2,108.5,42.3,108.3,42.3C108.4,42.3,108.4,42.3,108.3,42.3z"/>
					<path class="st4" d="M89.9,60.6L89.9,60.6c-0.4-0.1-0.5-0.4-0.5-0.6c0.1-0.2,0.3-0.4,0.5-0.4H90c0.1,0,0.2,0.1,0.3,0.2
						c0.1,0.1,0.1,0.3,0.1,0.4C90.3,60.5,90.1,60.6,89.9,60.6z"/>
					<path class="st4" d="M97.7,31.8L97.7,31.8c-0.2,0-0.3-0.1-0.4-0.2c-0.1-0.1-0.1-0.3-0.1-0.4c0.1-0.2,0.3-0.4,0.5-0.4h0.1
						c0.1,0,0.2,0.1,0.3,0.2c0.1,0.1,0.1,0.3,0.1,0.4C98.1,31.6,97.9,31.8,97.7,31.8z"/>
					<path class="st4" d="M86.2,33.3c-0.2,0-0.4-0.1-0.5-0.3c-0.1-0.1-0.1-0.3-0.1-0.4c0-0.1,0.1-0.2,0.2-0.3c0.1,0,0.2-0.1,0.3-0.1
						c0.2,0,0.4,0.1,0.5,0.3c0.1,0.1,0.1,0.3,0.1,0.4c0,0.1-0.1,0.2-0.2,0.3C86.4,33.2,86.3,33.3,86.2,33.3z"/>
					<path class="st4" d="M101.3,59.2c-0.2,0-0.4-0.1-0.5-0.3s-0.1-0.6,0.2-0.7c0.1,0,0.2-0.1,0.3-0.1c0.2,0,0.4,0.1,0.5,0.3
						c0.1,0.1,0.1,0.3,0.1,0.4c0,0.1-0.1,0.2-0.2,0.3C101.5,59.1,101.4,59.2,101.3,59.2z"/>
					<path class="st4" d="M80.7,38.7c-0.1,0-0.2,0-0.3-0.1c-0.1-0.1-0.2-0.2-0.2-0.3s0-0.3,0.1-0.4c0.1-0.2,0.3-0.3,0.5-0.3
						c0.1,0,0.2,0,0.3,0.1c0.1,0.1,0.2,0.2,0.2,0.3s0,0.3-0.1,0.4C81.1,38.6,80.9,38.7,80.7,38.7z"/>
					<path class="st4" d="M106.8,53.7c-0.1,0-0.2,0-0.3-0.1c-0.2-0.1-0.3-0.5-0.2-0.7c0.1-0.2,0.3-0.3,0.5-0.3c0.1,0,0.2,0,0.3,0.1
						c0.1,0.1,0.2,0.2,0.2,0.3s0,0.3-0.1,0.4C107.2,53.6,107,53.7,106.8,53.7z"/>
					<path class="st4" d="M80.7,53.7c-0.2,0-0.4-0.1-0.5-0.3s-0.1-0.6,0.2-0.7c0.1,0,0.2-0.1,0.3-0.1c0.2,0,0.4,0.1,0.5,0.3
						c0.1,0.1,0.1,0.3,0.1,0.4c0,0.1-0.1,0.2-0.2,0.3C80.9,53.7,80.8,53.7,80.7,53.7z"/>
					<path class="st4" d="M106.8,38.7c-0.2,0-0.4-0.1-0.5-0.3s-0.1-0.6,0.2-0.7c0.1,0,0.2-0.1,0.3-0.1c0.2,0,0.4,0.1,0.5,0.3
						c0.1,0.1,0.1,0.3,0.1,0.4c0,0.1-0.1,0.2-0.2,0.3C107,38.7,106.9,38.7,106.8,38.7z"/>
					<path class="st4" d="M86.2,59.2c-0.1,0-0.2,0-0.3-0.1c-0.1-0.1-0.2-0.2-0.2-0.3s0-0.3,0.1-0.4c0.1-0.2,0.3-0.3,0.5-0.3
						c0.1,0,0.2,0,0.3,0.1c0.1,0.1,0.2,0.2,0.2,0.3s0,0.3-0.1,0.4C86.6,59.1,86.4,59.2,86.2,59.2z"/>
					<path class="st4" d="M101.3,33.3c-0.1,0-0.2,0-0.3-0.1c-0.1-0.1-0.2-0.2-0.2-0.3s0-0.3,0.1-0.4c0.1-0.2,0.3-0.3,0.5-0.3
						c0.1,0,0.2,0,0.3,0.1c0.1,0.1,0.2,0.2,0.2,0.3s0,0.3-0.1,0.4C101.7,33.2,101.5,33.3,101.3,33.3z"/>
					<rect x="93.2" y="30.2" class="st4" width="1" height="3.7"/>
					<rect x="93.3" y="57.4" class="st4" width="1" height="3.7"/>
					<polygon class="st4" points="82.4,35.1 83.1,34.4 85.7,37 85,37.7 					"/>
					<polygon class="st4" points="101.8,54.4 102.5,53.7 105.2,56.3 104.4,57 					"/>
					<polygon class="st4" points="82.4,56.3 85,53.7 85.7,54.4 83.1,57 					"/>
					<polygon class="st4" points="101.8,37 104.4,34.4 105.2,35.1 102.5,37.7 					"/>
					<rect x="78.2" y="45.1" class="st4" width="3.7" height="1"/>
					<rect x="105.7" y="45.2" class="st4" width="3.7" height="1"/>
					<g>
						<ellipse class="st3" cx="104.2" cy="28.3" rx="2.7" ry="2.6"/>
						<path class="st3" d="M97.1,28h-6.9c-0.8,0-1.5-0.7-1.5-1.5v-1c0-0.8,0.7-1.5,1.5-1.5h6.9c0.8,0,1.5,0.7,1.5,1.5v1
							C98.6,27.3,97.9,28,97.1,28z"/>
					</g>
					<rect x="91.9" y="25.7" class="st5" width="3.7" height="2"/>
					<path class="st6" d="M106.6,33l-0.4,0.4L106.6,33c-0.8-0.7-1.6-1.4-2.5-2h0.1c1.5,0,2.7-1.2,2.7-2.6c0-1.5-1.2-2.6-2.7-2.6
						s-2.7,1.2-2.7,2.6c0,0.5,0.1,0.9,0.4,1.3c-1.6-0.8-3.4-1.4-5.2-1.7h0.4c0.8,0,1.5-0.7,1.5-1.5v-1c0-0.8-0.7-1.5-1.5-1.5h-3.3
						v39.7c10,0,18.1-8.1,18.1-18C111.9,40.7,109.9,36.2,106.6,33z"/>
				</g>
				<g>
					<ellipse class="st4" cx="93.7" cy="45.6" rx="1.1" ry="1.1"/>
					<polygon class="st4" points="93.8,31 93,45.9 94.5,45.9 					"/>
					<polygon class="st4" points="94.4,48.9 93.2,48.9 93.2,45.5 94.4,45.5 					"/>
				</g>
			</g>
		</g>
		<g>
			<path class="st0" d="M84.4,21.6c-5.7,0-10.3-4.6-10.3-10.3v-0.6c0-5.7,4.6-10.3,10.3-10.3H103c5.7,0,10.3,4.6,10.3,10.3v0.6
				c0,5.7-4.6,10.3-10.3,10.3H84.4z"/>
			<g>
				<path class="st1" d="M103,0.8c5.4,0,9.9,4.4,9.9,9.9v0.6c0,5.4-4.4,9.9-9.9,9.9H84.4c-5.4,0-9.9-4.4-9.9-9.9v-0.6
					c0-5.4,4.4-9.9,9.9-9.9L103,0.8 M103,0H84.4c-5.9,0-10.7,4.8-10.7,10.7v0.6c0,5.9,4.8,10.7,10.7,10.7H103
					c5.9,0,10.7-4.8,10.7-10.7v-0.6C113.7,4.8,108.9,0,103,0L103,0z"/>
			</g>
		</g>
		<g>
			<path class="st2" d="M89.2,9.6c0.3,0,0.5-0.1,0.7-0.2c0.2-0.1,0.4-0.2,0.5-0.4s0.2-0.4,0.2-0.7c0-0.4-0.1-0.8-0.4-1
				s-0.6-0.4-1-0.4c-0.5,0-0.9,0.2-1.2,0.5s-0.4,0.8-0.4,1.3h-2c0-0.5,0.1-1,0.3-1.5c0.2-0.4,0.4-0.8,0.7-1.1
				c0.3-0.3,0.7-0.6,1.1-0.7c0.4-0.2,0.9-0.3,1.5-0.3c0.4,0,0.8,0.1,1.2,0.2c0.4,0.1,0.8,0.3,1.1,0.6c0.3,0.2,0.6,0.6,0.8,0.9
				s0.3,0.8,0.3,1.2c0,0.5-0.1,1-0.4,1.3c-0.2,0.4-0.6,0.7-1.1,0.8l0,0c0.6,0.1,1,0.4,1.4,0.8c0.3,0.4,0.5,0.9,0.5,1.5
				s-0.1,1-0.3,1.5c-0.2,0.4-0.5,0.8-0.9,1.1s-0.8,0.5-1.2,0.7c-0.5,0.1-1,0.2-1.5,0.2c-0.6,0-1.1-0.1-1.6-0.3s-0.9-0.4-1.2-0.7
				c-0.3-0.3-0.6-0.7-0.8-1.2c-0.2-0.5-0.3-1-0.3-1.6h2c0,0.3,0.1,0.5,0.1,0.8c0.1,0.3,0.2,0.5,0.3,0.7s0.3,0.3,0.6,0.4
				c0.2,0.1,0.5,0.2,0.8,0.2c0.5,0,0.9-0.1,1.2-0.4c0.3-0.3,0.5-0.7,0.5-1.2c0-0.4-0.1-0.7-0.2-0.9c-0.2-0.2-0.3-0.4-0.6-0.5
				c-0.2-0.1-0.5-0.1-0.8-0.2c-0.3,0-0.6,0-0.8,0V9.6C88.7,9.7,89,9.7,89.2,9.6z"/>
			<path class="st2" d="M94.8,8c0.2-0.7,0.5-1.3,0.8-1.7s0.8-0.7,1.2-0.9s0.9-0.3,1.5-0.3c0.5,0,1,0.1,1.5,0.3
				c0.5,0.2,0.9,0.5,1.2,0.9s0.6,1,0.8,1.7c0.2,0.7,0.3,1.6,0.3,2.6s-0.1,1.9-0.3,2.6s-0.5,1.3-0.8,1.7s-0.8,0.7-1.2,0.9
				c-0.5,0.2-1,0.3-1.5,0.3s-1-0.1-1.5-0.3s-0.9-0.5-1.2-0.9s-0.6-1-0.8-1.7c-0.2-0.7-0.3-1.6-0.3-2.6S94.6,8.7,94.8,8z M96.6,11.7
				c0,0.4,0.1,0.8,0.2,1.2s0.3,0.7,0.5,1s0.6,0.4,1,0.4s0.8-0.1,1-0.4c0.2-0.3,0.4-0.6,0.5-1s0.2-0.8,0.2-1.2s0-0.8,0-1.1
				c0-0.2,0-0.4,0-0.7s0-0.5-0.1-0.8c0-0.3-0.1-0.5-0.1-0.8c-0.1-0.3-0.2-0.5-0.3-0.7S99.2,7.3,99,7.1s-0.4-0.2-0.7-0.2
				S97.8,7,97.6,7.1s-0.4,0.3-0.5,0.5S96.9,8,96.8,8.3c-0.1,0.3-0.1,0.5-0.1,0.8s0,0.5-0.1,0.8c0,0.3,0,0.5,0,0.7
				C96.6,10.9,96.6,11.3,96.6,11.7z"/>
		</g>
	</g>
</g>
<g id="menu">
	<g>
		<g>
			<path class="st7" d="M124.1,74.7c-2.4,0-4.3-1.9-4.3-4.3V58l7-8.8c1.8-2.2,1.8-5.9,0-8.1l-7-8.8V19.9c0-2.4,1.9-4.3,4.3-4.3
				l50.1,0.1c2.4,0,4.3,1.9,4.3,4.3v12.5c0,0.1,0,0.2,0.1,0.3l0.1,0.1l7,8.8c1.5,1.9,1.5,5,0,6.9l-7,8.8c-0.1,0.1-0.2,0.3-0.2,0.4
				v12.6c0,2.4-1.9,4.3-4.3,4.3C174.3,74.8,124.1,74.7,124.1,74.7z"/>
			<path class="st8" d="M124.2,15.1v1l50.1,0.1c1,0,2,0.4,2.7,1.1s1.1,1.7,1.1,2.7v12.5c0,0.2,0.1,0.4,0.2,0.6l0.1,0.1l7,8.8
				c1.4,1.7,1.3,4.6,0,6.3l-7,8.8l-0.1,0.1c-0.1,0.2-0.2,0.4-0.2,0.6v12.6c0,2.1-1.7,3.8-3.8,3.8l-50.1-0.1c-2.1,0-3.8-1.7-3.8-3.8
				V58.1l6.9-8.6c1.9-2.4,1.9-6.3,0-8.7l-6.9-8.7V19.9c0-2.1,1.7-3.8,3.8-3.8L124.2,15.1 M124.2,15.1c-2.6,0-4.8,2.2-4.8,4.8v12.5
				c0,0,0,0.1,0.1,0.1l7,8.8c1.6,2.1,1.6,5.4,0,7.5l-7,8.8c0,0,0,0.1-0.1,0.1v12.6c0,2.6,2.1,4.8,4.8,4.8l50.1,0.1l0,0
				c2.6,0,4.8-2.2,4.8-4.8V57.8c0,0,0,0,0.1-0.1l7-8.8c1.6-2.1,1.6-5.4,0-7.5l-7-8.8c0,0,0-0.1-0.1-0.1V20c0-2.6-2.1-4.8-4.8-4.8
				L124.2,15.1L124.2,15.1L124.2,15.1z"/>
		</g>
		<g>
			<g>
				<circle class="st9" cx="153.9" cy="45.2" r="18.2"/>
				<path class="st10" d="M153.9,27.3c9.8,0,17.9,8,17.9,17.9s-8,17.9-17.9,17.9c-9.8,0-17.9-8-17.9-17.9S144,27.3,153.9,27.3
					 M153.9,26.7c-10.2,0-18.5,8.3-18.5,18.5s8.3,18.5,18.5,18.5s18.5-8.3,18.5-18.5S164.1,26.7,153.9,26.7L153.9,26.7z"/>
			</g>
			<g>
				<path class="st8" d="M153.9,61c-8.7,0-15.8-7.1-15.8-15.8s7.1-15.8,15.8-15.8s15.8,7.1,15.8,15.8C169.6,53.9,162.6,61,153.9,61z
					"/>
				<path class="st11" d="M153.9,29.5c8.6,0,15.6,7,15.6,15.6s-7,15.6-15.6,15.6s-15.6-7-15.6-15.6S145.2,29.5,153.9,29.5
					 M153.9,29.3c-8.8,0-15.9,7.1-15.9,15.9s7.1,15.9,15.9,15.9s15.9-7.1,15.9-15.9C169.7,36.4,162.6,29.3,153.9,29.3L153.9,29.3z"
					/>
			</g>
		</g>
	</g>
	<g>
		<g>
			<path class="st7" d="M4.8,74.7c-1.1,0-2.2-0.5-3-1.3s-1.3-1.9-1.3-3.1V57.9l7-8.8c1.8-2.2,1.8-5.9,0-8.1l-7-8.8V19.8
				c0-2.4,1.9-4.3,4.3-4.3L55,15.7c2.4,0,4.3,1.9,4.3,4.3v12.5c0,0.1,0,0.2,0.1,0.3l0.1,0.1l7,8.8c1.5,1.9,1.5,5,0,6.9l-7,8.8
				c-0.1,0.1-0.2,0.3-0.2,0.4v12.6c0,2.4-1.9,4.3-4.3,4.3C54.9,74.8,4.8,74.7,4.8,74.7z"/>
			<path class="st8" d="M4.9,15.1v1L55,16.2c1,0,2,0.4,2.7,1.1s1.1,1.7,1.1,2.7v12.5c0,0.2,0.1,0.4,0.2,0.6l0.1,0.1l7,8.8
				c1.4,1.7,1.3,4.6,0,6.3l-7,8.8L59,57.2c-0.1,0.2-0.2,0.4-0.2,0.6v12.6c0,2.1-1.7,3.8-3.8,3.8H4.8c-2.1,0-3.8-1.7-3.8-3.8V58.2
				l6.9-8.6c1.9-2.4,1.9-6.3,0-8.7L1,32.1V19.9c0-2.1,1.7-3.8,3.8-3.8L4.9,15.1 M4.9,15.1c-2.6,0-4.8,2.2-4.8,4.8v12.5
				c0,0,0,0.1,0.1,0.1l7,8.8c1.6,2.1,1.6,5.4,0,7.5l-7,8.8c0,0,0,0.1-0.1,0.1v12.6c0,2.6,2.1,4.8,4.8,4.8L55,75.2l0,0
				c2.6,0,4.8-2.2,4.8-4.8V57.8c0,0,0,0,0.1-0.1l7-8.8c1.6-2.1,1.6-5.4,0-7.5l-7-8.8c0,0,0-0.1-0.1-0.1V20c0-2.6-2.1-4.8-4.8-4.8
				L4.9,15.1L4.9,15.1L4.9,15.1z"/>
		</g>
		<g>
			<g>
				<circle class="st9" cx="34.5" cy="45.2" r="18.2"/>
				<path class="st10" d="M34.5,27.3c9.8,0,17.9,8,17.9,17.9s-8,17.9-17.9,17.9s-17.9-8-17.9-17.9S24.7,27.3,34.5,27.3 M34.5,26.7
					C24.3,26.7,16,35,16,45.2s8.3,18.5,18.5,18.5S53,55.4,53,45.2S44.7,26.7,34.5,26.7L34.5,26.7z"/>
			</g>
			<circle class="st12" cx="34.5" cy="45.2" r="15.9"/>
		</g>
	</g>
	<g>
		<g>
			<path class="st7" d="M183.8,74.7c-1.1,0-2.2-0.5-3-1.3s-1.3-1.9-1.3-3.1V57.9l7-8.8c1.8-2.2,1.8-5.9,0-8.1l-7-8.8V19.8
				c0-2.4,1.9-4.3,4.3-4.3l50.1,0.1c2.4,0,4.3,1.9,4.3,4.3v12.5c0,0.1,0,0.2,0.1,0.3l0.1,0.1l7,8.8c1.5,1.9,1.5,5,0,6.9l-7,8.8
				c-0.1,0.1-0.2,0.3-0.2,0.4v12.6c0,2.4-1.9,4.3-4.3,4.3L183.8,74.7z"/>
			<path class="st8" d="M183.9,15.1v1l50.1,0.1c2.1,0,3.8,1.7,3.8,3.8v12.5c0,0.2,0.1,0.4,0.2,0.6l0.1,0.1l7,8.8
				c1.4,1.7,1.3,4.6,0,6.3l-7,8.8l-0.1,0.1c-0.1,0.2-0.2,0.4-0.2,0.6v12.6c0,2.1-1.7,3.8-3.8,3.8l-50.1-0.1c-2.1,0-3.8-1.7-3.8-3.8
				V58.1l6.9-8.6c1.9-2.4,1.9-6.3,0-8.7l-6.9-8.7V19.9c0-2.1,1.7-3.8,3.8-3.8V15.1 M183.9,15.1c-2.6,0-4.8,2.2-4.8,4.8v12.5
				c0,0,0,0.1,0.1,0.1l7,8.8c1.6,2.1,1.6,5.4,0,7.5l-7,8.8c0,0,0,0.1-0.1,0.1v12.6c0,2.6,2.1,4.8,4.8,4.8l50.1,0.1l0,0
				c2.6,0,4.8-2.2,4.8-4.8V57.8c0,0,0,0,0.1-0.1l7-8.8c1.6-2.1,1.6-5.4,0-7.5l-7-8.8c0,0,0-0.1-0.1-0.1V20c0-2.6-2.1-4.8-4.8-4.8
				L183.9,15.1L183.9,15.1L183.9,15.1z"/>
		</g>
		<g>
			<g>
				<path class="st9" d="M213.6,63.4c-10,0-18.2-8.1-18.2-18.2S203.5,27,213.6,27s18.2,8.1,18.2,18.2S223.6,63.4,213.6,63.4z"/>
				<path class="st10" d="M213.6,27.3c9.8,0,17.9,8,17.9,17.9s-8,17.9-17.9,17.9s-17.9-8-17.9-17.9S203.7,27.3,213.6,27.3
					 M213.6,26.7c-10.2,0-18.5,8.3-18.5,18.5s8.3,18.5,18.5,18.5S232,55.4,232,45.2S223.8,26.7,213.6,26.7L213.6,26.7z"/>
			</g>
			<circle class="st13" cx="213.6" cy="45.2" r="15.9"/>
		</g>
	</g>
</g>
</svg>
