<?xml version="1.0" encoding="utf-8"?>
<!-- Generator: Adobe Illustrator 22.1.0, SVG Export Plug-In . SVG Version: 6.00 Build 0)  -->
<svg version="1.1" id="レイヤー_1" xmlns="http://www.w3.org/2000/svg" xmlns:xlink="http://www.w3.org/1999/xlink" x="0px"
	 y="0px" viewBox="0 0 247.2 86" style="enable-background:new 0 0 247.2 86;" xml:space="preserve">
<style type="text/css">
	.st0{fill:none;}
	.st1{fill:#61C3FF;}
	.st2{fill:#1CA4DE;}
	.st3{fill:#FFEC00;}
	.st4{fill:#666666;}
	.st5{fill:#C2C2C2;}
	.st6{fill:#FFF100;}
	.st7{fill:#F0F0F3;}
	.st8{fill:#D7D1CE;}
	.st9{opacity:6.000000e-02;}
	.st10{fill:#27B0FF;}
	.st11{fill:#FFFFFF;}
	.st12{fill:#EDE349;}
	.st13{fill:#ECBD27;}
	.st14{fill:#589D69;}
	.st15{fill:#FFEC2E;}
	.st16{fill:#00813A;}
	.st17{fill:#006A20;}
	.st18{fill:#848F95;}
	.st19{fill:#526663;}
	.st20{fill:#738082;}
	.st21{opacity:0.12;}
	.st22{fill:#006F3B;}
	.st23{fill:#333333;}
	.st24{font-family:'HelveticaNeue-Bold';}
	.st25{font-size:14.9995px;}
	.st26{fill:#B6FFFF;}
</style>
<rect class="st0" width="247.2" height="86"/>
<g>
	<g>
		<g>
			<path class="st16" d="M64.5,74.8c-2.4,0-4.4-2-4.4-4.4V58l7-8.8c1.7-2.2,1.7-5.8,0-8l-7-8.8V20c0-2.4,2-4.4,4.4-4.4h50.1
				c2.4,0,4.4,2,4.4,4.4v12.7l0.2,0.2l7,8.8c1.5,1.9,1.5,5.1,0,7l-7.1,8.9l-0.1,0.2v12.6c0,2.4-2,4.4-4.4,4.4H64.5z"/>
			<g>
				<path class="st17" d="M114.7,16c2.2,0,4,1.8,4,4v12.5v0.3l0.2,0.2c0,0,0.1,0.1,0.1,0.1l7,8.8c1.4,1.8,1.4,4.7,0,6.5l-7,8.8
					c0,0-0.1,0.1-0.1,0.1l-0.2,0.2v0.3v12.6c0,2.2-1.8,4-4,4H64.5c-2.2,0-4-1.8-4-4V58.2l6.9-8.7c1.9-2.3,1.9-6.1,0-8.5l-6.9-8.7V20
					c0-2.2,1.8-4,4-4H114.7 M114.7,15.2H64.5c-2.6,0-4.8,2.2-4.8,4.8v12.5c0,0,0,0.1,0.1,0.1l7,8.8c1.6,2.1,1.6,5.4,0,7.5l-7,8.8
					c0,0,0,0.1-0.1,0.1v12.5c0,2.6,2.1,4.8,4.8,4.8h50.1c2.6,0,4.8-2.2,4.8-4.8V57.9c0,0,0,0,0.1-0.1l7-8.8c1.6-2.1,1.6-5.4,0-7.5
					l-7-8.8c0,0,0-0.1-0.1-0.1V20C119.5,17.4,117.3,15.2,114.7,15.2L114.7,15.2z"/>
			</g>
		</g>
		<g>
			<g>
				<g>
					<ellipse class="st11" cx="93.8" cy="45.9" rx="17.7" ry="17.6"/>
					<path class="st18" d="M106.6,33l-0.4,0.4L106.6,33c-1.1-1.1-2.4-2.1-3.8-2.9c-2.7-1.5-5.7-2.4-9-2.4c-10,0-18.2,8.1-18.2,18
						c0,3.1,0.8,5.9,2.1,8.5c0.8,1.6,1.9,3,3.2,4.3l0,0c3.3,3.3,7.8,5.3,12.8,5.3c10,0,18.2-8.1,18.2-18
						C111.9,40.7,109.9,36.2,106.6,33z M93.8,62.8c-4.7,0-9-1.9-12.2-5v0c-3.1-3.1-5-7.4-5-12.1c0-9.4,7.7-17.1,17.2-17.1
						c4.7,0,9,1.9,12.2,5l0,0c3.1,3.1,5,7.4,5,12.1C111,55.1,103.3,62.8,93.8,62.8z"/>
				</g>
				<path class="st19" d="M89.9,31.8c-0.2,0-0.4-0.2-0.5-0.4c0-0.1,0-0.3,0.1-0.4c0.1-0.1,0.2-0.2,0.3-0.2c0,0,0.1,0,0.1,0
					c0.2,0,0.4,0.2,0.5,0.4c0,0.1,0,0.3-0.1,0.4c-0.1,0.1-0.2,0.2-0.3,0.2C90,31.8,90,31.8,89.9,31.8z"/>
				<path class="st19" d="M97.7,60.6c-0.2,0-0.4-0.2-0.5-0.4c0-0.1,0-0.3,0.1-0.4c0.1-0.1,0.2-0.2,0.3-0.2c0,0,0.1,0,0.1,0
					c0.2,0,0.4,0.2,0.5,0.4c0.1,0.3-0.1,0.6-0.4,0.6C97.8,60.6,97.8,60.6,97.7,60.6z"/>
				<path class="st19" d="M79.3,42.3c0,0-0.1,0-0.1,0c-0.1,0-0.2-0.1-0.3-0.2c-0.1-0.1-0.1-0.3-0.1-0.4c0.1-0.2,0.3-0.4,0.5-0.4
					c0,0,0.1,0,0.1,0c0.1,0,0.2,0.1,0.3,0.2c0.1,0.1,0.1,0.3,0.1,0.4C79.7,42.2,79.5,42.3,79.3,42.3z"/>
				<path class="st19" d="M108.4,50.1c0,0-0.1,0-0.1,0c-0.3-0.1-0.4-0.4-0.4-0.6c0.1-0.2,0.3-0.4,0.5-0.4c0,0,0.1,0,0.1,0
					c0.1,0,0.2,0.1,0.3,0.2c0.1,0.1,0.1,0.3,0.1,0.4C108.8,49.9,108.6,50.1,108.4,50.1z"/>
				<path class="st19" d="M79.3,50.1c-0.2,0-0.4-0.2-0.5-0.4c0-0.1,0-0.3,0.1-0.4c0.1-0.1,0.2-0.2,0.3-0.2c0,0,0.1,0,0.1,0
					c0.2,0,0.4,0.2,0.5,0.4c0.1,0.3-0.1,0.6-0.4,0.6C79.4,50.1,79.3,50.1,79.3,50.1z"/>
				<path class="st19" d="M108.4,42.3c-0.2,0-0.4-0.2-0.5-0.4c0-0.1,0-0.3,0.1-0.4c0.1-0.1,0.2-0.2,0.3-0.2c0,0,0.1,0,0.1,0
					c0.2,0,0.4,0.2,0.5,0.4c0,0.1,0,0.3-0.1,0.4c-0.1,0.1-0.2,0.2-0.3,0.2C108.4,42.3,108.4,42.3,108.4,42.3z"/>
				<path class="st19" d="M89.9,60.6c0,0-0.1,0-0.1,0c-0.3-0.1-0.4-0.4-0.4-0.6c0.1-0.2,0.3-0.4,0.5-0.4c0,0,0.1,0,0.1,0
					c0.1,0,0.2,0.1,0.3,0.2c0.1,0.1,0.1,0.3,0.1,0.4C90.4,60.5,90.1,60.6,89.9,60.6z"/>
				<path class="st19" d="M97.7,31.8c0,0-0.1,0-0.1,0c-0.1,0-0.2-0.1-0.3-0.2c-0.1-0.1-0.1-0.3-0.1-0.4c0.1-0.2,0.3-0.4,0.5-0.4
					c0,0,0.1,0,0.1,0c0.1,0,0.2,0.1,0.3,0.2c0.1,0.1,0.1,0.3,0.1,0.4C98.1,31.6,97.9,31.8,97.7,31.8z"/>
				<path class="st19" d="M86.3,33.3c-0.2,0-0.4-0.1-0.5-0.3c-0.1-0.1-0.1-0.3-0.1-0.4c0-0.1,0.1-0.2,0.2-0.3c0.1,0,0.2-0.1,0.3-0.1
					c0.2,0,0.4,0.1,0.5,0.3c0.1,0.1,0.1,0.3,0.1,0.4c0,0.1-0.1,0.2-0.2,0.3C86.5,33.2,86.4,33.3,86.3,33.3z"/>
				<path class="st19" d="M101.3,59.2c-0.2,0-0.4-0.1-0.5-0.3c-0.1-0.2-0.1-0.6,0.2-0.7c0.1,0,0.2-0.1,0.3-0.1
					c0.2,0,0.4,0.1,0.5,0.3c0.1,0.1,0.1,0.3,0.1,0.4c0,0.1-0.1,0.2-0.2,0.3C101.5,59.1,101.4,59.2,101.3,59.2z"/>
				<path class="st19" d="M80.8,38.7c-0.1,0-0.2,0-0.3-0.1c-0.1-0.1-0.2-0.2-0.2-0.3c0-0.1,0-0.3,0.1-0.4c0.1-0.2,0.3-0.3,0.5-0.3
					c0.1,0,0.2,0,0.3,0.1c0.1,0.1,0.2,0.2,0.2,0.3c0,0.1,0,0.3-0.1,0.4C81.1,38.6,81,38.7,80.8,38.7z"/>
				<path class="st19" d="M106.8,53.7c-0.1,0-0.2,0-0.3-0.1c-0.2-0.1-0.3-0.5-0.2-0.7c0.1-0.2,0.3-0.3,0.5-0.3c0.1,0,0.2,0,0.3,0.1
					c0.1,0.1,0.2,0.2,0.2,0.3c0,0.1,0,0.3-0.1,0.4C107.2,53.6,107,53.7,106.8,53.7z"/>
				<path class="st19" d="M80.8,53.7c-0.2,0-0.4-0.1-0.5-0.3c-0.1-0.2-0.1-0.6,0.2-0.7c0.1,0,0.2-0.1,0.3-0.1c0.2,0,0.4,0.1,0.5,0.3
					c0.1,0.1,0.1,0.3,0.1,0.4c0,0.1-0.1,0.2-0.2,0.3C81,53.7,80.9,53.7,80.8,53.7z"/>
				<path class="st19" d="M106.8,38.7c-0.2,0-0.4-0.1-0.5-0.3c-0.1-0.2-0.1-0.6,0.2-0.7c0.1,0,0.2-0.1,0.3-0.1
					c0.2,0,0.4,0.1,0.5,0.3c0.1,0.1,0.1,0.3,0.1,0.4c0,0.1-0.1,0.2-0.2,0.3C107,38.7,106.9,38.7,106.8,38.7z"/>
				<path class="st19" d="M86.3,59.2c-0.1,0-0.2,0-0.3-0.1c-0.1-0.1-0.2-0.2-0.2-0.3c0-0.1,0-0.3,0.1-0.4c0.1-0.2,0.3-0.3,0.5-0.3
					c0.1,0,0.2,0,0.3,0.1c0.1,0.1,0.2,0.2,0.2,0.3c0,0.1,0,0.3-0.1,0.4C86.6,59.1,86.5,59.2,86.3,59.2z"/>
				<path class="st19" d="M101.3,33.3c-0.1,0-0.2,0-0.3-0.1c-0.1-0.1-0.2-0.2-0.2-0.3c0-0.1,0-0.3,0.1-0.4c0.1-0.2,0.3-0.3,0.5-0.3
					c0.1,0,0.2,0,0.3,0.1c0.1,0.1,0.2,0.2,0.2,0.3c0,0.1,0,0.3-0.1,0.4C101.7,33.2,101.5,33.3,101.3,33.3z"/>
				
					<rect x="92" y="31.6" transform="matrix(-1.836970e-16 1 -1 -1.836970e-16 125.8801 -61.7383)" class="st19" width="3.7" height="1"/>
				
					<rect x="92" y="58.8" transform="matrix(-1.836970e-16 1 -1 -1.836970e-16 153.131 -34.4875)" class="st19" width="3.7" height="1"/>
				<polygon class="st19" points="82.4,35.1 83.2,34.4 85.8,37 85,37.7 				"/>
				<polygon class="st19" points="101.8,54.4 102.6,53.7 105.2,56.3 104.5,57 				"/>
				<polygon class="st19" points="82.4,56.3 85,53.7 85.8,54.4 83.2,57 				"/>
				<polygon class="st19" points="101.8,37 104.5,34.4 105.2,35.1 102.6,37.7 				"/>
				
					<rect x="79.6" y="43.8" transform="matrix(-1.836970e-16 1 -1 -1.836970e-16 125.7794 -34.3867)" class="st19" width="1" height="3.7"/>
				
					<rect x="107" y="43.8" transform="matrix(-1.836970e-16 1 -1 -1.836970e-16 153.2318 -61.8391)" class="st19" width="1" height="3.7"/>
				<g>
					<ellipse class="st18" cx="104.3" cy="28.3" rx="2.7" ry="2.6"/>
					<path class="st18" d="M97.2,28h-6.9c-0.8,0-1.5-0.7-1.5-1.5v-1c0-0.8,0.7-1.5,1.5-1.5h6.9c0.8,0,1.5,0.7,1.5,1.5v1
						C98.6,27.3,98,28,97.2,28z"/>
				</g>
				<rect x="91.9" y="25.7" class="st20" width="3.7" height="2"/>
				<path class="st21" d="M106.6,33l-0.4,0.4L106.6,33c-0.8-0.7-1.6-1.4-2.5-2c0,0,0.1,0,0.1,0c1.5,0,2.7-1.2,2.7-2.6
					c0-1.5-1.2-2.6-2.7-2.6c-1.5,0-2.7,1.2-2.7,2.6c0,0.5,0.1,0.9,0.4,1.3c-1.6-0.8-3.4-1.4-5.2-1.7h0.4c0.8,0,1.5-0.7,1.5-1.5v-1
					c0-0.8-0.7-1.5-1.5-1.5h-3.3v39.7c10,0,18.1-8.1,18.1-18C111.9,40.7,109.9,36.2,106.6,33z"/>
			</g>
			<g>
				
					<ellipse transform="matrix(0.8606 -0.5093 0.5093 0.8606 -10.1446 54.1054)" class="st19" cx="93.8" cy="45.6" rx="1.1" ry="1.1"/>
				<polygon class="st19" points="93.9,31 93,45.9 94.6,45.9 				"/>
				<polygon class="st19" points="94.4,48.9 93.2,48.9 93.2,45.5 94.4,45.5 				"/>
			</g>
		</g>
	</g>
	<g>
		<path class="st11" d="M84.4,21.6c-5.7,0-10.3-4.6-10.3-10.3v-0.6c0-5.7,4.6-10.3,10.3-10.3h18.6c5.7,0,10.3,4.6,10.3,10.3v0.6
			c0,5.7-4.6,10.3-10.3,10.3H84.4z"/>
		<g>
			<path class="st17" d="M103.1,0.8c5.5,0,9.9,4.5,9.9,9.9v0.6c0,5.5-4.5,9.9-9.9,9.9H84.4c-5.5,0-9.9-4.5-9.9-9.9v-0.6
				c0-5.5,4.5-9.9,9.9-9.9H103.1 M103.1,0H84.4c-5.9,0-10.7,4.8-10.7,10.7v0.6c0,5.9,4.8,10.7,10.7,10.7h18.6
				c5.9,0,10.7-4.8,10.7-10.7v-0.6C113.7,4.8,108.9,0,103.1,0L103.1,0z"/>
		</g>
	</g>
	<text transform="matrix(0.9909 0 0 1 89.9072 15.9053)" class="st23 st24 st25">2</text>
</g>
<g>
	<g>
		<g>
			<path class="st16" d="M183.9,74.8c-2.4,0-4.4-2-4.4-4.4V58l7-8.8c1.7-2.2,1.7-5.8,0-8l-7-8.8V20c0-2.4,2-4.4,4.4-4.4h50.1
				c2.4,0,4.4,2,4.4,4.4v12.7l0.1,0.1l0.1,0.1l7,8.8c1.5,1.9,1.5,5.1,0,7l-7.1,8.9l-0.1,0.2v12.6c0,2.4-2,4.4-4.4,4.4H183.9z"/>
			<g>
				<path class="st17" d="M234.1,16c2.2,0,4,1.8,4,4v12.5v0.3l0.2,0.2c0,0,0.1,0.1,0.1,0.1l7,8.8c1.4,1.8,1.4,4.7,0,6.5l-7,8.8
					c0,0-0.1,0.1-0.1,0.1l-0.2,0.2v0.3v12.6c0,2.2-1.8,4-4,4h-50.1c-2.2,0-4-1.8-4-4V58.2l6.9-8.7c1.9-2.3,1.9-6.1,0-8.5l-6.9-8.7
					V20c0-2.2,1.8-4,4-4H234.1 M234.1,15.2h-50.1c-2.6,0-4.8,2.2-4.8,4.8v12.5c0,0,0,0.1,0.1,0.1l7,8.8c1.6,2.1,1.6,5.4,0,7.5
					l-7,8.8c0,0,0,0.1-0.1,0.1v12.5c0,2.6,2.1,4.8,4.8,4.8h50.1c2.6,0,4.8-2.2,4.8-4.8V57.9c0,0,0,0,0.1-0.1l7-8.8
					c1.6-2.1,1.6-5.4,0-7.5l-7-8.8c0,0,0-0.1-0.1-0.1V20C238.9,17.4,236.7,15.2,234.1,15.2L234.1,15.2z"/>
			</g>
		</g>
		<g>
			<g>
				<g>
					<ellipse class="st11" cx="213.2" cy="45.9" rx="17.7" ry="17.6"/>
					<path class="st18" d="M226,33l-0.4,0.4L226,33c-1.1-1.1-2.4-2.1-3.8-2.9c-2.7-1.5-5.7-2.4-9-2.4c-10,0-18.2,8.1-18.2,18
						c0,3.1,0.8,5.9,2.1,8.5c0.8,1.6,1.9,3,3.2,4.3l0,0c3.3,3.3,7.8,5.3,12.8,5.3c10,0,18.2-8.1,18.2-18
						C231.3,40.7,229.3,36.2,226,33z M213.2,62.8c-4.7,0-9-1.9-12.2-5v0c-3.1-3.1-5-7.4-5-12.1c0-9.4,7.7-17.1,17.2-17.1
						c4.7,0,9,1.9,12.2,5l0,0c3.1,3.1,5,7.4,5,12.1C230.4,55.1,222.7,62.8,213.2,62.8z"/>
				</g>
				<path class="st19" d="M209.3,31.8c-0.2,0-0.4-0.2-0.5-0.4c0-0.1,0-0.3,0.1-0.4c0.1-0.1,0.2-0.2,0.3-0.2c0,0,0.1,0,0.1,0
					c0.2,0,0.4,0.2,0.5,0.4c0,0.1,0,0.3-0.1,0.4c-0.1,0.1-0.2,0.2-0.3,0.2C209.4,31.8,209.4,31.8,209.3,31.8z"/>
				<path class="st19" d="M217.1,60.6c-0.2,0-0.4-0.2-0.5-0.4c0-0.1,0-0.3,0.1-0.4c0.1-0.1,0.2-0.2,0.3-0.2c0,0,0.1,0,0.1,0
					c0.2,0,0.4,0.2,0.5,0.4c0.1,0.3-0.1,0.6-0.4,0.6C217.2,60.6,217.1,60.6,217.1,60.6z"/>
				<path class="st19" d="M198.7,42.3c0,0-0.1,0-0.1,0c-0.1,0-0.2-0.1-0.3-0.2c-0.1-0.1-0.1-0.3-0.1-0.4c0.1-0.2,0.3-0.4,0.5-0.4
					c0,0,0.1,0,0.1,0c0.1,0,0.2,0.1,0.3,0.2c0.1,0.1,0.1,0.3,0.1,0.4C199.1,42.2,198.9,42.3,198.7,42.3z"/>
				<path class="st19" d="M227.7,50.1c0,0-0.1,0-0.1,0c-0.3-0.1-0.4-0.4-0.4-0.6c0.1-0.2,0.3-0.4,0.5-0.4c0,0,0.1,0,0.1,0
					c0.1,0,0.2,0.1,0.3,0.2c0.1,0.1,0.1,0.3,0.1,0.4C228.2,49.9,228,50.1,227.7,50.1z"/>
				<path class="st19" d="M198.7,50.1c-0.2,0-0.4-0.2-0.5-0.4c0-0.1,0-0.3,0.1-0.4c0.1-0.1,0.2-0.2,0.3-0.2c0,0,0.1,0,0.1,0
					c0.2,0,0.4,0.2,0.5,0.4c0.1,0.3-0.1,0.6-0.4,0.6C198.8,50.1,198.7,50.1,198.7,50.1z"/>
				<path class="st19" d="M227.7,42.3c-0.2,0-0.4-0.2-0.5-0.4c0-0.1,0-0.3,0.1-0.4c0.1-0.1,0.2-0.2,0.3-0.2c0,0,0.1,0,0.1,0
					c0.2,0,0.4,0.2,0.5,0.4c0,0.1,0,0.3-0.1,0.4c-0.1,0.1-0.2,0.2-0.3,0.2C227.8,42.3,227.8,42.3,227.7,42.3z"/>
				<path class="st19" d="M209.3,60.6c0,0-0.1,0-0.1,0c-0.3-0.1-0.4-0.4-0.4-0.6c0.1-0.2,0.3-0.4,0.5-0.4c0,0,0.1,0,0.1,0
					c0.1,0,0.2,0.1,0.3,0.2c0.1,0.1,0.1,0.3,0.1,0.4C209.7,60.5,209.5,60.6,209.3,60.6z"/>
				<path class="st19" d="M217.1,31.8c0,0-0.1,0-0.1,0c-0.1,0-0.2-0.1-0.3-0.2c-0.1-0.1-0.1-0.3-0.1-0.4c0.1-0.2,0.3-0.4,0.5-0.4
					c0,0,0.1,0,0.1,0c0.1,0,0.2,0.1,0.3,0.2c0.1,0.1,0.1,0.3,0.1,0.4C217.5,31.6,217.3,31.8,217.1,31.8z"/>
				<path class="st19" d="M205.7,33.3c-0.2,0-0.4-0.1-0.5-0.3c-0.1-0.1-0.1-0.3-0.1-0.4c0-0.1,0.1-0.2,0.2-0.3
					c0.1,0,0.2-0.1,0.3-0.1c0.2,0,0.4,0.1,0.5,0.3c0.1,0.1,0.1,0.3,0.1,0.4c0,0.1-0.1,0.2-0.2,0.3C205.9,33.2,205.8,33.3,205.7,33.3
					z"/>
				<path class="st19" d="M220.7,59.2c-0.2,0-0.4-0.1-0.5-0.3c-0.1-0.2-0.1-0.6,0.2-0.7c0.1,0,0.2-0.1,0.3-0.1
					c0.2,0,0.4,0.1,0.5,0.3c0.1,0.1,0.1,0.3,0.1,0.4c0,0.1-0.1,0.2-0.2,0.3C220.9,59.1,220.8,59.2,220.7,59.2z"/>
				<path class="st19" d="M200.2,38.7c-0.1,0-0.2,0-0.3-0.1c-0.1-0.1-0.2-0.2-0.2-0.3c0-0.1,0-0.3,0.1-0.4c0.1-0.2,0.3-0.3,0.5-0.3
					c0.1,0,0.2,0,0.3,0.1c0.1,0.1,0.2,0.2,0.2,0.3c0,0.1,0,0.3-0.1,0.4C200.5,38.6,200.3,38.7,200.2,38.7z"/>
				<path class="st19" d="M226.2,53.7c-0.1,0-0.2,0-0.3-0.1c-0.2-0.1-0.3-0.5-0.2-0.7c0.1-0.2,0.3-0.3,0.5-0.3c0.1,0,0.2,0,0.3,0.1
					c0.1,0.1,0.2,0.2,0.2,0.3c0,0.1,0,0.3-0.1,0.4C226.6,53.6,226.4,53.7,226.2,53.7z"/>
				<path class="st19" d="M200.2,53.7c-0.2,0-0.4-0.1-0.5-0.3c-0.1-0.2-0.1-0.6,0.2-0.7c0.1,0,0.2-0.1,0.3-0.1
					c0.2,0,0.4,0.1,0.5,0.3c0.1,0.1,0.1,0.3,0.1,0.4c0,0.1-0.1,0.2-0.2,0.3C200.3,53.7,200.3,53.7,200.2,53.7z"/>
				<path class="st19" d="M226.2,38.7c-0.2,0-0.4-0.1-0.5-0.3c-0.1-0.2-0.1-0.6,0.2-0.7c0.1,0,0.2-0.1,0.3-0.1
					c0.2,0,0.4,0.1,0.5,0.3c0.1,0.1,0.1,0.3,0.1,0.4c0,0.1-0.1,0.2-0.2,0.3C226.4,38.7,226.3,38.7,226.2,38.7z"/>
				<path class="st19" d="M205.7,59.2c-0.1,0-0.2,0-0.3-0.1c-0.1-0.1-0.2-0.2-0.2-0.3c0-0.1,0-0.3,0.1-0.4c0.1-0.2,0.3-0.3,0.5-0.3
					c0.1,0,0.2,0,0.3,0.1c0.1,0.1,0.2,0.2,0.2,0.3c0,0.1,0,0.3-0.1,0.4C206,59.1,205.9,59.2,205.7,59.2z"/>
				<path class="st19" d="M220.7,33.3c-0.1,0-0.2,0-0.3-0.1c-0.1-0.1-0.2-0.2-0.2-0.3c0-0.1,0-0.3,0.1-0.4c0.1-0.2,0.3-0.3,0.5-0.3
					c0.1,0,0.2,0,0.3,0.1c0.1,0.1,0.2,0.2,0.2,0.3c0,0.1,0,0.3-0.1,0.4C221.1,33.2,220.9,33.3,220.7,33.3z"/>
				
					<rect x="211.4" y="31.6" transform="matrix(-1.836970e-16 1 -1 -1.836970e-16 245.2754 -181.1336)" class="st19" width="3.7" height="1"/>
				
					<rect x="211.4" y="58.8" transform="matrix(-1.836970e-16 1 -1 -1.836970e-16 272.5262 -153.8827)" class="st19" width="3.7" height="1"/>
				<polygon class="st19" points="201.8,35.1 202.6,34.4 205.2,37 204.4,37.7 				"/>
				<polygon class="st19" points="221.2,54.4 222,53.7 224.6,56.3 223.9,57 				"/>
				<polygon class="st19" points="201.8,56.3 204.4,53.7 205.2,54.4 202.6,57 				"/>
				<polygon class="st19" points="221.2,37 223.9,34.4 224.6,35.1 222,37.7 				"/>
				
					<rect x="199" y="43.8" transform="matrix(-1.836970e-16 1 -1 -1.836970e-16 245.1747 -153.782)" class="st19" width="1" height="3.7"/>
				
					<rect x="226.4" y="43.8" transform="matrix(-1.836970e-16 1 -1 -1.836970e-16 272.627 -181.2343)" class="st19" width="1" height="3.7"/>
				<g>
					<ellipse class="st18" cx="223.7" cy="28.3" rx="2.7" ry="2.6"/>
					<path class="st18" d="M216.5,28h-6.9c-0.8,0-1.5-0.7-1.5-1.5v-1c0-0.8,0.7-1.5,1.5-1.5h6.9c0.8,0,1.5,0.7,1.5,1.5v1
						C218,27.3,217.4,28,216.5,28z"/>
				</g>
				<rect x="211.3" y="25.7" class="st20" width="3.7" height="2"/>
				<path class="st21" d="M226,33l-0.4,0.4L226,33c-0.8-0.7-1.6-1.4-2.5-2c0,0,0.1,0,0.1,0c1.5,0,2.7-1.2,2.7-2.6
					c0-1.5-1.2-2.6-2.7-2.6s-2.7,1.2-2.7,2.6c0,0.5,0.1,0.9,0.4,1.3c-1.6-0.8-3.4-1.4-5.2-1.7h0.4c0.8,0,1.5-0.7,1.5-1.5v-1
					c0-0.8-0.7-1.5-1.5-1.5h-3.3v39.7c10,0,18.1-8.1,18.1-18C231.3,40.7,229.3,36.2,226,33z"/>
			</g>
			<g>
				
					<ellipse transform="matrix(0.8606 -0.5093 0.5093 0.8606 6.4969 114.9076)" class="st19" cx="213.2" cy="45.6" rx="1.1" ry="1.1"/>
				<polygon class="st19" points="213.3,31 212.4,45.9 214,45.9 				"/>
				<polygon class="st19" points="213.8,48.9 212.6,48.9 212.6,45.5 213.8,45.5 				"/>
			</g>
		</g>
	</g>
	<g>
		<path class="st11" d="M203.8,21.6c-5.7,0-10.3-4.6-10.3-10.3v-0.6c0-5.7,4.6-10.3,10.3-10.3h18.6c5.7,0,10.3,4.6,10.3,10.3v0.6
			c0,5.7-4.6,10.3-10.3,10.3H203.8z"/>
		<g>
			<path class="st17" d="M222.5,0.8c5.5,0,9.9,4.5,9.9,9.9v0.6c0,5.5-4.5,9.9-9.9,9.9h-18.6c-5.5,0-9.9-4.5-9.9-9.9v-0.6
				c0-5.5,4.5-9.9,9.9-9.9H222.5 M222.5,0h-18.6c-5.9,0-10.7,4.8-10.7,10.7v0.6c0,5.9,4.8,10.7,10.7,10.7h18.6
				c5.9,0,10.7-4.8,10.7-10.7v-0.6C233.1,4.8,228.3,0,222.5,0L222.5,0z"/>
		</g>
	</g>
	<text transform="matrix(0.9909 0 0 1 209.3027 15.9053)" class="st23 st24 st25">2</text>
</g>
<g>
	<g>
		<path class="st1" d="M124.2,74.8c-2.4,0-4.4-2-4.4-4.4V58l7-8.8c1.7-2.2,1.7-5.8,0-8l-7-8.8V20c0-2.4,2-4.4,4.4-4.4h50.1
			c2.4,0,4.4,2,4.4,4.4v12.5c0,0.1,0,0.2,0.1,0.3l0.1,0.1l7,8.8c1.5,1.9,1.5,5.1,0,7l-7,8.8c-0.1,0.1-0.2,0.2-0.2,0.3v12.6
			c0,2.4-2,4.4-4.4,4.4H124.2z"/>
		<path class="st2" d="M174.4,16c2.2,0,4,1.8,4,4v12.5c0,0.2,0.1,0.4,0.2,0.5c0,0,0.1,0.1,0.1,0.1l7,8.8c1.4,1.8,1.4,4.7,0,6.5
			l-7,8.8c0,0-0.1,0.1-0.1,0.1c-0.1,0.1-0.2,0.3-0.2,0.5v12.6c0,2.2-1.8,4-4,4h-50.1c-2.2,0-4-1.8-4-4V58.2l6.9-8.7
			c1.9-2.3,1.9-6.1,0-8.5l-6.9-8.7V20c0-2.2,1.8-4,4-4H174.4 M174.4,15.2h-50.1c-2.6,0-4.8,2.2-4.8,4.8v12.5c0,0,0,0.1,0.1,0.1
			l7,8.8c1.6,2.1,1.6,5.4,0,7.5l-7,8.8c0,0,0,0.1-0.1,0.1v12.5c0,2.6,2.1,4.8,4.8,4.8h50.1c2.6,0,4.8-2.2,4.8-4.8V57.9
			c0,0,0,0,0.1-0.1l7-8.8c1.6-2.1,1.6-5.4,0-7.5l-7-8.8c0,0,0-0.1-0.1-0.1V20C179.1,17.4,177,15.2,174.4,15.2L174.4,15.2z"/>
	</g>
	<g>
		<g>
			<g>
				<polygon class="st4" points="159,64.1 157.8,64.7 156.1,66.2 150.8,66.2 149.1,64.7 147.9,64.1 				"/>
				<path class="st5" d="M151.2,66.2c0,0,0.1,1.3,2.2,1.3c2.1,0,2.2-1.3,2.2-1.3H151.2z"/>
			</g>
			<path class="st26" d="M167.2,37.8c0,3.8-1.5,7.2-4,9.7c-2.5,2.5-4,3.3-4.2,7.3h-1.2c-1.1,0-2.5,0-2.5,0h-3.6c0,0-1.3,0-2.4,0
				h-1.3c-0.2-3.4-1.4-4.5-3.3-6.3c-0.3-0.3-0.6-0.6-1-0.9c-2.5-2.5-4-5.9-4-9.7c0-3.8,1.5-7.2,4-9.7c2.5-2.5,5.9-4,9.8-4
				c3.1,0,5.9,1,8.2,2.7c0.6,0.4,1.1,0.9,1.6,1.3c0.2,0.2,0.3,0.3,0.5,0.5c0.3,0.3,0.6,0.7,0.9,1.1C166.2,32,167.2,34.8,167.2,37.8z
				"/>
			<g>
				<path class="st7" d="M146.3,62.3c0-1.2,1-2.1,2.2-2.1h9.9c1.2,0,2.2,1,2.2,2.1l0,0c0,1.2-1,2.1-2.2,2.1h-9.9
					C147.3,64.4,146.3,63.5,146.3,62.3L146.3,62.3z"/>
				<path class="st8" d="M146.3,62.5c0.1,1.1,1,2,2.2,2h9.9c1.2,0,2.1-0.9,2.2-2H146.3z"/>
			</g>
			<g>
				<path class="st7" d="M146.3,58.1c0-1.2,1-2.1,2.2-2.1h9.9c1.2,0,2.2,1,2.2,2.1l0,0c0,1.2-1,2.1-2.2,2.1h-9.9
					C147.3,60.2,146.3,59.3,146.3,58.1L146.3,58.1z"/>
				<path class="st8" d="M146.3,58.2c0.1,1.1,1,2,2.2,2h9.9c1.2,0,2.1-0.9,2.2-2H146.3z"/>
			</g>
			<g>
				<path class="st7" d="M146.3,53.9c0-1.2,1-2.1,2.2-2.1h9.9c1.2,0,2.2,1,2.2,2.1l0,0c0,1.2-1,2.1-2.2,2.1h-9.9
					C147.3,56,146.3,55,146.3,53.9L146.3,53.9z"/>
				<path class="st8" d="M146.3,54c0.1,1.1,1,2,2.2,2h9.9c1.2,0,2.1-0.9,2.2-2H146.3z"/>
			</g>
		</g>
		<path class="st9" d="M164.6,29.7c-0.3-0.4-0.6-0.7-0.9-1.1c-0.2-0.2-0.3-0.3-0.5-0.5c-0.5-0.5-1-0.9-1.6-1.3
			c-2.3-1.7-5.1-2.7-8.2-2.7v43.4c2.1,0,2.2-1.3,2.2-1.3h0.4l1.7-1.5l0.6-0.3h0.1c0.1,0,0.3,0,0.4,0c0.1,0,0.1,0,0.2-0.1
			c0.1,0,0.1,0,0.2-0.1c0.1,0,0.2-0.1,0.2-0.1c0,0,0.1,0,0.1-0.1c0.1-0.1,0.2-0.1,0.3-0.2c0,0,0,0,0.1,0c0.1-0.1,0.2-0.2,0.3-0.3
			c0,0,0,0,0,0c0.2-0.3,0.4-0.7,0.4-1.1v0c0-0.1,0-0.1,0-0.1c0-1.1-0.8-2-1.9-2.1c0.1,0,0.1,0,0.2,0c0.1,0,0.1,0,0.2-0.1
			c0.1,0,0.1,0,0.2-0.1c0.1,0,0.2-0.1,0.2-0.1c0,0,0.1,0,0.1-0.1c0.1-0.1,0.2-0.1,0.3-0.2c0,0,0,0,0.1,0c0.1-0.1,0.2-0.2,0.3-0.3
			c0,0,0,0,0,0c0.2-0.3,0.4-0.7,0.4-1.1v0c0-0.1,0-0.1,0-0.1c0-1.1-0.8-2-1.9-2.1c0.1,0,0.1,0,0.2,0c0.1,0,0.1,0,0.2,0
			c0.1,0,0.2,0,0.2-0.1c0.1,0,0.2-0.1,0.2-0.1c0,0,0.1,0,0.1-0.1c0.1-0.1,0.2-0.1,0.3-0.2c0,0,0,0,0.1,0c0.1-0.1,0.2-0.2,0.3-0.3
			c0,0,0,0,0,0c0.2-0.3,0.4-0.7,0.4-1.1v0c0-0.1,0-0.1,0-0.1c0-0.8-0.4-1.5-1.1-1.8c0.7-1.8,1.9-2.8,3.7-4.5c2.5-2.5,4-5.9,4-9.7
			C167.2,34.8,166.2,32,164.6,29.7z"/>
	</g>
</g>
<g>
	<g>
		<g>
			<path class="st1" d="M4.8,74.9c-2.4,0-4.4-2-4.4-4.4V58l7-8.8c1.8-2.2,1.8-5.8,0-8l-7-8.8V20c0-2.4,2-4.4,4.4-4.4h50.3
				c2.4,0,4.4,2,4.4,4.4v12.6c0,0.1,0,0.2,0.1,0.2l0.1,0.1l7,8.8c1.5,1.9,1.5,5.1,0,7l-7,8.8c-0.1,0.1-0.2,0.2-0.2,0.3v12.6
				c0,2.4-2,4.4-4.4,4.4H4.8z"/>
			<path class="st2" d="M55.1,15.9c2.2,0,4,1.8,4,4v12.6c0,0.2,0.1,0.4,0.2,0.5c0,0,0.1,0.1,0.1,0.1l7,8.8c1.4,1.8,1.4,4.8,0,6.5
				l-7,8.8c0,0-0.1,0.1-0.1,0.1c-0.1,0.1-0.2,0.3-0.2,0.5v12.6c0,2.2-1.8,4-4,4H4.8c-2.2,0-4-1.8-4-4V58.2l6.9-8.7
				c1.9-2.3,1.9-6.1,0-8.5l-6.9-8.7V20c0-2.2,1.8-4,4-4H55.1 M55.1,15.2H4.8C2.2,15.2,0,17.3,0,20v12.6c0,0,0,0.1,0.1,0.1l7,8.8
				c1.6,2.1,1.6,5.4,0,7.5l-7,8.8c0,0,0,0.1-0.1,0.1v12.6c0,2.6,2.2,4.8,4.8,4.8h50.3c2.6,0,4.8-2.2,4.8-4.8V57.9c0,0,0-0.1,0.1-0.1
				l7-8.8c1.6-2.1,1.6-5.4,0-7.5l-7-8.8c0,0,0-0.1-0.1-0.1V20C59.9,17.3,57.8,15.2,55.1,15.2L55.1,15.2z"/>
		</g>
		<g>
			<g>
				<g>
					<path class="st11" d="M16.7,37.8h-1.8c-0.4,0-0.8-0.3-0.8-0.8c0-0.4,0.3-0.8,0.8-0.8h1.8c0.4,0,0.8,0.3,0.8,0.8
						C17.5,37.5,17.1,37.8,16.7,37.8z"/>
					<path class="st11" d="M53.4,37.8h-1.8c-0.4,0-0.8-0.3-0.8-0.8s0.3-0.8,0.8-0.8h1.8c0.4,0,0.8,0.3,0.8,0.8S53.8,37.8,53.4,37.8z
						"/>
				</g>
				<g>
					<path class="st11" d="M46.7,25.4c-0.2,0-0.4-0.1-0.5-0.2c-0.3-0.3-0.3-0.8,0-1.1l1-1c0.3-0.3,0.8-0.3,1.1,0
						c0.3,0.3,0.3,0.8,0,1.1l-1,1C47.1,25.3,46.9,25.4,46.7,25.4z"/>
					<path class="st11" d="M20.6,51.3c-0.2,0-0.4-0.1-0.5-0.2c-0.3-0.3-0.3-0.8,0-1.1l1-1c0.3-0.3,0.8-0.3,1.1,0
						c0.3,0.3,0.3,0.8,0,1.1l-1,1C20.9,51.2,20.8,51.3,20.6,51.3z"/>
				</g>
				<g>
					<path class="st11" d="M21.6,25.4c-0.2,0-0.4-0.1-0.5-0.2l-1-1c-0.3-0.3-0.3-0.8,0-1.1c0.3-0.3,0.8-0.3,1.1,0l1,1
						c0.3,0.3,0.3,0.8,0,1.1C22,25.3,21.8,25.4,21.6,25.4z"/>
					<path class="st11" d="M47.7,51.3c-0.2,0-0.4-0.1-0.5-0.2l-1-1c-0.3-0.3-0.3-0.8,0-1.1c0.3-0.3,0.8-0.3,1.1,0l1,1
						c0.3,0.3,0.3,0.8,0,1.1C48.1,51.2,47.9,51.3,47.7,51.3z"/>
				</g>
			</g>
			<g>
				<g>
					<g>
						<polygon class="st4" points="39.8,64.1 38.5,64.7 36.8,66.2 31.5,66.2 29.8,64.7 28.5,64.1 						"/>
						<path class="st5" d="M31.9,66.2c0,0,0.1,1.3,2.2,1.3c2.1,0,2.2-1.3,2.2-1.3H31.9z"/>
					</g>
					<path class="st6" d="M48,37.7c0,3.8-1.5,7.2-4.1,9.7c-2.5,2.5-4,3.3-4.2,7.3h-1.2c-1.1,0-2.6,0-2.6,0h-3.6c0,0-1.3,0-2.4,0
						h-1.3c-0.2-3.4-1.4-4.5-3.3-6.4c-0.3-0.3-0.6-0.6-1-0.9c-2.5-2.5-4.1-5.9-4.1-9.7s1.5-7.2,4.1-9.7c2.5-2.5,6-4,9.8-4
						c3.1,0,5.9,1,8.2,2.7c0.6,0.4,1.1,0.9,1.6,1.3c0.2,0.2,0.3,0.3,0.5,0.5c0.3,0.3,0.6,0.7,0.9,1.1C47,31.9,48,34.7,48,37.7z"/>
					<g>
						<path class="st7" d="M27,62.3c0-1.2,1-2.1,2.2-2.1h9.9c1.2,0,2.2,1,2.2,2.1l0,0c0,1.2-1,2.1-2.2,2.1h-9.9
							C28,64.4,27,63.5,27,62.3L27,62.3z"/>
						<path class="st8" d="M27,62.4c0.1,1.1,1,2,2.2,2h9.9c1.2,0,2.1-0.9,2.2-2H27z"/>
					</g>
					<g>
						<path class="st7" d="M27,58.1c0-1.2,1-2.1,2.2-2.1h9.9c1.2,0,2.2,1,2.2,2.1l0,0c0,1.2-1,2.1-2.2,2.1h-9.9
							C28,60.2,27,59.2,27,58.1L27,58.1z"/>
						<path class="st8" d="M27,58.2c0.1,1.1,1,2,2.2,2h9.9c1.2,0,2.1-0.9,2.2-2H27z"/>
					</g>
					<g>
						<path class="st7" d="M27,53.8c0-1.2,1-2.1,2.2-2.1h9.9c1.2,0,2.2,1,2.2,2.1l0,0c0,1.2-1,2.1-2.2,2.1h-9.9C28,56,27,55,27,53.8
							L27,53.8z"/>
						<path class="st8" d="M27,54c0.1,1.1,1,2,2.2,2h9.9c1.2,0,2.1-0.9,2.2-2H27z"/>
					</g>
				</g>
				<path class="st9" d="M45.3,29.6c-0.3-0.4-0.6-0.7-0.9-1.1c-0.2-0.2-0.3-0.3-0.5-0.5c-0.5-0.5-1-0.9-1.6-1.3
					C40.1,25,37.2,24,34.1,24v43.5c2.1,0,2.2-1.3,2.2-1.3h0.4l1.7-1.5l0.6-0.3h0.1c0.1,0,0.3,0,0.4,0c0.1,0,0.1,0,0.2-0.1
					c0.1,0,0.1,0,0.2-0.1c0.1,0,0.2-0.1,0.2-0.1c0,0,0.1,0,0.1-0.1c0.1-0.1,0.2-0.1,0.3-0.2c0,0,0,0,0.1,0c0.1-0.1,0.2-0.2,0.3-0.3
					c0,0,0,0,0,0c0.2-0.3,0.4-0.7,0.4-1.1v0c0-0.1,0-0.1,0-0.2c0-1.1-0.8-2-1.9-2.1c0.1,0,0.1,0,0.2,0c0.1,0,0.1,0,0.2-0.1
					c0.1,0,0.1,0,0.2-0.1c0.1,0,0.2-0.1,0.2-0.1c0,0,0.1,0,0.1-0.1c0.1-0.1,0.2-0.1,0.3-0.2c0,0,0,0,0.1,0c0.1-0.1,0.2-0.2,0.3-0.3
					c0,0,0,0,0,0c0.2-0.3,0.4-0.7,0.4-1.1v0c0-0.1,0-0.1,0-0.2c0-1.1-0.8-2-1.9-2.1c0.1,0,0.1,0,0.2,0c0.1,0,0.1,0,0.2,0
					c0.1,0,0.2,0,0.2-0.1c0.1,0,0.2-0.1,0.2-0.1c0,0,0.1,0,0.1-0.1c0.1-0.1,0.2-0.1,0.3-0.2c0,0,0,0,0.1,0c0.1-0.1,0.2-0.2,0.3-0.3
					c0,0,0,0,0,0c0.2-0.3,0.4-0.7,0.4-1.1v0c0-0.1,0-0.1,0-0.1c0-0.8-0.4-1.5-1.1-1.8c0.7-1.8,1.9-2.8,3.7-4.5
					c2.5-2.5,4.1-5.9,4.1-9.7C48,34.7,47,31.9,45.3,29.6z"/>
			</g>
		</g>
	</g>
	<g>
		<path class="st10" d="M24.4,21.4c-5.7,0-10.4-4.6-10.4-10.4v-0.3c0-5.7,4.6-10.4,10.4-10.4h19.4c5.7,0,10.4,4.6,10.4,10.4v0.3
			c0,5.7-4.6,10.4-10.4,10.4H24.4z"/>
		<g>
			<path class="st2" d="M43.8,0.8c5.5,0,10,4.5,10,10v0.3c0,5.5-4.5,10-10,10H24.4c-5.5,0-10-4.5-10-10v-0.3c0-5.5,4.5-10,10-10
				H43.8 M43.8,0H24.4c-5.9,0-10.8,4.8-10.8,10.8v0.3c0,5.9,4.8,10.8,10.8,10.8h19.4c5.9,0,10.8-4.8,10.8-10.8v-0.3
				C54.6,4.9,49.7,0,43.8,0L43.8,0z"/>
		</g>
	</g>
	<g>
		<path class="st11" d="M33.5,15.6c0.4,0.4,1,0.4,1.4,0L41.2,9c0.4-0.4,0.3-0.7-0.3-0.7H27.4c-0.6,0-0.7,0.3-0.3,0.7L33.5,15.6z"/>
	</g>
</g>
</svg>
