<?xml version="1.0" encoding="utf-8"?>
<!-- Generator: Adobe Illustrator 23.0.1, SVG Export Plug-In . SVG Version: 6.00 Build 0)  -->
<svg version="1.1" id="レイヤー_1" xmlns="http://www.w3.org/2000/svg" xmlns:xlink="http://www.w3.org/1999/xlink" x="0px"
	 y="0px" viewBox="0 0 68 86" style="enable-background:new 0 0 68 86;" xml:space="preserve">
<style type="text/css">
	.st0{fill:none;}
	.st1{fill:#00813A;}
	.st2{fill:#006A20;}
	.st3{fill:#FFFFFF;}
	.st4{fill:#848F95;}
	.st5{fill:#526663;}
	.st6{fill:#738082;}
	.st7{opacity:0.12;enable-background:new    ;}
</style>
<rect class="st0" width="68" height="86"/>
<g>
	<g>
		<g>
			<path class="st1" d="M4.8,74.8c-2.4,0-4.4-2-4.4-4.4V58l7-8.8c1.7-2.2,1.7-5.8,0-8l-7-8.8V20c0-2.4,2-4.4,4.4-4.4h50.1
				c2.4,0,4.4,2,4.4,4.4v12.7l0.1,0.1l0.1,0.1l7,8.8c1.5,1.9,1.5,5.1,0,7l-7.1,8.9l-0.1,0.2v12.6c0,2.4-2,4.4-4.4,4.4H4.8z"/>
			<g>
				<path class="st2" d="M54.9,16c2.2,0,4,1.8,4,4v12.5v0.3l0.2,0.2l0.1,0.1l7,8.8c1.4,1.8,1.4,4.7,0,6.5l-7,8.8l-0.1,0.1l-0.2,0.2
					v0.3v12.6c0,2.2-1.8,4-4,4H4.8c-2.2,0-4-1.8-4-4V58.2l6.9-8.7c1.9-2.3,1.9-6.1,0-8.5l-6.9-8.7V20c0-2.2,1.8-4,4-4H54.9
					 M54.9,15.2H4.8C2.1,15.2,0,17.4,0,20v12.5c0,0,0,0.1,0.1,0.1l7,8.8c1.6,2.1,1.6,5.4,0,7.5l-7,8.8c0,0,0,0.1-0.1,0.1v12.5
					c0,2.6,2.1,4.8,4.8,4.8h50.1c2.6,0,4.8-2.2,4.8-4.8V57.9c0,0,0,0,0.1-0.1l7-8.8c1.6-2.1,1.6-5.4,0-7.5l-7-8.8c0,0,0-0.1-0.1-0.1
					V20C59.7,17.4,57.5,15.2,54.9,15.2L54.9,15.2z"/>
			</g>
		</g>
		<g>
			<g>
				<g>
					<ellipse class="st3" cx="34" cy="45.9" rx="17.7" ry="17.6"/>
					<path class="st4" d="M46.8,33l-0.4,0.4L46.8,33c-1.1-1.1-2.4-2.1-3.8-2.9c-2.7-1.5-5.7-2.4-9-2.4c-10,0-18.2,8.1-18.2,18
						c0,3.1,0.8,5.9,2.1,8.5c0.8,1.6,1.9,3,3.2,4.3l0,0c3.3,3.3,7.8,5.3,12.8,5.3c10,0,18.2-8.1,18.2-18
						C52.2,40.7,50.1,36.2,46.8,33z M34,62.8c-4.7,0-9-1.9-12.2-5l0,0c-3.1-3.1-5-7.4-5-12.1c0-9.4,7.7-17.1,17.2-17.1
						c4.7,0,9,1.9,12.2,5l0,0c3.1,3.1,5,7.4,5,12.1C51.2,55.1,43.5,62.8,34,62.8z"/>
				</g>
				<path class="st5" d="M30.1,31.8c-0.2,0-0.4-0.2-0.5-0.4c0-0.1,0-0.3,0.1-0.4s0.2-0.2,0.3-0.2h0.1c0.2,0,0.4,0.2,0.5,0.4
					c0,0.1,0,0.3-0.1,0.4s-0.2,0.2-0.3,0.2C30.2,31.8,30.2,31.8,30.1,31.8z"/>
				<path class="st5" d="M37.9,60.6c-0.2,0-0.4-0.2-0.5-0.4c0-0.1,0-0.3,0.1-0.4c0.1-0.1,0.2-0.2,0.3-0.2h0.1c0.2,0,0.4,0.2,0.5,0.4
					C38.5,60.3,38.3,60.6,37.9,60.6C38,60.6,38,60.6,37.9,60.6z"/>
				<path class="st5" d="M19.5,42.3h-0.1c-0.1,0-0.2-0.1-0.3-0.2C19,42,19,41.8,19,41.7c0.1-0.2,0.3-0.4,0.5-0.4h0.1
					c0.1,0,0.2,0.1,0.3,0.2C20,41.7,20,41.8,20,42C19.9,42.2,19.7,42.3,19.5,42.3z"/>
				<path class="st5" d="M48.6,50.1L48.6,50.1c-0.4-0.1-0.5-0.4-0.5-0.6c0.1-0.2,0.3-0.4,0.5-0.4h0.1c0.1,0,0.2,0.1,0.3,0.2
					c0.1,0.1,0.1,0.3,0.1,0.4C49,49.9,48.8,50.1,48.6,50.1z"/>
				<path class="st5" d="M19.5,50.1c-0.2,0-0.4-0.2-0.5-0.4c0-0.1,0-0.3,0.1-0.4c0.1-0.1,0.2-0.2,0.3-0.2h0.1c0.2,0,0.4,0.2,0.5,0.4
					c0.1,0.3-0.1,0.6-0.4,0.6C19.6,50.1,19.5,50.1,19.5,50.1z"/>
				<path class="st5" d="M48.6,42.3c-0.2,0-0.4-0.2-0.5-0.4c0-0.1,0-0.3,0.1-0.4c0.1-0.1,0.2-0.2,0.3-0.2h0.1c0.2,0,0.4,0.2,0.5,0.4
					c0,0.1,0,0.3-0.1,0.4C48.9,42.2,48.8,42.3,48.6,42.3C48.7,42.3,48.6,42.3,48.6,42.3z"/>
				<path class="st5" d="M30.1,60.6H30c-0.3-0.1-0.4-0.4-0.4-0.6c0.1-0.2,0.3-0.4,0.5-0.4h0.1c0.1,0,0.2,0.1,0.3,0.2
					c0.1,0.1,0.1,0.3,0.1,0.4C30.6,60.5,30.4,60.6,30.1,60.6z"/>
				<path class="st5" d="M37.9,31.8L37.9,31.8c-0.2,0-0.3-0.1-0.4-0.2s-0.1-0.3-0.1-0.4c0.1-0.2,0.3-0.4,0.5-0.4H38
					c0.1,0,0.2,0.1,0.3,0.2s0.1,0.3,0.1,0.4C38.4,31.6,38.2,31.8,37.9,31.8z"/>
				<path class="st5" d="M26.5,33.3c-0.2,0-0.4-0.1-0.5-0.3c0-0.1,0-0.2,0-0.4c0-0.1,0.1-0.2,0.2-0.3c0.1,0,0.2-0.1,0.3-0.1
					c0.2,0,0.4,0.1,0.5,0.3c0.1,0.1,0.1,0.3,0.1,0.4c0,0.1-0.1,0.2-0.2,0.3C26.7,33.2,26.6,33.3,26.5,33.3z"/>
				<path class="st5" d="M41.6,59.2c-0.2,0-0.4-0.1-0.5-0.3s-0.1-0.6,0.2-0.7c0.1,0,0.2-0.1,0.3-0.1c0.2,0,0.4,0.1,0.5,0.3
					c0.1,0.1,0.1,0.3,0.1,0.4c0,0.1-0.1,0.2-0.2,0.3C41.7,59.1,41.7,59.2,41.6,59.2z"/>
				<path class="st5" d="M21,38.7c-0.1,0-0.2,0-0.3-0.1c-0.1-0.1-0.2-0.2-0.2-0.3s0-0.3,0.1-0.4c0.1-0.2,0.3-0.3,0.5-0.3
					c0.1,0,0.2,0,0.3,0.1c0.1,0.1,0.2,0.2,0.2,0.3s0,0.3-0.1,0.4C21.4,38.6,21.2,38.7,21,38.7z"/>
				<path class="st5" d="M47.1,53.7c-0.1,0-0.2,0-0.3-0.1c-0.2-0.1-0.3-0.5-0.2-0.7s0.3-0.3,0.5-0.3c0.1,0,0.2,0,0.3,0.1
					s0.2,0.2,0.2,0.3s0,0.3-0.1,0.4C47.4,53.6,47.3,53.7,47.1,53.7z"/>
				<path class="st5" d="M21,53.7c-0.2,0-0.4-0.1-0.5-0.3s-0.1-0.6,0.2-0.7c0.1,0,0.2-0.1,0.3-0.1c0.2,0,0.4,0.1,0.5,0.3
					c0.1,0.1,0.1,0.3,0.1,0.4c0,0.1-0.1,0.2-0.2,0.3C21.2,53.7,21.1,53.7,21,53.7z"/>
				<path class="st5" d="M47.1,38.7c-0.2,0-0.4-0.1-0.5-0.3s-0.1-0.6,0.2-0.7c0.1,0,0.2-0.1,0.3-0.1c0.2,0,0.4,0.1,0.5,0.3
					c0.1,0.1,0.1,0.3,0.1,0.4c0,0.1-0.1,0.2-0.2,0.3C47.3,38.7,47.2,38.7,47.1,38.7z"/>
				<path class="st5" d="M26.5,59.2c-0.1,0-0.2,0-0.3-0.1C26.1,59,26,58.9,26,58.8c0-0.1,0-0.3,0.1-0.4c0.1-0.2,0.3-0.3,0.5-0.3
					c0.1,0,0.2,0,0.3,0.1c0.1,0.1,0.2,0.2,0.2,0.3s0,0.3-0.1,0.4C26.9,59.1,26.7,59.2,26.5,59.2z"/>
				<path class="st5" d="M41.6,33.3c-0.1,0-0.2,0-0.3-0.1s-0.2-0.2-0.2-0.3s0-0.3,0.1-0.4c0.1-0.2,0.3-0.3,0.5-0.3
					c0.1,0,0.2,0,0.3,0.1s0.2,0.2,0.2,0.3s0,0.3-0.1,0.4C41.9,33.2,41.8,33.3,41.6,33.3z"/>
				<rect x="33.5" y="30.2" class="st5" width="1" height="3.7"/>
				<rect x="33.6" y="57.5" class="st5" width="1" height="3.7"/>
				<polygon class="st5" points="22.7,35.1 23.4,34.4 26,37 25.3,37.7 				"/>
				<polygon class="st5" points="42.1,54.4 42.8,53.7 45.4,56.3 44.7,57 				"/>
				<polygon class="st5" points="22.7,56.3 25.3,53.7 26,54.4 23.4,57 				"/>
				<polygon class="st5" points="42.1,37 44.7,34.4 45.4,35.1 42.8,37.7 				"/>
				<rect x="18.5" y="45.2" class="st5" width="3.7" height="1"/>
				<rect x="46" y="45.2" class="st5" width="3.7" height="1"/>
				<g>
					<ellipse class="st4" cx="44.5" cy="28.3" rx="2.7" ry="2.6"/>
					<path class="st4" d="M37.4,28h-6.9c-0.8,0-1.5-0.7-1.5-1.5v-1c0-0.8,0.7-1.5,1.5-1.5h6.9c0.8,0,1.5,0.7,1.5,1.5v1
						C38.9,27.3,38.2,28,37.4,28z"/>
				</g>
				<rect x="32.1" y="25.7" class="st6" width="3.7" height="2"/>
				<path class="st7" d="M46.8,33l-0.4,0.4L46.8,33c-0.8-0.7-1.6-1.4-2.5-2h0.1c1.5,0,2.7-1.2,2.7-2.6c0-1.5-1.2-2.6-2.7-2.6
					s-2.7,1.2-2.7,2.6c0,0.5,0.1,0.9,0.4,1.3c-1.6-0.8-3.4-1.4-5.2-1.7h0.4c0.8,0,1.5-0.7,1.5-1.5v-1c0-0.8-0.7-1.5-1.5-1.5H34v39.7
					c10,0,18.1-8.1,18.1-18C52.2,40.7,50.1,36.2,46.8,33z"/>
			</g>
			<g>
				<ellipse class="st5" cx="34" cy="45.6" rx="1.1" ry="1.1"/>
				<polygon class="st5" points="34.1,31 33.3,45.9 34.8,45.9 				"/>
				<polygon class="st5" points="34.6,48.9 33.4,48.9 33.4,45.5 34.6,45.5 				"/>
			</g>
		</g>
	</g>
	<g>
		<path class="st1" d="M24.7,21.6c-5.7,0-10.3-4.6-10.3-10.3v-0.6C14.3,5,19,0.4,24.7,0.4h18.6C49,0.4,53.6,5,53.6,10.7v0.6
			c0,5.7-4.6,10.3-10.3,10.3H24.7z"/>
		<g>
			<path class="st2" d="M43.3,0.8c5.5,0,9.9,4.5,9.9,9.9v0.6c0,5.5-4.5,9.9-9.9,9.9H24.7c-5.5,0-9.9-4.5-9.9-9.9v-0.6
				c0-5.5,4.5-9.9,9.9-9.9L43.3,0.8 M43.3,0H24.7C18.8,0,14,4.8,14,10.7v0.6C14,17.2,18.8,22,24.7,22h18.6C49.2,22,54,17.2,54,11.3
				v-0.6C54,4.8,49.2,0,43.3,0L43.3,0z"/>
		</g>
	</g>
	<g>
		<path class="st3" d="M30.9,7.8c0.2-0.5,0.4-1,0.7-1.4c0.3-0.4,0.7-0.7,1.2-0.9c0.5-0.2,1-0.3,1.7-0.3c0.5,0,0.9,0.1,1.4,0.2
			C36.3,5.5,36.7,5.8,37,6c0.3,0.3,0.6,0.6,0.8,1C37.9,7.5,38,8,38,8.5s-0.1,1-0.3,1.4s-0.4,0.7-0.7,1s-0.6,0.6-0.9,0.8
			c-0.4,0.2-0.7,0.5-1.1,0.7c-0.4,0.2-0.7,0.5-1,0.8s-0.6,0.6-0.9,0.9H38v1.8h-7.6c0-0.6,0.1-1.1,0.3-1.6c0.2-0.5,0.4-0.9,0.7-1.2
			c0.3-0.4,0.6-0.7,1-1s0.8-0.6,1.3-0.9c0.2-0.2,0.5-0.3,0.7-0.5s0.5-0.3,0.7-0.5s0.4-0.4,0.5-0.7s0.2-0.5,0.2-0.9
			c0-0.5-0.1-0.9-0.4-1.2c-0.2-0.2-0.6-0.4-1-0.4c-0.3,0-0.6,0.1-0.8,0.2s-0.4,0.3-0.5,0.6C33,8,32.9,8.3,32.8,8.6s-0.1,0.6-0.1,0.8
			h-2C30.7,8.8,30.7,8.3,30.9,7.8z"/>
	</g>
</g>
</svg>
