<?xml version="1.0" encoding="utf-8"?>
<!-- Generator: Adobe Illustrator 22.1.0, SVG Export Plug-In . SVG Version: 6.00 Build 0)  -->
<svg version="1.1" id="レイヤー_1" xmlns="http://www.w3.org/2000/svg" xmlns:xlink="http://www.w3.org/1999/xlink" x="0px"
	 y="0px" viewBox="0 0 172 86" style="enable-background:new 0 0 172 86;" xml:space="preserve">
<style type="text/css">
	.st0{fill:none;}
	.st1{fill:#EFF2E4;}
	.st2{fill:#B1E6DC;}
	.st3{fill:#61CEB9;}
</style>
<rect class="st0" width="172" height="86"/>
<path class="st1" d="M155.9,75.2H16.1C7.2,75.2,0,68,0,59.2V31.3c0-8.8,7.2-16.1,16.1-16.1h139.8c8.8,0,16.1,7.2,16.1,16.1v27.8
	C172,68,164.8,75.2,155.9,75.2z"/>
<path class="st0" d="M18.4,75.4H24V15.1h-5.7C8.2,15.2,0,23.4,0,33.5V57C0,67.1,8.2,75.3,18.4,75.4z"/>
<path class="st2" d="M16.1,75.3H24v-60h-7.9C7.2,15.3,0,22.6,0,31.4v27.9C0,68.1,7.2,75.3,16.1,75.3z"/>
<polygon class="st3" points="6.5,45.1 16.9,30.1 16.9,60.1 "/>
<path class="st2" d="M155.9,15.3H148v60h7.9c8.9,0,16.1-7.3,16.1-16.1V31.3C172,22.5,164.8,15.3,155.9,15.3z"/>
<polygon class="st3" points="165.5,45.5 155.1,60.5 155.1,30.5 "/>
</svg>
