<?xml version="1.0" encoding="utf-8"?>
<!-- Generator: Adobe Illustrator 23.0.1, SVG Export Plug-In . SVG Version: 6.00 Build 0)  -->
<svg version="1.1" id="レイヤー_1" xmlns="http://www.w3.org/2000/svg" xmlns:xlink="http://www.w3.org/1999/xlink" x="0px"
	 y="0px" viewBox="0 0 44 44" style="enable-background:new 0 0 44 44;" xml:space="preserve">
<style type="text/css">
	.st0{fill:#585858;}
	.st1{fill:#333333;}
	.st2{fill:#EEEEEE;}
	.st3{fill:#959595;}
	.st4{fill:#F24850;}
</style>
<g>
	<g>
		<path class="st0" d="M3.8,37.6c-1.4,0-2.6-1.1-2.6-2.6v-7.4l4.1-5.2c1-1.3,1-3.5,0-4.8l-4.1-5.2V4.9c0-1.4,1.1-2.6,2.6-2.6
			l29.4,0.1c1.4,0,2.6,1.1,2.6,2.6v7.5c0,0.1,0,0.2,0.1,0.2l4.2,5.3c0.9,1.1,0.9,3,0,4.1L36,27.3c-0.1,0.1-0.1,0.2-0.1,0.2v7.5
			c0,1.4-1.1,2.6-2.6,2.6L3.8,37.6z"/>
		<path class="st1" d="M3.9,2v0.6l29.4,0.1c0.6,0,1.1,0.2,1.6,0.7c0.4,0.4,0.6,1,0.6,1.6v7.5c0,0.2,0.1,0.2,0.2,0.3
			c0,0,0,0.1,0.1,0.1l4.1,5.3c0.8,1.1,0.8,2.8,0,3.8l-4.1,5.2l-0.1,0.1c-0.1,0.1-0.2,0.2-0.2,0.3v7.5c0,1.2-1,2.3-2.2,2.3L3.8,37.3
			c-0.6,0-1.1-0.2-1.6-0.7c-0.4-0.4-0.6-1-0.6-1.6v-7.3l4.1-5.1c1.1-1.5,1.1-3.8,0-5.2l-4-5.1V4.9c0-1.3,1-2.4,2.2-2.4V2 M3.9,2
			C2.4,2,1.1,3.3,1.1,4.9v7.5c0,0,0,0,0.1,0.1l4.1,5.3c1,1.2,1,3.3,0,4.5l-4.2,5.3c0,0,0,0-0.1,0.1v7.5C1,36.7,2.3,38,3.8,38
			l29.4-0.1l0,0c1.5,0,2.8-1.3,2.8-2.9v-7.5c0,0,0,0,0.1-0.1l4.2-5.3c1-1.2,1-3.3,0-4.5l-4.1-5.2c0,0,0,0-0.1-0.1V4.9
			c0-1.6-1.3-2.9-2.8-2.9H3.9L3.9,2L3.9,2z"/>
	</g>
	<g>
		<g>
			<path class="st2" d="M21.3,30.8c-5.9,0-10.7-4.9-10.7-10.9S15.4,9.1,21.3,9.1S32,14,32,20S27.2,30.8,21.3,30.8z"/>
			<path class="st3" d="M21.3,9.3c5.8,0,10.5,4.8,10.5,10.7s-4.7,10.7-10.5,10.7S10.8,25.8,10.8,20S15.5,9.3,21.3,9.3 M21.3,8.9
				c-6,0-10.9,5-10.9,11c0,6.1,4.9,11,10.9,11s10.8-4.9,10.8-11S27.3,8.9,21.3,8.9L21.3,8.9z"/>
		</g>
		<ellipse class="st4" cx="21.3" cy="20" rx="9.4" ry="9.5"/>
	</g>
</g>
</svg>
