<?xml version="1.0" encoding="utf-8"?>
<!-- Generator: Adobe Illustrator 22.1.0, SVG Export Plug-In . SVG Version: 6.00 Build 0)  -->
<svg version="1.1" id="レイヤー_1" xmlns="http://www.w3.org/2000/svg" xmlns:xlink="http://www.w3.org/1999/xlink" x="0px"
	 y="0px" viewBox="0 0 68 86" style="enable-background:new 0 0 68 86;" xml:space="preserve">
<style type="text/css">
	.st0{fill:none;}
	.st1{fill:#61C3FF;}
	.st2{fill:#1CA4DE;}
	.st3{fill:#FFFFFF;}
	.st4{fill:#666666;}
	.st5{fill:#C2C2C2;}
	.st6{fill:#FFF100;}
	.st7{fill:#F0F0F3;}
	.st8{fill:#D7D1CE;}
	.st9{opacity:6.000000e-02;enable-background:new    ;}
	.st10{fill:#27B0FF;}
</style>
<rect class="st0" width="68" height="86"/>
<g>
	<g>
		<g>
			<path class="st1" d="M4.8,74.5c-2.4,0-4.4-2-4.4-4.4V57.8l7-8.8c1.7-2.2,1.7-5.8,0-8l-7-8.8V19.9c0-2.4,2-4.4,4.4-4.4h50.1
				c2.4,0,4.4,2,4.4,4.4v12.5c0,0.1,0,0.2,0.1,0.2l0.1,0.1l7,8.8c1.5,1.9,1.5,5.1,0,7l-7,8.8c-0.1,0.1-0.2,0.2-0.2,0.3v12.5
				c0,2.4-2,4.4-4.4,4.4H4.8z"/>
			<path class="st2" d="M54.9,15.9c2.2,0,4,1.8,4,4v12.5c0,0.2,0.1,0.3,0.2,0.5l0.1,0.1l7,8.8c1.4,1.8,1.4,4.7,0,6.5l-7,8.8
				l-0.1,0.1c-0.1,0.1-0.2,0.3-0.2,0.5v12.5c0,2.2-1.8,4-4,4H4.8c-2.2,0-4-1.8-4-4V57.9l6.9-8.7c1.9-2.3,1.9-6.1,0-8.4l-6.9-8.7
				V19.9c0-2.2,1.8-4,4-4H54.9 M54.9,15.1H4.8c-2.6,0-4.8,2.2-4.8,4.8v12.5c0,0,0,0,0.1,0.1l7,8.8c1.6,2.1,1.6,5.4,0,7.5l-7,8.8
				c0,0,0,0.1-0.1,0.1v12.5C0,72.8,2.1,75,4.8,75h50.1c2.6,0,4.8-2.2,4.8-4.8V57.6c0,0,0,0,0.1-0.1l7-8.8c1.6-2.1,1.6-5.4,0-7.5
				l-7-8.8c0,0,0-0.1-0.1-0.1V19.9C59.7,17.2,57.5,15.1,54.9,15.1L54.9,15.1z"/>
		</g>
		<g>
			<g>
				<g>
					<path class="st3" d="M16.6,37.7h-1.8c-0.4,0-0.8-0.3-0.8-0.8c0-0.4,0.3-0.8,0.8-0.8h1.8c0.4,0,0.8,0.3,0.8,0.8
						C17.4,37.3,17.1,37.7,16.6,37.7z"/>
					<path class="st3" d="M53.1,37.7h-1.8c-0.4,0-0.8-0.3-0.8-0.8s0.3-0.8,0.8-0.8h1.8c0.4,0,0.8,0.3,0.8,0.8S53.6,37.7,53.1,37.7z"
						/>
				</g>
				<g>
					<path class="st3" d="M46.5,25.3c-0.2,0-0.4-0.1-0.5-0.2c-0.3-0.3-0.3-0.8,0-1.1l1-1c0.3-0.3,0.8-0.3,1.1,0s0.3,0.8,0,1.1l-1,1
						C46.9,25.2,46.7,25.3,46.5,25.3z"/>
					<path class="st3" d="M20.5,51.1c-0.2,0-0.4-0.1-0.5-0.2c-0.3-0.3-0.3-0.8,0-1.1l1-1c0.3-0.3,0.8-0.3,1.1,0
						c0.3,0.3,0.3,0.8,0,1.1l-1,1C20.9,51,20.7,51.1,20.5,51.1z"/>
				</g>
				<g>
					<path class="st3" d="M21.5,25.3c-0.2,0-0.4-0.1-0.5-0.2l-1-1c-0.3-0.3-0.3-0.8,0-1.1c0.3-0.3,0.8-0.3,1.1,0l1,1
						c0.3,0.3,0.3,0.8,0,1.1C21.9,25.2,21.7,25.3,21.5,25.3z"/>
					<path class="st3" d="M47.5,51.1c-0.2,0-0.4-0.1-0.5-0.2l-1-1c-0.3-0.3-0.3-0.8,0-1.1s0.8-0.3,1.1,0l1,1c0.3,0.3,0.3,0.8,0,1.1
						C47.9,51,47.7,51.1,47.5,51.1z"/>
				</g>
			</g>
			<g>
				<g>
					<g>
						<polygon class="st4" points="39.6,63.8 38.3,64.4 36.7,66 31.3,66 29.7,64.4 28.4,63.8 						"/>
						<path class="st5" d="M31.8,66c0,0,0.1,1.3,2.2,1.3s2.2-1.3,2.2-1.3H31.8z"/>
					</g>
					<path class="st6" d="M47.8,37.6c0,3.8-1.5,7.2-4,9.7s-4,3.3-4.2,7.2h-1.2c-1.1,0-2.5,0-2.5,0h-3.6c0,0-1.3,0-2.4,0h-1.3
						c-0.2-3.4-1.4-4.5-3.3-6.3c-0.3-0.3-0.6-0.6-1-0.9c-2.5-2.5-4-5.9-4-9.7s1.5-7.2,4-9.6c2.5-2.5,5.9-4,9.8-4
						c3.1,0,5.9,1,8.2,2.7c0.6,0.4,1.1,0.9,1.6,1.3c0.2,0.2,0.3,0.3,0.5,0.5c0.3,0.3,0.6,0.7,0.9,1.1C46.8,31.8,47.8,34.6,47.8,37.6
						z"/>
					<g>
						<path class="st7" d="M26.9,62c0-1.2,1-2.1,2.2-2.1H39c1.2,0,2.2,1,2.2,2.1l0,0c0,1.2-1,2.1-2.2,2.1h-9.9
							C27.8,64.2,26.9,63.2,26.9,62L26.9,62z"/>
						<path class="st8" d="M26.9,62.2c0.1,1.1,1,2,2.2,2H39c1.2,0,2.1-0.9,2.2-2C41.2,62.2,26.9,62.2,26.9,62.2z"/>
					</g>
					<g>
						<path class="st7" d="M26.9,57.8c0-1.2,1-2.1,2.2-2.1H39c1.2,0,2.2,1,2.2,2.1l0,0c0,1.2-1,2.1-2.2,2.1h-9.9
							C27.8,60,26.9,59,26.9,57.8L26.9,57.8z"/>
						<path class="st8" d="M26.9,58c0.1,1.1,1,2,2.2,2H39c1.2,0,2.1-0.9,2.2-2H26.9z"/>
					</g>
					<g>
						<path class="st7" d="M26.9,53.6c0-1.2,1-2.1,2.2-2.1H39c1.2,0,2.2,1,2.2,2.1l0,0c0,1.2-1,2.1-2.2,2.1h-9.9
							C27.8,55.7,26.9,54.8,26.9,53.6L26.9,53.6z"/>
						<path class="st8" d="M26.9,53.8c0.1,1.1,1,2,2.2,2H39c1.2,0,2.1-0.9,2.2-2H26.9z"/>
					</g>
				</g>
				<path class="st9" d="M45.1,29.5c-0.3-0.4-0.6-0.7-0.9-1.1c-0.2-0.2-0.3-0.3-0.5-0.5c-0.5-0.5-1-0.9-1.6-1.3
					c-2.2-1.7-5-2.6-8.1-2.6v43.3c2.1,0,2.2-1.3,2.2-1.3h0.4l1.7-1.5l0.6-0.3H39c0.1,0,0.3,0,0.4,0c0.1,0,0.1,0,0.2-0.1
					c0.1,0,0.1,0,0.2-0.1c0.1,0,0.2-0.1,0.2-0.1s0.1,0,0.1-0.1c0.1-0.1,0.2-0.1,0.3-0.2c0,0,0,0,0.1,0c0.1-0.1,0.2-0.2,0.3-0.3l0,0
					c0.2-0.3,0.4-0.7,0.4-1.1l0,0c0-0.1,0-0.1,0-0.1c0-1.1-0.8-2-1.9-2.1c0.1,0,0.1,0,0.2,0c0.1,0,0.1,0,0.2-0.1
					c0.1,0,0.1,0,0.2-0.1c0.1,0,0.2-0.1,0.2-0.1s0.1,0,0.1-0.1c0.1-0.1,0.2-0.1,0.3-0.2c0,0,0,0,0.1,0c0.1-0.1,0.2-0.2,0.3-0.3l0,0
					c0.2-0.3,0.4-0.7,0.4-1.1l0,0c0-0.1,0-0.1,0-0.1c0-1.1-0.8-2-1.9-2.1c0.1,0,0.1,0,0.2,0c0.1,0,0.1,0,0.2,0c0.1,0,0.2,0,0.2-0.1
					c0.1,0,0.2-0.1,0.2-0.1s0.1,0,0.1-0.1c0.1-0.1,0.2-0.1,0.3-0.2c0,0,0,0,0.1,0c0.1-0.1,0.2-0.2,0.3-0.3l0,0
					c0.2-0.3,0.4-0.7,0.4-1.1l0,0c0-0.1,0-0.1,0-0.1c0-0.8-0.4-1.5-1.1-1.8c0.7-1.8,1.9-2.8,3.7-4.5c2.5-2.5,4-5.9,4-9.7
					C47.8,34.6,46.8,31.8,45.1,29.5z"/>
			</g>
		</g>
	</g>
	<g>
		<path class="st10" d="M24.3,21.4C18.6,21.4,14,16.7,14,11v-0.3C14,5,18.6,0.4,24.3,0.4h19.3C49.3,0.4,54,5,54,10.7V11
			c0,5.7-4.6,10.3-10.3,10.3H24.3V21.4z"/>
		<g>
			<path class="st2" d="M43.6,0.8c5.5,0,9.9,4.4,9.9,9.9V11c0,5.5-4.4,9.9-9.9,9.9H24.3c-5.5,0-9.9-4.4-9.9-9.9v-0.3
				c0-5.5,4.4-9.9,9.9-9.9L43.6,0.8 M43.6,0H24.3c-5.9,0-10.7,4.8-10.7,10.7V11c0,5.9,4.8,10.7,10.7,10.7h19.3
				c5.9,0,10.7-4.8,10.7-10.7v-0.3C54.4,4.8,49.5,0,43.6,0L43.6,0z"/>
		</g>
	</g>
	<g>
		<path class="st3" d="M33.3,15.6c0.4,0.4,1,0.4,1.4,0L41.1,9c0.4-0.4,0.2-0.7-0.3-0.7H27.3c-0.6,0-0.7,0.3-0.3,0.7L33.3,15.6z"/>
	</g>
</g>
</svg>
