<?xml version="1.0" encoding="utf-8"?>
<!-- Generator: Adobe Illustrator 21.1.0, SVG Export Plug-In . SVG Version: 6.00 Build 0)  -->
<svg version="1.1" xmlns="http://www.w3.org/2000/svg" xmlns:xlink="http://www.w3.org/1999/xlink" x="0px" y="0px" width="1920px"
	 height="800px" viewBox="0 0 1920 800" style="enable-background:new 0 0 1920 800;" xml:space="preserve">
<style type="text/css">
	.st0{clip-path:url(#SVGID_2_);fill:#D1B187;}
	.st1{clip-path:url(#SVGID_2_);}
	.st2{fill:#CCA882;}
	
		.st3{clip-path:url(#SVGID_2_);fill:none;stroke:#CCA882;stroke-width:4;stroke-linecap:round;stroke-linejoin:round;stroke-miterlimit:10;}
	.st4{clip-path:url(#SVGID_2_);fill:none;stroke:#CCA882;stroke-width:3;stroke-miterlimit:10;}
	.st5{clip-path:url(#SVGID_2_);fill:none;stroke:#CCA882;stroke-width:4;stroke-miterlimit:10;}
	.st6{fill:none;}
</style>
<g id="レイヤー_2">
	<g>
		<defs>
			<polygon id="SVGID_1_" points="935.4,0 0,0 0,800 1920,800 1920,0 			"/>
		</defs>
		<clipPath id="SVGID_2_">
			<use xlink:href="#SVGID_1_"  style="overflow:visible;"/>
		</clipPath>
		<polygon class="st0" points="935.4,0 0,0 0,800 935.4,800 1920,800 1920,0 		"/>
		<g class="st1">
			<g>
				<g>
					<path class="st2" d="M1610.1,524.1c-106.7-19.9-215.2-29.8-323.8-29.3c-55.3,0.3-110.5,3.4-165.5,8.8
						c-54.8,5.5-109.7,12.5-164.9,12.7c-28.5,0.1-57-1.6-85.1-6.2c-26.2-4.2-52.1-10.5-77.9-16.5c-52.3-12.2-104.2-20.9-158.1-20.8
						c-106.3,0.2-214,22-314.7,54.9c-23.9,7.8-47.4,15.1-72.2,19.2c-25.8,4.2-51.9,6-78.1,6.3c-51,0.6-101.9-4.3-152.7-8.5
						c-12.6-1-25.3-2-37.9-2.9c-2.7-0.2-2.7,4,0,4.2c99.1,6.7,201.5,23.2,299.6-1.2c24.9-6.2,49-15.5,73.6-22.7
						c25.7-7.6,51.7-14.3,77.9-20.1c52.7-11.7,106.3-20,160.1-23.4c55.4-3.5,110.5-0.5,164.8,10.9c51.9,10.9,103,25.7,156.1,29.6
						c55,4,110.1-1,164.8-6.6c54.7-5.7,109.2-10.9,164.2-12.6c109.7-3.5,219.7,3.6,328,21.2c13.7,2.2,27.3,4.6,40.9,7.1
						C1611.6,528.6,1612.8,524.6,1610.1,524.1L1610.1,524.1z"/>
				</g>
			</g>
			<g>
				<g>
					<path class="st2" d="M499.2,526.1c70.2,0.4,140.4,0.7,210.7,1.1c-0.6-1.1-1.2-2.1-1.8-3.2c-11.4,16.9-34.3,16.3-52.4,16.7
						c-24.6,0.5-49.2,0.7-73.8,0.6c-49.9-0.2-99.7-1.5-149.6-2.8c-5.7-0.2-11.4,0-17.1-0.5c-3.6-0.3-7.3-1.2-9-4.6
						c-2.7-5.2,1.6-7.9,5.6-9.8c10.5-5,22.7-6,34.1-7.6c24.9-3.5,49.9-6.3,74.9-8.4c49.1-4.2,98.4-5.9,147.7-5
						c12.5,0.2,25,0.6,37.4,1.2c5.9,0.3,11.8,0.6,17.7,0.9c5.7,0.3,12.4-0.1,17.5,2.9c9,5.3,6.7,17.9,2.4,25.5
						c-5.1,9-14.8,14.8-24.3,18.3c-9.2,3.4-19,5.1-28.7,6.6c-12.3,1.9-24.7,3.3-37.2,4.3c-24.6,2-49.3,2.5-74,2.7
						c-48.7,0.4-97.4,0.8-146.1-1.3c-24-1.1-47.9-2.8-71.7-5.7c-12.7-1.5-25.3-3.3-37.9-5.5c-5.8-1-11.5-2.1-17.2-3.2
						c-5.6-1.1-11.8,0.1-17.5,0.6c-46.8,4-92.5,15.2-138.4,24.3c-23.7,4.7-47.5,8.9-71.5,11.2c-24.3,2.3-48.8,2.9-73.3,2.9
						c-12.1,0-24.1-0.1-36.2-0.3c-2.7,0-2.7,4.2,0,4.2c52,0.6,103.6-0.1,155-9C175.2,574.3,225,561,276,555.2
						c6.2-0.7,12.5-1.3,18.7-1.8c7.1-0.5,13.3,0.3,20.3,1.6c12.3,2.3,24.7,4.2,37.1,5.9c26,3.4,52.2,5.5,78.4,6.8
						c52.2,2.5,104.6,2,156.8,1.4c26-0.3,52-1.1,77.8-3.7c21.2-2.1,45.1-3.7,64.2-13.9c13.4-7.2,28.8-25.1,20.1-41.3
						c-4.6-8.5-14.2-9-22.7-9.5c-13.4-0.8-26.9-1.4-40.4-1.8c-52.6-1.6-105.2-0.3-157.6,3.9c-25.8,2.1-51.5,4.8-77.1,8.3
						c-9.8,1.3-58.9,4-49.7,23.7c4.3,9.3,17,7.7,25.4,7.9c13.6,0.4,27.2,0.7,40.9,1.1c26.6,0.7,53.2,1.3,79.8,1.6
						c26.6,0.3,53.2,0.4,79.8,0.2c12.9-0.1,25.7-0.2,38.6-0.7c8.8-0.3,17.9-1.1,26.3-4.1c7.9-2.8,14.4-7.5,19.1-14.4
						c0.9-1.4-0.3-3.2-1.8-3.2c-70.2-0.4-140.4-0.7-210.7-1.1C496.5,521.8,496.5,526,499.2,526.1L499.2,526.1z"/>
				</g>
			</g>
			<g>
				<g>
					<path class="st2" d="M1604.3,559.5c-105.6,26.5-215,37-323.8,30.7c-108.4-6.3-214.7-31.6-323.3-36.1
						c-53.6-2.2-106.1,2.2-158.6,13.3c-27.1,5.7-54,12.2-81.5,16.1c-27.5,3.9-55.2,5.7-83,6.4c-54.1,1.4-108.6,0.7-162.7-1.2
						c-54.8-1.9-109.8-6.5-163.4-18.9c-50.1-11.6-99.4,2.6-146.3,20.5c-49.8,19-101.9,30.4-155.2,32.6c-13.2,0.6-26.4,0.5-39.6,0.1
						c-2.7-0.1-2.7,4.1,0,4.2c51.5,1.9,103.2-4.2,152.8-18.3c51-14.5,99.2-40.3,153.5-39.7c14.2,0.2,27.6,3.4,41.4,6.4
						c13.3,2.9,26.8,5.3,40.3,7.4c25.6,3.9,51.4,6.4,77.2,8.1c54.6,3.5,109.4,3.5,164,3.5c53.8,0,107-2.9,159.8-13.7
						c27.1-5.6,54.1-12.2,81.5-16.6c27.7-4.4,55.7-6.4,83.8-6.6c108.7-0.8,215.3,24.1,323.2,34c107.2,9.8,215.7,3.4,321-18.9
						c13.4-2.8,26.7-5.9,39.9-9.3C1608,562.9,1606.9,558.9,1604.3,559.5L1604.3,559.5z"/>
				</g>
			</g>
			<g>
				<g>
					<path class="st2" d="M906.8,537.2c-36.9,1.4-73.8,1.8-110.8,1.1c-4.2-0.1-8.8,0.3-13-0.4c-1.5-0.3-3.4-0.7-4.4-1.9
						c-3.4-3.9,1.5-8,4.8-8.8c4.3-1.1,9.5-0.4,14-0.3c4.5,0.1,9.1,0.1,13.6,0.2c18.1,0.3,36.3,0.8,54.3,1.9
						c21.1,1.3,42.2,3.5,63,7.2c2.6,0.5,3.8-3.6,1.1-4c-41.7-7.4-84-8.8-126.3-9.3c-7.6-0.1-19.7-2.6-26.1,2.9
						c-4.3,3.7-5.3,10.6-0.4,14.2c5.9,4.4,16.4,2.6,23.2,2.7c10.9,0.2,21.8,0.3,32.6,0.3c24.7,0,49.5-0.5,74.2-1.4
						C909.5,541.3,909.5,537.1,906.8,537.2L906.8,537.2z"/>
				</g>
			</g>
			<g>
				<g>
					<path class="st2" d="M1938.5,493.3c-64.3,2.5-127.9-1.8-191.7-10.1c-31.7-4.1-63.5-8.1-95.5-8.1c-31.9,0.1-63.4,6.1-95.2,7.8
						c-63.9,3.3-127.7-2.1-191.4-6.8c-64.2-4.7-128-7-192.4-4.3c-64.3,2.7-128.6,8-193,8.4c-66.2,0.4-130.4-7.9-195.6-18.8
						c-62.2-10.5-124.2-16.8-187.4-15.5c-63.2,1.3-126.2,8.3-188.8,17.3c-65,9.4-129.5,22.1-194.9,29.1
						c-64.2,6.8-128.8,9.1-193.3,6.6c-16.2-0.6-32.3-1.6-48.4-2.8c-2.7-0.2-2.7,4,0,4.2c64.4,4.9,129.1,5,193.5,0.5
						c63.5-4.5,125.9-14.9,188.7-25c129-20.7,259.8-35.9,389.9-16.7c62.1,9.2,123.3,21.8,186.2,24.5c65,2.7,129.9-1.6,194.8-5.1
						c64.3-3.5,128.3-5.2,192.7-1.4c63.9,3.8,127.6,10.6,191.6,11.1c31.9,0.2,63.7-1.1,95.4-5.2c31.9-4.1,63.3-4.1,95.3-1.1
						c32,3,63.7,8.1,95.6,11.4c31.8,3.3,63.9,4.9,95.9,5.1c16,0.1,32-0.2,48-0.8C1941.2,497.4,1941.2,493.2,1938.5,493.3
						L1938.5,493.3z"/>
				</g>
			</g>
			<g>
				<g>
					<path class="st2" d="M1947,467.8c-64,6.5-128.4,4.9-192.6,2.5c-64.6-2.4-128.9-2.9-193.5-3.1c-128.6-0.4-257.2-6.4-385.6-13.6
						c-256.4-14.3-513.4-33-770.4-19.6c-72.4,3.8-144.4,11.5-216.8,13.5c-72.3,2-144.7,0.8-217-0.8c-2.7-0.1-2.7,4.1,0,4.2
						c64.6,1.5,129.2,2.6,193.8,1.4c64.7-1.2,128.9-6.8,193.5-11.2c128.1-8.7,256.6-8.8,384.8-5c257.2,7.8,513.7,31.6,771,35
						c72.4,1,144.7-0.1,217.1,2.6c71.9,2.7,144,5.7,215.8-1.6C1949.7,471.8,1949.7,467.6,1947,467.8L1947,467.8z"/>
				</g>
			</g>
			<g>
				<g>
					<path class="st2" d="M1941.5,430.2c-64.1-5.2-127.7-15.2-191.9-18.8c-31.8-1.8-63.7-2-95.4,0.9c-30.9,2.8-61,9.9-91.5,15
						c-64.5,10.8-130,17-195.4,15.8c-32.5-0.6-65-3-97.3-7.5c-32-4.5-63.5-11.7-95.1-18.2c-30.7-6.3-61.5-11.3-92.8-13.1
						c-32.5-1.9-65.1-1.1-97.7,0.5c-66,3.1-131.9,6.9-197.9,8.5c-132.6,3.3-265.4,1.5-397.9-5.5c-24.6-1.3-48.7-4.1-72.9-9.1
						c-13.4-2.8-26.2-6.8-40-6.3c-16.9,0.6-33.7,1.1-50.6,1.6c-66.2,2.1-132.5,4-198.7,6.1c-16.2,0.5-32.4,1-48.6,1.6
						c-2.7,0.1-2.7,4.3,0,4.2c66.2-2.2,132.4-4.2,198.6-6.2c33.1-1,66.2-2.1,99.3-3.1c15.1-0.5,29.9,4.4,44.6,7.4
						c10.6,2.1,21.3,3.9,32,5.3c28.8,3.6,58,4,86.9,5.3c33.1,1.4,66.3,2.5,99.4,3.3c65.7,1.5,131.4,1.8,197,0.8
						c66.3-1,132.6-3.3,198.8-6.9c66-3.6,132.5-8,198.2,2.3c62.8,9.8,123.8,26.5,187.4,31.3c64.1,4.8,128.7,1.9,192.4-6.2
						c63.6-8.1,125.6-24.4,190.1-24.6c64.3-0.3,128.1,8.8,191.9,15.6c15.6,1.7,31.2,3.2,46.8,4.5
						C1944.2,434.6,1944.1,430.4,1941.5,430.2L1941.5,430.2z"/>
				</g>
			</g>
			<g>
				<g>
					<path class="st2" d="M1955.3,403c-91.5-11.7-183.2-19.9-275.5-20.9c-18.4-0.2-37.4,1-54.1,9.5c-17.2,8.7-34.6,15.4-53.4,19.7
						c-37.8,8.6-77,9.1-115.6,8.4c-41.5-0.8-83-1.5-124.4-3c-11.5-0.4-23-1-34.5-1.7c-5.7-0.3-11.5-0.5-17.1-1.2
						c-1.5-0.2-6.1-0.6-6.1-2.8c0.5-0.7,0.9-1.5,1.4-2.2c0.3-1.8,1.2-2.6,2.7-2.3c2.5-0.9,7.2,0,9.9-0.1c23.1-0.2,46.2-0.7,69.2-1.5
						c46.8-1.6,93.6-4.4,140.3-8.3c23.3-2,46.7-4.3,70-6.8c22.6-2.5,45.4-4.8,67.8-8.8c22.7-4.1,45.1-9.3,68.1-11.2
						c23.6-1.9,47.3-2.1,71-1.7c45.9,0.7,92,2.4,137.5,9.2c11.1,1.7,22.2,3.7,33.2,6c2.6,0.6,3.8-3.5,1.1-4
						c-45.9-9.8-92.8-13.2-139.6-14.6c-47.5-1.5-95.2-2.4-142.1,6.5c-24.1,4.6-48,8.8-72.4,11.7c-23.6,2.8-47.2,5.3-70.9,7.6
						c-48.6,4.5-97.4,7.8-146.1,9.8c-24.1,1-48.1,1.6-72.2,2c-5.6,0.1-11.2,0.1-16.8,0.2c-4.1,0-10.3-1.1-14,1.4
						c-5.3,3.5-2.3,11,2.5,13.2c4.4,2,10,1.6,14.7,1.9c6.2,0.4,12.5,0.8,18.7,1.1c12.2,0.6,24.4,1.1,36.5,1.5
						c22.2,0.7,44.4,0.8,66.7,1.4c39.9,1.1,79.9,2.9,119.7-0.8c19-1.8,38-4.9,56.4-10.2c8.9-2.6,17.6-5.7,26-9.5
						c9-4,17.4-9.3,27-11.9c20.2-5.6,41.7-3.7,62.4-3.2c23.9,0.5,47.7,1.2,71.6,2.6c48.5,2.8,96.8,7.6,145.1,13.3
						c11.8,1.4,23.6,2.9,35.4,4.4C1958,407.5,1957.9,403.3,1955.3,403L1955.3,403z"/>
				</g>
			</g>
			<g>
				<g>
					<path class="st2" d="M1444.3,358.9c62.9-2.3,126-2.4,188.2-13.1c7.1-1.2,14.3-2.4,21.4-3.5c4.8-0.7,9.5-1.3,14.3-1.8
						c4-0.4,9.4-1.8,13.3-1c2.8,0.6,2.9-1.6,2.9,1.6c0,2.8-3,3.8-5.1,4.8c-2.6,1.3-5.4,1.9-8.1,2.7c-7.2,1.9-14.4,3.9-21.6,5.9
						c-31.7,8.9-65,6.7-97.7,7.3c-130.6,2.2-261.3,4.4-391.9,6.7c-130.1,2.2-260.1,4.4-390.2,6.6c-65.4,1.1-130.7,2.6-196.1,3.2
						c-64.1,0.6-127.5-2.2-191.3-9.3c-31.7-3.5-63.5-7.2-95.4-7.1c-31.2,0.2-62.4,2.3-93.5,4.7c-63.3,4.8-126.7,11.4-190.3,8.4
						c-15.5-0.7-30.9-2.1-46.3-4.1c-2.7-0.3-2.6,3.9,0,4.2c130.7,17,261.3-18.1,392.1-5.4c32.4,3.1,64.7,7.5,97.2,9.8
						c33.4,2.4,66.9,3.2,100.3,3.2c67,0,133.9-1.8,200.9-3c135.3-2.3,270.5-4.6,405.8-6.9c134.7-2.3,269.4-4.6,404-6.9
						c32.1-0.5,64,1.1,95.1-7.8c10.1-2.9,24.7-4,33.1-10.9c3.7-3.1,7.7-9.9,1.1-11.9c-5.8-1.8-15.5,0.7-21.5,1.4
						c-7.4,0.8-14.7,1.9-22,3.1c-16.8,2.7-33.6,6-50.6,7.8c-32.8,3.7-65.9,4-98.9,5.2c-16.4,0.6-32.8,1.2-49.2,1.8
						C1441.6,354.8,1441.6,359,1444.3,358.9L1444.3,358.9z"/>
				</g>
			</g>
			<g>
				<g>
					<path class="st2" d="M1950.2,339.8c-64.5,4.8-128.9-1.7-193.2-6.1c-32.1-2.2-64.3-3.9-96.6-3.2c-32.8,0.7-65.3,4.9-97.9,7.5
						c-133.3,10.7-267.4,8.8-400.4-4.7c-128.9-13.1-259.2-34.2-388.7-14.5c-65.2,9.9-128.8,26-194.7,30.5
						c-61,4.2-122.2,1.5-182.9-5.5c-63.2-7.2-125.7-23.7-189.5-23.2c-62.5,0.5-124.2,12.2-185.5,23.2c-15.8,2.8-31.6,5.7-47.4,8.3
						c-2.7,0.4-1.5,4.5,1.1,4c63.6-10.5,126.8-24.5,191.2-29.5c31.2-2.4,62.7-2.7,93.8,0.9c33.1,3.8,65.9,11.1,98.9,15.7
						c60,8.4,120.6,13.4,181.2,12c61.5-1.4,121.4-11,181.6-22.8c65.9-12.9,131.4-19.2,198.6-17.1c65.7,2.1,131,9.9,196.2,17.2
						c132.3,14.7,264.7,20.7,397.7,13.1c65.5-3.8,130.2-12.8,195.9-10.3c64.5,2.5,128.7,10.7,193.3,10.6c15.8,0,31.5-0.6,47.3-1.8
						C1952.9,343.8,1952.9,339.6,1950.2,339.8L1950.2,339.8z"/>
				</g>
			</g>
			<g>
				<g>
					<path class="st2" d="M614.6,359.7c125.9-12.8,252.6-18.5,379.2-16.9c17.4,0.2,34.8,0.4,52.1,1.1c16,0.6,32,2.4,46.1,10.6
						c0.4-1.3,0.7-2.6,1.1-3.9c-68.9-3.5-137.8,0.7-206.5,5.9c-68.8,5.2-137.6,11.3-206.6,11.9c-68.7,0.6-137.4-3.3-205.9-9.2
						c-34.5-3-68.9-6.5-103.2-10.2c-34.1-3.7-68.3-9-102.6-10.6c-33.9-1.6-68,0.6-101.7,4.1c-16.8,1.7-33.6,3.8-50.3,5.9
						c-15.6,2-31.9,2.8-47.3,6c-5.4,1.1-10.4,3.2-14,7.5c-0.9,1.1-0.8,3.2,0.9,3.5c17.2,3.3,35.7,1.4,53,0.6
						c18.7-0.9,37.3-2.2,55.9-3.6c36.9-2.8,73.8-5.9,110.9-6.7c2.7-0.1,2.7-4.3,0-4.2c-36.4,0.8-72.6,3.8-108.8,6.6
						c-18,1.4-35.9,2.6-53.9,3.5c-8.8,0.4-17.6,0.8-26.5,1c-9.8,0.2-19.8,0.7-29.5-1.2c0.3,1.2,0.6,2.3,0.9,3.5
						c4.6-5.4,11.5-6.5,18.2-7.3c8.7-1.1,17.4-2.1,26.1-3.2c16.8-2.1,33.5-4.2,50.3-6.1c33.4-3.8,67.1-6.6,100.8-6.1
						c33.9,0.5,67.7,5.6,101.4,9.3c34,3.8,68.1,7.3,102.2,10.5c67.4,6.2,135,10.5,202.7,10.8c68.4,0.3,136.5-4.9,204.6-10.2
						c76.1-5.9,152.5-11.5,228.9-7.6c2.1,0.1,2.8-2.9,1.1-3.9c-24.2-14-54.9-11.5-81.9-12c-32.1-0.6-64.3-0.7-96.5-0.4
						c-64.3,0.7-128.6,3.3-192.8,7.7c-36.2,2.5-72.3,5.6-108.4,9.3C611.9,355.8,611.9,360,614.6,359.7L614.6,359.7z"/>
				</g>
			</g>
			<g>
				<g>
					<path class="st2" d="M946.7,537.9c88.6,1.1,177.2,2.1,265.8,3.2c88.6,1.1,177.2,2.1,265.8,3.2c50,0.6,99.9,1.2,149.9,1.8
						c2.7,0,2.7-4.2,0-4.2c-88.6-1.1-177.2-2.1-265.8-3.2c-88.6-1.1-177.2-2.1-265.8-3.2c-50-0.6-99.9-1.2-149.9-1.8
						C944,533.7,944,537.9,946.7,537.9L946.7,537.9z"/>
				</g>
			</g>
			<g>
				<g>
					<path class="st2" d="M1044.8,552c75,11.6,150.7,18.7,226.5,21c76.4,2.3,153.1,0.6,229.5-2.5c40.9-1.6,81.9-5.3,121.3-17
						c2.6-0.8,1.5-4.8-1.1-4c-35.3,10.5-72.1,14.5-108.8,16.3c-36.9,1.8-74,2.4-110.9,3.1c-75.9,1.5-151.8,0.7-227.5-5.7
						c-42.8-3.6-85.5-8.7-127.9-15.3C1043.3,547.5,1042.1,551.6,1044.8,552L1044.8,552z"/>
				</g>
			</g>
			<g>
				<g>
					<path class="st2" d="M1623.6,605.7c13.7-1.5,27.5-2.3,41.3-2.3c0.4,0,4.1-0.2,4.3,0c1,1.9-3,3.6-3.8,4c-2.6,1.1-6.2,1-9,1.3
						c-6.7,0.7-13.5,1.1-20.3,1.5c-27.4,1.4-54.9,2-82.3,2.5c-56.3,1-112.5,0.5-168.8-1.4c-56.7-1.9-113.4-5.4-170-10.3
						c-55.8-4.8-111.4-12-167.1-17.7c-55.7-5.7-111.3-8.3-167.3-5.7c-56.1,2.5-111.9,8.8-167.7,14.9c-56,6.1-112,11.6-168.3,14.4
						c-56.4,2.8-112.9,3.7-169.4,4c-28.1,0.1-56.2-0.1-84.3,0.2c-27.2,0.3-54.4,2.8-81.6,2c-5.8-0.2-11.7-0.3-17.4-1.5
						c-3-0.6-6.2-1.6-8.8-3.1c-5.6-3.3-1.6-7.5,2.7-9.6c11.3-5.5,25.8-6.4,38-8.5c27.3-4.6,56.4-10.2,84.1-6.9
						c13.7,1.6,26,7,38.9,11.7c-0.5-0.7-1-1.4-1.5-2c-0.4,6.3-26.3,4.1-30.8,4.1c-9.4,0.2-18.7,0.3-28.1,0.5
						c-19.2,0.3-38.4,0.6-57.7,1c-2.7,0-2.7,4.2,0,4.2c24.6-0.4,49.3-0.8,73.9-1.2c11.8-0.2,23.8,0.3,35.5-0.6
						c5.3-0.4,10.9-1.9,11.3-7.9c0.1-1-0.7-1.7-1.5-2c-12.8-4.7-25-9.9-38.6-11.7c-14.2-1.8-28.5-0.9-42.7,0.7
						c-13.7,1.5-27.4,3.5-41,5.7c-13,2.1-27.4,3.3-39.6,8.3c-4.9,2-14.7,7.1-10.1,13.8c5.2,7.4,17.6,8.4,25.7,8.9
						c28.8,1.8,57.7-1.2,86.6-1.7c60.2-1,120.5,0,180.8-1.5c60.9-1.5,121.7-4.7,182.3-10.7c60.3-5.9,120.5-13.7,180.9-18.4
						c60.3-4.7,120.5-5.5,180.8-0.6c59.7,4.9,119,13.2,178.6,18.8c60.5,5.7,121.1,9.7,181.8,12c60.7,2.3,121.4,2.9,182.1,1.8
						c29.2-0.5,58.5-1,87.7-2.9c9.5-0.6,23.9,0.3,31.6-6.5c1.6-1.4,3.3-3.5,2.3-5.8c-1.6-3.5-7.8-2.5-10.6-2.5
						c-14.3-0.1-28.5,0.7-42.8,2.3C1621,601.8,1621,606,1623.6,605.7L1623.6,605.7z"/>
				</g>
			</g>
			<g>
				<g>
					<path class="st2" d="M1637.5,637.2c14.4-0.5,28.8-0.5,43.2,0.2c6.2,0.3,14-0.4,19.9,1.2c3.3,0.9,2.9-1.2,4.4,3.1
						c1.6,4.4-0.5,3.4-4.5,3.7c-4.1,0.3-8.3,0.1-12.5-0.3c-28.2-2.6-55.1-5.4-83.5-3.1c-59.9,4.9-119.8,8.8-179.8,11.4
						c-119.5,5.2-239,4.7-358.4-2.4c-59.5-3.6-119.1-8-178.7-10c-59.9-2-119.8-1.2-179.7,0.7c-118.5,3.8-237,11.7-355.7,8.5
						c-29.7-0.8-59.3-2.6-88.9-4.7c-29.1-2.1-58.3-1.3-87.5-0.9c-56.9,0.8-113.9,3-170.3,10.8c-14.5,2-28.8,4.4-43.2,7.2
						c-2.7,0.5-1.5,4.6,1.1,4c60-11.7,121-15.7,182-17.3c29.7-0.8,59.6-1.5,89.3-1.1c30.5,0.5,61,4,91.5,5.2
						c123.2,5.2,246.4-2.9,369.4-7.2c61.6-2.1,123.2-3.3,184.9-1.4c62,1.9,123.8,6.6,185.6,10.3c123.4,7.4,247,7.6,370.5,1.9
						c61-2.8,121.8-8.9,182.8-11.9c14.8-0.7,29.6,0.1,44.3,1.5c13,1.3,27,4.7,40.1,2.6c5.3-0.9,13.5-4.7,8.4-11.2
						c-1.8-2.3-4.6-2.7-7.2-3.2c-7.4-1.3-15.4-1.3-23-1.6c-14.9-0.7-29.9-0.7-44.9-0.2C1634.8,633.1,1634.8,637.3,1637.5,637.2
						L1637.5,637.2z"/>
				</g>
			</g>
			<g>
				<g>
					<path class="st2" d="M1741.2,637.1c-11.9-2.3-22.2-8.3-33.3-12.8c-12.2-4.9-25.1-6.2-38.1-6.2c-27.6-0.1-55.4,5.3-82.8,8.1
						c-58.1,5.8-116.4,9.4-174.8,11.3c-115.7,3.8-231.5,1.2-347.2-3.1C948.5,630,832.1,624,715.6,621c-115.7-3-231.5-2.9-347,5
						c-57.9,3.9-115.4,10.6-173.4,11.7c-58.8,1.1-117.5-0.8-176.3-1.4c-14.4-0.1-28.7-0.2-43.1-0.1c-2.7,0-2.7,4.2,0,4.2
						c58.2-0.3,116.3,1.7,174.5,1.8c58.3,0.2,115.8-3.6,173.8-8.6c115.3-10,231.2-11.5,346.8-9.4c115.4,2.1,230.6,7.8,345.9,12.5
						c115.7,4.7,231.5,8.4,347.3,6.3c57.8-1.1,115.6-3.6,173.2-8.1c28.5-2.2,56.9-4.8,85.3-8.3c27.8-3.4,58.5-8.9,85.2,2.3
						c10.7,4.5,20.7,10.1,32.3,12.3C1742.7,641.7,1743.9,637.7,1741.2,637.1L1741.2,637.1z"/>
				</g>
			</g>
			<g>
				<g>
					<path class="st2" d="M1952.5,687.5c-64,4.8-128.3,8.2-192.1,15.1c-31.9,3.5-63.8,8.2-96,9.4c-32.6,1.2-65.3-2.2-97.8-4.1
						c-131.4-8-262.9-15.9-394.3-23.9c-130.9-7.9-261.4-14.6-392.5-9.1c-125,5.2-250,14.6-375.3,12c-32.1-0.7-64.2-2.1-96.2-4.5
						c-16.1-1.2-32.4-3.8-48.6-3.4c-15.9,0.3-31.9,0.8-47.8,1.2c-63.8,1.9-128.1,2.6-191.8,7.6c-14.9,1.1-29.7,2.8-44.5,5
						c-2.7,0.4-1.5,4.4,1.1,4c64.2-9.6,130.1-8.8,194.8-11.1c31.7-1.1,64.1-3.9,95.8-2.7c32.3,1.2,64.6,5.5,96.9,6.8
						c125.5,5.2,250.9-3.1,376.2-9c64.1-3,128.2-5,192.4-3.9c64.2,1.2,128.2,4.6,192.3,8.4c131.4,7.8,262.7,15.9,394.1,23.9
						c36.8,2.2,73.6,4.7,110.4,6.7c36.1,2,71.8-2.2,107.6-6.4c71.4-8.5,143.4-12.4,215.2-17.8
						C1955.2,691.5,1955.2,687.3,1952.5,687.5L1952.5,687.5z"/>
				</g>
			</g>
			<g>
				<g>
					<path class="st2" d="M1607.7,678.4c-26-0.1-52-0.2-78-0.3c-12.7-0.1-25.3-0.1-38-0.2c-11.7,0-24.7-1.7-35.9,2.5
						c-1.3,0.5-1.9,1.8-1.3,3.1c5.6,10.9,19.2,10.7,29.8,11.3c17.2,1,34.4,1.8,51.6,2.3c35.1,1.1,70,0.1,105.1,0.4
						c34.3,0.2,68.4,3.9,102.7,4.4c3.9,0.1,7.9,0.1,11.8,0c2.7,0,6.1,0.3,8.7-1.1c3.2-1.7,4-5.5,1.2-8c-1.9-1.7-4.5-1.9-6.9-2.2
						c-4.3-0.6-8.6-0.9-12.9-1.1c-8.5-0.4-16.9-0.4-25.4-0.5C1682.4,688.7,1645.5,678.7,1607.7,678.4c-2.7,0-2.7,4.2,0,4.2
						c29.7,0.3,58.8,6.9,88.3,9.6c15.5,1.4,31.1,0.9,46.6,1.5c3.2,0.1,6.5,0.3,9.7,0.6c2.3,0.2,4.9,0.3,7.2,0.8
						c1.5,0.3,4.2,0.3,1.8,2.4c-0.9,0.8-4.8,0.3-5.9,0.3c-2,0-3.9,0-5.9,0c-3.9,0-7.9-0.1-11.8-0.2c-30.6-0.8-61.2-3.7-91.9-4.2
						c-31-0.5-62.1,0.7-93.1,0c-17.2-0.4-34.4-1-51.6-1.8c-8.4-0.4-16.7-0.8-25.1-1.4c-6.9-0.6-14.5-2-17.9-8.7
						c-0.4,1-0.8,2.1-1.3,3.1c11.3-4.3,24.9-2.4,36.8-2.4c12.7,0.1,25.3,0.1,38,0.2c25.3,0.1,50.7,0.2,76,0.3
						C1610.4,682.6,1610.4,678.4,1607.7,678.4z"/>
				</g>
			</g>
			<g>
				<g>
					<path class="st2" d="M1108.3,671.4c41.9,0.9,83.8,1.8,125.7,2.7c41.8,0.9,83.7,2.6,125.5,2.4c41.4-0.2,81.8-8.2,123-11.1
						c41.2-2.9,82.6,0,123.9-0.4c11-0.1,21.9,0,32.9,1.5c10.8,1.5,21.5,3.7,32.1,6.1c21,4.7,42,9.7,63.6,10.3c2.7,0.1,2.7-4.1,0-4.2
						c-38.5-1-74.9-16.7-113.4-17.9c-20.4-0.6-40.9,0-61.3-0.4c-20.6-0.4-41.3-0.8-61.9,0c-41.2,1.6-81.7,10.1-122.8,11.6
						c-41.7,1.5-83.7-0.9-125.4-1.8c-47.2-1-94.4-2-141.6-3.1C1105.6,667.2,1105.6,671.4,1108.3,671.4L1108.3,671.4z"/>
				</g>
			</g>
			<g>
				<g>
					<path class="st2" d="M595.8,661.7c35.6-0.6,71.3-1.3,106.9-1.9c17.8-0.3,35.6-0.6,53.5-0.9c8.6-0.2,17.2-0.3,25.7-0.5
						c4.6-0.1,9.2-0.2,13.9-0.2c4,0,8.2-0.1,11.2,3c0-1,0-2,0-3c-9.7,8-23.7,6.3-35.5,6.4c-13.7,0.1-27.3,0.4-41,1
						c-27.4,1-54.9,2.7-82.3,3.9c-55.2,2.4-110.5,1.3-165.7-0.2c-55.6-1.5-111.2-3.8-166.7-7.1c-54.8-3.2-109.4-4.2-164.3-1.3
						c-61.9,3.2-123.6,9.9-185,18.1c-2.6,0.4-2.7,4.6,0,4.2c110.5-14.7,222-24.6,333.5-17.7c56.2,3.5,112.4,6.1,168.7,7.7
						c55.9,1.6,112,3.2,167.9,1.1c31.4-1.2,62.7-3.2,94-4.3c15.6-0.6,31.2-1,46.8-1c11.4,0,23.3,0,32.6-7.6c0.9-0.7,0.7-2.2,0-3
						c-4.6-4.6-11-4.3-17.1-4.1c-9.6,0.2-19.1,0.3-28.7,0.5c-18.5,0.3-37,0.6-55.5,1c-37.6,0.7-75.3,1.3-112.9,2
						C593.1,657.6,593,661.8,595.8,661.7L595.8,661.7z"/>
				</g>
			</g>
			<g>
				<g>
					<path class="st2" d="M1582.9,743.8c-101.2-26.1-206.2-27.1-310.1-25.9c-52.5,0.6-104.9,1.6-157.4,0.1
						c-54.5-1.6-108.1-7.6-162-15.1c-52.3-7.3-104.3-12.5-157.1-8.1c-53.3,4.5-105.9,15.4-159.1,20.8c-52.1,5.3-104.1,2.4-156.2-0.4
						c-50.5-2.8-101.6-4.9-151.7,4.1c-25.6,4.6-50,13.5-75.6,18.3c-26.3,5-53.1,7.4-79.8,8.5c-25.6,1.1-51.2,1.1-76.9,1.1
						c-26.5,0-53,0.4-79.4-2.2c-14.1-1.4-28.1-3.7-41.9-6.9c-2.6-0.6-3.8,3.4-1.1,4c50.4,11.8,102.7,9.6,154.1,9.2
						c51.1-0.4,102.7-2.6,152.3-15.6c26.1-6.9,51.3-13.8,78.3-16.4c25.3-2.5,50.9-2.7,76.3-2c52.4,1.5,104.7,7,157.2,5.5
						c52.1-1.5,103.5-11.2,155-18.3c27.3-3.8,54.7-6.8,82.2-7.4c27-0.6,54,1.3,80.9,4.4c53,6.1,105.5,15.3,158.8,18.6
						c52.3,3.3,104.8,3.1,157.2,2.5c105.5-1.2,212.2-4.2,316.2,16.4c13,2.6,25.8,5.5,38.6,8.8
						C1584.4,748.5,1585.5,744.4,1582.9,743.8L1582.9,743.8z"/>
				</g>
			</g>
			<g>
				<g>
					<path class="st2" d="M677,694.5c-62,9.6-125,9.5-187.6,9.8c-62.4,0.3-124.9,0-187.3-0.7c-30.7-0.4-61.6,2.1-92.4,2.7
						c-31.2,0.6-62.4,0.3-93.6-0.6c-31.3-0.9-62.5-2.2-93.8-2.3c-6.9,0-13.8-0.2-20.6,0.4c-5.1,0.5-11.4,1.1-15.6,4.3
						c-3.3,2.5-4.3,6.6-2.2,10.3c2.3,4.1,7.1,5.4,11.5,5.9c33.9,4.1,69,0.7,103.1-0.5c35.1-1.3,70.1-2.5,105.2-3.8
						c2.7-0.1,2.7-4.3,0-4.2c-29.8,1.1-59.6,2.2-89.3,3.2c-29.8,1.1-59.6,2.9-89.4,2.6c-6.8-0.1-13.6-0.3-20.3-0.7
						c-3.8-0.3-7.9-0.2-11.6-1.2c-1.2-0.3-2.6-0.7-3.6-1.4c-4.4-3.1-1.4-7,2.4-8.3c6.6-2.3,13.8-2.2,20.6-2.3
						c7.6-0.1,15.1,0,22.7,0.1c29.6,0.3,59.2,1.6,88.8,2.4c29.5,0.8,59.1,0.9,88.6,0.3c29.8-0.6,59.7-3,89.4-2.6
						c59.8,0.7,119.5,1,179.3,0.7c65.6-0.3,131.7,0.2,196.7-9.9C680.8,698.1,679.6,694.1,677,694.5L677,694.5z"/>
				</g>
			</g>
			<g>
				<g>
					<path class="st2" d="M672.7,737.3c93.6-25.8,192.8-29.9,288.2-11.4c26.3,5.1,52.1,12.7,78.7,15.9c2.7,0.3,2.7-3.9,0-4.2
						c-25-3-49.3-10.1-73.9-15c-23-4.6-46.2-7.9-69.6-10c-47.7-4.2-95.9-2.8-143.3,3.8c-27.4,3.8-54.6,9.5-81.3,16.8
						C668.9,734,670,738,672.7,737.3L672.7,737.3z"/>
				</g>
			</g>
			<g>
				<g>
					<path class="st2" d="M1952.8,355.3c-65.8-2-131.6-4.8-197.4-6c-29.8-0.5-59.9,0.2-89.2,6.3c-13.1,2.7-25.6,7.1-38.3,11.3
						c-16.7,5.6-33.1,6.2-50.6,7c-131.1,6.2-262.3,10.8-393.5,13.8c-262.4,6-524.9,5.7-787.3-1c-35.8-0.9-71.6-2.7-107.3-2.5
						c-37,0.2-74.1,0.4-111.1,0.7c-74,0.5-148,1.4-222,2.8c-2.7,0.1-2.7,4.3,0,4.2c130.7-2.6,262-6,392.8-2.3
						c131.2,3.7,262.4,5.9,393.6,6.4c262.5,1.1,525-4.2,787.2-15.8c18.5-0.8,37.1-1.7,55.6-2.6c15.3-0.7,29.1-2,43.8-6.8
						c34.3-11.4,67.7-17.1,104-17.5c73.1-0.9,146.7,3.8,219.8,6.1C1955.5,359.5,1955.5,355.3,1952.8,355.3L1952.8,355.3z"/>
				</g>
			</g>
			<g>
				<g>
					<path class="st2" d="M1661,289.2c-105.5,2.6-211,4.1-316.5,4.9c-109,0.9-217.9,1.1-326.9,1.2c-109.9,0.1-219.8,0.1-329.7,0.6
						c-106.8,0.4-213.5,1.2-320.3,3c-112.8,1.9-225.7,6.8-338.5,7.1c-14.4,0-28.7,0-43.1-0.2c-2.7,0-2.7,4.2,0,4.2
						c114.3,1.2,228.5-4.1,342.7-6.3c106.2-2,212.5-3,318.7-3.5c109.7-0.5,219.5-0.6,329.2-0.7c109.2-0.1,218.4-0.3,327.5-1
						c106.1-0.7,212.2-1.9,318.3-4.3c12.8-0.3,25.7-0.6,38.5-0.9C1663.7,293.4,1663.7,289.2,1661,289.2L1661,289.2z"/>
				</g>
			</g>
			<g>
				<g>
					<path class="st2" d="M776,305.1c-52.4,2.2-104.9,4.4-157.3,6.6c-52.1,2.2-104.3,5.3-156.5,6.3c-51.6,1-103.4-3.7-155-6.5
						c-51.4-2.9-102.6-3.1-154,0.2c-57.6,3.8-114.9,11.2-171.8,20.7c-2.7,0.4-1.5,4.5,1.1,4c101.6-16.9,204.7-27.2,307.8-21.7
						c25.9,1.4,51.8,2.9,77.6,4.3c25.5,1.4,51.1,3.2,76.7,3.3c52,0.2,104.2-3.5,156.1-5.7c58.4-2.5,116.8-4.9,175.3-7.4
						C778.7,309.1,778.7,304.9,776,305.1L776,305.1z"/>
				</g>
			</g>
			<g>
				<g>
					<path class="st2" d="M676.7,319.9c-97.3,19-197.2,15.3-295.6,11.4c-27.3-1.1-54.7-3.1-80.7-12.1c-2.6-0.9-3.7,3.2-1.1,4
						c22.7,7.9,46.6,10.5,70.5,11.7c25,1.3,50,1.9,75.1,2.6c49.9,1.3,99.9,1.6,149.7-2.4c27.9-2.3,55.8-5.9,83.3-11.3
						C680.5,323.5,679.4,319.4,676.7,319.9L676.7,319.9z"/>
				</g>
			</g>
			<g>
				<g>
					<path class="st2" d="M683.7,27.3c-90.8,19.4-184.2,25.9-276.9,19.3c-23.5-1.7-46.9-4.2-70.2-7.6c-11.4-1.7-22.9-3.5-34.2-5.6
						c-10.5-1.9-21-4.6-31.7-5.3c-21.2-1.5-42.4,3.3-62.7,9.1c-21.3,6.1-42.5,12.9-63.7,19.6c-24,7.6-48.3,15-73.2,19.2
						c-26.5,4.5-53.5,5.4-80.4,6.3c-2.7,0.1-2.7,4.3,0,4.2c23.3-0.8,46.6-1.5,69.8-4.6c22.4-3,44.3-8.6,65.9-15.1
						c21.8-6.6,43.5-13.5,65.2-20.2c21.1-6.5,42.7-13.2,64.9-14.3c22.7-1.1,45.3,5.7,67.5,9.1c22.4,3.5,44.9,6.2,67.4,8.2
						c46.3,4,92.9,4.8,139.3,2.3c51.8-2.8,103.3-9.7,154-20.5C687.5,30.8,686.4,26.8,683.7,27.3L683.7,27.3z"/>
				</g>
			</g>
			<g>
				<g>
					<path class="st2" d="M284.4,47.3c36.1,15.7,75.4,20,114.4,21.7c42.7,1.8,85.6,2.6,128.4,3c86.3,0.8,172.1-3.4,257.3-18.2
						C833,45.3,881,34.5,929,23.7c2.6-0.6,1.5-4.6-1.1-4c-84,18.9-168.1,37.4-254.1,44.1c-84.9,6.6-170.2,4.2-255.2,1.8
						c-44.7-1.3-90.5-3.7-132.1-21.8C284.1,42.6,282,46.2,284.4,47.3L284.4,47.3z"/>
				</g>
			</g>
			<g>
				<g>
					<path class="st2" d="M1028.4,18c30.6,0.9,61.2,2,91.6,5c30.3,3,60.2,8.6,89.9,15.5c29.8,6.9,59.5,14.4,89.6,20.1
						c29,5.5,58.1,9.9,87.4,13.2c59.2,6.5,119.4,9.5,178.9,6c15.2-0.9,30.4-2.3,45.5-4.3c14.2-1.9,27.6-0.7,41.5,3.1
						c27,7.4,51.6,21.1,77.5,31.2c30.3,11.8,62.2,14.9,94.4,16.8c35.1,2.1,70.2,2.6,105.3,1.6c2.7-0.1,2.7-4.3,0-4.2
						c-31.1,0.9-62.3,0.6-93.4-0.9c-29.3-1.5-59.4-2.8-87.7-11.3c-27.6-8.2-52.8-22.6-79.7-32.4c-12.4-4.5-25.4-8.2-38.6-9.1
						c-14-1-28.1,2.2-42,3.5c-59.2,5.5-119.3,3.3-178.4-2c-61-5.4-120.8-16.8-180.2-30.9c-32.5-7.8-65.1-15-98.4-18.8
						c-34.3-4-68.8-5.2-103.3-6.2C1025.7,13.7,1025.7,17.9,1028.4,18L1028.4,18z"/>
				</g>
			</g>
			<g>
				<g>
					<path class="st2" d="M1925,34c-41.3-4.1-82.9-4.1-124.2,0.1c-20,2-39.9,5-59.6,9c-21,4.2-41.6,9.8-62.9,12.5
						c-40.2,5.1-80.9,4.1-121.3,3.5c-41.4-0.5-82.9,1.6-124.1-2.6c-47.3-4.9-93.4-17.2-139.2-29.4c-2.6-0.7-3.7,3.4-1.1,4
						c40.7,10.8,81.6,21.7,123.4,27.5c40.9,5.6,81.9,4.2,123.1,4.5c40.8,0.3,81.7,2,122.4-1.5c41.6-3.6,81.7-16.1,123.1-21.5
						c46.6-6,93.7-6.6,140.4-1.9C1927.7,38.5,1927.7,34.3,1925,34L1925,34z"/>
				</g>
			</g>
			<g>
				<g>
					<path class="st2" d="M1408.1,25.6c59.6,16,121.9,25,183.7,24.3c30.9-0.4,61.5-8.8,91.9-13.5c30.8-4.8,62.1-4.1,92.9-8.3
						c16.9-2.3,33.7-5.8,50-10.7c6.4-1.9,12.4-4.5,17.2-9.3c5-5,8.5-11.4,14.7-15.1c2.3-1.4,0.2-5-2.1-3.6
						c-4.8,2.9-8.2,7.1-11.7,11.4c-4.5,5.5-9.3,9.3-16.1,11.6c-14,4.8-29,7.8-43.6,10.3c-30.6,5-61.7,4.2-92.4,8.3
						c-14.7,2-29.3,4.7-43.9,7.3c-15.1,2.7-30.2,6.1-45.5,7.1c-30.5,1.9-61.8-0.7-92.1-4.2c-34.3-4-68.4-10.6-101.7-19.5
						C1406.6,20.9,1405.5,24.9,1408.1,25.6L1408.1,25.6z"/>
				</g>
			</g>
			<g>
				<g>
					<path class="st2" d="M294.4,69.4c107.3,15.5,216,21.3,324.3,16.9c54.2-2.2,108.2-7,162-14.2c55-7.4,109.4-19.5,164.5-26.1
						c108.3-13,215.3,9.3,321.2,29.8c52.2,10.1,104.6,19.4,157.5,24.6c54.7,5.4,109.6,7.4,164.4,8.9c27.3,0.7,54.1,0.9,80.9,6.5
						c24.4,5.2,48.2,13.1,71.8,20.9c24.4,8.1,48.8,16.2,73.9,21.5c25,5.2,50.5,7.7,75.9,8.8c13.4,0.6,26.9,0.8,40.4,0.8
						c2.7,0,2.7-4.2,0-4.2c-54-0.1-106.4-4.9-158.2-20.9c-46.7-14.5-92.9-33.6-142.2-36.5c-54.6-3.2-109.3-2.6-163.9-6.5
						c-55.1-3.8-109.7-11.3-164-21.3c-103.5-19.2-207.5-44.7-313.5-40.3c-53.7,2.2-106.2,13.6-159.1,22.3
						c-54.8,9-110.1,15.4-165.5,19.1c-108.5,7.3-217.7,4.5-325.6-8.4c-14.6-1.7-29.1-3.7-43.7-5.8C292.8,64.9,291.7,69,294.4,69.4
						L294.4,69.4z"/>
				</g>
			</g>
			<g>
				<g>
					<path class="st2" d="M1137.2,32.8c105,29.8,212.8,49.4,321.6,58.1c54.5,4.4,109.1,5.9,163.8,4.9c49.9-0.9,95.2,22.3,141.5,37.6
						c57.2,18.9,117.1,18.5,176.6,17.3c2.7-0.1,2.7-4.3,0-4.2c-53.7,1.1-108.6,2.4-160.7-12.6c-46.1-13.2-89.5-37-137.8-41.6
						c-13.2-1.3-26.5-0.5-39.7-0.4c-13.4,0.1-26.8,0-40.3-0.2c-26.8-0.4-53.7-1.6-80.4-3.3c-54.7-3.6-109.2-9.9-163.3-19
						c-60.7-10.2-120.9-23.8-180.1-40.6C1135.7,28,1134.6,32,1137.2,32.8L1137.2,32.8z"/>
				</g>
			</g>
			<g>
				<g>
					<path class="st2" d="M287.5,109.8c50.7,3.6,101.5,5.4,152.3,4.8c51-0.6,101.6-4.4,152.3-8.7c101.8-8.7,203.9-3.4,305.8,0
						c102.3,3.4,204.6,7.4,306.9,11.9c102.3,4.5,204.6,9.6,306.8,15.2c50.5,2.8,101.4,4.4,151.7,9.8c12.3,1.3,24.6,2.8,36.8,4.3
						c12.4,1.5,25,2.4,37.1,5.4c6.3,1.5,12.3,3.8,18,6.7c2.3,1.2,4.6,2.5,6.8,4c0.9,0.6,3.9,2.1,4.3,3.1c1.3,3.7-2.8,4.4-5.1,4.5
						c-12.5,0.4-23.7-5.6-35.5-8.9c-11.7-3.3-23.7-5.1-35.6-6.9c-2.6-0.4-3.8,3.6-1.1,4c12.4,1.9,24.9,3.8,37,7.3
						c10.9,3.2,21.1,8.3,32.7,8.7c4.7,0.2,14.6-0.2,13.2-7.5c-1.4-7.3-14.9-12.3-20.7-14.7c-21.3-9-46.7-9.3-69.5-12
						c-25.7-3-51.4-5.1-77.3-6.6c-106.6-6.2-213.3-11.8-320-16.8c-106.7-5-213.4-9.4-320.2-13.2c-53.6-1.9-107.2-3.7-160.9-5.3
						c-52.8-1.6-105.7-3.4-158.6-0.8c-52.8,2.6-105.4,9.1-158.3,11.2c-53.2,2.2-106.5,1.6-159.7-1.1c-13.2-0.7-26.3-1.5-39.5-2.4
						C284.8,105.4,284.9,109.6,287.5,109.8L287.5,109.8z"/>
				</g>
			</g>
			<g>
				<g>
					<path class="st2" d="M291.3,146.1c91.2-1.4,182.3,3.3,273.4,8.3c90.6,5,181.1,9.7,271.9,9.8c91,0,182-3.4,272.9-6.9
						c90.4-3.5,180.9-7,271.4-7.4c45.6-0.2,91.3,0.5,136.9,2.4c22.6,0.9,45.2,2.2,67.7,3.8c22.2,1.6,44.3,4.2,66.6,2.7
						c5.3-0.4,12.5-0.5,12.4-7.4c0-0.8-0.6-1.9-1.5-2c-26.4-3.6-53.1-2-79.6-4.6c-26.7-2.6-53.3-7.1-80.3-6c-2.7,0.1-2.7,4.3,0,4.2
						c26.1-1.1,51.8,3.1,77.6,5.7c27,2.8,54.3,1.1,81.1,4.7c-0.5-0.7-1-1.3-1.5-2c0,8.1-61.5,1.5-68,1c-22.5-1.7-45.1-3-67.7-4
						c-44.2-2-88.5-2.8-132.8-2.7c-88.7,0.1-177.4,3.4-266,6.8c-88.7,3.4-177.4,6.9-266.1,7.4c-88.9,0.5-177.6-3.3-266.4-8.2
						c-100.6-5.5-201.2-11.4-301.9-9.9C288.6,141.9,288.6,146.1,291.3,146.1L291.3,146.1z"/>
				</g>
			</g>
			<g>
				<g>
					<path class="st2" d="M297.8,133.9c148.7-0.3,297.3-0.6,446-1c148.5-0.3,297-1.1,445.5-0.9c82.9,0.1,165.9,1.4,248.6,7.4
						c2.7,0.2,2.7-4,0-4.2c-147.6-10.7-296-7.4-443.8-7.1c-148.7,0.3-297.3,0.6-446,1c-83.4,0.2-166.9,0.4-250.3,0.5
						C295.1,129.8,295.1,134,297.8,133.9L297.8,133.9z"/>
				</g>
			</g>
			<g>
				<g>
					<path class="st2" d="M813,77.9c66.9-2.9,132.8-16.4,199.6-20c31.1-1.7,62.4-1.3,93.2,3.4c15.1,2.3,30.1,5.6,44.8,10.1
						c7.3,2.3,14.6,4.8,21.7,7.7c3.7,1.5,7.3,3.1,10.9,4.7c1.6,0.8,3.3,1.5,4.8,2.3c0.4,0.2,1.7,0.6,2,1c0,1.1,0,2.2,0.1,3.2
						c-0.6,0.1-1.2,0.2-1.8,0.3c-3.5,1.2-9.1,0.4-12.8,0.5c-4.3,0.1-8.5,0.2-12.8,0.2c-8.5,0-17.1-0.1-25.6-0.3
						c-17.1-0.4-34.2-1.3-51.3-2.1c-34.1-1.7-68.3-3.1-102.4-1.4c-33.6,1.6-67,5.2-100.7,5.2c-8.4,0-16.9-0.2-25.3-0.8
						c-4.2-0.3-8.4-0.6-12.6-1.1c-1.9-0.2-3.9-0.4-5.8-0.7c-1.8-0.2-2.7,0.3-2.7-1.7c0-2,1.3-1.8,3.1-2.1c17-2.6,34.6-3,51.8-4.3
						c68.3-4.9,136.9-6.9,205.4-6c8.6,0.1,17.2,0.3,25.8,0.5c2.7,0.1,2.7-4.1,0-4.2c-74.1-1.7-148.3-0.1-222.2,4.9
						c-18.8,1.3-37.6,2.8-56.4,4.5c-4.2,0.4-11.7,0.4-13,5.7c-1.3,5.7,5.4,6.5,9.3,7c36.3,4.4,72.9,1.8,109.3-0.7
						c36.8-2.5,73.2-3.4,110-1.9c36.8,1.5,73.6,4.1,110.5,3.5c4.6-0.1,9.2-0.2,13.8-0.4c3-0.1,6.5,0.2,9.2-1.1c4-2,4.2-6.6,0.9-9.4
						c-2.7-2.3-6.6-3.6-9.8-5.1c-3.7-1.7-7.4-3.3-11.1-4.8c-7.7-3.1-15.5-5.8-23.4-8.1c-31.3-9.3-64.1-13.1-96.6-13.7
						C981.3,51.7,911.1,66.4,840.2,72c-9.1,0.7-18.1,1.3-27.2,1.7C810.3,73.8,810.3,78,813,77.9L813,77.9z"/>
				</g>
			</g>
			<g>
				<g>
					<path class="st2" d="M1167.7,68.2c12.7-0.2,24.4,4.3,36,8.9c11.5,4.5,23.2,8.5,35.2,11.5c23.1,5.7,46.7,8.4,70.4,10.6
						c52,4.7,104,8.8,156,13.3c26.5,2.2,53.1,4.5,79.6,6.7c25.8,2.2,51.8,3.7,77.5,6.6c6.8,0.8,13.4,2.4,20.1,3.4
						c5.8,0.8,11.7,1.2,17.5,1.7c13,1.2,26,2.6,38.9,4.5c24.3,3.7,47.3,10.3,70.3,18.6c12.7,4.6,25.5,9.2,38.5,12.7
						c13,3.5,26.2,5.4,39.6,6.9c29.4,3.3,59,5.7,88.5,7.5c2.7,0.2,2.7-4,0-4.2c-26.4-1.6-52.7-3.7-78.9-6.5
						c-12.8-1.3-25.6-2.7-38.2-5.4c-11.7-2.5-23.2-6.2-34.5-10.1c-23.5-8.2-46.6-16.8-71.2-21.4c-11.6-2.2-23.4-3.7-35.2-5
						c-12.6-1.4-25.5-1.8-38-3.9c-25.5-4.2-51.3-5.8-77.1-8c-25.9-2.2-51.8-4.4-77.6-6.6c-52.4-4.4-104.8-8.9-157.3-13.3
						c-27.6-2.3-55.4-4.6-82.5-10.7c-13.6-3.1-26.8-7.3-39.8-12.4c-12.3-4.8-24.6-9.5-38-9.4C1165,64,1165,68.2,1167.7,68.2
						L1167.7,68.2z"/>
				</g>
			</g>
			<g>
				<g>
					<path class="st2" d="M299.6,92.6c63.2,6.6,126.8,9.2,190.3,7.7c2.7-0.1,2.7-4.3,0-4.2c-63.5,1.5-127.1-1.1-190.3-7.7
						C296.9,88.1,297,92.3,299.6,92.6L299.6,92.6z"/>
				</g>
			</g>
			<g>
				<g>
					<path class="st2" d="M1512.4,218.3c16.7-5.4,35.3-4.4,52.6-5.1c18.8-0.7,37.6-1.2,56.3-1.6c18.2-0.4,36.4-0.7,54.7-0.8
						c9.1-0.1,18.2-0.1,27.3-0.1c6.9,0,13.3,0.2,19.7-2.6c1.1-0.5,1.2-1.9,0.8-2.9c-3.1-6.9-15.6-5.2-21.6-5.7
						c-14.8-1.2-29.7-2.6-44.5-3.5c-28.8-1.7-56.8,0.6-85.4,3.2c-56.8,5.2-113.7,10-170.7,11.3c-56.8,1.3-113.4-1.5-169.8-8.5
						c-56-6.9-111.6-16.4-167.8-21.5c-56.7-5.2-113.6-4.4-170.4-2.1c-57.3,2.3-114.5,5.1-171.8,6.9c-114.8,3.7-229.7,5.3-344.6,4.7
						c-128.4-0.6-256.6-5.6-384.9-10.3c-2.7-0.1-2.7,4.1,0,4.2c113.3,4.1,226.7,8.8,340.1,9.9c112.6,1.1,225.2,0.1,337.7-2.9
						c57.4-1.5,114.8-3.6,172.2-6.2c55.8-2.5,111.6-5.4,167.5-3.6c110.9,3.7,219.4,30.5,330.4,33.4c62.7,1.6,125.4-2.1,187.9-7.4
						c31.7-2.7,63.7-7.2,95.6-7.9c16-0.3,32,0.5,47.9,1.7c8,0.6,16,1.3,24,2c4.9,0.4,22.6-0.7,24.8,4.2c0.3-1,0.5-1.9,0.8-2.9
						c-8.6,3.9-20.3,2.1-29.5,2.1c-9.1,0-18.2,0.1-27.3,0.2c-17.6,0.2-35.3,0.5-52.9,0.9c-17.6,0.4-35.3,1-52.9,1.6
						c-15.6,0.6-31.9,0.1-46.9,5C1508.7,215.1,1509.8,219.1,1512.4,218.3L1512.4,218.3z"/>
				</g>
			</g>
			<g>
				<g>
					<path class="st2" d="M304.3,171.6c170.6,0.2,341.2,0.8,511.8,1.7c169.7,0.9,339.4,2.2,509.2,3.9c95.7,0.9,191.5,2,287.2,3.2
						c2.7,0,2.7-4.2,0-4.2c-170.6-2.1-341.2-3.8-511.8-5.2c-169.7-1.3-339.4-2.3-509.2-2.9c-95.7-0.3-191.5-0.6-287.2-0.7
						C301.6,167.4,301.6,171.6,304.3,171.6L304.3,171.6z"/>
				</g>
			</g>
			<g>
				<g>
					<path class="st2" d="M1153.7,185.9c63.9,0.1,127.5,8,191.2,11.3c64.3,3.3,128.8,2.6,193.1,0.3c36.5-1.3,73-3,109.5-4.7
						c2.7-0.1,2.7-4.3,0-4.2c-64.3,3.1-128.7,6.1-193.1,6.6c-64.3,0.5-128.2-3.1-192.3-8.1c-36.1-2.8-72.2-5.4-108.4-5.4
						C1151,181.7,1151,185.9,1153.7,185.9L1153.7,185.9z"/>
				</g>
			</g>
			<g>
				<g>
					<path class="st2" d="M1068.3,166.1c102.3-1.7,204.5-2.4,306.8-2.1c51.1,0.1,102.3,0.5,153.4,1.2c25.9,0.3,51.8,0.7,77.7,1.2
						c12.4,0.2,24.9,0.2,37.2,1.2c12.6,1,25.1,2.7,37.6,4.6c7,1,13.9,2.1,20.9,3c6.7,0.9,13.7,1.2,20.2,3.3c1,0.3,3.6,1,4.1,2
						c1.4,2.8-2,2.6-3.5,2.8c-3.4,0.4-7.1,0.2-10.5,0.2c-6.7,0-13.4-0.3-20.1-0.9c-13.6-1.2-26.9-4.7-40.5-5.7
						c-13.6-1-27.3,0.4-41-0.4c-2.7-0.2-2.7,4,0,4.2c13.1,0.7,26.1-0.4,39.1,0.3c12.3,0.6,24.4,3.9,36.6,5.2
						c12.1,1.3,25.4,2.7,37.5,1.1c7.2-0.9,9.9-7.8,2.8-11.7c-3.8-2.1-8.7-2.7-12.9-3.2c-7.4-1-14.8-1.9-22.1-3
						c-12.2-1.8-24.4-3.7-36.7-5c-26.7-2.9-53.8-2.4-80.6-2.8c-107.9-1.7-215.8-2.2-323.8-1.7c-60.8,0.3-121.5,0.9-182.3,1.9
						C1065.6,162,1065.6,166.2,1068.3,166.1L1068.3,166.1z"/>
				</g>
			</g>
			<g>
				<g>
					<path class="st2" d="M1609.4,231.2c-117.9,11.5-236.7,14.5-355,8.8c-59.1-2.9-118-9.3-177.1-12.8c-57.8-3.5-114.7-1.3-172,7.1
						c-56.7,8.2-112.9,20.1-169.9,26c-28.3,2.9-56.8,4.4-85.3,3.1c-29-1.3-57.6-6.1-86-12c-51.5-10.8-103-25-156.1-24.5
						c-23,0.2-46.1,3.1-68.1,10c-22.9,7.1-41.5,19.1-60.8,32.9c-36.1,25.8-81.9,29.9-125,26.4c-46.7-3.8-92.2-15.8-137.6-26.6
						c-10.8-2.6-21.7-5.1-32.6-7.5c-2.6-0.6-3.8,3.5-1.1,4c45,9.7,89.4,22.4,135,29.7c41.7,6.7,86.4,9.9,127-4
						c9.4-3.2,18.4-7.3,27-12.3c9.4-5.6,17.6-12.8,26.8-18.8c20.8-13.6,44.4-21.9,68.8-26.1c52.5-9.1,105.3,1,156.6,12.3
						c28,6.2,56.1,12.7,84.5,16.8c27,3.8,54.1,5.1,81.3,4.1c56-1.9,111.3-12.1,166.4-21.4c57.8-9.7,115.6-17.7,174.4-16.8
						c59.8,0.9,119.3,8.1,178.9,12.1c118.2,7.9,237,7.2,355.1-2.2c15-1.2,29.9-2.5,44.9-4C1612.1,235.1,1612.1,230.9,1609.4,231.2
						L1609.4,231.2z"/>
				</g>
			</g>
			<g>
				<g>
					<path class="st2" d="M1934.9,230.7c-71.8-4-143.3-12.3-215.2-14.9c-72-2.7-143.3,5.2-215.2,8.5c-71.2,3.3-142.5,3.9-213.8,1.9
						c-71.7-2-142.9-8-214.4-13.5c-34.8-2.7-69.9-4.2-104.7-0.9c-34.5,3.4-68.2,11.1-102.2,17.7c-69.7,13.5-140.3,17.3-210.9,9.9
						c-65.7-6.9-130.4-21.2-196.3-26.3c-31.8-2.4-63.9-2.6-95.6,1.7c-14.9,2-29.7,5.1-44.2,9.3c-15.8,4.6-30.6,11.4-46.1,16.9
						c-62.8,22.1-130.8,21.3-196.5,18.7c-7.6-0.3-15.2-0.5-22.8-1c-4.1-0.3-10.3,0.1-14.2-1.5c-4.4-1.7-4-1.5,0-4
						c2.1-1.3,5.1-2,7.4-2.8c15.7-5.5,31.8-9.6,48.1-12.7c33.8-6.4,68.3-8.1,102.7-8.1c16.2,0,32.4,0.4,48.5,0.8
						c-0.5-1.2-1-2.4-1.5-3.6c-7.8,7.3-18.8,7.6-28.8,8.8c-9.1,1.1-18.3,2.2-27.4,3.3c-18.9,2.3-37.8,4.5-56.6,6.8
						c-2.7,0.3-2.7,4.5,0,4.2c22.5-2.7,45.1-5.4,67.6-8.1c15.3-1.8,36.2-0.7,48.3-12c1.4-1.3,0.3-3.5-1.5-3.6
						c-41-1.2-82.1-1.8-122.9,3c-18.9,2.2-37.8,5.5-56.2,10.5c-9.4,2.5-18.8,5.4-27.8,9c-5,2-8.7,3.8-9.4,9.5
						c-0.1,0.8,0.7,1.9,1.5,2c28.6,5.1,58.7,4.6,87.7,4.9c29,0.3,58.2-0.5,87-4.4c28.1-3.7,55.8-10.3,82.1-21.1
						c27.9-11.5,56.8-18.9,86.8-22c59.1-6.1,118.6,2.4,177,11.4c59.4,9.2,118.7,18.8,179,18.6c30.3-0.1,60.6-2.2,90.7-6.3
						c31.7-4.3,62.9-11.4,94.3-17.4c32.5-6.2,65-10,98.1-9.8c31.9,0.2,63.8,3.1,95.5,5.9c128.3,11.3,257.1,14.4,385.8,8.8
						c64.9-2.8,129.6-10.5,194.6-9.5c64.4,1,128.5,7.6,192.7,12.4c16.2,1.2,32.5,2.3,48.7,3.2
						C1937.6,235.1,1937.6,230.9,1934.9,230.7L1934.9,230.7z"/>
				</g>
			</g>
			<g>
				<g>
					<path class="st2" d="M1158.9,203.9c-76.8-10-154.2-14.2-231.5-15.1c-77.5-0.9-155,1.6-232.5,4.7c-78,3.1-156,6.9-234,8.7
						c-38.8,0.9-77.6,1.3-116.4,0.8c-38.5-0.4-77.1-2.4-115.6-2.5c-38.2-0.1-76.5,1.5-114.4,6.6c-18.3,2.4-36.6,5.7-54.6,9.8
						c-18.4,4.2-36.6,9.2-55.2,12.5c-9.8,1.8-19.7,3-29.6,3.6c-2.7,0.2-2.7,4.4,0,4.2C12.4,235.1,48,222.8,84.5,216
						c38.1-7.1,76.9-10.2,115.7-11.1c38.5-0.9,76.8,0.8,115.3,1.7c38.8,0.9,77.6,0.9,116.3,0.2c78-1.2,156-4.8,234-8
						c77.5-3.2,155-6.1,232.6-6c77.4,0.1,154.8,3.1,231.7,11.7c9.6,1.1,19.3,2.3,28.9,3.5C1161.6,208.4,1161.5,204.2,1158.9,203.9
						L1158.9,203.9z"/>
				</g>
			</g>
			<g>
				<g>
					<path class="st2" d="M573.7,216.7c33.2,11.6,68,16.9,103,18.9c17.9,1,35.9,1.2,53.9,1.1c17.2-0.1,34.9,0.6,52-1.4
						c15.3-1.8,30.6-9.9,33.6-26.2c0.2-1.2-0.3-2.2-1.5-2.6c-21.2-7-44.5-4.7-66.5-4.4c-23.8,0.3-47.5,0.7-71.3,1
						c-10.6,0.1-22.7-0.9-32.8,2.9c-5.3,2-8.6,8-2.5,11.5c8.1,4.7,19.6,5.3,28.7,5.9c11.5,0.7,23,0.7,34.5,0.5
						c26.9-0.3,53.8-2.3,80.4-5.7c2.6-0.3,2.7-4.5,0-4.2c-20.5,2.6-41.1,4.4-61.8,5.2c-19.9,0.8-40.5,1.7-60.4-0.7
						c-4.6-0.5-9.2-1.4-13.6-2.7c-1.2-0.3-2.3-0.7-3.5-1.1c-0.8-0.3-1.5-0.6-2.3-0.9c0.5-1.3,1-2.5,1.5-3.8c1.4-1.4,6.7-1.7,8.6-1.9
						c9.9-1.3,20.1-0.8,30-1c20.8-0.3,41.6-0.6,62.4-0.9c22.2-0.3,46-2.9,67.4,4.2c-0.5-0.9-1-1.7-1.5-2.6
						c-3.2,17.1-20.3,22.8-35.7,23.6c-16.2,0.9-32.5,0.9-48.7,1c-33.1,0.2-66.4-0.8-99.2-6.3c-18.3-3-36.3-7.5-53.8-13.6
						C572.3,211.8,571.2,215.8,573.7,216.7L573.7,216.7z"/>
				</g>
			</g>
			<g>
				<g>
					<path class="st2" d="M835.3,204.3c7.1-0.2,14.1-0.2,21.2,0.2c1.4,0.1,3.6-0.3,4.8,0.3c3.1,1.4,1,4.2-1.4,5
						c-3.4,1.2-6.8,2.2-10.2,3.4c-13.3,4.4-26.7,8.7-40,13.1c-2.6,0.8-1.5,4.9,1.1,4c9.9-3.3,19.9-6.5,29.8-9.8
						c5-1.6,9.9-3.3,14.9-4.9c3.3-1.1,7.6-1.8,10.3-4.1c4.1-3.3,3.5-9.3-1.7-10.8c-4-1.1-9.1-0.7-13.3-0.8c-5.1-0.1-10.3-0.1-15.4,0
						C832.6,200.2,832.6,204.4,835.3,204.3L835.3,204.3z"/>
				</g>
			</g>
			<g>
				<g>
					<path class="st2" d="M300,275.8c28.1,5.8,56.7,9.6,85.3,11.2c28.5,1.6,57.9,2,86.4-1.6c9.8-1.2,19.8-5.3,22.8-15.6
						c2.8-9.6-2.9-16.3-11.6-19.5c-12.8-4.7-26.8-5.2-40.3-5.3c-14.3-0.1-28.6,0-42.9,0.3c-14.2,0.3-28.9-0.1-43,1.9
						c-10.5,1.5-20.7,5.4-25.8,15.3c-0.8,1.5,0.2,3,1.8,3.2c42.6,5.6,85.6,6.8,128.4,3.6c2.7-0.2,2.7-4.4,0-4.2
						c-42.8,3.2-85.9,2-128.4-3.6c0.6,1.1,1.2,2.1,1.8,3.2c4.5-8.8,13.7-12,23-13.3c11-1.5,22.3-1.3,33.3-1.6
						c12.7-0.3,25.4-0.5,38.1-0.5c11.8,0,23.8-0.3,35.5,1.2c10,1.2,29.9,4,25.9,18.3c-3.5,12.5-18.9,12.7-29.4,13.5
						c-24.9,1.8-49.8,2.1-74.7,0.7c-28.6-1.6-57.1-5.4-85.2-11.1C298.4,271.2,297.3,275.3,300,275.8L300,275.8z"/>
				</g>
			</g>
			<g>
				<g>
					<path class="st2" d="M510.3,272c81.3,5.2,162.7,6.6,244.1,6.3c81.1-0.3,162.2-2.2,243.3-3.7c81.4-1.5,162.9-2.6,244.3-1.1
						c40.5,0.7,81,2.1,121.4,4.4c31.8,1.8,63.6,4.4,95.5,5.5c60.4,2,121.5,2.3,181.7-3.8c5.9-0.6,11.8-1.3,17.6-2.1
						c2.7-0.4,1.5-4.4-1.1-4c-59,8-119.5,7.7-178.9,6.3c-29.2-0.7-58.4-2.4-87.5-4.4c-40.4-2.7-80.9-4.4-121.4-5.5
						c-81-2.1-162.1-1.4-243.1,0c-81.1,1.4-162.2,3.5-243.3,4.1c-80.7,0.6-161.4-0.1-241.9-4.4c-10.2-0.5-20.4-1.1-30.6-1.8
						C507.6,267.6,507.6,271.8,510.3,272L510.3,272z"/>
				</g>
			</g>
			<g>
				<g>
					<path class="st2" d="M1156.5,244c-44.2-1.4-88.5-2.3-132.8-2.9c-40.6-0.5-81.9-2.4-122.2,2.9c-21.5,2.8-42.6,8.2-62.3,17.4
						c-1.5,0.7-1.3,3.6,0.5,3.8c53.8,7.6,107.8-0.9,161.6-4.6c54.9-3.9,110-3.7,164.9-3.2c54.8,0.6,109.6,0.8,164.2,4.3
						c54,3.4,107.7,10.5,161.7,13.9c29.7,1.9,59.6,2.6,89.3,1c14.4-0.8,28.8-2.1,43.1-4.2c8.1-1.1,27.8-2,29.3-12.9
						c0.2-1.4-0.5-2.5-2-2.7c-16.8-1.6-34.2,0.8-51,1.7c-17.4,1-34.8,1.9-52.3,2.9c-2.7,0.1-2.7,4.4,0,4.2c17.4-1,34.8-1.9,52.3-2.9
						c16.8-0.9,34.2-3.3,51-1.7c-0.7-0.9-1.3-1.8-2-2.7c-0.8,5.9-10.9,7.3-15.7,8.3c-6.8,1.3-13.8,2.2-20.7,3
						c-12.9,1.5-25.8,2.5-38.7,3c-26.2,1.1-52.5,0.5-78.7-1.1c-52-3.1-103.8-9.8-155.8-13.5c-53.3-3.8-106.8-4.3-160.2-4.8
						c-53-0.6-106.1-1-159,1.8c-59.9,3.2-120.4,14.4-180.3,6c0.2,1.3,0.3,2.6,0.5,3.8c36-16.8,76.1-19.8,115.3-20.1
						c42.2-0.3,84.4,0.5,126.6,1.4c24.4,0.5,48.9,1.1,73.3,1.9C1159.2,248.3,1159.2,244.1,1156.5,244L1156.5,244z"/>
				</g>
			</g>
			<g>
				<g>
					<path class="st2" d="M1414.6,257.6c63.3,1.9,126.6,0.4,189.8-4.7c15.2-1.2,30.4-1.8,45.5-3.1c14.7-1.3,28.5-4.8,42.8-8.3
						c7.7-1.9,15.3-2.9,23.1-3.7c4.5-0.5,12.8-0.3,16-3.9c2-2.2,0.8-5-1.6-6.1c-2.6-1.2-6.1-0.6-8.8-0.6c-4.5,0-9.1,0-13.6,0
						c-17.5,0-35-0.1-52.5,0c-16.7,0-33.4,0.5-49.8,3.8c-2.6,0.5-1.5,4.6,1.1,4c27.9-5.6,57.2-3.6,85.6-3.6c7.1,0,14.3,0,21.4,0
						c3.2,0,6.5,0,9.7,0c0.4,0,3.9-0.3,4.2,0c0.2,0.1-4,1-5,1.2c-6.3,1.1-12.7,1.3-19,2.3c-7.1,1.1-14,3-20.9,4.8
						c-27.4,7.3-55.9,7.2-84,9.4c-28.6,2.2-57.3,3.7-85.9,4.5c-32.6,0.9-65.3,0.8-97.9-0.2C1411.9,253.4,1411.9,257.6,1414.6,257.6
						L1414.6,257.6z"/>
				</g>
			</g>
			<g>
				<g>
					<path class="st2" d="M793.5,307.6c64.7-0.8,129.5-2.6,194.2-1.7c63.6,0.8,126.8,7.4,189.9,14.9c62.9,7.4,125.8,15.2,189.1,17.4
						c63.2,2.3,126.6-0.4,189.4-7.9c34.6-4.1,68.6-11.2,103.6-10.8c35.3,0.4,70.2,5.5,105.3,9c2.7,0.3,2.7-3.9,0-4.2
						c-31.2-3.1-62.4-7.4-93.8-8.7c-15.3-0.6-30.6-0.5-45.8,1c-15.6,1.5-31.1,4.5-46.6,6.6c-63.1,8.7-126.9,12.5-190.6,11.4
						c-126.9-2.3-251.8-28.7-378.6-32.4c-72-2.1-144.2,0.4-216.1,1.3C790.8,303.4,790.8,307.6,793.5,307.6L793.5,307.6z"/>
				</g>
			</g>
			<g>
				<g>
					<path class="st2" d="M1223.3,313.7c104.9-1.3,209.3,15.4,314.2,10.2c25.6-1.3,51.2-3.9,76.4-8.4c13.4-2.4,26.8-3.3,40.4-3.5
						c6.1-0.1,12.2-0.1,18.2-0.1c4.7,0,10.9,0.9,15.4-1.2c6.6-3,2.9-9.6-2.9-10.5c-5.7-0.9-11.8-0.4-17.6-0.4
						c-6.9,0-13.9,0.2-20.8,0.5c-26.8,1.1-53.4,3.6-80.2,5c-60,3.1-120.2,3-180.2-0.1c-2.7-0.1-2.7,4.1,0,4.2
						c50.8,2.7,101.7,3.2,152.5,1.4c25.1-0.9,50.1-2.5,75.2-4.3c12.5-0.9,25.1-1.7,37.6-2.1c6.3-0.2,12.5-0.3,18.8-0.3
						c3,0,5.9,0,8.9,0.1c1.2,0,11.3,0.2,5.8,3.1c-1.9,1-5.8,0.4-7.9,0.4c-3.2,0-6.4,0.1-9.6,0.1c-6.4,0-12.8,0.1-19.2,0.2
						c-11.7,0.3-23.2,1.3-34.8,3.3c-24.6,4.3-49.4,7-74.3,8.3c-49.7,2.6-99.5,0.1-149.1-3c-55.6-3.5-111.3-7.8-167.1-7.1
						C1220.6,309.5,1220.6,313.7,1223.3,313.7L1223.3,313.7z"/>
				</g>
			</g>
		</g>
		<g class="st1">
			<g>
				<path class="st2" d="M1606.1,755.5c-108.5,10.7-217.4,17.9-326.4,21.7c-108.5,3.7-217,3.9-325.5,0.7
					c-109.1-3.2-217.6-11.8-326.4-19.7c-54-3.9-107.8-5.1-161.8-0.6c-52.9,4.4-105.3,12.9-157.7,21.4
					C204.8,795.7,101.9,768-1.7,766.8c-12.7-0.1-25.4,0.2-38.1,0.9c-2.7,0.2-2.7,4.4,0,4.2c103.1-6.3,204.8,22.4,307.8,15.8
					c25.2-1.6,50.1-6.2,75-10.2c27.5-4.4,55.1-8.5,82.8-11.7c53.7-6.3,107.5-8.6,161.6-6c54.1,2.6,108,8.2,162,12
					c54.7,3.8,109.4,6.8,164.2,8.9c108.4,4.1,217,4.7,325.5,1.9c109-2.9,218-9.2,326.6-19.1c13.5-1.2,27-2.5,40.5-3.8
					C1608.8,759.4,1608.8,755.2,1606.1,755.5L1606.1,755.5z"/>
			</g>
		</g>
		<g class="st1">
			<g>
				<path class="st2" d="M1604,751.2c-215.1-11.6-430,11-645.1,10.7c-106.3-0.2-211.7-9.4-317.6-18.1c-105.9-8.6-212.8-14.8-318.5-1
					c-29.5,3.8-58.7,8.9-88.3,11.9c-29.6,3-59.3,4.8-89,5.7C86,762.3,26.4,760.6-33,757.3c-2.7-0.1-2.7,4.1,0,4.2
					c105.1,5.8,211,6.7,315.4-8.5c53.6-7.8,106.7-13.5,161-14.1c53.3-0.6,106.5,2.2,159.6,6.1c105.8,7.8,211.1,19.1,317.3,20.8
					c107.6,1.7,215.1-3.3,322.6-7.7c120.3-4.9,240.9-9.1,361.2-2.6C1606.7,755.6,1606.7,751.4,1604,751.2L1604,751.2z"/>
			</g>
		</g>
		<g class="st1">
			<g>
				<path class="st2" d="M727.8,738.3c37.9-4.8,76-7.3,114.2-7.4c18.9-0.1,37.8,0.4,56.7,1.5c9.4,0.5,18.9,1.2,28.3,2.1
					c4.5,0.4,26.4,0,24.9,7.9c0.5-0.5,1-1,1.5-1.5c-13.7,5.5-28.3,6.4-42.9,7.1c-15.5,0.7-31,1.2-46.5,1.5
					c-15.5,0.3-31,0.4-46.5,0.3c-7.6-0.1-15.1,0-22.7-0.3c-6.6-0.3-13.3-1.2-18.1-6.1c0.2,0.7,0.4,1.4,0.5,2
					c0.9-5,14.4-3.1,17.9-3.1c6.9-0.1,13.7-0.1,20.6-0.2c13.4-0.1,26.8-0.3,40.2-0.4c2.7,0,2.7-4.2,0-4.2
					c-18.6,0.2-37.3,0.3-55.9,0.5c-4.6,0-9.2,0.1-13.7,0.1c-2.9,0-6-0.1-8.8,1.1c-4.6,1.9-5.6,5.9-1.8,9c4.7,3.8,10.9,4.9,16.8,5.3
					c8.9,0.6,17.9,0.4,26.8,0.5c18.8,0.1,37.6-0.1,56.4-0.6c18-0.5,36.3-0.6,54.3-2.6c7.8-0.9,15.5-2.4,22.8-5.2
					c4.5-1.7,4.1-6.3,0.9-9.4c-4.2-4.1-10.6-4.4-16.1-4.9c-9.4-0.9-18.8-1.7-28.3-2.4c-18.5-1.3-37.1-2-55.7-2.2
					c-42.1-0.4-84.2,2.1-125.9,7.3C725.2,734.4,725.2,738.6,727.8,738.3L727.8,738.3z"/>
			</g>
		</g>
		<g class="st1">
			<g>
				<path class="st2" d="M347.6,806.8c45.3-24.7,96.1-35.7,147.5-33.5c52.3,2.2,103.2,15.7,154.4,25.6c28.2,5.4,56.6,9.8,85.4,10.9
					c2.7,0.1,2.7-4.1,0-4.2c-104-3.9-204.7-52.2-309.6-31.4c-27.9,5.5-54.9,15.4-79.8,29.1C343.1,804.5,345.2,808.1,347.6,806.8
					L347.6,806.8z"/>
			</g>
		</g>
		<g class="st1">
			<g>
				<path class="st2" d="M598.1,768.9c76.3,11,152.8,22,229.9,26.2c77.9,4.2,156.2,1.4,234.1,0.6c156.1-1.5,312.1-3,468.2-4.5
					c22.2-0.2,44.4-0.4,66.5-0.6c21.1-0.2,41.8,0.9,62.8,2.6c21.4,1.7,42.8,1.9,64.2,3.7c21.6,1.8,43.1,5.1,64.3,9.6
					c2.6,0.6,3.8-3.5,1.1-4c-36.8-7.9-73.6-10.3-111.1-12.2c-18.5-0.9-36.9-3.2-55.4-3.8c-19.7-0.6-39.5,0.1-59.2,0.3
					c-78.4,0.8-156.8,1.5-235.3,2.3c-77.6,0.7-155.3,1.5-232.9,2.2c-78.1,0.8-156.4,3.2-234.4,1c-87.8-2.4-174.9-14.9-261.7-27.4
					C596.6,764.5,595.4,768.5,598.1,768.9L598.1,768.9z"/>
			</g>
		</g>
		<g class="st1">
			<g>
				<path class="st2" d="M1050.9,742.9c118.6,5.4,237.1-4.6,355.6-4.2c33.6,0.1,67.1,1,100.6,3.3c2.7,0.2,2.7-4,0-4.2
					c-118.4-8.2-237,1.1-355.5,2.4c-33.6,0.4-67.2,0-100.7-1.5C1048.2,738.6,1048.2,742.8,1050.9,742.9L1050.9,742.9z"/>
			</g>
		</g>
		<g class="st1">
			<g>
				<path class="st2" d="M1334,784.5c81.1-1,162.2-4.1,243.1-9.5c78.7-5.2,156.8-14.4,234.4-28.2c21.8-3.9,43.4-8.3,65.2-12.4
					c22.3-4.2,45-7.1,67.7-4.8c2.7,0.3,2.7-3.9,0-4.2c-38.9-4.1-77.8,6.9-115.8,13.9c-39.4,7.3-79,13.7-118.8,18.8
					c-79.4,10.3-159.4,14.9-239.3,18.3c-45.5,1.9-91,3.1-136.6,3.7C1331.3,780.3,1331.3,784.5,1334,784.5L1334,784.5z"/>
			</g>
		</g>
		<g class="st1">
			<g>
				<path class="st2" d="M406.1,801.9c12.7-11.6,30.2-14,46.7-14.2c18.6-0.3,37.3,0.9,55.9,2.2c40.3,2.7,80.4,7.7,120.1,14.8
					c2.6,0.5,3.8-3.6,1.1-4c-32-5.7-64.3-10.1-96.7-13c-16.6-1.5-33.2-2.6-49.9-3.3c-14.2-0.6-28.7-1.5-42.9-0.1
					c-13.7,1.4-26.9,5.3-37.2,14.8C401.1,800.8,404.1,803.7,406.1,801.9L406.1,801.9z"/>
			</g>
		</g>
		<g class="st1">
			<g>
				<path class="st2" d="M677.8-8.8c-80.6,44.3-175.1,43.4-264.5,40.7c-22.3-0.7-44.6-1.2-66.8-3.8c-11.5-1.4-23-3.4-34.3-6.3
					c-5.1-1.3-10-3.2-15.2-4.1c-5-0.9-10.1-1.2-15.1-1.5c-45.5-2.7-89.8,11.9-133.8,21c-51.3,10.6-103.7,17-156,12.5
					c-2.7-0.2-2.7,4,0,4.2c45.9,3.9,92-0.5,137.2-8.7c23.1-4.2,46-9.7,68.9-14.9c22.8-5.2,46-9.7,69.5-10.1
					c11.4-0.2,23.5,0,34.5,3.3c10.7,3.2,21.6,5.7,32.7,7.4c21.8,3.4,43.9,4.3,65.9,5c47.5,1.5,95.2,3.1,142.6-1.6
					c47.4-4.7,94.6-16.1,136.6-39.2C682.3-6.4,680.2-10.1,677.8-8.8L677.8-8.8z"/>
			</g>
		</g>
		<g class="st1">
			<g>
				<path class="st2" d="M292.7-4.9c15.3,5.6,30.6,11.1,46.1,15.9c17.1,5.3,34,8.3,51.9,9.8c47.4,4,95.3,4.9,142.9,5.2
					c12.2,0.1,24.6,0.5,36.6-2.1C579,22,589,18.4,591.8,9c0.3-1.1-0.4-2.3-1.5-2.6c-7.2-2.1-14.6-1.5-22.1-1.3
					C559.7,5.5,551,5.8,542.4,6c-17.3,0.4-34.5,0.6-51.8,0.7c-17.3,0.1-34.5,0.1-51.8,0c-17.5,0-35-0.1-52.4-2.5
					C368,1.8,350-3,332.6-9.7c-2.5-1-3.6,3.1-1.1,4c30.8,11.9,62.6,16.3,95.4,16.6c34.8,0.3,69.7,0.2,104.5-0.5
					c9.6-0.2,19.2-0.4,28.9-0.8c9.5-0.3,19.7-1.9,28.9,0.8c-0.5-0.9-1-1.7-1.5-2.6c-3.1,10.3-18.1,12.3-27.1,13.2
					c-10.9,1.1-22,0.7-32.9,0.6c-22.6-0.2-45.2-0.7-67.8-1.5c-39.1-1.4-79.6-1.1-117.3-12.5C326.2,2.8,309.9-3,293.8-9
					C291.3-9.9,290.2-5.8,292.7-4.9L292.7-4.9z"/>
			</g>
		</g>
		<g class="st1">
			<g>
				<path class="st2" d="M589.5,38c28.4-2.6,56.5-8.1,83.7-16.8c13.1-4.2,25.9-9,38.5-14.6c13.7-6,26.8-13.2,41.3-17
					c2.6-0.7,1.5-4.7-1.1-4c-13.1,3.4-25.1,9.5-37.3,15.1c-13.3,6.1-26.9,11.4-40.8,15.9c-27.4,8.9-55.7,14.6-84.3,17.2
					C586.8,34.1,586.8,38.3,589.5,38L589.5,38z"/>
			</g>
		</g>
		<g class="st1">
			<g>
				<path class="st2" d="M311.8,51.6c78.5,13,158.8,10.2,238,9.7c40.5-0.3,81.1-0.8,121.5-2.4c18.9-0.7,37.8-1.5,56.5-4.4
					c17.4-2.7,34-7.6,50.1-14.7c34.3-15.1,66.8-38.1,105.3-40.7c2.7-0.2,2.7-4.4,0-4.2c-32.6,2.2-61.1,18.6-89.7,32.8
					c-15.6,7.8-31.4,14.9-48.4,19c-19.1,4.7-38.8,6.2-58.3,7.2c-79.6,3.9-159.6,4-239.2,3.2c-45-0.4-90.2-2.4-134.6-9.7
					C310.2,47.1,309.1,51.1,311.8,51.6L311.8,51.6z"/>
			</g>
		</g>
		<g class="st1">
			<g>
				<path class="st2" d="M841.8-7.8c-8.8,4.2-18.2,6.8-27.4,9.9c-8.8,2.9-17,6.5-25,11.2c-17.2,10.2-34.7,18.6-54.3,23
					c-9.6,2.2-19.4,3.5-29.2,3.9c-4.4,0.2-8.8,0.2-13.2,0c0.1,0-3.4,0-3.5-0.2c-1.1-1.4,0.5-1.6,1.3-2.1c1.9-1.2,4.9-1.7,7-2.4
					c16.7-5.6,33.5-10.8,49.7-17.5c17.6-7.3,34.4-16.3,48.8-29c2-1.8-0.9-4.8-3-3c-15.2,13.5-33.4,22.7-52.3,30.1
					c-9.2,3.6-18.6,6.8-28,9.9c-4.4,1.5-8.9,2.9-13.3,4.4c-4.2,1.4-9.6,2.4-13.4,4.7c-5.8,3.5-2.3,8.5,3.1,9.1
					c10.1,1.1,20.8,0.3,30.9-1c20.3-2.6,40-8.8,58-18.4c11.1-6,21.3-13,33.4-17.3c10.9-3.8,22.1-6.7,32.5-11.7
					C846.3-5.3,844.2-8.9,841.8-7.8L841.8-7.8z"/>
			</g>
		</g>
		<g class="st1">
			<g>
				<path class="st2" d="M922.1-9.2c-20.1,7-40.2,14-60.3,21c-4.6,1.6-9.3,3.2-13.9,4.8c-3.7,1.3-8.3,2.1-11.5,4.5
					c-4.3,3.2-3.1,9.2,2.4,9.8c8.9,1.1,18.8-0.2,27.7-1.1c8.9-0.8,17.9-2.1,26.6-4.1c18.6-4.2,34.7-12.1,50.9-21.9
					c9.6-5.8,19.4-10.2,30.4-12.7c11.2-2.6,22.6-3.6,34-4.6c2.7-0.2,2.7-4.4,0-4.2c-16.4,1.4-33.2,2.9-48.8,8.9
					c-15.7,6-28.7,17-44.3,23.3c-15.5,6.3-32.2,9.7-48.8,11.2c-4.1,0.4-8.2,0.6-12.3,0.8c-2.1,0.1-4.1,0.2-6.2,0.2
					c-1.9,0-5.4,0.9-7,0.1c-0.3,0-0.6,0-0.9,0c-0.1-1-0.2-1.9-0.2-2.9c0.3-0.5,2.9-1.1,3.6-1.3c2.2-0.8,4.3-1.5,6.5-2.3
					c4.3-1.5,8.7-3,13-4.5c20.1-7,40.2-14,60.3-21C925.7-6,924.6-10.1,922.1-9.2L922.1-9.2z"/>
			</g>
		</g>
		<g class="st1">
			<g>
				<path class="st2" d="M835.1,53.1c37.9-1.5,75.3-9.7,110.2-24.4c18.2-7.7,35.1-18.1,54.2-23.5c18.7-5.3,38.3-6.6,57.6-4.2
					c2.7,0.3,2.7-3.9,0-4.2c-18.5-2.3-37.3-1.1-55.3,3.5c-18.5,4.7-34.7,14.2-52,22c-36.1,16.2-75.2,25.2-114.7,26.7
					C832.4,49,832.4,53.2,835.1,53.1L835.1,53.1z"/>
			</g>
		</g>
		<g class="st1">
			<g>
				<path class="st2" d="M1501.8,50.4c-17.5-2.5-35.2-2.4-52.8-3.8c-19-1.6-36.3-6.8-54-13.6C1361,20,1327.3,6.1,1292.4-4.2
					c-18.9-5.6-38.2-9.8-57.9-11.7c-2.7-0.3-2.7,3.9,0,4.2c35.5,3.5,69.5,14.8,102.7,27.2c16.8,6.3,33.4,12.7,50.2,19.1
					c16.8,6.4,33.2,12.8,51.1,15.1c20.6,2.7,41.5,1.8,62.1,4.8C1503.3,54.8,1504.5,50.8,1501.8,50.4L1501.8,50.4z"/>
			</g>
		</g>
		<g class="st1">
			<g>
				<path class="st2" d="M1093.2-6.3c23.1-1.6,44.8,3.9,65.2,14.7c9.2,4.9,18.1,10.2,27.7,14.2c9.4,3.9,19.1,6.7,29.1,8.8
					c19.8,4.1,40.1,5.3,60.2,7.7c10.8,1.2,21.5,2.8,32.1,5.3c10.5,2.5,20.4,6.3,30.6,9.9c24,8.5,48.8,9.4,74.1,9.6
					c2.7,0,2.7-4.2,0-4.2c-23.1-0.2-46.3-0.6-68.4-7.9c-10.3-3.4-20.3-7.6-30.9-10.4c-9.7-2.6-19.6-4.2-29.6-5.6
					c-20.8-2.8-41.9-3.8-62.6-7.6c-10.2-1.9-20.2-4.5-29.9-8.2c-10.2-4-19.7-9.6-29.4-14.8c-21.2-11.3-43.9-17.4-68.1-15.7
					C1090.5-10.3,1090.5-6.1,1093.2-6.3L1093.2-6.3z"/>
			</g>
		</g>
		<g class="st1">
			<g>
				<path class="st2" d="M1354.3,28.3c-28.9-13.2-60.5-17.9-92.1-19.2c-16.3-0.7-32.7-0.8-49-0.3c-3.3,0.1-8.7,1.1-7.9,5.6
					c0.8,5.2,9.4,6,13.4,6.6c9.2,1.3,18.7,1.4,28,1.9c10.5,0.6,21,1.2,31.5,1.8c2.7,0.2,2.7-4,0-4.2c-18.6-1.1-37.5-1.4-56-3.3
					c-1.3-0.1-13.4-1.5-11.5-4c0.7-0.9,6-0.3,7.1-0.3c2.4,0,4.7-0.1,7.1-0.1c8.3-0.1,16.7-0.1,25,0.1c34.9,0.6,70.3,4.3,102.4,18.9
					C1354.6,33,1356.7,29.4,1354.3,28.3L1354.3,28.3z"/>
			</g>
		</g>
		<g class="st1">
			<g>
				<path class="st2" d="M1445,38.8c-19.9-6.7-39.9-13.3-59.8-20.1c-18.7-6.4-37.2-13.4-53.5-24.7c-2.2-1.5-4.3,2.1-2.1,3.6
					c16.1,11.1,34.4,18.2,52.8,24.5c20.5,7,41,13.8,61.5,20.7C1446.4,43.7,1447.5,39.6,1445,38.8L1445,38.8z"/>
			</g>
		</g>
		<g class="st1">
			<g>
				<path class="st2" d="M1371.1,0.1c14.6,5.3,30,8.1,45.2,11.2c16.1,3.3,32.3,6.7,48.4,9.9c32,6.3,64.4,8.1,97,9.4
					c18.6,0.7,37.3,1.1,55.9,1.2c2.7,0,2.7-4.2,0-4.2c-41.4-0.2-83.5-0.6-124.5-5.9c-20.8-2.7-41.4-7.4-62-11.6
					c-19.7-4-39.9-7.2-58.8-14C1369.6-4.8,1368.5-0.8,1371.1,0.1L1371.1,0.1z"/>
			</g>
		</g>
		<g class="st1">
			<g>
				<path class="st2" d="M1824.4-18.4c-15.8,8.6-33.6,13.4-50.8,18.5c-17.4,5.2-35,9.9-52.8,13.5c-18.7,3.8-37.6,6.5-56.7,7
					c-18.3,0.5-36.6-0.8-54.9-2.4c-14.3-1.3-28.6-2.3-42.9-3.5c-9.4-0.8-18.8-1.6-28.2-2.4c-3.6-0.3-7.2-0.7-10.8-1
					c-2.1-0.2-4.7-1-6.8-0.8c-1.4,0.1-0.8,0.3-0.3,0.4c-0.5,0-1.8-0.8-2.5-0.9c-2.4-0.4-4.8-0.4-7.1-0.7c-10-0.9-19.9-1.9-29.8-3.4
					c-19.5-2.9-38.9-7.5-56.8-16.1c-2.4-1.2-4.6,2.5-2.1,3.6c30.2,14.5,63.8,17.8,96.8,20.8c-0.6-0.3-1.2-0.7-1.8-1
					c1.1,2,6,1.8,7.8,2c6.1,0.7,12.3,1.2,18.5,1.8c16,1.4,32,2.7,48,4c16.7,1.3,33.3,3,50,3.6c30.5,1.2,60.4-2.3,90.2-9
					c16.8-3.8,33.4-8.4,49.8-13.4c15.4-4.7,31.1-9.3,45.4-17C1828.9-16.1,1826.8-19.7,1824.4-18.4L1824.4-18.4z"/>
			</g>
		</g>
		<g class="st1">
			<g>
				<path class="st2" d="M1523.5-5c29.6,11.3,62.5,12.7,93.9,12.6c33.4-0.1,66.6-4.2,99.7-8c18.2-2.1,35-8.3,52.8-12.3
					c2.6-0.6,1.5-4.6-1.1-4c-15.3,3.5-30,9.2-45.5,11.4c-16.5,2.3-33.1,3.9-49.7,5.6c-32.2,3.4-64.8,4.3-97.1,1.6
					c-17.7-1.5-35.2-4.6-51.8-10.9C1522.1-10,1521-6,1523.5-5L1523.5-5z"/>
			</g>
		</g>
		<g class="st1">
			<g>
				<path class="st2" d="M198.9,0.1c-31.3,19.5-65,39.8-103.3,37.4C59.4,35.2,26.2,17.2-10.2,16c-1.9-0.1-1.9,2.9,0,3
					c29.6,1,57.1,13,85.8,18.8c13.5,2.7,27.3,3.8,41,1.9c13.9-1.9,27.3-6.5,40-12.4c15.2-7,29.5-15.8,43.7-24.7
					C202,1.7,200.5-0.9,198.9,0.1L198.9,0.1z"/>
			</g>
		</g>
		<path class="st3" d="M1929.8,50.4c-22.6-0.9-45.3-1.9-68-1.3c-14.5,0.3-29.3,1.4-42.9,6.5c-9.2,3.5-17.8,9-23.1,17.3
			c-1.1,1.7-2,3.6-1.8,5.6c0.3,2.3,2.2,4.2,4.3,5c2.2,0.9,4.5,0.9,6.9,0.8c5.9-0.3,11.7-1.5,17.3-3.5c7.7-2.8,14.8-7.2,22.4-10.1
			c7.6-2.9,15.8-4.4,23.9-5.7c19.1-3.2,38.8-6,57.7-1.5"/>
		<path class="st3" d="M1933.8,83.8c-11.6-1.5-23.5-0.7-34.7,2.3c-7.8,2.1-15.4,5.2-23.2,7.4c-18.3,5.2-37.6,5.3-56.6,5.3
			c-24.1,0-48.2-0.1-72.1-2.9c-7.4-0.9-14.8-2-21.9-4.4c-4.3-1.4-8.7-3.5-11.6-7c-2.9-3.5-4-8.9-1.5-12.7c2.2-3.4,6.3-4.8,10.1-5.9
			c66.2-19.6,135.8-27.5,204.6-23.3"/>
		<path class="st3" d="M1847.3,271c-16.4-12.2-36.6-18.7-57-20.8c-20.4-2.1-41,0.1-61.1,4c-8.2,1.6-16.9,3.7-22.8,9.6
			c-3.4,3.4-5.8,8.2-5.2,12.9c0.9,6.2,6.4,10.7,11.9,13.8c13.6,7.8,29,11.7,44.4,14.5c42.3,7.6,85.5,7,128.5,6.4
			c3.1,0,6.4-0.1,9.2-1.5s5-4.5,4.4-7.5c-0.8-3.9-5.5-5.5-9.4-6.1c-14.6-2.3-29.5-0.8-44.3-0.5c-37.7,1-75.7-5.3-110.7-19.2
			c-1-1.9,1.6-3.7,3.8-4.2c20.3-5,41.6-4,62.3-1.2s41.2,7.1,62.1,8.5c24.7,1.7,49.5-0.8,74.1-3.2"/>
		<path class="st3" d="M1944.4,325.4c-43.6,0.2-87.3-0.2-130.8-2.7c-45.2-2.5-91.9-7.8-130.6-31.3c-5.3-3.2-10.7-7.2-12.3-13.2
			c-1.5-6,1.6-12.5,6.2-16.6c4.7-4.1,10.7-6.2,16.7-8c18.5-5.6,37.7-8.6,56.9-11.2c39.2-5.3,79.7-8.8,117.8,1.7
			c9.1,2.5,18,5.8,27.1,7.9c14.1,3.3,28.7,4.1,43,2.1"/>
		<path class="st4" d="M1932.7,793c-37.5,0.9-75.1,0-112.6-2.6c-12.2-0.9-24.4-1.9-36.1-5.4c-3.2-0.9-6.9-2.6-7.4-5.9
			c-0.6-3.5,2.7-6.4,5.7-8.2c12.1-7.1,26.2-9.6,40.1-11.5c41.2-5.7,83-6.9,124.5-3.5"/>
		<path class="st4" d="M1937.1,779.8c-5.8,0.5-11.5,0.9-17.3,1.4c-36.8,2.9-74.2,5.8-110.3-2c-3.8-0.8-7.7-1.8-10.4-4.5
			c-0.4-0.4-0.7-0.8-0.9-1.3c-0.4-1.8,2.2-2.7,4-2.8c53.1-2.1,106.2-2.3,159.3-0.7"/>
		<path class="st4" d="M1926.9,741.4c-60.5,1.5-119.7,16.1-179.5,24.9c-16.9,2.5-34.1,4.6-50.2,10.3c-1.2,0.4-2.6,1.2-2.4,2.4
			c0.1,1.2,1.6,1.7,2.8,1.9c11.3,2,22.8,2,34.1,3.4c18.7,2.3,36.7,8.3,55.2,11.4c16.1,2.7,32.4,3.2,48.7,3.7
			c27.4,0.9,54.8,1.7,82.2,2.6"/>
		<path class="st4" d="M1636.8,775c-1,0-2.1,0.1-3,0.7c-0.8,0.6-1.2,1.9-0.5,2.7c0.3,0.3,0.8,0.4,1.3,0.5c5,1.1,10.2,1.2,15.3,1.2
			c7.5,0.1,14.9,0.2,22.4,0.3c3.3,0,6.9,0,9.6-1.9c5.2-3.7-1.7-4.8-4.4-4.8c-3.6,0-7.1,0.1-10.7,0.3
			C1656.9,774.3,1646.9,774.6,1636.8,775z"/>
		<g class="st1">
			<g>
				<path class="st2" d="M1938.2,711c-38.6,2.7-77,6.9-114.7,15.9c-18.5,4.4-36.8,9.2-55.6,12c-19.9,2.9-40.1,3.6-60.2,4.1
					c-10.6,0.2-21.1,0.5-31.7,0.4c-5.4,0-10.8-0.1-16.2-0.4c-5.9-0.3-12-0.6-16.8-4.4c0,0.9,0,1.8,0,2.8c5.9-6.3,14.7-7.9,22.9-9.3
					c10.2-1.8,20.6-2.8,30.9-3.5c19.5-1.3,39.1-1.5,58.6-3.2c38.6-3.3,75.9-14.9,114.2-20.5c22.7-3.3,45.7-5.3,68.6-6.2
					c2.5-0.1,2.5-4,0-3.9c-40.6,1.5-80.8,7.1-120.5,15.8c-20.3,4.5-40.6,8.9-61.4,10.8c-20.1,1.8-40.4,1.9-60.5,3.3
					c-11,0.8-22,1.9-32.9,3.9c-8.3,1.5-16.7,3.6-22.7,10c-0.7,0.7-0.8,2.1,0,2.8c6.2,4.9,13.9,5.3,21.5,5.7
					c9.9,0.4,19.7,0.3,29.6,0.2c20.3-0.3,40.6-0.6,60.8-2.5c39.3-3.7,77-16.6,116-22.5c23.3-3.5,46.7-5.6,70.2-7.2
					C1940.7,714.7,1940.7,710.8,1938.2,711L1938.2,711z"/>
			</g>
		</g>
		<g class="st1">
			<g>
				<path class="st2" d="M1821.8,680.8c-30.7,0.9-61.4-3.5-90.5-13.3c-3.1-1.1-6.7-2-9.5-3.8c-2.5-1.6-5.2-5-2.5-8.1
					c1.2-1.4,4-2,5.7-2.4c8.5-2.2,17.6-2.2,26.3-2.4c15.7-0.5,31.4-0.6,47.1-0.2c30.4,0.7,61,3.1,90.6,10.8c3,0.8,6,1.6,9,2.5
					c1.9,0.6,6.3,0.7,1.4,3c-1.6,0.7-3.9,0.6-5.6,0.6c-8.4,0.1-16.8-0.4-25.1-0.6c-15.7-0.5-31.4-1-47.1-1.7
					c-17.3-0.7-34.6-1.4-51.8-3c-3.9-0.4-7.9-0.8-11.7-1.7c-0.3-0.1-4.6-1.2-4.4-1.7c0.3-0.7,7.2-0.6,8.2-0.7
					c8.9-0.5,17.9-0.5,26.8,0c2.5,0.1,2.5-3.8,0-3.9c-9.6-0.6-19.2-0.6-28.8,0.1c-2.8,0.2-13,0.1-10.8,5.8c0.8,2.1,3.5,2.8,5.4,3.4
					c4.1,1.3,8.4,1.9,12.6,2.4c9.7,1,19.4,1.6,29.2,2.1c19.5,1,39.1,1.8,58.6,2.5c9.8,0.3,19.6,0.6,29.5,0.8
					c5.8,0.1,16.6,2.1,20.8-3.3c4.4-5.7-5.4-7.5-8.8-8.5c-9-2.6-18.1-4.7-27.3-6.4c-18.3-3.3-36.9-5-55.6-5.8
					c-19.4-0.8-38.8-0.9-58.1-0.4c-9.5,0.3-19.2,0.3-28.6,2.1c-5.2,1-12.5,2.8-12.4,9.4c0,7.6,8.2,10.4,14.2,12.4
					c10,3.5,20.2,6.3,30.6,8.5c20.6,4.4,41.7,6.2,62.7,5.6C1824.3,684.6,1824.3,680.7,1821.8,680.8L1821.8,680.8z"/>
			</g>
		</g>
		<g class="st1">
			<g>
				<path class="st2" d="M1924.3,657.5c-19.6-17.9-46.5-20.5-71.9-20.8c-15-0.2-29.9-0.2-44.9-0.3c-15-0.1-30.1-0.6-44.8-3.8
					c-6.5-1.4-12.9-3.3-19.1-5.4c-6.2-2.1-14-4.1-18.7-9c-1.9-2-2.8-3-1.4-5.4c1.2-2.3,2.2-2.3,4.6-3.1c3.5-1.2,7.2-2.2,10.8-3.2
					c7.3-1.9,14.6-3.3,22-4.4c28.8-4.3,58.5-4.5,87.6-3.9c34.5,0.6,68.9,3.5,103,8.4c2.5,0.4,3.5-3.4,1-3.8
					c-31.9-4.6-64-7.5-96.2-8.3c-31.4-0.9-63.5-0.8-94.7,3.6c-7.4,1.1-14.8,2.4-22.1,4.2c-5.7,1.4-13.8,2.5-18.6,6.3
					c-8.5,6.8,4.6,15.8,10.3,18.2c13.2,5.7,27.5,9.7,41.8,11.6c15.9,2.1,32,1.9,48,2c33.1,0.2,73.9-4.3,100.4,19.9
					C1923.4,661.9,1926.2,659.2,1924.3,657.5L1924.3,657.5z"/>
			</g>
		</g>
		<g class="st1">
			<g>
				<path class="st2" d="M1946.6,611.8c-27-1.5-54.1-3-81.1-4.5c-13.9-0.8-27.7-1.5-41.6-2.3c-12-0.7-24.1-1.8-36-0.9
					c-5.3,0.4-10.5,1.2-15.6,2.8c-3.4,1-9.5,2.5-10.5,6.4c-2.2,7.9,17.1,7.6,21.4,7.8c26.8,1,53.1,2.6,79.6,6.9
					c29.4,4.8,58.4,11.5,87.3,18.8c2.4,0.6,3.5-3.2,1-3.8c-46.5-11.6-93.7-22.1-141.7-24.9c-12-0.7-24.4,0.2-36.2-1.7
					c-0.8-0.1-6.6-0.8-6.8-1.6c-0.8-2.4,6.5-4,7.8-4.4c5.6-1.6,11.4-2.3,17.2-2.6c11.5-0.5,23.1,0.6,34.6,1.2
					c12.5,0.7,25.1,1.4,37.6,2.1c27.7,1.5,55.4,3.1,83.1,4.6C1949.1,615.8,1949.1,611.9,1946.6,611.8L1946.6,611.8z"/>
			</g>
		</g>
		<g class="st1">
			<g>
				<path class="st2" d="M1680.3,554.8c56.7-10.3,115.5-4.8,169.4,15.6c-0.2-1.2-0.3-2.4-0.5-3.6c-8.9,5-19.1,5.5-29.1,6
					c-10.6,0.5-21.1,0.8-31.7,1.3c-21.4,0.8-42.9,1.8-64.3,3.4c-41.7,3.1-82.6,11-124,16.8c-11.9,1.7-23.9,3.1-35.9,3.9
					c-6.1,0.4-12.2,0.7-18.3,0.9c-3,0.1-16.7,1.8-17.1-3.1c-0.5,0.6-1,1.3-1.4,1.9c17.5-2.4,35-4.5,52.3-7.6
					c17.6-3.2,34.9-8,52.3-11.8c35.5-7.8,71.4-8,107.5-7.6c20.5,0.2,40.9,0.4,61.4-1c2.5-0.2,2.5-4.1,0-3.9
					c-36.3,2.4-72.7-0.1-109,1.2c-17.6,0.7-35.2,2.3-52.5,5.7c-17.6,3.5-34.8,8.3-52.3,12c-20.1,4.1-40.5,6.5-60.8,9.3
					c-0.8,0.1-1.5,1.1-1.4,1.9c0.6,7.1,8.8,7.1,14.2,7.1c11.6,0,23.1-0.7,34.6-1.7c22.3-2.1,44.4-5.8,66.4-9.4
					c23.3-3.8,46.5-7.3,70-9.4c23.3-2.1,46.8-3.2,70.2-4.2c13.2-0.5,26.4-1,39.6-1.6c10.7-0.5,21.5-1.1,31.1-6.5
					c1.6-0.9,1-3-0.5-3.6c-54.5-20.7-114.1-26-171.4-15.6C1676.8,551.4,1677.8,555.2,1680.3,554.8L1680.3,554.8z"/>
			</g>
		</g>
		<g class="st1">
			<g>
				<path class="st2" d="M1672.6,537.9c8.1-9.8,25.3-7.5,36.6-7.8c14.2-0.3,28.4-0.3,42.6-0.2c28.7,0.2,57.4,0.8,86.1,0.3
					c28.1-0.4,56.2-1.9,84-5.7c7-1,14-2.1,20.9-3.3c5.8-1.1,11.9-1.9,17.4-4.1c5-2,16.7-11.7,8.3-17c-3.5-2.2-8.7-0.8-12.5-0.4
					c-7.8,0.8-15.6,1.5-23.4,2.1c-14.3,1.1-28.6,2-43,2.7c-29.3,1.3-58.7,1.5-88,0.6c-28.7-1-57.3-3.1-85.8-6.4
					c-28.5-3.4-57.6-10.7-86.5-9.2c-5.6,0.3-11.8,0.5-16.8,3.2c-3.1,1.6-7.7,5.3-5.4,9.4c2.2,3.9,9,4.1,12.9,4.6
					c8.3,1.1,16.7,1.1,25,1.6c33.1,1.9,66.1,5.6,98.9,11.1c2.5,0.4,3.5-3.3,1-3.8c-26-4.3-52.1-7.6-78.4-9.7
					c-13.6-1.1-27.3-1.4-40.9-2.5c-3.6-0.3-7.3-0.6-10.8-1.5c-0.7-0.2-3.1-0.5-3.5-1.1c-1.6-2.3,1.1-3.6,2.5-4.4
					c5.5-3.2,13.2-3,19.3-3.1c26.4-0.6,52.7,5.7,78.8,8.8c26.5,3.2,53.2,5.4,79.9,6.5c53.4,2.3,107,0.5,160.3-4.6
					c3.2-0.3,6.5-0.8,9.7-1c0.5,0,1.8-0.3,2.4-0.1c4.7,1.4,2.5,4.8,0.7,6.7c-3.4,3.7-8.9,5-13.6,6c-13.6,3-27.5,5-41.3,6.6
					c-26.2,3-52.5,4-78.8,4.3c-29.7,0.3-59.4-0.4-89.1-0.5c-14.5,0-29,0.1-43.5,0.6c-10,0.3-21.8,0.2-28.8,8.6
					C1668.3,537,1671,539.8,1672.6,537.9L1672.6,537.9z"/>
			</g>
		</g>
		<g class="st1">
			<g>
				<path class="st2" d="M1888.3,515.7c-13.8,1.6-27.8,1.6-41.6,2c-14.2,0.4-28.5,0.5-42.7,0.4c-13.9-0.1-27.8-0.3-41.7-0.9
					c-1.6-0.1-3.2,0-4.8-0.4c-4.2-0.9-1.1-2,0.7-2.3c3-0.5,6.5-0.1,9.5,0c7,0.1,13.9,0.3,20.9,0.8c2.5,0.2,2.5-3.7,0-3.9
					c-8.5-0.5-17.1-0.8-25.6-0.8c-3.4,0-12.4-1.2-12.8,4.2c-0.3,4.2,5,5.7,8.3,6.1c8.1,1,16.6,0.7,24.7,0.8
					c17.2,0.4,34.4,0.4,51.6,0.1c17.8-0.3,35.8-0.2,53.5-2.2C1890.8,519.3,1890.8,515.4,1888.3,515.7L1888.3,515.7z"/>
			</g>
		</g>
		<g class="st1">
			<g>
				<path class="st2" d="M1712.4,517.4c-24.5-1.7-49-0.9-73.3,2.3c-2.5,0.3-2.5,4.2,0,3.9c24.3-3.2,48.8-4,73.3-2.3
					C1714.9,521.5,1714.9,517.6,1712.4,517.4L1712.4,517.4z"/>
			</g>
		</g>
		<g class="st1">
			<g>
				<path class="st2" d="M1767.5,543.2c31.1-1.7,61.6,6.3,92.2,10.2c30.9,3.9,62,5.4,93.1,4.5c2.5-0.1,2.5-4,0-3.9
					c-31.1,0.9-62.2-0.6-93.1-4.5c-30.6-3.9-61.1-11.9-92.2-10.2C1765,539.5,1765,543.4,1767.5,543.2L1767.5,543.2z"/>
			</g>
		</g>
		<g class="st1">
			<g>
				<path class="st2" d="M1960.4,575.1c-19.2-2.1-38.4-3.4-57.7-3.7c-9-0.1-18.2-0.5-27.2,0.2c-5.5,0.4-10.9,1.9-13.7,6.9
					c-0.6,1-0.1,2.6,1.2,2.9c14.9,3.4,30.3,4.1,45.5,5.4c16.6,1.4,33.2,2.9,49.8,4.3c2.5,0.2,2.5-3.7,0-3.9
					c-15.9-1.4-31.9-2.8-47.8-4.1c-15.5-1.3-31.3-2-46.5-5.4c0.4,1,0.8,1.9,1.2,2.9c3.8-6.6,14.4-5.2,20.9-5.3
					c8.2-0.1,16.3,0,24.5,0.2c16.7,0.5,33.3,1.7,49.9,3.5C1962.9,579.3,1962.9,575.4,1960.4,575.1L1960.4,575.1z"/>
			</g>
		</g>
		<g class="st1">
			<g>
				<path class="st2" d="M1933.4,562.8c-15.8,1.4-31.5-1.7-47.3-0.9c-6.7,0.3-13.5,1.3-19.8,3.7c-6.7,2.5-12.3,6.9-18.8,10
					c-7.8,3.7-17.1,4.5-25.6,5.4c-8.4,0.9-16.9,1.4-25.3,1.9c-16.5,1-32.9,2.2-49.3,4.2c-18.1,2.1-36.1,5-54,8.5
					c-2.5,0.5-1.4,4.2,1,3.8c32.2-6.3,64.7-10.3,97.4-12.2c15.9-1,32.2-1.4,47.7-4.8c7.1-1.6,12.9-4.9,19-8.6
					c7-4.2,14.4-6.6,22.4-7.5c17.5-2,35,2,52.5,0.5C1935.9,566.5,1935.9,562.6,1933.4,562.8L1933.4,562.8z"/>
			</g>
		</g>
		<path class="st3" d="M1872.9,213.1c-20.3,0-40.7,0.1-61,0.1c-17.4,0-35.6-0.1-51.2-8c-2.4-1.2-4.7-2.6-6.2-4.8
			c-1.6-2.1-2.2-5.1-0.9-7.5c1.3-2.4,4.3-3.5,7-4.2c11.9-3.1,24.4-3.7,36.7-3.8c35.7-0.3,71.9,3.1,105.5,15.1
			c0.3,1.8-2.2,2.6-4.1,2.7c-25.8,0.8-51.6,1.2-77.4,1c-7.6-0.1-15.3-0.2-22.9-1.2c-6.5-0.9-12.9-2.5-19-4.8
			c0.3-1.7,2.5-2.1,4.2-2.2c19.1-0.5,38.1-0.4,57.2,0.4"/>
		<path class="st5" d="M1926.5,459.7c-87.9,5.4-176.2,5.9-264.2,1.5c-20.4-1-42.1-2.8-58.4-15.1c3.4-8,14-9.3,22.7-9.4
			c106-1,212,3.4,317.5,13"/>
		<path class="st5" d="M1058.9,619.5c-78.8-4.8-158.9,5.2-236-11.6c4.3-2.6,9.5-3.2,14.4-3.6c26.7-2.4,53.4-2.7,80.2-3
			c23.1-0.2,46.2-0.4,69.3-0.6c14.1-0.1,28.3-0.1,42.2,2.3c25.1,4.4,48.8,16.8,74.3,17.6"/>
		<g class="st1">
			<g>
				<path class="st2" d="M-16.7,125.9c63.1-11.5,128-8.4,190.9,2.8c7.5,1.3,15.1,2.8,22.6,4.4c6.6,1.4,14.6,2.1,20.4,6
					c8,5.5,1.3,12.9-5,16.2c-6.3,3.2-13.5,3.9-20.4,4.1c-31.8,1.3-63.8,0.7-95.6,0.4c-37-0.4-73.9-1.5-110.9-3.2
					c-2.7-0.1-2.7,4.1,0,4.2c35.9,1.7,71.9,2.7,107.9,3.2c18.2,0.2,36.3,0.3,54.5,0.2c16.6-0.1,33.6,0.7,50.1-1
					c9.7-1,26.2-5.1,27.6-17c1.4-12.5-17.1-15-25.5-16.7c-33.6-7.1-67.7-12.1-102-14.1c-38.6-2.2-77.5-0.4-115.6,6.5
					C-20.5,122.3-19.3,126.3-16.7,125.9L-16.7,125.9z"/>
			</g>
		</g>
		<g class="st1">
			<g>
				<path class="st2" d="M-9.9,137.5c29.4-1.2,58.9-2.5,88.4-2.4c28,0.1,57.6-0.3,84.2,9.2c-0.3-1.2-0.6-2.3-0.9-3.5
					c-5.1,4.6-15.3,2.9-21.6,3c-7.3,0.1-14.6,0.2-21.9,0.3c-14.9,0.2-29.9,0.4-44.8,0.5c-29.9,0.4-59.7,0.7-89.6,1.1
					c-2.7,0-2.7,4.2,0,4.2c31.8-0.4,63.7-0.8,95.5-1.2c15.9-0.2,31.8-0.4,47.8-0.6c7.6-0.1,15.3-0.2,22.9-0.3
					c5.4-0.1,10.5-0.4,14.6-4.1c1.3-1.1,0.5-3-0.9-3.5c-26.4-9.4-55.7-9.1-83.4-9.3c-30.1-0.2-60.3,1.1-90.4,2.4
					C-12.6,133.4-12.6,137.6-9.9,137.5L-9.9,137.5z"/>
			</g>
		</g>
		<g class="st1">
			<g>
				<path class="st2" d="M355.6,423c-40.3-0.7-80.6,0.3-120.8,3.1c-39.7,2.8-79.2,8-118.9,10.3c-22.6,1.3-45.2,1.4-67.7-0.5
					c0.7,0.9,1.3,1.8,2,2.7c2.1-7.3,11.4-9.9,17.8-12.2c7.3-2.6,14.8-4.5,22.4-5.9c15.2-2.8,30.7-3.6,46.1-3.7
					c32.6-0.4,65.3,0.4,98,0.7c19.1,0.2,38.3,0.3,57.4,0.5c2.7,0,2.7-4.2,0-4.2c-36-0.3-71.9-0.6-107.9-0.9
					c-32.9-0.3-66.7-2.4-99.1,4.5c-8.7,1.9-17.3,4.4-25.5,8c-5.8,2.5-11.3,5.8-13.2,12.2c-0.4,1.4,0.7,2.5,2,2.7
					c40,3.4,80,0.1,119.8-3.8c39.7-3.9,79.4-7.4,119.3-8.7c22.8-0.7,45.6-0.9,68.4-0.5C358.3,427.3,358.3,423.1,355.6,423L355.6,423
					z"/>
			</g>
		</g>
		<g class="st1">
			<g>
				<path class="st2" d="M317.7,502c-89.1,13.5-179.5,18.8-269.6,15.9c-25.5-0.8-51-2.3-76.4-4.4c-2.7-0.2-2.7,4,0,4.2
					c90.7,7.6,182,6.9,272.6-2.2c24.9-2.5,49.8-5.7,74.6-9.4C321.5,505.7,320.4,501.6,317.7,502L317.7,502z"/>
			</g>
		</g>
		<g class="st1">
			<g>
				<path class="st2" d="M338,459.4c-103.1,8-206.6,11-310,8.9c-29.2-0.6-58.3-1.6-87.5-2.9c-2.7-0.1-2.7,4.1,0,4.2
					c103.3,4.9,206.9,4.8,310.2-0.4c29.1-1.5,58.3-3.3,87.3-5.6C340.7,463.4,340.7,459.2,338,459.4L338,459.4z"/>
			</g>
		</g>
		<path class="st5" d="M-18.7,786.2c69.3-3.1,139.2,5.9,205.5,26.4"/>
	</g>
</g>
<g id="レイヤー_1">
</g>
<g id="flat_xA0_Image">
</g>
</svg>
