<?xml version="1.0" encoding="utf-8"?>
<!-- Generator: Adobe Illustrator 22.1.0, SVG Export Plug-In . SVG Version: 6.00 Build 0)  -->
<svg version="1.1" id="レイヤー_1" xmlns="http://www.w3.org/2000/svg" xmlns:xlink="http://www.w3.org/1999/xlink" x="0px"
	 y="0px" viewBox="0 0 90 90" style="enable-background:new 0 0 90 90;" xml:space="preserve">
<style type="text/css">
	.st0{opacity:0.6;}
	.st1{fill:#1A1A1A;}
	.st2{opacity:0.9;}
	.st3{fill:#FFFFFF;}
</style>
<g>
	<g class="st0">
		<circle class="st1" cx="45" cy="45" r="45"/>
	</g>
	<g class="st2">
		<path class="st3" d="M41.1,69.9c0.6,0,1.2-0.2,1.7-0.5c1.5-1,2-3,1.1-4.6L31.6,45l12.4-19.8c1-1.5,0.5-3.6-1.1-4.6
			s-3.6-0.5-4.6,1.1L24.9,43.2c-0.7,1.1-0.7,2.4,0,3.5l13.5,21.6C38.9,69.3,40,69.9,41.1,69.9z"/>
		<path class="st3" d="M60.1,69.9c0.6,0,1.2-0.2,1.7-0.5c1.5-1,2-3,1.1-4.6L50.5,45l12.4-19.8c1-1.5,0.5-3.6-1.1-4.6
			c-1.5-1-3.6-0.5-4.6,1.1L43.8,43.2c-0.7,1.1-0.7,2.4,0,3.5l13.5,21.6C57.9,69.3,58.9,69.9,60.1,69.9z"/>
	</g>
</g>
</svg>
