<?xml version="1.0" encoding="utf-8"?>
<!-- Generator: Adobe Illustrator 22.1.0, SVG Export Plug-In . SVG Version: 6.00 Build 0)  -->
<svg version="1.1" id="レイヤー_1" xmlns="http://www.w3.org/2000/svg" xmlns:xlink="http://www.w3.org/1999/xlink" x="0px"
	 y="0px" viewBox="0 0 90 90" style="enable-background:new 0 0 90 90;" xml:space="preserve">
<style type="text/css">
	.st0{opacity:0.6;}
	.st1{fill:#1A1A1A;}
	.st2{opacity:0.9;}
	.st3{fill:#FFFFFF;}
</style>
<g>
	<g class="st0">
		<circle class="st1" cx="45" cy="45" r="45"/>
	</g>
	<g class="st2">
		<path class="st3" d="M48.9,69.9c-0.6,0-1.2-0.2-1.7-0.5c-1.5-1-2-3-1.1-4.6L58.4,45L46.1,25.2c-1-1.5-0.5-3.6,1.1-4.6
			s3.6-0.5,4.6,1.1l13.5,21.6c0.7,1.1,0.7,2.4,0,3.5L51.7,68.3C51.1,69.3,50,69.9,48.9,69.9z"/>
		<path class="st3" d="M29.9,69.9c-0.6,0-1.2-0.2-1.7-0.5c-1.5-1-2-3-1.1-4.6L39.5,45L27.1,25.2c-1-1.5-0.5-3.6,1.1-4.6
			c1.5-1,3.6-0.5,4.6,1.1l13.5,21.6c0.7,1.1,0.7,2.4,0,3.5L32.8,68.3C32.1,69.3,31.1,69.9,29.9,69.9z"/>
	</g>
</g>
</svg>
