<svg xmlns="http://www.w3.org/2000/svg" viewBox="0 0 29.43 24.94"><defs><style>.cls-1{fill:#359e6b;}</style></defs><title>アセット 4</title><g id="レイヤー_2" data-name="レイヤー 2"><g id="レイヤー_1-2" data-name="レイヤー 1"><path class="cls-1" d="M25,13.15v1.79A3.07,3.07,0,0,1,21.95,18H12.48V16.1a.6.6,0,0,0-.87-.53L3.5,19.69a.6.6,0,0,0,0,1.06l8.12,4.12a.6.6,0,0,0,.87-.53V22.43h9.47a7.5,7.5,0,0,0,7.49-7.49v-4Z"/><path class="cls-1" d="M24.64,4.19,16.52.06a.6.6,0,0,0-.87.53V2.51H7.49A7.5,7.5,0,0,0,0,10v5.86l4.42-2.24V10A3.07,3.07,0,0,1,7.49,6.93h8.17V8.84a.6.6,0,0,0,.87.53l8.12-4.12a.6.6,0,0,0,0-1.06Z"/></g></g></svg>