<svg xmlns="http://www.w3.org/2000/svg" viewBox="0 0 33.36 37.16"><defs><style>.cls-1{fill:#ffed28;}.cls-2{fill:#666;}.cls-3{fill:#c5c5c5;}.cls-4{fill:#ffed46;}.cls-5{fill:#f3f3f6;}.cls-6{fill:#dad4d1;}.cls-7{opacity:0.06;}</style></defs><title>アセット 1</title><g id="レイヤー_2" data-name="レイヤー 2"><g id="レイヤー_1-2" data-name="レイヤー 1"><path class="cls-1" d="M2.12,12.45H.64a.63.63,0,1,1,0-1.26H2.12a.63.63,0,1,1,0,1.26Z"/><path class="cls-1" d="M32.72,12.45H31.24a.63.63,0,1,1,0-1.26h1.48a.63.63,0,1,1,0,1.26Z"/><path class="cls-1" d="M27.16,2.11a.64.64,0,0,1-.45-.19.63.63,0,0,1,0-.89l.86-.85a.65.65,0,0,1,.91,0,.63.63,0,0,1,0,.89l-.86.85A.64.64,0,0,1,27.16,2.11Z"/><path class="cls-1" d="M5.34,23.63a.64.64,0,0,1-.45-.19.63.63,0,0,1,0-.89l.86-.85a.65.65,0,0,1,.91,0,.63.63,0,0,1,0,.89l-.86.85A.64.64,0,0,1,5.34,23.63Z"/><path class="cls-1" d="M6.2,2.11a.64.64,0,0,1-.45-.19l-.86-.85a.63.63,0,0,1,0-.89.65.65,0,0,1,.91,0L6.65,1a.63.63,0,0,1,0,.89A.64.64,0,0,1,6.2,2.11Z"/><path class="cls-1" d="M28,23.63a.64.64,0,0,1-.45-.19l-.86-.85a.63.63,0,0,1,0-.89.65.65,0,0,1,.91,0l.86.85a.63.63,0,0,1,0,.89A.64.64,0,0,1,28,23.63Z"/><polygon class="cls-2" points="21.37 34.3 20.31 34.81 18.91 36.08 14.46 36.08 13.05 34.81 11.99 34.3 21.37 34.3"/><path class="cls-3" d="M14.83,36.08s.12,1.08,1.85,1.08,1.85-1.08,1.85-1.08Z"/><path class="cls-4" d="M28.24,12.38a11.29,11.29,0,0,1-3.39,8.06c-2.09,2.06-3.36,2.75-3.55,6.06H12.05c-.16-2.87-1.13-3.77-2.75-5.29l-.8-.77a11.29,11.29,0,0,1,0-16.12,11.68,11.68,0,0,1,15-1.12,11.92,11.92,0,0,1,1.32,1.12c.14.14.28.28.41.43s.51.58.74.89A11.22,11.22,0,0,1,28.24,12.38Z"/><path class="cls-5" d="M10.7,32.8A1.81,1.81,0,0,1,12.53,31h8.3a1.81,1.81,0,0,1,1.83,1.78h0a1.81,1.81,0,0,1-1.83,1.78h-8.3A1.81,1.81,0,0,1,10.7,32.8Z"/><path class="cls-6" d="M10.71,32.93a1.8,1.8,0,0,0,1.82,1.66h8.3a1.8,1.8,0,0,0,1.82-1.66Z"/><path class="cls-5" d="M10.7,29.29a1.81,1.81,0,0,1,1.83-1.78h8.3a1.81,1.81,0,0,1,1.83,1.78h0a1.81,1.81,0,0,1-1.83,1.78h-8.3a1.81,1.81,0,0,1-1.83-1.78Z"/><path class="cls-6" d="M10.71,29.41a1.8,1.8,0,0,0,1.82,1.66h8.3a1.8,1.8,0,0,0,1.82-1.66Z"/><path class="cls-5" d="M10.7,25.77A1.81,1.81,0,0,1,12.53,24h8.3a1.81,1.81,0,0,1,1.83,1.78h0a1.81,1.81,0,0,1-1.83,1.78h-8.3a1.81,1.81,0,0,1-1.83-1.78Z"/><path class="cls-6" d="M10.71,25.89a1.8,1.8,0,0,0,1.82,1.66h8.3a1.8,1.8,0,0,0,1.82-1.66Z"/><path class="cls-7" d="M26,5.64c-.23-.31-.48-.61-.74-.89s-.27-.29-.41-.43A11.93,11.93,0,0,0,23.53,3.2,11.6,11.6,0,0,0,16.68,1V37.16c1.74,0,1.85-1.08,1.85-1.08h.37l1.41-1.27.47-.23h0a1.88,1.88,0,0,0,.36,0l.15,0,.18-.06.19-.1.1-.06a1.79,1.79,0,0,0,.22-.16l0,0a1.82,1.82,0,0,0,.21-.23h0a1.74,1.74,0,0,0,.35-.93h0s0-.08,0-.12A1.79,1.79,0,0,0,21,31h.14l.15,0,.18-.06.19-.1.1-.06a1.79,1.79,0,0,0,.22-.16l0,0a1.82,1.82,0,0,0,.21-.23h0a1.74,1.74,0,0,0,.35-.93h0s0-.08,0-.12A1.79,1.79,0,0,0,21,27.53h.14l.14,0,.19-.06.19-.1.11-.06A1.78,1.78,0,0,0,22,27.1l0,0a1.82,1.82,0,0,0,.21-.23h0a1.74,1.74,0,0,0,.35-.93h0s0-.08,0-.12a1.77,1.77,0,0,0-.92-1.54c.56-1.53,1.63-2.31,3.12-3.78A11.29,11.29,0,0,0,26,5.64Z"/></g></g></svg>