<svg version="1.1" xmlns="http://www.w3.org/2000/svg" xmlns:xlink="http://www.w3.org/1999/xlink" x="0px" y="0px" viewBox="0 0 1000 1000" enable-background="new 0 0 1000 1000" xml:space="preserve">
<g><g transform="translate(0.000000,511.000000) scale(0.100000,-0.100000)"><path d="M6349.4,4800.9c-66.6-489.9-548.5-966.6-1350-1336.7c-466-215.7-609.8-295.6-820.1-452.7c-556.5-423.4-886.7-1043.8-953.3-1797.3l-16-207.7h687h689.6l-8,284.9c-10.7,322.2,26.6,617.7,106.5,828.1c74.6,199.7,295.6,426,705.6,718.9c612.4,436.7,942.6,766.9,1046.4,1035.8c101.2,268.9,87.9,673.7-32,966.6l-39.9,93.2L6349.4,4800.9z"/><path d="M7012.4,2779.9c-39.9-135.8-77.2-189.1-237-348.8c-149.1-146.5-252.9-221-468.7-330.2c-479.3-245-615.1-426-636.4-860.1l-10.7-234.3h681.7h684.3l-85.2,125.2c-170.4,247.6-223.7,500.6-146.4,681.7c18.6,47.9,90.5,149.1,157.1,223.7c162.4,189,215.7,335.5,199.7,548.5c-8,90.5-32,207.7-53.3,258.3l-39.9,93.2L7012.4,2779.9z"/><path d="M2137,561.8c5.3-85.2,18.6-308.9,26.6-497.9c37.3-860.1,245-1901.2,508.6-2540.2c221-535.2,521.9-918.7,838.8-1070.4l170.4-79.9H5042h1358l141.1,71.9c282.2,138.5,532.5,460.6,748.2,958.6c90.5,213,109.2,237,189,258.3c612.4,154.4,979.9,316.9,1275.5,556.5c359.5,292.9,577.8,737.6,553.8,1131.7c-37.3,636.4-599.1,1027.8-1254.1,873.4c-101.2-24-189.1-42.6-197.1-42.6c-5.3,0-8,119.8-2.6,266.3l8,266.3H4994.1H2123.7L2137,561.8z M8487.6-418c175.7-90.5,234.3-319.5,135.8-535.2c-69.2-154.5-189-279.6-386.1-407.4c-162.4-106.5-599.1-308.9-620.4-287.6c-5.3,8,21.3,178.4,58.6,380.8c37.3,205,77.2,439.3,85.2,527.2c13.3,127.8,32,170.4,103.8,242.3c47.9,47.9,133.1,98.5,189.1,114.5C8181.4-346.2,8381.1-362.1,8487.6-418z"/><path d="M100-3959.5c0-74.6,186.4-245,370.1-343.5c229-119.8,583.1-237,998.5-327.5l322.2-71.9l3048.8-8c2697.3-8,3080.8-5.3,3328.4,32c769.5,119.8,1451.2,362.1,1650.9,591.1c162.4,183.7,591.1,167.7-4819.5,167.7C667.2-3919.6,100-3924.9,100-3959.5z"/></g></g>
</svg>
