<?xml version="1.0" encoding="utf-8"?>
<!-- Generator: Adobe Illustrator 22.1.0, SVG Export Plug-In . SVG Version: 6.00 Build 0)  -->
<svg version="1.1" id="レイヤー_1" xmlns="http://www.w3.org/2000/svg" xmlns:xlink="http://www.w3.org/1999/xlink" x="0px"
	 y="0px" viewBox="0 0 60 60" style="enable-background:new 0 0 60 60;" xml:space="preserve">
<style type="text/css">
	.st0{fill:#CCCCCC;}
	.st1{fill:#AEAEAE;}
	.st2{fill:#666666;}
	.st3{fill:#F9F9F9;}
	.st4{fill:#CBCBCB;}
	.st5{fill:#333333;}
	.st6{fill:#1A1A1A;}
	.st7{fill:#FC585F;}
	.st8{fill:#23DFCB;}
	.st9{fill:#F1F1F1;}
	.st10{fill:#989898;}
	.st11{fill:#1ABBA7;}
	.st12{fill:#F6E057;}
	.st13{fill:#F54850;}
</style>
<g>
	<g>
		<circle class="st9" cx="30" cy="30" r="29.5"/>
		<path class="st10" d="M30,1c16,0,29,13,29,29S46,59,30,59S1,46,1,30S14,1,30,1 M30,0C13.4,0,0,13.4,0,30s13.4,30,30,30
			s30-13.4,30-30S46.6,0,30,0L30,0z"/>
	</g>
	<g>
		<path class="st5" d="M30,55.6C15.9,55.6,4.4,44.1,4.4,30C4.4,15.9,15.9,4.4,30,4.4S55.6,15.9,55.6,30C55.6,44.1,44.1,55.6,30,55.6
			z"/>
		<path class="st6" d="M30,4.6C44,4.6,55.4,16,55.4,30S44,55.4,30,55.4S4.6,44,4.6,30S16,4.6,30,4.6 M30,4.2
			C15.8,4.2,4.2,15.8,4.2,30S15.8,55.8,30,55.8S55.8,44.2,55.8,30S44.2,4.2,30,4.2L30,4.2z"/>
	</g>
</g>
</svg>
