<svg xmlns="http://www.w3.org/2000/svg" xmlns:xlink="http://www.w3.org/1999/xlink" viewBox="0 0 209.78 304.51"><defs><style>.cls-1{fill:url(#linear-gradient);}.cls-2{fill:url(#名称未設定グラデーション_8);}.cls-3{fill:url(#名称未設定グラデーション_6);}.cls-4{fill:#fff;}.cls-5{clip-path:url(#clip-path);}.cls-6{fill:#333;}.cls-7{fill:url(#linear-gradient-3);}.cls-8{fill:url(#linear-gradient-4);}.cls-9{fill:url(#linear-gradient-5);}.cls-10{fill:url(#linear-gradient-6);}.cls-11{fill:url(#linear-gradient-7);}.cls-12{fill:url(#linear-gradient-8);}.cls-13{opacity:0.4;}.cls-14{fill:url(#新規グラデーションスウォッチ_5);}.cls-15{fill:#c9c9c9;}.cls-16,.cls-17{fill:none;}.cls-16{opacity:0.12;}.cls-17{opacity:0.18;}</style><linearGradient id="linear-gradient" x1="64.09" y1="275.43" x2="145.69" y2="275.43" gradientUnits="userSpaceOnUse"><stop offset="0.01" stop-color="#c7c7c7"/><stop offset="0.2" stop-color="#adadad"/><stop offset="0.5" stop-color="#adadad"/><stop offset="0.72" stop-color="#c7c7c7"/><stop offset="1" stop-color="#949494"/></linearGradient><radialGradient id="名称未設定グラデーション_8" cx="129.78" cy="123.21" r="77.72" gradientTransform="translate(-22.61 14.92) scale(0.98 0.94)" gradientUnits="userSpaceOnUse"><stop offset="0" stop-color="#fff"/><stop offset="0.29" stop-color="#fff"/><stop offset="0.43" stop-color="#f6f8f4"/><stop offset="0.68" stop-color="#dfe4d7"/><stop offset="0.93" stop-color="#c2ccb2"/></radialGradient><radialGradient id="名称未設定グラデーション_6" cx="104.89" cy="130.77" r="76.23" gradientUnits="userSpaceOnUse"><stop offset="0" stop-color="#fff"/><stop offset="0.29" stop-color="#fff"/><stop offset="0.42" stop-color="#f6f8f4"/><stop offset="0.64" stop-color="#dfe5d7"/><stop offset="0.92" stop-color="#b9c6a7"/><stop offset="0.93" stop-color="#b8c5a6"/></radialGradient><clipPath id="clip-path"><path class="cls-1" d="M96,289.66a12.32,12.32,0,0,0,17.81,0l29.17-23c4.9-5.07,3-9.23-4.22-9.23H71c-7.22,0-9.12,4.15-4.22,9.23Z"/></clipPath><linearGradient id="linear-gradient-3" x1="56.11" y1="224.25" x2="153.67" y2="224.25" xlink:href="#linear-gradient"/><linearGradient id="linear-gradient-4" x1="-1492.39" y1="5148.29" x2="-1387.23" y2="5148.29" gradientTransform="matrix(1, -0.04, 0, 1, 1544.7, -4950.4)" gradientUnits="userSpaceOnUse"><stop offset="0.01" stop-color="#c7c7c7"/><stop offset="0.2" stop-color="#e1e1e1"/><stop offset="0.5" stop-color="#fff"/><stop offset="0.72" stop-color="#e1e1e1"/><stop offset="1" stop-color="#949494"/></linearGradient><linearGradient id="linear-gradient-5" x1="-1492.39" y1="5130.98" x2="-1387.23" y2="5130.98" xlink:href="#linear-gradient-4"/><linearGradient id="linear-gradient-6" x1="-1492.39" y1="5113.68" x2="-1387.23" y2="5113.68" xlink:href="#linear-gradient-4"/><linearGradient id="linear-gradient-7" x1="-1492.39" y1="5096.38" x2="-1387.23" y2="5096.38" xlink:href="#linear-gradient-4"/><linearGradient id="linear-gradient-8" x1="48.56" y1="186.45" x2="161.22" y2="186.45" gradientTransform="matrix(1, 0, 0, 1, 0, 0)" xlink:href="#linear-gradient-4"/><radialGradient id="新規グラデーションスウォッチ_5" cx="127.05" cy="209.82" r="77.12" gradientTransform="translate(-20.17 45.54) scale(0.98 0.89)" gradientUnits="userSpaceOnUse"><stop offset="0" stop-color="#fff"/><stop offset="0.32" stop-color="#fff"/><stop offset="0.93" stop-color="#dde3d5"/></radialGradient></defs><title>アセット 8</title><g id="レイヤー_2" data-name="レイヤー 2"><g id="レイヤー_2-2" data-name="レイヤー 2"><path class="cls-2" d="M108.48,220.64h-7.17c-27.34,0-35-26.06-49.72-49.6V90.49a49.81,49.81,0,0,1,49.72-49.6h7.17a49.81,49.81,0,0,1,49.72,49.6V171C142.5,195.55,135.82,220.64,108.48,220.64Z"/><path class="cls-3" d="M108.48,40.89a49.81,49.81,0,0,1,49.72,49.6V171c-15.69,24.51-22.37,49.6-49.72,49.6h-7.17c-27.34,0-35-26.06-49.72-49.6V90.49a49.81,49.81,0,0,1,49.72-49.6h7.17m0-2.41h-7.17a52.13,52.13,0,0,0-52.13,52V171a2.41,2.41,0,0,0,.36,1.28c2.86,4.59,5.47,9.32,8,13.89,10.48,19,20.38,36.85,43.76,36.85h7.17c23,0,32.14-16.41,42.77-35.41,2.8-5,5.69-10.17,9-15.31a2.41,2.41,0,0,0,.38-1.3V90.49a52.13,52.13,0,0,0-52.13-52Z"/><rect class="cls-4" x="41.89" y="165.15" width="126" height="19.85" rx="2.58" ry="2.58"/><path class="cls-1" d="M96,289.66a12.32,12.32,0,0,0,17.81,0l29.17-23c4.9-5.07,3-9.23-4.22-9.23H71c-7.22,0-9.12,4.15-4.22,9.23Z"/><g class="cls-5"><rect class="cls-6" x="57.79" y="259.97" width="93.13" height="23.83"/></g><path class="cls-7" d="M56.11,186.3v68.61c0,4.13,5,7.27,11.12,7.27H142c6.11,0,11.71-3.14,11.71-7.27V186.3Z"/><path class="cls-8" d="M157.48,248a4.44,4.44,0,0,1-4.15,4.35l-96.87,3.49a4.07,4.07,0,0,1-4.15-4.05h0a4.44,4.44,0,0,1,4.15-4.35L153.32,244a4.07,4.07,0,0,1,4.15,4.05Z"/><path class="cls-9" d="M157.48,230.74a4.44,4.44,0,0,1-4.15,4.35l-96.87,3.49a4.07,4.07,0,0,1-4.15-4.05h0a4.44,4.44,0,0,1,4.15-4.35l96.87-3.49a4.07,4.07,0,0,1,4.15,4.05Z"/><path class="cls-10" d="M157.48,213.44a4.44,4.44,0,0,1-4.15,4.35l-96.87,3.49a4.07,4.07,0,0,1-4.15-4.05h0a4.44,4.44,0,0,1,4.15-4.35l96.87-3.49a4.07,4.07,0,0,1,4.15,4.05Z"/><path class="cls-11" d="M157.48,196.14a4.44,4.44,0,0,1-4.15,4.35L56.46,204a4.07,4.07,0,0,1-4.15-4.05h0a4.44,4.44,0,0,1,4.15-4.35l96.87-3.49a4.07,4.07,0,0,1,4.15,4.05Z"/><rect class="cls-12" x="48.56" y="184.9" width="112.66" height="3.1" rx="1.55" ry="1.55"/><g class="cls-13"><path class="cls-14" d="M93.73,302.7c-11.81,0-21.42-8.79-21.42-19.6v-2.39c-14.93-4.62-25.25-17.62-25.25-32V185.45H162.72v63.22c0,14.42-10.31,27.41-25.25,32v2.39c0,10.81-9.61,19.6-21.42,19.6Z"/><path class="cls-15" d="M160.92,187.26v61.41c0,14.45-10.69,26.73-25.25,30.68v3.74c0,9.79-8.83,17.8-19.62,17.8H93.73c-10.79,0-19.62-8-19.62-17.8v-3.74c-14.56-3.95-25.25-16.23-25.25-30.68V187.26h112m3.61-3.61H45.26v65c0,14.8,10.25,28.16,25.25,33.34v1.08c0,11.81,10.42,21.41,23.23,21.41h22.32c12.81,0,23.23-9.6,23.23-21.41V282c15-5.19,25.25-18.55,25.25-33.34v-65Z"/></g></g><g id="レイヤー_1-2" data-name="レイヤー 1"><circle class="cls-16" cx="104.89" cy="104.89" r="104.89"/><circle class="cls-17" cx="104.89" cy="104.89" r="71.35"/></g></g></svg>