<?xml version="1.0" encoding="utf-8"?>
<!-- Generator: Adobe Illustrator 22.1.0, SVG Export Plug-In . SVG Version: 6.00 Build 0)  -->
<svg version="1.1" id="レイヤー_1" xmlns="http://www.w3.org/2000/svg" xmlns:xlink="http://www.w3.org/1999/xlink" x="0px"
	 y="0px" viewBox="0 0 40 45" style="enable-background:new 0 0 40 45;" xml:space="preserve">
<style type="text/css">
	.st0{clip-path:url(#SVGID_2_);fill:#FF4A00;}
	.st1{clip-path:url(#SVGID_2_);fill:#F6A900;}
	.st2{clip-path:url(#SVGID_2_);fill:#FFF100;}
	.st3{clip-path:url(#SVGID_2_);fill:#00AE79;}
	.st4{clip-path:url(#SVGID_2_);fill:#5A6CFF;}
	.st5{clip-path:url(#SVGID_2_);fill:#990099;}
	.st6{fill:#FFFFFF;}
	.st7{fill:#666666;}
	.st8{fill:#C2C2C2;}
	.st9{fill:#FFF100;}
	.st10{fill:#F0F0F3;}
	.st11{fill:#D7D1CE;}
	.st12{opacity:6.000000e-02;}
	.st13{fill:#FF4A00;}
	.st14{fill:#00AE79;}
	.st15{fill:#5A6CFF;}
	.st16{fill:#F6A900;}
	.st17{fill:#990099;}
	.st18{fill:#804000;}
	.st19{fill:#FF7F7F;}
</style>
<g>
	<defs>
		<path id="SVGID_1_" d="M33.7,14.8c0,3.8-1.5,7.2-4,9.7c-2.5,2.5-4,3.3-4.2,7.2h-1.2c-1.1,0-2.5,0-2.5,0h-3.6c0,0-1.3,0-2.4,0h-1.3
			c-0.2-3.4-1.4-4.5-3.3-6.3c-0.3-0.3-0.6-0.6-1-0.9c-2.5-2.5-4-5.9-4-9.7s1.5-7.2,4-9.6c2.5-2.5,5.9-4,9.8-4c3.1,0,5.9,1,8.2,2.7
			c0.6,0.4,1.1,0.9,1.6,1.3c0.2,0.2,0.3,0.3,0.5,0.5C30.5,6,30.7,6.4,31,6.7C32.7,9,33.7,11.8,33.7,14.8z"/>
	</defs>
	<clipPath id="SVGID_2_">
		<use xlink:href="#SVGID_1_"  style="overflow:visible;"/>
	</clipPath>
	<rect x="1.6" y="0.5" class="st0" width="37.4" height="5"/>
	<rect x="1.6" y="5.5" class="st1" width="37.4" height="5"/>
	<rect x="1.6" y="10.4" class="st2" width="37.4" height="5"/>
	<rect x="1.6" y="15.4" class="st3" width="37.4" height="5"/>
	<rect x="1.6" y="20.3" class="st4" width="37.4" height="5"/>
	<rect x="1.6" y="25.3" class="st5" width="37.4" height="5"/>
</g>
<path class="st6" d="M2.5,14.9H0.8c-0.4,0-0.8-0.3-0.8-0.8c0-0.4,0.3-0.8,0.8-0.8h1.8c0.4,0,0.8,0.3,0.8,0.8
	C3.3,14.6,3,14.9,2.5,14.9z"/>
<path class="st6" d="M39,14.9h-1.8c-0.4,0-0.8-0.3-0.8-0.8c0-0.4,0.3-0.8,0.8-0.8H39c0.4,0,0.8,0.3,0.8,0.8
	C39.8,14.6,39.5,14.9,39,14.9z"/>
<path class="st6" d="M32.4,2.5c-0.2,0-0.4-0.1-0.5-0.2c-0.3-0.3-0.3-0.8,0-1.1l1-1c0.3-0.3,0.8-0.3,1.1,0c0.3,0.3,0.3,0.8,0,1.1
	l-1,1C32.8,2.5,32.6,2.5,32.4,2.5z"/>
<path class="st6" d="M6.4,28.3c-0.2,0-0.4-0.1-0.5-0.2c-0.3-0.3-0.3-0.8,0-1.1l1-1c0.3-0.3,0.8-0.3,1.1,0c0.3,0.3,0.3,0.8,0,1.1
	l-1,1C6.8,28.2,6.6,28.3,6.4,28.3z"/>
<path class="st6" d="M7.4,2.5C7.2,2.5,7,2.5,6.9,2.3l-1-1C5.5,1,5.5,0.5,5.8,0.2c0.3-0.3,0.8-0.3,1.1,0l1,1c0.3,0.3,0.3,0.8,0,1.1
	C7.8,2.5,7.6,2.5,7.4,2.5z"/>
<path class="st6" d="M33.4,28.3c-0.2,0-0.4-0.1-0.5-0.2l-1-1c-0.3-0.3-0.3-0.8,0-1.1c0.3-0.3,0.8-0.3,1.1,0l1,1
	c0.3,0.3,0.3,0.8,0,1.1C33.8,28.2,33.6,28.3,33.4,28.3z"/>
<polygon class="st7" points="25.5,41 24.2,41.7 22.6,43.2 17.2,43.2 15.6,41.7 14.3,41 "/>
<path class="st8" d="M17.7,43.2c0,0,0.1,1.3,2.2,1.3c2.1,0,2.2-1.3,2.2-1.3H17.7z"/>
<path class="st10" d="M12.8,39.3c0-1.2,1-2.1,2.2-2.1h9.9c1.2,0,2.2,1,2.2,2.1l0,0c0,1.2-1,2.1-2.2,2.1H15
	C13.7,41.4,12.8,40.4,12.8,39.3L12.8,39.3z"/>
<path class="st11" d="M12.8,39.4c0.1,1.1,1,2,2.2,2h9.9c1.2,0,2.1-0.9,2.2-2H12.8z"/>
<path class="st10" d="M12.8,35c0-1.2,1-2.1,2.2-2.1h9.9c1.2,0,2.2,1,2.2,2.1l0,0c0,1.2-1,2.1-2.2,2.1H15
	C13.7,37.2,12.8,36.2,12.8,35L12.8,35z"/>
<path class="st11" d="M12.8,35.2c0.1,1.1,1,2,2.2,2h9.9c1.2,0,2.1-0.9,2.2-2H12.8z"/>
<path class="st10" d="M12.8,30.8c0-1.2,1-2.1,2.2-2.1h9.9c1.2,0,2.2,1,2.2,2.1l0,0c0,1.2-1,2.1-2.2,2.1H15
	C13.7,33,12.8,32,12.8,30.8L12.8,30.8z"/>
<path class="st11" d="M12.8,31c0.1,1.1,1,2,2.2,2h9.9c1.2,0,2.1-0.9,2.2-2H12.8z"/>
<path class="st12" d="M31,6.7c-0.3-0.4-0.6-0.7-0.9-1.1c-0.2-0.2-0.3-0.3-0.5-0.5c-0.5-0.5-1-0.9-1.6-1.3c-2.3-1.7-5.1-2.7-8.2-2.7
	v43.3c2.1,0,2.2-1.3,2.2-1.3h0.4l1.7-1.5l0.6-0.3h0.1c0.1,0,0.3,0,0.4,0c0.1,0,0.1,0,0.2-0.1c0.1,0,0.1,0,0.2-0.1
	c0.1,0,0.2-0.1,0.2-0.1c0,0,0.1,0,0.1-0.1c0.1-0.1,0.2-0.1,0.3-0.2c0,0,0,0,0.1,0c0.1-0.1,0.2-0.2,0.3-0.3c0,0,0,0,0,0
	c0.2-0.3,0.4-0.7,0.4-1.1v0c0-0.1,0-0.1,0-0.1c0-1.1-0.8-2-1.9-2.1c0.1,0,0.1,0,0.2,0c0.1,0,0.1,0,0.2-0.1c0.1,0,0.1,0,0.2-0.1
	c0.1,0,0.2-0.1,0.2-0.1c0,0,0.1,0,0.1-0.1c0.1-0.1,0.2-0.1,0.3-0.2c0,0,0,0,0.1,0c0.1-0.1,0.2-0.2,0.3-0.3c0,0,0,0,0,0
	c0.2-0.3,0.4-0.7,0.4-1.1v0c0-0.1,0-0.1,0-0.1c0-1.1-0.8-2-1.9-2.1c0.1,0,0.1,0,0.2,0c0.1,0,0.1,0,0.2,0c0.1,0,0.2,0,0.2-0.1
	c0.1,0,0.2-0.1,0.2-0.1c0,0,0.1,0,0.1-0.1c0.1-0.1,0.2-0.1,0.3-0.2c0,0,0,0,0.1,0c0.1-0.1,0.2-0.2,0.3-0.3c0,0,0,0,0,0
	c0.2-0.3,0.4-0.7,0.4-1.1v0c0-0.1,0-0.1,0-0.1c0-0.8-0.4-1.5-1.1-1.8c0.7-1.8,1.9-2.8,3.7-4.5c2.5-2.5,4-5.9,4-9.7
	C33.7,11.8,32.7,9,31,6.7z"/>
</svg>
