<svg xmlns="http://www.w3.org/2000/svg" viewBox="0 0 30 22"><defs><style>.cls-1{fill:#fff;}</style></defs><title>アセット 1</title><g id="レイヤー_2" data-name="レイヤー 2"><g id="レイヤー_1-2" data-name="レイヤー 1"><path class="cls-1" d="M27.27.65A16.9,16.9,0,0,0,22.5,0,13.2,13.2,0,0,0,15,1.94,13.2,13.2,0,0,0,7.5,0,13.2,13.2,0,0,0,0,1.94v19a.72.72,0,0,0,.68.65c.14,0,.2-.06.34-.06A17.39,17.39,0,0,1,7.5,20.06,13.2,13.2,0,0,1,15,22a17.11,17.11,0,0,1,7.5-1.94A14.5,14.5,0,0,1,29,21.42a.64.64,0,0,0,.34.06.72.72,0,0,0,.68-.65V1.94A9.5,9.5,0,0,0,27.27.65Zm0,17.47a16.64,16.64,0,0,0-4.77-.65A17.11,17.11,0,0,0,15,19.41V4.53a17.11,17.11,0,0,1,7.5-1.94,16.64,16.64,0,0,1,4.77.65Z"/></g></g></svg>