<svg xmlns="http://www.w3.org/2000/svg" viewBox="0 0 26.72 29.11"><defs><style>.cls-1{fill:#fff;}.cls-2{fill:#879298;}.cls-3{fill:#536663;}.cls-4{fill:#738085;}.cls-5{opacity:0.12;}</style></defs><title>アセット 7</title><g id="レイヤー_2" data-name="レイヤー 2"><g id="レイヤー_1-2" data-name="レイヤー 1"><ellipse class="cls-1" cx="13.36" cy="16.05" rx="13.02" ry="12.87"/><path class="cls-2" d="M22.8,6.56l-.3.29.29-.29A13.17,13.17,0,0,0,20,4.43,13.38,13.38,0,0,0,0,15.9a13.15,13.15,0,0,0,3.91,9.34h0A13.39,13.39,0,0,0,26.72,15.9,13.09,13.09,0,0,0,22.8,6.56ZM13.36,28.4a12.68,12.68,0,0,1-8.94-3.66h0A12.38,12.38,0,0,1,.71,15.9,12.67,12.67,0,0,1,22.3,7.06h0A12.39,12.39,0,0,1,26,15.9,12.57,12.57,0,0,1,13.36,28.4Z"/><path class="cls-3" d="M10.52,5.69a.38.38,0,0,1-.37-.28.37.37,0,0,1,0-.29.38.38,0,0,1,.23-.18h.1a.38.38,0,0,1,.37.28.37.37,0,0,1,0,.29.38.38,0,0,1-.23.18Z"/><path class="cls-3" d="M16.25,26.84a.38.38,0,0,1-.37-.28.37.37,0,0,1,0-.29.38.38,0,0,1,.23-.18h.1a.38.38,0,0,1,.37.28.38.38,0,0,1-.27.46Z"/><path class="cls-3" d="M2.7,13.43H2.6a.38.38,0,0,1-.23-.18.37.37,0,0,1,0-.29.38.38,0,0,1,.37-.28h.1a.38.38,0,0,1,.23.18.37.37,0,0,1,0,.29A.38.38,0,0,1,2.7,13.43Z"/><path class="cls-3" d="M24.08,19.1H24a.38.38,0,0,1-.27-.46.38.38,0,0,1,.37-.28h.1a.38.38,0,0,1,.23.18.37.37,0,0,1,0,.29A.38.38,0,0,1,24.08,19.1Z"/><path class="cls-3" d="M2.69,19.1a.38.38,0,0,1-.37-.28.37.37,0,0,1,0-.29.38.38,0,0,1,.23-.18h.1a.38.38,0,0,1,.37.28.38.38,0,0,1-.27.46Z"/><path class="cls-3" d="M24.08,13.43a.38.38,0,0,1-.37-.28.37.37,0,0,1,0-.29.38.38,0,0,1,.23-.18h.1a.38.38,0,0,1,.37.28.37.37,0,0,1,0,.29.38.38,0,0,1-.23.18Z"/><path class="cls-3" d="M10.52,26.84h-.1a.38.38,0,0,1-.27-.46.38.38,0,0,1,.37-.28h.1a.38.38,0,0,1,.23.18.37.37,0,0,1,0,.29A.38.38,0,0,1,10.52,26.84Z"/><path class="cls-3" d="M16.25,5.69h-.1a.38.38,0,0,1-.23-.18.37.37,0,0,1,0-.29.38.38,0,0,1,.37-.28h.1a.38.38,0,0,1,.23.18.37.37,0,0,1,0,.29A.38.38,0,0,1,16.25,5.69Z"/><path class="cls-3" d="M7.85,6.78a.38.38,0,0,1-.33-.19.37.37,0,0,1,0-.29.38.38,0,0,1,.18-.23.38.38,0,0,1,.52.14.37.37,0,0,1,0,.29A.38.38,0,0,1,8,6.73.38.38,0,0,1,7.85,6.78Z"/><path class="cls-3" d="M18.93,25.75a.38.38,0,0,1-.33-.19.38.38,0,0,1,.14-.52.38.38,0,0,1,.52.14.37.37,0,0,1,0,.29.38.38,0,0,1-.18.23A.38.38,0,0,1,18.93,25.75Z"/><path class="cls-3" d="M3.8,10.79a.38.38,0,0,1-.19-.05.38.38,0,0,1-.18-.23.37.37,0,0,1,0-.29A.38.38,0,0,1,4,10.09a.38.38,0,0,1,.18.23.37.37,0,0,1,0,.29A.38.38,0,0,1,3.8,10.79Z"/><path class="cls-3" d="M23,21.74a.38.38,0,0,1-.19-.05.38.38,0,0,1-.14-.52.38.38,0,0,1,.52-.14.38.38,0,0,1,.18.23.37.37,0,0,1,0,.29A.38.38,0,0,1,23,21.74Z"/><path class="cls-3" d="M3.8,21.74a.38.38,0,0,1-.33-.19A.38.38,0,0,1,3.61,21a.38.38,0,0,1,.52.14.37.37,0,0,1,0,.29.38.38,0,0,1-.18.23A.38.38,0,0,1,3.8,21.74Z"/><path class="cls-3" d="M23,10.79a.38.38,0,0,1-.33-.19.38.38,0,0,1,.14-.52.38.38,0,0,1,.52.14.37.37,0,0,1,0,.29.38.38,0,0,1-.18.23A.38.38,0,0,1,23,10.79Z"/><path class="cls-3" d="M7.85,25.75a.38.38,0,0,1-.19-.05.38.38,0,0,1-.18-.23.37.37,0,0,1,0-.29A.38.38,0,0,1,8,25a.38.38,0,0,1,.18.23.37.37,0,0,1,0,.29A.38.38,0,0,1,7.85,25.75Z"/><path class="cls-3" d="M18.92,6.78a.38.38,0,0,1-.19-.05.38.38,0,0,1-.18-.23.37.37,0,0,1,0-.29.38.38,0,0,1,.52-.14.38.38,0,0,1,.18.23.37.37,0,0,1,0,.29A.38.38,0,0,1,18.92,6.78Z"/><rect class="cls-3" x="12.04" y="5.52" width="2.69" height="0.76" transform="translate(19.3 -7.48) rotate(90)"/><rect class="cls-3" x="12.04" y="25.49" width="2.69" height="0.76" transform="translate(39.26 12.48) rotate(90)"/><polygon class="cls-3" points="5.02 8.15 5.56 7.61 7.48 9.51 6.94 10.05 5.02 8.15"/><polygon class="cls-3" points="19.29 22.26 19.83 21.73 21.76 23.63 21.22 24.16 19.29 22.26"/><polygon class="cls-3" points="5.02 23.63 6.94 21.73 7.48 22.26 5.56 24.16 5.02 23.63"/><polygon class="cls-3" points="19.29 9.51 21.22 7.61 21.76 8.15 19.83 10.05 19.29 9.51"/><rect class="cls-3" x="2.92" y="14.53" width="0.75" height="2.72" transform="translate(19.18 12.59) rotate(90)"/><rect class="cls-3" x="23.1" y="14.53" width="0.75" height="2.72" transform="translate(39.37 -7.6) rotate(90)"/><ellipse class="cls-2" cx="21.08" cy="3.17" rx="1.96" ry="1.93"/><rect class="cls-2" x="9.7" width="7.24" height="2.89" rx="1.09" ry="1.09"/><rect class="cls-4" x="11.98" y="1.23" width="2.69" height="1.44"/><path class="cls-5" d="M22.8,6.56l-.29.29.29-.29A13.21,13.21,0,0,0,21,5.09h.09a1.93,1.93,0,1,0-2-1.93,1.9,1.9,0,0,0,.28,1,13.27,13.27,0,0,0-3.84-1.26h.27a1.09,1.09,0,0,0,1.09-1.08V1.08A1.09,1.09,0,0,0,15.84,0H13.39V29.11A13.28,13.28,0,0,0,26.72,15.9,13.09,13.09,0,0,0,22.8,6.56Z"/><ellipse class="cls-3" cx="13.36" cy="15.81" rx="0.83" ry="0.82" transform="translate(-4.6 5.53) rotate(-20.02)"/><polygon class="cls-3" points="13.43 5.15 12.82 16.01 13.95 16 13.43 5.15"/><polygon class="cls-3" points="13.81 18.2 12.94 18.2 12.95 15.71 13.82 15.71 13.81 18.2"/></g></g></svg>