<svg xmlns="http://www.w3.org/2000/svg" viewBox="0 0 80 80"><defs><style>.cls-1{fill:#fff;}.cls-2{fill:gray;}.cls-3{fill:#886d5a;}.cls-4{fill:#81674a;}.cls-5{fill:#666;stroke:#666;stroke-width:2.57px;}.cls-5,.cls-9{stroke-linecap:round;stroke-linejoin:round;}.cls-6{fill:#d1f2f0;stroke:gray;stroke-miterlimit:10;stroke-width:0.51px;}.cls-7{fill:#d84758;}.cls-8{fill:#f2f8f8;}.cls-9{fill:none;stroke:#f2f8f8;stroke-width:1.65px;}</style></defs><title>アセット 1</title><g id="レイヤー_2" data-name="レイヤー 2"><g id="レイヤー_1-2" data-name="レイヤー 1"><rect class="cls-1" width="80" height="80" rx="40" ry="40" transform="translate(0 80) rotate(-90)"/><polygon class="cls-1" points="75.93 6.6 59.4 13.47 69.06 23.13 75.93 6.6"/><rect class="cls-2" x="37.65" y="49.96" width="4.69" height="6.48"/><polygon class="cls-3" points="42.34 55.98 37.66 55.98 37.23 70.11 42.74 70.11 42.34 55.98"/><rect class="cls-4" x="37.12" y="54.7" width="5.76" height="1.92" rx="0.96" ry="0.96"/><circle class="cls-5" cx="40" cy="31.17" r="18.78"/><circle class="cls-6" cx="40" cy="31.17" r="18.78"/><path class="cls-7" d="M37,39a3,3,0,1,1,3,3A3,3,0,0,1,37,39Zm2.11-4.61a1,1,0,0,1-1-.91l-.69-11.43a.86.86,0,0,1,.86-.92h3.47a.86.86,0,0,1,.87.92L42,33.48a1,1,0,0,1-1,.91Z"/><circle class="cls-8" cx="25.41" cy="37.39" r="1.05"/><path class="cls-9" d="M26.61,39.76a33.93,33.93,0,0,0,2.16,2.89"/></g></g></svg>