<svg xmlns="http://www.w3.org/2000/svg" xmlns:xlink="http://www.w3.org/1999/xlink" viewBox="0 0 209.78 304.51"><defs><style>.cls-1{fill:url(#linear-gradient);}.cls-2,.cls-3{fill:#f3f3f6;}.cls-2{opacity:0.12;}.cls-3{opacity:0.18;}.cls-4{fill:url(#名称未設定グラデーション_29);}.cls-5{fill:#fff;}.cls-6{clip-path:url(#clip-path);}.cls-7{fill:#333;}.cls-8{fill:url(#linear-gradient-3);}.cls-9{fill:url(#linear-gradient-4);}.cls-10{fill:url(#linear-gradient-5);}.cls-11{fill:url(#linear-gradient-6);}.cls-12{fill:url(#linear-gradient-7);}.cls-13{fill:url(#linear-gradient-8);}.cls-14{opacity:0.4;}.cls-15{fill:url(#新規グラデーションスウォッチ_5);}.cls-16{fill:#c9c9c9;}</style><linearGradient id="linear-gradient" x1="64.16" y1="275.43" x2="145.76" y2="275.43" gradientUnits="userSpaceOnUse"><stop offset="0.01" stop-color="#c7c7c7"/><stop offset="0.2" stop-color="#adadad"/><stop offset="0.5" stop-color="#adadad"/><stop offset="0.72" stop-color="#c7c7c7"/><stop offset="1" stop-color="#949494"/></linearGradient><radialGradient id="名称未設定グラデーション_29" cx="129.85" cy="123.21" r="77.72" gradientTransform="translate(-22.61 14.92) scale(0.98 0.94)" gradientUnits="userSpaceOnUse"><stop offset="0" stop-color="#fff"/><stop offset="0.45" stop-color="#fff"/><stop offset="0.54" stop-color="#faf7db"/><stop offset="0.66" stop-color="#f5efb2"/><stop offset="0.77" stop-color="#f1e894"/><stop offset="0.86" stop-color="#efe482"/><stop offset="0.93" stop-color="#eee37b"/></radialGradient><clipPath id="clip-path"><path class="cls-1" d="M96.05,289.66a12.32,12.32,0,0,0,17.81,0l29.17-23c4.9-5.07,3-9.23-4.22-9.23H71.1c-7.22,0-9.12,4.15-4.22,9.23Z"/></clipPath><linearGradient id="linear-gradient-3" x1="56.18" y1="224.25" x2="153.74" y2="224.25" xlink:href="#linear-gradient"/><linearGradient id="linear-gradient-4" x1="-1492.33" y1="5148.29" x2="-1387.16" y2="5148.29" gradientTransform="matrix(1, -0.04, 0, 1, 1544.7, -4950.4)" gradientUnits="userSpaceOnUse"><stop offset="0.01" stop-color="#c7c7c7"/><stop offset="0.2" stop-color="#e1e1e1"/><stop offset="0.5" stop-color="#fff"/><stop offset="0.72" stop-color="#e1e1e1"/><stop offset="1" stop-color="#949494"/></linearGradient><linearGradient id="linear-gradient-5" x1="-1492.33" y1="5130.99" x2="-1387.16" y2="5130.99" xlink:href="#linear-gradient-4"/><linearGradient id="linear-gradient-6" x1="-1492.33" y1="5113.68" x2="-1387.16" y2="5113.68" xlink:href="#linear-gradient-4"/><linearGradient id="linear-gradient-7" x1="-1492.33" y1="5096.38" x2="-1387.16" y2="5096.38" xlink:href="#linear-gradient-4"/><linearGradient id="linear-gradient-8" x1="48.63" y1="186.45" x2="161.29" y2="186.45" gradientTransform="matrix(1, 0, 0, 1, 0, 0)" xlink:href="#linear-gradient-4"/><radialGradient id="新規グラデーションスウォッチ_5" cx="127.12" cy="209.82" r="77.12" gradientTransform="translate(-20.17 45.54) scale(0.98 0.89)" gradientUnits="userSpaceOnUse"><stop offset="0" stop-color="#fff"/><stop offset="0.32" stop-color="#fff"/><stop offset="0.93" stop-color="#dde3d5"/></radialGradient></defs><title>アセット 6</title><g id="レイヤー_2" data-name="レイヤー 2"><g id="レイヤー_1-2" data-name="レイヤー 1"><circle class="cls-2" cx="104.89" cy="104.89" r="104.89"/><circle class="cls-3" cx="104.89" cy="104.89" r="71.35"/><path class="cls-4" d="M108.54,220.64h-7.17c-27.34,0-35-26.06-49.72-49.6V90.49a49.81,49.81,0,0,1,49.72-49.6h7.17a49.81,49.81,0,0,1,49.72,49.6V171C142.57,195.55,135.89,220.64,108.54,220.64Z"/><rect class="cls-5" x="41.96" y="165.15" width="126" height="19.85" rx="2.58" ry="2.58"/><path class="cls-1" d="M96.05,289.66a12.32,12.32,0,0,0,17.81,0l29.17-23c4.9-5.07,3-9.23-4.22-9.23H71.1c-7.22,0-9.12,4.15-4.22,9.23Z"/><g class="cls-6"><rect class="cls-7" x="57.86" y="259.97" width="93.13" height="23.83"/></g><path class="cls-8" d="M56.18,186.3v68.61c0,4.13,5,7.27,11.12,7.27H142c6.11,0,11.71-3.14,11.71-7.27V186.3Z"/><path class="cls-9" d="M157.55,248a4.44,4.44,0,0,1-4.15,4.35l-96.87,3.49a4.07,4.07,0,0,1-4.15-4.05h0a4.44,4.44,0,0,1,4.15-4.35L153.39,244a4.07,4.07,0,0,1,4.15,4.05Z"/><path class="cls-10" d="M157.55,230.74a4.44,4.44,0,0,1-4.15,4.35l-96.87,3.49a4.07,4.07,0,0,1-4.15-4.05h0a4.44,4.44,0,0,1,4.15-4.35l96.87-3.49a4.07,4.07,0,0,1,4.15,4.05Z"/><path class="cls-11" d="M157.55,213.44a4.44,4.44,0,0,1-4.15,4.35l-96.87,3.49a4.07,4.07,0,0,1-4.15-4.05h0a4.44,4.44,0,0,1,4.15-4.35l96.87-3.49a4.07,4.07,0,0,1,4.15,4.05Z"/><path class="cls-12" d="M157.55,196.14a4.44,4.44,0,0,1-4.15,4.35L56.53,204a4.07,4.07,0,0,1-4.15-4.05h0a4.44,4.44,0,0,1,4.15-4.35l96.87-3.49a4.07,4.07,0,0,1,4.15,4.05Z"/><rect class="cls-13" x="48.63" y="184.9" width="112.66" height="3.1" rx="1.55" ry="1.55"/><g class="cls-14"><path class="cls-15" d="M93.8,302.7c-11.81,0-21.42-8.79-21.42-19.6v-2.39c-14.93-4.62-25.25-17.62-25.25-32V185.45H162.79v63.22c0,14.42-10.31,27.41-25.25,32v2.39c0,10.81-9.61,19.6-21.42,19.6Z"/><path class="cls-16" d="M161,187.26v61.41c0,14.45-10.69,26.73-25.25,30.68v3.74c0,9.79-8.83,17.8-19.62,17.8H93.8c-10.79,0-19.62-8-19.62-17.8v-3.74c-14.56-3.95-25.25-16.23-25.25-30.68V187.26H161m3.61-3.61H45.32v65c0,14.8,10.25,28.16,25.25,33.34v1.08c0,11.81,10.42,21.41,23.23,21.41h22.32c12.81,0,23.23-9.6,23.23-21.41V282c15-5.19,25.25-18.55,25.25-33.34v-65Z"/></g></g></g></svg>