<svg xmlns="http://www.w3.org/2000/svg" viewBox="0 0 20.16 30.74"><defs><style>.cls-1{fill:#4b4650;}.cls-2{fill:#c5c5c5;}.cls-3{fill:#7b7a77;}.cls-4{fill:#e3dddc;}.cls-5{fill:#bff;}.cls-6{opacity:0.08;}</style></defs><title>アセット 2</title><g id="レイヤー_2" data-name="レイヤー 2"><g id="レイヤー_1-2" data-name="レイヤー 1"><polygon class="cls-1" points="13.22 28.82 12.51 29.17 11.57 30.02 8.59 30.02 7.64 29.17 6.93 28.82 13.22 28.82"/><path class="cls-2" d="M8.84,30s.08.73,1.24.73S11.32,30,11.32,30Z"/><rect class="cls-3" x="6.95" y="23.52" width="6.26" height="4.97"/><rect class="cls-4" x="6.26" y="21.12" width="7.63" height="2.74" rx="0.53" ry="0.53"/><path class="cls-4" d="M14,24.93v.26c0,.23-.26.42-.59.42H6.73c-.32,0-.58-.19-.58-.42v-.26c0-.23.26-.42.58-.42h6.7C13.75,24.5,14,24.69,14,24.93Z"/><path class="cls-4" d="M14,26.64v.26c0,.23-.26.43-.59.43H6.73c-.32,0-.58-.19-.58-.43v-.26c0-.23.26-.42.58-.42h6.7C13.75,26.22,14,26.41,14,26.64Z"/><path class="cls-4" d="M14,28.36v.26c0,.23-.26.42-.59.42H6.73c-.32,0-.58-.19-.58-.42v-.26a.33.33,0,0,1,0-.09.58.58,0,0,1,.57-.34h6.7C13.75,27.94,14,28.12,14,28.36Z"/><path class="cls-5" d="M20.16,9.94a9.85,9.85,0,0,1-3,7c-1.82,1.8-2.93,2.4-3.09,5.28H6c-.14-2.5-1-3.28-2.4-4.61L3,17A9.86,9.86,0,0,1,3,2.91a10.17,10.17,0,0,1,13.1-1,10.4,10.4,0,0,1,1.15,1l.36.37c.22.25.44.51.64.78A9.79,9.79,0,0,1,20.16,9.94Z"/><path class="cls-6" d="M18.2,4.06c-.2-.27-.42-.53-.64-.78l-.36-.37a10.4,10.4,0,0,0-1.15-1,10.11,10.11,0,0,0-6-1.94V30.74c1.16,0,1.24-.73,1.24-.73h.25l.94-.85.25-.12h.67c.32,0,.59-.19.59-.42v-.26c0-.23-.26-.42-.59-.42h-.22v-.6h.22c.32,0,.59-.19.59-.43v-.26c0-.23-.26-.42-.59-.42h-.22v-.61h.22c.32,0,.59-.19.59-.42v-.26c0-.23-.26-.42-.59-.42h-.22v-.65h.15a.53.53,0,0,0,.53-.52V22.27h.22c.16-2.89,1.27-3.49,3.09-5.28a9.85,9.85,0,0,0,1-12.92Z"/></g></g></svg>