<?xml version="1.0" encoding="utf-8"?>
<!-- Generator: Adobe Illustrator 22.1.0, SVG Export Plug-In . SVG Version: 6.00 Build 0)  -->
<svg version="1.1" id="レイヤー_1" xmlns="http://www.w3.org/2000/svg" xmlns:xlink="http://www.w3.org/1999/xlink" x="0px"
	 y="0px" viewBox="0 0 60 60" style="enable-background:new 0 0 60 60;" xml:space="preserve">
<style type="text/css">
	.st0{fill:#CCCCCC;}
	.st1{fill:#AEAEAE;}
	.st2{fill:#666666;}
	.st3{fill:#F9F9F9;}
	.st4{fill:#CBCBCB;}
	.st5{fill:#333333;}
	.st6{fill:#1A1A1A;}
	.st7{fill:#FC585F;}
	.st8{fill:#23DFCB;}
	.st9{fill:#F1F1F1;}
	.st10{fill:#989898;}
	.st11{fill:#1ABBA7;}
	.st12{fill:#F6E057;}
	.st13{fill:#F54850;}
</style>
<g>
	<g>
		<g>
			<path class="st0" d="M9,59.8c-4.8,0-8.8-3.9-8.8-8.8V9c0-4.8,3.9-8.8,8.8-8.8h42c4.8,0,8.8,3.9,8.8,8.8v42c0,4.8-3.9,8.8-8.8,8.8
				H9z"/>
			<path class="st1" d="M51,0.5c4.7,0,8.5,3.8,8.5,8.5v42c0,4.7-3.8,8.5-8.5,8.5H9c-4.7,0-8.5-3.8-8.5-8.5V9c0-4.7,3.8-8.5,8.5-8.5
				H51 M51,0H9c-5,0-9,4.1-9,9v42c0,5,4.1,9,9,9h42c5,0,9-4.1,9-9V9C60,4.1,55.9,0,51,0L51,0z"/>
		</g>
		<g>
			<g>
				<path class="st2" d="M7.9,43.3c-3.1,0-5.7-2.5-5.7-5.7V9.2c0-3.1,2.5-5.7,5.7-5.7h44.1c3.1,0,5.7,2.5,5.7,5.7v28.4
					c0,3.1-2.5,5.7-5.7,5.7H7.9z"/>
				<path class="st3" d="M52.1,4.2c2.8,0,5.1,2.3,5.1,5.1v28.4c0,2.8-2.3,5.1-5.1,5.1H7.9c-2.8,0-5.1-2.3-5.1-5.1V9.2
					c0-2.8,2.3-5.1,5.1-5.1H52.1 M52.1,3H7.9C4.5,3,1.7,5.8,1.7,9.2v28.4c0,3.4,2.8,6.3,6.3,6.3h44.1c3.4,0,6.3-2.8,6.3-6.3V9.2
					C58.3,5.8,55.5,3,52.1,3L52.1,3z"/>
			</g>
			<g>
				<path class="st4" d="M51.4,43.5H8.7c-3.2,0-5.9-2.6-5.9-5.9V12c0-3.2,2.6-5.9,5.9-5.9h42.6c3.2,0,5.9,2.6,5.9,5.9v25.7
					C57.2,40.9,54.6,43.5,51.4,43.5z"/>
			</g>
			<g>
				<path class="st5" d="M11.4,55.8c-3.5,0-6.3-2.8-6.3-6.3V13.4c0-3.5,2.8-6.3,6.3-6.3h37.3c3.5,0,6.3,2.8,6.3,6.3v36.1
					c0,3.5-2.8,6.3-6.3,6.3H11.4z"/>
				<g>
					<path class="st6" d="M48.6,7.3c3.4,0,6.1,2.7,6.1,6.1v36.1c0,3.4-2.7,6.1-6.1,6.1H11.4c-3.4,0-6.1-2.7-6.1-6.1V13.4
						c0-3.4,2.7-6.1,6.1-6.1H48.6 M48.6,7H11.4c-3.5,0-6.4,2.9-6.4,6.4v36.1c0,3.5,2.9,6.4,6.4,6.4h37.3c3.5,0,6.4-2.9,6.4-6.4V13.4
						C55.1,9.9,52.2,7,48.6,7L48.6,7z"/>
				</g>
			</g>
		</g>
	</g>
	<path class="st7" d="M41.6,32.1c0-0.1,0-0.1,0-0.2l-3.7-13.3c0,0,0,0,0-0.1l0-0.2c0-0.1-0.1-0.3-0.3-0.3l-4.9-0.2V17H33
		c0.4,0,0.8-0.3,0.8-0.6l0.4-3h0.4c0.3,0,0.5-0.2,0.5-0.5c0-0.3-0.2-0.5-0.5-0.5h-0.7l-0.1-0.2c0-0.3-0.3-0.6-0.8-0.6h-3.3
		c-0.4,0-0.8,0.3-0.8,0.6l-0.1,0.2h-0.7c-0.3,0-0.5,0.2-0.5,0.5c0,0.3,0.2,0.5,0.5,0.5h0.4l0.4,3c0,0.3,0.3,0.6,0.8,0.6H30v0.9
		l-5,0.2c-0.2,0-0.3,0.1-0.3,0.3l0,0.2c0,0,0,0,0,0l-3.7,13.3c0,0.1,0,0.2,0,0.2c-0.1,0.5-0.3,1.2,0.1,1.6c0.2,0.4,0.6,0.7,1.1,0.7
		c0,0,0,0,0.1,0c0,0,0,0,0.1,0c0.2-0.3,0.3-0.7,0.4-1.1l0,0c0,0,0,0.1,0.1,0.1c0,0,0.1,0,0.2-0.1c0.1-0.2,0.2-0.4,0.2-0.6
		c0.1,0,0.2-0.1,0.2-0.2l1.7-6.1l0.2,6.7c0,0.2,0.1,0.3,0.3,0.4L25.9,50c-0.2,0.2-0.5,0.4-0.7,0.6C25,51,24.9,51.4,25,51.8
		c0,0.1,0.1,0.2,0.3,0.2l4,0.1c0,0,0,0,0,0c0.1,0,0.3-0.1,0.3-0.3l0-1.5c0,0,0,0,0-0.1l1.4-15.6h0.9l1.3,15.2l0.1,1.9
		c0,0.1,0.1,0.3,0.3,0.3c0,0,0,0,0,0l4-0.1c0.1,0,0.2-0.1,0.3-0.2c0.1-0.4,0-0.8-0.2-1.1c-0.2-0.3-0.4-0.4-0.6-0.6l0.1-16.6
		c0.2,0,0.3-0.2,0.3-0.4l0.2-6.7l1.7,6.1c0,0.1,0.1,0.2,0.3,0.2c0,0.2,0.1,0.4,0.2,0.6c0.1,0.1,0.2,0.1,0.2,0.1
		c0.1,0,0.1-0.1,0.1-0.1l0,0c0.1,0.4,0.2,0.7,0.4,1.1c0,0,0,0,0.1,0c0,0,0,0,0.1,0c0.4,0,0.9-0.3,1.1-0.7
		C41.9,33.3,41.7,32.6,41.6,32.1z"/>
</g>
</svg>
