<?xml version="1.0" encoding="utf-8"?>
<!-- Generator: Adobe Illustrator 22.1.0, SVG Export Plug-In . SVG Version: 6.00 Build 0)  -->
<svg version="1.1" id="レイヤー_1" xmlns="http://www.w3.org/2000/svg" xmlns:xlink="http://www.w3.org/1999/xlink" x="0px"
	 y="0px" viewBox="0 0 60 60" style="enable-background:new 0 0 60 60;" xml:space="preserve">
<style type="text/css">
	.st0{fill:#CCCCCC;}
	.st1{fill:#AEAEAE;}
	.st2{fill:#666666;}
	.st3{fill:#F9F9F9;}
	.st4{fill:#CBCBCB;}
	.st5{fill:#333333;}
	.st6{fill:#1A1A1A;}
	.st7{fill:#FC585F;}
	.st8{fill:#23DFCB;}
	.st9{fill:#F1F1F1;}
	.st10{fill:#989898;}
	.st11{fill:#1ABBA7;}
	.st12{fill:#F6E057;}
	.st13{fill:#F54850;}
</style>
<g>
	<g>
		<g>
			<path class="st0" d="M9,59.8c-4.8,0-8.8-3.9-8.8-8.8V9c0-4.8,3.9-8.8,8.8-8.8h42c4.8,0,8.8,3.9,8.8,8.8v42c0,4.8-3.9,8.8-8.8,8.8
				H9z"/>
			<path class="st1" d="M51,0.5c4.7,0,8.5,3.8,8.5,8.5v42c0,4.7-3.8,8.5-8.5,8.5H9c-4.7,0-8.5-3.8-8.5-8.5V9c0-4.7,3.8-8.5,8.5-8.5
				H51 M51,0H9c-5,0-9,4.1-9,9v42c0,5,4.1,9,9,9h42c5,0,9-4.1,9-9V9C60,4.1,55.9,0,51,0L51,0z"/>
		</g>
		<g>
			<g>
				<path class="st2" d="M7.9,43.3c-3.1,0-5.7-2.5-5.7-5.7V9.2c0-3.1,2.5-5.7,5.7-5.7h44.1c3.1,0,5.7,2.5,5.7,5.7v28.4
					c0,3.1-2.5,5.7-5.7,5.7H7.9z"/>
				<path class="st3" d="M52.1,4.2c2.8,0,5.1,2.3,5.1,5.1v28.4c0,2.8-2.3,5.1-5.1,5.1H7.9c-2.8,0-5.1-2.3-5.1-5.1V9.2
					c0-2.8,2.3-5.1,5.1-5.1H52.1 M52.1,3H7.9C4.5,3,1.7,5.8,1.7,9.2v28.4c0,3.4,2.8,6.3,6.3,6.3h44.1c3.4,0,6.3-2.8,6.3-6.3V9.2
					C58.3,5.8,55.5,3,52.1,3L52.1,3z"/>
			</g>
			<g>
				<path class="st4" d="M51.4,43.5H8.7c-3.2,0-5.9-2.6-5.9-5.9V12c0-3.2,2.6-5.9,5.9-5.9h42.6c3.2,0,5.9,2.6,5.9,5.9v25.7
					C57.2,40.9,54.6,43.5,51.4,43.5z"/>
			</g>
			<g>
				<path class="st5" d="M11.4,55.8c-3.5,0-6.3-2.8-6.3-6.3V13.4c0-3.5,2.8-6.3,6.3-6.3h37.3c3.5,0,6.3,2.8,6.3,6.3v36.1
					c0,3.5-2.8,6.3-6.3,6.3H11.4z"/>
				<g>
					<path class="st6" d="M48.6,7.3c3.4,0,6.1,2.7,6.1,6.1v36.1c0,3.4-2.7,6.1-6.1,6.1H11.4c-3.4,0-6.1-2.7-6.1-6.1V13.4
						c0-3.4,2.7-6.1,6.1-6.1H48.6 M48.6,7H11.4c-3.5,0-6.4,2.9-6.4,6.4v36.1c0,3.5,2.9,6.4,6.4,6.4h37.3c3.5,0,6.4-2.9,6.4-6.4V13.4
						C55.1,9.9,52.2,7,48.6,7L48.6,7z"/>
				</g>
			</g>
		</g>
	</g>
	<path class="st8" d="M35.5,35c0,0,1.6-0.6,1.4-1.6c-0.2-1-1.7-7.8-1.7-7.8l2.1,0.5c0,0,1.4,4.1,1.4,4.5s0.3,3,0.3,3
		s0.2,0.7,0.9,0.4c0.7-0.2,2.3-2,1.4-5.2c-0.9-3.3-1.8-5.1-1.8-5.1s-0.3-0.5-1.7-1.3c-1.4-0.8-5.3-3-5.8-3.1c-0.5-0.1-1.6,0-1.6,0
		l-0.2-1.4c0,0,0.7-0.8,0.7-1.5c0-0.6-0.2-2.2-0.2-2.2s0-0.1,0-0.1l0,0c0.4-0.1,0.7-0.5,0.6-0.9c-0.1-0.4-0.5-0.7-0.9-0.6L30,12.7
		l-0.1-0.6c-0.1-0.4-0.4-0.6-0.8-0.5l-3.7,0.8c-0.4,0.1-0.6,0.4-0.5,0.8l0.1,0.6c-0.4,0.1-0.7,0.5-0.6,0.9c0.1,0.4,0.5,0.7,0.9,0.6
		l0.1,0c0,0.3,0,0.7,0.2,1c0.4,1.1,1.4,2.1,1.4,2.1l0.7,0l0,1.6c0,0-1.7,1.2-2.2,2.1c-0.5,0.9-1.3,2.8-1.9,3.3
		c-0.6,0.4-5.8,4.3-5.8,4.3s-0.9,0.2-1.5,0.4c-0.6,0.2-1,0.6-1,0.6s-0.8,0.9,1.6,0.8s3.7,0,3.7,0s0.6-0.4,1.8-1.2
		c1.2-0.8,2.3-1.5,2.7-1.8c0.4-0.3,1.1-0.9,1.1-0.9s-0.1,1.9,0.1,2.9c0.2,1,0.6,2.4,0.4,3c-0.2,0.6-2.2,7.7-2.5,8.6
		c-0.2,0.9-1,3.2-1.2,4.4s0,1.8,0,1.8l0.3,0.6c0,0-0.4,0-0.9,0.2c-0.5,0.2-0.7,0.2-0.9,0.7c-0.1,0.5-0.7,1.2,0.5,1.3
		s4.3,0.5,4.3,0.5l4.3-14l0.4-1.1c0,0,2,5.9,2.5,7.3c0.5,1.5,2.2,4.4,2.6,4.9c0.4,0.5,1.2,1.3,1.2,1.3l0.5,0.2c0,0-0.6,0.6-0.6,0.9
		c0,0.3-0.1,0.8,0.2,0.9c0.3,0.1,1.4-0.3,2.3-0.9c0.9-0.6,1.7-0.9,1.7-1.4c0-0.6-3.8-7.7-4.1-8.7C36.9,40,35.5,35,35.5,35z"/>
</g>
</svg>
