<?xml version="1.0" encoding="utf-8"?>
<!-- Generator: Adobe Illustrator 23.0.1, SVG Export Plug-In . SVG Version: 6.00 Build 0)  -->
<svg version="1.1" id="レイヤー_1" xmlns="http://www.w3.org/2000/svg" xmlns:xlink="http://www.w3.org/1999/xlink" x="0px"
	 y="0px" viewBox="0 0 236 259" style="enable-background:new 0 0 236 259;" xml:space="preserve">
<style type="text/css">
	.st0{fill:none;}
	.st1{fill:#EDEDED;}
	.st2{fill:#00813A;}
	.st3{fill:#006A20;}
	.st4{fill:#FFFFFF;}
	.st5{fill:#848F95;}
	.st6{fill:#526663;}
	.st7{fill:#738082;}
	.st8{opacity:0.12;enable-background:new    ;}
	.st9{fill:#EDE349;}
	.st10{fill:#ECBD27;}
	.st11{fill:#333333;}
	.st12{fill:#5A9E6B;}
	.st13{clip-path:url(#SVGID_2_);fill:none;}
	.st14{clip-path:url(#SVGID_4_);fill:none;}
	.st15{clip-path:url(#SVGID_6_);}
	.st16{fill:#ED4B59;}
	.st17{clip-path:url(#SVGID_8_);fill:none;}
	.st18{clip-path:url(#SVGID_10_);}
	.st19{clip-path:url(#SVGID_12_);fill:none;}
	.st20{clip-path:url(#SVGID_14_);}
	.st21{fill:#00823A;}
	.st22{fill:#859096;}
	.st23{fill:#738083;}
	.st24{clip-path:url(#SVGID_16_);}
	.st25{clip-path:url(#SVGID_18_);}
</style>
<rect class="st0" width="236" height="259"/>
<polygon class="st1" points="77.5,199.3 92.1,157.9 72.5,152.9 "/>
<polygon class="st1" points="177.8,194.5 156.1,151.4 175.7,146.4 "/>
<path class="st1" d="M225.8,54.1H16.7c-5.4,0-9.7,4.4-9.7,9.7v95.5c0,5.4,4.4,9.7,9.7,9.7h209.1c5.4,0,9.7-4.4,9.7-9.7V63.8
	C235.5,58.5,231.2,54.1,225.8,54.1z"/>
<g>
	<g>
		<g>
			<path class="st2" d="M100,233.1l-5.3-6.6c0,0,0,0-0.1-0.1V217c0-2-1.6-3.6-3.6-3.6H53.3c-2,0-3.6,1.6-3.6,3.6v9.4
				c0,0,0,0,0.1,0.1l5.3,6.6c1.2,1.6,1.2,4.1,0,5.6l-5.3,6.6c0,0,0,0-0.1,0.1v9.4c0,2,1.6,3.6,3.6,3.6h37.8c2,0,3.6-1.6,3.6-3.6
				v-9.5c0,0,0,0,0.1-0.1l5.3-6.6C101.2,237.2,101.2,234.7,100,233.1z"/>
			<path class="st3" d="M91.1,213.9c1.7,0,3.1,1.4,3.1,3.1v9.4v0.2l0.1,0.1c0,0,0,0,0.1,0.1l5.3,6.6c1.1,1.3,1.1,3.6,0,5l-5.3,6.6
				l0,0l0,0l-0.1,0.1v0.2v9.5c0,1.7-1.4,3.1-3.1,3.1H53.3c-1.7,0-3.1-1.4-3.1-3.1v-9.3l5.2-6.6c1.4-1.7,1.4-4.6,0-6.3l-5.2-6.6v-9.3
				c0-1.7,1.4-3.1,3.1-3.1h37.8 M91.1,213.3H53.3c-2,0-3.6,1.6-3.6,3.6v9.4c0,0,0,0,0.1,0.1l5.3,6.6c1.2,1.6,1.2,4.1,0,5.6l-5.3,6.6
				c0,0,0,0-0.1,0.1v9.4c0,2,1.6,3.6,3.6,3.6h37.8c2,0,3.6-1.6,3.6-3.6v-9.5c0,0,0,0,0.1-0.1l5.3-6.6c1.2-1.6,1.2-4.1,0-5.6
				l-5.3-6.6c0,0,0,0-0.1-0.1v-9.4C94.7,215,93.1,213.3,91.1,213.3L91.1,213.3z"/>
		</g>
		<g>
			<g>
				<g>
					<ellipse class="st4" cx="75.3" cy="236.4" rx="13.3" ry="13.2"/>
					<path class="st5" d="M85,226.7l-0.3,0.3L85,226.7c-0.9-0.9-1.8-1.6-2.9-2.2c-2-1.1-4.3-1.8-6.8-1.8c-7.6,0-13.7,6.1-13.7,13.6
						c0,2.3,0.6,4.5,1.6,6.4c0.6,1.2,1.4,2.3,2.4,3.2l0,0c2.5,2.5,5.9,4,9.7,4c7.6,0,13.7-6.1,13.7-13.6
						C89,232.5,87.5,229.1,85,226.7z M75.3,249.1c-3.6,0-6.8-1.4-9.2-3.8l0,0c-2.3-2.3-3.8-5.5-3.8-9.1c0-7.1,5.8-12.9,12.9-12.9
						c3.6,0,6.8,1.4,9.2,3.8l0,0c2.3,2.3,3.8,5.5,3.8,9.1C88.3,243.4,82.5,249.1,75.3,249.1z"/>
				</g>
				<path class="st6" d="M72.4,225.8c-0.2,0-0.3-0.1-0.4-0.3c0-0.1,0-0.2,0-0.3c0.1-0.1,0.1-0.2,0.2-0.2h0.1c0.2,0,0.3,0.1,0.4,0.3
					c0,0.1,0,0.2,0,0.3C72.6,225.7,72.6,225.8,72.4,225.8C72.5,225.8,72.5,225.8,72.4,225.8z"/>
				<path class="st6" d="M78.3,247.5c-0.2,0-0.3-0.1-0.4-0.3c0-0.1,0-0.2,0-0.3c0.1-0.1,0.1-0.2,0.2-0.2h0.1c0.2,0,0.3,0.1,0.4,0.3
					S78.5,247.4,78.3,247.5C78.4,247.5,78.3,247.5,78.3,247.5z"/>
				<path class="st6" d="M64.4,233.7L64.4,233.7c-0.2,0-0.3-0.1-0.3-0.2c-0.1-0.1-0.1-0.2,0-0.3c0-0.2,0.2-0.3,0.4-0.3h0.1
					c0.1,0,0.2,0.1,0.2,0.2c0.1,0.1,0.1,0.2,0,0.3C64.7,233.6,64.6,233.7,64.4,233.7z"/>
				<path class="st6" d="M86.3,239.6L86.3,239.6c-0.3-0.1-0.4-0.3-0.4-0.5s0.2-0.3,0.4-0.3h0.1c0.1,0,0.2,0.1,0.2,0.2
					c0.1,0.1,0.1,0.2,0,0.3C86.7,239.4,86.5,239.6,86.3,239.6z"/>
				<path class="st6" d="M64.4,239.6c-0.2,0-0.3-0.1-0.4-0.3c0-0.1,0-0.2,0-0.3c0.1-0.1,0.1-0.2,0.2-0.2h0.1c0.2,0,0.3,0.1,0.4,0.3
					S64.6,239.5,64.4,239.6C64.5,239.6,64.4,239.6,64.4,239.6z"/>
				<path class="st6" d="M86.3,233.7c-0.2,0-0.3-0.1-0.4-0.3c0-0.1,0-0.2,0-0.3c0.1-0.1,0.1-0.2,0.2-0.2h0.1c0.2,0,0.3,0.1,0.4,0.3
					c0,0.1,0,0.2,0,0.3C86.5,233.6,86.5,233.7,86.3,233.7C86.4,233.7,86.4,233.7,86.3,233.7z"/>
				<path class="st6" d="M72.4,247.5L72.4,247.5c-0.3-0.1-0.4-0.3-0.4-0.5s0.2-0.3,0.4-0.3h0.1c0.1,0,0.2,0.1,0.2,0.2
					c0.1,0.1,0.1,0.2,0,0.3C72.8,247.4,72.6,247.5,72.4,247.5z"/>
				<path class="st6" d="M78.3,225.8L78.3,225.8c-0.2,0-0.3-0.1-0.3-0.2c-0.1-0.1-0.1-0.2,0-0.3c0-0.2,0.2-0.3,0.4-0.3h0.1
					c0.1,0,0.2,0.1,0.2,0.2c0.1,0.1,0.1,0.2,0,0.3C78.6,225.7,78.5,225.8,78.3,225.8z"/>
				<path class="st6" d="M69.7,226.9c-0.1,0-0.3-0.1-0.3-0.2c-0.1-0.1-0.1-0.2,0-0.3c0-0.1,0.1-0.2,0.2-0.2s0.1-0.1,0.2-0.1
					s0.3,0.1,0.3,0.2c0.1,0.1,0.1,0.2,0,0.3c0,0.1-0.1,0.2-0.2,0.2C69.8,226.9,69.8,226.9,69.7,226.9z"/>
				<path class="st6" d="M81,246.4c-0.1,0-0.3-0.1-0.3-0.2c-0.1-0.2,0-0.4,0.1-0.5c0.1,0,0.1-0.1,0.2-0.1s0.3,0.1,0.3,0.2
					c0.1,0.1,0.1,0.2,0,0.3c0,0.1-0.1,0.2-0.2,0.2C81.2,246.4,81.1,246.4,81,246.4z"/>
				<path class="st6" d="M65.5,231c-0.1,0-0.1,0-0.2-0.1s-0.2-0.1-0.2-0.2c0-0.1,0-0.2,0-0.3c0.1-0.1,0.2-0.2,0.3-0.2
					c0.1,0,0.1,0,0.2,0.1s0.2,0.1,0.2,0.2c0,0.1,0,0.2,0,0.3C65.8,231,65.7,231,65.5,231z"/>
				<path class="st6" d="M85.2,242.3c-0.1,0-0.1,0-0.2-0.1c-0.2-0.1-0.3-0.3-0.1-0.5c0.1-0.1,0.2-0.2,0.3-0.2c0.1,0,0.1,0,0.2,0.1
					s0.2,0.1,0.2,0.2c0,0.1,0,0.2,0,0.3C85.5,242.2,85.3,242.3,85.2,242.3z"/>
				<path class="st6" d="M65.5,242.3c-0.1,0-0.3-0.1-0.3-0.2c-0.1-0.2,0-0.4,0.1-0.5c0.1,0,0.1-0.1,0.2-0.1s0.3,0.1,0.3,0.2
					c0.1,0.1,0.1,0.2,0,0.3c0,0.1-0.1,0.2-0.2,0.2C65.7,242.3,65.6,242.3,65.5,242.3z"/>
				<path class="st6" d="M85.2,231c-0.1,0-0.3-0.1-0.3-0.2c-0.1-0.2,0-0.4,0.1-0.5c0.1,0,0.1-0.1,0.2-0.1s0.3,0.1,0.3,0.2
					c0.1,0.1,0.1,0.2,0,0.3c0,0.1-0.1,0.2-0.2,0.2C85.3,231,85.3,231,85.2,231z"/>
				<path class="st6" d="M69.7,246.4c-0.1,0-0.1,0-0.2-0.1s-0.2-0.1-0.2-0.2c0-0.1,0-0.2,0-0.3c0.1-0.1,0.2-0.2,0.3-0.2
					c0.1,0,0.1,0,0.2,0.1s0.2,0.1,0.2,0.2c0,0.1,0,0.2,0,0.3S69.8,246.4,69.7,246.4z"/>
				<path class="st6" d="M81,226.9c-0.1,0-0.1,0-0.2-0.1s-0.2-0.1-0.2-0.2c0-0.1,0-0.2,0-0.3c0.1-0.1,0.2-0.2,0.3-0.2
					c0.1,0,0.1,0,0.2,0.1s0.2,0.1,0.2,0.2c0,0.1,0,0.2,0,0.3S81.2,226.9,81,226.9z"/>
				<rect x="75" y="224.6" class="st6" width="0.8" height="2.8"/>
				<rect x="75" y="245.2" class="st6" width="0.8" height="2.8"/>
				<polygon class="st6" points="66.8,228.3 67.4,227.8 69.3,229.7 68.8,230.3 				"/>
				<polygon class="st6" points="81.4,242.8 82,242.3 83.9,244.2 83.4,244.8 				"/>
				<polygon class="st6" points="66.8,244.2 68.8,242.3 69.3,242.8 67.4,244.8 				"/>
				<polygon class="st6" points="81.4,229.7 83.4,227.8 83.9,228.3 82,230.3 				"/>
				<rect x="63.6" y="235.8" class="st6" width="2.8" height="0.8"/>
				<rect x="84.3" y="235.9" class="st6" width="2.8" height="0.8"/>
				<g>
					<ellipse class="st5" cx="83.2" cy="223.2" rx="2" ry="2"/>
					<path class="st5" d="M77.9,222.9h-5.2c-0.6,0-1.1-0.5-1.1-1.1V221c0-0.6,0.5-1.1,1.1-1.1h5.2c0.6,0,1.1,0.5,1.1,1.1v0.7
						C79,222.4,78.5,222.9,77.9,222.9z"/>
				</g>
				<rect x="73.9" y="221.2" class="st7" width="2.8" height="1.5"/>
				<path class="st8" d="M85,226.7l-0.3,0.3L85,226.7c-0.6-0.6-1.2-1.1-1.9-1.5h0.1c1.1,0,2-0.9,2-2s-0.9-2-2-2s-2,0.9-2,2
					c0,0.4,0.1,0.7,0.3,1c-1.2-0.6-2.5-1.1-3.9-1.3h0.3c0.6,0,1.1-0.5,1.1-1.1V221c0-0.6-0.5-1.1-1.1-1.1h-2.5v29.9
					c7.5,0,13.6-6.1,13.6-13.6C89,232.5,87.5,229.1,85,226.7z"/>
			</g>
			<g>
				<ellipse class="st6" cx="75.3" cy="236.2" rx="0.8" ry="0.8"/>
				<polygon class="st6" points="75.4,225.2 74.8,236.4 75.9,236.4 				"/>
				<polygon class="st6" points="75.8,238.6 74.9,238.6 74.9,236.1 75.8,236.1 				"/>
			</g>
		</g>
	</g>
	<g>
		<path class="st2" d="M82.3,218.4h-14c-4.4,0-8-3.6-8-8v-0.5c0-4.4,3.6-8,8-8h14c4.4,0,8,3.6,8,8v0.5
			C90.4,214.8,86.8,218.4,82.3,218.4z"/>
		<path class="st3" d="M82.3,202.4c4.1,0,7.5,3.4,7.5,7.5v0.5c0,4.1-3.4,7.5-7.5,7.5h-14c-4.1,0-7.5-3.4-7.5-7.5v-0.5
			c0-4.1,3.4-7.5,7.5-7.5H82.3 M82.3,201.9h-14c-4.4,0-8,3.6-8,8v0.5c0,4.4,3.6,8,8,8h14c4.4,0,8-3.6,8-8v-0.5
			C90.4,205.5,86.8,201.9,82.3,201.9L82.3,201.9z"/>
	</g>
	<g>
		<path class="st4" d="M73,207.7c0.1-0.4,0.3-0.7,0.5-1s0.5-0.5,0.9-0.7s0.8-0.2,1.2-0.2c0.4,0,0.7,0.1,1,0.2
			c0.3,0.1,0.6,0.3,0.9,0.5c0.2,0.2,0.4,0.5,0.6,0.8c0.1,0.3,0.2,0.7,0.2,1c0,0.4-0.1,0.7-0.2,1s-0.3,0.5-0.5,0.8
			c-0.2,0.2-0.4,0.4-0.7,0.6c-0.3,0.2-0.5,0.4-0.8,0.5c-0.3,0.2-0.5,0.4-0.8,0.6c-0.3,0.2-0.5,0.4-0.7,0.7h3.7v1.4h-5.8
			c0-0.5,0.1-0.9,0.2-1.2s0.3-0.6,0.5-0.9c0.2-0.3,0.5-0.5,0.8-0.7s0.6-0.5,1-0.7c0.2-0.1,0.4-0.2,0.5-0.4c0.2-0.1,0.4-0.3,0.5-0.4
			c0.2-0.2,0.3-0.3,0.4-0.5s0.2-0.4,0.2-0.6c0-0.4-0.1-0.7-0.3-0.9c-0.2-0.2-0.5-0.3-0.8-0.3c-0.2,0-0.4,0.1-0.6,0.2
			c-0.2,0.1-0.3,0.3-0.4,0.4c-0.1,0.2-0.2,0.4-0.2,0.6c0,0.2-0.1,0.4-0.1,0.6h-1.5C72.8,208.5,72.9,208.1,73,207.7z"/>
	</g>
</g>
<g>
	<g>
		<path class="st9" d="M204.4,233.3l-5.3-6.6c0,0,0,0-0.1-0.1v-15.5c0-2-1.6-3.6-3.6-3.6H125c-2,0-3.6,1.6-3.6,3.6v15.5
			c0,0,0,0,0.1,0.1l5.3,6.6c1.2,1.5,1.2,4.1,0,5.6l-5.3,6.6c0,0,0,0-0.1,0.1v9.4c0,2,1.6,3.6,3.6,3.6h10.1v-13c0,0,0,0,0.1-0.1
			l5.3-6.6c1.2-1.5,1.2-4.1,0-5.6l-5.3-6.6c0,0,0,0-0.1-0.1v-9.4c0-2,1.6-3.6,3.6-3.6h5.4c2,0,3.6,1.6,3.6,3.6v9.4c0,0,0,0,0.1,0.1
			l5.3,6.6c1.2,1.5,1.2,4.1,0,5.6l-5.3,6.6c0,0,0,0-0.1,0.1v13h47.9c2,0,3.6-1.6,3.6-3.6v-9.4c0,0,0,0,0.1-0.1l5.3-6.6
			C205.7,237.3,205.7,234.8,204.4,233.3z"/>
		<path class="st10" d="M195.5,208c1.7,0,3.1,1.4,3.1,3.1v15.5v0.2l0.1,0.1c0,0,0,0,0.1,0.1l5.3,6.6c1.1,1.4,1.1,3.7,0,5l-5.3,6.6
			l0,0l0,0l-0.1,0.1v0.2v9.4c0,1.7-1.4,3.1-3.1,3.1h-47.4v-12.4l5.2-6.6c1.4-1.7,1.4-4.5,0-6.2l-5.2-6.6V217c0-2.2-1.8-4-4-4h-5.4
			c-2.2,0-4,1.8-4,4v9.4v0.2l0.1,0.1c0,0,0,0,0.1,0.1l5.3,6.6c1.1,1.4,1.1,3.7,0,5L135,245l0,0l0,0l-0.1,0.1v0.2v12.5H125
			c-1.7,0-3.1-1.4-3.1-3.1v-9.2l5.2-6.6c1.4-1.7,1.4-4.5,0-6.2l-5.2-6.6v-15.3c0-1.7,1.4-3.1,3.1-3.1h70.5 M195.5,207.5H125
			c-2,0-3.6,1.6-3.6,3.6v15.5c0,0,0,0,0.1,0.1l5.3,6.6c1.2,1.5,1.2,4.1,0,5.6l-5.3,6.6c0,0,0,0-0.1,0.1v9.4c0,2,1.6,3.6,3.6,3.6
			h10.1v-13c0,0,0,0,0.1-0.1l5.3-6.6c1.2-1.5,1.2-4.1,0-5.6l-5.3-6.6c0,0,0,0-0.1-0.1v-9.4c0-2,1.6-3.6,3.6-3.6h5.4
			c2,0,3.6,1.6,3.6,3.6v9.4c0,0,0,0,0.1,0.1l5.3,6.6c1.2,1.5,1.2,4.1,0,5.6l-5.3,6.6c0,0,0,0-0.1,0.1v13h47.9c2,0,3.6-1.6,3.6-3.6
			v-9.4c0,0,0,0,0.1-0.1l5.3-6.6c1.2-1.5,1.2-4.1,0-5.6l-5.3-6.6c0,0,0,0-0.1-0.1v-15.5C199.1,209.1,197.5,207.5,195.5,207.5
			L195.5,207.5z"/>
	</g>
	<g>
		<path class="st4" d="M185,212.6h-14.4c-4.3,0-7.8-3.5-7.8-7.8v-0.9c0-4.3,3.5-7.8,7.8-7.8H185c4.3,0,7.8,3.5,7.8,7.8v0.9
			C192.8,209,189.3,212.6,185,212.6z"/>
		<path class="st10" d="M185,196.7c3.9,0,7.1,3.2,7.1,7.1v0.9c0,3.9-3.2,7.1-7.1,7.1h-14.4c-3.9,0-7.1-3.2-7.1-7.1v-0.9
			c0-3.9,3.2-7.1,7.1-7.1H185 M185,196h-14.4c-4.3,0-7.8,3.5-7.8,7.8v0.9c0,4.3,3.5,7.8,7.8,7.8H185c4.3,0,7.8-3.5,7.8-7.8v-0.9
			C192.8,199.6,189.3,196,185,196L185,196z"/>
	</g>
	<g>
		<path class="st11" d="M175.3,206.4v-1.5l3.5-4.6h1.4v4.7h1.1v1.3h-1.1v1.8h-1.5v-1.8h-3.4V206.4z M178.6,202.3l-2.1,2.7h2.1V202.3
			L178.6,202.3z"/>
	</g>
</g>
<g>
	<g>
		<path class="st9" d="M204.4,233.3l-5.3-6.6c0,0,0,0-0.1-0.1v-15.5c0-2-1.6-3.6-3.6-3.6H125c-2,0-3.6,1.6-3.6,3.6v15.5
			c0,0,0,0,0.1,0.1l5.3,6.6c1.2,1.5,1.2,4.1,0,5.6l-5.3,6.6c0,0,0,0-0.1,0.1v9.4c0,2,1.6,3.6,3.6,3.6h10.1v-13c0,0,0,0,0.1-0.1
			l5.3-6.6c1.2-1.5,1.2-4.1,0-5.6l-5.3-6.6c0,0,0,0-0.1-0.1v-9.4c0-2,1.6-3.6,3.6-3.6h5.4c2,0,3.6,1.6,3.6,3.6v9.4c0,0,0,0,0.1,0.1
			l5.3,6.6c1.2,1.5,1.2,4.1,0,5.6l-5.3,6.6c0,0,0,0-0.1,0.1v13h47.9c2,0,3.6-1.6,3.6-3.6v-9.4c0,0,0,0,0.1-0.1l5.3-6.6
			C205.7,237.3,205.7,234.8,204.4,233.3z"/>
		<path class="st10" d="M195.5,208c1.7,0,3.1,1.4,3.1,3.1v15.5v0.2l0.1,0.1c0,0,0,0,0.1,0.1l5.3,6.6c1.1,1.4,1.1,3.7,0,5l-5.3,6.6
			l0,0l0,0l-0.1,0.1v0.2v9.4c0,1.7-1.4,3.1-3.1,3.1h-47.4v-12.4l5.2-6.6c1.4-1.7,1.4-4.5,0-6.2l-5.2-6.6V217c0-2.2-1.8-4-4-4h-5.4
			c-2.2,0-4,1.8-4,4v9.4v0.2l0.1,0.1c0,0,0,0,0.1,0.1l5.3,6.6c1.1,1.4,1.1,3.7,0,5L135,245l0,0l0,0l-0.1,0.1v0.2v12.5H125
			c-1.7,0-3.1-1.4-3.1-3.1v-9.2l5.2-6.6c1.4-1.7,1.4-4.5,0-6.2l-5.2-6.6v-15.3c0-1.7,1.4-3.1,3.1-3.1h70.5 M195.5,207.5H125
			c-2,0-3.6,1.6-3.6,3.6v15.5c0,0,0,0,0.1,0.1l5.3,6.6c1.2,1.5,1.2,4.1,0,5.6l-5.3,6.6c0,0,0,0-0.1,0.1v9.4c0,2,1.6,3.6,3.6,3.6
			h10.1v-13c0,0,0,0,0.1-0.1l5.3-6.6c1.2-1.5,1.2-4.1,0-5.6l-5.3-6.6c0,0,0,0-0.1-0.1v-9.4c0-2,1.6-3.6,3.6-3.6h5.4
			c2,0,3.6,1.6,3.6,3.6v9.4c0,0,0,0,0.1,0.1l5.3,6.6c1.2,1.5,1.2,4.1,0,5.6l-5.3,6.6c0,0,0,0-0.1,0.1v13h47.9c2,0,3.6-1.6,3.6-3.6
			v-9.4c0,0,0,0,0.1-0.1l5.3-6.6c1.2-1.5,1.2-4.1,0-5.6l-5.3-6.6c0,0,0,0-0.1-0.1v-15.5C199.1,209.1,197.5,207.5,195.5,207.5
			L195.5,207.5z"/>
	</g>
	<g>
		<path class="st4" d="M185,212.6h-14.4c-4.3,0-7.8-3.5-7.8-7.8v-0.9c0-4.3,3.5-7.8,7.8-7.8H185c4.3,0,7.8,3.5,7.8,7.8v0.9
			C192.8,209,189.3,212.6,185,212.6z"/>
		<path class="st10" d="M185,196.7c3.9,0,7.1,3.2,7.1,7.1v0.9c0,3.9-3.2,7.1-7.1,7.1h-14.4c-3.9,0-7.1-3.2-7.1-7.1v-0.9
			c0-3.9,3.2-7.1,7.1-7.1H185 M185,196h-14.4c-4.3,0-7.8,3.5-7.8,7.8v0.9c0,4.3,3.5,7.8,7.8,7.8H185c4.3,0,7.8-3.5,7.8-7.8v-0.9
			C192.8,199.6,189.3,196,185,196L185,196z"/>
	</g>
	<g>
		<path class="st11" d="M175.3,206.4v-1.5l3.5-4.6h1.4v4.7h1.1v1.3h-1.1v1.8h-1.5v-1.8h-3.4V206.4z M178.6,202.3l-2.1,2.7h2.1V202.3
			L178.6,202.3z"/>
	</g>
</g>
<g>
	<path class="st1" d="M225.8,167.1H16.7c-4.3,0-7.8-3.5-7.8-7.8V63.8c0-4.3,3.5-7.8,7.8-7.8h209.1c4.3,0,7.8,3.5,7.8,7.8v95.5
		C233.6,163.6,230.1,167.1,225.8,167.1z"/>
	<path class="st1" d="M225.8,60c2.1,0,3.9,1.7,3.9,3.9v95.5c0,2.1-1.7,3.9-3.9,3.9H16.7c-2.1,0-3.9-1.7-3.9-3.9V63.8
		c0-2.1,1.7-3.9,3.9-3.9h209.1 M225.8,56.1H16.7c-4.3,0-7.8,3.5-7.8,7.8v95.5c0,4.3,3.5,7.8,7.8,7.8h209.1c4.3,0,7.8-3.5,7.8-7.8
		V63.8C233.6,59.6,230.1,56.1,225.8,56.1L225.8,56.1z"/>
</g>
<path class="st12" d="M189.2,234.1v2.1c0,2-1.6,3.6-3.6,3.6h-11v-2.2c0-0.2-0.1-0.5-0.3-0.6c-0.1-0.1-0.2-0.1-0.4-0.1
	c-0.1,0-0.2,0-0.3,0.1l-9.4,4.8c-0.2,0.1-0.4,0.4-0.4,0.6c0,0.3,0.1,0.5,0.4,0.6l9.4,4.8c0.1,0.1,0.2,0.1,0.3,0.1s0.3,0,0.4-0.1
	c0.2-0.1,0.3-0.3,0.3-0.6V245h11c4.8,0,8.7-3.9,8.7-8.7v-4.7L189.2,234.1z"/>
<path class="st12" d="M188.8,223.7l-9.4-4.8c-0.1-0.1-0.2-0.1-0.3-0.1s-0.3,0-0.4,0.1c-0.2,0.1-0.3,0.3-0.3,0.6v2.2h-9.5
	c-4.8,0-8.7,3.9-8.7,8.7v6.8l5.1-2.6v-4.2c0-2,1.6-3.6,3.6-3.6h9.5v2.2c0,0.2,0.1,0.5,0.3,0.6c0.1,0.1,0.2,0.1,0.4,0.1
	c0.1,0,0.2,0,0.3-0.1l9.4-4.8c0.2-0.1,0.4-0.4,0.4-0.6C189.2,224,189,223.8,188.8,223.7z"/>
<g>
	<g>
		<defs>
			<path id="SVGID_1_" d="M225.8,167.1H16.7c-4.3,0-7.8-3.5-7.8-7.8V63.8c0-4.3,3.5-7.8,7.8-7.8h209.1c4.3,0,7.8,3.5,7.8,7.8v95.5
				C233.6,163.6,230.1,167.1,225.8,167.1z"/>
		</defs>
		<clipPath id="SVGID_2_">
			<use xlink:href="#SVGID_1_"  style="overflow:visible;"/>
		</clipPath>
		<path class="st13" d="M225.8,167.1H16.7c-4.3,0-7.8-3.5-7.8-7.8V63.8c0-4.3,3.5-7.8,7.8-7.8h209.1c4.3,0,7.8,3.5,7.8,7.8v95.5
			C233.6,163.6,230.1,167.1,225.8,167.1z"/>
	</g>
	<g>
		<defs>
			<path id="SVGID_3_" d="M225.8,167.1H16.7c-4.3,0-7.8-3.5-7.8-7.8V63.8c0-4.3,3.5-7.8,7.8-7.8h209.1c4.3,0,7.8,3.5,7.8,7.8v95.5
				C233.6,163.6,230.1,167.1,225.8,167.1z"/>
		</defs>
		<clipPath id="SVGID_4_">
			<use xlink:href="#SVGID_3_"  style="overflow:visible;"/>
		</clipPath>
		<path class="st14" d="M225.8,167.1H16.7c-4.3,0-7.8-3.5-7.8-7.8V63.8c0-4.3,3.5-7.8,7.8-7.8h209.1c4.3,0,7.8,3.5,7.8,7.8v95.5
			C233.6,163.6,230.1,167.1,225.8,167.1z"/>
	</g>
	<g>
		<defs>
			<path id="SVGID_5_" d="M225.8,167.1H16.7c-4.3,0-7.8-3.5-7.8-7.8V63.8c0-4.3,3.5-7.8,7.8-7.8h209.1c4.3,0,7.8,3.5,7.8,7.8v95.5
				C233.6,163.6,230.1,167.1,225.8,167.1z"/>
		</defs>
		<clipPath id="SVGID_6_">
			<use xlink:href="#SVGID_5_"  style="overflow:visible;"/>
		</clipPath>
		<g class="st15">
			<polygon class="st16" points="53.6,67.3 48.6,81.2 59,70.2 			"/>
			<polygon class="st16" points="44.1,66 46.8,80.5 50.2,65.8 			"/>
		</g>
	</g>
	<g>
		<defs>
			<path id="SVGID_7_" d="M225.8,167.1H16.7c-4.3,0-7.8-3.5-7.8-7.8V63.8c0-4.3,3.5-7.8,7.8-7.8h209.1c4.3,0,7.8,3.5,7.8,7.8v95.5
				C233.6,163.6,230.1,167.1,225.8,167.1z"/>
		</defs>
		<clipPath id="SVGID_8_">
			<use xlink:href="#SVGID_7_"  style="overflow:visible;"/>
		</clipPath>
		<path class="st17" d="M225.8,167.1H16.7c-4.3,0-7.8-3.5-7.8-7.8V63.8c0-4.3,3.5-7.8,7.8-7.8h209.1c4.3,0,7.8,3.5,7.8,7.8v95.5
			C233.6,163.6,230.1,167.1,225.8,167.1z"/>
	</g>
	<g>
		<defs>
			<path id="SVGID_9_" d="M225.8,167.1H16.7c-4.3,0-7.8-3.5-7.8-7.8V63.8c0-4.3,3.5-7.8,7.8-7.8h209.1c4.3,0,7.8,3.5,7.8,7.8v95.5
				C233.6,163.6,230.1,167.1,225.8,167.1z"/>
		</defs>
		<clipPath id="SVGID_10_">
			<use xlink:href="#SVGID_9_"  style="overflow:visible;"/>
		</clipPath>
		<g class="st18">
			<polygon class="st16" points="191.8,64.8 196.4,78.6 197.8,63.7 			"/>
			<polygon class="st16" points="183.6,69.5 194.5,79.1 188.2,65.6 			"/>
		</g>
	</g>
	<g>
		<defs>
			<path id="SVGID_11_" d="M225.8,167.1H16.7c-4.3,0-7.8-3.5-7.8-7.8V63.8c0-4.3,3.5-7.8,7.8-7.8h209.1c4.3,0,7.8,3.5,7.8,7.8v95.5
				C233.6,163.6,230.1,167.1,225.8,167.1z"/>
		</defs>
		<clipPath id="SVGID_12_">
			<use xlink:href="#SVGID_11_"  style="overflow:visible;"/>
		</clipPath>
		<path class="st19" d="M225.8,167.1H16.7c-4.3,0-7.8-3.5-7.8-7.8V63.8c0-4.3,3.5-7.8,7.8-7.8h209.1c4.3,0,7.8,3.5,7.8,7.8v95.5
			C233.6,163.6,230.1,167.1,225.8,167.1z"/>
	</g>
	<g>
		<defs>
			<path id="SVGID_13_" d="M225.8,167.1H16.7c-4.3,0-7.8-3.5-7.8-7.8V63.8c0-4.3,3.5-7.8,7.8-7.8h209.1c4.3,0,7.8,3.5,7.8,7.8v95.5
				C233.6,163.6,230.1,167.1,225.8,167.1z"/>
		</defs>
		<clipPath id="SVGID_14_">
			<use xlink:href="#SVGID_13_"  style="overflow:visible;"/>
		</clipPath>
		<g class="st20">
			<g>
				<path class="st21" d="M90.9,140.5l-10-12.5l-0.1-0.1V110c0-3.7-3.1-6.8-6.8-6.8H2.5c-3.7,0-6.8,3.1-6.8,6.8v17.8l0.1,0.1
					l10,12.5c2.3,2.9,2.3,7.7,0,10.6l-10,12.5l-0.1,0.1v17.8c0,3.7,3.1,6.8,6.8,6.8H74c3.7,0,6.8-3.1,6.8-6.8v-17.8l0.1-0.1l10-12.5
					C93.2,148.2,93.2,143.4,90.9,140.5z"/>
				<path class="st3" d="M74,104.4c3.1,0,5.6,2.5,5.6,5.7v17.8v0.4l0.3,0.3c0,0.1,0.1,0.1,0.1,0.1l10,12.5c2,2.5,2,6.7,0,9.2
					l-10,12.5l-0.1,0.1l-0.3,0.3v0.4v17.8c0,3.1-2.5,5.7-5.6,5.7H2.5c-3.1,0-5.6-2.5-5.6-5.7v-17.4l9.8-12.3c2.7-3.3,2.7-8.7,0-12.1
					l-9.8-12.3V110c0-3.1,2.5-5.7,5.6-5.7L74,104.4 M74,103.2H2.5c-3.7,0-6.8,3.1-6.8,6.8v17.8l0.1,0.1l10,12.5
					c2.3,2.9,2.3,7.7,0,10.6l-10,12.5l-0.1,0.1v17.8c0,3.7,3.1,6.8,6.8,6.8H74c3.7,0,6.8-3.1,6.8-6.8v-17.8l0.1-0.1l10-12.5
					c2.3-2.9,2.3-7.7,0-10.6l-10-12.5l-0.1-0.1V110C80.8,106.3,77.7,103.2,74,103.2L74,103.2z"/>
			</g>
			<g>
				<g>
					<g>
						<ellipse class="st4" cx="44.2" cy="146.7" rx="25.2" ry="24.9"/>
						<path class="st22" d="M62.5,128.3l-0.6,0.6L62.5,128.3c-1.6-1.6-3.5-3-5.5-4.1c-3.8-2.2-8.2-3.4-12.8-3.4
							c-14.3,0-25.9,11.5-25.9,25.6c0,4.3,1.1,8.4,3,12c1.2,2.3,2.7,4.3,4.6,6.1l0,0c4.7,4.6,11.2,7.5,18.3,7.5
							c14.3,0,25.9-11.5,25.9-25.6C70.1,139.4,67.2,133,62.5,128.3z M44.2,170.7c-6.8,0-12.9-2.7-17.3-7.1l0,0
							c-4.4-4.4-7.2-10.4-7.2-17.1c0-13.4,11-24.2,24.5-24.2c6.8,0,12.9,2.7,17.3,7.1l0,0c4.4,4.4,7.2,10.4,7.2,17.1
							C68.7,159.8,57.7,170.7,44.2,170.7z"/>
					</g>
					<path class="st6" d="M38.7,126.7c-0.3,0-0.6-0.2-0.7-0.5c-0.1-0.2,0-0.4,0.1-0.6s0.3-0.3,0.4-0.3c0.1,0,0.1,0,0.2,0
						c0.3,0,0.6,0.2,0.7,0.5c0.1,0.2,0,0.4-0.1,0.6s-0.3,0.3-0.4,0.3S38.7,126.7,38.7,126.7z"/>
					<path class="st6" d="M49.8,167.6c-0.3,0-0.6-0.2-0.7-0.5c-0.1-0.2,0-0.4,0.1-0.6c0.1-0.2,0.3-0.3,0.4-0.3c0.1,0,0.1,0,0.2,0
						c0.3,0,0.6,0.2,0.7,0.5c0.1,0.4-0.1,0.8-0.5,0.9C49.9,167.6,49.8,167.6,49.8,167.6z"/>
					<path class="st6" d="M23.5,141.7c-0.1,0-0.1,0-0.2,0c-0.2-0.1-0.4-0.2-0.4-0.3c-0.1-0.2-0.1-0.4-0.1-0.6
						c0.1-0.3,0.4-0.5,0.7-0.5c0.1,0,0.1,0,0.2,0c0.2,0.1,0.4,0.2,0.4,0.3c0.1,0.2,0.1,0.4,0.1,0.6
						C24.1,141.4,23.8,141.7,23.5,141.7z"/>
					<path class="st6" d="M65,152.6c-0.1,0-0.1,0-0.2,0c-0.4-0.1-0.6-0.5-0.5-0.9c0.1-0.3,0.4-0.5,0.7-0.5c0.1,0,0.1,0,0.2,0
						c0.2,0.1,0.4,0.2,0.4,0.3c0.1,0.2,0.1,0.4,0.1,0.6C65.6,152.4,65.3,152.6,65,152.6z"/>
					<path class="st6" d="M23.5,152.6c-0.3,0-0.6-0.2-0.7-0.5c-0.1-0.2,0-0.4,0.1-0.6c0.1-0.2,0.3-0.3,0.4-0.3s0.1,0,0.2,0
						c0.3,0,0.6,0.2,0.7,0.5c0.1,0.4-0.1,0.8-0.5,0.9C23.6,152.6,23.6,152.6,23.5,152.6z"/>
					<path class="st6" d="M65,141.7c-0.3,0-0.6-0.2-0.7-0.5c-0.1-0.2,0-0.4,0.1-0.6c0.1-0.2,0.3-0.3,0.4-0.3s0.1,0,0.2,0
						c0.3,0,0.6,0.2,0.7,0.5c0.1,0.2,0,0.4-0.1,0.6c-0.1,0.2-0.3,0.3-0.4,0.3S65,141.7,65,141.7z"/>
					<path class="st6" d="M38.7,167.6c-0.1,0-0.1,0-0.2,0c-0.4-0.1-0.6-0.5-0.5-0.9c0.1-0.3,0.4-0.5,0.7-0.5c0.1,0,0.1,0,0.2,0
						c0.2,0.1,0.4,0.2,0.4,0.3c0.1,0.2,0.1,0.4,0.1,0.6C39.3,167.4,39,167.6,38.7,167.6z"/>
					<path class="st6" d="M49.8,126.7c-0.1,0-0.1,0-0.2,0c-0.2-0.1-0.4-0.2-0.4-0.3c-0.1-0.2-0.1-0.4-0.1-0.6
						c0.1-0.3,0.4-0.5,0.7-0.5c0.1,0,0.1,0,0.2,0c0.2,0.1,0.4,0.2,0.4,0.3c0.1,0.2,0.1,0.4,0.1,0.6
						C50.4,126.4,50.1,126.7,49.8,126.7z"/>
					<path class="st6" d="M33.5,128.8c-0.3,0-0.5-0.1-0.6-0.4c-0.1-0.2-0.1-0.4-0.1-0.6c0.1-0.2,0.2-0.3,0.3-0.4s0.2-0.1,0.4-0.1
						c0.3,0,0.5,0.1,0.6,0.4c0.1,0.2,0.1,0.4,0.1,0.6c-0.1,0.2-0.2,0.3-0.3,0.4C33.8,128.7,33.6,128.8,33.5,128.8z"/>
					<path class="st6" d="M55,165.5c-0.3,0-0.5-0.1-0.6-0.4c-0.2-0.3-0.1-0.8,0.3-1c0.1-0.1,0.2-0.1,0.4-0.1c0.3,0,0.5,0.1,0.6,0.4
						c0.1,0.2,0.1,0.4,0.1,0.6c-0.1,0.2-0.2,0.3-0.3,0.4C55.2,165.5,55.1,165.5,55,165.5z"/>
					<path class="st6" d="M25.6,136.5c-0.1,0-0.3,0-0.4-0.1c-0.2-0.1-0.3-0.3-0.3-0.4c-0.1-0.2,0-0.4,0.1-0.6
						c0.1-0.2,0.4-0.4,0.6-0.4c0.1,0,0.3,0,0.4,0.1c0.2,0.1,0.3,0.3,0.3,0.4c0.1,0.2,0,0.4-0.1,0.6
						C26.2,136.4,25.9,136.5,25.6,136.5z"/>
					<path class="st6" d="M62.8,157.8c-0.1,0-0.3,0-0.4-0.1c-0.4-0.2-0.5-0.7-0.3-1c0.1-0.2,0.4-0.4,0.6-0.4c0.1,0,0.3,0,0.4,0.1
						c0.2,0.1,0.3,0.3,0.3,0.4c0.1,0.2,0,0.4-0.1,0.6C63.3,157.6,63.1,157.8,62.8,157.8z"/>
					<path class="st6" d="M25.6,157.8c-0.3,0-0.5-0.1-0.6-0.4c-0.2-0.3-0.1-0.8,0.3-1c0.1-0.1,0.2-0.1,0.4-0.1
						c0.3,0,0.5,0.1,0.6,0.4c0.1,0.2,0.1,0.4,0.1,0.6c-0.1,0.2-0.2,0.3-0.3,0.4C25.9,157.7,25.8,157.8,25.6,157.8z"/>
					<path class="st6" d="M62.8,136.5c-0.3,0-0.5-0.1-0.6-0.4c-0.2-0.3-0.1-0.8,0.3-1c0.1-0.1,0.2-0.1,0.4-0.1
						c0.3,0,0.5,0.1,0.6,0.4c0.1,0.2,0.1,0.4,0.1,0.6c-0.1,0.2-0.2,0.3-0.3,0.4C63.1,136.5,62.9,136.5,62.8,136.5z"/>
					<path class="st6" d="M33.5,165.5c-0.1,0-0.3,0-0.4-0.1c-0.2-0.1-0.3-0.3-0.3-0.4c-0.1-0.2,0-0.4,0.1-0.6
						c0.1-0.2,0.4-0.4,0.6-0.4c0.1,0,0.3,0,0.4,0.1c0.2,0.1,0.3,0.3,0.3,0.4s0,0.4-0.1,0.6C34,165.4,33.8,165.5,33.5,165.5z"/>
					<path class="st6" d="M55,128.8c-0.1,0-0.3,0-0.4-0.1c-0.2-0.1-0.3-0.3-0.3-0.4c-0.1-0.2,0-0.4,0.1-0.6s0.4-0.4,0.6-0.4
						c0.1,0,0.3,0,0.4,0.1c0.2,0.1,0.3,0.3,0.3,0.4c0.1,0.2,0,0.4-0.1,0.6C55.5,128.6,55.2,128.8,55,128.8z"/>
					<rect x="43.5" y="124.4" class="st6" width="1.5" height="5.2"/>
					<rect x="43.5" y="163.1" class="st6" width="1.5" height="5.2"/>
					<polygon class="st6" points="28,131.4 29.1,130.4 32.8,134.1 31.7,135.1 					"/>
					<polygon class="st6" points="55.7,158.8 56.7,157.7 60.5,161.4 59.4,162.5 					"/>
					<polygon class="st6" points="28,161.4 31.7,157.7 32.8,158.8 29.1,162.5 					"/>
					<polygon class="st6" points="55.7,134.1 59.4,130.4 60.5,131.4 56.7,135.1 					"/>
					<rect x="22" y="145.7" class="st6" width="5.3" height="1.5"/>
					<rect x="61.1" y="145.7" class="st6" width="5.3" height="1.5"/>
					<g>
						<ellipse class="st22" cx="59.1" cy="121.8" rx="3.8" ry="3.7"/>
						<path class="st22" d="M49,121.2h-9.8c-1.2,0-2.1-0.9-2.1-2.1v-1.4c0-1.2,0.9-2.1,2.1-2.1H49c1.2,0,2.1,0.9,2.1,2.1v1.4
							C51.1,120.3,50.2,121.2,49,121.2z"/>
					</g>
					<rect x="41.5" y="118" class="st23" width="5.2" height="2.8"/>
					<path class="st8" d="M62.5,128.3l-0.6,0.6L62.5,128.3c-1.1-1.1-2.3-2-3.5-2.8c0.1,0,0.1,0,0.2,0c2.1,0,3.8-1.7,3.8-3.7
						c0-2.1-1.7-3.7-3.8-3.7s-3.8,1.7-3.8,3.7c0,0.7,0.2,1.3,0.5,1.9c-2.3-1.2-4.8-2-7.4-2.4H49c1.2,0,2.1-0.9,2.1-2.1v-1.4
						c0-1.2-1-2.1-2.1-2.1h-4.8V172c14.3,0,25.8-11.5,25.8-25.6C70.1,139.4,67.2,133,62.5,128.3z"/>
				</g>
				<g>
					<ellipse class="st6" cx="44.2" cy="146.3" rx="1.6" ry="1.6"/>
					<polygon class="st6" points="44.3,125.6 43.1,146.7 45.3,146.6 					"/>
					<polygon class="st6" points="45,150.9 43.4,150.9 43.4,146.1 45.1,146.1 					"/>
				</g>
			</g>
			<g>
				<g>
					<path class="st21" d="M54.2,112.1h-21c-7,0-12.7-5.7-12.7-12.7V98c0-7,5.7-12.7,12.7-12.7h21c7,0,12.7,5.7,12.7,12.7v1.4
						C66.9,106.4,61.2,112.1,54.2,112.1z"/>
					<path class="st3" d="M54.2,86.4c6.4,0,11.5,5.2,11.5,11.5v1.4c0,6.4-5.2,11.5-11.5,11.5h-21c-6.4,0-11.5-5.2-11.5-11.5V98
						c0-6.4,5.2-11.5,11.5-11.5L54.2,86.4 M54.2,85.2h-21c-7,0-12.7,5.7-12.7,12.7v1.4c0,7,5.7,12.7,12.7,12.7h21
						c7,0,12.7-5.7,12.7-12.7V98C66.9,90.9,61.2,85.2,54.2,85.2L54.2,85.2z"/>
				</g>
				<g>
					<path class="st4" d="M39.6,95.1c0.2-0.6,0.5-1.1,0.8-1.5c0.4-0.4,0.8-0.8,1.4-1c0.5-0.2,1.2-0.4,1.9-0.4c0.5,0,1.1,0.1,1.5,0.3
						c0.5,0.2,0.9,0.4,1.3,0.7c0.4,0.3,0.7,0.7,0.9,1.2s0.3,1,0.3,1.6s-0.1,1.1-0.3,1.5s-0.4,0.8-0.8,1.1c-0.3,0.3-0.7,0.6-1.1,0.9
						c-0.4,0.3-0.8,0.5-1.2,0.8s-0.8,0.5-1.2,0.9s-0.7,0.7-1,1.1h5.6v2.1H39c0-0.7,0.1-1.3,0.3-1.8s0.5-1,0.8-1.4s0.7-0.8,1.2-1.1
						c0.5-0.3,0.9-0.7,1.4-1c0.3-0.2,0.5-0.4,0.8-0.5c0.3-0.2,0.6-0.4,0.8-0.6s0.4-0.5,0.6-0.8c0.2-0.3,0.2-0.6,0.2-1
						c0-0.6-0.2-1-0.5-1.3s-0.8-0.5-1.3-0.5c-0.3,0-0.6,0.1-0.9,0.2c-0.2,0.2-0.4,0.4-0.6,0.6c-0.1,0.3-0.2,0.6-0.3,0.9
						s-0.1,0.6-0.1,1h-2.3C39.4,96.3,39.5,95.7,39.6,95.1z"/>
				</g>
			</g>
		</g>
	</g>
	<g>
		<defs>
			<path id="SVGID_15_" d="M225.8,167.1H16.7c-4.3,0-7.8-3.5-7.8-7.8V63.8c0-4.3,3.5-7.8,7.8-7.8h209.1c4.3,0,7.8,3.5,7.8,7.8v95.5
				C233.6,163.6,230.1,167.1,225.8,167.1z"/>
		</defs>
		<clipPath id="SVGID_16_">
			<use xlink:href="#SVGID_15_"  style="overflow:visible;"/>
		</clipPath>
		<g class="st24">
			<g>
				<path class="st9" d="M244.4,148.8l-9.5-12l-0.1-0.1v-28c0-3.6-2.9-6.5-6.5-6.5H100.6c-3.6,0-6.5,2.9-6.5,6.5v28l0.1,0.1l9.5,12
					c2.2,2.8,2.2,7.4,0,10.1l-9.5,12l-0.1,0.1v17c0,3.6,2.9,6.5,6.5,6.5h18.3V171l0.1-0.1l9.5-12c2.2-2.8,2.2-7.4,0-10.1l-9.5-12
					l-0.1-0.1v-17c0-3.6,2.9-6.5,6.5-6.5h9.7c3.6,0,6.5,2.9,6.5,6.5v17l0.1,0.1l9.5,12c2.2,2.8,2.2,7.4,0,10.1l-9.5,12l-0.1,0.1
					v23.5h86.6c3.6,0,6.5-2.9,6.5-6.5v-17l0.1-0.1l9.5-12C246.7,156.1,246.7,151.6,244.4,148.8z"/>
				<path class="st10" d="M228.3,103.2c3,0,5.5,2.5,5.5,5.5v28v0.3l0.2,0.3l0.1,0.1l9.5,12c1.9,2.4,1.9,6.5,0,8.9l-9.5,11.9
					l-0.1,0.1l-0.2,0.3v0.3v17c0,3-2.5,5.5-5.5,5.5h-85.7v-22.2l9.4-11.8c2.5-3.1,2.5-8.2,0-11.4l-9.4-11.8v-16.6
					c0-4.1-3.4-7.5-7.5-7.5h-9.7c-4.1,0-7.5,3.4-7.5,7.5v17v0.3l0.2,0.3l0.1,0.1l9.5,12c1.9,2.4,1.9,6.5,0,8.9l-9.5,11.9l-0.1,0.1
					l-0.2,0.3v0.3v22.5h-17.3c-3,0-5.5-2.5-5.5-5.5v-16.6l9.4-11.8c2.5-3.1,2.5-8.2,0-11.4l-9.4-11.8v-27.7c0-3,2.5-5.5,5.5-5.5
					h127.7 M228.3,102.2H100.6c-3.6,0-6.5,2.9-6.5,6.5v28l0.1,0.1l9.5,12c2.2,2.8,2.2,7.4,0,10.1l-9.5,12l-0.1,0.1v17
					c0,3.6,2.9,6.5,6.5,6.5h18.3V171l0.1-0.1l9.5-12c2.2-2.8,2.2-7.4,0-10.1l-9.5-12l-0.1-0.1v-17c0-3.6,2.9-6.5,6.5-6.5h9.7
					c3.6,0,6.5,2.9,6.5,6.5v17l0.1,0.1l9.5,12c2.2,2.8,2.2,7.4,0,10.1l-9.5,12l-0.1,0.1v23.5h86.6c3.6,0,6.5-2.9,6.5-6.5v-17
					l0.1-0.1l9.5-12c2.2-2.8,2.2-7.4,0-10.1l-9.5-12l-0.1-0.1v-28C234.8,105.1,231.9,102.2,228.3,102.2L228.3,102.2z"/>
			</g>
			<g>
				<path class="st4" d="M208,111.3h-23.6c-7.4,0-13.4-6-13.4-13.4v-2c0-7.4,6-13.4,13.4-13.4H208c7.4,0,13.4,6,13.4,13.4v2
					C221.5,105.3,215.4,111.3,208,111.3z"/>
				<path class="st10" d="M208,83.7c6.8,0,12.3,5.5,12.3,12.3v2c0,6.8-5.5,12.3-12.3,12.3h-23.6c-6.8,0-12.3-5.5-12.3-12.3v-2
					c0-6.8,5.5-12.3,12.3-12.3H208 M208,82.5h-23.6c-7.4,0-13.4,6-13.4,13.4v2c0,7.4,6,13.4,13.4,13.4H208c7.4,0,13.4-6,13.4-13.4
					v-2C221.5,88.6,215.4,82.5,208,82.5L208,82.5z"/>
			</g>
			<g>
				<path class="st11" d="M191.7,100.1v-2.7l6.3-8.3h2.6v8.6h1.9v2.4h-1.9v3.3h-2.8v-3.3H191.7z M197.7,92.8l-3.7,5h3.8L197.7,92.8
					L197.7,92.8z"/>
			</g>
		</g>
	</g>
	<g>
		<defs>
			<path id="SVGID_17_" d="M225.8,167.1H16.7c-4.3,0-7.8-3.5-7.8-7.8V63.8c0-4.3,3.5-7.8,7.8-7.8h209.1c4.3,0,7.8,3.5,7.8,7.8v95.5
				C233.6,163.6,230.1,167.1,225.8,167.1z"/>
		</defs>
		<clipPath id="SVGID_18_">
			<use xlink:href="#SVGID_17_"  style="overflow:visible;"/>
		</clipPath>
		<g class="st25">
			<path class="st12" d="M215.4,152v3.7c0,3.5-2.8,6.3-6.3,6.3h-19.4v-4c0-0.4-0.2-0.8-0.6-1c-0.2-0.1-0.4-0.2-0.6-0.2
				c-0.2,0-0.4,0-0.6,0.1l-16.6,8.4c-0.4,0.2-0.7,0.6-0.7,1.1s0.3,0.9,0.7,1.1l16.6,8.4c0.2,0.1,0.4,0.1,0.6,0.1
				c0.2,0,0.4-0.1,0.6-0.2c0.4-0.2,0.6-0.6,0.6-1V171h19.4c8.5,0,15.3-6.9,15.3-15.3v-8.3L215.4,152z"/>
			<path class="st12" d="M214.6,133.6l-16.6-8.4c-0.2-0.1-0.4-0.1-0.6-0.1c-0.2,0-0.4,0.1-0.6,0.2c-0.4,0.2-0.6,0.6-0.6,1v3.9h-16.7
				c-8.5,0-15.3,6.9-15.3,15.3v12l9-4.6v-7.4c0-3.5,2.8-6.3,6.3-6.3h16.7v3.9c0,0.4,0.2,0.8,0.6,1c0.2,0.1,0.4,0.2,0.6,0.2
				c0.2,0,0.4,0,0.6-0.1l16.6-8.4c0.4-0.2,0.7-0.6,0.7-1.1C215.3,134.2,215,133.8,214.6,133.6z"/>
		</g>
	</g>
</g>
</svg>
