<?xml version="1.0" encoding="utf-8"?>
<!-- Generator: Adobe Illustrator 22.1.0, SVG Export Plug-In . SVG Version: 6.00 Build 0)  -->
<svg version="1.1" id="レイヤー_1" xmlns="http://www.w3.org/2000/svg" xmlns:xlink="http://www.w3.org/1999/xlink" x="0px"
	 y="0px" viewBox="0 0 420 420" style="enable-background:new 0 0 420 420;" xml:space="preserve">
<style type="text/css">
	.st0{fill:url(#SVGID_1_);}
	.st1{fill:url(#SVGID_2_);}
	.st2{fill:url(#SVGID_3_);}
	.st3{fill:url(#SVGID_4_);}
	.st4{fill:url(#SVGID_5_);}
	.st5{fill:url(#SVGID_6_);}
	.st6{fill:url(#SVGID_7_);}
	.st7{fill:url(#SVGID_8_);}
	.st8{fill:url(#SVGID_9_);}
	.st9{fill:url(#SVGID_10_);}
	.st10{fill:url(#SVGID_11_);}
	.st11{fill:url(#SVGID_12_);}
	.st12{fill:url(#SVGID_13_);}
	.st13{fill:url(#SVGID_14_);}
	.st14{fill:url(#SVGID_15_);}
	.st15{fill:url(#SVGID_16_);}
	.st16{fill:url(#SVGID_17_);}
	.st17{fill:url(#SVGID_18_);}
	.st18{fill:url(#SVGID_19_);}
	.st19{fill:url(#SVGID_20_);}
	.st20{fill:url(#SVGID_21_);}
	.st21{fill:url(#SVGID_22_);}
	.st22{opacity:0.4;}
	.st23{fill:url(#SVGID_23_);}
	.st24{fill:url(#SVGID_24_);}
	.st25{fill:url(#SVGID_25_);}
	.st26{fill:url(#SVGID_26_);}
	.st27{fill:url(#SVGID_27_);}
	.st28{fill:url(#SVGID_28_);}
	.st29{fill:url(#SVGID_29_);}
	.st30{fill:url(#SVGID_30_);}
	.st31{fill:url(#SVGID_31_);}
	.st32{fill:url(#SVGID_32_);}
	.st33{fill:url(#SVGID_33_);}
	.st34{fill:url(#SVGID_34_);}
	.st35{fill:url(#SVGID_35_);}
	.st36{fill:url(#SVGID_36_);}
	.st37{fill:url(#SVGID_37_);}
	.st38{fill:url(#SVGID_38_);}
	.st39{fill:url(#SVGID_39_);}
	.st40{fill:url(#SVGID_40_);}
	.st41{fill:url(#SVGID_41_);}
	.st42{fill:url(#SVGID_42_);}
	.st43{fill:url(#SVGID_43_);}
	.st44{fill:url(#SVGID_44_);}
	.st45{fill:url(#SVGID_45_);}
	.st46{fill:url(#SVGID_46_);}
	.st47{fill:url(#SVGID_47_);}
	.st48{fill:url(#SVGID_48_);}
	.st49{opacity:0.16;fill:url(#SVGID_49_);}
	.st50{opacity:0.2;fill:url(#SVGID_50_);}
</style>
<g>
	
		<radialGradient id="SVGID_1_" cx="210.0001" cy="210.3895" r="174.2" gradientTransform="matrix(1 0 0 0.9981 0 0)" gradientUnits="userSpaceOnUse">
		<stop  offset="0" style="stop-color:#FFFFFF"/>
		<stop  offset="0.4453" style="stop-color:#FFFFFF"/>
		<stop  offset="0.5384" style="stop-color:#FBF9DA"/>
		<stop  offset="0.6593" style="stop-color:#F7F2B1"/>
		<stop  offset="0.7692" style="stop-color:#F4ED93"/>
		<stop  offset="0.8632" style="stop-color:#F3EA81"/>
		<stop  offset="0.9301" style="stop-color:#F2E97A"/>
	</radialGradient>
	<path class="st0" d="M307,380c-3.5,0-7.1-0.9-10.4-2.6L210,332l-86.6,45.4c-7.5,3.9-16.2,3.4-22.8-1.4c-6.6-4.8-9.8-12.9-8.4-21.2
		l16.5-96.3l-70.1-68.2c-6-5.9-8.2-14.3-5.7-22c2.5-7.7,9.3-13.3,17.6-14.5l96.8-14l43.3-87.6C194.5,44.7,201.9,40,210,40h0
		c8.1,0,15.5,4.7,19.2,12.2l43.3,87.6l96.8,14c8.3,1.2,15.1,6.8,17.6,14.5s0.3,16.2-5.7,22l-70.1,68.2l16.5,96.3
		c1.4,8.3-1.8,16.4-8.4,21.2C315.7,378.7,311.4,380,307,380z M93.5,188l48.6,47.3c5.9,5.7,8.8,14.6,7.4,22.7L138,324.6l60-31.5
		c7.2-3.8,16.6-3.8,23.9,0l60,31.5l-11.5-66.7c-1.4-8.1,1.5-16.9,7.4-22.6l48.6-47.3l-67.1-9.7c-8.1-1.2-15.7-6.7-19.3-14l-30-60.7
		l-30,60.7c-3.6,7.3-11.2,12.8-19.3,14L93.5,188z"/>
	
		<radialGradient id="SVGID_2_" cx="210.0001" cy="210.3895" r="174.2" gradientTransform="matrix(1 0 0 0.9981 0 0)" gradientUnits="userSpaceOnUse">
		<stop  offset="0" style="stop-color:#FFFFFF"/>
		<stop  offset="0.4453" style="stop-color:#FFFFFF"/>
		<stop  offset="0.5384" style="stop-color:#FBF9DA"/>
		<stop  offset="0.6593" style="stop-color:#F7F2B1"/>
		<stop  offset="0.7692" style="stop-color:#F4ED93"/>
		<stop  offset="0.8632" style="stop-color:#F3EA81"/>
		<stop  offset="0.9301" style="stop-color:#F2E97A"/>
	</radialGradient>
	<path class="st1" d="M307,380c-3.5,0-7.1-0.9-10.4-2.6L210,332l-86.6,45.4c-7.5,3.9-16.2,3.4-22.8-1.4c-6.6-4.8-9.8-12.9-8.4-21.2
		l16.5-96.3l-70.1-68.2c-6-5.9-8.2-14.3-5.7-22c2.5-7.7,9.3-13.3,17.6-14.5l96.8-14l43.3-87.6C194.5,44.7,201.9,40,210,40h0
		c8.1,0,15.5,4.7,19.2,12.2l43.3,87.6l96.8,14c8.3,1.2,15.1,6.8,17.6,14.5s0.3,16.2-5.7,22l-70.1,68.2l16.5,96.3
		c1.4,8.3-1.8,16.4-8.4,21.2C315.7,378.7,311.4,380,307,380z M93.5,188l48.6,47.3c5.9,5.7,8.8,14.6,7.4,22.7L138,324.6l60-31.5
		c7.2-3.8,16.6-3.8,23.9,0l60,31.5l-11.5-66.7c-1.4-8.1,1.5-16.9,7.4-22.6l48.6-47.3l-67.1-9.7c-8.1-1.2-15.7-6.7-19.3-14l-30-60.7
		l-30,60.7c-3.6,7.3-11.2,12.8-19.3,14L93.5,188z"/>
	<g>
		
			<radialGradient id="SVGID_3_" cx="105.8343" cy="167.1388" r="14.4444" gradientTransform="matrix(1 0 0 0.9981 0 0)" gradientUnits="userSpaceOnUse">
			<stop  offset="0" style="stop-color:#FFFFFF"/>
			<stop  offset="0.4453" style="stop-color:#FFFFFF"/>
			<stop  offset="0.5422" style="stop-color:#FBF9D8"/>
			<stop  offset="0.662" style="stop-color:#F7F2AF"/>
			<stop  offset="0.7708" style="stop-color:#F4ED91"/>
			<stop  offset="0.8638" style="stop-color:#F2EA7F"/>
			<stop  offset="0.9301" style="stop-color:#F1E978"/>
		</radialGradient>
		<ellipse class="st2" cx="105.8" cy="166.8" rx="14.4" ry="14.4"/>
		
			<radialGradient id="SVGID_4_" cx="314.1659" cy="167.1388" r="14.4444" gradientTransform="matrix(1 0 0 0.9981 0 0)" gradientUnits="userSpaceOnUse">
			<stop  offset="0" style="stop-color:#FFFFFF"/>
			<stop  offset="0.4453" style="stop-color:#FFFFFF"/>
			<stop  offset="0.5422" style="stop-color:#FBF9D8"/>
			<stop  offset="0.662" style="stop-color:#F7F2AF"/>
			<stop  offset="0.7708" style="stop-color:#F4ED91"/>
			<stop  offset="0.8638" style="stop-color:#F2EA7F"/>
			<stop  offset="0.9301" style="stop-color:#F1E978"/>
		</radialGradient>
		<ellipse class="st3" cx="314.2" cy="166.8" rx="14.4" ry="14.4"/>
	</g>
	<g>
		
			<radialGradient id="SVGID_5_" cx="91.3899" cy="213.1369" r="14.4444" gradientTransform="matrix(1 0 0 0.9981 0 0)" gradientUnits="userSpaceOnUse">
			<stop  offset="0" style="stop-color:#FFFFFF"/>
			<stop  offset="0.4453" style="stop-color:#FFFFFF"/>
			<stop  offset="0.5548" style="stop-color:#FAF7D1"/>
			<stop  offset="0.6707" style="stop-color:#F6F0A8"/>
			<stop  offset="0.776" style="stop-color:#F3EB8A"/>
			<stop  offset="0.866" style="stop-color:#F2E878"/>
			<stop  offset="0.9301" style="stop-color:#F1E771"/>
		</radialGradient>
		<ellipse class="st4" cx="91.4" cy="212.7" rx="14.4" ry="14.4"/>
		
			<radialGradient id="SVGID_6_" cx="328.6103" cy="213.1369" r="14.4444" gradientTransform="matrix(1 0 0 0.9981 0 0)" gradientUnits="userSpaceOnUse">
			<stop  offset="0" style="stop-color:#FFFFFF"/>
			<stop  offset="0.4453" style="stop-color:#FFFFFF"/>
			<stop  offset="0.5548" style="stop-color:#FAF7D1"/>
			<stop  offset="0.6707" style="stop-color:#F6F0A8"/>
			<stop  offset="0.776" style="stop-color:#F3EB8A"/>
			<stop  offset="0.866" style="stop-color:#F2E878"/>
			<stop  offset="0.9301" style="stop-color:#F1E771"/>
		</radialGradient>
		<ellipse class="st5" cx="328.6" cy="212.7" rx="14.4" ry="14.4"/>
	</g>
	<g>
		
			<radialGradient id="SVGID_7_" cx="116.1425" cy="355.5288" r="14.4444" gradientTransform="matrix(1 0 0 0.9981 0 0)" gradientUnits="userSpaceOnUse">
			<stop  offset="0" style="stop-color:#FFFFFF"/>
			<stop  offset="0.4453" style="stop-color:#FFFFFF"/>
			<stop  offset="0.4811" style="stop-color:#FDFCEC"/>
			<stop  offset="0.5931" style="stop-color:#F8F3B8"/>
			<stop  offset="0.6977" style="stop-color:#F4EC8E"/>
			<stop  offset="0.7921" style="stop-color:#F1E770"/>
			<stop  offset="0.8727" style="stop-color:#EFE45E"/>
			<stop  offset="0.9301" style="stop-color:#EEE357"/>
		</radialGradient>
		<ellipse class="st6" cx="116.1" cy="354.9" rx="14.4" ry="14.4"/>
		
			<radialGradient id="SVGID_8_" cx="303.8577" cy="355.5288" r="14.4444" gradientTransform="matrix(1 0 0 0.9981 0 0)" gradientUnits="userSpaceOnUse">
			<stop  offset="0" style="stop-color:#FFFFFF"/>
			<stop  offset="0.4453" style="stop-color:#FFFFFF"/>
			<stop  offset="0.4811" style="stop-color:#FDFCEC"/>
			<stop  offset="0.5931" style="stop-color:#F8F3B8"/>
			<stop  offset="0.6977" style="stop-color:#F4EC8E"/>
			<stop  offset="0.7921" style="stop-color:#F1E770"/>
			<stop  offset="0.8727" style="stop-color:#EFE45E"/>
			<stop  offset="0.9301" style="stop-color:#EEE357"/>
		</radialGradient>
		<ellipse class="st7" cx="303.9" cy="354.9" rx="14.4" ry="14.4"/>
	</g>
	<g>
		
			<radialGradient id="SVGID_9_" cx="164.4416" cy="333.4112" r="14.4444" gradientTransform="matrix(1 0 0 0.9981 0 0)" gradientUnits="userSpaceOnUse">
			<stop  offset="0" style="stop-color:#FFFFFF"/>
			<stop  offset="0.4453" style="stop-color:#FFFFFF"/>
			<stop  offset="0.5566" style="stop-color:#FAF7D0"/>
			<stop  offset="0.6719" style="stop-color:#F6F0A7"/>
			<stop  offset="0.7767" style="stop-color:#F3EB89"/>
			<stop  offset="0.8663" style="stop-color:#F2E877"/>
			<stop  offset="0.9301" style="stop-color:#F1E770"/>
		</radialGradient>
		<ellipse class="st8" cx="164.4" cy="332.8" rx="14.4" ry="14.4"/>
		
			<radialGradient id="SVGID_10_" cx="255.5586" cy="333.4112" r="14.4444" gradientTransform="matrix(1 0 0 0.9981 0 0)" gradientUnits="userSpaceOnUse">
			<stop  offset="0" style="stop-color:#FFFFFF"/>
			<stop  offset="0.4453" style="stop-color:#FFFFFF"/>
			<stop  offset="0.5566" style="stop-color:#FAF7D0"/>
			<stop  offset="0.6719" style="stop-color:#F6F0A7"/>
			<stop  offset="0.7767" style="stop-color:#F3EB89"/>
			<stop  offset="0.8663" style="stop-color:#F2E877"/>
			<stop  offset="0.9301" style="stop-color:#F1E770"/>
		</radialGradient>
		<ellipse class="st9" cx="255.6" cy="332.8" rx="14.4" ry="14.4"/>
	</g>
	
		<radialGradient id="SVGID_11_" cx="210.0001" cy="313.9492" r="14.4444" gradientTransform="matrix(1 0 0 0.9981 0 0)" gradientUnits="userSpaceOnUse">
		<stop  offset="0" style="stop-color:#FFFFFF"/>
		<stop  offset="0.4453" style="stop-color:#FFFFFF"/>
		<stop  offset="0.4811" style="stop-color:#FDFCEC"/>
		<stop  offset="0.5931" style="stop-color:#F8F3B8"/>
		<stop  offset="0.6977" style="stop-color:#F4EC8E"/>
		<stop  offset="0.7921" style="stop-color:#F1E770"/>
		<stop  offset="0.8727" style="stop-color:#EFE45E"/>
		<stop  offset="0.9301" style="stop-color:#EEE357"/>
	</radialGradient>
	<ellipse class="st10" cx="210" cy="313.4" rx="14.4" ry="14.4"/>
	<g>
		
			<radialGradient id="SVGID_12_" cx="121.4091" cy="299.5047" r="14.4444" gradientTransform="matrix(1 0 0 0.9981 0 0)" gradientUnits="userSpaceOnUse">
			<stop  offset="0" style="stop-color:#FFFFFF"/>
			<stop  offset="0.4453" style="stop-color:#FFFFFF"/>
			<stop  offset="0.5111" style="stop-color:#FDFBE7"/>
			<stop  offset="0.6407" style="stop-color:#F8F4BE"/>
			<stop  offset="0.7583" style="stop-color:#F5EFA0"/>
			<stop  offset="0.8589" style="stop-color:#F4EC8E"/>
			<stop  offset="0.9306" style="stop-color:#F3EB87"/>
		</radialGradient>
		<ellipse class="st11" cx="121.4" cy="299" rx="14.4" ry="14.4"/>
		
			<radialGradient id="SVGID_13_" cx="298.5911" cy="299.5047" r="14.4444" gradientTransform="matrix(1 0 0 0.9981 0 0)" gradientUnits="userSpaceOnUse">
			<stop  offset="0" style="stop-color:#FFFFFF"/>
			<stop  offset="0.4453" style="stop-color:#FFFFFF"/>
			<stop  offset="0.5111" style="stop-color:#FDFBE7"/>
			<stop  offset="0.6407" style="stop-color:#F8F4BE"/>
			<stop  offset="0.7583" style="stop-color:#F5EFA0"/>
			<stop  offset="0.8589" style="stop-color:#F4EC8E"/>
			<stop  offset="0.9306" style="stop-color:#F3EB87"/>
		</radialGradient>
		<ellipse class="st12" cx="298.6" cy="299" rx="14.4" ry="14.4"/>
	</g>
	<g>
		
			<radialGradient id="SVGID_14_" cx="126.6034" cy="249.1087" r="14.4444" gradientTransform="matrix(1 0 0 0.9981 0 0)" gradientUnits="userSpaceOnUse">
			<stop  offset="0" style="stop-color:#FFFFFF"/>
			<stop  offset="0.4453" style="stop-color:#FFFFFF"/>
			<stop  offset="0.4811" style="stop-color:#FDFCEC"/>
			<stop  offset="0.5931" style="stop-color:#F8F3B8"/>
			<stop  offset="0.6977" style="stop-color:#F4EC8E"/>
			<stop  offset="0.7921" style="stop-color:#F1E770"/>
			<stop  offset="0.8727" style="stop-color:#EFE45E"/>
			<stop  offset="0.9301" style="stop-color:#EEE357"/>
		</radialGradient>
		<ellipse class="st13" cx="126.6" cy="248.6" rx="14.4" ry="14.4"/>
		
			<radialGradient id="SVGID_15_" cx="293.3968" cy="249.1087" r="14.4444" gradientTransform="matrix(1 0 0 0.9981 0 0)" gradientUnits="userSpaceOnUse">
			<stop  offset="0" style="stop-color:#FFFFFF"/>
			<stop  offset="0.4453" style="stop-color:#FFFFFF"/>
			<stop  offset="0.4811" style="stop-color:#FDFCEC"/>
			<stop  offset="0.5931" style="stop-color:#F8F3B8"/>
			<stop  offset="0.6977" style="stop-color:#F4EC8E"/>
			<stop  offset="0.7921" style="stop-color:#F1E770"/>
			<stop  offset="0.8727" style="stop-color:#EFE45E"/>
			<stop  offset="0.9301" style="stop-color:#EEE357"/>
		</radialGradient>
		<ellipse class="st14" cx="293.4" cy="248.6" rx="14.4" ry="14.4"/>
	</g>
	<g>
		
			<radialGradient id="SVGID_16_" cx="56.7871" cy="174.944" r="14.4444" gradientTransform="matrix(1 0 0 0.9981 0 0)" gradientUnits="userSpaceOnUse">
			<stop  offset="0" style="stop-color:#FFFFFF"/>
			<stop  offset="0.4453" style="stop-color:#FFFFFF"/>
			<stop  offset="0.4811" style="stop-color:#FDFCEC"/>
			<stop  offset="0.5931" style="stop-color:#F8F3B8"/>
			<stop  offset="0.6977" style="stop-color:#F4EC8E"/>
			<stop  offset="0.7921" style="stop-color:#F1E770"/>
			<stop  offset="0.8727" style="stop-color:#EFE45E"/>
			<stop  offset="0.9301" style="stop-color:#EEE357"/>
		</radialGradient>
		<ellipse class="st15" cx="56.8" cy="174.6" rx="14.4" ry="14.4"/>
		
			<radialGradient id="SVGID_17_" cx="363.2131" cy="174.944" r="14.4444" gradientTransform="matrix(1 0 0 0.9981 0 0)" gradientUnits="userSpaceOnUse">
			<stop  offset="0" style="stop-color:#FFFFFF"/>
			<stop  offset="0.4453" style="stop-color:#FFFFFF"/>
			<stop  offset="0.4811" style="stop-color:#FDFCEC"/>
			<stop  offset="0.5931" style="stop-color:#F8F3B8"/>
			<stop  offset="0.6977" style="stop-color:#F4EC8E"/>
			<stop  offset="0.7921" style="stop-color:#F1E770"/>
			<stop  offset="0.8727" style="stop-color:#EFE45E"/>
			<stop  offset="0.9301" style="stop-color:#EEE357"/>
		</radialGradient>
		<ellipse class="st16" cx="363.2" cy="174.6" rx="14.4" ry="14.4"/>
	</g>
	<g>
		
			<radialGradient id="SVGID_18_" cx="159.1336" cy="157.4104" r="14.4444" gradientTransform="matrix(1 0 0 0.9981 0 0)" gradientUnits="userSpaceOnUse">
			<stop  offset="0" style="stop-color:#FFFFFF"/>
			<stop  offset="0.4453" style="stop-color:#FFFFFF"/>
			<stop  offset="0.4811" style="stop-color:#FDFCEC"/>
			<stop  offset="0.5931" style="stop-color:#F8F3B8"/>
			<stop  offset="0.6977" style="stop-color:#F4EC8E"/>
			<stop  offset="0.7921" style="stop-color:#F1E770"/>
			<stop  offset="0.8727" style="stop-color:#EFE45E"/>
			<stop  offset="0.9301" style="stop-color:#EEE357"/>
		</radialGradient>
		<ellipse class="st17" cx="159.1" cy="157.1" rx="14.4" ry="14.4"/>
		
			<radialGradient id="SVGID_19_" cx="260.8665" cy="157.4104" r="14.4444" gradientTransform="matrix(1 0 0 0.9981 0 0)" gradientUnits="userSpaceOnUse">
			<stop  offset="0" style="stop-color:#FFFFFF"/>
			<stop  offset="0.4453" style="stop-color:#FFFFFF"/>
			<stop  offset="0.4811" style="stop-color:#FDFCEC"/>
			<stop  offset="0.5931" style="stop-color:#F8F3B8"/>
			<stop  offset="0.6977" style="stop-color:#F4EC8E"/>
			<stop  offset="0.7921" style="stop-color:#F1E770"/>
			<stop  offset="0.8727" style="stop-color:#EFE45E"/>
			<stop  offset="0.9301" style="stop-color:#EEE357"/>
		</radialGradient>
		<ellipse class="st18" cx="260.9" cy="157.1" rx="14.4" ry="14.4"/>
	</g>
	
		<radialGradient id="SVGID_20_" cx="210.0001" cy="74.3637" r="14.4444" gradientTransform="matrix(1 0 0 0.9981 0 0)" gradientUnits="userSpaceOnUse">
		<stop  offset="0" style="stop-color:#FFFFFF"/>
		<stop  offset="0.4453" style="stop-color:#FFFFFF"/>
		<stop  offset="0.4811" style="stop-color:#FDFCEC"/>
		<stop  offset="0.5931" style="stop-color:#F8F3B8"/>
		<stop  offset="0.6977" style="stop-color:#F4EC8E"/>
		<stop  offset="0.7921" style="stop-color:#F1E770"/>
		<stop  offset="0.8727" style="stop-color:#EFE45E"/>
		<stop  offset="0.9301" style="stop-color:#EEE357"/>
	</radialGradient>
	<ellipse class="st19" cx="210" cy="74.2" rx="14.4" ry="14.4"/>
	<g>
		
			<radialGradient id="SVGID_21_" cx="183.9752" cy="111.3994" r="14.4444" gradientTransform="matrix(1 0 0 0.9981 0 0)" gradientUnits="userSpaceOnUse">
			<stop  offset="0" style="stop-color:#FFFFFF"/>
			<stop  offset="0.4453" style="stop-color:#FFFFFF"/>
			<stop  offset="0.5111" style="stop-color:#FDFBE7"/>
			<stop  offset="0.6405" style="stop-color:#F9F5BE"/>
			<stop  offset="0.758" style="stop-color:#F6F0A0"/>
			<stop  offset="0.8585" style="stop-color:#F5ED8E"/>
			<stop  offset="0.9301" style="stop-color:#F4EC87"/>
		</radialGradient>
		<ellipse class="st20" cx="184" cy="111.2" rx="14.4" ry="14.4"/>
		
			<radialGradient id="SVGID_22_" cx="236.025" cy="111.3994" r="14.4444" gradientTransform="matrix(1 0 0 0.9981 0 0)" gradientUnits="userSpaceOnUse">
			<stop  offset="0" style="stop-color:#FFFFFF"/>
			<stop  offset="0.4453" style="stop-color:#FFFFFF"/>
			<stop  offset="0.5111" style="stop-color:#FDFBE7"/>
			<stop  offset="0.6405" style="stop-color:#F9F5BE"/>
			<stop  offset="0.758" style="stop-color:#F6F0A0"/>
			<stop  offset="0.8585" style="stop-color:#F5ED8E"/>
			<stop  offset="0.9301" style="stop-color:#F4EC87"/>
		</radialGradient>
		<ellipse class="st21" cx="236" cy="111.2" rx="14.4" ry="14.4"/>
	</g>
	<g class="st22">
		<radialGradient id="SVGID_23_" cx="210" cy="210.0002" r="176.0462" gradientUnits="userSpaceOnUse">
			<stop  offset="0" style="stop-color:#FFFFFF"/>
			<stop  offset="0.4453" style="stop-color:#FFFFFF"/>
			<stop  offset="0.4811" style="stop-color:#FDFCEC"/>
			<stop  offset="0.5931" style="stop-color:#F8F3B8"/>
			<stop  offset="0.6977" style="stop-color:#F4EC8E"/>
			<stop  offset="0.7921" style="stop-color:#F1E770"/>
			<stop  offset="0.8727" style="stop-color:#EFE45E"/>
			<stop  offset="0.9301" style="stop-color:#EEE357"/>
		</radialGradient>
		<path class="st23" d="M307,382c-3.9,0-7.8-1-11.3-2.8l-85.7-45l-85.7,45c-3.5,1.8-7.4,2.8-11.3,2.8c-4.9,0-9.6-1.5-13.6-4.4
			c-7.2-5.2-10.7-14.1-9.2-23.1l16.4-95.2l-69.3-67.4c-6.6-6.4-9-15.6-6.2-24.1c2.8-8.5,10.1-14.5,19.2-15.9l95.8-13.9L189,51.3
			C193,43.1,201.1,38,210,38c8.9,0,17,5.1,21,13.3l42.8,86.6l95.8,13.9c9.1,1.3,16.5,7.4,19.2,15.9c2.8,8.5,0.4,17.7-6.2,24.1
			l-69.3,67.4l16.4,95.2c1.6,9-2,17.9-9.2,23.1C316.6,380.5,311.9,382,307,382z M143.5,233.8c6.3,6.2,9.4,15.7,7.9,24.4L140.7,321
			l56.5-29.6c3.8-2,8.3-3.1,12.9-3.1c4.6,0,9,1.1,12.9,3.1l56.5,29.6l-10.8-62.7c-1.5-8.7,1.6-18.3,7.9-24.4l45.7-44.4l-63.1-9.2
			c-8.7-1.3-16.9-7.2-20.8-15.1L210,108l-28.2,57.1c-3.9,7.9-12.1,13.8-20.8,15.1l-63.1,9.2L143.5,233.8z"/>
		<radialGradient id="SVGID_24_" cx="210" cy="210.0002" r="178.0465" gradientUnits="userSpaceOnUse">
			<stop  offset="0" style="stop-color:#FFFFFF"/>
			<stop  offset="0.4453" style="stop-color:#FFFFFF"/>
			<stop  offset="0.4811" style="stop-color:#FDFCEC"/>
			<stop  offset="0.5931" style="stop-color:#F8F3B8"/>
			<stop  offset="0.6977" style="stop-color:#F4EC8E"/>
			<stop  offset="0.7921" style="stop-color:#F1E770"/>
			<stop  offset="0.8727" style="stop-color:#EFE45E"/>
			<stop  offset="0.9301" style="stop-color:#EEE357"/>
		</radialGradient>
		<path class="st24" d="M210,40c8.1,0,15.5,4.7,19.2,12.2l43.3,87.6l96.8,14c8.3,1.2,15.1,6.8,17.6,14.5c2.5,7.7,0.3,16.2-5.7,22
			l-70.1,68.2l16.5,96.3c1.4,8.3-1.8,16.4-8.4,21.2c-3.7,2.7-8,4-12.4,4c0,0,0,0,0,0c-3.5,0-7.1-0.9-10.4-2.6L210,332l-86.6,45.4
			c-3.3,1.7-6.9,2.6-10.4,2.6c-4.4,0-8.7-1.3-12.4-4c-6.6-4.8-9.8-12.9-8.4-21.2l16.5-96.3l-70.1-68.2c-6-5.9-8.2-14.3-5.7-22
			c2.5-7.7,9.3-13.3,17.6-14.5l96.8-14l43.3-87.6C194.5,44.7,201.9,40,210,40L210,40 M138,324.6l60-31.5c3.6-1.9,7.8-2.9,11.9-2.9
			c4.2,0,8.3,1,11.9,2.9l60,31.5l-11.5-66.7c-1.4-8.1,1.5-16.9,7.4-22.6l48.6-47.3l-67.1-9.7c-8.1-1.2-15.7-6.7-19.3-14l-30-60.7
			l-30,60.7c-3.6,7.3-11.2,12.8-19.3,14L93.5,188l48.6,47.3c5.9,5.7,8.8,14.6,7.4,22.7L138,324.6 M210,36C210,36,210,36,210,36
			L210,36c-9.7,0-18.4,5.5-22.8,14.4l-42.4,85.7L50,149.9c-9.9,1.4-17.8,8-20.8,17.2c-3,9.2-0.4,19.2,6.7,26.1l68.6,66.7l-16.2,94.2
			c-1.7,9.8,2.1,19.4,10,25.1c4.3,3.1,9.4,4.8,14.7,4.8c4.2,0,8.4-1.1,12.2-3.1l84.7-44.5l84.7,44.5c3.8,2,8,3.1,12.2,3.1
			c5.3,0,10.4-1.6,14.7-4.8c7.8-5.7,11.7-15.3,10-25.1L315.5,260l68.6-66.7c7.1-6.9,9.7-17,6.7-26.2c-3-9.2-11-15.8-20.8-17.2
			l-94.7-13.7l-42.4-85.7C228.4,41.5,219.7,36,210,36L210,36z M102.2,190.8l59.1-8.6c9.4-1.4,18.1-7.7,22.3-16.2l26.4-53.5
			l26.4,53.5c4.2,8.5,12.9,14.8,22.3,16.2l59.1,8.6l-42.8,41.6c-6.8,6.6-10.1,16.9-8.5,26.2l10.1,58.8l-52.9-27.7
			c-4.1-2.2-8.9-3.3-13.8-3.3c-4.9,0-9.7,1.1-13.8,3.3l-52.9,27.7l10.1-58.8c1.6-9.3-1.7-19.6-8.5-26.2L102.2,190.8L102.2,190.8z"/>
	</g>
</g>
<g>
	<radialGradient id="SVGID_25_" cx="210" cy="210.0002" r="210.0001" gradientUnits="userSpaceOnUse">
		<stop  offset="0" style="stop-color:#F3F3F6"/>
		<stop  offset="0.7495" style="stop-color:#F3F3F6"/>
		<stop  offset="0.8728" style="stop-color:#F3F3F6"/>
		<stop  offset="1" style="stop-color:#F3F3F6;stop-opacity:0"/>
	</radialGradient>
	<circle style="opacity:0.16;fill:url(#SVGID_25_);" cx="210" cy="210" r="210"/>
	<radialGradient id="SVGID_26_" cx="209.9998" cy="210.0002" r="142.8447" gradientUnits="userSpaceOnUse">
		<stop  offset="0" style="stop-color:#F3F3F6"/>
		<stop  offset="0.6011" style="stop-color:#F3F3F6;stop-opacity:0.8283"/>
		<stop  offset="0.7" style="stop-color:#F3F3F6;stop-opacity:0.8"/>
		<stop  offset="1" style="stop-color:#F3F3F6;stop-opacity:0.4"/>
	</radialGradient>
	<circle style="opacity:0.2;fill:url(#SVGID_26_);" cx="210" cy="210" r="142.8"/>
</g>
</svg>
