<?xml version="1.0" encoding="utf-8"?>
<!-- Generator: Adobe Illustrator 22.1.0, SVG Export Plug-In . SVG Version: 6.00 Build 0)  -->
<svg version="1.1" id="レイヤー_1" xmlns="http://www.w3.org/2000/svg" xmlns:xlink="http://www.w3.org/1999/xlink" x="0px"
	 y="0px" viewBox="0 0 240 256" style="enable-background:new 0 0 240 256;" xml:space="preserve">
<style type="text/css">
	.st0{fill:#FFFFFF;}
	.st1{fill:url(#SVGID_1_);}
	.st2{clip-path:url(#SVGID_3_);fill:#D9D9D9;}
	.st3{fill:#333333;}
	.st4{opacity:0.1;clip-path:url(#SVGID_5_);fill:#4D4D4D;}
	.st5{fill:url(#SVGID_6_);}
	.st6{fill:url(#SVGID_7_);}
	.st7{fill:url(#SVGID_8_);}
	.st8{fill:url(#SVGID_9_);}
	.st9{fill:url(#SVGID_10_);}
	.st10{fill:url(#SVGID_11_);}
	.st11{fill:url(#SVGID_12_);}
	.st12{fill:url(#SVGID_13_);}
	.st13{fill:url(#SVGID_14_);}
	.st14{fill:url(#SVGID_15_);}
	.st15{fill:url(#SVGID_16_);}
	.st16{fill:url(#SVGID_17_);}
	.st17{fill:url(#SVGID_18_);}
	.st18{fill:url(#SVGID_19_);}
	.st19{fill:url(#SVGID_20_);}
	.st20{fill:url(#SVGID_21_);}
	.st21{fill:url(#SVGID_22_);}
	.st22{fill:url(#SVGID_23_);}
	.st23{fill:url(#SVGID_24_);}
	.st24{fill:url(#SVGID_25_);}
	.st25{fill:url(#SVGID_26_);}
	.st26{fill:#C5C5C5;}
	.st27{fill:#EEEEEE;}
	.st28{fill:#979697;}
	.st29{fill:#4F555C;}
	.st30{fill:#448CB5;}
	.st31{fill:#4D4D4D;}
	.st32{opacity:0.1;fill:#FFFFFF;}
	.st33{fill:url(#SVGID_27_);}
	.st34{clip-path:url(#SVGID_29_);fill:#D9D9D9;}
	.st35{opacity:0.1;clip-path:url(#SVGID_31_);fill:#4D4D4D;}
	.st36{fill:url(#SVGID_32_);}
	.st37{fill:url(#SVGID_33_);}
	.st38{fill:url(#SVGID_34_);}
	.st39{fill:url(#SVGID_35_);}
	.st40{fill:url(#SVGID_36_);}
	.st41{fill:url(#SVGID_37_);}
	.st42{fill:url(#SVGID_38_);}
	.st43{fill:url(#SVGID_39_);}
	.st44{fill:url(#SVGID_40_);}
	.st45{fill:url(#SVGID_41_);}
	.st46{fill:url(#SVGID_42_);}
	.st47{fill:url(#SVGID_43_);}
	.st48{fill:url(#SVGID_44_);}
	.st49{fill:url(#SVGID_45_);}
	.st50{fill:url(#SVGID_46_);}
	.st51{fill:url(#SVGID_47_);}
	.st52{fill:url(#SVGID_48_);}
	.st53{fill:url(#SVGID_49_);}
	.st54{fill:url(#SVGID_50_);}
	.st55{fill:url(#SVGID_51_);}
	.st56{fill:url(#SVGID_52_);}
	.st57{fill:#C6474B;}
	.st58{opacity:0.16;fill:url(#SVGID_53_);}
	.st59{opacity:0.2;fill:url(#SVGID_54_);}
</style>
<g>
	<path class="st0" d="M42.2,227.2v1.5h-1.3v-2.5h4.6v-0.5h-3.8v-1.1h9.1v1.1H47v0.5h4.7v2.5h-1.4v-1.5H47v2.6h-1.4v-2.6H42.2z
		 M46.9,234c0,0.5,0.1,0.6,0.9,0.6h2.3c0.6,0,0.7-0.2,0.8-1.2c0.3,0.2,0.8,0.4,1.2,0.5c-0.2,1.5-0.6,1.9-1.9,1.9h-2.6
		c-1.8,0-2.2-0.4-2.2-1.7h-2v0.5H42v-4.5h8.6v4H46.9z M42.4,229.6v-0.8h2.7v0.8H42.4z M42.6,227.6h2.4v0.8h-2.4V227.6z M45.4,231.1
		h-2v0.6h2V231.1z M43.4,233h2v-0.5h-2V233z M49.1,231.6v-0.6h-2.2v0.6H49.1z M46.9,233h2.2v-0.5h-2.2V233z M47.4,227.6h2.4v0.8
		h-2.4V227.6z M47.4,229.6v-0.8h2.7v0.8H47.4z"/>
	<path class="st0" d="M53.5,227.6c0.7,0.3,1.6,0.8,2.1,1.2l-0.9,1.2c-0.4-0.4-1.3-0.9-2-1.3L53.5,227.6z M52.9,234.8
		c0.5-1,1.2-2.5,1.7-4l1.2,0.8c-0.5,1.3-1,2.7-1.5,3.6c0.1,0.1,0.1,0.2,0.1,0.2c0,0.1,0,0.1,0,0.2L52.9,234.8z M54.1,224.3
		c0.7,0.3,1.6,0.8,2.1,1.2c-0.3,0.4-0.6,0.8-0.9,1.2c-0.4-0.4-1.3-1-2-1.3L54.1,224.3z M63.7,231.7h-2.1v2.7c0,1.1-0.2,1.4-2.3,1.4
		c0-0.4-0.2-0.9-0.4-1.3c0.4,0,0.9,0,1.1,0c0.1,0,0.2,0,0.2-0.2v-2.6h-1.9v-4.4h1.7c0.1-0.4,0.1-0.8,0.2-1.1h-2.3v2.1
		c0,1.7-0.1,4.1-0.9,6.1c0.6-0.5,1.2-1.4,1.6-2.3l1.5,0.5c0,0.1-0.1,0.1-0.3,0.1c-0.4,0.9-1.1,1.9-1.8,2.5c-0.2-0.2-0.7-0.6-1-0.8
		c-0.2,0.5-0.4,0.9-0.7,1.3c-0.3-0.2-0.9-0.6-1.2-0.8c1.4-1.9,1.5-4.7,1.5-6.7v-3.4h7.8v1.3h-2.7l0.5,0.1c0,0.1-0.1,0.1-0.3,0.2
		c-0.1,0.3-0.2,0.6-0.3,0.8h2.2V231.7z M59.7,228.4v0.6h2.7v-0.6H59.7z M59.7,230v0.6h2.7V230H59.7z M63.2,235.1
		c-0.2-0.7-0.9-1.7-1.4-2.5L63,232c0.5,0.7,1.2,1.8,1.5,2.4L63.2,235.1z"/>
</g>
<g>
	<path class="st0" d="M139.4,226.2v8.5h-1.6v-0.6h-7.1v-1.5h7.1v-5h-7v-1.5H139.4z"/>
	<path class="st0" d="M143.4,225.4c1.2,0.4,2.7,1,3.6,1.6l-0.8,1.4c-0.9-0.6-2.3-1.3-3.5-1.7L143.4,225.4z M143,233.7
		c4.1-1.3,7-3.7,8.4-7c0.5,0.4,1,0.7,1.4,0.9c-1.5,3.3-4.4,5.9-8.5,7.4c0,0.1-0.1,0.3-0.2,0.3L143,233.7z"/>
	<path class="st0" d="M161.4,233.4c0.6,0,2-0.1,2.7-0.2c0,0.5,0,1,0.1,1.6c-0.7,0.1-2,0.2-2.6,0.2h-2.8c-2.1,0-3.1-0.9-3.1-2.8V225
		l1.9,0.1c0,0.1-0.1,0.2-0.4,0.3v3.6c1.6-0.5,3.9-1.4,5.3-2.3l1,1.5c0,0-0.1,0-0.2,0c-0.1,0-0.1,0-0.2,0c-1.2,0.6-3.9,1.6-6,2.2v1.7
		c0,1,0.5,1.3,1.6,1.3H161.4z M164.1,224.2c0.7,0,1.3,0.6,1.3,1.3s-0.6,1.3-1.3,1.3s-1.3-0.6-1.3-1.3
		C162.7,224.8,163.4,224.2,164.1,224.2z M164.9,225.5c0-0.5-0.4-0.9-0.9-0.9c-0.5,0-0.9,0.4-0.9,0.9c0,0.5,0.4,0.9,0.9,0.9
		C164.6,226.4,164.9,226,164.9,225.5z"/>
	<path class="st0" d="M176.1,233.2v1.2h-8.4v-1.2h4.7c0.2-1.1,0.4-3,0.5-4.1h-4.4v-1.2h4.8l0.2-0.1l1,0.4c0,0.1-0.1,0.1-0.2,0.2
		c-0.2,1.2-0.5,3.6-0.7,4.8H176.1z"/>
	<path class="st0" d="M178.9,229h10.2v1.5h-9.7c-0.1,0.1-0.2,0.2-0.4,0.2L178.9,229z"/>
	<path class="st0" d="M200.7,226.7c0,0.1-0.1,0.2-0.2,0.2c-0.5,1.4-1.1,2.8-1.7,3.8c0.4,0.3,1,0.6,1.3,0.9l-0.9,1.5
		c-0.4-0.3-1-0.7-1.4-1c-1.1,1.4-2.5,2.5-4.1,3.3c-0.2-0.4-0.8-0.9-1.2-1.2c1.6-0.7,2.9-1.7,4-2.9c-0.6-0.4-1.4-0.8-2.1-1l0.8-1.2
		c0.7,0.2,1.4,0.6,2.1,0.9c0.5-0.7,0.9-1.6,1.1-2.4h-3.4c-0.8,1.2-1.7,2.3-2.6,3.1c-0.3-0.3-0.9-0.7-1.3-1c1.7-1.3,3-3.2,3.7-5.3
		l2,0.4c0,0.1-0.2,0.2-0.4,0.2c-0.1,0.3-0.3,0.8-0.5,1.2h3.3l0.3-0.1L200.7,226.7z"/>
</g>
<path class="st0" d="M215.3,166.4h-63.6v2h63.6c3.9,0,7.1,3.2,7.1,7.1v65.3c0,3.9-3.2,7.1-7.1,7.1H27.7c-3.9,0-7.1-3.2-7.1-7.1
	v-65.3c0-3.9,3.2-7.1,7.1-7.1h62.7v-2H27.7c-5.1,0-9.2,4.1-9.2,9.2v65.3c0,5.1,4.1,9.2,9.2,9.2h187.6c5.1,0,9.2-4.1,9.2-9.2v-65.3
	C224.5,170.5,220.3,166.4,215.3,166.4z"/>
<g>
	<g>
		
			<radialGradient id="SVGID_1_" cx="-711.719" cy="-165.7099" r="3.9497" gradientTransform="matrix(1.264 0 0 1.2502 919.5793 387.9775)" gradientUnits="userSpaceOnUse">
			<stop  offset="0" style="stop-color:#FFFFFF"/>
			<stop  offset="0.3231" style="stop-color:#FFFFFF"/>
			<stop  offset="0.9301" style="stop-color:#DDE3D5"/>
		</radialGradient>
		<path class="st1" d="M21.6,184.8h-3.2c-1.8,0-3.3-1.5-3.3-3.3v-0.1c0-1.8,1.5-3.3,3.3-3.3h3.2c1.8,0,3.3,1.5,3.3,3.3v0.1
			C24.9,183.3,23.4,184.8,21.6,184.8z"/>
		<g>
			<defs>
				<path id="SVGID_28_" d="M30.3,238.3h-21c-1.8,0-3.3-1.5-3.3-3.3v-50.3c0-1.8,1.5-3.3,3.3-3.3h21c1.8,0,3.3,1.5,3.3,3.3V235
					C33.6,236.8,32.1,238.3,30.3,238.3z"/>
			</defs>
			<use xlink:href="#SVGID_28_"  style="overflow:visible;fill:#C3403D;"/>
			<clipPath id="SVGID_3_">
				<use xlink:href="#SVGID_28_"  style="overflow:visible;"/>
			</clipPath>
			<rect x="5.1" y="215.9" class="st2" width="29.4" height="24.1"/>
		</g>
		<ellipse class="st3" cx="20" cy="191.5" rx="6.7" ry="6.6"/>
		<ellipse class="st0" cx="20" cy="227.8" rx="6.7" ry="6.6"/>
		<g>
			<path class="st0" d="M19.1,186.8h1.5v3.9h3.8v1.4h-3.8v3.9h-1.5v-3.9h-3.8v-1.4h3.8V186.8z"/>
		</g>
		<g>
			<path class="st3" d="M15.8,227.2h8.4v1.6h-8.4V227.2z"/>
		</g>
	</g>
	<g>
		<defs>
			<path id="SVGID_30_" d="M30.3,181.4h-5.4v0c0-1.8-1.5-3.3-3.3-3.3h-3.2c-1.8,0-3.3,1.5-3.3,3.3v0H9.3c-1.8,0-3.3,1.5-3.3,3.3V235
				c0,1.8,1.5,3.3,3.3,3.3h21c1.8,0,3.3-1.5,3.3-3.3v-50.3C33.6,182.9,32.1,181.4,30.3,181.4z"/>
		</defs>
		<clipPath id="SVGID_5_">
			<use xlink:href="#SVGID_30_"  style="overflow:visible;"/>
		</clipPath>
		<rect x="20" y="176" class="st4" width="15" height="64.7"/>
	</g>
</g>
<g>
	<path class="st0" d="M117.8,135.2v24.1c0,3.9-3.2,7.1-7.1,7.1h-1.1v0H60.3c1.6,1.3,3.6,2,5.8,2h44.6c5.1,0,9.2-4.1,9.2-9.2v-25.1
		L117.8,135.2z"/>
</g>
<g>
	<path class="st0" d="M134.6,166.4h-2.3c-3.9,0-7.1-3.2-7.1-7.1v-24.1l-2-1.1v25.1c0,5.1,4.1,9.2,9.2,9.2h44.6c2.2,0,4.2-0.8,5.8-2
		L134.6,166.4L134.6,166.4z"/>
</g>
<radialGradient id="SVGID_6_" cx="121.489" cy="83.9016" r="70.3399" gradientTransform="matrix(1 0 0 1.0002 0 -2.059362e-02)" gradientUnits="userSpaceOnUse">
	<stop  offset="0" style="stop-color:#FFFFFF"/>
	<stop  offset="0.2901" style="stop-color:#FFFFFF"/>
	<stop  offset="0.4627" style="stop-color:#F6F8F4"/>
	<stop  offset="0.7654" style="stop-color:#DFE4D7"/>
	<stop  offset="0.9301" style="stop-color:#D0D8C4"/>
</radialGradient>
<path class="st5" d="M160.7,152.7c-1.4,0-2.9-0.3-4.2-1.1l-35-18.4l-35,18.4c-3,1.6-6.5,1.4-9.2-0.6c-2.7-1.9-4-5.2-3.4-8.6
	l6.7-38.9L52.3,76C49.9,73.6,49,70.2,50,67c1-3.1,3.7-5.4,7.1-5.9l39.1-5.7l17.5-35.4c1.5-3,4.5-4.9,7.8-4.9h0
	c3.3,0,6.3,1.9,7.8,4.9l17.5,35.4l39.1,5.7c3.4,0.5,6.1,2.7,7.1,5.9c1,3.1,0.1,6.5-2.3,8.9l-28.3,27.6l6.7,38.9
	c0.6,3.4-0.7,6.6-3.4,8.6C164.2,152.1,162.4,152.7,160.7,152.7z M74.5,75l19.6,19.1c2.4,2.3,3.5,5.9,3,9.2l-4.6,27l24.2-12.7
	c2.9-1.5,6.7-1.5,9.6,0l24.2,12.7l-4.6-27c-0.6-3.3,0.6-6.9,3-9.2L168.5,75L141.4,71c-3.3-0.5-6.3-2.7-7.8-5.7l-12.1-24.6
	l-12.1,24.6c-1.5,3-4.5,5.2-7.8,5.7L74.5,75z"/>
<g>
	
		<radialGradient id="SVGID_7_" cx="79.4281" cy="66.4375" r="5.8325" gradientTransform="matrix(1 0 0 1.0002 0 -2.059362e-02)" gradientUnits="userSpaceOnUse">
		<stop  offset="0" style="stop-color:#FFFFFF"/>
		<stop  offset="0.2901" style="stop-color:#FFFFFF"/>
		<stop  offset="0.4627" style="stop-color:#F6F8F4"/>
		<stop  offset="0.7654" style="stop-color:#DFE4D7"/>
		<stop  offset="0.9301" style="stop-color:#D0D8C4"/>
	</radialGradient>
	<circle class="st6" cx="79.4" cy="66.4" r="5.8"/>
	
		<radialGradient id="SVGID_8_" cx="163.5499" cy="66.4375" r="5.8325" gradientTransform="matrix(1 0 0 1.0002 0 -2.059362e-02)" gradientUnits="userSpaceOnUse">
		<stop  offset="0" style="stop-color:#FFFFFF"/>
		<stop  offset="0.2901" style="stop-color:#FFFFFF"/>
		<stop  offset="0.4627" style="stop-color:#F6F8F4"/>
		<stop  offset="0.7654" style="stop-color:#DFE4D7"/>
		<stop  offset="0.9301" style="stop-color:#D0D8C4"/>
	</radialGradient>
	<circle class="st7" cx="163.5" cy="66.4" r="5.8"/>
</g>
<g>
	
		<radialGradient id="SVGID_9_" cx="73.5956" cy="85.011" r="5.8325" gradientTransform="matrix(1 0 0 1.0002 0 -2.059362e-02)" gradientUnits="userSpaceOnUse">
		<stop  offset="0" style="stop-color:#FFFFFF"/>
		<stop  offset="0.2901" style="stop-color:#FFFFFF"/>
		<stop  offset="0.4627" style="stop-color:#F6F8F4"/>
		<stop  offset="0.7654" style="stop-color:#DFE4D7"/>
		<stop  offset="0.9301" style="stop-color:#D0D8C4"/>
	</radialGradient>
	<circle class="st8" cx="73.6" cy="85" r="5.8"/>
	
		<radialGradient id="SVGID_10_" cx="169.3824" cy="85.011" r="5.8325" gradientTransform="matrix(1 0 0 1.0002 0 -2.059362e-02)" gradientUnits="userSpaceOnUse">
		<stop  offset="0" style="stop-color:#FFFFFF"/>
		<stop  offset="0.2901" style="stop-color:#FFFFFF"/>
		<stop  offset="0.4627" style="stop-color:#F6F8F4"/>
		<stop  offset="0.7654" style="stop-color:#DFE4D7"/>
		<stop  offset="0.9301" style="stop-color:#D0D8C4"/>
	</radialGradient>
	<circle class="st9" cx="169.4" cy="85" r="5.8"/>
</g>
<g>
	
		<radialGradient id="SVGID_11_" cx="83.5904" cy="142.5071" r="5.8325" gradientTransform="matrix(1 0 0 1.0002 0 -2.059362e-02)" gradientUnits="userSpaceOnUse">
		<stop  offset="0" style="stop-color:#FFFFFF"/>
		<stop  offset="0.2901" style="stop-color:#FFFFFF"/>
		<stop  offset="0.4627" style="stop-color:#F6F8F4"/>
		<stop  offset="0.7654" style="stop-color:#DFE4D7"/>
		<stop  offset="0.9301" style="stop-color:#D0D8C4"/>
	</radialGradient>
	<circle class="st10" cx="83.6" cy="142.5" r="5.8"/>
	
		<radialGradient id="SVGID_12_" cx="159.3876" cy="142.5071" r="5.8325" gradientTransform="matrix(1 0 0 1.0002 0 -2.059362e-02)" gradientUnits="userSpaceOnUse">
		<stop  offset="0" style="stop-color:#FFFFFF"/>
		<stop  offset="0.2901" style="stop-color:#FFFFFF"/>
		<stop  offset="0.4627" style="stop-color:#F6F8F4"/>
		<stop  offset="0.7654" style="stop-color:#DFE4D7"/>
		<stop  offset="0.9301" style="stop-color:#D0D8C4"/>
	</radialGradient>
	<circle class="st11" cx="159.4" cy="142.5" r="5.8"/>
</g>
<g>
	
		<radialGradient id="SVGID_13_" cx="103.093" cy="133.5763" r="5.8325" gradientTransform="matrix(1 0 0 1.0002 0 -2.059362e-02)" gradientUnits="userSpaceOnUse">
		<stop  offset="0" style="stop-color:#FFFFFF"/>
		<stop  offset="0.2901" style="stop-color:#FFFFFF"/>
		<stop  offset="0.4627" style="stop-color:#F6F8F4"/>
		<stop  offset="0.7654" style="stop-color:#DFE4D7"/>
		<stop  offset="0.9301" style="stop-color:#D0D8C4"/>
	</radialGradient>
	<circle class="st12" cx="103.1" cy="133.6" r="5.8"/>
	
		<radialGradient id="SVGID_14_" cx="139.885" cy="133.5763" r="5.8325" gradientTransform="matrix(1 0 0 1.0002 0 -2.059362e-02)" gradientUnits="userSpaceOnUse">
		<stop  offset="0" style="stop-color:#FFFFFF"/>
		<stop  offset="0.2901" style="stop-color:#FFFFFF"/>
		<stop  offset="0.4627" style="stop-color:#F6F8F4"/>
		<stop  offset="0.7654" style="stop-color:#DFE4D7"/>
		<stop  offset="0.9301" style="stop-color:#D0D8C4"/>
	</radialGradient>
	<circle class="st13" cx="139.9" cy="133.6" r="5.8"/>
</g>
<radialGradient id="SVGID_15_" cx="121.489" cy="125.7178" r="5.8325" gradientTransform="matrix(1 0 0 1.0002 0 -2.059362e-02)" gradientUnits="userSpaceOnUse">
	<stop  offset="0" style="stop-color:#FFFFFF"/>
	<stop  offset="0.2901" style="stop-color:#FFFFFF"/>
	<stop  offset="0.4627" style="stop-color:#F6F8F4"/>
	<stop  offset="0.7654" style="stop-color:#DFE4D7"/>
	<stop  offset="0.9301" style="stop-color:#D0D8C4"/>
</radialGradient>
<circle class="st14" cx="121.5" cy="125.7" r="5.8"/>
<g>
	
		<radialGradient id="SVGID_16_" cx="85.717" cy="119.8853" r="5.8325" gradientTransform="matrix(1 0 0 1.0002 0 -2.059362e-02)" gradientUnits="userSpaceOnUse">
		<stop  offset="0" style="stop-color:#FFFFFF"/>
		<stop  offset="0.2901" style="stop-color:#FFFFFF"/>
		<stop  offset="0.4627" style="stop-color:#F6F8F4"/>
		<stop  offset="0.7654" style="stop-color:#DFE4D7"/>
		<stop  offset="0.9301" style="stop-color:#D0D8C4"/>
	</radialGradient>
	<circle class="st15" cx="85.7" cy="119.9" r="5.8"/>
	
		<radialGradient id="SVGID_17_" cx="157.261" cy="119.8853" r="5.8325" gradientTransform="matrix(1 0 0 1.0002 0 -2.059362e-02)" gradientUnits="userSpaceOnUse">
		<stop  offset="0" style="stop-color:#FFFFFF"/>
		<stop  offset="0.2901" style="stop-color:#FFFFFF"/>
		<stop  offset="0.4627" style="stop-color:#F6F8F4"/>
		<stop  offset="0.7654" style="stop-color:#DFE4D7"/>
		<stop  offset="0.9301" style="stop-color:#D0D8C4"/>
	</radialGradient>
	<circle class="st16" cx="157.3" cy="119.9" r="5.8"/>
</g>
<g>
	
		<radialGradient id="SVGID_18_" cx="87.8144" cy="99.5359" r="5.8325" gradientTransform="matrix(1 0 0 1.0002 0 -2.059362e-02)" gradientUnits="userSpaceOnUse">
		<stop  offset="0" style="stop-color:#FFFFFF"/>
		<stop  offset="0.2901" style="stop-color:#FFFFFF"/>
		<stop  offset="0.4627" style="stop-color:#F6F8F4"/>
		<stop  offset="0.7654" style="stop-color:#DFE4D7"/>
		<stop  offset="0.9301" style="stop-color:#D0D8C4"/>
	</radialGradient>
	<circle class="st17" cx="87.8" cy="99.5" r="5.8"/>
	
		<radialGradient id="SVGID_19_" cx="155.1636" cy="99.5359" r="5.8325" gradientTransform="matrix(1 0 0 1.0002 0 -2.059362e-02)" gradientUnits="userSpaceOnUse">
		<stop  offset="0" style="stop-color:#FFFFFF"/>
		<stop  offset="0.2901" style="stop-color:#FFFFFF"/>
		<stop  offset="0.4627" style="stop-color:#F6F8F4"/>
		<stop  offset="0.7654" style="stop-color:#DFE4D7"/>
		<stop  offset="0.9301" style="stop-color:#D0D8C4"/>
	</radialGradient>
	<circle class="st18" cx="155.2" cy="99.5" r="5.8"/>
</g>
<g>
	
		<radialGradient id="SVGID_20_" cx="59.6234" cy="69.5891" r="5.8325" gradientTransform="matrix(1 0 0 1.0002 0 -2.059362e-02)" gradientUnits="userSpaceOnUse">
		<stop  offset="0" style="stop-color:#FFFFFF"/>
		<stop  offset="0.2901" style="stop-color:#FFFFFF"/>
		<stop  offset="0.4627" style="stop-color:#F6F8F4"/>
		<stop  offset="0.7654" style="stop-color:#DFE4D7"/>
		<stop  offset="0.9301" style="stop-color:#D0D8C4"/>
	</radialGradient>
	<circle class="st19" cx="59.6" cy="69.6" r="5.8"/>
	
		<radialGradient id="SVGID_21_" cx="183.3546" cy="69.5891" r="5.8325" gradientTransform="matrix(1 0 0 1.0002 0 -2.059362e-02)" gradientUnits="userSpaceOnUse">
		<stop  offset="0" style="stop-color:#FFFFFF"/>
		<stop  offset="0.2901" style="stop-color:#FFFFFF"/>
		<stop  offset="0.4627" style="stop-color:#F6F8F4"/>
		<stop  offset="0.7654" style="stop-color:#DFE4D7"/>
		<stop  offset="0.9301" style="stop-color:#D0D8C4"/>
	</radialGradient>
	<circle class="st20" cx="183.4" cy="69.6" r="5.8"/>
</g>
<g>
	
		<radialGradient id="SVGID_22_" cx="100.9498" cy="62.5093" r="5.8325" gradientTransform="matrix(1 0 0 1.0002 0 -2.059362e-02)" gradientUnits="userSpaceOnUse">
		<stop  offset="0" style="stop-color:#FFFFFF"/>
		<stop  offset="0.2901" style="stop-color:#FFFFFF"/>
		<stop  offset="0.4627" style="stop-color:#F6F8F4"/>
		<stop  offset="0.7654" style="stop-color:#DFE4D7"/>
		<stop  offset="0.9301" style="stop-color:#D0D8C4"/>
	</radialGradient>
	<circle class="st21" cx="100.9" cy="62.5" r="5.8"/>
	
		<radialGradient id="SVGID_23_" cx="142.0283" cy="62.5093" r="5.8325" gradientTransform="matrix(1 0 0 1.0002 0 -2.059362e-02)" gradientUnits="userSpaceOnUse">
		<stop  offset="0" style="stop-color:#FFFFFF"/>
		<stop  offset="0.2901" style="stop-color:#FFFFFF"/>
		<stop  offset="0.4627" style="stop-color:#F6F8F4"/>
		<stop  offset="0.7654" style="stop-color:#DFE4D7"/>
		<stop  offset="0.9301" style="stop-color:#D0D8C4"/>
	</radialGradient>
	<circle class="st22" cx="142" cy="62.5" r="5.8"/>
</g>
<radialGradient id="SVGID_24_" cx="121.489" cy="28.976" r="5.8325" gradientTransform="matrix(1 0 0 1.0002 0 -2.059362e-02)" gradientUnits="userSpaceOnUse">
	<stop  offset="0" style="stop-color:#FFFFFF"/>
	<stop  offset="0.2901" style="stop-color:#FFFFFF"/>
	<stop  offset="0.4627" style="stop-color:#F6F8F4"/>
	<stop  offset="0.7654" style="stop-color:#DFE4D7"/>
	<stop  offset="0.9301" style="stop-color:#D0D8C4"/>
</radialGradient>
<circle class="st23" cx="121.5" cy="29" r="5.8"/>
<g>
	
		<radialGradient id="SVGID_25_" cx="110.9805" cy="43.9306" r="5.8325" gradientTransform="matrix(1 0 0 1.0002 0 -2.059362e-02)" gradientUnits="userSpaceOnUse">
		<stop  offset="0" style="stop-color:#FFFFFF"/>
		<stop  offset="0.2901" style="stop-color:#FFFFFF"/>
		<stop  offset="0.4627" style="stop-color:#F6F8F4"/>
		<stop  offset="0.7654" style="stop-color:#DFE4D7"/>
		<stop  offset="0.9301" style="stop-color:#D0D8C4"/>
	</radialGradient>
	<circle class="st24" cx="111" cy="43.9" r="5.8"/>
	
		<radialGradient id="SVGID_26_" cx="131.9976" cy="43.9306" r="5.8325" gradientTransform="matrix(1 0 0 1.0002 0 -2.059362e-02)" gradientUnits="userSpaceOnUse">
		<stop  offset="0" style="stop-color:#FFFFFF"/>
		<stop  offset="0.2901" style="stop-color:#FFFFFF"/>
		<stop  offset="0.4627" style="stop-color:#F6F8F4"/>
		<stop  offset="0.7654" style="stop-color:#DFE4D7"/>
		<stop  offset="0.9301" style="stop-color:#D0D8C4"/>
	</radialGradient>
	<circle class="st25" cx="132" cy="43.9" r="5.8"/>
</g>
<g>
	<path class="st26" d="M232.6,232.1c0,0.2,0,0.4,0,0.6c-0.1,0.7-0.3,1.3-0.6,1.8c0,0,0,0.1-0.1,0.1c-0.4,0.6-0.8,0.9-1.4,0.9H214
		c-0.5,0-1-0.4-1.4-0.9c-0.3-0.5-0.5-1.1-0.6-1.9c0-0.2,0-0.4,0-0.6c0-0.6,0.1-1.2,0.3-1.7c0.1-0.3,0.2-0.5,0.3-0.7
		c0.4-0.6,0.9-1,1.4-1h16.5C231.6,228.7,232.6,230.2,232.6,232.1z"/>
	<path class="st27" d="M233.3,235v3c0,0.2-0.1,0.3-0.2,0.3h-21.7c-0.1,0-0.2-0.1-0.2-0.3v-3c0-0.2,0.1-0.3,0.2-0.3h21.7
		C233.2,234.6,233.3,234.8,233.3,235z"/>
	<path class="st27" d="M233.3,227.3v4.1c0,0.8-0.4,1.4-0.8,1.4c0,0,0,0,0,0h-20.4c0,0,0,0,0,0c-0.4,0-0.8-0.6-0.8-1.4v-4.1
		c0-0.8,0.4-1.4,0.8-1.4h20.4C232.9,225.9,233.3,226.5,233.3,227.3z"/>
	<rect x="218.7" y="227.1" class="st28" width="7.8" height="3.3"/>
	<path class="st29" d="M234,181.9v45.5c0,0.7-0.3,1.2-0.7,1.3c0,0,0,0-0.1,0h-21.9c0,0,0,0-0.1,0c-0.4-0.1-0.7-0.6-0.7-1.3v-45.5
		c0-0.7,0.3-1.3,0.8-1.3h21.9C233.7,180.6,234,181.2,234,181.9z"/>
	<g>
		<g>
			<rect x="211.2" y="186.3" class="st31" width="11.3" height="2.7"/>
			<rect x="222.6" y="186.3" class="st57" width="10.7" height="2.7"/>
		</g>
		<polygon class="st32" points="222.6,188.6 211.2,188.6 211.2,190.4 222.6,190.4 233.3,190.4 233.3,188.6 		"/>
	</g>
	<g>
		<g>
			<rect x="211.2" y="194.2" class="st31" width="11.3" height="2.7"/>
			<rect x="222.6" y="194.2" class="st57" width="10.7" height="2.7"/>
		</g>
		<polygon class="st32" points="222.6,196.5 211.2,196.5 211.2,198.4 222.6,198.4 233.3,198.4 233.3,196.5 		"/>
	</g>
	<g>
		<g>
			<rect x="211.2" y="202.2" class="st31" width="11.3" height="2.7"/>
			<rect x="222.6" y="202.2" class="st57" width="10.7" height="2.7"/>
		</g>
		<polygon class="st32" points="222.6,204.5 211.2,204.5 211.2,206.3 222.6,206.3 233.3,206.3 233.3,204.5 		"/>
	</g>
</g>
<g>
	<path class="st0" d="M193.9,142.1h-8.6v-15.7h3v13.1h5.6V142.1z"/>
	<path class="st0" d="M206.7,142.1h-8.8v-15.7h8.4v2.5h-5.4v3.8h5.1v2.5h-5.1v4.4h5.7V142.1z"/>
	<path class="st0" d="M211.1,126.6c1.1-0.2,2.5-0.3,4.1-0.3c2.6,0,4.4,0.6,5.7,1.6c1.5,1.2,2.4,3.2,2.4,6c0,3.4-1.2,5.3-2.4,6.4
		c-1.4,1.3-3.6,1.9-6.3,1.9c-1.4,0-2.6-0.1-3.4-0.2V126.6z M214.1,139.8c0.3,0.1,0.8,0.1,1.2,0.1c2.9,0,4.8-1.8,4.8-5.9
		c0-3.5-1.7-5.3-4.5-5.3c-0.6,0-1.1,0.1-1.4,0.1V139.8z"/>
</g>
</svg>
