<?xml version="1.0" encoding="utf-8"?>
<!-- Generator: Adobe Illustrator 22.1.0, SVG Export Plug-In . SVG Version: 6.00 Build 0)  -->
<svg version="1.1" id="レイヤー_1" xmlns="http://www.w3.org/2000/svg" xmlns:xlink="http://www.w3.org/1999/xlink" x="0px"
	 y="0px" viewBox="0 0 236 259" style="enable-background:new 0 0 236 259;" xml:space="preserve">
<style type="text/css">
	.st0{fill:none;}
	.st1{fill:#EDEDED;}
	.st2{fill:#886D5A;}
	.st3{fill:#808080;}
	.st4{fill:#81674A;}
	.st5{fill:#D2F0F0;}
	.st6{clip-path:url(#SVGID_2_);}
	.st7{fill:#61C3FF;}
	.st8{fill:#1CA4DE;}
	.st9{fill:#FFFFFF;}
	.st10{fill:#666666;}
	.st11{fill:#C2C2C2;}
	.st12{fill:#FFF100;}
	.st13{fill:#F0F0F3;}
	.st14{fill:#D7D1CE;}
	.st15{opacity:6.000000e-02;}
	.st16{fill:#27B0FF;}
	.st17{fill:#FF4A00;}
	.st18{fill:#5A6CFF;}
	.st19{fill:#F6A900;}
	.st20{fill:#804000;}
	.st21{fill:#00AE79;}
	.st22{fill:#990099;}
	.st23{fill:#FF7F7F;}
	.st24{clip-path:url(#SVGID_4_);fill:#FF4A00;}
	.st25{clip-path:url(#SVGID_4_);fill:#F6A900;}
	.st26{clip-path:url(#SVGID_4_);fill:#FFF100;}
	.st27{clip-path:url(#SVGID_4_);fill:#00AE79;}
	.st28{clip-path:url(#SVGID_4_);fill:#5A6CFF;}
	.st29{clip-path:url(#SVGID_4_);fill:#990099;}
	.st30{fill:none;stroke:#6E6E6E;stroke-width:0.9376;stroke-miterlimit:10;}
	.st31{opacity:8.000000e-02;fill:#333333;}
	.st32{fill:#F9D2A8;stroke:#F8C68F;stroke-width:0.556;stroke-miterlimit:10;}
	.st33{fill:#FFF3D9;}
	.st34{fill:#F2F8F8;}
	.st35{fill:none;stroke:#F2F8F8;stroke-width:6.4865;stroke-linecap:round;stroke-linejoin:round;stroke-miterlimit:10;}
	.st36{fill:#ED4B59;}
	.st37{clip-path:url(#SVGID_6_);}
	.st38{fill:#00813A;}
	.st39{fill:#006A20;}
	.st40{fill:#848F95;}
	.st41{fill:#526663;}
	.st42{fill:#738082;}
	.st43{opacity:0.12;}
	.st44{fill:#333333;}
	.st45{fill:#6E6E6E;}
	.st46{fill:#F9D2A8;}
	.st47{fill:#F8C68F;}
	.st48{clip-path:url(#SVGID_8_);}
	.st49{fill:#00823A;}
	.st50{fill:#859096;}
	.st51{fill:#738083;}
	.st52{fill:#EDE349;}
	.st53{fill:#ECBD27;}
	.st54{fill:#589D69;}
	.st55{clip-path:url(#SVGID_10_);}
	.st56{fill:#DEAA00;}
</style>
<rect class="st0" width="236" height="259"/>
<rect x="17.3" y="19" class="st0" width="218.7" height="240"/>
<polygon class="st2" points="65.8,258.5 72.6,246.7 50.4,233.9 36.2,258.5 "/>
<rect x="56.3" y="209.5" transform="matrix(0.866 0.5 -0.5 0.866 122.8447 -4.1392)" class="st3" width="25.6" height="35.4"/>
<path class="st4" d="M68.9,248.6l-18.2-10.5c-2.5-1.4-3.4-4.7-1.9-7.2h0c1.4-2.5,4.7-3.4,7.2-1.9l18.2,10.5c2.5,1.4,3.4,4.7,1.9,7.2
	l0,0C74.6,249.2,71.4,250.1,68.9,248.6z"/>
<g>
	<circle class="st5" cx="126.4" cy="128.1" r="106.3"/>
	<path class="st3" d="M126.2,237.1c-18.5,0-37.2-4.7-54.4-14.6c-52.1-30.1-70-96.9-39.9-149c30.1-52.1,96.9-70,149-39.9
		c52.1,30.1,70,96.9,39.9,149l0,0C200.6,217.5,163.9,237.1,126.2,237.1z M126.5,24.6c-35.8,0-70.7,18.6-89.8,51.7
		C8.2,125.7,25.2,189.2,74.6,217.7c49.4,28.5,112.9,11.5,141.4-37.9c28.5-49.4,11.5-112.9-37.9-141.4
		C161.9,29,144.1,24.6,126.5,24.6z"/>
</g>
<g>
	<defs>
		<circle id="SVGID_1_" cx="126.4" cy="128.1" r="106.3"/>
	</defs>
	<clipPath id="SVGID_2_">
		<use xlink:href="#SVGID_1_"  style="overflow:visible;"/>
	</clipPath>
	<g class="st6">
		<g>
			<g>
				<path class="st7" d="M99.6,224.2c-2.4,0-4.3-1.9-4.3-4.3v-12.1l6.8-8.6c1.7-2.1,1.7-5.6,0-7.8l-6.8-8.6v-12.1
					c0-2.4,1.9-4.3,4.3-4.3h49c2.4,0,4.3,1.9,4.3,4.3v12.3c0,0.1,0,0.2,0.1,0.2l0.1,0.1l6.9,8.6c1.5,1.9,1.5,5,0,6.9l-6.9,8.6
					c-0.1,0.1-0.2,0.2-0.2,0.3v12.3c0,2.4-1.9,4.3-4.3,4.3H99.6z"/>
				<path class="st8" d="M148.6,166.6c2.2,0,3.9,1.8,3.9,4v12.3c0,0.2,0.1,0.3,0.2,0.5c0,0,0.1,0.1,0.1,0.1l6.9,8.6
					c1.4,1.7,1.4,4.7,0,6.4l-6.8,8.6c0,0-0.1,0.1-0.1,0.1c-0.1,0.1-0.2,0.3-0.2,0.5v12.3c0,2.2-1.8,4-3.9,4h-49
					c-2.2,0-3.9-1.8-3.9-4v-12l6.8-8.5c1.8-2.3,1.8-6,0-8.2l-6.8-8.5v-12c0-2.2,1.8-4,3.9-4H148.6 M148.6,165.9h-49
					c-2.6,0-4.7,2.1-4.7,4.7v12.3c0,0,0,0,0.1,0.1l6.9,8.6c1.6,2,1.6,5.3,0,7.3l-6.9,8.6c0,0,0,0.1-0.1,0.1v12.3
					c0,2.6,2.1,4.7,4.7,4.7h49c2.6,0,4.7-2.1,4.7-4.7v-12.3c0,0,0,0,0.1-0.1l6.9-8.6c1.6-2,1.6-5.3,0-7.3l-6.9-8.6c0,0,0,0-0.1-0.1
					v-12.3C153.3,168,151.2,165.9,148.6,165.9L148.6,165.9z"/>
			</g>
			<g>
				<g>
					<g>
						<path class="st9" d="M111.2,188h-1.7c-0.4,0-0.7-0.3-0.7-0.7c0-0.4,0.3-0.7,0.7-0.7h1.7c0.4,0,0.7,0.3,0.7,0.7
							C111.9,187.7,111.6,188,111.2,188z"/>
						<path class="st9" d="M146.9,188h-1.7c-0.4,0-0.7-0.3-0.7-0.7s0.3-0.7,0.7-0.7h1.7c0.4,0,0.7,0.3,0.7,0.7S147.3,188,146.9,188z
							"/>
					</g>
					<g>
						<path class="st9" d="M140.4,175.9c-0.2,0-0.4-0.1-0.5-0.2c-0.3-0.3-0.3-0.8,0-1l1-1c0.3-0.3,0.8-0.3,1.1,0
							c0.3,0.3,0.3,0.8,0,1l-1,1C140.8,175.8,140.6,175.9,140.4,175.9z"/>
						<path class="st9" d="M114.9,201.1c-0.2,0-0.4-0.1-0.5-0.2c-0.3-0.3-0.3-0.8,0-1l1-1c0.3-0.3,0.8-0.3,1.1,0
							c0.3,0.3,0.3,0.8,0,1l-1,1C115.3,201.1,115.1,201.1,114.9,201.1z"/>
					</g>
					<g>
						<path class="st9" d="M115.9,175.9c-0.2,0-0.4-0.1-0.5-0.2l-1-1c-0.3-0.3-0.3-0.8,0-1c0.3-0.3,0.8-0.3,1.1,0l1,1
							c0.3,0.3,0.3,0.8,0,1C116.3,175.8,116.1,175.9,115.9,175.9z"/>
						<path class="st9" d="M141.4,201.1c-0.2,0-0.4-0.1-0.5-0.2l-1-1c-0.3-0.3-0.3-0.8,0-1c0.3-0.3,0.8-0.3,1.1,0l1,1
							c0.3,0.3,0.3,0.8,0,1C141.8,201.1,141.6,201.1,141.4,201.1z"/>
					</g>
				</g>
				<g>
					<g>
						<g>
							<polygon class="st10" points="133.6,213.7 132.4,214.3 130.7,215.7 125.6,215.7 123.9,214.3 122.7,213.7 							"/>
							<path class="st11" d="M126,215.7c0,0,0.1,1.3,2.2,1.3c2,0,2.2-1.3,2.2-1.3H126z"/>
						</g>
						<path class="st12" d="M141.6,188c0,3.7-1.5,7-3.9,9.5c-2.4,2.4-3.9,3.2-4.1,7.1h-1.1c-1.1,0-2.5,0-2.5,0h-3.5c0,0-1.3,0-2.3,0
							h-1.3c-0.2-3.4-1.3-4.4-3.2-6.2c-0.3-0.3-0.6-0.6-0.9-0.9c-2.4-2.4-3.9-5.8-3.9-9.5s1.5-7,3.9-9.5c2.4-2.4,5.8-3.9,9.5-3.9
							c3,0,5.8,1,8,2.6c0.5,0.4,1.1,0.8,1.5,1.3c0.2,0.2,0.3,0.3,0.5,0.5c0.3,0.3,0.6,0.7,0.9,1C140.7,182.3,141.6,185,141.6,188z"
							/>
						<g>
							<path class="st13" d="M121.2,211.9c0-1.2,1-2.1,2.1-2.1h9.7c1.2,0,2.1,0.9,2.1,2.1l0,0c0,1.2-1,2.1-2.1,2.1h-9.7
								C122.1,214,121.2,213.1,121.2,211.9L121.2,211.9z"/>
							<path class="st14" d="M121.2,212.1c0.1,1.1,1,1.9,2.1,1.9h9.7c1.1,0,2-0.9,2.1-1.9H121.2z"/>
						</g>
						<g>
							<path class="st13" d="M121.2,207.8c0-1.2,1-2.1,2.1-2.1h9.7c1.2,0,2.1,0.9,2.1,2.1l0,0c0,1.2-1,2.1-2.1,2.1h-9.7
								C122.1,209.9,121.2,208.9,121.2,207.8L121.2,207.8z"/>
							<path class="st14" d="M121.2,207.9c0.1,1.1,1,1.9,2.1,1.9h9.7c1.1,0,2-0.9,2.1-1.9H121.2z"/>
						</g>
						<g>
							<path class="st13" d="M121.2,203.7c0-1.2,1-2.1,2.1-2.1h9.7c1.2,0,2.1,0.9,2.1,2.1l0,0c0,1.2-1,2.1-2.1,2.1h-9.7
								C122.1,205.7,121.2,204.8,121.2,203.7L121.2,203.7z"/>
							<path class="st14" d="M121.2,203.8c0.1,1.1,1,1.9,2.1,1.9h9.7c1.1,0,2-0.9,2.1-1.9H121.2z"/>
						</g>
					</g>
					<path class="st15" d="M139,180c-0.3-0.4-0.6-0.7-0.9-1c-0.2-0.2-0.3-0.3-0.5-0.5c-0.5-0.5-1-0.9-1.5-1.3c-2.2-1.6-5-2.6-8-2.6
						V217c2,0,2.2-1.3,2.2-1.3h0.4l1.6-1.5l0.5-0.3h0.1c0.1,0,0.3,0,0.4,0c0.1,0,0.1,0,0.2-0.1c0.1,0,0.1,0,0.2-0.1
						c0.1,0,0.2-0.1,0.2-0.1c0,0,0.1,0,0.1-0.1c0.1-0.1,0.2-0.1,0.3-0.2c0,0,0,0,0.1,0c0.1-0.1,0.2-0.2,0.2-0.3c0,0,0,0,0,0
						c0.2-0.3,0.4-0.7,0.4-1.1v0c0,0,0-0.1,0-0.1c0-1.1-0.8-1.9-1.9-2.1c0.1,0,0.1,0,0.2,0c0.1,0,0.1,0,0.2-0.1c0.1,0,0.1,0,0.2-0.1
						c0.1,0,0.2-0.1,0.2-0.1c0,0,0.1,0,0.1-0.1c0.1-0.1,0.2-0.1,0.3-0.2c0,0,0,0,0.1,0c0.1-0.1,0.2-0.2,0.2-0.3c0,0,0,0,0,0
						c0.2-0.3,0.4-0.7,0.4-1.1v0c0,0,0-0.1,0-0.1c0-1.1-0.8-1.9-1.9-2.1c0.1,0,0.1,0,0.2,0c0.1,0,0.1,0,0.2,0c0.1,0,0.2,0,0.2-0.1
						c0.1,0,0.1-0.1,0.2-0.1c0,0,0.1,0,0.1-0.1c0.1-0.1,0.2-0.1,0.3-0.2c0,0,0,0,0.1,0c0.1-0.1,0.2-0.2,0.2-0.3c0,0,0,0,0,0
						c0.2-0.3,0.4-0.7,0.4-1.1v0c0,0,0-0.1,0-0.1c0-0.8-0.4-1.4-1.1-1.8c0.7-1.8,1.9-2.7,3.6-4.4c2.4-2.4,3.9-5.8,3.9-9.5
						C141.6,185,140.7,182.3,139,180z"/>
				</g>
			</g>
		</g>
		<g>
			<path class="st16" d="M119.6,172.1c-5.2,0-9.5-4.2-9.5-9.5V162c0-5.2,4.2-9.5,9.5-9.5h17c5.2,0,9.5,4.2,9.5,9.5v0.6
				c0,5.2-4.2,9.5-9.5,9.5H119.6z"/>
			<g>
				<path class="st8" d="M136.6,153c5,0,9.1,4.1,9.1,9.1v0.6c0,5-4.1,9.1-9.1,9.1h-17c-5,0-9.1-4.1-9.1-9.1V162c0-5,4.1-9.1,9.1-9.1
					H136.6 M136.6,152.2h-17c-5.4,0-9.8,4.4-9.8,9.8v0.6c0,5.4,4.4,9.8,9.8,9.8h17c5.4,0,9.8-4.4,9.8-9.8V162
					C146.5,156.6,142.1,152.2,136.6,152.2L136.6,152.2z"/>
			</g>
		</g>
		<g>
			<path class="st9" d="M128.1,159c0.2-0.2,0.6-0.2,0.8,0l7,5.3c0.2,0.2,0.2,0.3-0.1,0.3h-14.7c-0.3,0-0.3-0.1-0.1-0.3L128.1,159z"
				/>
		</g>
	</g>
	<g class="st6">
		<g>
			<path class="st7" d="M121.1,142.7c-0.1-0.1-0.2-0.1-0.3-0.1H42.1c-3.4,0-6.2-2.8-6.2-6.2V-35.8c0-3.4,2.8-6.2,6.2-6.2h172.2
				c3.4,0,6.2,2.8,6.2,6.2v172.2c0,3.4-2.8,6.2-6.2,6.2h-78.7c-0.1,0-0.2,0-0.3,0.1l-7.1,8L121.1,142.7z"/>
			<path class="st8" d="M214.3-41.5c3.2,0,5.7,2.6,5.7,5.7v172.2c0,3.2-2.6,5.7-5.7,5.7h-78.7c-0.2,0-0.5,0.1-0.6,0.3l-6.8,7.6
				l-6.8-7.6c-0.2-0.2-0.4-0.3-0.6-0.3H42.1c-3.2,0-5.7-2.6-5.7-5.7V-35.8c0-3.2,2.6-5.7,5.7-5.7H214.3 M214.3-42.4H42.1
				c-3.6,0-6.6,3-6.6,6.6v172.2c0,3.6,3,6.6,6.6,6.6h78.7l7.4,8.3l7.4-8.3h78.7c3.6,0,6.6-3,6.6-6.6V-35.8
				C220.9-39.4,217.9-42.4,214.3-42.4L214.3-42.4z"/>
		</g>
		<g>
			<path class="st7" d="M48.8,16.4c-2,0-3.7-1.6-3.7-3.7v-41.9c0-2,1.6-3.7,3.7-3.7h41.9c2,0,3.7,1.6,3.7,3.7v41.9
				c0,2-1.6,3.7-3.7,3.7H48.8z"/>
			<path class="st8" d="M90.7-32.5c1.8,0,3.3,1.5,3.3,3.3v41.9c0,1.8-1.5,3.3-3.3,3.3H48.8c-1.8,0-3.3-1.5-3.3-3.3v-41.9
				c0-1.8,1.5-3.3,3.3-3.3H90.7 M90.7-33.2H48.8c-2.2,0-4,1.8-4,4v41.9c0,2.2,1.8,4,4,4h41.9c2.2,0,4-1.8,4-4v-41.9
				C94.7-31.4,92.9-33.2,90.7-33.2L90.7-33.2z"/>
		</g>
		<g>
			<g>
				<path class="st7" d="M48.8,133.5c-2,0-3.7-1.6-3.7-3.7V87.9c0-2,1.6-3.7,3.7-3.7h41.9c2,0,3.7,1.6,3.7,3.7v41.9
					c0,2-1.6,3.7-3.7,3.7H48.8z"/>
				<path class="st8" d="M90.7,84.6c1.8,0,3.3,1.5,3.3,3.3v41.9c0,1.8-1.5,3.3-3.3,3.3H48.8c-1.8,0-3.3-1.5-3.3-3.3V87.9
					c0-1.8,1.5-3.3,3.3-3.3H90.7 M90.7,83.9H48.8c-2.2,0-4,1.8-4,4v41.9c0,2.2,1.8,4,4,4h41.9c2.2,0,4-1.8,4-4V87.9
					C94.7,85.7,92.9,83.9,90.7,83.9L90.7,83.9z"/>
			</g>
			<g>
				<g>
					<g>
						<path class="st9" d="M55,102.6h-1.5c-0.4,0-0.6-0.3-0.6-0.6c0-0.4,0.3-0.6,0.6-0.6H55c0.4,0,0.6,0.3,0.6,0.6
							C55.7,102.3,55.4,102.6,55,102.6z"/>
						<path class="st9" d="M85.9,102.6h-1.5c-0.4,0-0.6-0.3-0.6-0.6s0.3-0.6,0.6-0.6h1.5c0.4,0,0.6,0.3,0.6,0.6
							S86.3,102.6,85.9,102.6z"/>
					</g>
					<g>
						<path class="st9" d="M80.3,92.1c-0.2,0-0.3-0.1-0.5-0.2c-0.3-0.3-0.3-0.7,0-0.9l0.9-0.9c0.3-0.3,0.7-0.3,0.9,0
							c0.3,0.3,0.3,0.7,0,0.9l-0.9,0.9C80.7,92,80.5,92.1,80.3,92.1z"/>
						<path class="st9" d="M58.3,114c-0.2,0-0.3-0.1-0.5-0.2c-0.3-0.3-0.3-0.7,0-0.9l0.9-0.9c0.3-0.3,0.7-0.3,0.9,0
							c0.3,0.3,0.3,0.7,0,0.9l-0.9,0.9C58.6,113.9,58.4,114,58.3,114z"/>
					</g>
					<g>
						<path class="st9" d="M59.1,92.1c-0.2,0-0.3-0.1-0.5-0.2l-0.9-0.9c-0.3-0.3-0.3-0.7,0-0.9c0.3-0.3,0.7-0.3,0.9,0l0.9,0.9
							c0.3,0.3,0.3,0.7,0,0.9C59.5,92,59.3,92.1,59.1,92.1z"/>
						<path class="st9" d="M81.2,114c-0.2,0-0.3-0.1-0.5-0.2l-0.9-0.9c-0.3-0.3-0.3-0.7,0-0.9c0.3-0.3,0.7-0.3,0.9,0l0.9,0.9
							c0.3,0.3,0.3,0.7,0,0.9C81.5,113.9,81.4,114,81.2,114z"/>
					</g>
				</g>
				<g>
					<g>
						<g>
							<polygon class="st10" points="74.5,124.8 73.4,125.4 72,126.6 67.5,126.6 66.1,125.4 65,124.8 							"/>
							<path class="st11" d="M67.9,126.6c0,0,0.1,1.1,1.9,1.1c1.8,0,1.9-1.1,1.9-1.1H67.9z"/>
						</g>
						<path class="st17" d="M81.4,102.5c0,3.2-1.3,6.1-3.4,8.2c-2.1,2.1-3.4,2.8-3.6,6.2h-1c-1,0-2.2,0-2.2,0h-3.1c0,0-1.1,0-2,0
							h-1.1c-0.2-2.9-1.1-3.8-2.8-5.4c-0.3-0.2-0.5-0.5-0.8-0.8c-2.1-2.1-3.4-5-3.4-8.2s1.3-6.1,3.4-8.2c2.1-2.1,5-3.4,8.3-3.4
							c2.6,0,5,0.8,6.9,2.3c0.5,0.3,0.9,0.7,1.3,1.1c0.1,0.1,0.3,0.3,0.4,0.4c0.3,0.3,0.5,0.6,0.7,0.9
							C80.6,97.6,81.4,100,81.4,102.5z"/>
						<g>
							<path class="st13" d="M63.7,123.3c0-1,0.8-1.8,1.8-1.8h8.4c1,0,1.8,0.8,1.8,1.8l0,0c0,1-0.8,1.8-1.8,1.8h-8.4
								C64.5,125.1,63.7,124.3,63.7,123.3L63.7,123.3z"/>
							<path class="st14" d="M63.7,123.4c0.1,0.9,0.9,1.7,1.8,1.7h8.4c1,0,1.8-0.7,1.8-1.7H63.7z"/>
						</g>
						<g>
							<path class="st13" d="M63.7,119.7c0-1,0.8-1.8,1.8-1.8h8.4c1,0,1.8,0.8,1.8,1.8l0,0c0,1-0.8,1.8-1.8,1.8h-8.4
								C64.5,121.5,63.7,120.7,63.7,119.7L63.7,119.7z"/>
							<path class="st14" d="M63.7,119.9c0.1,0.9,0.9,1.7,1.8,1.7h8.4c1,0,1.8-0.7,1.8-1.7H63.7z"/>
						</g>
						<g>
							<path class="st13" d="M63.7,116.2c0-1,0.8-1.8,1.8-1.8h8.4c1,0,1.8,0.8,1.8,1.8l0,0c0,1-0.8,1.8-1.8,1.8h-8.4
								C64.5,118,63.7,117.2,63.7,116.2L63.7,116.2z"/>
							<path class="st14" d="M63.7,116.3c0.1,0.9,0.9,1.7,1.8,1.7h8.4c1,0,1.8-0.7,1.8-1.7H63.7z"/>
						</g>
					</g>
				</g>
			</g>
		</g>
		<g>
			<g>
				<path class="st7" d="M48.8,74.9c-2,0-3.7-1.6-3.7-3.7V29.4c0-2,1.6-3.7,3.7-3.7h41.9c2,0,3.7,1.6,3.7,3.7v41.9
					c0,2-1.6,3.7-3.7,3.7H48.8z"/>
				<path class="st8" d="M90.7,26.1c1.8,0,3.3,1.5,3.3,3.3v41.9c0,1.8-1.5,3.3-3.3,3.3H48.8c-1.8,0-3.3-1.5-3.3-3.3V29.4
					c0-1.8,1.5-3.3,3.3-3.3H90.7 M90.7,25.3H48.8c-2.2,0-4,1.8-4,4v41.9c0,2.2,1.8,4,4,4h41.9c2.2,0,4-1.8,4-4V29.4
					C94.7,27.1,92.9,25.3,90.7,25.3L90.7,25.3z"/>
			</g>
			<g>
				<g>
					<g>
						<path class="st9" d="M55,44.1h-1.5c-0.4,0-0.6-0.3-0.6-0.6c0-0.4,0.3-0.6,0.6-0.6H55c0.4,0,0.6,0.3,0.6,0.6
							C55.7,43.8,55.4,44.1,55,44.1z"/>
						<path class="st9" d="M85.9,44.1h-1.5c-0.4,0-0.6-0.3-0.6-0.6c0-0.4,0.3-0.6,0.6-0.6h1.5c0.4,0,0.6,0.3,0.6,0.6
							C86.6,43.8,86.3,44.1,85.9,44.1z"/>
					</g>
					<g>
						<path class="st9" d="M80.3,33.6c-0.2,0-0.3-0.1-0.5-0.2c-0.3-0.3-0.3-0.7,0-0.9l0.9-0.9c0.3-0.3,0.7-0.3,0.9,0
							c0.3,0.3,0.3,0.7,0,0.9l-0.9,0.9C80.7,33.5,80.5,33.6,80.3,33.6z"/>
						<path class="st9" d="M58.3,55.4c-0.2,0-0.3-0.1-0.5-0.2c-0.3-0.3-0.3-0.7,0-0.9l0.9-0.9c0.3-0.3,0.7-0.3,0.9,0
							c0.3,0.3,0.3,0.7,0,0.9l-0.9,0.9C58.6,55.4,58.4,55.4,58.3,55.4z"/>
					</g>
					<g>
						<path class="st9" d="M59.1,33.6c-0.2,0-0.3-0.1-0.5-0.2l-0.9-0.9c-0.3-0.3-0.3-0.7,0-0.9c0.3-0.3,0.7-0.3,0.9,0l0.9,0.9
							c0.3,0.3,0.3,0.7,0,0.9C59.5,33.5,59.3,33.6,59.1,33.6z"/>
						<path class="st9" d="M81.2,55.4c-0.2,0-0.3-0.1-0.5-0.2l-0.9-0.9c-0.3-0.3-0.3-0.7,0-0.9c0.3-0.3,0.7-0.3,0.9,0l0.9,0.9
							c0.3,0.3,0.3,0.7,0,0.9C81.5,55.4,81.4,55.4,81.2,55.4z"/>
					</g>
				</g>
				<g>
					<g>
						<g>
							<polygon class="st10" points="74.5,66.3 73.4,66.8 72,68.1 67.5,68.1 66.1,66.8 65,66.3 							"/>
							<path class="st11" d="M67.9,68.1c0,0,0.1,1.1,1.9,1.1c1.8,0,1.9-1.1,1.9-1.1H67.9z"/>
						</g>
						<path class="st18" d="M81.4,44c0,3.2-1.3,6.1-3.4,8.2c-2.1,2.1-3.4,2.8-3.6,6.2h-1c-1,0-2.2,0-2.2,0h-3.1c0,0-1.1,0-2,0h-1.1
							c-0.2-2.9-1.1-3.8-2.8-5.4c-0.3-0.2-0.5-0.5-0.8-0.8c-2.1-2.1-3.4-5-3.4-8.2c0-3.2,1.3-6.1,3.4-8.2c2.1-2.1,5-3.4,8.3-3.4
							c2.6,0,5,0.8,6.9,2.3c0.5,0.3,0.9,0.7,1.3,1.1c0.1,0.1,0.3,0.3,0.4,0.4c0.3,0.3,0.5,0.6,0.7,0.9C80.6,39.1,81.4,41.4,81.4,44z
							"/>
						<g>
							<path class="st13" d="M63.7,64.8c0-1,0.8-1.8,1.8-1.8h8.4c1,0,1.8,0.8,1.8,1.8l0,0c0,1-0.8,1.8-1.8,1.8h-8.4
								C64.5,66.6,63.7,65.8,63.7,64.8L63.7,64.8z"/>
							<path class="st14" d="M63.7,64.9c0.1,0.9,0.9,1.7,1.8,1.7h8.4c1,0,1.8-0.7,1.8-1.7H63.7z"/>
						</g>
						<g>
							<path class="st13" d="M63.7,61.2c0-1,0.8-1.8,1.8-1.8h8.4c1,0,1.8,0.8,1.8,1.8l0,0c0,1-0.8,1.8-1.8,1.8h-8.4
								C64.5,63,63.7,62.2,63.7,61.2L63.7,61.2z"/>
							<path class="st14" d="M63.7,61.3c0.1,0.9,0.9,1.7,1.8,1.7h8.4c1,0,1.8-0.7,1.8-1.7H63.7z"/>
						</g>
						<g>
							<path class="st13" d="M63.7,57.6c0-1,0.8-1.8,1.8-1.8h8.4c1,0,1.8,0.8,1.8,1.8l0,0c0,1-0.8,1.8-1.8,1.8h-8.4
								C64.5,59.4,63.7,58.6,63.7,57.6L63.7,57.6z"/>
							<path class="st14" d="M63.7,57.7c0.1,0.9,0.9,1.7,1.8,1.7h8.4c1,0,1.8-0.7,1.8-1.7H63.7z"/>
						</g>
					</g>
				</g>
			</g>
		</g>
		<g>
			<g>
				<g>
					<path class="st7" d="M107.2,133.5c-2,0-3.7-1.6-3.7-3.7V87.9c0-2,1.6-3.7,3.7-3.7H149c2,0,3.7,1.6,3.7,3.7v41.9
						c0,2-1.6,3.7-3.7,3.7H107.2z"/>
					<path class="st8" d="M149,84.6c1.8,0,3.3,1.5,3.3,3.3v41.9c0,1.8-1.5,3.3-3.3,3.3h-41.9c-1.8,0-3.3-1.5-3.3-3.3V87.9
						c0-1.8,1.5-3.3,3.3-3.3H149 M149,83.9h-41.9c-2.2,0-4,1.8-4,4v41.9c0,2.2,1.8,4,4,4H149c2.2,0,4-1.8,4-4V87.9
						C153.1,85.7,151.3,83.9,149,83.9L149,83.9z"/>
				</g>
				<g>
					<g>
						<g>
							<path class="st9" d="M113.4,102.6h-1.5c-0.4,0-0.6-0.3-0.6-0.6c0-0.4,0.3-0.6,0.6-0.6h1.5c0.4,0,0.6,0.3,0.6,0.6
								C114,102.3,113.7,102.6,113.4,102.6z"/>
							<path class="st9" d="M144.3,102.6h-1.5c-0.4,0-0.6-0.3-0.6-0.6s0.3-0.6,0.6-0.6h1.5c0.4,0,0.6,0.3,0.6,0.6
								S144.7,102.6,144.3,102.6z"/>
						</g>
						<g>
							<path class="st9" d="M138.7,92.1c-0.2,0-0.3-0.1-0.5-0.2c-0.3-0.3-0.3-0.7,0-0.9l0.9-0.9c0.3-0.3,0.7-0.3,0.9,0
								c0.3,0.3,0.3,0.7,0,0.9l-0.9,0.9C139,92,138.9,92.1,138.7,92.1z"/>
							<path class="st9" d="M116.6,114c-0.2,0-0.3-0.1-0.5-0.2c-0.3-0.3-0.3-0.7,0-0.9l0.9-0.9c0.3-0.3,0.7-0.3,0.9,0
								c0.3,0.3,0.3,0.7,0,0.9l-0.9,0.9C117,113.9,116.8,114,116.6,114z"/>
						</g>
						<g>
							<path class="st9" d="M117.5,92.1c-0.2,0-0.3-0.1-0.5-0.2l-0.9-0.9c-0.3-0.3-0.3-0.7,0-0.9c0.3-0.3,0.7-0.3,0.9,0L118,91
								c0.3,0.3,0.3,0.7,0,0.9C117.8,92,117.7,92.1,117.5,92.1z"/>
							<path class="st9" d="M139.6,114c-0.2,0-0.3-0.1-0.5-0.2l-0.9-0.9c-0.3-0.3-0.3-0.7,0-0.9c0.3-0.3,0.7-0.3,0.9,0l0.9,0.9
								c0.3,0.3,0.3,0.7,0,0.9C139.9,113.9,139.7,114,139.6,114z"/>
						</g>
					</g>
					<g>
						<g>
							<g>
								<polygon class="st10" points="132.8,124.8 131.8,125.4 130.3,126.6 125.8,126.6 124.4,125.4 123.4,124.8 								"/>
								<path class="st11" d="M126.2,126.6c0,0,0.1,1.1,1.9,1.1c1.8,0,1.9-1.1,1.9-1.1H126.2z"/>
							</g>
							<path class="st12" d="M139.8,102.5c0,3.2-1.3,6.1-3.4,8.2c-2.1,2.1-3.4,2.8-3.6,6.2h-1c-1,0-2.2,0-2.2,0h-3.1c0,0-1.1,0-2,0
								h-1.1c-0.2-2.9-1.1-3.8-2.8-5.4c-0.3-0.2-0.5-0.5-0.8-0.8c-2.1-2.1-3.4-5-3.4-8.2s1.3-6.1,3.4-8.2c2.1-2.1,5-3.4,8.3-3.4
								c2.6,0,5,0.8,6.9,2.3c0.5,0.3,0.9,0.7,1.3,1.1c0.1,0.1,0.3,0.3,0.4,0.4c0.3,0.3,0.5,0.6,0.7,0.9
								C138.9,97.6,139.8,100,139.8,102.5z"/>
							<g>
								<path class="st13" d="M122.1,123.3c0-1,0.8-1.8,1.8-1.8h8.4c1,0,1.8,0.8,1.8,1.8l0,0c0,1-0.8,1.8-1.8,1.8h-8.4
									C122.9,125.1,122.1,124.3,122.1,123.3L122.1,123.3z"/>
								<path class="st14" d="M122.1,123.4c0.1,0.9,0.9,1.7,1.8,1.7h8.4c1,0,1.8-0.7,1.8-1.7H122.1z"/>
							</g>
							<g>
								<path class="st13" d="M122.1,119.7c0-1,0.8-1.8,1.8-1.8h8.4c1,0,1.8,0.8,1.8,1.8l0,0c0,1-0.8,1.8-1.8,1.8h-8.4
									C122.9,121.5,122.1,120.7,122.1,119.7L122.1,119.7z"/>
								<path class="st14" d="M122.1,119.9c0.1,0.9,0.9,1.7,1.8,1.7h8.4c1,0,1.8-0.7,1.8-1.7H122.1z"/>
							</g>
							<g>
								<path class="st13" d="M122.1,116.2c0-1,0.8-1.8,1.8-1.8h8.4c1,0,1.8,0.8,1.8,1.8l0,0c0,1-0.8,1.8-1.8,1.8h-8.4
									C122.9,118,122.1,117.2,122.1,116.2L122.1,116.2z"/>
								<path class="st14" d="M122.1,116.3c0.1,0.9,0.9,1.7,1.8,1.7h8.4c1,0,1.8-0.7,1.8-1.7H122.1z"/>
							</g>
						</g>
					</g>
				</g>
			</g>
			<g>
				<g>
					<path class="st7" d="M107.2,74.9c-2,0-3.7-1.6-3.7-3.7V29.4c0-2,1.6-3.7,3.7-3.7H149c2,0,3.7,1.6,3.7,3.7v41.9
						c0,2-1.6,3.7-3.7,3.7H107.2z"/>
					<path class="st8" d="M149,26.1c1.8,0,3.3,1.5,3.3,3.3v41.9c0,1.8-1.5,3.3-3.3,3.3h-41.9c-1.8,0-3.3-1.5-3.3-3.3V29.4
						c0-1.8,1.5-3.3,3.3-3.3H149 M149,25.3h-41.9c-2.2,0-4,1.8-4,4v41.9c0,2.2,1.8,4,4,4H149c2.2,0,4-1.8,4-4V29.4
						C153.1,27.1,151.3,25.3,149,25.3L149,25.3z"/>
				</g>
				<g>
					<g>
						<g>
							<path class="st9" d="M113.4,44.1h-1.5c-0.4,0-0.6-0.3-0.6-0.6c0-0.4,0.3-0.6,0.6-0.6h1.5c0.4,0,0.6,0.3,0.6,0.6
								C114,43.8,113.7,44.1,113.4,44.1z"/>
							<path class="st9" d="M144.3,44.1h-1.5c-0.4,0-0.6-0.3-0.6-0.6c0-0.4,0.3-0.6,0.6-0.6h1.5c0.4,0,0.6,0.3,0.6,0.6
								C145,43.8,144.7,44.1,144.3,44.1z"/>
						</g>
						<g>
							<path class="st9" d="M138.7,33.6c-0.2,0-0.3-0.1-0.5-0.2c-0.3-0.3-0.3-0.7,0-0.9l0.9-0.9c0.3-0.3,0.7-0.3,0.9,0
								c0.3,0.3,0.3,0.7,0,0.9l-0.9,0.9C139,33.5,138.9,33.6,138.7,33.6z"/>
							<path class="st9" d="M116.6,55.4c-0.2,0-0.3-0.1-0.5-0.2c-0.3-0.3-0.3-0.7,0-0.9l0.9-0.9c0.3-0.3,0.7-0.3,0.9,0
								c0.3,0.3,0.3,0.7,0,0.9l-0.9,0.9C117,55.4,116.8,55.4,116.6,55.4z"/>
						</g>
						<g>
							<path class="st9" d="M117.5,33.6c-0.2,0-0.3-0.1-0.5-0.2l-0.9-0.9c-0.3-0.3-0.3-0.7,0-0.9c0.3-0.3,0.7-0.3,0.9,0l0.9,0.9
								c0.3,0.3,0.3,0.7,0,0.9C117.8,33.5,117.7,33.6,117.5,33.6z"/>
							<path class="st9" d="M139.6,55.4c-0.2,0-0.3-0.1-0.5-0.2l-0.9-0.9c-0.3-0.3-0.3-0.7,0-0.9c0.3-0.3,0.7-0.3,0.9,0l0.9,0.9
								c0.3,0.3,0.3,0.7,0,0.9C139.9,55.4,139.7,55.4,139.6,55.4z"/>
						</g>
					</g>
					<g>
						<g>
							<g>
								<polygon class="st10" points="132.8,66.3 131.8,66.8 130.3,68.1 125.8,68.1 124.4,66.8 123.4,66.3 								"/>
								<path class="st11" d="M126.2,68.1c0,0,0.1,1.1,1.9,1.1c1.8,0,1.9-1.1,1.9-1.1H126.2z"/>
							</g>
							<path class="st19" d="M139.8,44c0,3.2-1.3,6.1-3.4,8.2c-2.1,2.1-3.4,2.8-3.6,6.2h-1c-1,0-2.2,0-2.2,0h-3.1c0,0-1.1,0-2,0
								h-1.1c-0.2-2.9-1.1-3.8-2.8-5.4c-0.3-0.2-0.5-0.5-0.8-0.8c-2.1-2.1-3.4-5-3.4-8.2c0-3.2,1.3-6.1,3.4-8.2
								c2.1-2.1,5-3.4,8.3-3.4c2.6,0,5,0.8,6.9,2.3c0.5,0.3,0.9,0.7,1.3,1.1c0.1,0.1,0.3,0.3,0.4,0.4c0.3,0.3,0.5,0.6,0.7,0.9
								C138.9,39.1,139.8,41.4,139.8,44z"/>
							<g>
								<path class="st13" d="M122.1,64.8c0-1,0.8-1.8,1.8-1.8h8.4c1,0,1.8,0.8,1.8,1.8l0,0c0,1-0.8,1.8-1.8,1.8h-8.4
									C122.9,66.6,122.1,65.8,122.1,64.8L122.1,64.8z"/>
								<path class="st14" d="M122.1,64.9c0.1,0.9,0.9,1.7,1.8,1.7h8.4c1,0,1.8-0.7,1.8-1.7H122.1z"/>
							</g>
							<g>
								<path class="st13" d="M122.1,61.2c0-1,0.8-1.8,1.8-1.8h8.4c1,0,1.8,0.8,1.8,1.8l0,0c0,1-0.8,1.8-1.8,1.8h-8.4
									C122.9,63,122.1,62.2,122.1,61.2L122.1,61.2z"/>
								<path class="st14" d="M122.1,61.3c0.1,0.9,0.9,1.7,1.8,1.7h8.4c1,0,1.8-0.7,1.8-1.7H122.1z"/>
							</g>
							<g>
								<path class="st13" d="M122.1,57.6c0-1,0.8-1.8,1.8-1.8h8.4c1,0,1.8,0.8,1.8,1.8l0,0c0,1-0.8,1.8-1.8,1.8h-8.4
									C122.9,59.4,122.1,58.6,122.1,57.6L122.1,57.6z"/>
								<path class="st14" d="M122.1,57.7c0.1,0.9,0.9,1.7,1.8,1.7h8.4c1,0,1.8-0.7,1.8-1.7H122.1z"/>
							</g>
						</g>
					</g>
				</g>
			</g>
			<g>
				<g>
					<path class="st7" d="M107.2,16.4c-2,0-3.7-1.6-3.7-3.7v-41.9c0-2,1.6-3.7,3.7-3.7H149c2,0,3.7,1.6,3.7,3.7v41.9
						c0,2-1.6,3.7-3.7,3.7H107.2z"/>
					<path class="st8" d="M149-32.5c1.8,0,3.3,1.5,3.3,3.3v41.9c0,1.8-1.5,3.3-3.3,3.3h-41.9c-1.8,0-3.3-1.5-3.3-3.3v-41.9
						c0-1.8,1.5-3.3,3.3-3.3H149 M149-33.2h-41.9c-2.2,0-4,1.8-4,4v41.9c0,2.2,1.8,4,4,4H149c2.2,0,4-1.8,4-4v-41.9
						C153.1-31.4,151.3-33.2,149-33.2L149-33.2z"/>
				</g>
				<g>
					<g>
						<g>
							<g>
								<polygon class="st10" points="132.8,7.7 131.8,8.2 130.3,9.5 125.8,9.5 124.4,8.2 123.4,7.7 								"/>
								<path class="st11" d="M126.2,9.5c0,0,0.1,1.1,1.9,1.1c1.8,0,1.9-1.1,1.9-1.1H126.2z"/>
							</g>
							<g>
								<path class="st13" d="M122.1,6.2c0-1,0.8-1.8,1.8-1.8h8.4c1,0,1.8,0.8,1.8,1.8l0,0c0,1-0.8,1.8-1.8,1.8h-8.4
									C122.9,8,122.1,7.2,122.1,6.2L122.1,6.2z"/>
								<path class="st14" d="M122.1,6.3c0.1,0.9,0.9,1.7,1.8,1.7h8.4c1,0,1.8-0.7,1.8-1.7H122.1z"/>
							</g>
							<g>
								<path class="st13" d="M122.1,2.6c0-1,0.8-1.8,1.8-1.8h8.4c1,0,1.8,0.8,1.8,1.8l0,0c0,1-0.8,1.8-1.8,1.8h-8.4
									C122.9,4.4,122.1,3.6,122.1,2.6L122.1,2.6z"/>
								<path class="st14" d="M122.1,2.8c0.1,0.9,0.9,1.7,1.8,1.7h8.4c1,0,1.8-0.7,1.8-1.7H122.1z"/>
							</g>
							<g>
								<path class="st13" d="M122.1-0.9c0-1,0.8-1.8,1.8-1.8h8.4c1,0,1.8,0.8,1.8,1.8l0,0c0,1-0.8,1.8-1.8,1.8h-8.4
									C122.9,0.9,122.1,0,122.1-0.9L122.1-0.9z"/>
								<path class="st14" d="M122.1-0.8c0.1,0.9,0.9,1.7,1.8,1.7h8.4c1,0,1.8-0.7,1.8-1.7H122.1z"/>
							</g>
						</g>
					</g>
				</g>
			</g>
		</g>
		<g>
			<g>
				<path class="st7" d="M165.5,133.5c-2,0-3.7-1.6-3.7-3.7V87.9c0-2,1.6-3.7,3.7-3.7h41.9c2,0,3.7,1.6,3.7,3.7v41.9
					c0,2-1.6,3.7-3.7,3.7H165.5z"/>
				<path class="st8" d="M207.4,84.6c1.8,0,3.3,1.5,3.3,3.3v41.9c0,1.8-1.5,3.3-3.3,3.3h-41.9c-1.8,0-3.3-1.5-3.3-3.3V87.9
					c0-1.8,1.5-3.3,3.3-3.3H207.4 M207.4,83.9h-41.9c-2.2,0-4,1.8-4,4v41.9c0,2.2,1.8,4,4,4h41.9c2.2,0,4-1.8,4-4V87.9
					C211.5,85.7,209.6,83.9,207.4,83.9L207.4,83.9z"/>
			</g>
			<g>
				<g>
					<g>
						<path class="st9" d="M171.8,102.6h-1.5c-0.4,0-0.6-0.3-0.6-0.6c0-0.4,0.3-0.6,0.6-0.6h1.5c0.4,0,0.6,0.3,0.6,0.6
							C172.4,102.3,172.1,102.6,171.8,102.6z"/>
						<path class="st9" d="M202.7,102.6h-1.5c-0.4,0-0.6-0.3-0.6-0.6s0.3-0.6,0.6-0.6h1.5c0.4,0,0.6,0.3,0.6,0.6
							S203,102.6,202.7,102.6z"/>
					</g>
					<g>
						<path class="st9" d="M197.1,92.1c-0.2,0-0.3-0.1-0.5-0.2c-0.3-0.3-0.3-0.7,0-0.9l0.9-0.9c0.3-0.3,0.7-0.3,0.9,0
							c0.3,0.3,0.3,0.7,0,0.9l-0.9,0.9C197.4,92,197.2,92.1,197.1,92.1z"/>
						<path class="st9" d="M175,114c-0.2,0-0.3-0.1-0.5-0.2c-0.3-0.3-0.3-0.7,0-0.9l0.9-0.9c0.3-0.3,0.7-0.3,0.9,0
							c0.3,0.3,0.3,0.7,0,0.9l-0.9,0.9C175.3,113.9,175.2,114,175,114z"/>
					</g>
					<g>
						<path class="st9" d="M175.9,92.1c-0.2,0-0.3-0.1-0.5-0.2l-0.9-0.9c-0.3-0.3-0.3-0.7,0-0.9c0.3-0.3,0.7-0.3,0.9,0l0.9,0.9
							c0.3,0.3,0.3,0.7,0,0.9C176.2,92,176,92.1,175.9,92.1z"/>
						<path class="st9" d="M197.9,114c-0.2,0-0.3-0.1-0.5-0.2l-0.9-0.9c-0.3-0.3-0.3-0.7,0-0.9c0.3-0.3,0.7-0.3,0.9,0l0.9,0.9
							c0.3,0.3,0.3,0.7,0,0.9C198.3,113.9,198.1,114,197.9,114z"/>
					</g>
				</g>
				<g>
					<g>
						<g>
							<polygon class="st10" points="191.2,124.8 190.1,125.4 188.7,126.6 184.2,126.6 182.8,125.4 181.7,124.8 							"/>
							<path class="st11" d="M184.6,126.6c0,0,0.1,1.1,1.9,1.1c1.8,0,1.9-1.1,1.9-1.1H184.6z"/>
						</g>
						<path class="st21" d="M198.2,102.5c0,3.2-1.3,6.1-3.4,8.2c-2.1,2.1-3.4,2.8-3.6,6.2h-1c-1,0-2.2,0-2.2,0h-3.1c0,0-1.1,0-2,0
							h-1.1c-0.2-2.9-1.1-3.8-2.8-5.4c-0.3-0.2-0.5-0.5-0.8-0.8c-2.1-2.1-3.4-5-3.4-8.2s1.3-6.1,3.4-8.2c2.1-2.1,5-3.4,8.3-3.4
							c2.6,0,5,0.8,6.9,2.3c0.5,0.3,0.9,0.7,1.3,1.1c0.1,0.1,0.3,0.3,0.4,0.4c0.3,0.3,0.5,0.6,0.7,0.9
							C197.3,97.6,198.2,100,198.2,102.5z"/>
						<g>
							<path class="st13" d="M180.4,123.3c0-1,0.8-1.8,1.8-1.8h8.4c1,0,1.8,0.8,1.8,1.8l0,0c0,1-0.8,1.8-1.8,1.8h-8.4
								C181.3,125.1,180.4,124.3,180.4,123.3L180.4,123.3z"/>
							<path class="st14" d="M180.4,123.4c0.1,0.9,0.9,1.7,1.8,1.7h8.4c1,0,1.8-0.7,1.8-1.7H180.4z"/>
						</g>
						<g>
							<path class="st13" d="M180.4,119.7c0-1,0.8-1.8,1.8-1.8h8.4c1,0,1.8,0.8,1.8,1.8l0,0c0,1-0.8,1.8-1.8,1.8h-8.4
								C181.3,121.5,180.4,120.7,180.4,119.7L180.4,119.7z"/>
							<path class="st14" d="M180.4,119.9c0.1,0.9,0.9,1.7,1.8,1.7h8.4c1,0,1.8-0.7,1.8-1.7H180.4z"/>
						</g>
						<g>
							<path class="st13" d="M180.4,116.2c0-1,0.8-1.8,1.8-1.8h8.4c1,0,1.8,0.8,1.8,1.8l0,0c0,1-0.8,1.8-1.8,1.8h-8.4
								C181.3,118,180.4,117.2,180.4,116.2L180.4,116.2z"/>
							<path class="st14" d="M180.4,116.3c0.1,0.9,0.9,1.7,1.8,1.7h8.4c1,0,1.8-0.7,1.8-1.7H180.4z"/>
						</g>
					</g>
				</g>
			</g>
		</g>
		<g>
			<g>
				<path class="st7" d="M165.5,74.9c-2,0-3.7-1.6-3.7-3.7V29.4c0-2,1.6-3.7,3.7-3.7h41.9c2,0,3.7,1.6,3.7,3.7v41.9
					c0,2-1.6,3.7-3.7,3.7H165.5z"/>
				<path class="st8" d="M207.4,26.1c1.8,0,3.3,1.5,3.3,3.3v41.9c0,1.8-1.5,3.3-3.3,3.3h-41.9c-1.8,0-3.3-1.5-3.3-3.3V29.4
					c0-1.8,1.5-3.3,3.3-3.3H207.4 M207.4,25.3h-41.9c-2.2,0-4,1.8-4,4v41.9c0,2.2,1.8,4,4,4h41.9c2.2,0,4-1.8,4-4V29.4
					C211.5,27.1,209.6,25.3,207.4,25.3L207.4,25.3z"/>
			</g>
			<g>
				<g>
					<g>
						<path class="st9" d="M171.8,44.1h-1.5c-0.4,0-0.6-0.3-0.6-0.6c0-0.4,0.3-0.6,0.6-0.6h1.5c0.4,0,0.6,0.3,0.6,0.6
							C172.4,43.8,172.1,44.1,171.8,44.1z"/>
						<path class="st9" d="M202.7,44.1h-1.5c-0.4,0-0.6-0.3-0.6-0.6c0-0.4,0.3-0.6,0.6-0.6h1.5c0.4,0,0.6,0.3,0.6,0.6
							C203.3,43.8,203,44.1,202.7,44.1z"/>
					</g>
					<g>
						<path class="st9" d="M197.1,33.6c-0.2,0-0.3-0.1-0.5-0.2c-0.3-0.3-0.3-0.7,0-0.9l0.9-0.9c0.3-0.3,0.7-0.3,0.9,0
							c0.3,0.3,0.3,0.7,0,0.9l-0.9,0.9C197.4,33.5,197.2,33.6,197.1,33.6z"/>
						<path class="st9" d="M175,55.4c-0.2,0-0.3-0.1-0.5-0.2c-0.3-0.3-0.3-0.7,0-0.9l0.9-0.9c0.3-0.3,0.7-0.3,0.9,0
							c0.3,0.3,0.3,0.7,0,0.9l-0.9,0.9C175.3,55.4,175.2,55.4,175,55.4z"/>
					</g>
					<g>
						<path class="st9" d="M175.9,33.6c-0.2,0-0.3-0.1-0.5-0.2l-0.9-0.9c-0.3-0.3-0.3-0.7,0-0.9c0.3-0.3,0.7-0.3,0.9,0l0.9,0.9
							c0.3,0.3,0.3,0.7,0,0.9C176.2,33.5,176,33.6,175.9,33.6z"/>
						<path class="st9" d="M197.9,55.4c-0.2,0-0.3-0.1-0.5-0.2l-0.9-0.9c-0.3-0.3-0.3-0.7,0-0.9c0.3-0.3,0.7-0.3,0.9,0l0.9,0.9
							c0.3,0.3,0.3,0.7,0,0.9C198.3,55.4,198.1,55.4,197.9,55.4z"/>
					</g>
				</g>
				<g>
					<g>
						<g>
							<polygon class="st10" points="191.2,66.3 190.1,66.8 188.7,68.1 184.2,68.1 182.8,66.8 181.7,66.3 							"/>
							<path class="st11" d="M184.6,68.1c0,0,0.1,1.1,1.9,1.1c1.8,0,1.9-1.1,1.9-1.1H184.6z"/>
						</g>
						<path class="st22" d="M198.2,44c0,3.2-1.3,6.1-3.4,8.2c-2.1,2.1-3.4,2.8-3.6,6.2h-1c-1,0-2.2,0-2.2,0h-3.1c0,0-1.1,0-2,0h-1.1
							c-0.2-2.9-1.1-3.8-2.8-5.4c-0.3-0.2-0.5-0.5-0.8-0.8c-2.1-2.1-3.4-5-3.4-8.2c0-3.2,1.3-6.1,3.4-8.2c2.1-2.1,5-3.4,8.3-3.4
							c2.6,0,5,0.8,6.9,2.3c0.5,0.3,0.9,0.7,1.3,1.1c0.1,0.1,0.3,0.3,0.4,0.4c0.3,0.3,0.5,0.6,0.7,0.9
							C197.3,39.1,198.2,41.4,198.2,44z"/>
						<g>
							<path class="st13" d="M180.4,64.8c0-1,0.8-1.8,1.8-1.8h8.4c1,0,1.8,0.8,1.8,1.8l0,0c0,1-0.8,1.8-1.8,1.8h-8.4
								C181.3,66.6,180.4,65.8,180.4,64.8L180.4,64.8z"/>
							<path class="st14" d="M180.4,64.9c0.1,0.9,0.9,1.7,1.8,1.7h8.4c1,0,1.8-0.7,1.8-1.7H180.4z"/>
						</g>
						<g>
							<path class="st13" d="M180.4,61.2c0-1,0.8-1.8,1.8-1.8h8.4c1,0,1.8,0.8,1.8,1.8l0,0c0,1-0.8,1.8-1.8,1.8h-8.4
								C181.3,63,180.4,62.2,180.4,61.2L180.4,61.2z"/>
							<path class="st14" d="M180.4,61.3c0.1,0.9,0.9,1.7,1.8,1.7h8.4c1,0,1.8-0.7,1.8-1.7H180.4z"/>
						</g>
						<g>
							<path class="st13" d="M180.4,57.6c0-1,0.8-1.8,1.8-1.8h8.4c1,0,1.8,0.8,1.8,1.8l0,0c0,1-0.8,1.8-1.8,1.8h-8.4
								C181.3,59.4,180.4,58.6,180.4,57.6L180.4,57.6z"/>
							<path class="st14" d="M180.4,57.7c0.1,0.9,0.9,1.7,1.8,1.7h8.4c1,0,1.8-0.7,1.8-1.7H180.4z"/>
						</g>
					</g>
				</g>
			</g>
		</g>
		<g>
			<path class="st7" d="M165.5,16.4c-2,0-3.7-1.6-3.7-3.7v-41.9c0-2,1.6-3.7,3.7-3.7h41.9c2,0,3.7,1.6,3.7,3.7v41.9
				c0,2-1.6,3.7-3.7,3.7H165.5z"/>
			<path class="st8" d="M207.4-32.5c1.8,0,3.3,1.5,3.3,3.3v41.9c0,1.8-1.5,3.3-3.3,3.3h-41.9c-1.8,0-3.3-1.5-3.3-3.3v-41.9
				c0-1.8,1.5-3.3,3.3-3.3H207.4 M207.4-33.2h-41.9c-2.2,0-4,1.8-4,4v41.9c0,2.2,1.8,4,4,4h41.9c2.2,0,4-1.8,4-4v-41.9
				C211.5-31.4,209.6-33.2,207.4-33.2L207.4-33.2z"/>
		</g>
		<polygon class="st10" points="191.2,7.7 190.1,8.2 188.7,9.5 184.2,9.5 182.8,8.2 181.7,7.7 		"/>
		<path class="st11" d="M184.6,9.5c0,0,0.1,1.1,1.9,1.1c1.8,0,1.9-1.1,1.9-1.1H184.6z"/>
		<path class="st13" d="M180.4,6.2c0-1,0.8-1.8,1.8-1.8h8.4c1,0,1.8,0.8,1.8,1.8l0,0c0,1-0.8,1.8-1.8,1.8h-8.4
			C181.3,8,180.4,7.2,180.4,6.2L180.4,6.2z"/>
		<path class="st14" d="M180.4,6.3c0.1,0.9,0.9,1.7,1.8,1.7h8.4c1,0,1.8-0.7,1.8-1.7H180.4z"/>
		<path class="st13" d="M180.4,2.6c0-1,0.8-1.8,1.8-1.8h8.4c1,0,1.8,0.8,1.8,1.8l0,0c0,1-0.8,1.8-1.8,1.8h-8.4
			C181.3,4.4,180.4,3.6,180.4,2.6L180.4,2.6z"/>
		<path class="st14" d="M180.4,2.8c0.1,0.9,0.9,1.7,1.8,1.7h8.4c1,0,1.8-0.7,1.8-1.7H180.4z"/>
		<path class="st13" d="M180.4-0.9c0-1,0.8-1.8,1.8-1.8h8.4c1,0,1.8,0.8,1.8,1.8l0,0c0,1-0.8,1.8-1.8,1.8h-8.4
			C181.3,0.9,180.4,0,180.4-0.9L180.4-0.9z"/>
		<path class="st14" d="M180.4-0.8c0.1,0.9,0.9,1.7,1.8,1.7h8.4c1,0,1.8-0.7,1.8-1.7H180.4z"/>
		<g>
			<g>
				<g>
					<g>
						<polygon class="st10" points="74.5,7.7 73.4,8.2 72,9.5 67.5,9.5 66.1,8.2 65,7.7 						"/>
						<path class="st11" d="M67.9,9.5c0,0,0.1,1.1,1.9,1.1c1.8,0,1.9-1.1,1.9-1.1H67.9z"/>
					</g>
					<g>
						<path class="st13" d="M63.7,6.2c0-1,0.8-1.8,1.8-1.8h8.4c1,0,1.8,0.8,1.8,1.8l0,0c0,1-0.8,1.8-1.8,1.8h-8.4
							C64.5,8,63.7,7.2,63.7,6.2L63.7,6.2z"/>
						<path class="st14" d="M63.7,6.3C63.8,7.3,64.6,8,65.5,8h8.4c1,0,1.8-0.7,1.8-1.7H63.7z"/>
					</g>
					<g>
						<path class="st13" d="M63.7,2.6c0-1,0.8-1.8,1.8-1.8h8.4c1,0,1.8,0.8,1.8,1.8l0,0c0,1-0.8,1.8-1.8,1.8h-8.4
							C64.5,4.4,63.7,3.6,63.7,2.6L63.7,2.6z"/>
						<path class="st14" d="M63.7,2.8c0.1,0.9,0.9,1.7,1.8,1.7h8.4c1,0,1.8-0.7,1.8-1.7H63.7z"/>
					</g>
					<g>
						<path class="st13" d="M63.7-0.9c0-1,0.8-1.8,1.8-1.8h8.4c1,0,1.8,0.8,1.8,1.8l0,0c0,1-0.8,1.8-1.8,1.8h-8.4
							C64.5,0.9,63.7,0,63.7-0.9L63.7-0.9z"/>
						<path class="st14" d="M63.7-0.8c0.1,0.9,0.9,1.7,1.8,1.7h8.4c1,0,1.8-0.7,1.8-1.7H63.7z"/>
					</g>
				</g>
			</g>
		</g>
	</g>
	<use xlink:href="#SVGID_1_"  style="overflow:visible;fill:none;stroke:#808080;stroke-width:5.5598;stroke-miterlimit:10;"/>
</g>
<circle class="st30" cx="126.4" cy="128.1" r="107.6"/>
<path class="st31" d="M181.3,33.8l-2.8,4.8c49.2,28.7,66,91.8,37.5,141.1c-28.5,49.4-91.5,66.4-141,38.1l-23.4,40.6h14.3l5.3-9.2
	c1.9,0.1,3.9-0.8,4.9-2.6c1-1.8,0.9-3.9-0.2-5.5l7.4-12.9c13.9,6,28.4,8.8,42.9,8.8c37.7,0,74.5-19.6,94.6-54.5
	C250.8,130.6,233.1,64,181.3,33.8z"/>
<g>
	<path class="st32" d="M191.4,217.5c0.9-2,0.8-4.3,0.5-5.9l-6.7-24.8c-0.2-0.5-0.5-1.1-0.8-1.5l-2.8-6.3c-0.6-1.4-2.4-2.1-3.9-1.5
		l-0.2,0.1c-0.7,0.3-1.1,0.8-1.4,1.4l-0.1-0.3c-0.5-1.5-2.2-2.3-3.7-1.7l-0.4,0.2c-1,0.3-1.6,1.2-1.8,2.1l-0.3-0.9
		c-0.6-1.6-2.4-2.4-4-1.9l-0.8,0.3c-1.6,0.6-2.4,2.4-1.9,4l1.7,4.6l0,0l-2.3-6.2c-0.7-2-2.9-3-4.9-2.3l-1.9,0.7
		c-1.3,0.5-2.2,1.6-2.4,2.9l-7.4-20.3c-1-2.7-4-4.2-6.8-3.2h0c-2.7,1-4.2,4-3.2,6.8l12.8,35.2c0.1,0.2,0.1,0.3,0.2,0.5
		c0,0.2,0.1,0.3,0.1,0.5l2.7,7.4c-4.3-2.6-9.1-4.8-13.4-3.8c-3,0.7-8.3,2.7-6.1,6.3c3.1,5.1,12.5,6.4,17.2,9.3
		c3.5,2.2,6.3,5.1,10.1,7c0.1,0,0.2,0.1,0.3,0.1c1.3,1.1,2.9,1.7,4.7,1.9l3.7,11.3l0.1,0.2l27.7-10.1l0.2-0.1L191.4,217.5z"/>
	<path class="st33" d="M144.9,162.7c0.1-0.6,0-1.2-0.2-1.8l-0.4-1c-0.7-1.9-2.9-2.9-4.8-2.2l0,0c-2,0.7-3,2.9-2.3,4.8l0.4,1
		c0.2,0.6,0.6,1.1,1,1.5L144.9,162.7z"/>
	<path class="st33" d="M134.7,206.7c1.7,0.7,3.3,1.3,5,2c-0.2,1.7-1.7,2.9-3.1,4c-0.3,0.2-2.1-1.2-2.4-1.4c-0.8-0.7-1.3-1.4-1.8-2.3
		C131.5,207.3,132.8,206,134.7,206.7z"/>
</g>
<circle class="st34" cx="39.5" cy="165.2" r="4.1"/>
<path class="st35" d="M44,174.6c2.5,4,5.3,7.9,8.2,11.6"/>
</svg>
