<?xml version="1.0" encoding="utf-8"?>
<!-- Generator: Adobe Illustrator 22.1.0, SVG Export Plug-In . SVG Version: 6.00 Build 0)  -->
<svg version="1.1" id="レイヤー_1" xmlns="http://www.w3.org/2000/svg" xmlns:xlink="http://www.w3.org/1999/xlink" x="0px"
	 y="0px" viewBox="0 0 257 280" style="enable-background:new 0 0 257 280;" xml:space="preserve">
<style type="text/css">
	.st0{fill:#FFFFFF;}
	.st1{opacity:0.16;fill:url(#SVGID_1_);}
	.st2{opacity:0.2;fill:url(#SVGID_2_);}
	.st3{fill:url(#SVGID_3_);}
	.st4{clip-path:url(#SVGID_6_);fill:#333333;}
	.st5{fill:url(#SVGID_7_);}
	.st6{fill:url(#SVGID_8_);}
	.st7{fill:url(#SVGID_9_);}
	.st8{fill:url(#SVGID_10_);}
	.st9{fill:url(#SVGID_11_);}
	.st10{fill:url(#SVGID_12_);}
	.st11{opacity:0.4;}
	.st12{fill:url(#SVGID_13_);}
	.st13{fill:#C9C9C9;}
	.st14{fill:url(#SVGID_14_);}
	.st15{clip-path:url(#SVGID_16_);fill:#D9D9D9;}
	.st16{fill:#333333;}
	.st17{opacity:0.1;clip-path:url(#SVGID_18_);fill:#4D4D4D;}
	.st18{fill:#C5C5C5;}
	.st19{fill:#EEEEEE;}
	.st20{fill:#979697;}
	.st21{fill:#4F555C;}
	.st22{fill:#448CB5;}
	.st23{fill:#4D4D4D;}
	.st24{opacity:0.1;fill:#FFFFFF;}
	.st25{fill:url(#SVGID_19_);}
	.st26{clip-path:url(#SVGID_22_);fill:#333333;}
	.st27{fill:url(#SVGID_23_);}
	.st28{fill:url(#SVGID_24_);}
	.st29{fill:url(#SVGID_25_);}
	.st30{fill:url(#SVGID_26_);}
	.st31{fill:url(#SVGID_27_);}
	.st32{fill:url(#SVGID_28_);}
	.st33{fill:url(#SVGID_29_);}
	.st34{fill:url(#SVGID_30_);}
	.st35{clip-path:url(#SVGID_32_);fill:#D9D9D9;}
	.st36{opacity:0.1;clip-path:url(#SVGID_34_);fill:#4D4D4D;}
	.st37{fill:#C6474B;}
</style>
<g>
	<path class="st0" d="M179.6,165.5h-8.5v-15.4h3V163h5.5V165.5z"/>
	<path class="st0" d="M192.2,165.5h-8.6v-15.4h8.3v2.5h-5.3v3.7h5v2.4h-5v4.3h5.6V165.5z"/>
	<path class="st0" d="M196.4,150.3c1.1-0.2,2.5-0.3,4-0.3c2.6,0,4.3,0.5,5.6,1.6c1.5,1.2,2.3,3.1,2.3,5.9c0,3.3-1.1,5.2-2.3,6.3
		c-1.4,1.3-3.5,1.9-6.2,1.9c-1.4,0-2.6-0.1-3.3-0.2V150.3z M199.4,163.2c0.3,0.1,0.7,0.1,1.1,0.1c2.8,0,4.7-1.7,4.7-5.8
		c0-3.5-1.7-5.2-4.4-5.2c-0.6,0-1.1,0.1-1.4,0.1V163.2z"/>
</g>
<g>
	<path class="st0" d="M52.9,248.9v1.5h-1.3V248h4.6v-0.5h-3.7v-1.1h8.9v1.1h-3.8v0.5h4.7v2.5h-1.3v-1.5h-3.3v2.5h-1.4v-2.5H52.9z
		 M57.5,255.6c0,0.5,0.1,0.6,0.9,0.6h2.3c0.6,0,0.7-0.2,0.8-1.2c0.3,0.2,0.8,0.4,1.2,0.5c-0.2,1.5-0.6,1.9-1.9,1.9h-2.5
		c-1.7,0-2.1-0.4-2.1-1.7h-2v0.5h-1.4v-4.4h8.4v3.9H57.5z M53.1,251.3v-0.8h2.6v0.8H53.1z M53.4,249.3h2.4v0.8h-2.4V249.3z
		 M56.1,252.7h-2v0.5h2V252.7z M54.1,254.7h2v-0.5h-2V254.7z M59.7,253.3v-0.5h-2.2v0.5H59.7z M57.5,254.7h2.2v-0.5h-2.2V254.7z
		 M58,249.3h2.4v0.8H58V249.3z M58,251.3v-0.8h2.6v0.8H58z"/>
	<path class="st0" d="M64,249.3c0.7,0.3,1.6,0.7,2,1.1l-0.9,1.2c-0.4-0.4-1.3-0.9-2-1.2L64,249.3z M63.4,256.4
		c0.5-0.9,1.2-2.5,1.7-3.9l1.2,0.8c-0.5,1.3-1,2.6-1.5,3.6c0.1,0.1,0.1,0.2,0.1,0.2c0,0.1,0,0.1,0,0.2L63.4,256.4z M64.6,246.1
		c0.7,0.3,1.6,0.8,2,1.2c-0.3,0.4-0.6,0.8-0.9,1.2c-0.4-0.4-1.3-1-2-1.3L64.6,246.1z M74,253.3h-2v2.6c0,1-0.2,1.4-2.2,1.4
		c0-0.4-0.2-0.9-0.4-1.2c0.4,0,0.9,0,1.1,0c0.1,0,0.2,0,0.2-0.2v-2.6h-1.8V249h1.7c0.1-0.3,0.1-0.7,0.2-1.1h-2.3v2.1
		c0,1.7-0.1,4.1-0.9,6c0.6-0.5,1.2-1.4,1.6-2.2l1.5,0.5c0,0.1-0.1,0.1-0.3,0.1c-0.4,0.9-1.1,1.8-1.8,2.4c-0.2-0.2-0.7-0.6-1-0.8
		c-0.2,0.5-0.4,0.9-0.7,1.3c-0.3-0.2-0.9-0.6-1.2-0.8c1.4-1.9,1.5-4.6,1.5-6.6v-3.3h7.6v1.3h-2.6l0.5,0.1c0,0.1-0.1,0.1-0.3,0.2
		c-0.1,0.3-0.2,0.5-0.3,0.8H74V253.3z M70.1,250.1v0.6h2.6v-0.6H70.1z M70.1,251.7v0.6h2.6v-0.6H70.1z M73.5,256.7
		c-0.2-0.6-0.9-1.7-1.4-2.4l1.2-0.6c0.5,0.7,1.2,1.7,1.5,2.4L73.5,256.7z"/>
</g>
<g>
	<path class="st0" d="M148.3,248v8.3h-1.6v-0.6h-7v-1.4h7v-4.9h-6.9V248H148.3z"/>
	<path class="st0" d="M152.2,247.2c1.2,0.4,2.6,1,3.5,1.6l-0.8,1.4c-0.9-0.6-2.3-1.2-3.4-1.6L152.2,247.2z M151.8,255.3
		c4-1.2,6.8-3.6,8.2-6.9c0.4,0.4,1,0.6,1.4,0.9c-1.5,3.3-4.4,5.8-8.3,7.2c0,0.1-0.1,0.3-0.2,0.3L151.8,255.3z"/>
	<path class="st0" d="M169.8,255c0.6,0,2-0.1,2.7-0.2c0,0.5,0,1,0.1,1.5c-0.7,0.1-2,0.2-2.6,0.2h-2.7c-2.1,0-3-0.9-3-2.8v-6.9
		l1.9,0.1c0,0.1-0.1,0.2-0.4,0.3v3.5c1.5-0.5,3.8-1.4,5.2-2.2l1,1.4c0,0-0.1,0-0.2,0c-0.1,0-0.1,0-0.2,0c-1.1,0.6-3.8,1.6-5.8,2.2
		v1.6c0,1,0.4,1.3,1.5,1.3H169.8z M172.5,246c0.7,0,1.3,0.6,1.3,1.3c0,0.7-0.6,1.3-1.3,1.3c-0.7,0-1.3-0.6-1.3-1.3
		C171.2,246.6,171.8,246,172.5,246z M173.3,247.3c0-0.5-0.4-0.9-0.8-0.9c-0.5,0-0.9,0.4-0.9,0.9c0,0.5,0.4,0.9,0.9,0.9
		C173,248.2,173.3,247.8,173.3,247.3z"/>
	<path class="st0" d="M184.2,254.9v1.2H176v-1.2h4.7c0.2-1.1,0.4-2.9,0.5-4h-4.3v-1.2h4.7l0.2-0.1l1,0.4c0,0.1-0.1,0.1-0.2,0.2
		c-0.2,1.1-0.5,3.5-0.7,4.7H184.2z"/>
	<path class="st0" d="M187,250.7h10v1.5h-9.5c-0.1,0.1-0.2,0.2-0.4,0.2L187,250.7z"/>
	<path class="st0" d="M208.4,248.5c0,0.1-0.1,0.2-0.2,0.2c-0.5,1.4-1,2.8-1.7,3.8c0.4,0.3,1,0.6,1.3,0.9l-0.9,1.5
		c-0.3-0.3-0.9-0.7-1.4-1c-1.1,1.4-2.4,2.4-4,3.2c-0.2-0.3-0.8-0.9-1.2-1.1c1.5-0.7,2.9-1.7,3.9-2.9c-0.6-0.4-1.4-0.8-2-1l0.8-1.2
		c0.7,0.2,1.4,0.6,2.1,0.9c0.5-0.7,0.8-1.5,1.1-2.4H203c-0.7,1.2-1.7,2.3-2.6,3c-0.3-0.3-0.9-0.7-1.2-0.9c1.7-1.2,2.9-3.2,3.6-5.2
		l1.9,0.4c0,0.1-0.2,0.2-0.4,0.2c-0.1,0.3-0.3,0.8-0.5,1.1h3.2l0.3-0.1L208.4,248.5z"/>
</g>
<g>
	<radialGradient id="SVGID_1_" cx="130.6255" cy="62.2046" r="53" gradientUnits="userSpaceOnUse">
		<stop  offset="0" style="stop-color:#F3F3F6"/>
		<stop  offset="0.7495" style="stop-color:#F3F3F6"/>
		<stop  offset="0.8728" style="stop-color:#F3F3F6"/>
		<stop  offset="1" style="stop-color:#F3F3F6;stop-opacity:0"/>
	</radialGradient>
	<circle class="st1" cx="130.6" cy="62.2" r="53"/>
	<radialGradient id="SVGID_2_" cx="130.6255" cy="62.2046" r="36.0513" gradientUnits="userSpaceOnUse">
		<stop  offset="0" style="stop-color:#F3F3F6"/>
		<stop  offset="0.6011" style="stop-color:#F3F3F6;stop-opacity:0.8283"/>
		<stop  offset="0.7" style="stop-color:#F3F3F6;stop-opacity:0.8"/>
		<stop  offset="1" style="stop-color:#F3F3F6;stop-opacity:0.4"/>
	</radialGradient>
	<circle class="st2" cx="130.6" cy="62.2" r="36.1"/>
</g>
<path class="st0" d="M222.7,189.3h-62.4v2h62.4c3.9,0,7,3.1,7,7v64c0,3.9-3.1,7-7,7h-184c-3.9,0-7-3.1-7-7v-64c0-3.9,3.1-7,7-7h61.5
	v-2H38.7c-5,0-9,4-9,9v64c0,5,4,9,9,9h184c5,0,9-4,9-9v-64C231.7,193.3,227.7,189.3,222.7,189.3z"/>
<path class="st0" d="M120.1,109.3h-1v2h1c3.9,0,7,3.1,7,7v64c0,3.9-3.1,7-7,7h-1v0H70.7c1.5,1.2,3.5,2,5.6,2h43.8c5,0,9-4,9-9v-64
	C129.1,113.3,125,109.3,120.1,109.3z"/>
<path class="st0" d="M143.6,189.3L143.6,189.3l-2.3,0c-3.9,0-7-3.1-7-7v-64c0-3.9,3.1-7,7-7h2.3v-2h-2.3c-5,0-9,4-9,9v64
	c0,5,4,9,9,9h43.8c2.1,0,4.1-0.8,5.6-2H143.6z"/>
<g>
	
		<radialGradient id="SVGID_3_" cx="134.9285" cy="150.3765" r="37.8793" gradientTransform="matrix(0.998 0 0 0.9573 -3.7838 -64.3675)" gradientUnits="userSpaceOnUse">
		<stop  offset="0" style="stop-color:#FFFFFF"/>
		<stop  offset="0.4453" style="stop-color:#FFFFFF"/>
		<stop  offset="0.4811" style="stop-color:#FDFCEC"/>
		<stop  offset="0.5931" style="stop-color:#F8F3B8"/>
		<stop  offset="0.6977" style="stop-color:#F4EC8E"/>
		<stop  offset="0.7921" style="stop-color:#F1E770"/>
		<stop  offset="0.8727" style="stop-color:#EFE45E"/>
		<stop  offset="0.9301" style="stop-color:#EEE357"/>
	</radialGradient>
	<path class="st3" d="M132.7,124.2h-3.5c-13.5,0-24.6-11.1-24.6-24.6v-40c0-13.5,11.1-24.6,24.6-24.6h3.5
		c13.5,0,24.6,11.1,24.6,24.6v40C157.3,113.1,146.2,124.2,132.7,124.2z"/>
	<path class="st0" d="M160.8,106.5H101c-0.7,0-1.3-0.6-1.3-1.3v-7.3c0-0.7,0.6-1.3,1.3-1.3h59.8c0.7,0,1.3,0.6,1.3,1.3v7.3
		C162.1,105.9,161.5,106.5,160.8,106.5z"/>
	<g>
		<g>
			<defs>
				<path id="SVGID_4_" d="M126.1,163.4c2.7,2.8,7,2.8,9.7,0l15.8-12.5c2.7-2.8,1.6-5-2.3-5h-36.7c-3.9,0-4.9,2.3-2.3,5L126.1,163.4
					z"/>
			</defs>
			<linearGradient id="SVGID_5_" gradientUnits="userSpaceOnUse" x1="108.7553" y1="155.6739" x2="153.0064" y2="155.6739">
				<stop  offset="5.376340e-03" style="stop-color:#C7C7C7"/>
				<stop  offset="0.1989" style="stop-color:#ADADAD"/>
				<stop  offset="0.5" style="stop-color:#ADADAD"/>
				<stop  offset="0.7204" style="stop-color:#C7C7C7"/>
				<stop  offset="1" style="stop-color:#949494"/>
			</linearGradient>
			<use xlink:href="#SVGID_4_"  style="overflow:visible;fill:url(#SVGID_5_);"/>
			<clipPath id="SVGID_6_">
				<use xlink:href="#SVGID_4_"  style="overflow:visible;"/>
			</clipPath>
			<rect x="105.3" y="147.3" class="st4" width="50.5" height="13"/>
		</g>
	</g>
	<linearGradient id="SVGID_7_" gradientUnits="userSpaceOnUse" x1="104.4277" y1="127.852" x2="157.3341" y2="127.852">
		<stop  offset="5.376340e-03" style="stop-color:#C7C7C7"/>
		<stop  offset="0.1989" style="stop-color:#ADADAD"/>
		<stop  offset="0.5" style="stop-color:#ADADAD"/>
		<stop  offset="0.7204" style="stop-color:#C7C7C7"/>
		<stop  offset="1" style="stop-color:#949494"/>
	</linearGradient>
	<path class="st5" d="M104.4,107.2v7.8v2.6v27c0,2.2,2.7,4,6,4H151c3.3,0,6.3-1.7,6.3-4v-27V115v-7.8H104.4z"/>
	
		<linearGradient id="SVGID_8_" gradientUnits="userSpaceOnUse" x1="-1442.3394" y1="5065.2163" x2="-1385.3047" y2="5065.2163" gradientTransform="matrix(1 -3.615597e-02 0 1 1544.7029 -4974.5156)">
		<stop  offset="5.376340e-03" style="stop-color:#C7C7C7"/>
		<stop  offset="0.1989" style="stop-color:#E1E1E1"/>
		<stop  offset="0.5" style="stop-color:#FFFFFF"/>
		<stop  offset="0.7204" style="stop-color:#E1E1E1"/>
		<stop  offset="1" style="stop-color:#949494"/>
	</linearGradient>
	<path class="st6" d="M159.4,140.8c0,1.2-1,2.3-2.3,2.4l-52.5,1.9c-1.2,0-2.3-1-2.3-2.2l0,0c0-1.2,1-2.3,2.3-2.4l52.5-1.9
		C158.4,138.5,159.4,139.6,159.4,140.8L159.4,140.8z"/>
	
		<linearGradient id="SVGID_9_" gradientUnits="userSpaceOnUse" x1="-1442.3394" y1="5055.8105" x2="-1385.3047" y2="5055.8105" gradientTransform="matrix(1 -3.615597e-02 0 1 1544.7029 -4974.5156)">
		<stop  offset="5.376340e-03" style="stop-color:#C7C7C7"/>
		<stop  offset="0.1989" style="stop-color:#E1E1E1"/>
		<stop  offset="0.5" style="stop-color:#FFFFFF"/>
		<stop  offset="0.7204" style="stop-color:#E1E1E1"/>
		<stop  offset="1" style="stop-color:#949494"/>
	</linearGradient>
	<path class="st7" d="M159.4,131.4c0,1.2-1,2.3-2.3,2.4l-52.5,1.9c-1.2,0-2.3-1-2.3-2.2l0,0c0-1.2,1-2.3,2.3-2.4l52.5-1.9
		C158.4,129.1,159.4,130.2,159.4,131.4L159.4,131.4z"/>
	
		<linearGradient id="SVGID_10_" gradientUnits="userSpaceOnUse" x1="-1442.3394" y1="5046.4048" x2="-1385.3047" y2="5046.4048" gradientTransform="matrix(1 -3.615597e-02 0 1 1544.7029 -4974.5156)">
		<stop  offset="5.376340e-03" style="stop-color:#C7C7C7"/>
		<stop  offset="0.1989" style="stop-color:#E1E1E1"/>
		<stop  offset="0.5" style="stop-color:#FFFFFF"/>
		<stop  offset="0.7204" style="stop-color:#E1E1E1"/>
		<stop  offset="1" style="stop-color:#949494"/>
	</linearGradient>
	<path class="st8" d="M159.4,122c0,1.2-1,2.3-2.3,2.4l-52.5,1.9c-1.2,0-2.3-1-2.3-2.2l0,0c0-1.2,1-2.3,2.3-2.4l52.5-1.9
		C158.4,119.7,159.4,120.8,159.4,122L159.4,122z"/>
	
		<linearGradient id="SVGID_11_" gradientUnits="userSpaceOnUse" x1="-1442.3394" y1="5036.9995" x2="-1385.3047" y2="5036.9995" gradientTransform="matrix(1 -3.615597e-02 0 1 1544.7029 -4974.5156)">
		<stop  offset="5.376340e-03" style="stop-color:#C7C7C7"/>
		<stop  offset="0.1989" style="stop-color:#E1E1E1"/>
		<stop  offset="0.5" style="stop-color:#FFFFFF"/>
		<stop  offset="0.7204" style="stop-color:#E1E1E1"/>
		<stop  offset="1" style="stop-color:#949494"/>
	</linearGradient>
	<path class="st9" d="M159.4,112.6c0,1.2-1,2.3-2.3,2.4l-52.5,1.9c-1.2,0-2.3-1-2.3-2.2l0,0c0-1.2,1-2.3,2.3-2.4l52.5-1.9
		C158.4,110.3,159.4,111.4,159.4,112.6L159.4,112.6z"/>
	<linearGradient id="SVGID_12_" gradientUnits="userSpaceOnUse" x1="102.992" y1="107.2269" x2="158.7698" y2="107.2269">
		<stop  offset="5.376340e-03" style="stop-color:#C7C7C7"/>
		<stop  offset="0.1989" style="stop-color:#E1E1E1"/>
		<stop  offset="0.5" style="stop-color:#FFFFFF"/>
		<stop  offset="0.7204" style="stop-color:#E1E1E1"/>
		<stop  offset="1" style="stop-color:#949494"/>
	</linearGradient>
	<path class="st10" d="M158,108h-54.2c-0.4,0-0.8-0.3-0.8-0.8v0c0-0.4,0.3-0.8,0.8-0.8H158c0.4,0,0.8,0.3,0.8,0.8v0
		C158.8,107.7,158.4,108,158,108z"/>
	<g class="st11">
		
			<radialGradient id="SVGID_13_" cx="130.8811" cy="188.9776" r="41.1601" gradientTransform="matrix(1 0 0 0.9659 0 -49.6616)" gradientUnits="userSpaceOnUse">
			<stop  offset="0" style="stop-color:#FFFFFF"/>
			<stop  offset="0.3231" style="stop-color:#FFFFFF"/>
			<stop  offset="0.9301" style="stop-color:#DDE3D5"/>
		</radialGradient>
		<path class="st12" d="M124.8,173.1c-6.4,0-11.7-5.1-11.7-11.3v-1.4c-8.1-2.7-13.7-10.2-13.7-18.5v-36.5h62.8V142
			c0,8.3-5.6,15.8-13.7,18.5v1.4c0,6.2-5.2,11.3-11.7,11.3H124.8z"/>
		<path class="st13" d="M161.3,106.5V142c0,8.3-5.8,15.4-13.7,17.7v2.2c0,5.7-4.8,10.3-10.6,10.3h-12.1c-5.9,0-10.6-4.6-10.6-10.3
			v-2.2c-7.9-2.3-13.7-9.4-13.7-17.7v-35.5H161.3 M163.3,104.5h-2h-60.8h-2v2V142c0,8.5,5.6,16.2,13.7,19.2v0.7
			c0,6.8,5.7,12.3,12.7,12.3h12.1c7,0,12.7-5.5,12.7-12.3v-0.7c8.1-3,13.7-10.7,13.7-19.2v-35.5V104.5L163.3,104.5z"/>
	</g>
</g>
<g>
	<g>
		
			<radialGradient id="SVGID_14_" cx="-646.9269" cy="-145.1956" r="3.8739" gradientTransform="matrix(1.264 0 0 1.25 848.8378 384.9355)" gradientUnits="userSpaceOnUse">
			<stop  offset="0" style="stop-color:#FFFFFF"/>
			<stop  offset="0.3231" style="stop-color:#FFFFFF"/>
			<stop  offset="0.9301" style="stop-color:#DDE3D5"/>
		</radialGradient>
		<path class="st14" d="M32.7,207.4h-3.1c-1.8,0-3.2-1.5-3.2-3.2V204c0-1.8,1.5-3.2,3.2-3.2h3.1c1.8,0,3.2,1.5,3.2,3.2v0.1
			C35.9,205.9,34.5,207.4,32.7,207.4z"/>
		<g>
			<defs>
				<path id="SVGID_15_" d="M41.3,259.8H20.7c-1.8,0-3.2-1.5-3.2-3.2v-49.3c0-1.8,1.5-3.2,3.2-3.2h20.6c1.8,0,3.2,1.5,3.2,3.2v49.3
					C44.5,258.4,43,259.8,41.3,259.8z"/>
			</defs>
			<use xlink:href="#SVGID_15_"  style="overflow:visible;fill:#C3403D;"/>
			<clipPath id="SVGID_16_">
				<use xlink:href="#SVGID_15_"  style="overflow:visible;"/>
			</clipPath>
			<rect x="16.6" y="237.8" class="st15" width="28.8" height="23.6"/>
		</g>
		<ellipse class="st16" cx="31.1" cy="213.9" rx="6.6" ry="6.5"/>
		<ellipse class="st0" cx="31.1" cy="249.5" rx="6.6" ry="6.5"/>
		<g>
			<path class="st0" d="M30.3,209.3h1.5v3.8h3.7v1.4h-3.7v3.9h-1.5v-3.9h-3.7v-1.4h3.7V209.3z"/>
		</g>
		<g>
			<path class="st16" d="M27,249h8.2v1.5H27V249z"/>
		</g>
	</g>
	<g>
		<defs>
			<path id="SVGID_17_" d="M41.3,204h-5.3v0c0-1.8-1.5-3.2-3.2-3.2h-3.1c-1.8,0-3.2,1.5-3.2,3.2v0h-5.7c-1.8,0-3.2,1.5-3.2,3.2v49.3
				c0,1.8,1.5,3.2,3.2,3.2h20.6c1.8,0,3.2-1.5,3.2-3.2v-49.3C44.5,205.5,43,204,41.3,204z"/>
		</defs>
		<clipPath id="SVGID_18_">
			<use xlink:href="#SVGID_17_"  style="overflow:visible;"/>
		</clipPath>
		<rect x="31.1" y="198.7" class="st17" width="14.7" height="63.5"/>
	</g>
</g>
<g>
	<path class="st18" d="M239.6,253.8c0,0.2,0,0.4,0,0.6c-0.1,0.7-0.3,1.3-0.5,1.8c0,0,0,0.1-0.1,0.1c-0.4,0.6-0.8,0.9-1.3,0.9h-16.2
		c-0.5,0-1-0.4-1.3-0.9c-0.3-0.5-0.5-1.1-0.6-1.8c0-0.2,0-0.4,0-0.6c0-0.6,0.1-1.2,0.3-1.7c0.1-0.3,0.2-0.5,0.3-0.7
		c0.4-0.6,0.9-1,1.4-1h16.2C238.7,250.4,239.6,251.9,239.6,253.8z"/>
	<path class="st19" d="M240.4,256.5v2.9c0,0.2-0.1,0.3-0.2,0.3h-21.3c-0.1,0-0.2-0.1-0.2-0.3v-2.9c0-0.2,0.1-0.3,0.2-0.3h21.3
		C240.3,256.2,240.4,256.4,240.4,256.5z"/>
	<path class="st19" d="M240.4,249v4c0,0.7-0.4,1.4-0.8,1.4c0,0,0,0,0,0h-20c0,0,0,0,0,0c-0.4,0-0.8-0.6-0.8-1.4v-4
		c0-0.8,0.4-1.4,0.8-1.4h20C240,247.6,240.4,248.2,240.4,249z"/>
	<rect x="226" y="248.8" class="st20" width="7.6" height="3.3"/>
	<path class="st21" d="M241,204.5v44.6c0,0.7-0.3,1.2-0.7,1.3c0,0,0,0-0.1,0h-21.5c0,0,0,0-0.1,0c-0.4-0.1-0.7-0.6-0.7-1.3v-44.6
		c0-0.7,0.3-1.3,0.7-1.3h21.5C240.7,203.2,241,203.8,241,204.5z"/>
	<g>
		<g>
			<rect x="218.7" y="208.8" class="st22" width="11.1" height="2.7"/>
			<rect x="229.8" y="208.8" class="st23" width="10.5" height="2.7"/>
		</g>
		<polygon class="st24" points="229.8,211 218.7,211 218.7,212.8 229.8,212.8 240.4,212.8 240.4,211 		"/>
	</g>
	<g>
		<g>
			<rect x="218.7" y="216.6" class="st22" width="11.1" height="2.7"/>
			<rect x="229.8" y="216.6" class="st23" width="10.5" height="2.7"/>
		</g>
		<polygon class="st24" points="229.8,218.9 218.7,218.9 218.7,220.6 229.8,220.6 240.4,220.6 240.4,218.9 		"/>
	</g>
	<g>
		<g>
			<rect x="218.7" y="224.4" class="st22" width="11.1" height="2.7"/>
			<rect x="229.8" y="224.4" class="st23" width="10.5" height="2.7"/>
		</g>
		<polygon class="st24" points="229.8,226.7 218.7,226.7 218.7,228.5 229.8,228.5 240.4,228.5 240.4,226.7 		"/>
	</g>
</g>
</svg>
