<?xml version="1.0" encoding="utf-8"?>
<!-- Generator: Adobe Illustrator 23.0.1, SVG Export Plug-In . SVG Version: 6.00 Build 0)  -->
<svg version="1.1" id="レイヤー_1" xmlns="http://www.w3.org/2000/svg" xmlns:xlink="http://www.w3.org/1999/xlink" x="0px"
	 y="0px" viewBox="0 0 236 259" style="enable-background:new 0 0 236 259;" xml:space="preserve">
<style type="text/css">
	.st0{fill:none;}
	.st1{fill:#886D5A;}
	.st2{fill:#808080;}
	.st3{fill:#D2F0F0;}
	.st4{clip-path:url(#SVGID_2_);}
	.st5{fill:#00813A;}
	.st6{fill:#006A20;}
	.st7{fill:#FFFFFF;}
	.st8{fill:#848F95;}
	.st9{fill:#526663;}
	.st10{fill:#738082;}
	.st11{opacity:0.12;enable-background:new    ;}
	.st12{clip-path:url(#SVGID_4_);}
	.st13{fill:#333333;}
	.st14{fill:none;stroke:#808080;stroke-width:5.5598;stroke-miterlimit:10;}
	.st15{fill:#81674A;}
	.st16{fill:#F2F8F8;}
	.st17{fill:#6E6E6E;}
	.st18{opacity:8.000000e-02;fill:#333333;enable-background:new    ;}
	.st19{fill:#F9D2A8;}
	.st20{fill:#F8C68F;}
	.st21{fill:#FFF3D9;}
</style>
<rect class="st0" width="236" height="259"/>
<g>
	<rect x="17.3" y="19" class="st0" width="218.7" height="240"/>
	<polygon class="st1" points="65.9,258.5 72.7,246.7 50.5,233.9 36.3,258.5 	"/>
	<rect x="51.5" y="214.4" transform="matrix(0.5 -0.866 0.866 0.5 -162.1539 173.5005)" class="st2" width="35.4" height="25.6"/>
	<g>
		<circle class="st3" cx="126.4" cy="128.1" r="106.3"/>
		<path class="st2" d="M126.3,237.2c-18.9,0-37.6-5-54.4-14.7c-25.2-14.6-43.3-38.1-50.8-66.2S17.4,98.7,32,73.5
			c30.1-52.1,96.9-70,149-39.9s70,96.9,39.9,149c-14.6,25.2-38.1,43.3-66.2,50.8C145.3,235.9,135.7,237.2,126.3,237.2z M126.6,24.6
			c-35.8,0-70.7,18.6-89.8,51.7c-13.8,23.9-17.5,51.8-10.3,78.5s24.3,49,48.2,62.9c23.9,13.8,51.8,17.5,78.5,10.3s49-24.3,62.9-48.2
			c28.5-49.4,11.5-112.9-37.9-141.4C161.9,29,144.2,24.6,126.6,24.6z"/>
	</g>
	<g>
		<g>
			<defs>
				<circle id="SVGID_1_" cx="126.4" cy="128.1" r="106.3"/>
			</defs>
			<clipPath id="SVGID_2_">
				<use xlink:href="#SVGID_1_"  style="overflow:visible;"/>
			</clipPath>
			<g class="st4">
				<g>
					<path class="st5" d="M99.7,224.2c-2.4,0-4.3-1.9-4.3-4.3v-12.1l6.8-8.6c1.7-2.1,1.7-5.6,0-7.7l-6.8-8.6v-12.1
						c0-2.4,1.9-4.3,4.3-4.3h48.9c2.4,0,4.3,1.9,4.3,4.3V183l0.1,0.2l6.8,8.6c1.5,1.9,1.5,5,0,6.9l-6.9,8.7l-0.1,0.2v12.3
						c0,2.4-1.9,4.3-4.3,4.3H99.7z"/>
					<g>
						<path class="st6" d="M148.7,166.7c2.2,0,4,1.8,4,4v12.2v0.2l0.2,0.2l0.1,0.1l6.8,8.6c1.4,1.7,1.4,4.7,0,6.4L153,207l-0.1,0.1
							l-0.2,0.2v0.2v12.3c0,2.2-1.8,4-4,4h-49c-2.2,0-4-1.8-4-4v-12l6.8-8.5c1.8-2.3,1.8-5.9,0-8.2l-6.8-8.5v-12c0-2.2,1.8-4,4-4
							L148.7,166.7 M148.7,166h-49c-2.6,0-4.7,2.1-4.7,4.7v12.2c0,0,0,0,0.1,0.1l6.8,8.6c1.6,2,1.6,5.3,0,7.3l-6.8,8.6
							c0,0,0,0-0.1,0.1v12.3c0,2.6,2.1,4.7,4.7,4.7h48.9c2.6,0,4.7-2.1,4.7-4.7v-12.3c0,0,0,0,0.1-0.1l6.8-8.6c1.6-2,1.6-5.3,0-7.3
							l-6.8-8.6c0,0,0,0-0.1-0.1v-12.2C153.3,168.1,151.2,166,148.7,166L148.7,166z"/>
					</g>
				</g>
				<g>
					<g>
						<g>
							<ellipse class="st7" cx="128.2" cy="195.9" rx="17.3" ry="17.2"/>
							<path class="st8" d="M140.8,183.3l-0.4,0.4L140.8,183.3c-1.1-1.1-2.4-2.1-3.8-2.8c-2.6-1.5-5.6-2.3-8.8-2.3
								c-9.8,0-17.7,7.9-17.7,17.6c0,3,0.7,5.8,2.1,8.3c0.8,1.6,1.9,3,3.1,4.2l0,0c3.2,3.2,7.6,5.2,12.5,5.2
								c9.8,0,17.7-7.9,17.7-17.6C146,190.9,144,186.5,140.8,183.3z M128.2,212.4c-4.6,0-8.8-1.9-11.9-4.9l0,0
								c-3-3-4.9-7.2-4.9-11.8c0-9.2,7.5-16.7,16.8-16.7c4.6,0,8.8,1.9,11.9,4.9l0,0c3,3,4.9,7.2,4.9,11.8
								C145,204.9,137.5,212.4,128.2,212.4z"/>
						</g>
						<path class="st9" d="M124.5,182.1c-0.2,0-0.4-0.2-0.5-0.4c0-0.1,0-0.3,0.1-0.4c0.1-0.1,0.2-0.2,0.3-0.2h0.1
							c0.2,0,0.4,0.2,0.5,0.4c0,0.1,0,0.3-0.1,0.4C124.8,182,124.7,182.1,124.5,182.1L124.5,182.1z"/>
						<path class="st9" d="M132.1,210.3c-0.2,0-0.4-0.2-0.5-0.4c0-0.1,0-0.3,0.1-0.4c0.1-0.1,0.2-0.2,0.3-0.2h0.1
							c0.2,0,0.4,0.2,0.5,0.4c0.1,0.3-0.1,0.5-0.4,0.6C132.2,210.3,132.1,210.3,132.1,210.3z"/>
						<path class="st9" d="M114.1,192.4L114.1,192.4c-0.2,0-0.3-0.1-0.4-0.2c-0.1-0.1-0.1-0.3-0.1-0.4c0.1-0.2,0.3-0.4,0.5-0.4h0.1
							c0.1,0,0.2,0.1,0.3,0.2c0.1,0.1,0.1,0.3,0.1,0.4C114.5,192.3,114.3,192.4,114.1,192.4z"/>
						<path class="st9" d="M142.5,200h-0.1c-0.3-0.1-0.4-0.3-0.4-0.6c0.1-0.2,0.3-0.4,0.5-0.4h0.1c0.1,0,0.2,0.1,0.3,0.2
							c0.1,0.1,0.1,0.3,0.1,0.4C142.9,199.8,142.7,200,142.5,200z"/>
						<path class="st9" d="M114.1,200c-0.2,0-0.4-0.2-0.5-0.4c0-0.1,0-0.3,0.1-0.4c0.1-0.1,0.2-0.2,0.3-0.2h0.1
							c0.2,0,0.4,0.2,0.5,0.4C114.7,199.7,114.5,199.9,114.1,200C114.2,200,114.1,200,114.1,200z"/>
						<path class="st9" d="M142.5,192.4c-0.2,0-0.4-0.2-0.5-0.4c0-0.1,0-0.3,0.1-0.4c0.1-0.1,0.2-0.2,0.3-0.2h0.1
							c0.2,0,0.4,0.2,0.5,0.4c0,0.1,0,0.3-0.1,0.4c-0.1,0.1-0.2,0.2-0.3,0.2H142.5z"/>
						<path class="st9" d="M124.5,210.3L124.5,210.3c-0.4-0.1-0.5-0.3-0.5-0.6c0.1-0.2,0.3-0.4,0.5-0.4h0.1c0.1,0,0.2,0.1,0.3,0.2
							c0.1,0.1,0.1,0.3,0.1,0.4C124.9,210.1,124.7,210.3,124.5,210.3z"/>
						<path class="st9" d="M132.1,182.1H132c-0.1,0-0.2-0.1-0.3-0.2c-0.1-0.1-0.1-0.3-0.1-0.4c0.1-0.2,0.3-0.4,0.5-0.4h0.1
							c0.1,0,0.2,0.1,0.3,0.2c0.1,0.1,0.1,0.3,0.1,0.4C132.5,182,132.3,182.1,132.1,182.1z"/>
						<path class="st9" d="M120.9,183.6c-0.2,0-0.3-0.1-0.4-0.3c-0.1-0.1-0.1-0.3-0.1-0.4c0-0.1,0.1-0.2,0.2-0.3
							c0.1,0,0.2-0.1,0.3-0.1c0.2,0,0.3,0.1,0.4,0.3c0.1,0.1,0.1,0.3,0.1,0.4c0,0.1-0.1,0.2-0.2,0.3
							C121.1,183.5,121,183.6,120.9,183.6z"/>
						<path class="st9" d="M135.6,208.8c-0.2,0-0.3-0.1-0.4-0.3c-0.1-0.2-0.1-0.5,0.2-0.7c0.1,0,0.2-0.1,0.3-0.1
							c0.2,0,0.3,0.1,0.4,0.3c0.1,0.1,0.1,0.3,0.1,0.4c0,0.1-0.1,0.2-0.2,0.3C135.8,208.8,135.7,208.8,135.6,208.8z"/>
						<path class="st9" d="M115.6,188.9c-0.1,0-0.2,0-0.3-0.1c-0.1-0.1-0.2-0.2-0.2-0.3s0-0.3,0.1-0.4c0.1-0.2,0.3-0.3,0.4-0.3
							s0.2,0,0.3,0.1c0.1,0.1,0.2,0.2,0.2,0.3s0,0.3-0.1,0.4C115.9,188.8,115.7,188.9,115.6,188.9z"/>
						<path class="st9" d="M141,203.5c-0.1,0-0.2,0-0.3-0.1c-0.2-0.1-0.3-0.4-0.2-0.7c0.1-0.2,0.3-0.3,0.4-0.3c0.1,0,0.2,0,0.3,0.1
							s0.2,0.2,0.2,0.3s0,0.3-0.1,0.4C141.4,203.4,141.2,203.5,141,203.5z"/>
						<path class="st9" d="M115.6,203.5c-0.2,0-0.3-0.1-0.4-0.3s-0.1-0.5,0.2-0.7c0.1,0,0.2-0.1,0.3-0.1c0.2,0,0.3,0.1,0.4,0.3
							c0.1,0.1,0.1,0.3,0.1,0.4c0,0.1-0.1,0.2-0.2,0.3C115.7,203.5,115.6,203.5,115.6,203.5z"/>
						<path class="st9" d="M141,188.9c-0.2,0-0.3-0.1-0.4-0.3c-0.1-0.2-0.1-0.5,0.2-0.7c0.1,0,0.2-0.1,0.3-0.1
							c0.2,0,0.3,0.1,0.4,0.3c0.1,0.1,0.1,0.3,0.1,0.4c0,0.1-0.1,0.2-0.2,0.3C141.2,188.9,141.1,188.9,141,188.9z"/>
						<path class="st9" d="M120.9,208.8c-0.1,0-0.2,0-0.3-0.1c-0.1-0.1-0.2-0.2-0.2-0.3s0-0.3,0.1-0.4c0.1-0.2,0.3-0.3,0.4-0.3
							s0.2,0,0.3,0.1c0.1,0.1,0.2,0.2,0.2,0.3s0,0.3-0.1,0.4C121.3,208.7,121.1,208.8,120.9,208.8z"/>
						<path class="st9" d="M135.6,183.6c-0.1,0-0.2,0-0.3-0.1s-0.2-0.2-0.2-0.3s0-0.3,0.1-0.4c0.1-0.2,0.3-0.3,0.4-0.3
							c0.1,0,0.2,0,0.3,0.1s0.2,0.2,0.2,0.3s0,0.3-0.1,0.4C136,183.5,135.8,183.6,135.6,183.6z"/>
						<rect x="127.8" y="180.6" class="st9" width="1" height="3.6"/>
						<rect x="127.8" y="207.2" class="st9" width="1" height="3.6"/>
						<polygon class="st9" points="117.2,185.4 117.9,184.7 120.4,187.2 119.7,187.9 						"/>
						<polygon class="st9" points="136.1,204.2 136.8,203.5 139.4,206 138.7,206.7 						"/>
						<polygon class="st9" points="117.2,206 119.7,203.5 120.4,204.2 117.9,206.7 						"/>
						<polygon class="st9" points="136.1,187.2 138.7,184.7 139.4,185.4 136.8,187.9 						"/>
						<rect x="113.1" y="195.2" class="st9" width="3.6" height="1"/>
						<rect x="139.9" y="195.2" class="st9" width="3.6" height="1"/>
						<g>
							<ellipse class="st8" cx="138.5" cy="178.8" rx="2.6" ry="2.6"/>
							<path class="st8" d="M131.5,178.4h-6.7c-0.8,0-1.4-0.7-1.4-1.4v-1c0-0.8,0.7-1.4,1.4-1.4h6.7c0.8,0,1.4,0.7,1.4,1.4v1
								C133,177.7,132.3,178.4,131.5,178.4z"/>
						</g>
						<rect x="126.4" y="176.2" class="st10" width="3.6" height="1.9"/>
						<path class="st11" d="M140.8,183.3l-0.4,0.4L140.8,183.3c-0.7-0.7-1.6-1.4-2.4-2h0.1c1.4,0,2.6-1.2,2.6-2.6
							c0-1.4-1.2-2.6-2.6-2.6s-2.6,1.2-2.6,2.6c0,0.5,0.1,0.9,0.4,1.3c-1.6-0.8-3.3-1.4-5.1-1.7h0.4c0.8,0,1.5-0.6,1.5-1.4v-1
							c0-0.8-0.7-1.4-1.5-1.4h-3.3v38.8c9.8,0,17.7-7.9,17.7-17.6C146,190.9,144,186.5,140.8,183.3z"/>
					</g>
					<g>
						<ellipse class="st9" cx="128.2" cy="195.6" rx="1.1" ry="1.1"/>
						<polygon class="st9" points="128.3,181.4 127.5,195.9 129,195.9 						"/>
						<polygon class="st9" points="128.8,198.8 127.7,198.8 127.7,195.5 128.9,195.5 						"/>
					</g>
				</g>
				<g>
					<path class="st5" d="M119.7,172.2c-5.2,0-9.5-4.3-9.5-9.5v-0.6c0-5.2,4.3-9.5,9.5-9.5h17c5.2,0,9.5,4.3,9.5,9.5v0.6
						c0,5.2-4.3,9.5-9.5,9.5H119.7z"/>
					<g>
						<path class="st6" d="M136.7,153c5,0,9.1,4.1,9.1,9.1v0.6c0,5-4.1,9.1-9.1,9.1h-17c-5,0-9.1-4.1-9.1-9.1v-0.6
							c0-5,4.1-9.1,9.1-9.1H136.7 M136.7,152.3h-17c-5.4,0-9.8,4.4-9.8,9.8v0.6c0,5.4,4.4,9.8,9.8,9.8h17c5.4,0,9.8-4.4,9.8-9.8
							v-0.6C146.6,156.7,142.1,152.3,136.7,152.3L136.7,152.3z"/>
					</g>
				</g>
				<g>
					<path class="st7" d="M125.7,160c0.1-0.5,0.4-0.9,0.6-1.2c0.3-0.4,0.7-0.6,1.1-0.8s0.9-0.3,1.5-0.3c0.4,0,0.8,0.1,1.2,0.2
						c0.4,0.1,0.7,0.3,1,0.6s0.5,0.6,0.7,0.9c0.2,0.4,0.3,0.8,0.3,1.3s-0.1,0.9-0.2,1.2c-0.2,0.3-0.4,0.7-0.6,0.9
						c-0.3,0.3-0.5,0.5-0.9,0.7c-0.3,0.2-0.6,0.4-1,0.6c-0.3,0.2-0.6,0.4-0.9,0.7c-0.3,0.2-0.6,0.5-0.8,0.9h4.5v1.7h-7
						c0-0.6,0.1-1,0.2-1.4s0.4-0.8,0.6-1.1c0.3-0.3,0.6-0.6,1-0.9c0.4-0.3,0.8-0.6,1.2-0.8c0.2-0.1,0.4-0.3,0.7-0.4
						c0.2-0.2,0.4-0.3,0.6-0.5c0.2-0.2,0.4-0.4,0.5-0.6c0.1-0.2,0.2-0.5,0.2-0.8c0-0.5-0.1-0.8-0.4-1.1c-0.3-0.3-0.6-0.4-1-0.4
						c-0.3,0-0.5,0.1-0.7,0.2c-0.2,0.1-0.3,0.3-0.5,0.5c-0.1,0.2-0.2,0.5-0.3,0.7c0,0.3-0.1,0.5-0.1,0.8h-1.8
						C125.5,161,125.5,160.5,125.7,160z"/>
				</g>
			</g>
		</g>
		<g>
			<defs>
				<circle id="SVGID_3_" cx="126.4" cy="128.1" r="106.3"/>
			</defs>
			<clipPath id="SVGID_4_">
				<use xlink:href="#SVGID_3_"  style="overflow:visible;"/>
			</clipPath>
			<g class="st12">
				<g>
					<path class="st5" d="M214.2-102.2H42c-3.6,0-6.6,3-6.6,6.6v232c0,3.6,3,6.6,6.6,6.6h78.7l7.4,8.3l7.4-8.3h78.7
						c3.6,0,6.6-3,6.6-6.6v-232C220.7-99.2,217.8-102.2,214.2-102.2z"/>
				</g>
				<g>
					<g>
						<path class="st7" d="M69.5,15.5C56,15.5,45.1,4.5,45.1-9s11-24.5,24.5-24.5S94-22.5,94-9S83,15.5,69.5,15.5z"/>
						<path class="st5" d="M69.5-32.9c13.2,0,24,10.7,24,24s-10.7,24-24,24s-24-10.7-24-24S56.3-32.9,69.5-32.9 M69.5-34
							c-13.8,0-25,11.2-25,25s11.2,25,25,25s25-11.2,25-25S83.3-34,69.5-34L69.5-34z"/>
					</g>
					<g>
						<path class="st7" d="M69.5,74.7C56,74.7,45,63.7,45,50.2s11-24.5,24.5-24.5S94,36.8,94,50.2S83,74.7,69.5,74.7z"/>
						<path class="st5" d="M69.5,26.3c13.2,0,24,10.7,24,24s-10.7,24-24,24s-24-10.7-24-24S56.3,26.3,69.5,26.3 M69.5,25.3
							c-13.8,0-25,11.2-25,25s11.2,25,25,25s25-11.2,25-25C94.5,36.4,83.3,25.3,69.5,25.3L69.5,25.3z"/>
					</g>
					<g>
						<path class="st7" d="M69.5,134C56,134,45,123,45,109.5S56,85,69.5,85S94,96,94,109.5S83,134,69.5,134z"/>
						<path class="st5" d="M69.5,85.5c13.2,0,24,10.7,24,24s-10.7,24-24,24s-24-10.7-24-24S56.3,85.5,69.5,85.5 M69.5,84.5
							c-13.8,0-25,11.2-25,25s11.2,25,25,25s25-11.2,25-25S83.3,84.5,69.5,84.5L69.5,84.5z"/>
					</g>
				</g>
				<g>
					<g>
						<path class="st7" d="M128.1,15.5c-13.5,0-24.5-11-24.5-24.5s11-24.5,24.5-24.5s24.5,11,24.5,24.5S141.6,15.5,128.1,15.5z"/>
						<path class="st5" d="M128.1-32.9c13.2,0,24,10.7,24,24s-10.7,24-24,24s-24-10.7-24-24S114.9-32.9,128.1-32.9 M128.1-34
							c-13.8,0-25,11.2-25,25s11.2,25,25,25s25-11.2,25-25S141.9-34,128.1-34L128.1-34z"/>
					</g>
					<g>
						<path class="st7" d="M128.1,74.7c-13.5,0-24.5-11-24.5-24.5s11-24.5,24.5-24.5s24.5,11,24.5,24.5S141.6,74.7,128.1,74.7z"/>
						<path class="st5" d="M128.1,26.3c13.2,0,24,10.7,24,24s-10.7,24-24,24s-24-10.7-24-24S114.9,26.3,128.1,26.3 M128.1,25.3
							c-13.8,0-25,11.2-25,25s11.2,25,25,25s25-11.2,25-25C153.1,36.4,141.9,25.3,128.1,25.3L128.1,25.3z"/>
					</g>
					<g>
						<path class="st7" d="M128.1,134c-13.5,0-24.5-11-24.5-24.5s11-24.5,24.5-24.5s24.5,11,24.5,24.5S141.6,134,128.1,134z"/>
						<path class="st5" d="M128.1,85.5c13.2,0,24,10.7,24,24s-10.7,24-24,24s-24-10.7-24-24S114.9,85.5,128.1,85.5 M128.1,84.5
							c-13.8,0-25,11.2-25,25s11.2,25,25,25s25-11.2,25-25S141.9,84.5,128.1,84.5L128.1,84.5z"/>
					</g>
				</g>
				<g>
					<g>
						<path class="st7" d="M186.6,15.5c-13.5,0-24.5-11-24.5-24.5s11-24.5,24.5-24.5s24.5,11,24.5,24.5S200.1,15.5,186.6,15.5z"/>
						<path class="st5" d="M186.6-32.9c13.2,0,24,10.7,24,24s-10.7,24-24,24s-24-10.7-24-24S173.4-32.9,186.6-32.9 M186.6-34
							c-13.8,0-25,11.2-25,25s11.2,25,25,25s25-11.2,25-25S200.4-34,186.6-34L186.6-34z"/>
					</g>
					<g>
						<circle class="st7" cx="186.6" cy="50.2" r="24.5"/>
						<path class="st5" d="M186.6,26.3c13.2,0,24,10.7,24,24s-10.7,24-24,24s-24-10.7-24-24S173.4,26.3,186.6,26.3 M186.6,25.3
							c-13.8,0-25,11.2-25,25s11.2,25,25,25s25-11.2,25-25C211.6,36.4,200.4,25.3,186.6,25.3L186.6,25.3z"/>
					</g>
					<g>
						<path class="st7" d="M186.6,134c-13.5,0-24.5-11-24.5-24.5s11-24.5,24.5-24.5s24.5,11,24.5,24.5S200.1,134,186.6,134z"/>
						<path class="st5" d="M186.6,85.5c13.2,0,24,10.7,24,24s-10.7,24-24,24s-24-10.7-24-24S173.4,85.5,186.6,85.5 M186.6,84.5
							c-13.8,0-25,11.2-25,25s11.2,25,25,25s25-11.2,25-25S200.4,84.5,186.6,84.5L186.6,84.5z"/>
					</g>
				</g>
				<g>
					<path class="st13" d="M125.2,106.1c0.2-0.7,0.5-1.2,0.8-1.7c0.3-0.4,0.7-0.7,1.2-0.9c0.5-0.2,0.9-0.3,1.5-0.3
						c0.5,0,1,0.1,1.5,0.3c0.5,0.2,0.9,0.5,1.2,0.9s0.6,1,0.8,1.7s0.3,1.5,0.3,2.6c0,1-0.1,1.9-0.3,2.6s-0.5,1.3-0.8,1.7
						c-0.4,0.4-0.8,0.7-1.2,0.9c-0.5,0.2-1,0.3-1.5,0.3s-1-0.1-1.5-0.3c-0.5-0.2-0.9-0.5-1.2-0.9s-0.6-1-0.8-1.7
						c-0.2-0.7-0.3-1.6-0.3-2.6C124.9,107.7,125,106.8,125.2,106.1z M127,109.8c0,0.4,0.1,0.8,0.2,1.2c0.1,0.4,0.3,0.7,0.5,1
						s0.6,0.4,1,0.4s0.8-0.1,1-0.4s0.4-0.6,0.5-1s0.2-0.8,0.2-1.2c0-0.4,0-0.8,0-1.1c0-0.2,0-0.4,0-0.6c0-0.3,0-0.5-0.1-0.8
						c0-0.3-0.1-0.5-0.1-0.8c-0.1-0.3-0.2-0.5-0.3-0.7s-0.3-0.4-0.5-0.5s-0.4-0.2-0.7-0.2s-0.5,0.1-0.7,0.2s-0.4,0.3-0.5,0.5
						s-0.2,0.4-0.3,0.7c-0.1,0.3-0.1,0.5-0.1,0.8s0,0.5-0.1,0.8c0,0.3,0,0.5,0,0.6C127,109,127,109.4,127,109.8z"/>
				</g>
				<g>
					<path class="st13" d="M70.7,111.3v2.3h-2.3v-2.3H70.7z"/>
				</g>
				<g>
					<path class="st13" d="M125.3,47.3c0.2-0.5,0.4-1,0.7-1.3c0.3-0.4,0.7-0.7,1.2-0.9s1-0.3,1.7-0.3c0.5,0,0.9,0.1,1.4,0.2
						c0.4,0.1,0.8,0.4,1.1,0.6s0.6,0.6,0.8,1s0.3,0.9,0.3,1.4s-0.1,1-0.3,1.4s-0.4,0.7-0.7,1s-0.6,0.6-0.9,0.8s-0.7,0.5-1.1,0.7
						c-0.4,0.2-0.7,0.5-1,0.8s-0.6,0.6-0.9,0.9h4.9v1.8h-7.6c0-0.6,0.1-1.1,0.3-1.6c0.2-0.4,0.4-0.8,0.7-1.2c0.3-0.4,0.6-0.7,1-1
						s0.8-0.6,1.3-0.9c0.2-0.2,0.5-0.3,0.7-0.5c0.3-0.2,0.5-0.3,0.7-0.5s0.4-0.4,0.5-0.7c0.1-0.2,0.2-0.5,0.2-0.9
						c0-0.5-0.1-0.9-0.4-1.2c-0.3-0.3-0.7-0.4-1.1-0.4c-0.3,0-0.6,0.1-0.8,0.2c-0.2,0.1-0.4,0.3-0.5,0.6c-0.1,0.2-0.2,0.5-0.3,0.8
						c-0.1,0.3-0.1,0.6-0.1,0.8h-2C125.1,48.3,125.2,47.8,125.3,47.3z"/>
				</g>
				<g>
					<path class="st13" d="M187.3,49.2c0.3,0,0.5-0.1,0.7-0.2c0.2-0.1,0.4-0.2,0.5-0.4s0.2-0.4,0.2-0.7c0-0.4-0.1-0.8-0.4-1
						c-0.3-0.2-0.6-0.4-1-0.4c-0.5,0-0.9,0.2-1.2,0.5c-0.3,0.4-0.4,0.8-0.4,1.3h-2c0-0.5,0.1-1,0.3-1.5c0.2-0.4,0.4-0.8,0.7-1.1
						s0.7-0.6,1.1-0.7c0.4-0.2,0.9-0.3,1.5-0.3c0.4,0,0.8,0.1,1.2,0.2c0.4,0.1,0.8,0.3,1.1,0.6c0.3,0.2,0.6,0.6,0.8,0.9
						c0.2,0.4,0.3,0.8,0.3,1.2c0,0.5-0.1,1-0.4,1.3c-0.2,0.4-0.6,0.7-1.1,0.8l0,0c0.6,0.1,1,0.4,1.3,0.8s0.5,0.9,0.5,1.5
						c0,0.5-0.1,1-0.3,1.5c-0.2,0.4-0.5,0.8-0.9,1.1s-0.8,0.5-1.2,0.7c-0.5,0.1-0.9,0.2-1.5,0.2s-1.1-0.1-1.6-0.3s-0.9-0.4-1.2-0.7
						s-0.6-0.7-0.8-1.2s-0.3-1-0.3-1.6h2c0,0.3,0.1,0.5,0.1,0.8c0.1,0.3,0.2,0.5,0.3,0.7s0.3,0.3,0.6,0.4c0.2,0.1,0.5,0.2,0.8,0.2
						c0.5,0,0.9-0.1,1.2-0.4c0.3-0.3,0.5-0.7,0.5-1.2c0-0.4-0.1-0.7-0.2-0.9c-0.2-0.2-0.3-0.4-0.6-0.5s-0.5-0.1-0.8-0.2
						c-0.3,0-0.6,0-0.8,0v-1.5C186.8,49.2,187,49.2,187.3,49.2z"/>
				</g>
				<g>
					<path class="st13" d="M68.6,55.4v-6.8H66V47c0.4,0,0.7,0,1.1-0.1c0.3-0.1,0.6-0.2,0.9-0.3c0.3-0.2,0.5-0.4,0.7-0.6
						c0.2-0.3,0.3-0.6,0.4-1h1.7v10.5h-2.2V55.4z"/>
				</g>
				<g>
					<path class="st13" d="M200.4,102.1c0-0.6-0.5-1.1-1.1-1.1h-18.9c-0.6,0-1.1,0-1.1,0s-0.3,0.4-0.6,0.8l-5.3,6.9
						c-0.4,0.5-0.4,1.2,0,1.7l5.3,6.9c0.4,0.5,0.6,0.8,0.6,0.8l0,0c0,0,0.5,0,1.1,0h18.9c0.6,0,1.1-0.5,1.1-1.1V102.1z"/>
				</g>
				<g>
					<g>
						<g>
							<path class="st7" d="M188.4,109.2c0.1,0.1,0.3,0.1,0.4,0.1s0.3,0,0.4-0.1c-0.1,0.3-0.1,0.6,0,0.9c-0.1-0.1-0.3-0.1-0.4-0.1
								s-0.3,0-0.4,0.1C188.6,109.8,188.6,109.5,188.4,109.2 M192,105.6c-0.1,0-0.2,0-0.3,0.1l-2.5,2.6c-0.1,0.1-0.2,0.1-0.3,0.1
								s-0.2,0-0.3-0.1l-2.5-2.6c-0.1-0.1-0.2-0.1-0.3-0.1s-0.2,0-0.3,0.1l-0.5,0.5c-0.2,0.2-0.2,0.4,0,0.6l2.5,2.6
								c0.2,0.2,0.2,0.4,0,0.6l-2.5,2.6c-0.2,0.2-0.2,0.4,0,0.6l0.5,0.5c0.1,0.1,0.2,0.1,0.3,0.1s0.2,0,0.3-0.1l2.5-2.6
								c0.1-0.1,0.2-0.1,0.3-0.1s0.2,0,0.3,0.1l2.5,2.6c0.1,0.1,0.2,0.1,0.3,0.1s0.2,0,0.3-0.1l0.5-0.5c0.2-0.2,0.2-0.4,0-0.6
								l-2.5-2.6c-0.2-0.2-0.2-0.4,0-0.6l2.5-2.6c0.2-0.2,0.2-0.4,0-0.6l-0.5-0.5C192.3,105.6,192.1,105.6,192,105.6L192,105.6z"/>
						</g>
					</g>
				</g>
			</g>
		</g>
		<g>
			<circle id="SVGID_5_" class="st14" cx="126.4" cy="128.1" r="106.3"/>
		</g>
	</g>
	<path class="st15" d="M69,248.6l-18.2-10.5c-2.5-1.4-3.4-4.7-1.9-7.2l0,0c1.4-2.5,4.7-3.4,7.2-1.9l18.2,10.5
		c2.5,1.4,3.4,4.7,1.9,7.2l0,0C74.7,249.2,71.5,250.1,69,248.6z"/>
	<circle class="st16" cx="39.5" cy="165.2" r="4.1"/>
	<path class="st16" d="M52.3,189.4c-1,0-1.9-0.4-2.6-1.2c-3-3.8-5.8-7.8-8.4-11.9c-1-1.5-0.5-3.5,1-4.5s3.5-0.5,4.5,1
		c2.5,3.9,5.2,7.7,8,11.3c1.1,1.4,0.9,3.4-0.5,4.6C53.7,189.2,53,189.4,52.3,189.4z"/>
	<path class="st17" d="M126.3,236.1c-18.7,0-37.2-4.9-53.8-14.5c-25-14.4-42.9-37.7-50.3-65.6S18.6,99,33,74
		c29.8-51.6,96-69.3,147.6-39.5c25,14.4,42.9,37.7,50.3,65.6c7.5,27.9,3.6,57-10.8,82l-0.4-0.2l0.4,0.2
		c-14.4,25-37.7,42.9-65.6,50.3C145.1,234.9,135.6,236.1,126.3,236.1z M126.6,21c-37,0-73.1,19.2-92.9,53.5
		C19.4,99.3,15.6,128.1,23,155.8c7.4,27.6,25.1,50.7,49.9,65s53.6,18.1,81.3,10.7c27.6-7.4,50.7-25.1,65-49.9s18.1-53.6,10.7-81.3
		c-7.4-27.6-25.1-50.7-49.9-65C163.2,25.6,144.8,21,126.6,21z"/>
	<path class="st18" d="M181.4,33.8l-2.8,4.8c49.2,28.7,66,91.8,37.5,141.1c-28.5,49.4-91.5,66.4-141,38.1l-23.4,40.6H66l5.3-9.2
		c1.9,0.1,3.9-0.8,4.9-2.6s0.9-3.9-0.2-5.5l7.4-12.9c13.9,6,28.4,8.8,42.9,8.8c37.7,0,74.5-19.6,94.6-54.5
		C250.9,130.6,233.1,64,181.4,33.8z"/>
	<g>
		<g>
			<path class="st19" d="M191.5,217.5c0.9-2,0.8-4.3,0.5-5.9l-6.7-24.8c-0.2-0.5-0.5-1.1-0.8-1.5l-2.8-6.3c-0.6-1.4-2.4-2.1-3.9-1.5
				l-0.2,0.1c-0.7,0.3-1.1,0.8-1.4,1.4l-0.1-0.3c-0.5-1.5-2.2-2.3-3.7-1.7l-0.4,0.2c-1,0.3-1.6,1.2-1.8,2.1l-0.3-0.9
				c-0.6-1.6-2.4-2.4-4-1.9l-0.8,0.3c-1.6,0.6-2.4,2.4-1.9,4l1.7,4.6l0,0l-2.3-6.2c-0.7-2-2.9-3-4.9-2.3l-1.9,0.7
				c-1.3,0.5-2.2,1.6-2.4,2.9l-7.4-20.3c-1-2.7-4-4.2-6.8-3.2l0,0c-2.7,1-4.2,4-3.2,6.8l12.8,35.2c0.1,0.2,0.1,0.3,0.2,0.5
				c0,0.2,0.1,0.3,0.1,0.5l2.7,7.4c-4.3-2.6-9.1-4.8-13.4-3.8c-3,0.7-8.3,2.7-6.1,6.3c3.1,5.1,12.5,6.4,17.2,9.3
				c3.5,2.2,6.3,5.1,10.1,7c0.1,0,0.2,0.1,0.3,0.1c1.3,1.1,2.9,1.7,4.7,1.9l3.7,11.3l0.1,0.2l27.7-10.1l0.2-0.1L191.5,217.5z"/>
			<path class="st20" d="M168.3,240.1l-3.8-11.6c-1.8-0.2-3.4-0.9-4.7-2l-0.3-0.1c-2.3-1.1-4.2-2.6-6.1-4c-1.3-1-2.6-2-4.1-2.9
				c-1.6-1-3.8-1.8-6.2-2.7c-4.2-1.5-9-3.3-11.1-6.7c-0.6-1-0.7-2-0.3-2.9c1-2.3,4.9-3.5,6.6-3.8c4.5-1,9.4,1.3,13,3.4L149,200
				c0-0.1-0.1-0.2-0.1-0.4v-0.1c-0.1-0.1-0.1-0.3-0.2-0.5l-12.8-35.2c-0.5-1.4-0.4-2.9,0.2-4.3c0.6-1.4,1.7-2.4,3.1-2.9
				c2.9-1,6.1,0.4,7.1,3.3l7.1,19.5c0.4-1.1,1.3-1.9,2.4-2.3l1.9-0.7c2.1-0.8,4.4,0.3,5.2,2.4c0.1-0.2,0.1-0.4,0.2-0.7
				c0.4-0.8,1.1-1.4,1.9-1.8l0.8-0.3c0.8-0.3,1.8-0.3,2.6,0.1c0.8,0.4,1.4,1.1,1.8,1.9l0.1,0.1c0.4-0.7,1-1.3,1.7-1.5l0.4-0.2
				c1.6-0.6,3.3,0.2,3.9,1.7c0.3-0.4,0.8-0.8,1.3-1l0.2-0.1c1.6-0.7,3.5,0,4.2,1.6l2.8,6.3c0.3,0.5,0.6,1,0.8,1.5l6.7,24.8
				c0.3,1.3,0.5,3.7-0.4,6l5,12.2l-0.5,0.2L168.3,240.1z M140.8,203.6c-0.7,0-1.5,0.1-2.2,0.2c-1.2,0.3-5.3,1.4-6.2,3.5
				c-0.3,0.7-0.2,1.5,0.3,2.4c1.9,3.2,6.4,4.9,10.8,6.5c2.4,0.9,4.6,1.7,6.3,2.7c1.5,0.9,2.8,2,4.1,3c1.9,1.5,3.7,2.9,6,4l0.3,0.1
				c1.3,1.1,2.9,1.7,4.6,1.9h0.2l3.7,11.4l27.4-10l-4.9-11.9v-0.1c0.9-2.1,0.7-4.5,0.4-5.7l-6.7-24.7c-0.2-0.5-0.4-1-0.7-1.4
				l-2.8-6.4c-0.6-1.3-2.1-1.9-3.5-1.3l-0.2,0.1c-0.6,0.2-1,0.7-1.3,1.2l-0.3,0.6l-0.3-0.9c-0.5-1.3-2-2-3.3-1.5l-0.4,0.2
				c-0.8,0.3-1.4,1-1.6,1.9l-0.2,0.9l-0.6-1.8c-0.3-0.7-0.8-1.3-1.5-1.6s-1.5-0.4-2.2-0.1l-0.8,0.3c-0.7,0.3-1.3,0.8-1.6,1.5
				s-0.4,1.5-0.1,2.2l1.7,4.6l-0.5,0.2l-2.3-6.2c-0.3-0.9-1-1.6-1.8-2c-0.9-0.4-1.8-0.4-2.7-0.1L156,178c-1.2,0.4-2,1.4-2.3,2.7
				l-0.2,1l-7.7-21.2c-0.5-1.3-1.4-2.3-2.6-2.8c-1.2-0.6-2.6-0.6-3.8-0.2c-1.3,0.5-2.3,1.4-2.8,2.6c-0.6,1.2-0.6,2.6-0.2,3.8
				l12.8,35.2c0.1,0.2,0.1,0.3,0.2,0.5l0.1,0.2c0,0.1,0.1,0.2,0.1,0.3l3,8.2l-0.7-0.4C148.9,205.8,144.8,203.6,140.8,203.6z"/>
		</g>
		<path class="st21" d="M145,162.7c0.1-0.6,0-1.2-0.2-1.8l-0.4-1c-0.7-1.9-2.9-2.9-4.8-2.2l0,0c-2,0.7-3,2.9-2.3,4.8l0.4,1
			c0.2,0.6,0.6,1.1,1,1.5L145,162.7z"/>
		<path class="st21" d="M134.8,206.7c1.7,0.7,3.3,1.3,5,2c-0.2,1.7-1.7,2.9-3.1,4c-0.3,0.2-2.1-1.2-2.4-1.4
			c-0.8-0.7-1.3-1.4-1.8-2.3C131.6,207.3,132.9,206,134.8,206.7z"/>
	</g>
</g>
</svg>
