<?xml version="1.0" encoding="utf-8"?>
<!-- Generator: Adobe Illustrator 23.0.1, SVG Export Plug-In . SVG Version: 6.00 Build 0)  -->
<svg version="1.1" id="レイヤー_1" xmlns="http://www.w3.org/2000/svg" xmlns:xlink="http://www.w3.org/1999/xlink" x="0px"
	 y="0px" viewBox="0 0 846 404" style="enable-background:new 0 0 846 404;" xml:space="preserve">
<style type="text/css">
	.st0{opacity:0.16;fill:url(#SVGID_1_);enable-background:new    ;}
	.st1{opacity:0.2;fill:url(#SVGID_2_);enable-background:new    ;}
	.st2{opacity:0.16;fill:url(#SVGID_3_);enable-background:new    ;}
	.st3{opacity:0.2;fill:url(#SVGID_4_);enable-background:new    ;}
	.st4{fill:url(#SVGID_5_);}
	.st5{fill:#808080;}
	.st6{fill:#CCCCCC;}
	.st7{opacity:0.1;fill:#4D4D4D;enable-background:new    ;}
	.st8{fill:#4D4D4D;}
	.st9{fill:#C3403D;}
	.st10{opacity:0.2;fill:#333333;enable-background:new    ;}
	.st11{fill:#007490;}
	.st12{fill:#107D97;}
	.st13{fill:#2887A1;}
	.st14{fill:#B0B0B0;}
	.st15{fill:#969696;}
	.st16{fill:#C9C9C9;}
	.st17{fill:#B1B1B1;}
	.st18{fill:#E3E3E3;}
	.st19{fill:#333333;}
	.st20{fill:#BEC156;}
	.st21{fill:#B5B93E;}
	.st22{fill:#A08F73;}
	.st23{fill:#666666;}
	.st24{fill:none;stroke:#E3E3E3;stroke-width:0.6299;stroke-miterlimit:10;}
	.st25{fill:none;stroke:#E3E3E3;stroke-width:0.7426;stroke-miterlimit:10;}
	.st26{fill:#AAAE80;}
	.st27{fill:none;stroke:#E3E3E3;stroke-width:0.6299;stroke-linecap:round;stroke-miterlimit:10;}
	.st28{fill:#969696;stroke:#969696;stroke-width:6.017383e-02;stroke-linecap:round;stroke-linejoin:round;stroke-miterlimit:10;}
	.st29{fill:#969696;stroke:#969696;stroke-width:4.298619e-02;stroke-linecap:round;stroke-linejoin:round;stroke-miterlimit:10;}
	.st30{fill:#C0C0C0;}
	.st31{opacity:0.5;fill:#333333;enable-background:new    ;}
	.st32{fill:none;stroke:#B0B0B0;stroke-width:0.8407;stroke-miterlimit:10;}
	.st33{fill:url(#SVGID_6_);}
	.st34{fill:#FFFFFF;}
	.st35{fill:url(#SVGID_7_);}
	.st36{clip-path:url(#SVGID_9_);fill:#333333;}
	.st37{fill:url(#SVGID_11_);}
	.st38{fill:url(#SVGID_12_);}
	.st39{fill:url(#SVGID_13_);}
	.st40{fill:url(#SVGID_14_);}
	.st41{fill:url(#SVGID_15_);}
	.st42{fill:url(#SVGID_16_);}
	.st43{opacity:0.4;}
	.st44{fill:url(#SVGID_17_);}
	.st45{opacity:8.000000e-02;clip-path:url(#SVGID_19_);fill:#666666;enable-background:new    ;}
	.st46{fill:#848484;}
	.st47{fill:url(#SVGID_20_);}
	.st48{fill:url(#SVGID_21_);}
	.st49{fill:#D9D9D9;}
	.st50{fill:#3C3C3C;}
	.st51{opacity:0.3;fill:#E3E3E3;enable-background:new    ;}
	.st52{opacity:0.12;clip-path:url(#SVGID_23_);fill:#4D4D4D;enable-background:new    ;}
	.st53{opacity:0.12;clip-path:url(#SVGID_25_);fill:#4D4D4D;enable-background:new    ;}
	.st54{opacity:0.14;fill:#4D4D4D;enable-background:new    ;}
	.st55{fill:#A1A1A1;}
</style>
<g>
	
		<radialGradient id="SVGID_1_" cx="421.5" cy="301.5" r="99.5" gradientTransform="matrix(1 0 0 -1 0 404)" gradientUnits="userSpaceOnUse">
		<stop  offset="0" style="stop-color:#F3F3F6"/>
		<stop  offset="0.7495" style="stop-color:#F3F3F6"/>
		<stop  offset="0.8728" style="stop-color:#F3F3F6"/>
		<stop  offset="1" style="stop-color:#F3F3F6;stop-opacity:0"/>
	</radialGradient>
	<circle class="st0" cx="421.5" cy="102.5" r="99.5"/>
	
		<radialGradient id="SVGID_2_" cx="421.5" cy="301.5" r="67.7" gradientTransform="matrix(1 0 0 -1 0 404)" gradientUnits="userSpaceOnUse">
		<stop  offset="0" style="stop-color:#F3F3F6"/>
		<stop  offset="0.6011" style="stop-color:#F3F3F6;stop-opacity:0.8283"/>
		<stop  offset="0.7" style="stop-color:#F3F3F6;stop-opacity:0.8"/>
		<stop  offset="1" style="stop-color:#F3F3F6;stop-opacity:0.4"/>
	</radialGradient>
	<circle class="st1" cx="421.5" cy="102.5" r="67.7"/>
</g>
<g>
	
		<radialGradient id="SVGID_3_" cx="578.7" cy="152.7627" r="9.0187" gradientTransform="matrix(1 0 0 -1 0 404)" gradientUnits="userSpaceOnUse">
		<stop  offset="0" style="stop-color:#F3F3F6"/>
		<stop  offset="0.7495" style="stop-color:#F3F3F6"/>
		<stop  offset="0.8728" style="stop-color:#F3F3F6"/>
		<stop  offset="1" style="stop-color:#F3F3F6;stop-opacity:0"/>
	</radialGradient>
	<circle class="st2" cx="578.7" cy="251.2" r="9"/>
	
		<radialGradient id="SVGID_4_" cx="578.7" cy="152.7627" r="6.1354" gradientTransform="matrix(1 0 0 -1 0 404)" gradientUnits="userSpaceOnUse">
		<stop  offset="0" style="stop-color:#F3F3F6"/>
		<stop  offset="0.6011" style="stop-color:#F3F3F6;stop-opacity:0.8283"/>
		<stop  offset="0.7" style="stop-color:#F3F3F6;stop-opacity:0.8"/>
		<stop  offset="1" style="stop-color:#F3F3F6;stop-opacity:0.4"/>
	</radialGradient>
	<circle class="st3" cx="578.7" cy="251.2" r="6.1"/>
</g>
<g>
	
		<radialGradient id="SVGID_5_" cx="587.7513" cy="150.5668" r="6.3231" gradientTransform="matrix(0.9101 0 0 -1.125 48.7241 420.625)" gradientUnits="userSpaceOnUse">
		<stop  offset="0" style="stop-color:#FFFFFF"/>
		<stop  offset="0.4453" style="stop-color:#FFFFFF"/>
		<stop  offset="0.5055" style="stop-color:#DEF0F2"/>
		<stop  offset="0.6114" style="stop-color:#A9D9DE"/>
		<stop  offset="0.7104" style="stop-color:#7FC6CE"/>
		<stop  offset="0.7996" style="stop-color:#61B9C2"/>
		<stop  offset="0.8758" style="stop-color:#4FB1BB"/>
		<stop  offset="0.9301" style="stop-color:#48AEB9"/>
	</radialGradient>
	<path class="st4" d="M587.2,255.7H580c-2,0-3.7-1.7-3.7-3.7v-1.6c0-2,1.7-3.7,3.7-3.7h7.2c2,0,3.7,1.7,3.7,3.7v1.6
		C590.9,254.1,589.2,255.7,587.2,255.7z"/>
	<g>
		<rect x="581.9" y="246.2" class="st5" width="7" height="10"/>
	</g>
	<path class="st6" d="M582.1,256.6L582.1,256.6c-0.3,0-0.5-0.2-0.5-0.5v-9.7c0-0.3,0.2-0.5,0.5-0.5l0,0c0.3,0,0.5,0.2,0.5,0.5v9.7
		C582.6,256.4,582.4,256.6,582.1,256.6z"/>
</g>
<path class="st7" d="M680,341v52c0,1.5-1.3,2.8-2.8,2.8h-664c-1.5,0-2.8-1.3-2.8-2.8v-63.6c0-1.5,1.3-2.8,2.8-2.8h94.9v-6H13.2
	c-4.8,0-8.8,3.9-8.8,8.8V393c0,4.8,3.9,8.8,8.8,8.8h664c4.8,0,8.8-3.9,8.8-8.8v-52H680z"/>
<path class="st7" d="M415.2,273.1v43.5c0,1.7-1.3,3-3,3H155.3c-1.7,0-3-1.3-3-3v-19h-6v19c0,5,4,9,9,9h256.9c5,0,9-4,9-9v-43.5
	H415.2z"/>
<path class="st7" d="M437.6,319.6c-1.7,0-3-1.3-3-3v-43.5h-6v43.5c0,5,4,9,9,9h186.1v-6H437.6z"/>
<path class="st8" d="M676.6,338.2v52c0,1.5-1.3,2.8-2.8,2.8H9.8c-1.5,0-2.8-1.3-2.8-2.8v-63.6c0-1.5,1.3-2.8,2.8-2.8h94.9v-6H9.8
	c-4.8,0-8.8,3.9-8.8,8.8v63.6c0,4.8,3.9,8.8,8.8,8.8h664c4.8,0,8.8-3.9,8.8-8.8v-52H676.6z"/>
<path class="st9" d="M411.8,270.2v43.5c0,1.7-1.3,3-3,3H151.9c-1.7,0-3-1.3-3-3v-19h-6v19c0,5,4,9,9,9h256.9c5,0,9-4,9-9v-43.5
	H411.8z"/>
<path class="st8" d="M434.2,316.7c-1.7,0-3-1.3-3-3v-43.5h-6v43.5c0,5,4,9,9,9h186.1v-6H434.2z"/>
<path class="st10" d="M836.6,205H596.2c-3.8,0-7.1,2.6-8.1,6.2h-3.4v0.2l0,0l0,0v39.4h3.1v15.8h-3.1v0.1l0,0v39.4l0,0h3.1v11.6h-4.5
	l0,0v18l0,0h4.5v12.1h-4.5l0,0v17.8l0,0h4.5c0.5,4.2,4,7.5,8.3,7.5h79.4v5.3h16v-5.3h34.8v3.7h3.2h37.7h3.2v-3.7H792v2.2h1.9h24.9
	h1.6v-2.2h16.2c4.6,0,8.4-3.8,8.4-8.4V213.4C845,208.8,841.2,205,836.6,205z"/>
<path class="st8" d="M684.7,383.1h-10.8c-0.7,0-1.3-0.6-1.3-1.3v-23.6c0-0.7,0.6-1.3,1.3-1.3h10.8c0.7,0,1.3,0.6,1.3,1.3v23.6
	C686,382.5,685.4,383.1,684.7,383.1z"/>
<path class="st8" d="M570.4,325.3v-10.8c0-0.7,0.6-1.3,1.3-1.3h23.6c0.7,0,1.3,0.6,1.3,1.3v10.8c0,0.7-0.6,1.3-1.3,1.3h-23.6
	C571,326.6,570.4,326,570.4,325.3z"/>
<g>
	<path class="st11" d="M648.9,276.1h-9.2l-5.2,5.2h-7v-12.1h9.4l-3.8-3.8v-31.8l-5.4-5.4v-17.9l14.9,14.9v30.4h7.6
		C650.2,255.7,648.7,276.3,648.9,276.1z"/>
	<g>
		<g>
			<path class="st12" d="M595.6,364.7c-3.8,0-6.9-3.1-6.9-6.9V207.3c0-3.8,3.1-6.9,6.9-6.9h235.5c3.8,0,6.9,3.1,6.9,6.9v150.5
				c0,3.8-3.1,6.9-6.9,6.9L595.6,364.7L595.6,364.7z"/>
			<path class="st13" d="M831.1,201c3.5,0,6.3,2.8,6.3,6.3v150.5c0,3.5-2.8,6.3-6.3,6.3H595.6c-3.5,0-6.3-2.8-6.3-6.3V207.3
				c0-3.5,2.8-6.3,6.3-6.3H831.1 M831.1,199.7H595.6c-4.2,0-7.6,3.4-7.6,7.6v150.5c0,4.2,3.4,7.6,7.6,7.6h235.5
				c4.2,0,7.6-3.4,7.6-7.6V207.3C838.7,203.1,835.3,199.7,831.1,199.7L831.1,199.7z"/>
		</g>
	</g>
	<rect x="722.1" y="335.2" class="st14" width="44" height="34.8"/>
	<rect x="787.7" y="349.1" class="st14" width="28.4" height="19.4"/>
	<rect x="789.5" y="349.1" class="st15" width="24.9" height="19.4"/>
	<rect x="828.8" y="221.7" class="st16" width="6.2" height="20.4"/>
	<rect x="828.8" y="223.2" class="st17" width="6.2" height="17.5"/>
	<g>
		<path class="st18" d="M778.7,251.2v42.5h-42.4v-42.5L778.7,251.2 M779.1,250.8h-43.2v43.3h43.2V250.8L779.1,250.8z"/>
	</g>
	<g>
		<rect x="668.7" y="203.7" class="st8" width="146.1" height="14.8"/>
	</g>
	<g>
		<path class="st18" d="M815.7,203.1v16.3H666.6v-16.3H815.7 M816.1,202.6h-150v17.2h150V202.6L816.1,202.6z"/>
	</g>
	<g>
		<rect x="737.9" y="252.8" class="st19" width="39.1" height="39.2"/>
		<path class="st15" d="M776.8,253v38.8h-38.7V253H776.8 M777.2,252.7h-39.4v39.5h39.4V252.7L777.2,252.7z"/>
	</g>
	<rect x="700.3" y="297.4" class="st19" width="8.5" height="66.6"/>
	<rect x="696" y="309.6" class="st19" width="5.4" height="42.3"/>
	<g>
		<rect x="707.8" y="351.2" class="st14" width="5.2" height="1.7"/>
		<rect x="707.7" y="348.3" class="st14" width="5.2" height="1.7"/>
		<rect x="707.8" y="345.5" class="st14" width="5.2" height="1.7"/>
		<rect x="707.7" y="342.6" class="st14" width="5.2" height="1.7"/>
		<rect x="707.7" y="339.8" class="st14" width="5.2" height="1.7"/>
		<rect x="707.8" y="337" class="st14" width="5.2" height="1.7"/>
		<rect x="707.7" y="334.1" class="st14" width="5.2" height="1.7"/>
		<rect x="707.8" y="331.3" class="st14" width="5.2" height="1.7"/>
		<rect x="707.7" y="328.4" class="st14" width="5.2" height="1.7"/>
		<rect x="707.8" y="325.6" class="st14" width="5.2" height="1.7"/>
		<rect x="707.8" y="322.8" class="st14" width="5.2" height="1.7"/>
		<rect x="707.7" y="319.9" class="st14" width="5.2" height="1.7"/>
		<rect x="707.8" y="317.1" class="st14" width="5.2" height="1.7"/>
		<rect x="707.7" y="314.2" class="st14" width="5.2" height="1.7"/>
		<rect x="707.8" y="311.4" class="st14" width="5.2" height="1.7"/>
		<rect x="707.7" y="308.5" class="st14" width="5.2" height="1.7"/>
	</g>
	<g>
		<rect x="672" y="275.9" class="st14" width="3" height="0.9"/>
		<rect x="672" y="274.4" class="st14" width="3" height="0.9"/>
		<rect x="672" y="272.9" class="st14" width="3" height="0.9"/>
		<rect x="672" y="271.4" class="st14" width="3" height="0.9"/>
		<rect x="672" y="269.9" class="st14" width="3" height="0.9"/>
		<rect x="672" y="268.5" class="st14" width="3" height="0.9"/>
		<rect x="672" y="267" class="st14" width="3" height="0.9"/>
		<rect x="672" y="265.5" class="st14" width="3" height="0.9"/>
		<rect x="672.1" y="264" class="st14" width="3" height="0.9"/>
		<rect x="672.1" y="262.5" class="st14" width="3" height="0.9"/>
		<rect x="672.1" y="261" class="st14" width="3" height="0.9"/>
		<rect x="672.1" y="259.5" class="st14" width="3" height="0.9"/>
		<rect x="672.1" y="258" class="st14" width="3" height="0.9"/>
		<rect x="672" y="256.5" class="st14" width="3" height="0.9"/>
		<rect x="672" y="255" class="st14" width="3" height="0.9"/>
		<rect x="672" y="253.5" class="st14" width="3" height="0.9"/>
	</g>
	<g>
		<rect x="648.9" y="276.8" class="st14" width="0.9" height="3"/>
		<rect x="650.4" y="276.8" class="st14" width="0.9" height="3"/>
		<rect x="651.9" y="276.8" class="st14" width="0.9" height="3"/>
		<rect x="653.4" y="276.8" class="st14" width="0.9" height="3"/>
		<rect x="654.9" y="276.8" class="st14" width="0.9" height="3"/>
		<rect x="656.4" y="276.8" class="st14" width="0.9" height="3"/>
		<rect x="657.9" y="276.8" class="st14" width="0.9" height="3"/>
		<rect x="659.4" y="276.8" class="st14" width="0.9" height="3"/>
		<rect x="660.8" y="276.8" class="st14" width="0.9" height="3"/>
		<rect x="662.3" y="276.8" class="st14" width="0.9" height="3"/>
		<rect x="663.8" y="276.8" class="st14" width="0.9" height="3"/>
		<rect x="665.3" y="276.8" class="st14" width="0.9" height="3"/>
		<rect x="666.8" y="276.8" class="st14" width="0.9" height="3"/>
		<rect x="668.3" y="276.8" class="st14" width="0.9" height="3"/>
		<rect x="669.8" y="276.8" class="st14" width="0.9" height="3"/>
		<rect x="671.3" y="276.8" class="st14" width="0.9" height="3"/>
	</g>
	<g>
		<rect x="648.9" y="250.8" class="st14" width="0.9" height="3"/>
		<rect x="650.4" y="250.8" class="st14" width="0.9" height="3"/>
		<rect x="651.9" y="250.8" class="st14" width="0.9" height="3"/>
		<rect x="653.4" y="250.8" class="st14" width="0.9" height="3"/>
		<rect x="654.9" y="250.8" class="st14" width="0.9" height="3"/>
		<rect x="656.4" y="250.8" class="st14" width="0.9" height="3"/>
		<rect x="657.9" y="250.8" class="st14" width="0.9" height="3"/>
		<rect x="659.4" y="250.8" class="st14" width="0.9" height="3"/>
		<rect x="660.8" y="250.8" class="st14" width="0.9" height="3"/>
		<rect x="662.3" y="250.8" class="st14" width="0.9" height="3"/>
		<rect x="663.8" y="250.8" class="st14" width="0.9" height="3"/>
		<rect x="665.3" y="250.8" class="st14" width="0.9" height="3"/>
		<rect x="666.8" y="250.8" class="st14" width="0.9" height="3"/>
		<rect x="668.3" y="250.8" class="st14" width="0.9" height="3"/>
		<rect x="669.8" y="250.8" class="st14" width="0.9" height="3"/>
		<rect x="671.3" y="250.8" class="st14" width="0.9" height="3"/>
	</g>
	<g>
		<rect x="646" y="276" class="st14" width="3" height="0.9"/>
		<rect x="646" y="274.5" class="st14" width="3" height="0.9"/>
		<rect x="646" y="273" class="st14" width="3" height="0.9"/>
		<rect x="646" y="271.5" class="st14" width="3" height="0.9"/>
		<rect x="646" y="270" class="st14" width="3" height="0.9"/>
		<rect x="646" y="268.5" class="st14" width="3" height="0.9"/>
		<rect x="646" y="267" class="st14" width="3" height="0.9"/>
		<rect x="645.9" y="265.5" class="st14" width="3" height="0.9"/>
		<rect x="646" y="264" class="st14" width="3" height="0.9"/>
		<rect x="646" y="262.5" class="st14" width="3" height="0.9"/>
		<rect x="646" y="261" class="st14" width="3" height="0.9"/>
		<rect x="646" y="259.6" class="st14" width="3" height="0.9"/>
		<rect x="646" y="258.1" class="st14" width="3" height="0.9"/>
		<rect x="646" y="256.6" class="st14" width="3" height="0.9"/>
		<rect x="646" y="255.1" class="st14" width="3" height="0.9"/>
		<rect x="646" y="253.6" class="st14" width="3" height="0.9"/>
	</g>
	<g>
		<rect x="755.3" y="332" class="st16" width="1" height="3.8"/>
		<rect x="753.5" y="332" class="st16" width="1" height="3.8"/>
		<rect x="751.8" y="332" class="st16" width="1" height="3.8"/>
		<rect x="750.1" y="332" class="st16" width="1" height="3.8"/>
		<rect x="748.3" y="332" class="st16" width="1" height="3.8"/>
		<rect x="746.6" y="332" class="st16" width="1" height="3.8"/>
		<rect x="744.8" y="332" class="st16" width="1" height="3.8"/>
		<rect x="743.1" y="332" class="st16" width="1" height="3.8"/>
		<rect x="741.4" y="332" class="st16" width="1" height="3.8"/>
		<rect x="739.6" y="332" class="st16" width="1" height="3.8"/>
		<rect x="737.9" y="332" class="st16" width="1" height="3.8"/>
		<rect x="736.2" y="332" class="st16" width="1" height="3.8"/>
		<rect x="734.4" y="332" class="st16" width="1" height="3.8"/>
		<rect x="732.7" y="332" class="st16" width="1" height="3.8"/>
		<rect x="731" y="332" class="st16" width="1" height="3.8"/>
		<rect x="729.2" y="332" class="st16" width="1" height="3.8"/>
	</g>
	<g>
		<rect x="648.1" y="252.8" class="st19" width="24.7" height="24.8"/>
		<path class="st15" d="M672.6,253.1v24.1h-24.1v-24.1H672.6 M673.2,252.5h-25.4v25.4h25.4V252.5L673.2,252.5z"/>
	</g>
	<g>
		<ellipse class="st20" cx="826" cy="353.3" rx="9.2" ry="9.2"/>
		<circle class="st18" cx="826" cy="353.3" r="4.2"/>
	</g>
	<g>
		<ellipse class="st20" cx="826" cy="211.1" rx="9.2" ry="9.2"/>
		<circle class="st18" cx="826" cy="211.1" r="4.2"/>
	</g>
	<g>
		<ellipse class="st20" cx="656.5" cy="211.1" rx="9.2" ry="9.2"/>
		<circle class="st18" cx="656.5" cy="211.1" r="4.2"/>
	</g>
	<g>
		<circle class="st21" cx="628.7" cy="298.5" r="5"/>
		<circle class="st16" cx="628.7" cy="298.5" r="4"/>
	</g>
	<g>
		<circle class="st21" cx="622.5" cy="311.1" r="3.4"/>
		<circle class="st16" cx="622.5" cy="311.1" r="2.7"/>
	</g>
	<g>
		<circle class="st21" cx="622.5" cy="358.3" r="3.4"/>
		<circle class="st16" cx="622.5" cy="358.3" r="2.7"/>
	</g>
	<g>
		<circle class="st21" cx="678.8" cy="329" r="3.4"/>
		<circle class="st16" cx="678.8" cy="329" r="2.7"/>
	</g>
	<g>
		<circle class="st21" cx="687.4" cy="330.6" r="3.4"/>
		<circle class="st16" cx="687.4" cy="330.6" r="2.7"/>
	</g>
	<g>
		<circle class="st21" cx="670.6" cy="330.6" r="3.4"/>
		<circle class="st16" cx="670.6" cy="330.6" r="2.7"/>
	</g>
	<g>
		<circle class="st21" cx="628.7" cy="260.4" r="5"/>
		<circle class="st16" cx="628.7" cy="260.4" r="4"/>
	</g>
	<g>
		<circle class="st21" cx="612.3" cy="298.5" r="5"/>
		<circle class="st16" cx="612.3" cy="298.5" r="4"/>
	</g>
	<g>
		<circle class="st21" cx="612.3" cy="260.4" r="5"/>
		<circle class="st16" cx="612.3" cy="260.4" r="4"/>
	</g>
	<g>
		<g>
			<circle class="st21" cx="628.7" cy="246" r="5"/>
			<circle class="st16" cx="628.7" cy="246" r="4"/>
		</g>
		<g>
			<circle class="st21" cx="628.7" cy="207.8" r="5"/>
			<circle class="st16" cx="628.7" cy="207.8" r="4"/>
		</g>
		<g>
			<circle class="st21" cx="612.3" cy="246" r="5"/>
			<circle class="st16" cx="612.3" cy="246" r="4"/>
		</g>
		<g>
			<circle class="st21" cx="612.3" cy="207.8" r="5"/>
			<circle class="st16" cx="612.3" cy="207.8" r="4"/>
		</g>
	</g>
	<g>
		<circle class="st22" cx="641" cy="208.4" r="4"/>
		<circle class="st20" cx="641" cy="208.4" r="1.8"/>
	</g>
	<g>
		<circle class="st20" cx="652.7" cy="225.6" r="2.6"/>
		<circle class="st18" cx="652.7" cy="225.6" r="1.2"/>
	</g>
	<g>
		<circle class="st20" cx="660.4" cy="225.6" r="2.6"/>
		<circle class="st18" cx="660.4" cy="225.6" r="1.2"/>
	</g>
	<g>
		<ellipse class="st20" cx="656.5" cy="353.3" rx="9.2" ry="9.2"/>
		<circle class="st18" cx="656.5" cy="353.3" r="4.2"/>
	</g>
	<rect x="821.8" y="266.1" class="st23" width="4.2" height="33.3"/>
	<rect x="705.2" y="304.3" class="st5" width="3.7" height="52.9"/>
	<g>
		<rect x="821.3" y="249.3" class="st19" width="8.5" height="66.6"/>
		<rect x="828.8" y="261.5" class="st19" width="5.4" height="42.3"/>
		<g>
			<rect x="817.3" y="260.5" class="st14" width="5.2" height="1.7"/>
			<rect x="817.2" y="263.3" class="st14" width="5.2" height="1.7"/>
			<rect x="817.3" y="266.2" class="st14" width="5.2" height="1.7"/>
			<rect x="817.2" y="269" class="st14" width="5.2" height="1.7"/>
			<rect x="817.2" y="271.8" class="st14" width="5.2" height="1.7"/>
			<rect x="817.2" y="274.7" class="st14" width="5.2" height="1.7"/>
			<rect x="817.2" y="277.5" class="st14" width="5.2" height="1.7"/>
			<rect x="817.3" y="280.4" class="st14" width="5.2" height="1.7"/>
			<rect x="817.2" y="283.2" class="st14" width="5.2" height="1.7"/>
			<rect x="817.2" y="286" class="st14" width="5.2" height="1.7"/>
			<rect x="817.2" y="288.9" class="st14" width="5.2" height="1.7"/>
			<rect x="817.2" y="291.7" class="st14" width="5.2" height="1.7"/>
			<rect x="817.3" y="294.6" class="st14" width="5.2" height="1.7"/>
			<rect x="817.2" y="297.4" class="st14" width="5.2" height="1.7"/>
			<rect x="817.3" y="300.2" class="st14" width="5.2" height="1.7"/>
			<rect x="817.2" y="303.1" class="st14" width="5.2" height="1.7"/>
		</g>
		<rect x="821.3" y="256.2" class="st5" width="3.7" height="52.9"/>
	</g>
	<g>
		<g>
			<polygon class="st19" points="811.1,218.6 809.2,216.7 809.2,205.3 811.1,203.3 814,203.3 816,205.3 816,216.7 814,218.6 			"/>
			<path class="st15" d="M813.9,203.5l1.9,1.9v11.3l-1.9,1.9h-2.7l-1.9-1.9v-11.3l1.9-1.9H813.9 M814,203.2h-2.9l-2.1,2v11.5l2.1,2
				h2.9l2.1-2v-11.5L814,203.2L814,203.2z"/>
		</g>
		<g>
			<g>
				<path class="st20" d="M812.2,215.3c-0.3,0-0.5-0.2-0.5-0.5v-1c0-0.3,0.2-0.5,0.5-0.5h0.8c0.3,0,0.5,0.2,0.5,0.5v1
					c0,0.3-0.2,0.5-0.5,0.5H812.2z"/>
				<path class="st5" d="M813,213.5c0.2,0,0.3,0.1,0.3,0.3v1c0,0.2-0.1,0.3-0.3,0.3h-0.8c-0.2,0-0.3-0.1-0.3-0.3v-1
					c0-0.2,0.1-0.3,0.3-0.3H813 M813,213.2h-0.8c-0.3,0-0.6,0.3-0.6,0.6v1c0,0.3,0.3,0.6,0.6,0.6h0.8c0.3,0,0.6-0.3,0.6-0.6v-1
					C813.6,213.5,813.3,213.2,813,213.2L813,213.2z"/>
			</g>
			<g>
				<path class="st20" d="M812.2,208.5c-0.3,0-0.5-0.2-0.5-0.5v-1c0-0.3,0.2-0.5,0.5-0.5h0.8c0.3,0,0.5,0.2,0.5,0.5v1
					c0,0.3-0.2,0.5-0.5,0.5H812.2z"/>
				<path class="st5" d="M813,206.8c0.2,0,0.3,0.1,0.3,0.3v1c0,0.2-0.1,0.3-0.3,0.3h-0.8c-0.2,0-0.3-0.1-0.3-0.3v-1
					c0-0.2,0.1-0.3,0.3-0.3H813 M813,206.5h-0.8c-0.3,0-0.6,0.3-0.6,0.6v1c0,0.3,0.3,0.6,0.6,0.6h0.8c0.3,0,0.6-0.3,0.6-0.6v-1
					C813.6,206.8,813.3,206.5,813,206.5L813,206.5z"/>
			</g>
		</g>
	</g>
	<g>
		<g>
			<polygon class="st19" points="803.2,218.6 801.3,216.7 801.3,205.3 803.2,203.3 806.1,203.3 808.1,205.3 808.1,216.7 
				806.1,218.6 			"/>
			<path class="st15" d="M806,203.5l1.9,1.9v11.3l-1.9,1.9h-2.7l-1.9-1.9v-11.3l1.9-1.9H806 M806.1,203.2h-2.9l-2.1,2v11.5l2.1,2
				h2.9l2.1-2v-11.5L806.1,203.2L806.1,203.2z"/>
		</g>
		<g>
			<g>
				<path class="st20" d="M804.3,215.3c-0.3,0-0.5-0.2-0.5-0.5v-1c0-0.3,0.2-0.5,0.5-0.5h0.8c0.3,0,0.5,0.2,0.5,0.5v1
					c0,0.3-0.2,0.5-0.5,0.5H804.3z"/>
				<path class="st5" d="M805,213.5c0.2,0,0.3,0.1,0.3,0.3v1c0,0.2-0.1,0.3-0.3,0.3h-0.8c-0.2,0-0.3-0.1-0.3-0.3v-1
					c0-0.2,0.1-0.3,0.3-0.3H805 M805,213.2h-0.8c-0.3,0-0.6,0.3-0.6,0.6v1c0,0.3,0.3,0.6,0.6,0.6h0.8c0.3,0,0.6-0.3,0.6-0.6v-1
					C805.6,213.5,805.4,213.2,805,213.2L805,213.2z"/>
			</g>
			<g>
				<path class="st20" d="M804.3,208.5c-0.3,0-0.5-0.2-0.5-0.5v-1c0-0.3,0.2-0.5,0.5-0.5h0.8c0.3,0,0.5,0.2,0.5,0.5v1
					c0,0.3-0.2,0.5-0.5,0.5H804.3z"/>
				<path class="st5" d="M805,206.8c0.2,0,0.3,0.1,0.3,0.3v1c0,0.2-0.1,0.3-0.3,0.3h-0.8c-0.2,0-0.3-0.1-0.3-0.3v-1
					c0-0.2,0.1-0.3,0.3-0.3H805 M805,206.5h-0.8c-0.3,0-0.6,0.3-0.6,0.6v1c0,0.3,0.3,0.6,0.6,0.6h0.8c0.3,0,0.6-0.3,0.6-0.6v-1
					C805.6,206.8,805.4,206.5,805,206.5L805,206.5z"/>
			</g>
		</g>
	</g>
	<g>
		<g>
			<polygon class="st19" points="795.3,218.6 793.3,216.7 793.3,205.3 795.3,203.3 798.2,203.3 800.2,205.3 800.2,216.7 
				798.2,218.6 			"/>
			<path class="st15" d="M798.1,203.5l1.9,1.9v11.3l-1.9,1.9h-2.7l-1.9-1.9v-11.3l1.9-1.9H798.1 M798.2,203.2h-2.9l-2.1,2v11.5
				l2.1,2h2.9l2.1-2v-11.5L798.2,203.2L798.2,203.2z"/>
		</g>
		<g>
			<g>
				<path class="st20" d="M796.4,215.3c-0.3,0-0.5-0.2-0.5-0.5v-1c0-0.3,0.2-0.5,0.5-0.5h0.8c0.3,0,0.5,0.2,0.5,0.5v1
					c0,0.3-0.2,0.5-0.5,0.5H796.4z"/>
				<path class="st5" d="M797.1,213.5c0.2,0,0.3,0.1,0.3,0.3v1c0,0.2-0.1,0.3-0.3,0.3h-0.8c-0.2,0-0.3-0.1-0.3-0.3v-1
					c0-0.2,0.1-0.3,0.3-0.3H797.1 M797.1,213.2h-0.8c-0.3,0-0.6,0.3-0.6,0.6v1c0,0.3,0.3,0.6,0.6,0.6h0.8c0.3,0,0.6-0.3,0.6-0.6v-1
					C797.7,213.5,797.5,213.2,797.1,213.2L797.1,213.2z"/>
			</g>
			<g>
				<path class="st20" d="M796.4,208.5c-0.3,0-0.5-0.2-0.5-0.5v-1c0-0.3,0.2-0.5,0.5-0.5h0.8c0.3,0,0.5,0.2,0.5,0.5v1
					c0,0.3-0.2,0.5-0.5,0.5H796.4z"/>
				<path class="st5" d="M797.1,206.8c0.2,0,0.3,0.1,0.3,0.3v1c0,0.2-0.1,0.3-0.3,0.3h-0.8c-0.2,0-0.3-0.1-0.3-0.3v-1
					c0-0.2,0.1-0.3,0.3-0.3H797.1 M797.1,206.5h-0.8c-0.3,0-0.6,0.3-0.6,0.6v1c0,0.3,0.3,0.6,0.6,0.6h0.8c0.3,0,0.6-0.3,0.6-0.6v-1
					C797.7,206.8,797.5,206.5,797.1,206.5L797.1,206.5z"/>
			</g>
		</g>
	</g>
	<g>
		<g>
			<polygon class="st19" points="787.4,218.6 785.4,216.7 785.4,205.3 787.4,203.3 790.3,203.3 792.2,205.3 792.2,216.7 
				790.3,218.6 			"/>
			<path class="st15" d="M790.2,203.5l1.9,1.9v11.3l-1.9,1.9h-2.7l-1.9-1.9v-11.3l1.9-1.9H790.2 M790.3,203.2h-2.9l-2.1,2v11.5
				l2.1,2h2.9l2.1-2v-11.5L790.3,203.2L790.3,203.2z"/>
		</g>
		<g>
			<g>
				<path class="st20" d="M788.5,215.3c-0.3,0-0.5-0.2-0.5-0.5v-1c0-0.3,0.2-0.5,0.5-0.5h0.8c0.3,0,0.5,0.2,0.5,0.5v1
					c0,0.3-0.2,0.5-0.5,0.5H788.5z"/>
				<path class="st5" d="M789.2,213.5c0.2,0,0.3,0.1,0.3,0.3v1c0,0.2-0.1,0.3-0.3,0.3h-0.8c-0.2,0-0.3-0.1-0.3-0.3v-1
					c0-0.2,0.1-0.3,0.3-0.3H789.2 M789.2,213.2h-0.8c-0.3,0-0.6,0.3-0.6,0.6v1c0,0.3,0.3,0.6,0.6,0.6h0.8c0.3,0,0.6-0.3,0.6-0.6v-1
					C789.8,213.5,789.6,213.2,789.2,213.2L789.2,213.2z"/>
			</g>
			<g>
				<path class="st20" d="M788.5,208.5c-0.3,0-0.5-0.2-0.5-0.5v-1c0-0.3,0.2-0.5,0.5-0.5h0.8c0.3,0,0.5,0.2,0.5,0.5v1
					c0,0.3-0.2,0.5-0.5,0.5H788.5z"/>
				<path class="st5" d="M789.2,206.8c0.2,0,0.3,0.1,0.3,0.3v1c0,0.2-0.1,0.3-0.3,0.3h-0.8c-0.2,0-0.3-0.1-0.3-0.3v-1
					c0-0.2,0.1-0.3,0.3-0.3H789.2 M789.2,206.5h-0.8c-0.3,0-0.6,0.3-0.6,0.6v1c0,0.3,0.3,0.6,0.6,0.6h0.8c0.3,0,0.6-0.3,0.6-0.6v-1
					C789.8,206.8,789.6,206.5,789.2,206.5L789.2,206.5z"/>
			</g>
		</g>
	</g>
	<g>
		<g>
			<polygon class="st19" points="779.5,218.6 777.5,216.7 777.5,205.3 779.5,203.3 782.4,203.3 784.3,205.3 784.3,216.7 
				782.4,218.6 			"/>
			<path class="st15" d="M782.3,203.5l1.9,1.9v11.3l-1.9,1.9h-2.7l-1.9-1.9v-11.3l1.9-1.9H782.3 M782.4,203.2h-2.9l-2.1,2v11.5
				l2.1,2h2.9l2.1-2v-11.5L782.4,203.2L782.4,203.2z"/>
		</g>
		<g>
			<g>
				<path class="st20" d="M780.6,215.3c-0.3,0-0.5-0.2-0.5-0.5v-1c0-0.3,0.2-0.5,0.5-0.5h0.8c0.3,0,0.5,0.2,0.5,0.5v1
					c0,0.3-0.2,0.5-0.5,0.5H780.6z"/>
				<path class="st5" d="M781.3,213.5c0.2,0,0.3,0.1,0.3,0.3v1c0,0.2-0.1,0.3-0.3,0.3h-0.8c-0.2,0-0.3-0.1-0.3-0.3v-1
					c0-0.2,0.1-0.3,0.3-0.3H781.3 M781.3,213.2h-0.8c-0.3,0-0.6,0.3-0.6,0.6v1c0,0.3,0.3,0.6,0.6,0.6h0.8c0.3,0,0.6-0.3,0.6-0.6v-1
					C781.9,213.5,781.7,213.2,781.3,213.2L781.3,213.2z"/>
			</g>
			<g>
				<path class="st20" d="M780.6,208.5c-0.3,0-0.5-0.2-0.5-0.5v-1c0-0.3,0.2-0.5,0.5-0.5h0.8c0.3,0,0.5,0.2,0.5,0.5v1
					c0,0.3-0.2,0.5-0.5,0.5H780.6z"/>
				<path class="st5" d="M781.3,206.8c0.2,0,0.3,0.1,0.3,0.3v1c0,0.2-0.1,0.3-0.3,0.3h-0.8c-0.2,0-0.3-0.1-0.3-0.3v-1
					c0-0.2,0.1-0.3,0.3-0.3H781.3 M781.3,206.5h-0.8c-0.3,0-0.6,0.3-0.6,0.6v1c0,0.3,0.3,0.6,0.6,0.6h0.8c0.3,0,0.6-0.3,0.6-0.6v-1
					C781.9,206.8,781.7,206.5,781.3,206.5L781.3,206.5z"/>
			</g>
		</g>
	</g>
	<g>
		<g>
			<polygon class="st19" points="771.6,218.6 769.6,216.7 769.6,205.3 771.6,203.3 774.4,203.3 776.4,205.3 776.4,216.7 
				774.4,218.6 			"/>
			<path class="st15" d="M774.4,203.5l1.9,1.9v11.3l-1.9,1.9h-2.7l-1.9-1.9v-11.3l1.9-1.9H774.4 M774.5,203.2h-2.9l-2.1,2v11.5
				l2.1,2h2.9l2.1-2v-11.5L774.5,203.2L774.5,203.2z"/>
		</g>
		<g>
			<g>
				<path class="st20" d="M772.6,215.3c-0.3,0-0.5-0.2-0.5-0.5v-1c0-0.3,0.2-0.5,0.5-0.5h0.8c0.3,0,0.5,0.2,0.5,0.5v1
					c0,0.3-0.2,0.5-0.5,0.5H772.6z"/>
				<path class="st5" d="M773.4,213.5c0.2,0,0.3,0.1,0.3,0.3v1c0,0.2-0.1,0.3-0.3,0.3h-0.8c-0.2,0-0.3-0.1-0.3-0.3v-1
					c0-0.2,0.1-0.3,0.3-0.3H773.4 M773.4,213.2h-0.8c-0.3,0-0.6,0.3-0.6,0.6v1c0,0.3,0.3,0.6,0.6,0.6h0.8c0.3,0,0.6-0.3,0.6-0.6v-1
					C774,213.5,773.8,213.2,773.4,213.2L773.4,213.2z"/>
			</g>
			<g>
				<path class="st20" d="M772.6,208.5c-0.3,0-0.5-0.2-0.5-0.5v-1c0-0.3,0.2-0.5,0.5-0.5h0.8c0.3,0,0.5,0.2,0.5,0.5v1
					c0,0.3-0.2,0.5-0.5,0.5H772.6z"/>
				<path class="st5" d="M773.4,206.8c0.2,0,0.3,0.1,0.3,0.3v1c0,0.2-0.1,0.3-0.3,0.3h-0.8c-0.2,0-0.3-0.1-0.3-0.3v-1
					c0-0.2,0.1-0.3,0.3-0.3H773.4 M773.4,206.5h-0.8c-0.3,0-0.6,0.3-0.6,0.6v1c0,0.3,0.3,0.6,0.6,0.6h0.8c0.3,0,0.6-0.3,0.6-0.6v-1
					C774,206.8,773.8,206.5,773.4,206.5L773.4,206.5z"/>
			</g>
		</g>
	</g>
	<g>
		<g>
			<polygon class="st19" points="763.7,218.6 761.7,216.7 761.7,205.3 763.7,203.3 766.5,203.3 768.5,205.3 768.5,216.7 
				766.5,218.6 			"/>
			<path class="st15" d="M766.5,203.5l1.9,1.9v11.3l-1.9,1.9h-2.7l-1.9-1.9v-11.3l1.9-1.9H766.5 M766.6,203.2h-2.9l-2.1,2v11.5
				l2.1,2h2.9l2.1-2v-11.5L766.6,203.2L766.6,203.2z"/>
		</g>
		<g>
			<g>
				<path class="st20" d="M764.7,215.3c-0.3,0-0.5-0.2-0.5-0.5v-1c0-0.3,0.2-0.5,0.5-0.5h0.8c0.3,0,0.5,0.2,0.5,0.5v1
					c0,0.3-0.2,0.5-0.5,0.5H764.7z"/>
				<path class="st5" d="M765.5,213.5c0.2,0,0.3,0.1,0.3,0.3v1c0,0.2-0.1,0.3-0.3,0.3h-0.8c-0.2,0-0.3-0.1-0.3-0.3v-1
					c0-0.2,0.1-0.3,0.3-0.3H765.5 M765.5,213.2h-0.8c-0.3,0-0.6,0.3-0.6,0.6v1c0,0.3,0.3,0.6,0.6,0.6h0.8c0.3,0,0.6-0.3,0.6-0.6v-1
					C766.1,213.5,765.9,213.2,765.5,213.2L765.5,213.2z"/>
			</g>
			<g>
				<path class="st20" d="M764.7,208.5c-0.3,0-0.5-0.2-0.5-0.5v-1c0-0.3,0.2-0.5,0.5-0.5h0.8c0.3,0,0.5,0.2,0.5,0.5v1
					c0,0.3-0.2,0.5-0.5,0.5H764.7z"/>
				<path class="st5" d="M765.5,206.8c0.2,0,0.3,0.1,0.3,0.3v1c0,0.2-0.1,0.3-0.3,0.3h-0.8c-0.2,0-0.3-0.1-0.3-0.3v-1
					c0-0.2,0.1-0.3,0.3-0.3H765.5 M765.5,206.5h-0.8c-0.3,0-0.6,0.3-0.6,0.6v1c0,0.3,0.3,0.6,0.6,0.6h0.8c0.3,0,0.6-0.3,0.6-0.6v-1
					C766.1,206.8,765.9,206.5,765.5,206.5L765.5,206.5z"/>
			</g>
		</g>
	</g>
	<g>
		<g>
			<polygon class="st19" points="755.8,218.6 753.8,216.7 753.8,205.3 755.8,203.3 758.6,203.3 760.6,205.3 760.6,216.7 
				758.6,218.6 			"/>
			<path class="st15" d="M758.6,203.5l1.9,1.9v11.3l-1.9,1.9h-2.7l-1.9-1.9v-11.3l1.9-1.9H758.6 M758.7,203.2h-2.9l-2.1,2v11.5
				l2.1,2h2.9l2.1-2v-11.5L758.7,203.2L758.7,203.2z"/>
		</g>
		<g>
			<g>
				<path class="st20" d="M756.8,215.3c-0.3,0-0.5-0.2-0.5-0.5v-1c0-0.3,0.2-0.5,0.5-0.5h0.8c0.3,0,0.5,0.2,0.5,0.5v1
					c0,0.3-0.2,0.5-0.5,0.5H756.8z"/>
				<path class="st5" d="M757.6,213.5c0.2,0,0.3,0.1,0.3,0.3v1c0,0.2-0.1,0.3-0.3,0.3h-0.8c-0.2,0-0.3-0.1-0.3-0.3v-1
					c0-0.2,0.1-0.3,0.3-0.3H757.6 M757.6,213.2h-0.8c-0.3,0-0.6,0.3-0.6,0.6v1c0,0.3,0.3,0.6,0.6,0.6h0.8c0.3,0,0.6-0.3,0.6-0.6v-1
					C758.2,213.5,758,213.2,757.6,213.2L757.6,213.2z"/>
			</g>
			<g>
				<path class="st20" d="M756.8,208.5c-0.3,0-0.5-0.2-0.5-0.5v-1c0-0.3,0.2-0.5,0.5-0.5h0.8c0.3,0,0.5,0.2,0.5,0.5v1
					c0,0.3-0.2,0.5-0.5,0.5H756.8z"/>
				<path class="st5" d="M757.6,206.8c0.2,0,0.3,0.1,0.3,0.3v1c0,0.2-0.1,0.3-0.3,0.3h-0.8c-0.2,0-0.3-0.1-0.3-0.3v-1
					c0-0.2,0.1-0.3,0.3-0.3H757.6 M757.6,206.5h-0.8c-0.3,0-0.6,0.3-0.6,0.6v1c0,0.3,0.3,0.6,0.6,0.6h0.8c0.3,0,0.6-0.3,0.6-0.6v-1
					C758.2,206.8,758,206.5,757.6,206.5L757.6,206.5z"/>
			</g>
		</g>
	</g>
	<g>
		<g>
			<polygon class="st19" points="747.9,218.6 745.9,216.7 745.9,205.3 747.9,203.3 750.7,203.3 752.7,205.3 752.7,216.7 
				750.7,218.6 			"/>
			<path class="st15" d="M750.7,203.5l1.9,1.9v11.3l-1.9,1.9H748l-1.9-1.9v-11.3l1.9-1.9H750.7 M750.8,203.2h-2.9l-2.1,2v11.5l2.1,2
				h2.9l2.1-2v-11.5L750.8,203.2L750.8,203.2z"/>
		</g>
		<g>
			<g>
				<path class="st20" d="M748.9,215.3c-0.3,0-0.5-0.2-0.5-0.5v-1c0-0.3,0.2-0.5,0.5-0.5h0.8c0.3,0,0.5,0.2,0.5,0.5v1
					c0,0.3-0.2,0.5-0.5,0.5H748.9z"/>
				<path class="st5" d="M749.7,213.5c0.2,0,0.3,0.1,0.3,0.3v1c0,0.2-0.1,0.3-0.3,0.3h-0.8c-0.2,0-0.3-0.1-0.3-0.3v-1
					c0-0.2,0.1-0.3,0.3-0.3H749.7 M749.7,213.2h-0.8c-0.3,0-0.6,0.3-0.6,0.6v1c0,0.3,0.3,0.6,0.6,0.6h0.8c0.3,0,0.6-0.3,0.6-0.6v-1
					C750.3,213.5,750,213.2,749.7,213.2L749.7,213.2z"/>
			</g>
			<g>
				<path class="st20" d="M748.9,208.5c-0.3,0-0.5-0.2-0.5-0.5v-1c0-0.3,0.2-0.5,0.5-0.5h0.8c0.3,0,0.5,0.2,0.5,0.5v1
					c0,0.3-0.2,0.5-0.5,0.5H748.9z"/>
				<path class="st5" d="M749.7,206.8c0.2,0,0.3,0.1,0.3,0.3v1c0,0.2-0.1,0.3-0.3,0.3h-0.8c-0.2,0-0.3-0.1-0.3-0.3v-1
					c0-0.2,0.1-0.3,0.3-0.3H749.7 M749.7,206.5h-0.8c-0.3,0-0.6,0.3-0.6,0.6v1c0,0.3,0.3,0.6,0.6,0.6h0.8c0.3,0,0.6-0.3,0.6-0.6v-1
					C750.3,206.8,750,206.5,749.7,206.5L749.7,206.5z"/>
			</g>
		</g>
	</g>
	<g>
		<g>
			<polygon class="st19" points="740,218.6 738,216.7 738,205.3 740,203.3 742.8,203.3 744.8,205.3 744.8,216.7 742.8,218.6 			"/>
			<path class="st15" d="M742.8,203.5l1.9,1.9v11.3l-1.9,1.9h-2.7l-1.9-1.9v-11.3l1.9-1.9H742.8 M742.9,203.2H740l-2.1,2v11.5l2.1,2
				h2.9l2.1-2v-11.5L742.9,203.2L742.9,203.2z"/>
		</g>
		<g>
			<g>
				<path class="st20" d="M741,215.3c-0.3,0-0.5-0.2-0.5-0.5v-1c0-0.3,0.2-0.5,0.5-0.5h0.8c0.3,0,0.5,0.2,0.5,0.5v1
					c0,0.3-0.2,0.5-0.5,0.5H741z"/>
				<path class="st5" d="M741.8,213.5c0.2,0,0.3,0.1,0.3,0.3v1c0,0.2-0.1,0.3-0.3,0.3H741c-0.2,0-0.3-0.1-0.3-0.3v-1
					c0-0.2,0.1-0.3,0.3-0.3H741.8 M741.8,213.2H741c-0.3,0-0.6,0.3-0.6,0.6v1c0,0.3,0.3,0.6,0.6,0.6h0.8c0.3,0,0.6-0.3,0.6-0.6v-1
					C742.4,213.5,742.1,213.2,741.8,213.2L741.8,213.2z"/>
			</g>
			<g>
				<path class="st20" d="M741,208.5c-0.3,0-0.5-0.2-0.5-0.5v-1c0-0.3,0.2-0.5,0.5-0.5h0.8c0.3,0,0.5,0.2,0.5,0.5v1
					c0,0.3-0.2,0.5-0.5,0.5H741z"/>
				<path class="st5" d="M741.8,206.8c0.2,0,0.3,0.1,0.3,0.3v1c0,0.2-0.1,0.3-0.3,0.3H741c-0.2,0-0.3-0.1-0.3-0.3v-1
					c0-0.2,0.1-0.3,0.3-0.3H741.8 M741.8,206.5H741c-0.3,0-0.6,0.3-0.6,0.6v1c0,0.3,0.3,0.6,0.6,0.6h0.8c0.3,0,0.6-0.3,0.6-0.6v-1
					C742.4,206.8,742.1,206.5,741.8,206.5L741.8,206.5z"/>
			</g>
		</g>
	</g>
	<g>
		<g>
			<polygon class="st19" points="732.1,218.6 730.1,216.7 730.1,205.3 732.1,203.3 734.9,203.3 736.9,205.3 736.9,216.7 
				734.9,218.6 			"/>
			<path class="st15" d="M734.9,203.5l1.9,1.9v11.3l-1.9,1.9h-2.7l-1.9-1.9v-11.3l1.9-1.9H734.9 M735,203.2h-2.9l-2.1,2v11.5l2.1,2
				h2.9l2.1-2v-11.5L735,203.2L735,203.2z"/>
		</g>
		<g>
			<g>
				<path class="st20" d="M733.1,215.3c-0.3,0-0.5-0.2-0.5-0.5v-1c0-0.3,0.2-0.5,0.5-0.5h0.8c0.3,0,0.5,0.2,0.5,0.5v1
					c0,0.3-0.2,0.5-0.5,0.5H733.1z"/>
				<path class="st5" d="M733.9,213.5c0.2,0,0.3,0.1,0.3,0.3v1c0,0.2-0.1,0.3-0.3,0.3h-0.8c-0.2,0-0.3-0.1-0.3-0.3v-1
					c0-0.2,0.1-0.3,0.3-0.3H733.9 M733.9,213.2h-0.8c-0.3,0-0.6,0.3-0.6,0.6v1c0,0.3,0.3,0.6,0.6,0.6h0.8c0.3,0,0.6-0.3,0.6-0.6v-1
					C734.5,213.5,734.2,213.2,733.9,213.2L733.9,213.2z"/>
			</g>
			<g>
				<path class="st20" d="M733.1,208.5c-0.3,0-0.5-0.2-0.5-0.5v-1c0-0.3,0.2-0.5,0.5-0.5h0.8c0.3,0,0.5,0.2,0.5,0.5v1
					c0,0.3-0.2,0.5-0.5,0.5H733.1z"/>
				<path class="st5" d="M733.9,206.8c0.2,0,0.3,0.1,0.3,0.3v1c0,0.2-0.1,0.3-0.3,0.3h-0.8c-0.2,0-0.3-0.1-0.3-0.3v-1
					c0-0.2,0.1-0.3,0.3-0.3H733.9 M733.9,206.5h-0.8c-0.3,0-0.6,0.3-0.6,0.6v1c0,0.3,0.3,0.6,0.6,0.6h0.8c0.3,0,0.6-0.3,0.6-0.6v-1
					C734.5,206.8,734.2,206.5,733.9,206.5L733.9,206.5z"/>
			</g>
		</g>
	</g>
	<g>
		<g>
			<polygon class="st19" points="724.2,218.6 722.2,216.7 722.2,205.3 724.2,203.3 727,203.3 729,205.3 729,216.7 727,218.6 			"/>
			<path class="st15" d="M727,203.5l1.9,1.9v11.3l-1.9,1.9h-2.7l-1.9-1.9v-11.3l1.9-1.9H727 M727.1,203.2h-2.9l-2.1,2v11.5l2.1,2
				h2.9l2.1-2v-11.5L727.1,203.2L727.1,203.2z"/>
		</g>
		<g>
			<g>
				<path class="st20" d="M725.2,215.3c-0.3,0-0.5-0.2-0.5-0.5v-1c0-0.3,0.2-0.5,0.5-0.5h0.8c0.3,0,0.5,0.2,0.5,0.5v1
					c0,0.3-0.2,0.5-0.5,0.5H725.2z"/>
				<path class="st5" d="M726,213.5c0.2,0,0.3,0.1,0.3,0.3v1c0,0.2-0.1,0.3-0.3,0.3h-0.8c-0.2,0-0.3-0.1-0.3-0.3v-1
					c0-0.2,0.1-0.3,0.3-0.3H726 M726,213.2h-0.8c-0.3,0-0.6,0.3-0.6,0.6v1c0,0.3,0.3,0.6,0.6,0.6h0.8c0.3,0,0.6-0.3,0.6-0.6v-1
					C726.6,213.5,726.3,213.2,726,213.2L726,213.2z"/>
			</g>
			<g>
				<path class="st20" d="M725.2,208.5c-0.3,0-0.5-0.2-0.5-0.5v-1c0-0.3,0.2-0.5,0.5-0.5h0.8c0.3,0,0.5,0.2,0.5,0.5v1
					c0,0.3-0.2,0.5-0.5,0.5H725.2z"/>
				<path class="st5" d="M726,206.8c0.2,0,0.3,0.1,0.3,0.3v1c0,0.2-0.1,0.3-0.3,0.3h-0.8c-0.2,0-0.3-0.1-0.3-0.3v-1
					c0-0.2,0.1-0.3,0.3-0.3H726 M726,206.5h-0.8c-0.3,0-0.6,0.3-0.6,0.6v1c0,0.3,0.3,0.6,0.6,0.6h0.8c0.3,0,0.6-0.3,0.6-0.6v-1
					C726.6,206.8,726.3,206.5,726,206.5L726,206.5z"/>
			</g>
		</g>
	</g>
	<g>
		<g>
			<polygon class="st19" points="716.3,218.6 714.3,216.7 714.3,205.3 716.3,203.3 719.1,203.3 721.1,205.3 721.1,216.7 
				719.1,218.6 			"/>
			<path class="st15" d="M719.1,203.5l1.9,1.9v11.3l-1.9,1.9h-2.7l-1.9-1.9v-11.3l1.9-1.9H719.1 M719.2,203.2h-2.9l-2.1,2v11.5
				l2.1,2h2.9l2.1-2v-11.5L719.2,203.2L719.2,203.2z"/>
		</g>
		<g>
			<g>
				<path class="st20" d="M717.3,215.3c-0.3,0-0.5-0.2-0.5-0.5v-1c0-0.3,0.2-0.5,0.5-0.5h0.8c0.3,0,0.5,0.2,0.5,0.5v1
					c0,0.3-0.2,0.5-0.5,0.5H717.3z"/>
				<path class="st5" d="M718.1,213.5c0.2,0,0.3,0.1,0.3,0.3v1c0,0.2-0.1,0.3-0.3,0.3h-0.8c-0.2,0-0.3-0.1-0.3-0.3v-1
					c0-0.2,0.1-0.3,0.3-0.3H718.1 M718.1,213.2h-0.8c-0.3,0-0.6,0.3-0.6,0.6v1c0,0.3,0.3,0.6,0.6,0.6h0.8c0.3,0,0.6-0.3,0.6-0.6v-1
					C718.7,213.5,718.4,213.2,718.1,213.2L718.1,213.2z"/>
			</g>
			<g>
				<path class="st20" d="M717.3,208.5c-0.3,0-0.5-0.2-0.5-0.5v-1c0-0.3,0.2-0.5,0.5-0.5h0.8c0.3,0,0.5,0.2,0.5,0.5v1
					c0,0.3-0.2,0.5-0.5,0.5H717.3z"/>
				<path class="st5" d="M718.1,206.8c0.2,0,0.3,0.1,0.3,0.3v1c0,0.2-0.1,0.3-0.3,0.3h-0.8c-0.2,0-0.3-0.1-0.3-0.3v-1
					c0-0.2,0.1-0.3,0.3-0.3H718.1 M718.1,206.5h-0.8c-0.3,0-0.6,0.3-0.6,0.6v1c0,0.3,0.3,0.6,0.6,0.6h0.8c0.3,0,0.6-0.3,0.6-0.6v-1
					C718.7,206.8,718.4,206.5,718.1,206.5L718.1,206.5z"/>
			</g>
		</g>
	</g>
	<g>
		<g>
			<polygon class="st19" points="708.4,218.6 706.4,216.7 706.4,205.3 708.4,203.3 711.2,203.3 713.2,205.3 713.2,216.7 
				711.2,218.6 			"/>
			<path class="st15" d="M711.2,203.5l1.9,1.9v11.3l-1.9,1.9h-2.7l-1.9-1.9v-11.3l1.9-1.9H711.2 M711.3,203.2h-2.9l-2.1,2v11.5
				l2.1,2h2.9l2.1-2v-11.5L711.3,203.2L711.3,203.2z"/>
		</g>
		<g>
			<g>
				<path class="st20" d="M709.4,215.3c-0.3,0-0.5-0.2-0.5-0.5v-1c0-0.3,0.2-0.5,0.5-0.5h0.8c0.3,0,0.5,0.2,0.5,0.5v1
					c0,0.3-0.2,0.5-0.5,0.5H709.4z"/>
				<path class="st5" d="M710.2,213.5c0.2,0,0.3,0.1,0.3,0.3v1c0,0.2-0.1,0.3-0.3,0.3h-0.8c-0.2,0-0.3-0.1-0.3-0.3v-1
					c0-0.2,0.1-0.3,0.3-0.3H710.2 M710.2,213.2h-0.8c-0.3,0-0.6,0.3-0.6,0.6v1c0,0.3,0.3,0.6,0.6,0.6h0.8c0.3,0,0.6-0.3,0.6-0.6v-1
					C710.8,213.5,710.5,213.2,710.2,213.2L710.2,213.2z"/>
			</g>
			<g>
				<path class="st20" d="M709.4,208.5c-0.3,0-0.5-0.2-0.5-0.5v-1c0-0.3,0.2-0.5,0.5-0.5h0.8c0.3,0,0.5,0.2,0.5,0.5v1
					c0,0.3-0.2,0.5-0.5,0.5H709.4z"/>
				<path class="st5" d="M710.2,206.8c0.2,0,0.3,0.1,0.3,0.3v1c0,0.2-0.1,0.3-0.3,0.3h-0.8c-0.2,0-0.3-0.1-0.3-0.3v-1
					c0-0.2,0.1-0.3,0.3-0.3H710.2 M710.2,206.5h-0.8c-0.3,0-0.6,0.3-0.6,0.6v1c0,0.3,0.3,0.6,0.6,0.6h0.8c0.3,0,0.6-0.3,0.6-0.6v-1
					C710.8,206.8,710.5,206.5,710.2,206.5L710.2,206.5z"/>
			</g>
		</g>
	</g>
	<g>
		<g>
			<polygon class="st19" points="700.5,218.6 698.5,216.7 698.5,205.3 700.5,203.3 703.3,203.3 705.3,205.3 705.3,216.7 
				703.3,218.6 			"/>
			<path class="st15" d="M703.3,203.5l1.9,1.9v11.3l-1.9,1.9h-2.7l-1.9-1.9v-11.3l1.9-1.9H703.3 M703.4,203.2h-2.9l-2.1,2v11.5
				l2.1,2h2.9l2.1-2v-11.5L703.4,203.2L703.4,203.2z"/>
		</g>
		<g>
			<g>
				<path class="st20" d="M701.5,215.3c-0.3,0-0.5-0.2-0.5-0.5v-1c0-0.3,0.2-0.5,0.5-0.5h0.8c0.3,0,0.5,0.2,0.5,0.5v1
					c0,0.3-0.2,0.5-0.5,0.5H701.5z"/>
				<path class="st5" d="M702.3,213.5c0.2,0,0.3,0.1,0.3,0.3v1c0,0.2-0.1,0.3-0.3,0.3h-0.8c-0.2,0-0.3-0.1-0.3-0.3v-1
					c0-0.2,0.1-0.3,0.3-0.3H702.3 M702.3,213.2h-0.8c-0.3,0-0.6,0.3-0.6,0.6v1c0,0.3,0.3,0.6,0.6,0.6h0.8c0.3,0,0.6-0.3,0.6-0.6v-1
					C702.9,213.5,702.6,213.2,702.3,213.2L702.3,213.2z"/>
			</g>
			<g>
				<path class="st20" d="M701.5,208.5c-0.3,0-0.5-0.2-0.5-0.5v-1c0-0.3,0.2-0.5,0.5-0.5h0.8c0.3,0,0.5,0.2,0.5,0.5v1
					c0,0.3-0.2,0.5-0.5,0.5H701.5z"/>
				<path class="st5" d="M702.3,206.8c0.2,0,0.3,0.1,0.3,0.3v1c0,0.2-0.1,0.3-0.3,0.3h-0.8c-0.2,0-0.3-0.1-0.3-0.3v-1
					c0-0.2,0.1-0.3,0.3-0.3H702.3 M702.3,206.5h-0.8c-0.3,0-0.6,0.3-0.6,0.6v1c0,0.3,0.3,0.6,0.6,0.6h0.8c0.3,0,0.6-0.3,0.6-0.6v-1
					C702.9,206.8,702.6,206.5,702.3,206.5L702.3,206.5z"/>
			</g>
		</g>
	</g>
	<g>
		<g>
			<polygon class="st19" points="692.6,218.6 690.6,216.7 690.6,205.3 692.6,203.3 695.4,203.3 697.4,205.3 697.4,216.7 
				695.4,218.6 			"/>
			<path class="st15" d="M695.4,203.5l1.9,1.9v11.3l-1.9,1.9h-2.7l-1.9-1.9v-11.3l1.9-1.9H695.4 M695.5,203.2h-2.9l-2.1,2v11.5
				l2.1,2h2.9l2.1-2v-11.5L695.5,203.2L695.5,203.2z"/>
		</g>
		<g>
			<g>
				<path class="st20" d="M693.6,215.3c-0.3,0-0.5-0.2-0.5-0.5v-1c0-0.3,0.2-0.5,0.5-0.5h0.8c0.3,0,0.5,0.2,0.5,0.5v1
					c0,0.3-0.2,0.5-0.5,0.5H693.6z"/>
				<path class="st5" d="M694.4,213.5c0.2,0,0.3,0.1,0.3,0.3v1c0,0.2-0.1,0.3-0.3,0.3h-0.8c-0.2,0-0.3-0.1-0.3-0.3v-1
					c0-0.2,0.1-0.3,0.3-0.3H694.4 M694.4,213.2h-0.8c-0.3,0-0.6,0.3-0.6,0.6v1c0,0.3,0.3,0.6,0.6,0.6h0.8c0.3,0,0.6-0.3,0.6-0.6v-1
					C695,213.5,694.7,213.2,694.4,213.2L694.4,213.2z"/>
			</g>
			<g>
				<path class="st20" d="M693.6,208.5c-0.3,0-0.5-0.2-0.5-0.5v-1c0-0.3,0.2-0.5,0.5-0.5h0.8c0.3,0,0.5,0.2,0.5,0.5v1
					c0,0.3-0.2,0.5-0.5,0.5H693.6z"/>
				<path class="st5" d="M694.4,206.8c0.2,0,0.3,0.1,0.3,0.3v1c0,0.2-0.1,0.3-0.3,0.3h-0.8c-0.2,0-0.3-0.1-0.3-0.3v-1
					c0-0.2,0.1-0.3,0.3-0.3H694.4 M694.4,206.5h-0.8c-0.3,0-0.6,0.3-0.6,0.6v1c0,0.3,0.3,0.6,0.6,0.6h0.8c0.3,0,0.6-0.3,0.6-0.6v-1
					C695,206.8,694.7,206.5,694.4,206.5L694.4,206.5z"/>
			</g>
		</g>
	</g>
	<g>
		<g>
			<polygon class="st19" points="684.7,218.6 682.7,216.7 682.7,205.3 684.7,203.3 687.5,203.3 689.5,205.3 689.5,216.7 
				687.5,218.6 			"/>
			<path class="st15" d="M687.4,203.5l1.9,1.9v11.3l-1.9,1.9h-2.7l-1.9-1.9v-11.3l1.9-1.9H687.4 M687.6,203.2h-2.9l-2.1,2v11.5
				l2.1,2h2.9l2.1-2v-11.5L687.6,203.2L687.6,203.2z"/>
		</g>
		<g>
			<g>
				<path class="st20" d="M685.7,215.3c-0.3,0-0.5-0.2-0.5-0.5v-1c0-0.3,0.2-0.5,0.5-0.5h0.8c0.3,0,0.5,0.2,0.5,0.5v1
					c0,0.3-0.2,0.5-0.5,0.5H685.7z"/>
				<path class="st5" d="M686.5,213.5c0.2,0,0.3,0.1,0.3,0.3v1c0,0.2-0.1,0.3-0.3,0.3h-0.8c-0.2,0-0.3-0.1-0.3-0.3v-1
					c0-0.2,0.1-0.3,0.3-0.3H686.5 M686.5,213.2h-0.8c-0.3,0-0.6,0.3-0.6,0.6v1c0,0.3,0.3,0.6,0.6,0.6h0.8c0.3,0,0.6-0.3,0.6-0.6v-1
					C687.1,213.5,686.8,213.2,686.5,213.2L686.5,213.2z"/>
			</g>
			<g>
				<path class="st20" d="M685.7,208.5c-0.3,0-0.5-0.2-0.5-0.5v-1c0-0.3,0.2-0.5,0.5-0.5h0.8c0.3,0,0.5,0.2,0.5,0.5v1
					c0,0.3-0.2,0.5-0.5,0.5H685.7z"/>
				<path class="st5" d="M686.5,206.8c0.2,0,0.3,0.1,0.3,0.3v1c0,0.2-0.1,0.3-0.3,0.3h-0.8c-0.2,0-0.3-0.1-0.3-0.3v-1
					c0-0.2,0.1-0.3,0.3-0.3H686.5 M686.5,206.5h-0.8c-0.3,0-0.6,0.3-0.6,0.6v1c0,0.3,0.3,0.6,0.6,0.6h0.8c0.3,0,0.6-0.3,0.6-0.6v-1
					C687.1,206.8,686.8,206.5,686.5,206.5L686.5,206.5z"/>
			</g>
		</g>
	</g>
	<g>
		<g>
			<polygon class="st19" points="676.8,218.6 674.8,216.7 674.8,205.3 676.8,203.3 679.6,203.3 681.6,205.3 681.6,216.7 
				679.6,218.6 			"/>
			<path class="st15" d="M679.5,203.5l1.9,1.9v11.3l-1.9,1.9h-2.7l-1.9-1.9v-11.3l1.9-1.9H679.5 M679.7,203.2h-2.9l-2.1,2v11.5
				l2.1,2h2.9l2.1-2v-11.5L679.7,203.2L679.7,203.2z"/>
		</g>
		<g>
			<g>
				<path class="st20" d="M677.8,215.3c-0.3,0-0.5-0.2-0.5-0.5v-1c0-0.3,0.2-0.5,0.5-0.5h0.8c0.3,0,0.5,0.2,0.5,0.5v1
					c0,0.3-0.2,0.5-0.5,0.5H677.8z"/>
				<path class="st5" d="M678.6,213.5c0.2,0,0.3,0.1,0.3,0.3v1c0,0.2-0.1,0.3-0.3,0.3h-0.8c-0.2,0-0.3-0.1-0.3-0.3v-1
					c0-0.2,0.1-0.3,0.3-0.3H678.6 M678.6,213.2h-0.8c-0.3,0-0.6,0.3-0.6,0.6v1c0,0.3,0.3,0.6,0.6,0.6h0.8c0.3,0,0.6-0.3,0.6-0.6v-1
					C679.2,213.5,678.9,213.2,678.6,213.2L678.6,213.2z"/>
			</g>
			<g>
				<path class="st20" d="M677.8,208.5c-0.3,0-0.5-0.2-0.5-0.5v-1c0-0.3,0.2-0.5,0.5-0.5h0.8c0.3,0,0.5,0.2,0.5,0.5v1
					c0,0.3-0.2,0.5-0.5,0.5H677.8z"/>
				<path class="st5" d="M678.6,206.8c0.2,0,0.3,0.1,0.3,0.3v1c0,0.2-0.1,0.3-0.3,0.3h-0.8c-0.2,0-0.3-0.1-0.3-0.3v-1
					c0-0.2,0.1-0.3,0.3-0.3H678.6 M678.6,206.5h-0.8c-0.3,0-0.6,0.3-0.6,0.6v1c0,0.3,0.3,0.6,0.6,0.6h0.8c0.3,0,0.6-0.3,0.6-0.6v-1
					C679.2,206.8,678.9,206.5,678.6,206.5L678.6,206.5z"/>
			</g>
		</g>
	</g>
	<g>
		<g>
			<polygon class="st19" points="668.9,218.6 666.9,216.7 666.9,205.3 668.9,203.3 671.7,203.3 673.7,205.3 673.7,216.7 
				671.7,218.6 			"/>
			<path class="st15" d="M671.6,203.5l1.9,1.9v11.3l-1.9,1.9h-2.7l-1.9-1.9v-11.3l1.9-1.9H671.6 M671.8,203.2h-2.9l-2.1,2v11.5
				l2.1,2h2.9l2.1-2v-11.5L671.8,203.2L671.8,203.2z"/>
		</g>
		<g>
			<g>
				<path class="st20" d="M669.9,215.3c-0.3,0-0.5-0.2-0.5-0.5v-1c0-0.3,0.2-0.5,0.5-0.5h0.8c0.3,0,0.5,0.2,0.5,0.5v1
					c0,0.3-0.2,0.5-0.5,0.5H669.9z"/>
				<path class="st5" d="M670.7,213.5c0.2,0,0.3,0.1,0.3,0.3v1c0,0.2-0.1,0.3-0.3,0.3h-0.8c-0.2,0-0.3-0.1-0.3-0.3v-1
					c0-0.2,0.1-0.3,0.3-0.3H670.7 M670.7,213.2h-0.8c-0.3,0-0.6,0.3-0.6,0.6v1c0,0.3,0.3,0.6,0.6,0.6h0.8c0.3,0,0.6-0.3,0.6-0.6v-1
					C671.3,213.5,671,213.2,670.7,213.2L670.7,213.2z"/>
			</g>
			<g>
				<path class="st20" d="M669.9,208.5c-0.3,0-0.5-0.2-0.5-0.5v-1c0-0.3,0.2-0.5,0.5-0.5h0.8c0.3,0,0.5,0.2,0.5,0.5v1
					c0,0.3-0.2,0.5-0.5,0.5H669.9z"/>
				<path class="st5" d="M670.7,206.8c0.2,0,0.3,0.1,0.3,0.3v1c0,0.2-0.1,0.3-0.3,0.3h-0.8c-0.2,0-0.3-0.1-0.3-0.3v-1
					c0-0.2,0.1-0.3,0.3-0.3H670.7 M670.7,206.5h-0.8c-0.3,0-0.6,0.3-0.6,0.6v1c0,0.3,0.3,0.6,0.6,0.6h0.8c0.3,0,0.6-0.3,0.6-0.6v-1
					C671.3,206.8,671,206.5,670.7,206.5L670.7,206.5z"/>
			</g>
		</g>
	</g>
	<rect x="781.9" y="273.4" class="st18" width="12.1" height="3.7"/>
	<rect x="778.4" y="221.4" class="st24" width="11.4" height="6.9"/>
	<rect x="648.4" y="222.2" class="st25" width="16.2" height="6.8"/>
	<g>
		<g>
			<path class="st16" d="M647.7,302.4c-0.3,0-0.5-0.2-0.5-0.5v-4.6c0-0.3,0.2-0.5,0.5-0.5h1.9c0.3,0,0.5,0.2,0.5,0.5v4.6
				c0,0.3-0.2,0.5-0.5,0.5H647.7z"/>
			<path class="st15" d="M649.6,296.9c0.2,0,0.4,0.2,0.4,0.4v4.6c0,0.2-0.2,0.4-0.4,0.4h-1.9c-0.2,0-0.4-0.2-0.4-0.4v-4.6
				c0-0.2,0.2-0.4,0.4-0.4H649.6 M649.6,296.8h-1.9c-0.3,0-0.5,0.2-0.5,0.5v4.6c0,0.3,0.2,0.5,0.5,0.5h1.9c0.3,0,0.5-0.2,0.5-0.5
				v-4.6C650.1,297.1,649.8,296.8,649.6,296.8L649.6,296.8z"/>
		</g>
		<g>
			<path class="st16" d="M638.2,302.4c-0.3,0-0.5-0.2-0.5-0.5v-4.6c0-0.3,0.2-0.5,0.5-0.5h1.9c0.3,0,0.5,0.2,0.5,0.5v4.6
				c0,0.3-0.2,0.5-0.5,0.5H638.2z"/>
			<path class="st15" d="M640.1,296.9c0.2,0,0.4,0.2,0.4,0.4v4.6c0,0.2-0.2,0.4-0.4,0.4h-1.9c-0.2,0-0.4-0.2-0.4-0.4v-4.6
				c0-0.2,0.2-0.4,0.4-0.4H640.1 M640.1,296.8h-1.9c-0.3,0-0.5,0.2-0.5,0.5v4.6c0,0.3,0.2,0.5,0.5,0.5h1.9c0.3,0,0.5-0.2,0.5-0.5
				v-4.6C640.6,297.1,640.4,296.8,640.1,296.8L640.1,296.8z"/>
		</g>
		<g>
			<g>
				<rect x="638.7" y="297.4" class="st26" width="10.2" height="4.5"/>
				<path class="st15" d="M648.8,297.5v4.3h-10v-4.3H648.8 M649,297.3h-10.3v4.6H649V297.3L649,297.3z"/>
			</g>
			<g>
				<g>
					<polygon class="st18" points="648,301.9 648,297.3 649.2,297.3 649.2,301.9 					"/>
					<path class="st15" d="M649.1,297.4v4.5H648v-4.5H649.1 M649.2,297.3H648v4.6h1.2V297.3L649.2,297.3z"/>
				</g>
				<g>
					<polygon class="st18" points="638.5,301.9 638.5,297.3 639.7,297.3 639.7,301.9 					"/>
					<path class="st15" d="M639.6,297.4v4.5h-1.1v-4.5H639.6 M639.7,297.3h-1.2v4.6h1.2V297.3L639.7,297.3z"/>
				</g>
			</g>
		</g>
	</g>
	<g>
		<g>
			<path class="st16" d="M793.5,332.9c-0.3,0-0.5-0.2-0.5-0.5v-4.6c0-0.3,0.2-0.5,0.5-0.5h1.9c0.3,0,0.5,0.2,0.5,0.5v4.6
				c0,0.3-0.2,0.5-0.5,0.5H793.5z"/>
			<path class="st15" d="M795.3,327.5c0.2,0,0.4,0.2,0.4,0.4v4.6c0,0.2-0.2,0.4-0.4,0.4h-1.9c-0.2,0-0.4-0.2-0.4-0.4v-4.6
				c0-0.2,0.2-0.4,0.4-0.4H795.3 M795.3,327.4h-1.9c-0.3,0-0.5,0.2-0.5,0.5v4.6c0,0.3,0.2,0.5,0.5,0.5h1.9c0.3,0,0.5-0.2,0.5-0.5
				v-4.6C795.8,327.6,795.6,327.4,795.3,327.4L795.3,327.4z"/>
		</g>
		<g>
			<path class="st16" d="M784,332.9c-0.3,0-0.5-0.2-0.5-0.5v-4.6c0-0.3,0.2-0.5,0.5-0.5h1.9c0.3,0,0.5,0.2,0.5,0.5v4.6
				c0,0.3-0.2,0.5-0.5,0.5H784z"/>
			<path class="st15" d="M785.9,327.5c0.2,0,0.4,0.2,0.4,0.4v4.6c0,0.2-0.2,0.4-0.4,0.4H784c-0.2,0-0.4-0.2-0.4-0.4v-4.6
				c0-0.2,0.2-0.4,0.4-0.4H785.9 M785.9,327.4H784c-0.3,0-0.5,0.2-0.5,0.5v4.6c0,0.3,0.2,0.5,0.5,0.5h1.9c0.3,0,0.5-0.2,0.5-0.5
				v-4.6C786.4,327.6,786.1,327.4,785.9,327.4L785.9,327.4z"/>
		</g>
		<g>
			<g>
				<rect x="784.5" y="328" class="st26" width="10.2" height="4.5"/>
				<path class="st15" d="M794.6,328v4.3h-10V328H794.6 M794.8,327.9h-10.3v4.6h10.3V327.9L794.8,327.9z"/>
			</g>
			<g>
				<g>
					<polygon class="st18" points="793.7,332.5 793.7,327.9 794.9,327.9 794.9,332.5 					"/>
					<path class="st15" d="M794.9,327.9v4.5h-1.1v-4.5H794.9 M794.9,327.9h-1.2v4.6h1.2V327.9L794.9,327.9z"/>
				</g>
				<g>
					<polygon class="st18" points="784.2,332.5 784.2,327.9 785.4,327.9 785.4,332.5 					"/>
					<path class="st15" d="M785.4,327.9v4.5h-1.1v-4.5H785.4 M785.4,327.9h-1.2v4.6h1.2V327.9L785.4,327.9z"/>
				</g>
			</g>
		</g>
	</g>
	<g>
		<g>
			<g>
				<path class="st16" d="M799.3,344c-0.4,0-0.7-0.3-0.7-0.7v-6c0-0.4,0.3-0.7,0.7-0.7h3.2c0.4,0,0.7,0.3,0.7,0.7v6
					c0,0.4-0.3,0.7-0.7,0.7H799.3z"/>
				<path class="st15" d="M802.5,336.7c0.4,0,0.6,0.3,0.6,0.6v6c0,0.4-0.3,0.6-0.6,0.6h-3.2c-0.4,0-0.6-0.3-0.6-0.6v-6
					c0-0.4,0.3-0.6,0.6-0.6H802.5 M802.5,336.6h-3.2c-0.4,0-0.7,0.3-0.7,0.7v6c0,0.4,0.3,0.7,0.7,0.7h3.2c0.4,0,0.7-0.3,0.7-0.7v-6
					C803.2,336.9,802.9,336.6,802.5,336.6L802.5,336.6z"/>
			</g>
			<g>
				<path class="st16" d="M784.1,344c-0.4,0-0.7-0.3-0.7-0.7v-6c0-0.4,0.3-0.7,0.7-0.7h3.2c0.4,0,0.7,0.3,0.7,0.7v6
					c0,0.4-0.3,0.7-0.7,0.7H784.1z"/>
				<path class="st15" d="M787.4,336.7c0.4,0,0.6,0.3,0.6,0.6v6c0,0.4-0.3,0.6-0.6,0.6h-3.2c-0.4,0-0.6-0.3-0.6-0.6v-6
					c0-0.4,0.3-0.6,0.6-0.6H787.4 M787.4,336.6h-3.2c-0.4,0-0.7,0.3-0.7,0.7v6c0,0.4,0.3,0.7,0.7,0.7h3.2c0.4,0,0.7-0.3,0.7-0.7v-6
					C788.1,336.9,787.8,336.6,787.4,336.6L787.4,336.6z"/>
			</g>
		</g>
		<g>
			<rect x="786.4" y="335.4" class="st8" width="13.9" height="9.8"/>
			<path class="st15" d="M800.1,335.5v9.5h-13.6v-9.5H800.1 M800.4,335.3h-14.1v10h14.1V335.3L800.4,335.3z"/>
		</g>
		<g>
			<g>
				<polygon class="st18" points="799.6,343.3 799.7,337.2 801.5,337.3 801.5,343.3 				"/>
				<path class="st15" d="M801.4,337.3v6h-1.7v-6H801.4 M801.5,337.2h-1.9v6.2h1.9V337.2L801.5,337.2z"/>
			</g>
			<g>
				<polygon class="st18" points="785.1,343.3 785.2,337.2 787,337.3 787,343.3 				"/>
				<path class="st15" d="M786.9,337.3v6h-1.7v-6H786.9 M787,337.2h-1.9v6.2h1.9V337.2L787,337.2z"/>
			</g>
		</g>
	</g>
	<g>
		<g>
			<path class="st16" d="M793.5,314c-0.3,0-0.5-0.2-0.5-0.5V309c0-0.3,0.2-0.5,0.5-0.5h1.9c0.3,0,0.5,0.2,0.5,0.5v4.6
				c0,0.3-0.2,0.5-0.5,0.5h-1.9V314z"/>
			<path class="st15" d="M795.3,308.6c0.2,0,0.4,0.2,0.4,0.4v4.6c0,0.2-0.2,0.4-0.4,0.4h-1.9c-0.2,0-0.4-0.2-0.4-0.4V309
				c0-0.2,0.2-0.4,0.4-0.4H795.3 M795.3,308.5h-1.9c-0.3,0-0.5,0.2-0.5,0.5v4.6c0,0.3,0.2,0.5,0.5,0.5h1.9c0.3,0,0.5-0.2,0.5-0.5
				V309C795.8,308.7,795.6,308.5,795.3,308.5L795.3,308.5z"/>
		</g>
		<g>
			<path class="st16" d="M784,314c-0.3,0-0.5-0.2-0.5-0.5V309c0-0.3,0.2-0.5,0.5-0.5h1.9c0.3,0,0.5,0.2,0.5,0.5v4.6
				c0,0.3-0.2,0.5-0.5,0.5H784V314z"/>
			<path class="st15" d="M785.9,308.6c0.2,0,0.4,0.2,0.4,0.4v4.6c0,0.2-0.2,0.4-0.4,0.4H784c-0.2,0-0.4-0.2-0.4-0.4V309
				c0-0.2,0.2-0.4,0.4-0.4H785.9 M785.9,308.5H784c-0.3,0-0.5,0.2-0.5,0.5v4.6c0,0.3,0.2,0.5,0.5,0.5h1.9c0.3,0,0.5-0.2,0.5-0.5V309
				C786.4,308.7,786.1,308.5,785.9,308.5L785.9,308.5z"/>
		</g>
		<g>
			<g>
				<rect x="784.5" y="309.1" class="st26" width="10.2" height="4.5"/>
				<path class="st15" d="M794.6,309.1v4.3h-10v-4.3H794.6 M794.8,309h-10.3v4.6h10.3V309L794.8,309z"/>
			</g>
			<g>
				<g>
					<polygon class="st18" points="793.7,313.6 793.7,309 794.9,309 794.9,313.6 					"/>
					<path class="st15" d="M794.9,309v4.5h-1.1V309H794.9 M794.9,309h-1.2v4.6h1.2V309L794.9,309z"/>
				</g>
				<g>
					<polygon class="st18" points="784.2,313.6 784.2,309 785.4,309 785.4,313.6 					"/>
					<path class="st15" d="M785.4,309v4.5h-1.1V309H785.4 M785.4,309h-1.2v4.6h1.2V309L785.4,309z"/>
				</g>
			</g>
		</g>
	</g>
	<g>
		<g>
			<path class="st16" d="M784.1,317.7c-0.2,0-0.3-0.2-0.3-0.3V316c0-0.2,0.2-0.3,0.3-0.3h3.3c0.2,0,0.3,0.2,0.3,0.3v1.4
				c0,0.2-0.2,0.3-0.3,0.3L784.1,317.7L784.1,317.7z"/>
			<path class="st15" d="M787.5,315.7c0.2,0,0.3,0.1,0.3,0.3v1.4c0,0.2-0.1,0.3-0.3,0.3h-3.3c-0.2,0-0.3-0.1-0.3-0.3V316
				c0-0.2,0.1-0.3,0.3-0.3H787.5 M787.5,315.6h-3.3c-0.2,0-0.4,0.2-0.4,0.4v1.4c0,0.2,0.2,0.4,0.4,0.4h3.3c0.2,0,0.4-0.2,0.4-0.4
				V316C787.8,315.8,787.7,315.6,787.5,315.6L787.5,315.6z"/>
		</g>
		<g>
			<path class="st16" d="M784.1,324.6c-0.2,0-0.3-0.2-0.3-0.3v-1.4c0-0.2,0.2-0.3,0.3-0.3h3.3c0.2,0,0.3,0.2,0.3,0.3v1.4
				c0,0.2-0.2,0.3-0.3,0.3H784.1z"/>
			<path class="st15" d="M787.5,322.6c0.2,0,0.3,0.1,0.3,0.3v1.4c0,0.2-0.1,0.3-0.3,0.3h-3.3c-0.2,0-0.3-0.1-0.3-0.3v-1.4
				c0-0.2,0.1-0.3,0.3-0.3H787.5 M787.5,322.6h-3.3c-0.2,0-0.4,0.2-0.4,0.4v1.4c0,0.2,0.2,0.4,0.4,0.4h3.3c0.2,0,0.4-0.2,0.4-0.4
				V323C787.8,322.7,787.7,322.6,787.5,322.6L787.5,322.6z"/>
		</g>
		<g>
			<g>
				<polygon class="st26" points="784.1,324 784.2,316.4 787.5,316.5 787.4,324 				"/>
				<path class="st15" d="M787.4,316.5v7.4h-3.1v-7.4H787.4 M787.5,316.4h-3.4v7.6h3.4V316.4L787.5,316.4z"/>
			</g>
			<g>
				<g>
					<polygon class="st18" points="784.1,317.2 784.1,316.3 787.5,316.3 787.5,317.2 					"/>
					<path class="st15" d="M787.5,316.3v0.8h-3.3v-0.8H787.5 M787.5,316.3h-3.4v0.9h3.4V316.3L787.5,316.3z"/>
				</g>
				<g>
					<polygon class="st18" points="784.1,324.1 784.1,323.3 787.5,323.3 787.5,324.1 					"/>
					<path class="st15" d="M787.5,323.3v0.8h-3.3v-0.8H787.5 M787.5,323.3h-3.4v0.9h3.4V323.3L787.5,323.3z"/>
				</g>
			</g>
		</g>
	</g>
	<g>
		<g>
			<path class="st16" d="M799.7,322.8c-0.2,0-0.3-0.2-0.3-0.3V321c0-0.2,0.2-0.3,0.3-0.3h3.3c0.2,0,0.3,0.2,0.3,0.3v1.4
				c0,0.2-0.2,0.3-0.3,0.3h-3.3V322.8z"/>
			<path class="st15" d="M803.1,320.7c0.2,0,0.3,0.1,0.3,0.3v1.4c0,0.2-0.1,0.3-0.3,0.3h-3.3c-0.2,0-0.3-0.1-0.3-0.3V321
				c0-0.2,0.1-0.3,0.3-0.3H803.1 M803.1,320.7h-3.3c-0.2,0-0.4,0.2-0.4,0.4v1.4c0,0.2,0.2,0.4,0.4,0.4h3.3c0.2,0,0.4-0.2,0.4-0.4
				V321C803.4,320.8,803.3,320.7,803.1,320.7L803.1,320.7z"/>
		</g>
		<g>
			<path class="st16" d="M799.7,329.7c-0.2,0-0.3-0.2-0.3-0.3V328c0-0.2,0.2-0.3,0.3-0.3h3.3c0.2,0,0.3,0.2,0.3,0.3v1.4
				c0,0.2-0.2,0.3-0.3,0.3L799.7,329.7L799.7,329.7z"/>
			<path class="st15" d="M803.1,327.7c0.2,0,0.3,0.1,0.3,0.3v1.4c0,0.2-0.1,0.3-0.3,0.3h-3.3c-0.2,0-0.3-0.1-0.3-0.3V328
				c0-0.2,0.1-0.3,0.3-0.3H803.1 M803.1,327.6h-3.3c-0.2,0-0.4,0.2-0.4,0.4v1.4c0,0.2,0.2,0.4,0.4,0.4h3.3c0.2,0,0.4-0.2,0.4-0.4
				V328C803.4,327.8,803.3,327.6,803.1,327.6L803.1,327.6z"/>
		</g>
		<g>
			<g>
				<polygon class="st26" points="799.7,329 799.8,321.5 803.1,321.5 803,329 				"/>
				<path class="st15" d="M803,321.6v7.4h-3.1v-7.4H803 M803.1,321.5h-3.4v7.6h3.4V321.5L803.1,321.5z"/>
			</g>
			<g>
				<g>
					<polygon class="st18" points="799.7,322.2 799.7,321.3 803.1,321.3 803.1,322.2 					"/>
					<path class="st15" d="M803,321.4v0.8h-3.3v-0.8H803 M803.1,321.3h-3.4v0.9h3.4V321.3L803.1,321.3z"/>
				</g>
				<g>
					<polygon class="st18" points="799.7,329.2 799.7,328.3 803.1,328.3 803.1,329.2 					"/>
					<path class="st15" d="M803,328.3v0.8h-3.3v-0.8H803 M803.1,328.3h-3.4v0.9h3.4V328.3L803.1,328.3z"/>
				</g>
			</g>
		</g>
	</g>
	<g>
		<g>
			<path class="st16" d="M805.3,322.8c-0.2,0-0.3-0.2-0.3-0.3V321c0-0.2,0.2-0.3,0.3-0.3h3.3c0.2,0,0.3,0.2,0.3,0.3v1.4
				c0,0.2-0.2,0.3-0.3,0.3h-3.3V322.8z"/>
			<path class="st15" d="M808.7,320.7c0.2,0,0.3,0.1,0.3,0.3v1.4c0,0.2-0.1,0.3-0.3,0.3h-3.3c-0.2,0-0.3-0.1-0.3-0.3V321
				c0-0.2,0.1-0.3,0.3-0.3H808.7 M808.7,320.7h-3.3c-0.2,0-0.4,0.2-0.4,0.4v1.4c0,0.2,0.2,0.4,0.4,0.4h3.3c0.2,0,0.4-0.2,0.4-0.4
				V321C809,320.8,808.9,320.7,808.7,320.7L808.7,320.7z"/>
		</g>
		<g>
			<path class="st16" d="M805.3,329.7c-0.2,0-0.3-0.2-0.3-0.3V328c0-0.2,0.2-0.3,0.3-0.3h3.3c0.2,0,0.3,0.2,0.3,0.3v1.4
				c0,0.2-0.2,0.3-0.3,0.3L805.3,329.7L805.3,329.7z"/>
			<path class="st15" d="M808.7,327.7c0.2,0,0.3,0.1,0.3,0.3v1.4c0,0.2-0.1,0.3-0.3,0.3h-3.3c-0.2,0-0.3-0.1-0.3-0.3V328
				c0-0.2,0.1-0.3,0.3-0.3H808.7 M808.7,327.6h-3.3c-0.2,0-0.4,0.2-0.4,0.4v1.4c0,0.2,0.2,0.4,0.4,0.4h3.3c0.2,0,0.4-0.2,0.4-0.4
				V328C809,327.8,808.9,327.6,808.7,327.6L808.7,327.6z"/>
		</g>
		<g>
			<g>
				<polygon class="st26" points="805.3,329 805.4,321.5 808.7,321.5 808.6,329 				"/>
				<path class="st15" d="M808.6,321.6v7.4h-3.1v-7.4H808.6 M808.7,321.5h-3.4v7.6h3.4V321.5L808.7,321.5z"/>
			</g>
			<g>
				<g>
					<polygon class="st18" points="805.3,322.2 805.3,321.3 808.7,321.3 808.7,322.2 					"/>
					<path class="st15" d="M808.6,321.4v0.8h-3.3v-0.8H808.6 M808.7,321.3h-3.4v0.9h3.4V321.3L808.7,321.3z"/>
				</g>
				<g>
					<polygon class="st18" points="805.3,329.2 805.3,328.3 808.7,328.3 808.7,329.2 					"/>
					<path class="st15" d="M808.6,328.3v0.8h-3.3v-0.8H808.6 M808.7,328.3h-3.4v0.9h3.4V328.3L808.7,328.3z"/>
				</g>
			</g>
		</g>
	</g>
	<g>
		<g>
			<path class="st16" d="M820.5,322.8c-0.2,0-0.3-0.2-0.3-0.3V321c0-0.2,0.2-0.3,0.3-0.3h3.3c0.2,0,0.3,0.2,0.3,0.3v1.4
				c0,0.2-0.2,0.3-0.3,0.3h-3.3V322.8z"/>
			<path class="st15" d="M823.9,320.7c0.2,0,0.3,0.1,0.3,0.3v1.4c0,0.2-0.1,0.3-0.3,0.3h-3.3c-0.2,0-0.3-0.1-0.3-0.3V321
				c0-0.2,0.1-0.3,0.3-0.3H823.9 M823.9,320.7h-3.3c-0.2,0-0.4,0.2-0.4,0.4v1.4c0,0.2,0.2,0.4,0.4,0.4h3.3c0.2,0,0.4-0.2,0.4-0.4
				V321C824.3,320.8,824.1,320.7,823.9,320.7L823.9,320.7z"/>
		</g>
		<g>
			<path class="st16" d="M820.5,329.7c-0.2,0-0.3-0.2-0.3-0.3V328c0-0.2,0.2-0.3,0.3-0.3h3.3c0.2,0,0.3,0.2,0.3,0.3v1.4
				c0,0.2-0.2,0.3-0.3,0.3L820.5,329.7L820.5,329.7z"/>
			<path class="st15" d="M823.9,327.7c0.2,0,0.3,0.1,0.3,0.3v1.4c0,0.2-0.1,0.3-0.3,0.3h-3.3c-0.2,0-0.3-0.1-0.3-0.3V328
				c0-0.2,0.1-0.3,0.3-0.3H823.9 M823.9,327.6h-3.3c-0.2,0-0.4,0.2-0.4,0.4v1.4c0,0.2,0.2,0.4,0.4,0.4h3.3c0.2,0,0.4-0.2,0.4-0.4
				V328C824.3,327.8,824.1,327.6,823.9,327.6L823.9,327.6z"/>
		</g>
		<g>
			<g>
				<polygon class="st26" points="820.5,329 820.6,321.5 823.9,321.5 823.9,329 				"/>
				<path class="st15" d="M823.8,321.6v7.4h-3.1v-7.4H823.8 M823.9,321.5h-3.4v7.6h3.4V321.5L823.9,321.5z"/>
			</g>
			<g>
				<g>
					<polygon class="st18" points="820.5,322.2 820.6,321.3 823.9,321.3 823.9,322.2 					"/>
					<path class="st15" d="M823.9,321.4v0.8h-3.3v-0.8H823.9 M823.9,321.3h-3.4v0.9h3.4V321.3L823.9,321.3z"/>
				</g>
				<g>
					<polygon class="st18" points="820.5,329.2 820.6,328.3 823.9,328.3 823.9,329.2 					"/>
					<path class="st15" d="M823.9,328.3v0.8h-3.3v-0.8H823.9 M823.9,328.3h-3.4v0.9h3.4V328.3L823.9,328.3z"/>
				</g>
			</g>
		</g>
	</g>
	<g>
		<g>
			<path class="st16" d="M826.3,322.8c-0.2,0-0.3-0.2-0.3-0.3V321c0-0.2,0.2-0.3,0.3-0.3h3.3c0.2,0,0.3,0.2,0.3,0.3v1.4
				c0,0.2-0.2,0.3-0.3,0.3h-3.3V322.8z"/>
			<path class="st15" d="M829.6,320.7c0.2,0,0.3,0.1,0.3,0.3v1.4c0,0.2-0.1,0.3-0.3,0.3h-3.3c-0.2,0-0.3-0.1-0.3-0.3V321
				c0-0.2,0.1-0.3,0.3-0.3H829.6 M829.6,320.7h-3.3c-0.2,0-0.4,0.2-0.4,0.4v1.4c0,0.2,0.2,0.4,0.4,0.4h3.3c0.2,0,0.4-0.2,0.4-0.4
				V321C830,320.8,829.8,320.7,829.6,320.7L829.6,320.7z"/>
		</g>
		<g>
			<path class="st16" d="M826.3,329.7c-0.2,0-0.3-0.2-0.3-0.3V328c0-0.2,0.2-0.3,0.3-0.3h3.3c0.2,0,0.3,0.2,0.3,0.3v1.4
				c0,0.2-0.2,0.3-0.3,0.3L826.3,329.7L826.3,329.7z"/>
			<path class="st15" d="M829.6,327.7c0.2,0,0.3,0.1,0.3,0.3v1.4c0,0.2-0.1,0.3-0.3,0.3h-3.3c-0.2,0-0.3-0.1-0.3-0.3V328
				c0-0.2,0.1-0.3,0.3-0.3H829.6 M829.6,327.6h-3.3c-0.2,0-0.4,0.2-0.4,0.4v1.4c0,0.2,0.2,0.4,0.4,0.4h3.3c0.2,0,0.4-0.2,0.4-0.4
				V328C830,327.8,829.8,327.6,829.6,327.6L829.6,327.6z"/>
		</g>
		<g>
			<g>
				<polygon class="st26" points="826.2,329 826.3,321.5 829.6,321.5 829.6,329 				"/>
				<path class="st15" d="M829.5,321.6v7.4h-3.1v-7.4H829.5 M829.6,321.5h-3.4v7.6h3.4V321.5L829.6,321.5z"/>
			</g>
			<g>
				<g>
					<polygon class="st18" points="826.2,322.2 826.3,321.3 829.6,321.3 829.6,322.2 					"/>
					<path class="st15" d="M829.6,321.4v0.8h-3.3v-0.8H829.6 M829.6,321.3h-3.4v0.9h3.4V321.3L829.6,321.3z"/>
				</g>
				<g>
					<polygon class="st18" points="826.2,329.2 826.3,328.3 829.6,328.3 829.6,329.2 					"/>
					<path class="st15" d="M829.6,328.3v0.8h-3.3v-0.8H829.6 M829.6,328.3h-3.4v0.9h3.4V328.3L829.6,328.3z"/>
				</g>
			</g>
		</g>
	</g>
	<g>
		<g>
			<path class="st16" d="M832.4,338.8c-0.1,0-0.3-0.1-0.3-0.3v-1.3c0-0.1,0.1-0.3,0.3-0.3h2.3c0.1,0,0.3,0.1,0.3,0.3v1.3
				c0,0.1-0.1,0.3-0.3,0.3H832.4z"/>
			<path class="st15" d="M834.6,337c0.1,0,0.3,0.1,0.3,0.3v1.3c0,0.1-0.1,0.3-0.3,0.3h-2.3c-0.1,0-0.3-0.1-0.3-0.3v-1.3
				c0-0.1,0.1-0.3,0.3-0.3H834.6 M834.6,337h-2.3c-0.2,0-0.3,0.1-0.3,0.3v1.3c0,0.2,0.1,0.3,0.3,0.3h2.3c0.2,0,0.3-0.1,0.3-0.3v-1.3
				C834.9,337.1,834.8,337,834.6,337L834.6,337z"/>
		</g>
		<g>
			<path class="st16" d="M832.4,345.1c-0.1,0-0.3-0.1-0.3-0.3v-1.3c0-0.1,0.1-0.3,0.3-0.3h2.3c0.1,0,0.3,0.1,0.3,0.3v1.3
				c0,0.1-0.1,0.3-0.3,0.3H832.4z"/>
			<path class="st15" d="M834.6,343.3c0.1,0,0.3,0.1,0.3,0.3v1.3c0,0.1-0.1,0.3-0.3,0.3h-2.3c-0.1,0-0.3-0.1-0.3-0.3v-1.3
				c0-0.1,0.1-0.3,0.3-0.3H834.6 M834.6,343.3h-2.3c-0.2,0-0.3,0.1-0.3,0.3v1.3c0,0.2,0.1,0.3,0.3,0.3h2.3c0.2,0,0.3-0.1,0.3-0.3
				v-1.3C834.9,343.4,834.8,343.3,834.6,343.3L834.6,343.3z"/>
		</g>
		<g>
			<g>
				<polygon class="st26" points="832.3,344.5 832.4,337.7 834.7,337.7 834.6,344.5 				"/>
				<path class="st15" d="M834.6,337.8v6.7h-2.2v-6.7H834.6 M834.7,337.7h-2.3v6.9h2.3V337.7L834.7,337.7z"/>
			</g>
			<g>
				<g>
					<polygon class="st18" points="832.3,338.4 832.4,337.6 834.7,337.6 834.7,338.4 					"/>
					<path class="st15" d="M834.7,337.6v0.8h-2.3v-0.8H834.7 M834.7,337.6h-2.3v0.8h2.3V337.6L834.7,337.6z"/>
				</g>
				<g>
					<polygon class="st18" points="832.3,344.7 832.4,343.9 834.7,343.9 834.7,344.7 					"/>
					<path class="st15" d="M834.7,343.9v0.8h-2.3v-0.8H834.7 M834.7,343.9h-2.3v0.8h2.3V343.9L834.7,343.9z"/>
				</g>
			</g>
		</g>
	</g>
	<g>
		<g>
			<path class="st16" d="M832.4,328.4c-0.1,0-0.3-0.1-0.3-0.3v-1.3c0-0.1,0.1-0.3,0.3-0.3h2.3c0.1,0,0.3,0.1,0.3,0.3v1.3
				c0,0.1-0.1,0.3-0.3,0.3H832.4z"/>
			<path class="st15" d="M834.6,326.6c0.1,0,0.3,0.1,0.3,0.3v1.3c0,0.1-0.1,0.3-0.3,0.3h-2.3c-0.1,0-0.3-0.1-0.3-0.3v-1.3
				c0-0.1,0.1-0.3,0.3-0.3H834.6 M834.6,326.5h-2.3c-0.2,0-0.3,0.1-0.3,0.3v1.3c0,0.2,0.1,0.3,0.3,0.3h2.3c0.2,0,0.3-0.1,0.3-0.3
				v-1.3C834.9,326.7,834.8,326.5,834.6,326.5L834.6,326.5z"/>
		</g>
		<g>
			<path class="st16" d="M832.4,334.7c-0.1,0-0.3-0.1-0.3-0.3v-1.3c0-0.1,0.1-0.3,0.3-0.3h2.3c0.1,0,0.3,0.1,0.3,0.3v1.3
				c0,0.1-0.1,0.3-0.3,0.3H832.4z"/>
			<path class="st15" d="M834.6,332.9c0.1,0,0.3,0.1,0.3,0.3v1.3c0,0.1-0.1,0.3-0.3,0.3h-2.3c-0.1,0-0.3-0.1-0.3-0.3v-1.3
				c0-0.1,0.1-0.3,0.3-0.3H834.6 M834.6,332.8h-2.3c-0.2,0-0.3,0.1-0.3,0.3v1.3c0,0.2,0.1,0.3,0.3,0.3h2.3c0.2,0,0.3-0.1,0.3-0.3
				v-1.3C834.9,333,834.8,332.8,834.6,332.8L834.6,332.8z"/>
		</g>
		<g>
			<g>
				<polygon class="st26" points="832.3,334.1 832.4,327.2 834.7,327.3 834.6,334.1 				"/>
				<path class="st15" d="M834.6,327.3v6.7h-2.2v-6.7H834.6 M834.7,327.2h-2.3v6.9h2.3V327.2L834.7,327.2z"/>
			</g>
			<g>
				<g>
					<polygon class="st18" points="832.3,327.9 832.4,327.1 834.7,327.1 834.7,327.9 					"/>
					<path class="st15" d="M834.7,327.2v0.8h-2.3v-0.8H834.7 M834.7,327.1h-2.3v0.8h2.3V327.1L834.7,327.1z"/>
				</g>
				<g>
					<polygon class="st18" points="832.3,334.2 832.4,333.4 834.7,333.4 834.7,334.2 					"/>
					<path class="st15" d="M834.7,333.5v0.8h-2.3v-0.8H834.7 M834.7,333.4h-2.3v0.8h2.3V333.4L834.7,333.4z"/>
				</g>
			</g>
		</g>
	</g>
	<g>
		<g>
			<path class="st16" d="M666.1,343.7c-0.3,0-0.5-0.2-0.5-0.5v-4.6c0-0.3,0.2-0.5,0.5-0.5h1.9c0.3,0,0.5,0.2,0.5,0.5v4.6
				c0,0.3-0.2,0.5-0.5,0.5H666.1z"/>
			<path class="st15" d="M668,338.2c0.2,0,0.4,0.2,0.4,0.4v4.6c0,0.2-0.2,0.4-0.4,0.4h-1.9c-0.2,0-0.4-0.2-0.4-0.4v-4.6
				c0-0.2,0.2-0.4,0.4-0.4H668 M668,338.2h-1.9c-0.3,0-0.5,0.2-0.5,0.5v4.6c0,0.3,0.2,0.5,0.5,0.5h1.9c0.3,0,0.5-0.2,0.5-0.5v-4.6
				C668.5,338.4,668.3,338.2,668,338.2L668,338.2z"/>
		</g>
		<g>
			<path class="st16" d="M656.7,343.7c-0.3,0-0.5-0.2-0.5-0.5v-4.6c0-0.3,0.2-0.5,0.5-0.5h1.9c0.3,0,0.5,0.2,0.5,0.5v4.6
				c0,0.3-0.2,0.5-0.5,0.5H656.7z"/>
			<path class="st15" d="M658.5,338.2c0.2,0,0.4,0.2,0.4,0.4v4.6c0,0.2-0.2,0.4-0.4,0.4h-1.9c-0.2,0-0.4-0.2-0.4-0.4v-4.6
				c0-0.2,0.2-0.4,0.4-0.4H658.5 M658.5,338.2h-1.9c-0.3,0-0.5,0.2-0.5,0.5v4.6c0,0.3,0.2,0.5,0.5,0.5h1.9c0.3,0,0.5-0.2,0.5-0.5
				v-4.6C659,338.4,658.8,338.2,658.5,338.2L658.5,338.2z"/>
		</g>
		<g>
			<g>
				<rect x="657.1" y="338.7" class="st26" width="10.2" height="4.5"/>
				<path class="st15" d="M667.3,338.8v4.3h-10v-4.3H667.3 M667.4,338.7h-10.3v4.6h10.3V338.7L667.4,338.7z"/>
			</g>
			<g>
				<g>
					<polygon class="st18" points="666.4,343.3 666.4,338.7 667.6,338.7 667.6,343.3 					"/>
					<path class="st15" d="M667.6,338.7v4.5h-1.1v-4.5H667.6 M667.6,338.7h-1.2v4.6h1.2V338.7L667.6,338.7z"/>
				</g>
				<g>
					<polygon class="st18" points="656.9,343.3 656.9,338.7 658.1,338.7 658.1,343.3 					"/>
					<path class="st15" d="M658.1,338.7v4.5H657v-4.5H658.1 M658.1,338.7h-1.2v4.6h1.2V338.7L658.1,338.7z"/>
				</g>
			</g>
		</g>
	</g>
	<g>
		<g>
			<path class="st16" d="M662.2,327.2c-0.3,0-0.5-0.2-0.5-0.5v-1.9c0-0.3,0.2-0.5,0.5-0.5h4.6c0.3,0,0.5,0.2,0.5,0.5v1.9
				c0,0.3-0.2,0.5-0.5,0.5H662.2z"/>
			<path class="st15" d="M666.7,324.4c0.2,0,0.4,0.2,0.4,0.4v1.9c0,0.2-0.2,0.4-0.4,0.4h-4.6c-0.2,0-0.4-0.2-0.4-0.4v-1.9
				c0-0.2,0.2-0.4,0.4-0.4H666.7 M666.7,324.3h-4.6c-0.3,0-0.5,0.2-0.5,0.5v1.9c0,0.3,0.2,0.5,0.5,0.5h4.6c0.3,0,0.5-0.2,0.5-0.5
				v-1.9C667.2,324.6,667,324.3,666.7,324.3L666.7,324.3z"/>
		</g>
		<g>
			<path class="st16" d="M662.2,336.6c-0.3,0-0.5-0.2-0.5-0.5v-1.9c0-0.3,0.2-0.5,0.5-0.5h4.6c0.3,0,0.5,0.2,0.5,0.5v1.9
				c0,0.3-0.2,0.5-0.5,0.5H662.2z"/>
			<path class="st15" d="M666.7,333.9c0.2,0,0.4,0.2,0.4,0.4v1.9c0,0.2-0.2,0.4-0.4,0.4h-4.6c-0.2,0-0.4-0.2-0.4-0.4v-1.9
				c0-0.2,0.2-0.4,0.4-0.4H666.7 M666.7,333.8h-4.6c-0.3,0-0.5,0.2-0.5,0.5v1.9c0,0.3,0.2,0.5,0.5,0.5h4.6c0.3,0,0.5-0.2,0.5-0.5
				v-1.9C667.2,334,667,333.8,666.7,333.8L666.7,333.8z"/>
		</g>
		<g>
			<g>
				<rect x="662.2" y="325.5" class="st26" width="4.5" height="10.2"/>
				<path class="st15" d="M666.6,325.6v10h-4.3v-10H666.6 M666.8,325.4h-4.6v10.3h4.6V325.4L666.8,325.4z"/>
			</g>
			<g>
				<g>
					<polygon class="st18" points="662.1,326.4 662.2,325.2 666.8,325.2 666.7,326.4 					"/>
					<path class="st15" d="M666.7,325.3v1.1h-4.5v-1.1H666.7 M666.8,325.2h-4.6v1.2h4.6V325.2L666.8,325.2z"/>
				</g>
				<g>
					<polygon class="st18" points="662.1,335.9 662.2,334.7 666.8,334.7 666.7,335.9 					"/>
					<path class="st15" d="M666.7,334.8v1.1h-4.5v-1.1H666.7 M666.8,334.7h-4.6v1.2h4.6V334.7L666.8,334.7z"/>
				</g>
			</g>
		</g>
	</g>
	<g>
		<g>
			<path class="st16" d="M637.5,285.4c-0.3,0-0.5-0.2-0.5-0.5V283c0-0.3,0.2-0.5,0.5-0.5h4.6c0.3,0,0.5,0.2,0.5,0.5v1.9
				c0,0.3-0.2,0.5-0.5,0.5H637.5z"/>
			<path class="st15" d="M642.1,282.6c0.2,0,0.4,0.2,0.4,0.4v1.9c0,0.2-0.2,0.4-0.4,0.4h-4.6c-0.2,0-0.4-0.2-0.4-0.4V283
				c0-0.2,0.2-0.4,0.4-0.4H642.1 M642.1,282.5h-4.6c-0.3,0-0.5,0.2-0.5,0.5v1.9c0,0.3,0.2,0.5,0.5,0.5h4.6c0.3,0,0.5-0.2,0.5-0.5
				V283C642.6,282.8,642.4,282.5,642.1,282.5L642.1,282.5z"/>
		</g>
		<g>
			<path class="st16" d="M637.5,294.8c-0.3,0-0.5-0.2-0.5-0.5v-1.9c0-0.3,0.2-0.5,0.5-0.5h4.6c0.3,0,0.5,0.2,0.5,0.5v1.9
				c0,0.3-0.2,0.5-0.5,0.5H637.5z"/>
			<path class="st15" d="M642.1,292.1c0.2,0,0.4,0.2,0.4,0.4v1.9c0,0.2-0.2,0.4-0.4,0.4h-4.6c-0.2,0-0.4-0.2-0.4-0.4v-1.9
				c0-0.2,0.2-0.4,0.4-0.4H642.1 M642.1,292h-4.6c-0.3,0-0.5,0.2-0.5,0.5v1.9c0,0.3,0.2,0.5,0.5,0.5h4.6c0.3,0,0.5-0.2,0.5-0.5v-1.9
				C642.6,292.2,642.4,292,642.1,292L642.1,292z"/>
		</g>
		<g>
			<g>
				<rect x="637.6" y="283.7" class="st26" width="4.5" height="10.2"/>
				<path class="st15" d="M642,283.8v10h-4.3v-10H642 M642.1,283.6h-4.6v10.3h4.6V283.6L642.1,283.6z"/>
			</g>
			<g>
				<g>
					<polygon class="st18" points="637.5,284.6 637.6,283.4 642.1,283.4 642.1,284.6 					"/>
					<path class="st15" d="M642.1,283.5v1.1h-4.5v-1.1H642.1 M642.1,283.4h-4.6v1.2h4.6V283.4L642.1,283.4z"/>
				</g>
				<g>
					<polygon class="st18" points="637.5,294.1 637.6,292.9 642.1,292.9 642.1,294.1 					"/>
					<path class="st15" d="M642.1,293v1.1h-4.5V293H642.1 M642.1,292.9h-4.6v1.2h4.6V292.9L642.1,292.9z"/>
				</g>
			</g>
		</g>
	</g>
	<g>
		<g>
			<path class="st16" d="M640,216.7c-0.3,0-0.5-0.2-0.5-0.5v-1.9c0-0.3,0.2-0.5,0.5-0.5h4.6c0.3,0,0.5,0.2,0.5,0.5v1.9
				c0,0.3-0.2,0.5-0.5,0.5H640z"/>
			<path class="st15" d="M644.6,213.9c0.2,0,0.4,0.2,0.4,0.4v1.9c0,0.2-0.2,0.4-0.4,0.4H640c-0.2,0-0.4-0.2-0.4-0.4v-1.9
				c0-0.2,0.2-0.4,0.4-0.4H644.6 M644.6,213.9H640c-0.3,0-0.5,0.2-0.5,0.5v1.9c0,0.3,0.2,0.5,0.5,0.5h4.6c0.3,0,0.5-0.2,0.5-0.5
				v-1.9C645.1,214.1,644.8,213.9,644.6,213.9L644.6,213.9z"/>
		</g>
		<g>
			<path class="st16" d="M640,226.1c-0.3,0-0.5-0.2-0.5-0.5v-1.9c0-0.3,0.2-0.5,0.5-0.5h4.6c0.3,0,0.5,0.2,0.5,0.5v1.9
				c0,0.3-0.2,0.5-0.5,0.5H640z"/>
			<path class="st15" d="M644.6,223.4c0.2,0,0.4,0.2,0.4,0.4v1.9c0,0.2-0.2,0.4-0.4,0.4H640c-0.2,0-0.4-0.2-0.4-0.4v-1.9
				c0-0.2,0.2-0.4,0.4-0.4H644.6 M644.6,223.3H640c-0.3,0-0.5,0.2-0.5,0.5v1.9c0,0.3,0.2,0.5,0.5,0.5h4.6c0.3,0,0.5-0.2,0.5-0.5
				v-1.9C645.1,223.5,644.8,223.3,644.6,223.3L644.6,223.3z"/>
		</g>
		<g>
			<g>
				<rect x="640.1" y="215" class="st26" width="4.5" height="10.2"/>
				<path class="st15" d="M644.4,215.1v10h-4.3v-10H644.4 M644.6,214.9H640v10.3h4.6V214.9L644.6,214.9z"/>
			</g>
			<g>
				<g>
					<polygon class="st18" points="640,215.9 640,214.7 644.6,214.8 644.6,215.9 					"/>
					<path class="st15" d="M644.5,214.8v1.1H640v-1.1H644.5 M644.6,214.7H640v1.2h4.6V214.7L644.6,214.7z"/>
				</g>
				<g>
					<polygon class="st18" points="640,225.4 640,224.2 644.6,224.3 644.6,225.4 					"/>
					<path class="st15" d="M644.5,224.3v1.1H640v-1.1H644.5 M644.6,224.2H640v1.2h4.6V224.2L644.6,224.2z"/>
				</g>
			</g>
		</g>
	</g>
	<line class="st27" x1="634.3" y1="295.5" x2="634.3" y2="263.6"/>
	<line class="st27" x1="819.1" y1="315.3" x2="819.1" y2="306.6"/>
	<line class="st27" x1="709.9" y1="363.3" x2="709.9" y2="354.6"/>
	<line class="st27" x1="709.9" y1="306" x2="709.9" y2="297.3"/>
	<line class="st27" x1="819.1" y1="258.1" x2="819.1" y2="249.5"/>
	<line class="st27" x1="622.6" y1="246.8" x2="590.8" y2="246.8"/>
	<line class="st27" x1="644.7" y1="357.8" x2="644.7" y2="311"/>
	<line class="st27" x1="590.9" y1="310.7" x2="644.7" y2="310.7"/>
	<line class="st27" x1="634.3" y1="243.3" x2="634.3" y2="211.4"/>
	<rect x="725.3" y="335.2" class="st15" width="37.7" height="34.8"/>
	<g>
		<g>
			<rect x="799.7" y="306.1" class="st16" width="13.4" height="11.2"/>
			<rect x="800.7" y="306.1" class="st23" width="11.5" height="11.2"/>
		</g>
		<polygon class="st28" points="811.8,309.5 811.8,314 808.6,317.2 804.1,317.2 801,314 801,309.5 804.1,306.3 808.6,306.3 		"/>
	</g>
	<g>
		<g>
			<rect x="816.2" y="332" class="st16" width="13.4" height="11.2"/>
			<rect x="817.2" y="332" class="st23" width="11.5" height="11.2"/>
		</g>
		<polygon class="st28" points="828.4,335.3 828.4,339.8 825.2,343 820.7,343 817.5,339.8 817.5,335.3 820.7,332.1 825.2,332.1 		
			"/>
	</g>
	<g>
		<g>
			<rect x="789" y="315.6" class="st16" width="7.2" height="10.7"/>
			<rect x="789" y="316.4" class="st23" width="7.2" height="9.1"/>
		</g>
		<polygon class="st29" points="791.1,316.6 794,316.6 796.1,319.2 796.1,322.7 794,325.3 791.1,325.3 789.1,322.7 789.1,319.2 		
			"/>
	</g>
	<g>
		<rect x="579.4" y="341.3" class="st17" width="62.8" height="17.2"/>
		<path class="st5" d="M641.8,341.6v16.6h-62.1v-16.6H641.8 M642.5,341h-63.4v17.8h63.4V341L642.5,341z"/>
	</g>
	<g>
		<rect x="579.4" y="311.2" class="st17" width="62.7" height="17.4"/>
		<path class="st5" d="M641.8,311.5v16.8h-62.1v-16.8H641.8 M642.5,310.8h-63.4v18h63.4V310.8L642.5,310.8z"/>
	</g>
	<g>
		<rect x="580.9" y="260.3" class="st17" width="49.1" height="38.4"/>
		<path class="st15" d="M629.5,260.8v37.4h-48.1v-37.4H629.5 M630.5,259.8h-50.1v39.4h50.1V259.8L630.5,259.8z"/>
	</g>
	<g>
		<rect x="580.4" y="296.6" class="st15" width="50.1" height="2.6"/>
	</g>
	<g>
		<rect x="580.4" y="259.7" class="st30" width="50.1" height="2.6"/>
	</g>
	<g>
		<g>
			<rect x="817.4" y="328.9" class="st16" width="0.7" height="2.5"/>
			<rect x="816.2" y="328.9" class="st16" width="0.7" height="2.5"/>
			<rect x="814.9" y="328.9" class="st16" width="0.7" height="2.5"/>
			<rect x="813.7" y="328.9" class="st16" width="0.7" height="2.5"/>
			<rect x="812.5" y="328.9" class="st16" width="0.7" height="2.5"/>
			<rect x="811.3" y="328.9" class="st16" width="0.7" height="2.5"/>
		</g>
		<g>
			<rect x="817.4" y="318.6" class="st16" width="0.7" height="2.5"/>
			<rect x="816.2" y="318.6" class="st16" width="0.7" height="2.5"/>
			<rect x="814.9" y="318.6" class="st16" width="0.7" height="2.5"/>
			<rect x="813.7" y="318.6" class="st16" width="0.7" height="2.5"/>
			<rect x="812.5" y="318.6" class="st16" width="0.7" height="2.5"/>
			<rect x="811.3" y="318.6" class="st16" width="0.7" height="2.5"/>
		</g>
		<g>
			<polygon class="st19" points="810.2,329.6 810.2,321 819.2,321 819.2,329.6 			"/>
			<path class="st15" d="M819.2,321.1v8.4h-8.9v-8.4H819.2 M819.2,321h-9.1v8.6h9.1V321L819.2,321z"/>
		</g>
	</g>
	<g>
		<rect x="776.9" y="349.7" class="st16" width="1.9" height="4.1"/>
		<g>
			<rect x="779.7" y="357.1" class="st16" width="1.9" height="2.9"/>
			<rect x="774.2" y="357.1" class="st16" width="1.9" height="2.9"/>
		</g>
		<g>
			<polygon class="st19" points="773.7,357.3 773.7,353.6 782.2,353.6 782.1,357.3 			"/>
			<path class="st15" d="M782.1,353.7v3.6h-8.4v-3.6H782.1 M782.2,353.6h-8.5v3.7h8.5V353.6L782.2,353.6z"/>
		</g>
	</g>
	<g>
		<rect x="776.5" y="337.7" class="st16" width="4.1" height="1.9"/>
		<g>
			<rect x="770.3" y="340.5" class="st16" width="2.9" height="1.9"/>
			<rect x="770.3" y="335" class="st16" width="2.9" height="1.9"/>
		</g>
		<g>
			<polygon class="st19" points="773,342.9 773,334.4 776.7,334.4 776.7,342.9 			"/>
			<path class="st15" d="M776.7,334.5v8.4H773v-8.4H776.7 M776.7,334.4H773v8.5h3.7V334.4L776.7,334.4z"/>
		</g>
	</g>
	<g>
		<rect x="690.2" y="322.6" class="st16" width="1.9" height="4.1"/>
		<g>
			<rect x="687.5" y="316.4" class="st16" width="1.9" height="2.9"/>
			<rect x="693" y="316.4" class="st16" width="1.9" height="2.9"/>
		</g>
		<g>
			<polygon class="st19" points="686.9,322.7 687,319 695.4,319.1 695.4,322.7 			"/>
			<path class="st15" d="M695.4,319.1v3.6H687v-3.6H695.4 M695.4,319h-8.5v3.7h8.5V319L695.4,319z"/>
		</g>
	</g>
	<g>
		<rect x="673.1" y="236.4" class="st16" width="4.1" height="1.9"/>
		<g>
			<rect x="666.9" y="239.2" class="st16" width="2.9" height="1.9"/>
			<rect x="667" y="233.7" class="st16" width="2.9" height="1.9"/>
		</g>
		<g>
			<polygon class="st19" points="669.6,241.6 669.6,233.1 673.3,233.2 673.3,241.6 			"/>
			<path class="st15" d="M673.3,233.2v8.4h-3.6v-8.4H673.3 M673.3,233.1h-3.7v8.5h3.7V233.1L673.3,233.1z"/>
		</g>
	</g>
	<g>
		<g>
			<rect x="652.1" y="239" class="st16" width="2.9" height="1.9"/>
			<rect x="652.1" y="236.2" class="st16" width="2.9" height="1.9"/>
			<rect x="652.1" y="233.5" class="st16" width="2.9" height="1.9"/>
		</g>
		<g>
			<rect x="658.1" y="239" class="st16" width="2.9" height="1.9"/>
			<rect x="658.1" y="236.2" class="st16" width="2.9" height="1.9"/>
			<rect x="658.1" y="233.5" class="st16" width="2.9" height="1.9"/>
		</g>
		<g>
			<polygon class="st19" points="654.7,241.4 654.7,232.9 658.4,233 658.4,241.4 			"/>
			<path class="st15" d="M658.4,233v8.4h-3.6V233H658.4 M658.4,232.9h-3.7v8.5h3.7V232.9L658.4,232.9z"/>
		</g>
	</g>
	<g>
		<g>
			<rect x="671.8" y="315.2" class="st16" width="1.3" height="3.1"/>
			<rect x="669.9" y="315.2" class="st16" width="1.3" height="3.1"/>
			<rect x="668" y="315.2" class="st16" width="1.3" height="3.1"/>
		</g>
		<g>
			<rect x="671.8" y="308.8" class="st16" width="1.3" height="3.1"/>
			<rect x="669.9" y="308.8" class="st16" width="1.3" height="3.1"/>
			<rect x="668" y="308.8" class="st16" width="1.3" height="3.1"/>
		</g>
		<g>
			<polygon class="st19" points="667.6,315.5 667.6,311.5 673.5,311.6 673.4,315.5 			"/>
			<path class="st15" d="M673.4,311.6v3.9h-5.7v-3.9H673.4 M673.5,311.5h-5.8v3.9h5.8V311.5L673.5,311.5z"/>
		</g>
	</g>
	<g>
		<g>
			<rect x="684" y="318.8" class="st16" width="1.3" height="3.1"/>
			<rect x="682.1" y="318.8" class="st16" width="1.3" height="3.1"/>
			<rect x="680.1" y="318.8" class="st16" width="1.3" height="3.1"/>
		</g>
		<g>
			<rect x="684" y="312.5" class="st16" width="1.3" height="3.1"/>
			<rect x="680.1" y="312.5" class="st16" width="1.3" height="3.1"/>
		</g>
		<g>
			<polygon class="st19" points="679.8,319.1 679.8,315.2 685.6,315.2 685.6,319.1 			"/>
			<path class="st15" d="M685.6,315.2v3.9h-5.7v-3.9H685.6 M685.6,315.2h-5.8v3.9h5.8V315.2L685.6,315.2z"/>
		</g>
	</g>
	<g>
		<g>
			<g>
				<path class="st23" d="M599.8,284.3v7.9l-16.3-1.7V286L599.8,284.3 M600.7,283.2l-18.3,1.9v6.3l18.3,1.9V283.2L600.7,283.2z"/>
			</g>
			<g>
				<path class="st23" d="M599.8,266.8v7.9l-16.3-1.7v-4.5L599.8,266.8 M600.7,265.7l-18.3,1.9v6.3l18.3,1.9V265.7L600.7,265.7z"/>
			</g>
		</g>
		<g>
			<rect x="598.6" y="262.8" class="st17" width="6" height="33.3"/>
		</g>
	</g>
	<g>
		<rect x="580.9" y="204.9" class="st17" width="49.1" height="38.4"/>
		<path class="st15" d="M629.5,205.4v37.4h-48.1v-37.4H629.5 M630.5,204.5h-50.1v39.4h50.1V204.5L630.5,204.5z"/>
	</g>
	<g>
		<g>
			<g>
				<path class="st23" d="M599.8,228.9v7.9l-16.3-1.7v-4.5L599.8,228.9 M600.7,227.8l-18.3,1.9v6.3l18.3,1.9V227.8L600.7,227.8z"/>
			</g>
			<g>
				<path class="st23" d="M599.8,211.5v7.9l-16.3-1.7v-4.5L599.8,211.5 M600.7,210.4l-18.3,1.9v6.3l18.3,1.9V210.4L600.7,210.4z"/>
			</g>
		</g>
		<g>
			<rect x="598.6" y="207.5" class="st17" width="6" height="33.3"/>
		</g>
	</g>
	<rect x="671.3" y="363.1" class="st19" width="16" height="8.5"/>
	<rect x="669.5" y="329.6" class="st16" width="19.7" height="32.5"/>
	<rect x="669.4" y="329.7" class="st8" width="19.7" height="7.4"/>
	<rect x="669.2" y="361.8" class="st23" width="20.9" height="3"/>
	<g>
		<rect x="580.4" y="241.2" class="st15" width="50.1" height="2.6"/>
	</g>
	<g>
		<rect x="580.4" y="204.3" class="st30" width="50.1" height="2.6"/>
	</g>
	<path class="st31" d="M744.1,212.1v137.3c0,4.6,3.8,8.4,8.4,8.4h71.4c4.6,0,8.4-3.8,8.4-8.4V212.1c0-4.6-3.8-8.4-8.4-8.4h-71.4
		C747.9,203.7,744.1,207.5,744.1,212.1z"/>
	<path class="st18" d="M832.3,198.1H591.9c-4.6,0-8.4,3.8-8.4,8.4v151.3c0,4.6,3.8,8.4,8.4,8.4h240.4c4.6,0,8.4-3.8,8.4-8.4V206.5
		C840.8,201.9,837,198.1,832.3,198.1z M769.7,350.5c0.7,0,1.3,0.6,1.3,1.3c0,0.7-0.6,1.3-1.3,1.3h-17.9c-0.7,0-1.3-0.6-1.3-1.3
		c0-0.7,0.6-1.3,1.3-1.3H769.7z M796.9,350.5c0.7,0,1.3,0.6,1.3,1.3c0,0.7-0.6,1.3-1.3,1.3H779c-0.7,0-1.3-0.6-1.3-1.3
		c0-0.7,0.6-1.3,1.3-1.3H796.9z M824.2,350.5c0.7,0,1.3,0.6,1.3,1.3c0,0.7-0.6,1.3-1.3,1.3h-17.9c-0.7,0-1.3-0.6-1.3-1.3
		c0-0.7,0.6-1.3,1.3-1.3H824.2z M769.7,341.1c0.7,0,1.3,0.6,1.3,1.3c0,0.7-0.6,1.3-1.3,1.3h-17.9c-0.7,0-1.3-0.6-1.3-1.3
		c0-0.7,0.6-1.3,1.3-1.3H769.7z M796.9,341.1c0.7,0,1.3,0.6,1.3,1.3c0,0.7-0.6,1.3-1.3,1.3H779c-0.7,0-1.3-0.6-1.3-1.3
		c0-0.7,0.6-1.3,1.3-1.3H796.9z M824.2,341.1c0.7,0,1.3,0.6,1.3,1.3c0,0.7-0.6,1.3-1.3,1.3h-17.9c-0.7,0-1.3-0.6-1.3-1.3
		c0-0.7,0.6-1.3,1.3-1.3H824.2z M769.7,331.7c0.7,0,1.3,0.6,1.3,1.3c0,0.7-0.6,1.3-1.3,1.3h-17.9c-0.7,0-1.3-0.6-1.3-1.3
		c0-0.7,0.6-1.3,1.3-1.3H769.7z M796.9,331.7c0.7,0,1.3,0.6,1.3,1.3c0,0.7-0.6,1.3-1.3,1.3H779c-0.7,0-1.3-0.6-1.3-1.3
		c0-0.7,0.6-1.3,1.3-1.3H796.9z M824.2,331.7c0.7,0,1.3,0.6,1.3,1.3c0,0.7-0.6,1.3-1.3,1.3h-17.9c-0.7,0-1.3-0.6-1.3-1.3
		c0-0.7,0.6-1.3,1.3-1.3H824.2z M769.7,322.3c0.7,0,1.3,0.6,1.3,1.3s-0.6,1.3-1.3,1.3h-17.9c-0.7,0-1.3-0.6-1.3-1.3s0.6-1.3,1.3-1.3
		H769.7z M796.9,322.3c0.7,0,1.3,0.6,1.3,1.3s-0.6,1.3-1.3,1.3H779c-0.7,0-1.3-0.6-1.3-1.3s0.6-1.3,1.3-1.3H796.9z M824.2,322.3
		c0.7,0,1.3,0.6,1.3,1.3s-0.6,1.3-1.3,1.3h-17.9c-0.7,0-1.3-0.6-1.3-1.3s0.6-1.3,1.3-1.3H824.2z M769.7,312.9c0.7,0,1.3,0.6,1.3,1.3
		c0,0.7-0.6,1.3-1.3,1.3h-17.9c-0.7,0-1.3-0.6-1.3-1.3c0-0.7,0.6-1.3,1.3-1.3H769.7z M796.9,312.9c0.7,0,1.3,0.6,1.3,1.3
		c0,0.7-0.6,1.3-1.3,1.3H779c-0.7,0-1.3-0.6-1.3-1.3c0-0.7,0.6-1.3,1.3-1.3H796.9z M824.2,312.9c0.7,0,1.3,0.6,1.3,1.3
		c0,0.7-0.6,1.3-1.3,1.3h-17.9c-0.7,0-1.3-0.6-1.3-1.3c0-0.7,0.6-1.3,1.3-1.3H824.2z M769.7,303.4c0.7,0,1.3,0.6,1.3,1.3
		c0,0.7-0.6,1.3-1.3,1.3h-17.9c-0.7,0-1.3-0.6-1.3-1.3c0-0.7,0.6-1.3,1.3-1.3H769.7z M796.9,303.4c0.7,0,1.3,0.6,1.3,1.3
		c0,0.7-0.6,1.3-1.3,1.3H779c-0.7,0-1.3-0.6-1.3-1.3c0-0.7,0.6-1.3,1.3-1.3H796.9z M824.2,303.4c0.7,0,1.3,0.6,1.3,1.3
		c0,0.7-0.6,1.3-1.3,1.3h-17.9c-0.7,0-1.3-0.6-1.3-1.3c0-0.7,0.6-1.3,1.3-1.3H824.2z M769.7,294c0.7,0,1.3,0.6,1.3,1.3
		c0,0.7-0.6,1.3-1.3,1.3h-17.9c-0.7,0-1.3-0.6-1.3-1.3c0-0.7,0.6-1.3,1.3-1.3H769.7z M796.9,294c0.7,0,1.3,0.6,1.3,1.3
		c0,0.7-0.6,1.3-1.3,1.3H779c-0.7,0-1.3-0.6-1.3-1.3c0-0.7,0.6-1.3,1.3-1.3H796.9z M824.2,294c0.7,0,1.3,0.6,1.3,1.3
		c0,0.7-0.6,1.3-1.3,1.3h-17.9c-0.7,0-1.3-0.6-1.3-1.3c0-0.7,0.6-1.3,1.3-1.3H824.2z M769.7,284.6c0.7,0,1.3,0.6,1.3,1.3
		c0,0.7-0.6,1.3-1.3,1.3h-17.9c-0.7,0-1.3-0.6-1.3-1.3c0-0.7,0.6-1.3,1.3-1.3H769.7z M796.9,284.6c0.7,0,1.3,0.6,1.3,1.3
		c0,0.7-0.6,1.3-1.3,1.3H779c-0.7,0-1.3-0.6-1.3-1.3c0-0.7,0.6-1.3,1.3-1.3H796.9z M824.2,284.6c0.7,0,1.3,0.6,1.3,1.3
		c0,0.7-0.6,1.3-1.3,1.3h-17.9c-0.7,0-1.3-0.6-1.3-1.3c0-0.7,0.6-1.3,1.3-1.3H824.2z M769.7,275.2c0.7,0,1.3,0.6,1.3,1.3
		c0,0.7-0.6,1.3-1.3,1.3h-17.9c-0.7,0-1.3-0.6-1.3-1.3c0-0.7,0.6-1.3,1.3-1.3H769.7z M796.9,275.2c0.7,0,1.3,0.6,1.3,1.3
		c0,0.7-0.6,1.3-1.3,1.3H779c-0.7,0-1.3-0.6-1.3-1.3c0-0.7,0.6-1.3,1.3-1.3H796.9z M824.2,275.2c0.7,0,1.3,0.6,1.3,1.3
		c0,0.7-0.6,1.3-1.3,1.3h-17.9c-0.7,0-1.3-0.6-1.3-1.3c0-0.7,0.6-1.3,1.3-1.3H824.2z M769.7,265.8c0.7,0,1.3,0.6,1.3,1.3
		c0,0.7-0.6,1.3-1.3,1.3h-17.9c-0.7,0-1.3-0.6-1.3-1.3c0-0.7,0.6-1.3,1.3-1.3H769.7z M796.9,265.8c0.7,0,1.3,0.6,1.3,1.3
		c0,0.7-0.6,1.3-1.3,1.3H779c-0.7,0-1.3-0.6-1.3-1.3c0-0.7,0.6-1.3,1.3-1.3H796.9z M824.2,265.8c0.7,0,1.3,0.6,1.3,1.3
		c0,0.7-0.6,1.3-1.3,1.3h-17.9c-0.7,0-1.3-0.6-1.3-1.3c0-0.7,0.6-1.3,1.3-1.3H824.2z M769.7,256.4c0.7,0,1.3,0.6,1.3,1.3
		c0,0.7-0.6,1.3-1.3,1.3h-17.9c-0.7,0-1.3-0.6-1.3-1.3c0-0.7,0.6-1.3,1.3-1.3H769.7z M796.9,256.4c0.7,0,1.3,0.6,1.3,1.3
		c0,0.7-0.6,1.3-1.3,1.3H779c-0.7,0-1.3-0.6-1.3-1.3c0-0.7,0.6-1.3,1.3-1.3H796.9z M824.2,256.4c0.7,0,1.3,0.6,1.3,1.3
		c0,0.7-0.6,1.3-1.3,1.3h-17.9c-0.7,0-1.3-0.6-1.3-1.3c0-0.7,0.6-1.3,1.3-1.3H824.2z M769.7,247c0.7,0,1.3,0.6,1.3,1.3
		s-0.6,1.3-1.3,1.3h-17.9c-0.7,0-1.3-0.6-1.3-1.3s0.6-1.3,1.3-1.3H769.7z M796.9,247c0.7,0,1.3,0.6,1.3,1.3s-0.6,1.3-1.3,1.3H779
		c-0.7,0-1.3-0.6-1.3-1.3s0.6-1.3,1.3-1.3H796.9z M824.2,247c0.7,0,1.3,0.6,1.3,1.3s-0.6,1.3-1.3,1.3h-17.9c-0.7,0-1.3-0.6-1.3-1.3
		s0.6-1.3,1.3-1.3H824.2z M769.7,237.6c0.7,0,1.3,0.6,1.3,1.3s-0.6,1.3-1.3,1.3h-17.9c-0.7,0-1.3-0.6-1.3-1.3s0.6-1.3,1.3-1.3H769.7
		z M796.9,237.6c0.7,0,1.3,0.6,1.3,1.3s-0.6,1.3-1.3,1.3H779c-0.7,0-1.3-0.6-1.3-1.3s0.6-1.3,1.3-1.3H796.9z M824.2,237.6
		c0.7,0,1.3,0.6,1.3,1.3s-0.6,1.3-1.3,1.3h-17.9c-0.7,0-1.3-0.6-1.3-1.3s0.6-1.3,1.3-1.3H824.2z M769.7,228.2c0.7,0,1.3,0.6,1.3,1.3
		l0,0c0,0.7-0.6,1.3-1.3,1.3h-17.9c-0.7,0-1.3-0.6-1.3-1.3l0,0c0-0.7,0.6-1.3,1.3-1.3H769.7z M796.9,228.2c0.7,0,1.3,0.6,1.3,1.3
		l0,0c0,0.7-0.6,1.3-1.3,1.3H779c-0.7,0-1.3-0.6-1.3-1.3l0,0c0-0.7,0.6-1.3,1.3-1.3H796.9z M824.2,228.2c0.7,0,1.3,0.6,1.3,1.3l0,0
		c0,0.7-0.6,1.3-1.3,1.3h-17.9c-0.7,0-1.3-0.6-1.3-1.3l0,0c0-0.7,0.6-1.3,1.3-1.3H824.2z M769.7,218.7c0.7,0,1.3,0.6,1.3,1.3
		s-0.6,1.3-1.3,1.3h-17.9c-0.7,0-1.3-0.6-1.3-1.3s0.6-1.3,1.3-1.3H769.7z M796.9,218.7c0.7,0,1.3,0.6,1.3,1.3s-0.6,1.3-1.3,1.3H779
		c-0.7,0-1.3-0.6-1.3-1.3s0.6-1.3,1.3-1.3H796.9z M824.2,218.7c0.7,0,1.3,0.6,1.3,1.3s-0.6,1.3-1.3,1.3h-17.9
		c-0.7,0-1.3-0.6-1.3-1.3s0.6-1.3,1.3-1.3H824.2z M769.7,209.3c0.7,0,1.3,0.6,1.3,1.3s-0.6,1.3-1.3,1.3h-17.9
		c-0.7,0-1.3-0.6-1.3-1.3s0.6-1.3,1.3-1.3H769.7z M796.9,209.3c0.7,0,1.3,0.6,1.3,1.3s-0.6,1.3-1.3,1.3H779c-0.7,0-1.3-0.6-1.3-1.3
		s0.6-1.3,1.3-1.3H796.9z M824.2,209.3c0.7,0,1.3,0.6,1.3,1.3s-0.6,1.3-1.3,1.3h-17.9c-0.7,0-1.3-0.6-1.3-1.3s0.6-1.3,1.3-1.3H824.2
		z"/>
	<path class="st32" d="M586.3,209.2v146c0,4.5,3.6,8.1,8.1,8.1h235.2c4.5,0,8.1-3.6,8.1-8.1v-146c0-4.5-3.6-8.1-8.1-8.1H594.4
		C589.9,201.1,586.3,204.7,586.3,209.2z"/>
</g>
<path class="st10" d="M485.1,171.8H478V98.1c0-26.9-22.4-48.9-49.7-48.9h-7.2c-27.3,0-49.7,22-49.7,48.9v73.6h-7.1
	c-1.4,0-2.6,1.1-2.6,2.5v14.5c0,1.4,1.2,2.5,2.6,2.5h0.8v2.2V254c0,14.6,10.2,27.8,25.2,32.9v1.1c0,11.6,10.4,21.1,23.2,21.1h22.3
	c12.8,0,23.2-9.5,23.2-21.1v-1c15-5.1,25.2-18.3,25.2-32.9v-60.6v-2.2h0.8c1.4,0,2.6-1.1,2.6-2.5v-14.5
	C487.7,172.9,486.6,171.8,485.1,171.8z"/>
<g>
	
		<radialGradient id="SVGID_6_" cx="458.9858" cy="169.0149" r="77.7274" gradientTransform="matrix(0.9819 0 0 -0.94 -29.7782 292.624)" gradientUnits="userSpaceOnUse">
		<stop  offset="0" style="stop-color:#FFFFFF"/>
		<stop  offset="0.4453" style="stop-color:#FFFFFF"/>
		<stop  offset="0.5364" style="stop-color:#FAF7DB"/>
		<stop  offset="0.658" style="stop-color:#F5EFB2"/>
		<stop  offset="0.7684" style="stop-color:#F1E894"/>
		<stop  offset="0.8628" style="stop-color:#EFE482"/>
		<stop  offset="0.9301" style="stop-color:#EEE37B"/>
	</radialGradient>
	<path class="st33" d="M424.5,223.6h-7.2c-27.3,0-35-26.1-49.7-49.6V93.5c0-27.3,22.4-49.6,49.7-49.6h7.2
		c27.3,0,49.7,22.3,49.7,49.6V174C458.5,198.5,451.9,223.6,424.5,223.6z"/>
	<g>
		<path class="st34" d="M481.3,188H360.6c-1.4,0-2.6-1.2-2.6-2.6v-14.7c0-1.4,1.2-2.6,2.6-2.6h120.8c1.4,0,2.6,1.2,2.6,2.6v14.7
			C483.9,186.8,482.8,188,481.3,188z"/>
		<g>
			<g>
				<g>
					
						<linearGradient id="SVGID_7_" gradientUnits="userSpaceOnUse" x1="380.1771" y1="125.5875" x2="461.7229" y2="125.5875" gradientTransform="matrix(1 0 0 -1 0 404)">
						<stop  offset="5.376340e-03" style="stop-color:#C7C7C7"/>
						<stop  offset="0.1989" style="stop-color:#ADADAD"/>
						<stop  offset="0.5" style="stop-color:#ADADAD"/>
						<stop  offset="0.7204" style="stop-color:#C7C7C7"/>
						<stop  offset="1" style="stop-color:#949494"/>
					</linearGradient>
					<path id="SVGID_10_" class="st35" d="M412,292.6c4.9,5.1,12.9,5.1,17.8,0l29.2-23c4.9-5.1,3-9.2-4.2-9.2h-67.7
						c-7.2,0-9.1,4.2-4.2,9.2L412,292.6z"/>
				</g>
				<g>
					<defs>
						<path id="SVGID_8_" d="M412,292.6c4.9,5.1,12.9,5.1,17.8,0l29.2-23c4.9-5.1,3-9.2-4.2-9.2h-67.7c-7.2,0-9.1,4.2-4.2,9.2
							L412,292.6z"/>
					</defs>
					<clipPath id="SVGID_9_">
						<use xlink:href="#SVGID_8_"  style="overflow:visible;"/>
					</clipPath>
					<rect x="373.9" y="262.9" class="st36" width="93.1" height="23.8"/>
				</g>
			</g>
		</g>
		
			<linearGradient id="SVGID_11_" gradientUnits="userSpaceOnUse" x1="372.2" y1="176.75" x2="469.7" y2="176.75" gradientTransform="matrix(1 0 0 -1 0 404)">
			<stop  offset="5.376340e-03" style="stop-color:#C7C7C7"/>
			<stop  offset="0.1989" style="stop-color:#ADADAD"/>
			<stop  offset="0.5" style="stop-color:#ADADAD"/>
			<stop  offset="0.7204" style="stop-color:#C7C7C7"/>
			<stop  offset="1" style="stop-color:#949494"/>
		</linearGradient>
		<path class="st37" d="M372.2,189.3v14.3v4.7v49.6c0,4.1,5,7.3,11.1,7.3H458c6.1,0,11.7-3.1,11.7-7.3v-49.6v-4.7v-14.3L372.2,189.3
			L372.2,189.3z"/>
		
			<linearGradient id="SVGID_12_" gradientUnits="userSpaceOnUse" x1="-1176.3093" y1="-4773.4229" x2="-1071.1958" y2="-4773.4229" gradientTransform="matrix(1 -3.615597e-02 0 -1 1544.7029 -4561.1514)">
			<stop  offset="5.376340e-03" style="stop-color:#C7C7C7"/>
			<stop  offset="0.1989" style="stop-color:#E1E1E1"/>
			<stop  offset="0.5" style="stop-color:#FFFFFF"/>
			<stop  offset="0.7204" style="stop-color:#E1E1E1"/>
			<stop  offset="1" style="stop-color:#949494"/>
		</linearGradient>
		<path class="st38" d="M473.5,251c0,2.2-1.9,4.3-4.1,4.4l-96.8,3.5c-2.3,0.1-4.1-1.8-4.1-4.1l0,0c0-2.2,1.9-4.3,4.1-4.4l96.8-3.5
			C471.6,246.9,473.5,248.8,473.5,251L473.5,251z"/>
		
			<linearGradient id="SVGID_13_" gradientUnits="userSpaceOnUse" x1="-1176.3093" y1="-4756.1226" x2="-1071.1958" y2="-4756.1226" gradientTransform="matrix(1 -3.615597e-02 0 -1 1544.7029 -4561.1514)">
			<stop  offset="5.376340e-03" style="stop-color:#C7C7C7"/>
			<stop  offset="0.1989" style="stop-color:#E1E1E1"/>
			<stop  offset="0.5" style="stop-color:#FFFFFF"/>
			<stop  offset="0.7204" style="stop-color:#E1E1E1"/>
			<stop  offset="1" style="stop-color:#949494"/>
		</linearGradient>
		<path class="st39" d="M473.5,233.7c0,2.2-1.9,4.3-4.1,4.4l-96.8,3.5c-2.3,0.1-4.1-1.8-4.1-4.1l0,0c0-2.2,1.9-4.3,4.1-4.4l96.8-3.5
			C471.6,229.6,473.5,231.5,473.5,233.7L473.5,233.7z"/>
		
			<linearGradient id="SVGID_14_" gradientUnits="userSpaceOnUse" x1="-1176.3093" y1="-4738.8228" x2="-1071.1958" y2="-4738.8228" gradientTransform="matrix(1 -3.615597e-02 0 -1 1544.7029 -4561.1514)">
			<stop  offset="5.376340e-03" style="stop-color:#C7C7C7"/>
			<stop  offset="0.1989" style="stop-color:#E1E1E1"/>
			<stop  offset="0.5" style="stop-color:#FFFFFF"/>
			<stop  offset="0.7204" style="stop-color:#E1E1E1"/>
			<stop  offset="1" style="stop-color:#949494"/>
		</linearGradient>
		<path class="st40" d="M473.5,216.4c0,2.2-1.9,4.3-4.1,4.4l-96.8,3.5c-2.3,0.1-4.1-1.8-4.1-4.1l0,0c0-2.2,1.9-4.3,4.1-4.4l96.8-3.5
			C471.6,212.3,473.5,214.2,473.5,216.4L473.5,216.4z"/>
		
			<linearGradient id="SVGID_15_" gradientUnits="userSpaceOnUse" x1="-1176.3093" y1="-4721.5229" x2="-1071.1958" y2="-4721.5229" gradientTransform="matrix(1 -3.615597e-02 0 -1 1544.7029 -4561.1514)">
			<stop  offset="5.376340e-03" style="stop-color:#C7C7C7"/>
			<stop  offset="0.1989" style="stop-color:#E1E1E1"/>
			<stop  offset="0.5" style="stop-color:#FFFFFF"/>
			<stop  offset="0.7204" style="stop-color:#E1E1E1"/>
			<stop  offset="1" style="stop-color:#949494"/>
		</linearGradient>
		<path class="st41" d="M473.5,199.1c0,2.2-1.9,4.3-4.1,4.4l-96.8,3.5c-2.3,0.1-4.1-1.8-4.1-4.1l0,0c0-2.2,1.9-4.3,4.1-4.4l96.8-3.5
			C471.6,195,473.5,196.9,473.5,199.1L473.5,199.1z"/>
		
			<linearGradient id="SVGID_16_" gradientUnits="userSpaceOnUse" x1="364.7" y1="214.5" x2="477.2" y2="214.5" gradientTransform="matrix(1 0 0 -1 0 404)">
			<stop  offset="5.376340e-03" style="stop-color:#C7C7C7"/>
			<stop  offset="0.1989" style="stop-color:#E1E1E1"/>
			<stop  offset="0.5" style="stop-color:#FFFFFF"/>
			<stop  offset="0.7204" style="stop-color:#E1E1E1"/>
			<stop  offset="1" style="stop-color:#949494"/>
		</linearGradient>
		<path class="st42" d="M475.7,191H366.2c-0.9,0-1.5-0.7-1.5-1.5l0,0c0-0.9,0.7-1.5,1.5-1.5h109.5c0.9,0,1.5,0.7,1.5,1.5l0,0
			C477.2,190.3,476.6,191,475.7,191z"/>
		<g class="st43">
			
				<radialGradient id="SVGID_17_" cx="454.8743" cy="-13.7133" r="77.0983" gradientTransform="matrix(0.9839 0 0 -0.8928 -26.5508 223.6081)" gradientUnits="userSpaceOnUse">
				<stop  offset="0" style="stop-color:#FFFFFF"/>
				<stop  offset="0.3231" style="stop-color:#FFFFFF"/>
				<stop  offset="0.9301" style="stop-color:#DDE3D5"/>
			</radialGradient>
			<path class="st44" d="M409.8,305.6c-11.8,0-21.4-8.8-21.4-19.6v-2.4c-14.9-4.6-25.2-17.6-25.2-32v-63.2h115.6v63.2
				c0,14.4-10.3,27.4-25.2,32v2.4c0,10.8-9.6,19.6-21.4,19.6H409.8z"/>
			<path class="st16" d="M476.9,190.2v61.4c0,14.4-10.7,26.7-25.2,30.7v3.7c0,9.8-8.8,17.8-19.6,17.8h-22.3
				c-10.8,0-19.6-8-19.6-17.8v-3.7c-14.5-3.9-25.2-16.2-25.2-30.7v-61.4L476.9,190.2 M480.6,186.6H477H365h-3.6v3.6v61.4
				c0,14.8,10.2,28.1,25.2,33.3v1.1c0,11.8,10.4,21.4,23.2,21.4h22.3c12.8,0,23.2-9.6,23.2-21.4v-1c15-5.2,25.2-18.5,25.2-33.3
				v-61.4L480.6,186.6L480.6,186.6z"/>
		</g>
	</g>
</g>
<g>
	<g>
		<defs>
			<path id="SVGID_18_" d="M832.3,198.1H591.9c-3.8,0-7.1,2.6-8.1,6.2h-3.4v0.2l0,0v39.4l0,0h3.1v15.8h-3.1v0.1l0,0v39.4l0,0h3.1
				v11.6H579l0,0v18l0,0h4.5V341H579l0,0v17.8l0,0h4.5c0.5,4.2,4,7.5,8.3,7.5h79.4v5.3h16v-5.3H722v3.7h3.2h37.7h3.2v-3.7h21.6v2.2
				h1.9h24.9h1.6v-2.2h16.2c4.6,0,8.4-3.8,8.4-8.4V206.5C840.8,201.9,837,198.1,832.3,198.1z"/>
		</defs>
		<clipPath id="SVGID_19_">
			<use xlink:href="#SVGID_18_"  style="overflow:visible;"/>
		</clipPath>
		<rect x="570.4" y="287.8" class="st45" width="278.5" height="95.4"/>
	</g>
</g>
<path class="st10" d="M256.6,298.2h-0.7v-19.3c0-2-1.6-3.6-3.6-3.6h-57.1v3.5H108v-3.5H50.9c-2,0-3.6,1.6-3.6,3.6v19.3
	c-0.1,0-0.2,0-0.3,0h-1.3c-1.9,0-3.5,1.6-3.5,3.5V353c0,1.9,1.6,3.5,3.5,3.5H47c0.1,0,0.2,0,0.3,0v19.3c0,2,1.6,3.6,3.6,3.6H108
	v-3.5h87.2v3.5h57.1c2,0,3.6-1.6,3.6-3.6v-19.3h0.7c1.9,0,3.5-1.6,3.5-3.5v-51.3C260.1,299.7,258.5,298.2,256.6,298.2z"/>
<path class="st15" d="M36.8,346v-51.3c0-1.9,1.6-3.5,3.5-3.5h1.4c1.9,0,3.5,1.6,3.5,3.5V346c0,1.9-1.6,3.5-3.5,3.5h-1.4
	C38.4,349.5,36.8,347.9,36.8,346z"/>
<path class="st15" d="M246.3,346v-51.3c0-1.9,1.6-3.5,3.5-3.5h1.4c1.9,0,3.5,1.6,3.5,3.5V346c0,1.9-1.6,3.5-3.5,3.5h-1.4
	C247.9,349.5,246.3,347.9,246.3,346z"/>
<rect x="45.7" y="271.9" class="st46" width="202.9" height="97"/>
<path class="st16" d="M242.7,333.9v-27c0-0.9,0.8-1.7,1.7-1.7h2.5c0.9,0,1.7,0.8,1.7,1.7v27c0,0.9-0.8,1.7-1.7,1.7h-2.5
	C243.5,335.5,242.7,334.8,242.7,333.9z"/>
<path class="st16" d="M43.9,333.9v-27c0-0.9,0.8-1.7,1.7-1.7h2.5c0.9,0,1.7,0.8,1.7,1.7v27c0,0.9-0.8,1.7-1.7,1.7h-2.5
	C44.7,335.5,43.9,334.8,43.9,333.9z"/>
<g>
	<path class="st34" d="M102.6,367.4H46.9v-94h55.7v-5H45.5c-2,0-3.6,1.6-3.6,3.6v96.8c0,2,1.6,3.6,3.6,3.6h57.1V367.4z"/>
	<path class="st34" d="M189.8,273.3h55.7v94h-55.7v5h57.1c2,0,3.6-1.6,3.6-3.6v-96.8c0-2-1.6-3.6-3.6-3.6h-57.1L189.8,273.3
		L189.8,273.3z"/>
</g>
<radialGradient id="SVGID_20_" cx="-690.2263" cy="3853.7029" r="12.6523" gradientTransform="matrix(0 1.2637 1.2533 0 -4595.29 1193.189)" gradientUnits="userSpaceOnUse">
	<stop  offset="0" style="stop-color:#FFFFFF"/>
	<stop  offset="0.3231" style="stop-color:#FFFFFF"/>
	<stop  offset="0.9301" style="stop-color:#DDE3D5"/>
</radialGradient>
<path class="st47" d="M221.7,326v-10.1c0-5.8,4.8-10.6,10.6-10.6h0.4c5.8,0,10.6,4.8,10.6,10.6V326c0,5.8-4.8,10.6-10.6,10.6h-0.4
	C226.5,336.6,221.7,331.8,221.7,326z"/>
<radialGradient id="SVGID_21_" cx="-690.2263" cy="3843.4028" r="15.4385" gradientTransform="matrix(0 1.2637 0.2674 0 -795.3392 1193.189)" gradientUnits="userSpaceOnUse">
	<stop  offset="0" style="stop-color:#FFFFFF"/>
	<stop  offset="0.3231" style="stop-color:#FFFFFF"/>
	<stop  offset="0.9301" style="stop-color:#C9C9C9"/>
</radialGradient>
<path class="st48" d="M229.2,337.2v-32.5c0-1.5,1.3-2.8,2.8-2.8l0,0c1.5,0,2.8,1.3,2.8,2.8v32.5c0,1.5-1.3,2.8-2.8,2.8l0,0
	C230.4,340,229.2,338.8,229.2,337.2z"/>
<path class="st9" d="M49.8,354v-67.3c0-5.8,4.8-10.6,10.6-10.6h161.7c5.8,0,10.6,4.8,10.6,10.6V354c0,5.8-4.8,10.6-10.6,10.6H60.4
	C54.6,364.6,49.8,359.8,49.8,354z"/>
<rect x="127.6" y="276.1" class="st49" width="26.1" height="88.5"/>
<rect x="171.3" y="276.1" class="st49" width="51.2" height="88.5"/>
<ellipse class="st50" cx="197.7" cy="321" rx="15.5" ry="15.6"/>
<ellipse class="st34" cx="83.6" cy="321" rx="15.5" ry="15.6"/>
<path class="st34" d="M208.7,318.9v3.5h-9.2v8.9h-3.3v-8.9H187v-3.5h9.2V310h3.3v8.9H208.7z"/>
<path class="st50" d="M73.2,319.1h19.7v3.6H73.2V319.1z"/>
<path class="st51" d="M221.9,290H60.5c-2.6,0-4.8-2.1-4.8-4.8l0,0c0-2.6,2.1-4.8,4.8-4.8h161.4c2.6,0,4.8,2.1,4.8,4.8l0,0
	C226.7,287.9,224.5,290,221.9,290z"/>
<g>
	<g>
		<defs>
			<path id="SVGID_22_" d="M189.8,273.3h55.7v94h-55.7v5h57.1c2,0,3.6-1.6,3.6-3.6v-96.8c0-2-1.6-3.6-3.6-3.6h-57.1L189.8,273.3
				L189.8,273.3z"/>
		</defs>
		<clipPath id="SVGID_23_">
			<use xlink:href="#SVGID_22_"  style="overflow:visible;"/>
		</clipPath>
		<rect x="186.9" y="321" class="st52" width="66.5" height="54.3"/>
	</g>
</g>
<g>
	<g>
		<defs>
			<path id="SVGID_24_" d="M102.6,372.3H45.5c-2,0-3.6-1.6-3.6-3.6v-96.8c0-2,1.6-3.6,3.6-3.6h57.1v5H46.9v94h55.7
				C102.6,367.3,102.6,372.3,102.6,372.3z"/>
		</defs>
		<clipPath id="SVGID_25_">
			<use xlink:href="#SVGID_24_"  style="overflow:visible;"/>
		</clipPath>
		<rect x="39.4" y="321" class="st53" width="66.5" height="54.3"/>
	</g>
</g>
<path class="st54" d="M49.8,321v33c0,5.8,4.8,10.6,10.6,10.6h161.7c5.8,0,10.6-4.8,10.6-10.6v-33H49.8z"/>
<g>
	<rect x="594.5" y="209.1" class="st34" width="92.9" height="20.5"/>
</g>
<g>
	<rect x="636" y="317.8" class="st55" width="8" height="3"/>
	<rect x="624" y="317.8" class="st55" width="8" height="3"/>
	<rect x="648" y="317.8" class="st55" width="8" height="3"/>
	<rect x="600" y="317.8" class="st55" width="8" height="3"/>
	<rect x="612" y="317.8" class="st55" width="8" height="3"/>
	<path class="st55" d="M678.4,323.3v2.7h3v-2.7c0-3-2.5-5.5-5.5-5.5H672v3h3.9C677.3,320.8,678.4,321.9,678.4,323.3z"/>
	<rect x="678.4" y="330" class="st55" width="3" height="8"/>
	<rect x="660" y="317.8" class="st55" width="8" height="3"/>
	<rect x="678.4" y="342" class="st55" width="3" height="8"/>
	<rect x="678.4" y="354" class="st55" width="3" height="8"/>
	<rect x="588.7" y="317.8" class="st55" width="7.3" height="3"/>
</g>
<g>
	<path class="st8" d="M612,214.9c1,0,1.5,0.5,1.5,1.6v5.6c0,1-0.5,1.6-1.5,1.6h-7.3c-0.3,0-0.5-0.2-0.5-0.6c0-0.3,0.2-0.5,0.5-0.5
		h6.9c0.5,0,0.6-0.1,0.6-0.6v-5.3c0-0.5-0.1-0.6-0.6-0.6h-6.7c-0.3,0-0.5-0.2-0.5-0.5s0.2-0.6,0.5-0.6h7.1V214.9z"/>
	<path class="st8" d="M627,216.4c0,0.1,0,0.2,0,0.2c-0.5,2.2-1.7,4.3-3.5,5.6c-1.6,1.2-3.9,1.9-5.9,2l0,0c-0.3,0-0.6-0.2-0.6-0.5
		c0,0,0,0,0-0.1c0-0.3,0.2-0.6,0.5-0.6c1.9-0.1,4.1-0.8,5.4-1.8c1.5-1.2,2.6-3,3.1-4.9c0.1-0.3,0.3-0.5,0.5-0.5c0.1,0,0.1,0,0.2,0
		C626.9,215.9,627,216,627,216.4z M620.9,217.2c0.1,0.1,0.2,0.3,0.2,0.4c0,0.2-0.1,0.3-0.2,0.4c-0.1,0.1-0.2,0.2-0.4,0.2
		s-0.3-0.1-0.5-0.2c-0.7-0.8-1.8-1.7-2.7-2.3c-0.1-0.1-0.2-0.3-0.2-0.4s0.1-0.3,0.1-0.4c0.1-0.1,0.3-0.2,0.4-0.2
		c0.1,0,0.3,0.1,0.4,0.1C619,215.4,620.1,216.4,620.9,217.2z"/>
	<path class="st8" d="M631.6,221.5c0,1.7,0.3,1.8,2.8,1.8c1.4,0,2.8-0.1,3.9-0.3c0.1,0,0.1,0,0.2,0c0.3,0,0.4,0.2,0.5,0.5v0.1
		c0,0.3-0.2,0.5-0.5,0.6c-1.2,0.2-2.6,0.3-4.3,0.3c-3.1,0-3.7-0.5-3.7-2.9v-6.7c0-0.3,0.2-0.5,0.6-0.5c0.3,0,0.6,0.1,0.6,0.5v3.5
		c2-0.3,4.3-1,6-2c0.1-0.1,0.2-0.1,0.3-0.1c0.2,0,0.4,0.1,0.5,0.3c0.1,0.1,0.1,0.2,0.1,0.3c0,0.2-0.1,0.4-0.3,0.5
		c-1.8,1.1-4.3,1.8-6.6,2.1L631.6,221.5L631.6,221.5z M640.7,214.5c0,0.8-0.6,1.4-1.4,1.4c-0.8,0-1.4-0.6-1.4-1.4s0.6-1.4,1.4-1.4
		C640.1,213.1,640.7,213.8,640.7,214.5z M638.4,214.5c0,0.5,0.4,0.9,0.9,0.9s0.9-0.4,0.9-0.9s-0.4-0.8-0.9-0.8
		C638.8,213.8,638.4,214,638.4,214.5z"/>
	<path class="st8" d="M651.3,223c0.3,0,0.4,0.2,0.4,0.5s-0.1,0.5-0.4,0.5h-8c-0.3,0-0.4-0.2-0.4-0.5s0.2-0.5,0.4-0.5h4.8
		c0.4-1.7,0.7-3.3,0.8-4.6v-0.1c0-0.2-0.1-0.3-0.4-0.3h-4.2c-0.2,0-0.4-0.2-0.4-0.5s0.2-0.5,0.4-0.5h4.6c0.4,0,0.6,0.1,0.8,0.3
		c0.2,0.2,0.3,0.5,0.3,0.8c0,0.1,0,0.1,0,0.2c-0.1,1.4-0.4,3.1-0.8,4.7H651.3z"/>
	<path class="st8" d="M655.3,219.9c-0.3,0-0.5-0.2-0.5-0.6c0-0.3,0.2-0.6,0.5-0.6h9.7c0.3,0,0.5,0.2,0.5,0.6c0,0.3-0.2,0.6-0.5,0.6
		H655.3z"/>
	<path class="st8" d="M671.7,216.1c-0.8,1.2-1.8,2.4-3,3.1c-0.1,0.1-0.2,0.1-0.3,0.1c-0.2,0-0.3-0.1-0.4-0.2
		c-0.1-0.1-0.1-0.2-0.1-0.3c0-0.2,0.1-0.4,0.2-0.5c0.7-0.5,1.4-1.2,2-1.9c0.6-0.8,1.1-1.6,1.5-2.6c0.1-0.3,0.2-0.3,0.4-0.3
		c0.1,0,0.1,0,0.2,0c0.2,0,0.4,0.2,0.4,0.4v0.1c-0.1,0.3-0.2,0.7-0.4,1.1l4.1-0.1c0.8,0,1.3,0.4,1.3,1.2c0,0.2,0,0.3-0.1,0.5
		c-0.3,1.7-1,3.3-2.2,4.6c-1.3,1.6-3.2,2.8-5.6,3.5c-0.1,0-0.2,0-0.2,0c-0.2,0-0.4-0.1-0.5-0.3c0-0.1,0-0.2,0-0.2
		c0-0.2,0.1-0.4,0.4-0.5c1.9-0.6,3.4-1.5,4.7-2.7c-0.9-0.9-2-1.7-2.9-2.3c-0.1-0.1-0.2-0.2-0.2-0.4c0-0.1,0.1-0.2,0.1-0.3
		c0.1-0.1,0.3-0.2,0.4-0.2c0.1,0,0.2,0,0.3,0.1c0.8,0.5,2,1.3,3,2.3c0.8-1.1,1.3-2.3,1.6-3.7c0-0.1,0-0.2,0-0.3
		c0-0.2-0.1-0.4-0.5-0.4L671.7,216.1z"/>
</g>
</svg>
