<?xml version="1.0" encoding="utf-8"?>
<!-- Generator: Adobe Illustrator 23.0.1, SVG Export Plug-In . SVG Version: 6.00 Build 0)  -->
<svg version="1.1" id="レイヤー_1" xmlns="http://www.w3.org/2000/svg" xmlns:xlink="http://www.w3.org/1999/xlink" x="0px"
	 y="0px" viewBox="0 0 236 259" style="enable-background:new 0 0 236 259;" xml:space="preserve">
<style type="text/css">
	.st0{fill:none;}
	.st1{fill:#886D5A;}
	.st2{fill:#808080;}
	.st3{fill:#81674A;}
	.st4{opacity:8.000000e-02;fill:#333333;enable-background:new    ;}
	.st5{fill:#D2F0F0;}
	.st6{clip-path:url(#SVGID_2_);}
	.st7{fill:#EDE349;}
	.st8{fill:#ECBD27;}
	.st9{fill:#FFFFFF;}
	.st10{fill:#333333;}
	.st11{clip-path:url(#SVGID_4_);}
	.st12{fill:#DEAA00;}
	.st13{fill:none;stroke:#808080;stroke-width:5.5598;stroke-miterlimit:10;}
	.st14{fill:#6E6E6E;}
	.st15{fill:#F2F8F8;}
	.st16{fill:#5A9E6B;}
	.st17{fill:#F9D2A8;}
	.st18{fill:#F8C68F;}
	.st19{fill:#FFF3D9;}
</style>
<rect class="st0" width="236" height="259"/>
<rect x="17.3" y="19" class="st0" width="218.7" height="240"/>
<polygon class="st1" points="65.9,258.5 72.7,246.8 50.5,234 36.3,258.5 "/>
<rect x="51.5" y="214.4" transform="matrix(0.5 -0.866 0.866 0.5 -162.1449 173.5347)" class="st2" width="35.4" height="25.6"/>
<path class="st3" d="M69,248.7l-18.2-10.5c-2.5-1.4-3.4-4.7-1.9-7.2l0,0c1.4-2.5,4.7-3.4,7.2-1.9l18.2,10.5c2.5,1.4,3.4,4.7,1.9,7.2
	l0,0C74.7,249.3,71.5,250.1,69,248.7z"/>
<path class="st4" d="M181.4,33.9l-2.8,4.8c49.2,28.7,66,91.8,37.5,141.1c-28.5,49.4-91.5,66.4-141,38.1l-23.4,40.6H66l5.3-9.2
	c1.9,0.1,3.9-0.8,4.9-2.6s0.9-3.9-0.2-5.5l7.4-12.9c13.9,6,28.4,8.8,42.9,8.8c37.7,0,74.5-19.6,94.6-54.5
	C250.9,130.7,233.1,64.1,181.4,33.9z"/>
<g>
	<circle class="st5" cx="126.4" cy="128.1" r="106.3"/>
	<path class="st2" d="M126.3,237.2c-18.5,0-37.2-4.7-54.4-14.6c-25.2-14.6-43.3-38.1-50.8-66.2S17.4,98.9,32,73.6
		c14.6-25.2,38.1-43.3,66.2-50.8s57.5-3.7,82.8,10.9c52.1,30.1,70,96.9,39.9,149l0,0C200.7,217.6,164,237.2,126.3,237.2z
		 M126.6,24.6c-9,0-18,1.2-27,3.6c-26.7,7.2-49,24.3-62.9,48.2c-13.8,23.9-17.5,51.8-10.3,78.5s24.3,49,48.2,62.9
		c49.4,28.5,112.9,11.5,141.4-37.9l0,0c28.5-49.4,11.5-112.9-37.9-141.4C162.2,29.3,144.5,24.6,126.6,24.6z"/>
</g>
<g>
	<g>
		<defs>
			<circle id="SVGID_1_" cx="126.4" cy="128.1" r="106.3"/>
		</defs>
		<clipPath id="SVGID_2_">
			<use xlink:href="#SVGID_1_"  style="overflow:visible;"/>
		</clipPath>
		<g class="st6">
			<g>
				<path class="st7" d="M160.3,198.3l-6.5-8.1c0,0,0,0-0.1-0.1v-19c0-2.4-2-4.4-4.4-4.4H63c-2.4,0-4.4,2-4.4,4.4v19
					c0,0,0,0,0.1,0.1l6.5,8.1c1.5,1.9,1.5,5,0,6.9l-6.5,8.1c0,0,0,0-0.1,0.1v11.5c0,2.4,2,4.4,4.4,4.4h12.4v-15.9c0,0,0,0,0.1-0.1
					l6.5-8.1c1.5-1.9,1.5-5,0-6.9l-6.5-8.1c0,0,0,0-0.1-0.1v-11.5c0-2.4,2-4.4,4.4-4.4h6.6c2.4,0,4.4,2,4.4,4.4v11.5
					c0,0,0,0,0.1,0.1l6.5,8.1c1.5,1.9,1.5,5,0,6.9l-6.5,8.1c0,0,0,0-0.1,0.1v15.9h58.6c2.4,0,4.4-2,4.4-4.4v-11.5c0,0,0,0,0.1-0.1
					l6.5-8.1C161.8,203.2,161.8,200.1,160.3,198.3z"/>
				<path class="st8" d="M149.4,167.3c2.1,0,3.8,1.7,3.8,3.8v19v0.2l0.1,0.2c0,0,0,0.1,0.1,0.1l6.5,8.1c1.3,1.7,1.3,4.5,0,6.2
					l-6.5,8.1l-0.1,0.1l0,0l-0.1,0.2v0.2V225c0,2.1-1.7,3.8-3.8,3.8H91.3v-15.1l6.4-8c1.7-2.1,1.7-5.5,0-7.6l-6.4-8v-11.3
					c0-2.7-2.2-5-5-5h-6.6c-2.7,0-5,2.2-5,5v11.5v0.2l0.1,0.2c0,0,0,0.1,0.1,0.1l6.5,8.1c1.3,1.7,1.3,4.5,0,6.2l-6.5,8.1l-0.1,0.1
					l0,0l-0.1,0.2v0.2V229H63c-2.1,0-3.8-1.7-3.8-3.8v-11.3l6.4-8c1.7-2.1,1.7-5.5,0-7.6l-6.4-8v-18.8c0-2.1,1.7-3.8,3.8-3.8h86.4
					 M149.4,166.7H63c-2.4,0-4.4,2-4.4,4.4v19c0,0,0,0,0.1,0.1l6.5,8.1c1.5,1.9,1.5,5,0,6.9l-6.5,8.1c0,0,0,0-0.1,0.1v11.5
					c0,2.4,2,4.4,4.4,4.4h12.4v-15.9c0,0,0,0,0.1-0.1l6.5-8.1c1.5-1.9,1.5-5,0-6.9l-6.5-8.1c0,0,0,0-0.1-0.1v-11.5
					c0-2.4,2-4.4,4.4-4.4h6.6c2.4,0,4.4,2,4.4,4.4v11.5c0,0,0,0,0.1,0.1l6.5,8.1c1.5,1.9,1.5,5,0,6.9l-6.5,8.1c0,0,0,0-0.1,0.1v15.9
					h58.6c2.4,0,4.4-2,4.4-4.4v-11.5c0,0,0,0,0.1-0.1l6.5-8.1c1.5-1.9,1.5-5,0-6.9l-6.5-8.1c0,0,0,0-0.1-0.1v-19
					C153.8,168.7,151.8,166.7,149.4,166.7L149.4,166.7z"/>
			</g>
			<g>
				<path class="st9" d="M136.5,172.9h-17.6c-5.3,0-9.6-4.3-9.6-9.6v-1c0-5.3,4.3-9.6,9.6-9.6h17.6c5.3,0,9.6,4.3,9.6,9.6v1
					C146.1,168.6,141.8,172.9,136.5,172.9z"/>
				<path class="st8" d="M136.5,153.5c4.8,0,8.7,3.9,8.7,8.7v1c0,4.8-3.9,8.7-8.7,8.7h-17.6c-4.8,0-8.7-3.9-8.7-8.7v-1
					c0-4.8,3.9-8.7,8.7-8.7H136.5 M136.5,152.7h-17.6c-5.3,0-9.6,4.3-9.6,9.6v1c0,5.3,4.3,9.6,9.6,9.6h17.6c5.3,0,9.6-4.3,9.6-9.6
					v-1C146.1,157,141.8,152.7,136.5,152.7L136.5,152.7z"/>
			</g>
			<g>
				<path class="st10" d="M124.6,165.3v-1.8l4.2-5.6h1.8v5.8h1.3v1.6h-1.3v2.2h-1.9v-2.2H124.6z M128.7,160.3l-2.5,3.4h2.6
					L128.7,160.3L128.7,160.3z"/>
			</g>
		</g>
	</g>
	<g>
		<defs>
			<circle id="SVGID_3_" cx="126.4" cy="128.1" r="106.3"/>
		</defs>
		<clipPath id="SVGID_4_">
			<use xlink:href="#SVGID_3_"  style="overflow:visible;"/>
		</clipPath>
		<g class="st11">
			<g>
				<path class="st7" d="M120.6,142.6H41.8c-3.4,0-6.1-2.8-6.1-6.1v-232c0-3.4,2.8-6.1,6.1-6.1H214c3.4,0,6.1,2.8,6.1,6.1v232
					c0,3.4-2.8,6.1-6.1,6.1h-78.8l-7.3,8.1L120.6,142.6z"/>
				<g>
					<path class="st12" d="M214-101.3c3.1,0,5.7,2.6,5.7,5.7v232c0,3.1-2.6,5.7-5.7,5.7h-78.7H135l-0.3,0.3l-6.8,7.6l-6.8-7.6
						l-0.3-0.3h-0.4H41.8c-3.1,0-5.7-2.6-5.7-5.7v-232c0-3.1,2.6-5.7,5.7-5.7H214 M214-102.1H41.8c-3.6,0-6.6,3-6.6,6.6v232
						c0,3.6,3,6.6,6.6,6.6h78.7l7.4,8.3l7.4-8.3H214c3.6,0,6.6-3,6.6-6.6v-232C220.6-99.2,217.6-102.1,214-102.1L214-102.1z"/>
				</g>
			</g>
			<g>
				<path class="st9" d="M69.4,15.6c-13.5,0-24.5-11-24.5-24.5s11-24.5,24.5-24.5s24.5,11,24.5,24.5S82.9,15.6,69.4,15.6z"/>
				<g>
					<path class="st7" d="M69.4-32.9c13.2,0,24,10.8,24,24s-10.8,24-24,24s-24-10.8-24-24S56.1-32.9,69.4-32.9 M69.4-33.9
						c-13.8,0-25,11.2-25,25s11.2,25,25,25s25-11.2,25-25S83.2-33.9,69.4-33.9L69.4-33.9z"/>
				</g>
			</g>
			<g>
				<path class="st9" d="M69.4,74.8c-13.5,0-24.5-11-24.5-24.5s11-24.5,24.5-24.5s24.5,11,24.5,24.5S82.9,74.8,69.4,74.8z"/>
				<g>
					<path class="st7" d="M69.4,26.3c13.2,0,24,10.8,24,24s-10.8,24-24,24s-24-10.8-24-24S56.1,26.3,69.4,26.3 M69.4,25.3
						c-13.8,0-25,11.2-25,25s11.2,25,25,25s25-11.2,25-25S83.2,25.3,69.4,25.3L69.4,25.3z"/>
				</g>
			</g>
			<g>
				<g>
					<path class="st9" d="M127.9,15.6c-13.5,0-24.5-11-24.5-24.5s11-24.5,24.5-24.5s24.5,11,24.5,24.5S141.4,15.6,127.9,15.6z"/>
					<path class="st7" d="M127.9-32.9c13.2,0,24,10.8,24,24s-10.8,24-24,24s-24-10.8-24-24S114.7-32.9,127.9-32.9 M127.9-33.9
						c-13.8,0-25,11.2-25,25s11.2,25,25,25s25-11.2,25-25S141.7-33.9,127.9-33.9L127.9-33.9z"/>
				</g>
				<g>
					<path class="st9" d="M127.9,74.8c-13.5,0-24.5-11-24.5-24.5s11-24.5,24.5-24.5s24.5,11,24.5,24.5S141.4,74.8,127.9,74.8z"/>
					<path class="st7" d="M127.9,26.3c13.2,0,24,10.8,24,24s-10.8,24-24,24s-24-10.8-24-24S114.7,26.3,127.9,26.3 M127.9,25.3
						c-13.8,0-25,11.2-25,25s11.2,25,25,25s25-11.2,25-25S141.7,25.3,127.9,25.3L127.9,25.3z"/>
				</g>
				<g>
					<path class="st9" d="M127.9,134.1c-13.5,0-24.5-11-24.5-24.5s11-24.5,24.5-24.5s24.5,11,24.5,24.5S141.4,134.1,127.9,134.1z"/>
					<path class="st7" d="M127.9,85.5c13.2,0,24,10.8,24,24s-10.8,24-24,24s-24-10.8-24-24S114.7,85.5,127.9,85.5 M127.9,84.6
						c-13.8,0-25,11.2-25,25s11.2,25,25,25s25-11.2,25-25S141.7,84.6,127.9,84.6L127.9,84.6z"/>
				</g>
			</g>
			<g>
				<g>
					<path class="st9" d="M186.4,15.6c-13.5,0-24.5-11-24.5-24.5s11-24.5,24.5-24.5s24.5,11,24.5,24.5S199.9,15.6,186.4,15.6z"/>
					<path class="st7" d="M186.4-32.9c13.2,0,24,10.8,24,24s-10.8,24-24,24s-24-10.8-24-24S173.2-32.9,186.4-32.9 M186.4-33.9
						c-13.8,0-25,11.2-25,25s11.2,25,25,25s25-11.2,25-25S200.2-33.9,186.4-33.9L186.4-33.9z"/>
				</g>
				<g>
					<path class="st9" d="M186.4,74.8c-13.5,0-24.5-11-24.5-24.5s11-24.5,24.5-24.5s24.5,11,24.5,24.5S199.9,74.8,186.4,74.8z"/>
					<path class="st7" d="M186.4,26.3c13.2,0,24,10.8,24,24s-10.8,24-24,24s-24-10.8-24-24S173.2,26.3,186.4,26.3 M186.4,25.3
						c-13.8,0-25,11.2-25,25s11.2,25,25,25s25-11.2,25-25S200.2,25.3,186.4,25.3L186.4,25.3z"/>
				</g>
				<g>
					<path class="st9" d="M186.4,134.1c-13.5,0-24.5-11-24.5-24.5s11-24.5,24.5-24.5s24.5,11,24.5,24.5S199.9,134.1,186.4,134.1z"/>
					<path class="st7" d="M186.4,85.5c13.2,0,24,10.8,24,24s-10.8,24-24,24s-24-10.8-24-24S173.2,85.5,186.4,85.5 M186.4,84.6
						c-13.8,0-25,11.2-25,25s11.2,25,25,25s25-11.2,25-25S200.2,84.6,186.4,84.6L186.4,84.6z"/>
				</g>
			</g>
			<g>
				<path class="st10" d="M125,106.2c0.2-0.7,0.5-1.2,0.8-1.7s0.7-0.7,1.2-0.9c0.5-0.2,0.9-0.3,1.5-0.3c0.5,0,1,0.1,1.5,0.3
					c0.5,0.2,0.9,0.5,1.2,0.9s0.6,1,0.8,1.7s0.3,1.5,0.3,2.6c0,1-0.1,1.9-0.3,2.6s-0.5,1.3-0.8,1.7c-0.4,0.4-0.8,0.7-1.2,0.9
					c-0.5,0.2-1,0.3-1.5,0.3s-1-0.1-1.5-0.3c-0.5-0.2-0.9-0.5-1.2-0.9c-0.3-0.4-0.6-1-0.8-1.7c-0.2-0.7-0.3-1.6-0.3-2.6
					C124.7,107.7,124.8,106.9,125,106.2z M126.8,109.8c0,0.4,0.1,0.8,0.2,1.2c0.1,0.4,0.3,0.7,0.5,1s0.6,0.4,1,0.4s0.8-0.1,1-0.4
					s0.4-0.6,0.5-1s0.2-0.8,0.2-1.2c0-0.4,0-0.8,0-1.1c0-0.2,0-0.4,0-0.6c0-0.3,0-0.5-0.1-0.8s-0.1-0.5-0.1-0.8
					c-0.1-0.3-0.2-0.5-0.3-0.7s-0.3-0.4-0.5-0.5s-0.4-0.2-0.7-0.2s-0.5,0.1-0.7,0.2s-0.4,0.3-0.5,0.5s-0.2,0.4-0.3,0.7
					c-0.1,0.3-0.1,0.5-0.1,0.8s0,0.5-0.1,0.8c0,0.3,0,0.5,0,0.6C126.8,109.1,126.8,109.4,126.8,109.8z"/>
			</g>
			<g>
				<path class="st10" d="M125.2,47.3c0.2-0.5,0.4-1,0.7-1.3c0.3-0.4,0.7-0.7,1.2-0.9s1-0.3,1.7-0.3c0.5,0,0.9,0.1,1.4,0.2
					c0.4,0.1,0.8,0.4,1.1,0.6c0.3,0.3,0.6,0.6,0.8,1s0.3,0.9,0.3,1.4s-0.1,1-0.3,1.4s-0.4,0.7-0.7,1s-0.6,0.6-0.9,0.8
					c-0.3,0.2-0.7,0.5-1.1,0.7c-0.4,0.2-0.7,0.5-1,0.8s-0.6,0.6-0.9,0.9h4.9v1.8h-7.6c0-0.6,0.1-1.1,0.3-1.6
					c0.2-0.4,0.4-0.8,0.7-1.2c0.3-0.4,0.6-0.7,1-1s0.8-0.6,1.3-0.9c0.2-0.2,0.5-0.3,0.7-0.5c0.3-0.2,0.5-0.3,0.7-0.5
					s0.4-0.4,0.5-0.7c0.1-0.2,0.2-0.5,0.2-0.9c0-0.5-0.1-0.9-0.4-1.2c-0.3-0.3-0.7-0.4-1.1-0.4c-0.3,0-0.6,0.1-0.8,0.2
					c-0.2,0.1-0.4,0.3-0.5,0.6c-0.1,0.2-0.2,0.5-0.3,0.8c-0.1,0.3-0.1,0.6-0.1,0.8h-2C124.9,48.4,125,47.9,125.2,47.3z"/>
			</g>
			<g>
				<path class="st10" d="M187.1,49.2c0.3,0,0.5-0.1,0.7-0.2c0.2-0.1,0.4-0.2,0.5-0.4s0.2-0.4,0.2-0.7c0-0.4-0.1-0.8-0.4-1
					c-0.3-0.2-0.6-0.4-1-0.4c-0.5,0-0.9,0.2-1.2,0.5c-0.3,0.4-0.4,0.8-0.4,1.3h-2c0-0.5,0.1-1,0.3-1.5c0.2-0.4,0.4-0.8,0.7-1.1
					s0.7-0.6,1.1-0.7c0.4-0.2,0.9-0.3,1.4-0.3c0.4,0,0.8,0.1,1.2,0.2c0.4,0.1,0.8,0.3,1.1,0.6c0.3,0.2,0.6,0.6,0.8,0.9
					c0.2,0.4,0.3,0.8,0.3,1.2c0,0.5-0.1,1-0.4,1.3c-0.2,0.4-0.6,0.7-1.1,0.8l0,0c0.6,0.1,1,0.4,1.3,0.8s0.5,0.9,0.5,1.5
					c0,0.5-0.1,1-0.3,1.5c-0.2,0.4-0.5,0.8-0.9,1.1s-0.8,0.5-1.2,0.7c-0.5,0.1-0.9,0.2-1.5,0.2s-1.1-0.1-1.6-0.3s-0.9-0.4-1.2-0.7
					s-0.6-0.7-0.8-1.2s-0.3-1-0.3-1.6h2c0,0.3,0.1,0.5,0.1,0.8c0.1,0.3,0.2,0.5,0.3,0.7s0.3,0.3,0.6,0.4c0.2,0.1,0.5,0.2,0.8,0.2
					c0.5,0,0.9-0.1,1.2-0.4c0.3-0.3,0.5-0.7,0.5-1.2c0-0.4-0.1-0.7-0.2-0.9c-0.2-0.2-0.3-0.4-0.6-0.5s-0.5-0.1-0.8-0.2
					c-0.3,0-0.6,0-0.8,0v-1.5C186.6,49.2,186.8,49.2,187.1,49.2z"/>
			</g>
			<g>
				<path class="st10" d="M68.4,55.4v-6.8h-2.6V47c0.4,0,0.7,0,1.1-0.1c0.3-0.1,0.6-0.2,0.9-0.3c0.3-0.2,0.5-0.4,0.7-0.6
					c0.2-0.3,0.3-0.6,0.4-1h1.7v10.5h-2.2V55.4z"/>
			</g>
			<g>
				<path class="st10" d="M200.2,102.2c0-0.6-0.5-1.1-1.1-1.1h-18.9c-0.6,0-1.1,0-1.1,0s-0.3,0.4-0.6,0.8l-5.3,6.9
					c-0.4,0.5-0.4,1.2,0,1.7l5.3,6.9c0.4,0.5,0.6,0.8,0.6,0.8l0,0c0,0,0.5,0,1.1,0h18.9c0.6,0,1.1-0.5,1.1-1.1V102.2z"/>
			</g>
			<g>
				<g>
					<g>
						<path class="st9" d="M188.3,109.3c0.1,0.1,0.3,0.1,0.4,0.1s0.3,0,0.4-0.1c-0.1,0.3-0.1,0.6,0,0.9c-0.1-0.1-0.3-0.1-0.4-0.1
							c-0.2,0-0.3,0-0.4,0.1C188.4,109.9,188.4,109.6,188.3,109.3 M191.9,105.7c-0.1,0-0.2,0-0.3,0.1l-2.5,2.6
							c-0.1,0.1-0.2,0.1-0.3,0.1s-0.2,0-0.3-0.1l-2.5-2.6c-0.1-0.1-0.2-0.1-0.3-0.1s-0.2,0-0.3,0.1l-0.5,0.5c-0.2,0.2-0.2,0.4,0,0.6
							l2.5,2.6c0.2,0.2,0.2,0.4,0,0.6l-2.5,2.6c-0.2,0.2-0.2,0.4,0,0.6l0.5,0.5c0.1,0.1,0.2,0.1,0.3,0.1s0.2,0,0.3-0.1l2.5-2.6
							c0.1-0.1,0.2-0.1,0.3-0.1s0.2,0,0.3,0.1l2.5,2.6c0.1,0.1,0.2,0.1,0.3,0.1s0.2,0,0.3-0.1l0.5-0.5c0.2-0.2,0.2-0.4,0-0.6
							l-2.5-2.6c-0.2-0.2-0.2-0.4,0-0.6l2.5-2.6c0.2-0.2,0.2-0.4,0-0.6l-0.5-0.5C192.1,105.7,192,105.7,191.9,105.7L191.9,105.7z"/>
					</g>
				</g>
			</g>
		</g>
	</g>
	<g>
		<circle id="SVGID_9_" class="st13" cx="126.4" cy="128.1" r="106.3"/>
	</g>
</g>
<path class="st14" d="M126.3,236.1c-18.3,0-36.9-4.7-53.8-14.5c-25-14.4-42.9-37.7-50.3-65.6c-7.5-27.9-3.6-57,10.8-82
	s37.7-42.9,65.6-50.3c27.9-7.5,57-3.6,82,10.8c51.6,29.8,69.3,96,39.5,147.6C200,216.7,163.6,236.1,126.3,236.1z M126.6,21
	c-9.3,0-18.7,1.2-27.9,3.7c-27.6,7.4-50.7,25.1-65,49.9S15.6,128.2,23,155.8s25.1,50.7,49.9,65c51.1,29.5,116.8,11.9,146.3-39.2
	l0.4,0.2l-0.4-0.2c29.5-51.1,11.9-116.8-39.2-146.3C163.5,25.9,145.2,21,126.6,21z"/>
<circle class="st15" cx="39.5" cy="165.2" r="4.1"/>
<path class="st15" d="M52.3,189.4c-1,0-1.9-0.4-2.6-1.2c-3-3.8-5.8-7.8-8.4-11.9c-1-1.5-0.5-3.5,1-4.5s3.5-0.5,4.5,1
	c2.5,3.9,5.2,7.7,8,11.3c1.1,1.4,0.9,3.4-0.5,4.6C53.7,189.2,53,189.4,52.3,189.4z"/>
<path class="st16" d="M139.8,198.9v2.4c0,2.2-1.8,4-4,4h-12.5v-2.5c0-0.3-0.1-0.5-0.4-0.7c-0.1-0.1-0.3-0.1-0.4-0.1
	c-0.1,0-0.2,0-0.4,0.1l-10.7,5.4c-0.3,0.1-0.4,0.4-0.4,0.7c0,0.3,0.2,0.6,0.4,0.7l10.7,5.4c0.1,0.1,0.2,0.1,0.4,0.1
	c0.1,0,0.3,0,0.4-0.1c0.2-0.1,0.4-0.4,0.4-0.7v-2.5h12.5c5.4,0,9.9-4.4,9.9-9.9V196L139.8,198.9z"/>
<path class="st16" d="M139.3,187.1l-10.7-5.4c-0.1-0.1-0.2-0.1-0.4-0.1c-0.1,0-0.3,0-0.4,0.1c-0.2,0.1-0.4,0.4-0.4,0.7v2.5h-10.8
	c-5.4,0-9.9,4.4-9.9,9.9v7.7l5.8-3v-4.8c0-2.2,1.8-4,4-4h10.8v2.5c0,0.3,0.1,0.5,0.4,0.7c0.1,0.1,0.3,0.1,0.4,0.1
	c0.1,0,0.2,0,0.4-0.1l10.7-5.4c0.3-0.1,0.4-0.4,0.4-0.7S139.5,187.3,139.3,187.1z"/>
<g>
	<g>
		<path class="st17" d="M191.5,217.6c0.9-2,0.8-4.3,0.5-5.9l-6.7-24.8c-0.2-0.5-0.5-1.1-0.8-1.5l-2.8-6.3c-0.6-1.4-2.4-2.1-3.9-1.5
			l-0.2,0.1c-0.7,0.3-1.1,0.8-1.4,1.4l-0.1-0.3c-0.5-1.5-2.2-2.3-3.7-1.7l-0.4,0.2c-1,0.3-1.6,1.2-1.8,2.1l-0.3-0.9
			c-0.6-1.6-2.4-2.4-4-1.9l-0.8,0.3c-1.6,0.6-2.4,2.4-1.9,4l1.7,4.6l0,0l-2.3-6.2c-0.7-2-2.9-3-4.9-2.3l-1.9,0.7
			c-1.3,0.5-2.2,1.6-2.4,2.9l-7.4-20.3c-1-2.7-4-4.2-6.8-3.2l0,0c-2.7,1-4.2,4-3.2,6.8l12.8,35.2c0.1,0.2,0.1,0.3,0.2,0.5
			c0,0.2,0.1,0.3,0.1,0.5l2.7,7.4c-4.3-2.6-9.1-4.8-13.4-3.8c-3,0.7-8.3,2.7-6.1,6.3c3.1,5.1,12.5,6.4,17.2,9.3
			c3.5,2.2,6.3,5.1,10.1,7c0.1,0,0.2,0.1,0.3,0.1c1.3,1.1,2.9,1.7,4.7,1.9l3.7,11.3l0.1,0.2l27.7-10.1l0.2-0.1L191.5,217.6z"/>
		<path class="st18" d="M168.3,240.2l-3.8-11.6c-1.8-0.2-3.4-0.9-4.7-2h-0.1c-0.1,0-0.1-0.1-0.2-0.1c-2.3-1.1-4.2-2.6-6.1-4
			c-1.3-1-2.6-2-4.1-2.9c-1.6-1-3.8-1.8-6.2-2.7c-4.2-1.5-9-3.3-11.1-6.7c-0.6-1-0.7-2-0.3-2.9c1-2.3,4.9-3.5,6.6-3.8
			c4.5-1,9.4,1.3,13,3.4l-2.4-6.7c0-0.1-0.1-0.3-0.1-0.4v-0.1c-0.1-0.1-0.1-0.3-0.2-0.5L135.8,164c-0.5-1.4-0.4-2.9,0.2-4.3
			c0.6-1.4,1.7-2.4,3.1-2.9c1.4-0.5,2.9-0.4,4.3,0.2c1.4,0.6,2.4,1.7,2.9,3.1l7.1,19.5c0.4-1.1,1.3-1.9,2.4-2.3l1.9-0.7
			c1-0.4,2.1-0.3,3.1,0.1c1,0.5,1.7,1.2,2.1,2.2c0.1-0.2,0.1-0.4,0.2-0.7c0.4-0.8,1.1-1.4,1.9-1.8l0.8-0.3c0.8-0.3,1.8-0.3,2.6,0.1
			c0.8,0.4,1.4,1.1,1.8,1.9l0.1,0.1c0.4-0.7,1-1.3,1.7-1.5l0.4-0.2c1.6-0.6,3.3,0.2,3.9,1.7c0.3-0.4,0.8-0.8,1.3-1l0.2-0.1
			c1.6-0.7,3.5,0,4.2,1.6l2.8,6.3c0.3,0.5,0.6,1,0.8,1.5l6.7,24.8c0.3,1.3,0.5,3.7-0.4,6l5,12.2l-0.5,0.2L168.3,240.2z M140.8,203.7
			c-0.7,0-1.5,0.1-2.2,0.2c-1.2,0.3-5.3,1.4-6.2,3.5c-0.3,0.7-0.2,1.5,0.3,2.4c1.9,3.2,6.4,4.9,10.8,6.5c2.4,0.9,4.6,1.7,6.3,2.7
			c1.5,0.9,2.8,2,4.1,3c1.9,1.5,3.7,2.9,6,4c0.1,0,0.1,0.1,0.2,0.1l0.1,0.1c1.3,1.1,2.9,1.7,4.6,1.9h0.2l3.7,11.4l27.4-10l-4.9-11.9
			v-0.1c0.9-2.1,0.7-4.5,0.4-5.7l-6.7-24.7c-0.2-0.5-0.4-1-0.7-1.4l-2.8-6.4c-0.6-1.3-2.1-1.9-3.5-1.3l-0.2,0.1
			c-0.6,0.2-1,0.7-1.3,1.2l-0.3,0.6l-0.3-0.9c-0.5-1.3-2-2-3.3-1.5l-0.4,0.2c-0.8,0.3-1.4,1-1.6,1.9l-0.2,0.9l-0.6-1.8
			c-0.3-0.7-0.8-1.3-1.5-1.6s-1.5-0.4-2.2-0.1l-0.8,0.3c-0.7,0.3-1.3,0.8-1.6,1.5s-0.4,1.5-0.1,2.2l1.7,4.6l-0.5,0.2l-2.3-6.2
			c-0.3-0.9-1-1.6-1.8-2c-0.9-0.4-1.8-0.4-2.7-0.1l-1.9,0.7c-1.2,0.4-2,1.4-2.3,2.7l-0.2,1l-7.7-21.2c-0.5-1.3-1.4-2.3-2.6-2.8
			c-1.2-0.6-2.6-0.6-3.8-0.2c-1.3,0.5-2.3,1.4-2.8,2.6c-0.6,1.2-0.6,2.6-0.2,3.8l12.8,35.2c0.1,0.2,0.1,0.3,0.2,0.5l0.1,0.2
			c0,0.1,0.1,0.2,0.1,0.3l3,8.2l-0.7-0.4C148.9,205.9,144.8,203.7,140.8,203.7z"/>
	</g>
	<path class="st19" d="M145,162.8c0.1-0.6,0-1.2-0.2-1.8l-0.4-1c-0.7-1.9-2.9-2.9-4.8-2.2l0,0c-2,0.7-3,2.9-2.3,4.8l0.4,1
		c0.2,0.6,0.6,1.1,1,1.5L145,162.8z"/>
	<path class="st19" d="M134.8,206.8c1.7,0.7,3.3,1.3,5,2c-0.2,1.7-1.7,2.9-3.1,4c-0.3,0.2-2.1-1.2-2.4-1.4c-0.8-0.7-1.3-1.4-1.8-2.3
		C131.6,207.4,132.9,206,134.8,206.8z"/>
</g>
</svg>
