<?xml version="1.0" encoding="utf-8"?>
<!-- Generator: Adobe Illustrator 22.1.0, SVG Export Plug-In . SVG Version: 6.00 Build 0)  -->
<svg version="1.1" id="レイヤー_1" xmlns="http://www.w3.org/2000/svg" xmlns:xlink="http://www.w3.org/1999/xlink" x="0px"
	 y="0px" viewBox="0 0 178 306" style="enable-background:new 0 0 178 306;" xml:space="preserve">
<style type="text/css">
	.st0{fill:#DEDEDE;}
	.st1{fill:#ABABAB;}
	.st2{fill:#888888;}
	.st3{fill:#C8C8C8;stroke:#959595;stroke-width:0.9557;stroke-miterlimit:10;}
	.st4{fill:#808080;stroke:#959595;stroke-width:0.9557;stroke-miterlimit:10;}
	.st5{fill:url(#SVGID_1_);}
	.st6{fill:#666666;}
	.st7{fill:#EEEEEE;}
	.st8{fill:#9D9D9D;}
	.st9{fill:#4D4D4D;}
	.st10{fill:#333333;}
	.st11{fill:url(#SVGID_2_);}
	.st12{fill:url(#SVGID_3_);}
	.st13{fill:#F8444C;}
	.st14{fill:url(#SVGID_4_);}
	.st15{fill:url(#SVGID_5_);}
	.st16{opacity:0.14;fill:#959595;}
	.st17{fill:url(#SVGID_6_);}
	.st18{opacity:0.14;}
	.st19{fill:#959595;}
	.st20{fill:#23DCC8;}
	.st21{fill:url(#SVGID_7_);}
	.st22{fill:url(#SVGID_8_);}
</style>
<g>
	<path class="st0" d="M3.3,89c-0.1,0-0.2,0-0.3,0c-0.7,0-1.2-0.6-1.2-1.2V70.1c0-0.7,0.6-1.2,1.2-1.2c0.1,0,0.2,0,0.3,0l10.5-3.9
		c0.6,0.1,1.1,0.6,1.1,1.2v25.5c0,0.6-0.5,1.2-1.1,1.2L3.3,89z"/>
	<path class="st1" d="M13.8,65.7c0.2,0.1,0.3,0.2,0.3,0.4v25.5c0,0.2-0.1,0.4-0.3,0.4L3.5,88.3c-0.2-0.1-0.3-0.1-0.5-0.1
		c-0.2,0-0.5-0.2-0.5-0.5V70.1c0-0.2,0.2-0.5,0.5-0.5c0.2,0,0.4,0,0.5-0.1L13.8,65.7 M13.7,64.1L3,68.1c-1.1,0-2,0.9-2,2v17.7
		c0,1.1,0.9,2,2,2l10.7,3.9c1.1,0,2-0.9,2-2V66.1C15.7,65,14.8,64.1,13.7,64.1L13.7,64.1z"/>
</g>
<g>
	<circle class="st2" cx="8.3" cy="78.9" r="4"/>
	<path class="st1" d="M8.3,75.3c2,0,3.6,1.6,3.6,3.6s-1.6,3.6-3.6,3.6s-3.6-1.6-3.6-3.6S6.3,75.3,8.3,75.3 M8.3,74.4
		c-2.5,0-4.5,2-4.5,4.5c0,2.5,2,4.5,4.5,4.5s4.5-2,4.5-4.5C12.8,76.4,10.8,74.4,8.3,74.4L8.3,74.4z"/>
</g>
<g>
	<path class="st0" d="M3.3,233.3c-0.1,0-0.2,0-0.3,0c-0.7,0-1.2-0.6-1.2-1.2v-17.7c0-0.7,0.6-1.2,1.2-1.2c0.1,0,0.2,0,0.3,0
		l10.5-3.9c0.6,0.1,1.1,0.6,1.1,1.2v25.5c0,0.6-0.5,1.2-1.1,1.2L3.3,233.3z"/>
	<path class="st1" d="M13.8,210c0.2,0.1,0.3,0.2,0.3,0.4v25.5c0,0.2-0.1,0.4-0.3,0.4l-10.3-3.7c-0.2-0.1-0.3-0.1-0.5-0.1
		c-0.2,0-0.5-0.2-0.5-0.5v-17.7c0-0.2,0.2-0.5,0.5-0.5c0.2,0,0.4,0,0.5-0.1L13.8,210 M13.7,208.4l-10.7,4c-1.1,0-2,0.9-2,2V232
		c0,1.1,0.9,2,2,2l10.7,3.9c1.1,0,2-0.9,2-2v-25.5C15.7,209.3,14.8,208.4,13.7,208.4L13.7,208.4z"/>
</g>
<g>
	<path class="st2" d="M8.3,227.2c-2.2,0-4-1.8-4-4c0-2.2,1.8-4,4-4s4,1.8,4,4C12.4,225.4,10.6,227.2,8.3,227.2z"/>
	<g>
		<path class="st1" d="M8.3,219.5c2,0,3.6,1.6,3.6,3.6s-1.6,3.6-3.6,3.6s-3.6-1.6-3.6-3.6S6.3,219.5,8.3,219.5 M8.3,218.6
			c-2.5,0-4.5,2-4.5,4.5c0,2.5,2,4.5,4.5,4.5s4.5-2,4.5-4.5C12.8,220.7,10.8,218.6,8.3,218.6L8.3,218.6z"/>
	</g>
</g>
<path class="st3" d="M173.7,82.9h-1.9c-1.1,0-1.9-0.9-1.9-1.9V45.4c0-1.1,0.9-1.9,1.9-1.9h1.9c1.1,0,1.9,0.9,1.9,1.9v35.5
	C175.6,82,174.8,82.9,173.7,82.9z"/>
<path class="st4" d="M176,67.5h-5.1c-0.5,0-1-0.4-1-1v-6.7c0-0.5,0.4-1,1-1h5.1c0.5,0,1,0.4,1,1v6.7C177,67,176.6,67.5,176,67.5z"/>
<path class="st3" d="M173.7,262.9h-1.9c-1.1,0-1.9-0.9-1.9-1.9v-35.5c0-1.1,0.9-1.9,1.9-1.9h1.9c1.1,0,1.9,0.9,1.9,1.9V261
	C175.6,262.1,174.8,262.9,173.7,262.9z"/>
<path class="st4" d="M176,247.6h-5.1c-0.5,0-1-0.4-1-1v-6.7c0-0.5,0.4-1,1-1h5.1c0.5,0,1,0.4,1,1v6.7
	C177,247.1,176.6,247.6,176,247.6z"/>
<g>
	<radialGradient id="SVGID_1_" cx="91.751" cy="152.9997" r="121.3117" gradientUnits="userSpaceOnUse">
		<stop  offset="1.429116e-03" style="stop-color:#F1F1F1"/>
		<stop  offset="0.5171" style="stop-color:#EAEAEA"/>
		<stop  offset="0.5233" style="stop-color:#EAEAEA"/>
		<stop  offset="0.7657" style="stop-color:#DDDDDD"/>
		<stop  offset="1" style="stop-color:#D9D9D9"/>
	</radialGradient>
	<path class="st5" d="M34.6,304.7c-12.6,0-22.9-10.3-22.9-22.9V24.2C11.7,11.5,22,1.3,34.6,1.3h114.3c12.6,0,22.9,10.3,22.9,22.9
		v257.7c0,12.6-10.3,22.9-22.9,22.9H34.6z"/>
	<path class="st1" d="M148.9,2.5c11.9,0,21.6,9.7,21.6,21.6v257.7c0,11.9-9.7,21.6-21.6,21.6H34.6c-11.9,0-21.6-9.7-21.6-21.6V24.2
		c0-11.9,9.7-21.6,21.6-21.6H148.9 M148.9,0H34.6C21.3,0,10.4,10.9,10.4,24.2v257.7c0,13.3,10.9,24.2,24.2,24.2h114.3
		c13.3,0,24.2-10.9,24.2-24.2V24.2C173.1,10.9,162.2,0,148.9,0L148.9,0z"/>
</g>
<g>
	<path class="st0" d="M41.5,294.9c-11.8,0-21.5-9.6-21.5-21.5V32.8c0-11.8,9.6-21.5,21.5-21.5H142c11.8,0,21.5,9.6,21.5,21.5v240.7
		c0,11.8-9.6,21.5-21.5,21.5H41.5z"/>
	<path class="st1" d="M142,11.8c11.6,0,21,9.4,21,21v240.7c0,11.6-9.4,21-21,21H41.5c-11.6,0-21-9.4-21-21V32.8c0-11.6,9.4-21,21-21
		H142 M142,10.8H41.5c-12.1,0-22,9.9-22,22v240.7c0,12.1,9.9,22,22,22H142c12.1,0,22-9.9,22-22V32.8C164,20.7,154.1,10.8,142,10.8
		L142,10.8z"/>
</g>
<g>
	<path class="st6" d="M38.8,254.5c-7.6,0-13.8-6.2-13.8-13.8v-70.4c0-7.6,6.2-13.8,13.8-13.8h105.9c7.6,0,13.8,6.2,13.8,13.8v70.4
		c0,7.6-6.2,13.8-13.8,13.8H38.8z"/>
	<path class="st7" d="M144.7,158c6.8,0,12.3,5.5,12.3,12.3v70.4c0,6.8-5.5,12.3-12.3,12.3H38.8c-6.8,0-12.3-5.5-12.3-12.3v-70.4
		c0-6.8,5.5-12.3,12.3-12.3H144.7 M144.7,155.1H38.8c-8.4,0-15.2,6.9-15.2,15.2v70.4c0,8.4,6.9,15.2,15.2,15.2h105.9
		c8.4,0,15.2-6.9,15.2-15.2v-70.4C160,162,153.1,155.1,144.7,155.1L144.7,155.1z"/>
</g>
<g>
	<path class="st8" d="M143,255.1H40.7c-7.8,0-14.3-6.4-14.3-14.3v-63.6c0-7.8,6.4-14.3,14.3-14.3H143c7.8,0,14.3,6.4,14.3,14.3v63.6
		C157.3,248.7,150.9,255.1,143,255.1z"/>
</g>
<g>
	<path class="st9" d="M47.1,284.7c-8,0-14.5-6.5-14.5-14.5v-89.4c0-8,6.5-14.5,14.5-14.5h89.4c8,0,14.5,6.5,14.5,14.5v89.4
		c0,8-6.5,14.5-14.5,14.5H47.1z"/>
	<path class="st10" d="M136.5,167.5c7.3,0,13.3,6,13.3,13.3v89.4c0,7.3-6,13.3-13.3,13.3H47.1c-7.3,0-13.3-6-13.3-13.3v-89.4
		c0-7.3,6-13.3,13.3-13.3H136.5 M136.5,165.1H47.1c-8.6,0-15.7,7.1-15.7,15.7v89.4c0,8.6,7.1,15.7,15.7,15.7h89.4
		c8.6,0,15.7-7.1,15.7-15.7v-89.4C152.1,172.1,145.1,165.1,136.5,165.1L136.5,165.1z"/>
</g>
<g>
	<path class="st6" d="M38.8,113.6c-7.6,0-13.8-6.2-13.8-13.8V29.4c0-7.6,6.2-13.8,13.8-13.8h105.9c7.6,0,13.8,6.2,13.8,13.8v70.4
		c0,7.6-6.2,13.8-13.8,13.8H38.8z"/>
	<path class="st7" d="M144.7,17.1c6.8,0,12.3,5.5,12.3,12.3v70.4c0,6.8-5.5,12.3-12.3,12.3H38.8c-6.8,0-12.3-5.5-12.3-12.3V29.4
		c0-6.8,5.5-12.3,12.3-12.3H144.7 M144.7,14.2H38.8c-8.4,0-15.2,6.9-15.2,15.2v70.4c0,8.4,6.9,15.2,15.2,15.2h105.9
		c8.4,0,15.2-6.9,15.2-15.2V29.4C160,21.1,153.1,14.2,144.7,14.2L144.7,14.2z"/>
</g>
<g>
	<path class="st8" d="M143,114.1H40.7c-7.8,0-14.3-6.4-14.3-14.3V36.3c0-7.8,6.4-14.3,14.3-14.3H143c7.8,0,14.3,6.4,14.3,14.3v63.6
		C157.3,107.7,150.9,114.1,143,114.1z"/>
</g>
<g>
	<path class="st9" d="M47.1,143.7c-8,0-14.5-6.5-14.5-14.5V39.8c0-8,6.5-14.5,14.5-14.5h89.4c8,0,14.5,6.5,14.5,14.5v89.4
		c0,8-6.5,14.5-14.5,14.5H47.1z"/>
	<path class="st10" d="M136.5,26.5c7.3,0,13.3,6,13.3,13.3v89.4c0,7.3-6,13.3-13.3,13.3H47.1c-7.3,0-13.3-6-13.3-13.3V39.8
		c0-7.3,6-13.3,13.3-13.3H136.5 M136.5,24.1H47.1c-8.6,0-15.7,7.1-15.7,15.7v89.4c0,8.6,7.1,15.7,15.7,15.7h89.4
		c8.6,0,15.7-7.1,15.7-15.7V39.8C152.1,31.2,145.1,24.1,136.5,24.1L136.5,24.1z"/>
</g>
<path class="st16" d="M116.6,83.5c0.1-0.1,0.1-0.3,0.1-0.5L107.7,50c0-0.1,0-0.1-0.1-0.2l0-0.4c0-0.4-0.3-0.7-0.6-0.7l-12-0.5V46
	h0.7c1,0,1.8-0.7,1.8-1.5l0.9-7.6h1.1c0.7,0,1.2-0.5,1.2-1.2c0-0.7-0.5-1.2-1.2-1.2h-1.7l-0.2-0.5c0-0.8-0.8-1.5-1.8-1.5h-7.9
	c-1,0-1.8,0.7-1.8,1.5l-0.2,0.5H84c-0.7,0-1.2,0.5-1.2,1.2c0,0.7,0.5,1.2,1.2,1.2H85l0.9,7.6c0,0.8,0.8,1.5,1.8,1.5h0.7v2.3
	l-12.1,0.5c-0.4,0-0.7,0.3-0.6,0.7l0,0.5c0,0,0,0,0,0l-8.9,33.1c-0.1,0.2,0,0.4,0.1,0.5c-0.3,1.4-0.6,3.1,0.2,3.9
	c0.5,1.1,1.6,1.8,2.6,1.8c0.1,0,0.1,0,0.2,0c0.1,0,0.1,0,0.1-0.1c0.4-0.8,0.8-1.7,1-2.6l0.1,0.1c0,0.1,0.1,0.2,0.2,0.2
	c0.1,0,0.3,0.1,0.5-0.3c0.3-0.4,0.4-0.9,0.5-1.4c0.3,0,0.5-0.2,0.5-0.4l4.1-15.3L77.5,86c0,0.5,0.3,0.8,0.7,0.9l0.1,41.3
	c-0.6,0.4-1.2,0.9-1.6,1.6c-0.6,0.9-0.8,1.9-0.6,2.8c0.1,0.3,0.3,0.5,0.6,0.5l9.7,0.1c0,0,0,0,0,0c0.4,0,0.7-0.3,0.7-0.6l0.1-3.7
	c0-0.1,0-0.1,0-0.2L90.7,90h2.1l3.2,37.8l0.1,4.8c0,0.4,0.3,0.6,0.7,0.6c0,0,0,0,0,0l9.7-0.1c0.3,0,0.6-0.2,0.6-0.5
	c0.2-0.9,0-1.9-0.6-2.8c-0.4-0.6-1-1.1-1.5-1.5l0.1-41.4c0.4-0.1,0.7-0.5,0.7-0.9l0.4-16.6l4.1,15.3c0.1,0.3,0.3,0.5,0.6,0.4
	c0.1,0.5,0.3,1,0.5,1.4c0.2,0.3,0.4,0.3,0.5,0.3c0.1,0,0.2-0.2,0.2-0.2l0.1-0.1c0.2,0.9,0.6,1.8,1,2.6c0,0.1,0.1,0.1,0.1,0.1
	c0.1,0,0.1,0,0.2,0c1,0,2.1-0.7,2.6-1.8C117.3,86.7,116.9,84.9,116.6,83.5z"/>
<g class="st18">
	<circle class="st19" cx="91.8" cy="33.7" r="1.3"/>
	<circle class="st19" cx="90.2" cy="36.7" r="1.3"/>
	<circle class="st19" cx="93.3" cy="36.7" r="1.3"/>
	<circle class="st19" cx="90.2" cy="45.8" r="1.3"/>
	<circle class="st19" cx="93.3" cy="45.8" r="1.3"/>
	<circle class="st19" cx="90.2" cy="48.9" r="1.3"/>
	<circle class="st19" cx="87" cy="49.2" r="1.3"/>
	<circle class="st19" cx="83.8" cy="49.3" r="1.3"/>
	<circle class="st19" cx="80.5" cy="49.5" r="1.3"/>
	<circle class="st19" cx="77.2" cy="49.7" r="1.3"/>
	<circle class="st19" cx="76" cy="53.1" r="1.3"/>
	<circle class="st19" cx="74.8" cy="56.7" r="1.3"/>
	<circle class="st19" cx="73.6" cy="60.2" r="1.3"/>
	<circle class="st19" cx="72.6" cy="63.8" r="1.3"/>
	<circle class="st19" cx="71.5" cy="67.4" r="1.3"/>
	<circle class="st19" cx="70.4" cy="70.9" r="1.3"/>
	<circle class="st19" cx="69.4" cy="74.5" r="1.3"/>
	<circle class="st19" cx="68.4" cy="78.1" r="1.3"/>
	<circle class="st19" cx="67.5" cy="81.7" r="1.3"/>
	<circle class="st19" cx="67.1" cy="85" r="1.3"/>
	<circle class="st19" cx="69.1" cy="87.9" r="1.3"/>
	<circle class="st19" cx="70.3" cy="84.9" r="1.3"/>
	<circle class="st19" cx="70.7" cy="81.5" r="1.3"/>
	<circle class="st19" cx="74.5" cy="77.4" r="1.3"/>
	<circle class="st19" cx="75.4" cy="74.2" r="1.3"/>
	<circle class="st19" cx="76.1" cy="71" r="1.3"/>
	<circle class="st19" cx="77.3" cy="67.8" r="1.3"/>
	<circle class="st19" cx="78.2" cy="64.8" r="1.3"/>
	<circle class="st19" cx="71.5" cy="78.3" r="1.3"/>
	<circle class="st19" cx="72.4" cy="74.9" r="1.3"/>
	<circle class="st19" cx="73.1" cy="71.6" r="1.3"/>
	<circle class="st19" cx="74.2" cy="68.3" r="1.3"/>
	<circle class="st19" cx="75.2" cy="65.1" r="1.3"/>
	<circle class="st19" cx="76.3" cy="62" r="1.3"/>
	<circle class="st19" cx="77.3" cy="58.9" r="1.3"/>
	<circle class="st19" cx="78.3" cy="56" r="1.3"/>
	<circle class="st19" cx="79.3" cy="52.7" r="1.3"/>
	<circle class="st19" cx="79.5" cy="61.9" r="1.3"/>
	<circle class="st19" cx="80.5" cy="58.9" r="1.3"/>
	<circle class="st19" cx="81.8" cy="56" r="1.3"/>
	<circle class="st19" cx="107.3" cy="53.1" r="1.3"/>
	<circle class="st19" cx="108.5" cy="56.7" r="1.3"/>
	<circle class="st19" cx="109.7" cy="60.2" r="1.3"/>
	<circle class="st19" cx="110.7" cy="63.8" r="1.3"/>
	<circle class="st19" cx="111.8" cy="67.4" r="1.3"/>
	<circle class="st19" cx="112.9" cy="70.9" r="1.3"/>
	<circle class="st19" cx="113.9" cy="74.5" r="1.3"/>
	<circle class="st19" cx="114.9" cy="78.1" r="1.3"/>
	<circle class="st19" cx="115.8" cy="81.7" r="1.3"/>
	<circle class="st19" cx="116.2" cy="85" r="1.3"/>
	<circle class="st19" cx="114.2" cy="87.9" r="1.3"/>
	<circle class="st19" cx="113" cy="84.9" r="1.3"/>
	<circle class="st19" cx="112.6" cy="81.5" r="1.3"/>
	<circle class="st19" cx="108.8" cy="77.4" r="1.3"/>
	<circle class="st19" cx="107.9" cy="74.2" r="1.3"/>
	<circle class="st19" cx="107.2" cy="71" r="1.3"/>
	<circle class="st19" cx="106" cy="67.8" r="1.3"/>
	<circle class="st19" cx="105.1" cy="64.8" r="1.3"/>
	<circle class="st19" cx="111.8" cy="78.3" r="1.3"/>
	<circle class="st19" cx="110.9" cy="74.9" r="1.3"/>
	<circle class="st19" cx="110.2" cy="71.6" r="1.3"/>
	<circle class="st19" cx="109.1" cy="68.3" r="1.3"/>
	<circle class="st19" cx="108.1" cy="65.1" r="1.3"/>
	<circle class="st19" cx="107" cy="62" r="1.3"/>
	<circle class="st19" cx="106" cy="58.9" r="1.3"/>
	<circle class="st19" cx="105" cy="56" r="1.3"/>
	<circle class="st19" cx="104" cy="52.7" r="1.3"/>
	<circle class="st19" cx="103.8" cy="61.9" r="1.3"/>
	<circle class="st19" cx="102.7" cy="58.9" r="1.3"/>
	<circle class="st19" cx="101.9" cy="56" r="1.3"/>
	<circle class="st19" cx="82.4" cy="52.7" r="1.3"/>
	<circle class="st19" cx="80.2" cy="69.4" r="1.3"/>
	<circle class="st19" cx="80.2" cy="72.5" r="1.3"/>
	<circle class="st19" cx="80.2" cy="75.5" r="1.3"/>
	<circle class="st19" cx="80.2" cy="78.5" r="1.3"/>
	<circle class="st19" cx="80.2" cy="81.6" r="1.3"/>
	<circle class="st19" cx="80.2" cy="84.6" r="1.3"/>
	<circle class="st19" cx="80.2" cy="87.7" r="1.3"/>
	<circle class="st19" cx="80.2" cy="91" r="1.3"/>
	<circle class="st19" cx="80.1" cy="94.4" r="1.3"/>
	<circle class="st19" cx="80.1" cy="97.8" r="1.3"/>
	<circle class="st19" cx="80" cy="101.2" r="1.3"/>
	<circle class="st19" cx="80" cy="104.6" r="1.3"/>
	<circle class="st19" cx="79.9" cy="108" r="1.3"/>
	<circle class="st19" cx="79.8" cy="111.4" r="1.3"/>
	<circle class="st19" cx="79.8" cy="114.9" r="1.3"/>
	<circle class="st19" cx="79.7" cy="118.5" r="1.3"/>
	<circle class="st19" cx="79.7" cy="122" r="1.3"/>
	<circle class="st19" cx="79.6" cy="125.6" r="1.3"/>
	<circle class="st19" cx="83.9" cy="91.1" r="1.3"/>
	<circle class="st19" cx="83.8" cy="94.5" r="1.3"/>
	<circle class="st19" cx="83.7" cy="97.9" r="1.3"/>
	<circle class="st19" cx="83.6" cy="101.3" r="1.3"/>
	<circle class="st19" cx="83.5" cy="104.7" r="1.3"/>
	<circle class="st19" cx="83.4" cy="108.1" r="1.3"/>
	<circle class="st19" cx="83.3" cy="111.5" r="1.3"/>
	<circle class="st19" cx="83.2" cy="115" r="1.3"/>
	<circle class="st19" cx="83" cy="118.6" r="1.3"/>
	<circle class="st19" cx="82.9" cy="122.1" r="1.3"/>
	<circle class="st19" cx="82.8" cy="125.6" r="1.3"/>
	<circle class="st19" cx="83.8" cy="128.5" r="1.3"/>
	<circle class="st19" cx="80.1" cy="128.3" r="1.3"/>
	<circle class="st19" cx="87.8" cy="91" r="1.3"/>
	<circle class="st19" cx="87.7" cy="94.4" r="1.3"/>
	<circle class="st19" cx="87.6" cy="97.8" r="1.3"/>
	<circle class="st19" cx="87.4" cy="101.2" r="1.3"/>
	<circle class="st19" cx="87.3" cy="104.6" r="1.3"/>
	<circle class="st19" cx="87.1" cy="108" r="1.3"/>
	<circle class="st19" cx="87" cy="111.4" r="1.3"/>
	<circle class="st19" cx="86.8" cy="114.9" r="1.3"/>
	<circle class="st19" cx="86.7" cy="118.5" r="1.3"/>
	<circle class="st19" cx="86.6" cy="122" r="1.3"/>
	<circle class="st19" cx="86.2" cy="125.6" r="1.3"/>
	<circle class="st19" cx="77.8" cy="131.2" r="1.3"/>
	<circle class="st19" cx="81.7" cy="131.2" r="1.3"/>
	<circle class="st19" cx="85.4" cy="131.2" r="1.3"/>
	<circle class="st19" cx="103.1" cy="91" r="1.3"/>
	<circle class="st19" cx="103.2" cy="94.4" r="1.3"/>
	<circle class="st19" cx="103.2" cy="97.8" r="1.3"/>
	<circle class="st19" cx="103.3" cy="101.2" r="1.3"/>
	<circle class="st19" cx="103.3" cy="104.6" r="1.3"/>
	<circle class="st19" cx="103.4" cy="108" r="1.3"/>
	<circle class="st19" cx="103.4" cy="111.4" r="1.3"/>
	<circle class="st19" cx="103.5" cy="114.9" r="1.3"/>
	<circle class="st19" cx="103.6" cy="118.5" r="1.3"/>
	<circle class="st19" cx="103.6" cy="122" r="1.3"/>
	<circle class="st19" cx="103.7" cy="125.6" r="1.3"/>
	<circle class="st19" cx="99.4" cy="91.1" r="1.3"/>
	<circle class="st19" cx="99.5" cy="94.5" r="1.3"/>
	<circle class="st19" cx="99.6" cy="97.9" r="1.3"/>
	<circle class="st19" cx="99.7" cy="101.3" r="1.3"/>
	<circle class="st19" cx="99.8" cy="104.7" r="1.3"/>
	<circle class="st19" cx="99.9" cy="108.1" r="1.3"/>
	<circle class="st19" cx="100" cy="111.5" r="1.3"/>
	<circle class="st19" cx="100.1" cy="115" r="1.3"/>
	<circle class="st19" cx="100.2" cy="118.6" r="1.3"/>
	<circle class="st19" cx="100.4" cy="122.1" r="1.3"/>
	<circle class="st19" cx="100.5" cy="125.6" r="1.3"/>
	<circle class="st19" cx="99.5" cy="128.5" r="1.3"/>
	<circle class="st19" cx="103.2" cy="128.3" r="1.3"/>
	<circle class="st19" cx="95.5" cy="91" r="1.3"/>
	<circle class="st19" cx="95.6" cy="94.4" r="1.3"/>
	<circle class="st19" cx="95.7" cy="97.8" r="1.3"/>
	<circle class="st19" cx="95.9" cy="101.2" r="1.3"/>
	<circle class="st19" cx="96" cy="104.6" r="1.3"/>
	<circle class="st19" cx="96.2" cy="108" r="1.3"/>
	<circle class="st19" cx="96.3" cy="111.4" r="1.3"/>
	<circle class="st19" cx="96.4" cy="114.9" r="1.3"/>
	<circle class="st19" cx="96.6" cy="118.5" r="1.3"/>
	<circle class="st19" cx="96.7" cy="122" r="1.3"/>
	<circle class="st19" cx="97.1" cy="125.6" r="1.3"/>
	<circle class="st19" cx="105.5" cy="131.2" r="1.3"/>
	<circle class="st19" cx="101.6" cy="131.2" r="1.3"/>
	<circle class="st19" cx="97.8" cy="131.2" r="1.3"/>
	<circle class="st19" cx="83.5" cy="66.4" r="1.3"/>
	<circle class="st19" cx="80.6" cy="66.4" r="1.3"/>
	<circle class="st19" cx="102.8" cy="66.4" r="1.3"/>
	<circle class="st19" cx="83.5" cy="69.4" r="1.3"/>
	<circle class="st19" cx="83.5" cy="72.5" r="1.3"/>
	<circle class="st19" cx="83.5" cy="75.5" r="1.3"/>
	<circle class="st19" cx="83.5" cy="78.5" r="1.3"/>
	<circle class="st19" cx="83.5" cy="81.6" r="1.3"/>
	<circle class="st19" cx="83.5" cy="84.6" r="1.3"/>
	<circle class="st19" cx="83.5" cy="87.7" r="1.3"/>
	<circle class="st19" cx="86.8" cy="66.4" r="1.3"/>
	<circle class="st19" cx="86.8" cy="69.4" r="1.3"/>
	<circle class="st19" cx="86.8" cy="72.5" r="1.3"/>
	<circle class="st19" cx="86.8" cy="75.5" r="1.3"/>
	<circle class="st19" cx="86.8" cy="78.5" r="1.3"/>
	<circle class="st19" cx="86.8" cy="81.6" r="1.3"/>
	<circle class="st19" cx="86.8" cy="84.6" r="1.3"/>
	<circle class="st19" cx="86.8" cy="87.7" r="1.3"/>
	<circle class="st19" cx="90" cy="66.4" r="1.3"/>
	<circle class="st19" cx="90" cy="69.4" r="1.3"/>
	<circle class="st19" cx="90" cy="72.5" r="1.3"/>
	<circle class="st19" cx="90" cy="75.5" r="1.3"/>
	<circle class="st19" cx="90" cy="78.5" r="1.3"/>
	<circle class="st19" cx="90" cy="81.6" r="1.3"/>
	<circle class="st19" cx="90" cy="84.6" r="1.3"/>
	<circle class="st19" cx="90" cy="87.7" r="1.3"/>
	<circle class="st19" cx="93.3" cy="66.4" r="1.3"/>
	<circle class="st19" cx="93.3" cy="69.4" r="1.3"/>
	<circle class="st19" cx="93.3" cy="72.5" r="1.3"/>
	<circle class="st19" cx="93.3" cy="75.5" r="1.3"/>
	<circle class="st19" cx="93.3" cy="78.5" r="1.3"/>
	<circle class="st19" cx="93.3" cy="81.6" r="1.3"/>
	<circle class="st19" cx="93.3" cy="84.6" r="1.3"/>
	<circle class="st19" cx="93.3" cy="87.7" r="1.3"/>
	<circle class="st19" cx="96.5" cy="66.4" r="1.3"/>
	<circle class="st19" cx="96.5" cy="69.4" r="1.3"/>
	<circle class="st19" cx="96.5" cy="72.5" r="1.3"/>
	<circle class="st19" cx="96.5" cy="75.5" r="1.3"/>
	<circle class="st19" cx="96.5" cy="78.5" r="1.3"/>
	<circle class="st19" cx="96.5" cy="81.6" r="1.3"/>
	<circle class="st19" cx="96.5" cy="84.6" r="1.3"/>
	<circle class="st19" cx="96.5" cy="87.7" r="1.3"/>
	<circle class="st19" cx="99.8" cy="66.4" r="1.3"/>
	<circle class="st19" cx="83.5" cy="62.9" r="1.3"/>
	<circle class="st19" cx="86.8" cy="62.9" r="1.3"/>
	<circle class="st19" cx="90" cy="62.9" r="1.3"/>
	<circle class="st19" cx="93.3" cy="62.9" r="1.3"/>
	<circle class="st19" cx="96.5" cy="62.9" r="1.3"/>
	<circle class="st19" cx="99.8" cy="62.9" r="1.3"/>
	<circle class="st19" cx="83.9" cy="59.4" r="1.3"/>
	<circle class="st19" cx="87.1" cy="59.4" r="1.3"/>
	<circle class="st19" cx="90.4" cy="59.4" r="1.3"/>
	<circle class="st19" cx="93.6" cy="59.4" r="1.3"/>
	<circle class="st19" cx="96.9" cy="59.4" r="1.3"/>
	<circle class="st19" cx="100.2" cy="59.4" r="1.3"/>
	<circle class="st19" cx="85.3" cy="55.8" r="1.3"/>
	<circle class="st19" cx="88.6" cy="55.8" r="1.3"/>
	<circle class="st19" cx="92" cy="55.8" r="1.3"/>
	<circle class="st19" cx="95.2" cy="55.8" r="1.3"/>
	<circle class="st19" cx="98.5" cy="55.8" r="1.3"/>
	<circle class="st19" cx="85.3" cy="52.2" r="1.3"/>
	<circle class="st19" cx="88.6" cy="52.2" r="1.3"/>
	<circle class="st19" cx="91.8" cy="52.2" r="1.3"/>
	<circle class="st19" cx="95.1" cy="52.2" r="1.3"/>
	<circle class="st19" cx="98.3" cy="52.2" r="1.3"/>
	<circle class="st19" cx="101.6" cy="52.2" r="1.3"/>
	<circle class="st19" cx="99.8" cy="69.4" r="1.3"/>
	<circle class="st19" cx="99.8" cy="72.5" r="1.3"/>
	<circle class="st19" cx="99.8" cy="75.5" r="1.3"/>
	<circle class="st19" cx="99.8" cy="78.5" r="1.3"/>
	<circle class="st19" cx="99.8" cy="81.6" r="1.3"/>
	<circle class="st19" cx="99.8" cy="84.6" r="1.3"/>
	<circle class="st19" cx="99.8" cy="87.7" r="1.3"/>
	<circle class="st19" cx="103.1" cy="69.4" r="1.3"/>
	<circle class="st19" cx="103.1" cy="72.5" r="1.3"/>
	<circle class="st19" cx="103.1" cy="75.5" r="1.3"/>
	<circle class="st19" cx="103.1" cy="78.5" r="1.3"/>
	<circle class="st19" cx="103.1" cy="81.6" r="1.3"/>
	<circle class="st19" cx="103.1" cy="84.6" r="1.3"/>
	<circle class="st19" cx="103.1" cy="87.7" r="1.3"/>
	<circle class="st19" cx="96.5" cy="49.2" r="1.3"/>
	<circle class="st19" cx="99.7" cy="49.3" r="1.3"/>
	<circle class="st19" cx="102.9" cy="49.5" r="1.3"/>
	<circle class="st19" cx="106.3" cy="49.7" r="1.3"/>
	<circle class="st19" cx="93.3" cy="48.9" r="1.3"/>
	<circle class="st19" cx="88.2" cy="34" r="1.3"/>
	<circle class="st19" cx="87" cy="36.7" r="1.3"/>
	<circle class="st19" cx="91.8" cy="39.7" r="1.3"/>
	<circle class="st19" cx="95.1" cy="39.7" r="1.3"/>
	<circle class="st19" cx="88.4" cy="39.7" r="1.3"/>
	<circle class="st19" cx="91.8" cy="42.9" r="1.3"/>
	<circle class="st19" cx="96.2" cy="42.6" r="1.3"/>
	<circle class="st19" cx="87.7" cy="42.6" r="1.3"/>
	<circle class="st19" cx="84.2" cy="35.8" r="1.3"/>
	<circle class="st19" cx="85.2" cy="39.2" r="1.3"/>
	<circle class="st19" cx="98.2" cy="39.2" r="1.3"/>
	<circle class="st19" cx="99.2" cy="35.8" r="1.3"/>
	<circle class="st19" cx="96.4" cy="36.7" r="1.3"/>
	<circle class="st19" cx="95.2" cy="34" r="1.3"/>
</g>
<path class="st16" d="M108.4,234.2c0,0,3.9-1.5,3.4-4.1c-0.5-2.6-4.1-19.5-4.1-19.5l5,1.2c0,0,3.4,10.3,3.4,11.3
	c0,1,0.7,7.6,0.7,7.6s0.5,1.7,2.2,1.1c1.7-0.6,5.6-4.9,3.4-13.1c-2.2-8.2-4.5-12.7-4.5-12.7s-0.8-1.2-4.1-3.2
	c-3.3-2-13-7.6-14.1-7.8c-1.1-0.2-4,0-4,0l-0.5-3.5c0,0,1.8-2.1,1.8-3.7c0-1.6-0.6-5.4-0.6-5.4s0-0.1,0-0.3l0.1,0
	c1-0.2,1.6-1.2,1.4-2.2c-0.2-1-1.2-1.6-2.2-1.4l-0.9,0.2l-0.3-1.6c-0.2-0.9-1.1-1.5-2-1.3l-9,2c-0.9,0.2-1.5,1.1-1.3,2l0.3,1.6
	c-1,0.2-1.6,1.2-1.4,2.2c0.2,1,1.2,1.6,2.2,1.4l0.1,0c0,0.8,0.1,1.6,0.4,2.5c0.9,2.7,3.4,5.3,3.4,5.3l1.6,0.1l-0.1,3.9
	c0,0-4.2,3-5.3,5.2c-1.1,2.2-3.2,7.1-4.7,8.2c-1.5,1.1-14.1,10.8-14.1,10.8s-2.3,0.6-3.7,1.1c-1.4,0.5-2.5,1.4-2.5,1.4s-2,2.2,4,2.1
	c6-0.1,8.9,0,8.9,0s1.4-1,4.4-2.9c3-1.9,5.6-3.8,6.6-4.5c1-0.7,2.8-2.3,2.8-2.3s-0.3,4.7,0.2,7.2c0.5,2.5,1.4,6,1,7.4
	c-0.4,1.4-5.4,19.1-6,21.4c-0.6,2.3-2.4,8-3,10.9c-0.6,2.9,0.1,4.6,0.1,4.6l0.8,1.4c0,0-1,0.1-2.2,0.6c-1.2,0.5-1.8,0.6-2.1,1.8
	c-0.3,1.2-1.7,2.9,1.1,3.3c2.8,0.4,10.6,1.3,10.6,1.3l10.5-35l1-2.8c0,0,4.9,14.6,6.2,18.3c1.3,3.7,5.4,11.1,6.3,12.3
	c0.9,1.2,3,3.2,3,3.2l1.1,0.4c0,0-1.4,1.5-1.5,2.3c-0.1,0.8-0.3,1.9,0.4,2.2c0.7,0.3,3.5-0.8,5.7-2.2c2.2-1.4,4.2-2.2,4.1-3.6
	c-0.1-1.4-9.2-19.2-10-21.7C111.6,246.6,108.4,234.2,108.4,234.2z"/>
<g>
	<circle class="st16" cx="87.2" cy="178.8" r="1.2"/>
	<circle class="st16" cx="83.8" cy="180.1" r="1.2"/>
	<circle class="st16" cx="82.6" cy="183.6" r="1.2"/>
	<circle class="st16" cx="85.3" cy="186.3" r="1.2"/>
	<circle class="st16" cx="88.9" cy="185.3" r="1.2"/>
	<circle class="st16" cx="86.6" cy="238.2" r="1.2"/>
	<circle class="st16" cx="85.8" cy="241.4" r="1.2"/>
	<circle class="st16" cx="84.9" cy="244.5" r="1.2"/>
	<circle class="st16" cx="84.1" cy="247.7" r="1.2"/>
	<circle class="st16" cx="83.2" cy="250.9" r="1.2"/>
	<circle class="st16" cx="82.3" cy="254" r="1.2"/>
	<circle class="st16" cx="81.5" cy="257.2" r="1.2"/>
	<circle class="st16" cx="80.6" cy="260.3" r="1.2"/>
	<circle class="st16" cx="79.8" cy="263.5" r="1.2"/>
	<circle class="st16" cx="89.9" cy="239.2" r="1.2"/>
	<circle class="st16" cx="89.1" cy="242.4" r="1.2"/>
	<path class="st16" d="M88.5,244.3c0.7,0.2,1.2,0.9,1,1.6c-0.2,0.7-0.9,1.1-1.5,0.9c-0.7-0.2-1.1-0.9-0.9-1.5
		C87.3,244.6,87.9,244.2,88.5,244.3z"/>
	<circle class="st16" cx="87.5" cy="248.8" r="1.2"/>
	<circle class="st16" cx="86.5" cy="251.8" r="1.2"/>
	<circle class="st16" cx="85.7" cy="254.9" r="1.2"/>
	<circle class="st16" cx="84.8" cy="258.1" r="1.2"/>
	<circle class="st16" cx="83.9" cy="261.3" r="1.2"/>
	<circle class="st16" cx="83.1" cy="264.4" r="1.2"/>
	<circle class="st16" cx="93.8" cy="238.8" r="1.2"/>
	<circle class="st16" cx="92.9" cy="242" r="1.2"/>
	<circle class="st16" cx="92.1" cy="245.1" r="1.2"/>
	<circle class="st16" cx="91.2" cy="248.3" r="1.2"/>
	<circle class="st16" cx="90.4" cy="251.4" r="1.2"/>
	<circle class="st16" cx="89.5" cy="254.6" r="1.2"/>
	<circle class="st16" cx="88.6" cy="257.8" r="1.2"/>
	<circle class="st16" cx="87.8" cy="260.9" r="1.2"/>
	<circle class="st16" cx="86.9" cy="264.1" r="1.2"/>
	<circle class="st16" cx="79.1" cy="266.6" r="1.2"/>
	<circle class="st16" cx="78" cy="269.8" r="1.2"/>
	<circle class="st16" cx="82.6" cy="267.6" r="1.2"/>
	<circle class="st16" cx="81.6" cy="270.4" r="1.2"/>
	<circle class="st16" cx="86.3" cy="267.3" r="1.2"/>
	<circle class="st16" cx="85.2" cy="270.6" r="1.2"/>
	<circle class="st16" cx="84.4" cy="273.6" r="1.2"/>
	<circle class="st16" cx="80.6" cy="273.2" r="1.2"/>
	<circle class="st16" cx="77.2" cy="272.6" r="1.2"/>
	<circle class="st16" cx="100.6" cy="241.5" r="1.2"/>
	<circle class="st16" cx="99.4" cy="238.5" r="1.2"/>
	<circle class="st16" cx="101.7" cy="244.6" r="1.2"/>
	<circle class="st16" cx="102.7" cy="247.7" r="1.2"/>
	<circle class="st16" cx="103.7" cy="250.8" r="1.2"/>
	<circle class="st16" cx="104.9" cy="253.9" r="1.2"/>
	<circle class="st16" cx="106" cy="257" r="1.2"/>
	<circle class="st16" cx="107.4" cy="260.1" r="1.2"/>
	<circle class="st16" cx="109" cy="263.4" r="1.2"/>
	<circle class="st16" cx="110.6" cy="266.5" r="1.2"/>
	<circle class="st16" cx="104.2" cy="240.9" r="1.2"/>
	<circle class="st16" cx="103.3" cy="238.1" r="1.2"/>
	<circle class="st16" cx="105.2" cy="243.8" r="1.2"/>
	<circle class="st16" cx="106.2" cy="246.9" r="1.2"/>
	<circle class="st16" cx="107.3" cy="250" r="1.2"/>
	<circle class="st16" cx="108.6" cy="253.1" r="1.2"/>
	<circle class="st16" cx="109.8" cy="256.2" r="1.2"/>
	<circle class="st16" cx="111.1" cy="259.3" r="1.2"/>
	<circle class="st16" cx="112.2" cy="262.1" r="1.2"/>
	<circle class="st16" cx="114" cy="265.1" r="1.2"/>
	<circle class="st16" cx="107.4" cy="238.7" r="1.2"/>
	<circle class="st16" cx="109" cy="234.6" r="1.2"/>
	<circle class="st16" cx="108.6" cy="241.9" r="1.2"/>
	<circle class="st16" cx="109.9" cy="245.1" r="1.2"/>
	<circle class="st16" cx="110.9" cy="248.2" r="1.2"/>
	<circle class="st16" cx="112" cy="251.3" r="1.2"/>
	<circle class="st16" cx="113" cy="254.4" r="1.2"/>
	<circle class="st16" cx="114.2" cy="257.5" r="1.2"/>
	<circle class="st16" cx="115.7" cy="260.5" r="1.2"/>
	<circle class="st16" cx="117.2" cy="263.2" r="1.2"/>
	<circle class="st16" cx="118.5" cy="266.3" r="1.2"/>
	<circle class="st16" cx="115.7" cy="268.1" r="1.2"/>
	<circle class="st16" cx="112.4" cy="269.4" r="1.2"/>
	<circle class="st16" cx="120.3" cy="269.5" r="1.2"/>
	<circle class="st16" cx="117.3" cy="271.2" r="1.2"/>
	<circle class="st16" cx="114.4" cy="273.2" r="1.2"/>
	<circle class="st16" cx="92.2" cy="186.1" r="1.2"/>
	<circle class="st16" cx="92.9" cy="189.6" r="1.2"/>
	<circle class="st16" cx="95.9" cy="188.7" r="1.2"/>
	<circle class="st16" cx="86.6" cy="189.7" r="1.2"/>
	<circle class="st16" cx="89.3" cy="191.8" r="1.2"/>
	<circle class="st16" cx="93.8" cy="192.9" r="1.2"/>
	<circle class="st16" cx="94.9" cy="195.6" r="1.2"/>
	<circle class="st16" cx="98.6" cy="196.3" r="1.2"/>
	<circle class="st16" cx="89.3" cy="198.7" r="1.2"/>
	<circle class="st16" cx="86.9" cy="201" r="1.2"/>
	<circle class="st16" cx="84.4" cy="203.5" r="1.2"/>
	<circle class="st16" cx="83.1" cy="206.5" r="1.2"/>
	<circle class="st16" cx="81.3" cy="209" r="1.2"/>
	<circle class="st16" cx="79.4" cy="211.6" r="1.2"/>
	<circle class="st16" cx="76.7" cy="213.7" r="1.2"/>
	<circle class="st16" cx="73.7" cy="215.8" r="1.2"/>
	<circle class="st16" cx="71.2" cy="218" r="1.2"/>
	<circle class="st16" cx="68.3" cy="220" r="1.2"/>
	<circle class="st16" cx="65.6" cy="222" r="1.2"/>
	<circle class="st16" cx="68.8" cy="223.9" r="1.2"/>
	<circle class="st16" cx="72.8" cy="224.1" r="1.2"/>
	<circle class="st16" cx="75.8" cy="222.3" r="1.2"/>
	<circle class="st16" cx="78.7" cy="220.5" r="1.2"/>
	<circle class="st16" cx="81.3" cy="218.5" r="1.2"/>
	<circle class="st16" cx="84" cy="215.8" r="1.2"/>
	<circle class="st16" cx="71.2" cy="221.5" r="1.2"/>
	<circle class="st16" cx="74.1" cy="219.2" r="1.2"/>
	<circle class="st16" cx="77" cy="217.4" r="1.2"/>
	<circle class="st16" cx="79.8" cy="215.2" r="1.2"/>
	<circle class="st16" cx="82.3" cy="212.9" r="1.2"/>
	<circle class="st16" cx="84.5" cy="210.3" r="1.2"/>
	<circle class="st16" cx="86.6" cy="207.3" r="1.2"/>
	<circle class="st16" cx="88" cy="204.2" r="1.2"/>
	<circle class="st16" cx="90.5" cy="202.3" r="1.2"/>
	<circle class="st16" cx="93.2" cy="201" r="1.2"/>
	<circle class="st16" cx="98.9" cy="199.9" r="1.2"/>
	<circle class="st16" cx="102" cy="201.3" r="1.2"/>
	<circle class="st16" cx="107.4" cy="208.6" r="1.2"/>
	<circle class="st16" cx="107.9" cy="212.1" r="1.2"/>
	<circle class="st16" cx="104.2" cy="208.2" r="1.2"/>
	<circle class="st16" cx="105.1" cy="203.1" r="1.2"/>
	<circle class="st16" cx="99.5" cy="203.5" r="1.2"/>
	<circle class="st16" cx="93.3" cy="204.5" r="1.2"/>
	<circle class="st16" cx="93.5" cy="207.9" r="1.2"/>
	<circle class="st16" cx="96.9" cy="208.6" r="1.2"/>
	<circle class="st16" cx="93.8" cy="211.7" r="1.2"/>
	<circle class="st16" cx="94" cy="214.8" r="1.2"/>
	<circle class="st16" cx="94.2" cy="218.2" r="1.2"/>
	<circle class="st16" cx="94.4" cy="221.6" r="1.2"/>
	<circle class="st16" cx="94.6" cy="225.1" r="1.2"/>
	<circle class="st16" cx="94.8" cy="228.5" r="1.2"/>
	<circle class="st16" cx="95.1" cy="231.9" r="1.2"/>
	<circle class="st16" cx="95.1" cy="235.3" r="1.2"/>
	<circle class="st16" cx="90.7" cy="210.2" r="1.2"/>
	<circle class="st16" cx="90.4" cy="214.8" r="1.2"/>
	<circle class="st16" cx="90.6" cy="218.2" r="1.2"/>
	<circle class="st16" cx="90.9" cy="221.6" r="1.2"/>
	<circle class="st16" cx="91.1" cy="225.1" r="1.2"/>
	<circle class="st16" cx="91.3" cy="228.5" r="1.2"/>
	<circle class="st16" cx="91.7" cy="232.2" r="1.2"/>
	<circle class="st16" cx="91.4" cy="235.6" r="1.2"/>
	<circle class="st16" cx="87" cy="214.8" r="1.2"/>
	<circle class="st16" cx="87.5" cy="211.7" r="1.2"/>
	<circle class="st16" cx="87.3" cy="218.2" r="1.2"/>
	<circle class="st16" cx="87.5" cy="221.6" r="1.2"/>
	<circle class="st16" cx="87.7" cy="225.1" r="1.2"/>
	<circle class="st16" cx="87.9" cy="228.5" r="1.2"/>
	<circle class="st16" cx="88.1" cy="231.9" r="1.2"/>
	<circle class="st16" cx="87.7" cy="235.2" r="1.2"/>
	<circle class="st16" cx="100.8" cy="210.9" r="1.2"/>
	<circle class="st16" cx="100.4" cy="207.9" r="1.2"/>
	<circle class="st16" cx="102.4" cy="204.9" r="1.2"/>
	<circle class="st16" cx="101" cy="214.3" r="1.2"/>
	<circle class="st16" cx="101.3" cy="217.8" r="1.2"/>
	<circle class="st16" cx="101.5" cy="221.2" r="1.2"/>
	<circle class="st16" cx="101.7" cy="224.6" r="1.2"/>
	<circle class="st16" cx="101.9" cy="228.1" r="1.2"/>
	<circle class="st16" cx="102.1" cy="231.5" r="1.2"/>
	<circle class="st16" cx="102.3" cy="234.9" r="1.2"/>
	<circle class="st16" cx="104.4" cy="211.3" r="1.2"/>
	<circle class="st16" cx="104.6" cy="214.8" r="1.2"/>
	<circle class="st16" cx="107.8" cy="214.9" r="1.2"/>
	<circle class="st16" cx="104.8" cy="218.2" r="1.2"/>
	<circle class="st16" cx="105" cy="221.6" r="1.2"/>
	<circle class="st16" cx="105.2" cy="225.1" r="1.2"/>
	<circle class="st16" cx="105.5" cy="228.5" r="1.2"/>
	<circle class="st16" cx="105.5" cy="231.8" r="1.2"/>
	<circle class="st16" cx="108.4" cy="221.5" r="1.2"/>
	<circle class="st16" cx="108.1" cy="218.2" r="1.2"/>
	<circle class="st16" cx="108.8" cy="224.6" r="1.2"/>
	<circle class="st16" cx="109" cy="228.1" r="1.2"/>
	<circle class="st16" cx="108.9" cy="231.3" r="1.2"/>
	<path class="st16" d="M107,235.3c0.1,0.7-0.2,1.3-0.9,1.5s-1.3-0.3-1.5-1s0.3-1.3,1-1.5C106.3,234.2,106.8,234.6,107,235.3z"/>
	<circle class="st16" cx="96.5" cy="202.6" r="1.2"/>
	<circle class="st16" cx="96.5" cy="205.6" r="1.2"/>
	<circle class="st16" cx="97.2" cy="211.7" r="1.2"/>
	<circle class="st16" cx="97.5" cy="214.8" r="1.2"/>
	<circle class="st16" cx="97.7" cy="218.2" r="1.2"/>
	<circle class="st16" cx="97.9" cy="221.6" r="1.2"/>
	<circle class="st16" cx="98.1" cy="225.1" r="1.2"/>
	<circle class="st16" cx="98.3" cy="228.5" r="1.2"/>
	<circle class="st16" cx="98.5" cy="231.9" r="1.2"/>
	<circle class="st16" cx="98.8" cy="235.3" r="1.2"/>
	<circle class="st16" cx="108" cy="205" r="1.2"/>
	<circle class="st16" cx="110.4" cy="209.9" r="1.2"/>
	<circle class="st16" cx="101.8" cy="197.6" r="1.2"/>
	<circle class="st16" cx="104.7" cy="199.3" r="1.2"/>
	<circle class="st16" cx="107.7" cy="201" r="1.2"/>
	<circle class="st16" cx="110.6" cy="202.9" r="1.2"/>
	<circle class="st16" cx="113.8" cy="204.8" r="1.2"/>
	<circle class="st16" cx="116.4" cy="206.7" r="1.2"/>
	<circle class="st16" cx="118" cy="209.5" r="1.2"/>
	<circle class="st16" cx="118.9" cy="212.6" r="1.2"/>
	<circle class="st16" cx="120.5" cy="215.6" r="1.2"/>
	<circle class="st16" cx="120.9" cy="218.7" r="1.2"/>
	<circle class="st16" cx="121.7" cy="222.4" r="1.2"/>
	<circle class="st16" cx="121.8" cy="225.8" r="1.2"/>
	<circle class="st16" cx="121.3" cy="228.6" r="1.2"/>
	<circle class="st16" cx="118.5" cy="230.7" r="1.2"/>
	<circle class="st16" cx="118.5" cy="227.7" r="1.2"/>
	<circle class="st16" cx="118.9" cy="224.3" r="1.2"/>
	<circle class="st16" cx="118.9" cy="221.1" r="1.2"/>
	<circle class="st16" cx="118.1" cy="217.9" r="1.2"/>
	<circle class="st16" cx="117.4" cy="215.2" r="1.2"/>
	<circle class="st16" cx="115.7" cy="212.2" r="1.2"/>
	<circle class="st16" cx="114.1" cy="209.1" r="1.2"/>
	<circle class="st16" cx="111.1" cy="206.7" r="1.2"/>
	<circle class="st16" cx="115.8" cy="225.3" r="1.2"/>
	<circle class="st16" cx="115.7" cy="222" r="1.2"/>
	<circle class="st16" cx="115.2" cy="218.6" r="1.2"/>
	<circle class="st16" cx="114.2" cy="215.2" r="1.2"/>
	<circle class="st16" cx="112.6" cy="212.2" r="1.2"/>
	<circle class="st16" cx="90.3" cy="206.7" r="1.2"/>
	<circle class="st16" cx="62.2" cy="222.9" r="1.2"/>
	<circle class="st16" cx="65.2" cy="225.1" r="1.2"/>
	<circle class="st16" cx="95.8" cy="198.8" r="1.2"/>
	<circle class="st16" cx="90.9" cy="194.7" r="1.2"/>
	<circle class="st16" cx="92.4" cy="197.6" r="1.2"/>
	<circle class="st16" cx="89.7" cy="188.6" r="1.2"/>
	<circle class="st16" cx="86.1" cy="182.8" r="1.2"/>
	<circle class="st16" cx="90.5" cy="178" r="1.2"/>
	<circle class="st16" cx="93.7" cy="179.2" r="1.2"/>
	<circle class="st16" cx="93.2" cy="182.8" r="1.2"/>
	<circle class="st16" cx="95.7" cy="185.3" r="1.2"/>
	<circle class="st16" cx="96.2" cy="181.3" r="1.2"/>
	<circle class="st16" cx="89.7" cy="181.6" r="1.2"/>
</g>
</svg>
