<svg xmlns="http://www.w3.org/2000/svg" viewBox="0 0 230 72"><defs><style>.cls-1{fill:#2b69a9;}.cls-2{fill:#0a529c;}.cls-3{fill:#66caff;}.cls-4{fill:#29abe2;}.cls-5{fill:#f1e657;}.cls-6{fill:#d2d119;}.cls-7{fill:#f2f2f2;}.cls-8{fill:#35a16b;}</style></defs><title>アセット 18</title><g id="レイヤー_2" data-name="レイヤー 2"><g id="レイヤー_1-2" data-name="レイヤー 1"><path class="cls-1" d="M83.2,71.49a9.8,9.8,0,0,1-9.8-9.77V48.11l9.82-7.85a5.25,5.25,0,0,0,0-8.52L73.4,23.89V10.29A9.8,9.8,0,0,1,83.2.51h51.55a9.8,9.8,0,0,1,9.8,9.77V24.13a.51.51,0,0,0,.19.4l10,8a4.23,4.23,0,0,1,0,6.92l-10,8a.51.51,0,0,0-.19.4V61.71a9.8,9.8,0,0,1-9.8,9.77Z"/><path class="cls-2" d="M134.76,1A9.28,9.28,0,0,1,144,10.29V24.13a1,1,0,0,0,.39.8l10,8a3.72,3.72,0,0,1,0,6.12l-10,8a1,1,0,0,0-.39.8V61.71A9.28,9.28,0,0,1,134.76,71H83.2a9.28,9.28,0,0,1-9.29-9.26V48.36l9.62-7.7a5.76,5.76,0,0,0,0-9.32l-9.62-7.7V10.29A9.28,9.28,0,0,1,83.2,1h51.55m0-1H83.2A10.33,10.33,0,0,0,72.89,10.29V24.13l10,8a4.74,4.74,0,0,1,0,7.72l-10,8V61.71A10.33,10.33,0,0,0,83.2,72h51.55a10.33,10.33,0,0,0,10.31-10.29V47.87l10-8a4.74,4.74,0,0,0,0-7.72l-10-8V10.29A10.33,10.33,0,0,0,134.76,0Z"/><path class="cls-3" d="M10.31,71.49a9.8,9.8,0,0,1-9.8-9.77V48.11l9.82-7.85a5.25,5.25,0,0,0,0-8.52L.51,23.89V10.29A9.8,9.8,0,0,1,10.31.51H61.87a9.8,9.8,0,0,1,9.8,9.77V24.13a.51.51,0,0,0,.19.4l10,8a4.23,4.23,0,0,1,0,6.92l-10,8a.51.51,0,0,0-.19.4V61.71a9.8,9.8,0,0,1-9.8,9.77Z"/><path class="cls-4" d="M61.87,1a9.28,9.28,0,0,1,9.29,9.26V24.13a1,1,0,0,0,.39.8l10,8a3.72,3.72,0,0,1,0,6.12l-10,8a1,1,0,0,0-.39.8V61.71A9.28,9.28,0,0,1,61.87,71H10.31A9.28,9.28,0,0,1,1,61.71V48.36l9.62-7.7a5.76,5.76,0,0,0,0-9.32L1,23.64V10.29A9.28,9.28,0,0,1,10.31,1H61.87m0-1H10.31A10.33,10.33,0,0,0,0,10.29V24.13l10,8a4.74,4.74,0,0,1,0,7.72l-10,8V61.71A10.33,10.33,0,0,0,10.31,72H61.87A10.33,10.33,0,0,0,72.18,61.71V47.87l10-8a4.74,4.74,0,0,0,0-7.72l-10-8V10.29A10.33,10.33,0,0,0,61.87,0Z"/><path class="cls-5" d="M156.13,71.49a9.8,9.8,0,0,1-9.8-9.77V48.11l9.82-7.85a5.25,5.25,0,0,0,0-8.52l-9.82-7.85V10.29a9.8,9.8,0,0,1,9.8-9.77h51.55a9.8,9.8,0,0,1,9.8,9.77V24.13a.51.51,0,0,0,.19.4l10,8a4.23,4.23,0,0,1,0,6.92l-10,8a.51.51,0,0,0-.19.4V61.71a9.8,9.8,0,0,1-9.8,9.77Z"/><path class="cls-6" d="M207.69,1A9.28,9.28,0,0,1,217,10.29V24.13a1,1,0,0,0,.39.8l10,8a3.72,3.72,0,0,1,0,6.12l-10,8a1,1,0,0,0-.39.8V61.71A9.28,9.28,0,0,1,207.69,71H156.13a9.28,9.28,0,0,1-9.29-9.26V48.36l9.62-7.7a5.76,5.76,0,0,0,0-9.32l-9.62-7.7V10.29A9.28,9.28,0,0,1,156.13,1h51.55m0-1H156.13a10.33,10.33,0,0,0-10.31,10.29V24.13l10,8a4.74,4.74,0,0,1,0,7.72l-10,8V61.71A10.33,10.33,0,0,0,156.13,72h51.55A10.33,10.33,0,0,0,218,61.71V47.87l10-8a4.74,4.74,0,0,0,0-7.72l-10-8V10.29A10.33,10.33,0,0,0,207.69,0Z"/><path class="cls-7" d="M52.17,48.62A43.74,43.74,0,0,0,43.44,43a8,8,0,0,1-1.26,4.66c-.72,1.61-2.84,2.58-6.15,2.65-5.1,0-9.24-2.51-9.35-6.53,0-4.34,4.24-6.45,8.74-6.53a24.36,24.36,0,0,1,3.2.22c0-.57-.11-1.08-.14-1.58-.32-4.84-.76-13.2-.79-17.39l5.82.29c0,.36-.29.68-.9.82,0,.86,0,5.13,0,6.1a89.76,89.76,0,0,0,10.89-1.22L54,29a92.35,92.35,0,0,1-11.29,1c0,2.51.29,4.77.36,6.45.07.54.14,1.18.18,1.79a43.13,43.13,0,0,1,11.9,6.17ZM35.6,40.95c-3.77,0-4.82,1.51-4.82,2.69,0,1.94,2.19,2.73,4.64,2.73,2.12,0,3.45-1.11,3.45-2.69,0-.68,0-1.51-.11-2.26A11.27,11.27,0,0,0,35.6,40.95Z"/><path class="cls-7" d="M122.84,48a74.38,74.38,0,0,1-10.78.72,42.48,42.48,0,0,1-7.48-.5c-4.64-1-6.61-4.09-6.61-7.35a11.24,11.24,0,0,1,3.38-7.53l3.88,1.72a7.5,7.5,0,0,0-2.62,5c0,4.27,5.18,4.27,8.81,4.27a61.75,61.75,0,0,0,11.07-1ZM105.26,29.36a38.5,38.5,0,0,1,4.6-3.16v0a83,83,0,0,1-10,.32c0-1.08,0-3.37-.11-4.37.65,0,1.51,0,2.48,0,3.63,0,8.88-.14,11.4-.29a50.83,50.83,0,0,0,6.94-.82l.36,4.66a27.33,27.33,0,0,0-11.76,5.63Z"/><path class="cls-8" d="M202.86,27.89h-9.78c.68,10.08,2.84,18.86,5.46,18.9.79,0,1.29-2,1.44-6.56a12.06,12.06,0,0,0,3.77,2.65c-.68,6.92-2.16,8.53-5.61,8.53-6.22,0-8.84-11-9.71-23.52H170.37V23.7h17.87c-.07-2-.11-4-.11-6l5.82.32c0,.39-.32.65-1,.75,0,1.65,0,3.26,0,4.91h5.72a26.33,26.33,0,0,0-4.28-3.84l2.84-2.37a27.6,27.6,0,0,1,4.78,4l-2.52,2.19h3.42ZM181.51,36v8.21c2.23-.39,4.57-.82,6.79-1.25l.29,3.8c-5.82,1.33-12,2.62-16,3.41a.85.85,0,0,1-.65.65l-1.58-4.77c1.87-.29,4.24-.65,6.87-1.11V36H171.7V32h15.49v4Z"/></g></g></svg>